<svg width="23" height="32" viewBox="0 0 23 32" fill="none" xmlns="http://www.w3.org/2000/svg">
<path d="M6.99395 19.1742C4.13181 19.7552 2.58238 20.2502 0 21.5414L6.13315 1.48487C6.47747 0.408877 7.18763 0 8.17754 0H14.3107C15.4082 0 16.0323 0.602556 16.312 1.48487L22.4237 21.5414C19.9058 20.3362 18.3134 19.7337 15.4728 19.2172L11.7068 6.47747C11.4916 5.8534 10.846 5.961 10.6954 6.47747L6.99395 19.1742Z" fill="#FFFFFF"/>
<path d="M16.6348 22.4882C14.3968 24.3389 7.55346 24.382 5.9825 21.8857C5.37997 23.9731 5.74579 26.1036 7.16609 27.696C7.35332 26.6322 7.89778 26.1681 8.86615 26.1681C9.83162 26.3033 10.1114 26.7252 10.1573 28.0834C10.1202 28.8885 10.1784 29.3325 10.4801 30.1063C11.1042 31.2253 11.5562 31.5696 12.4384 32C11.7714 30.1063 12.1802 28.9872 14.0955 27.8897C16.3981 26.5124 17.2374 24.6833 16.6348 22.4882Z" fill="#FF5507"/>
</svg>
