<svg width="32" height="32" viewBox="0 0 32 32" fill="none" xmlns="http://www.w3.org/2000/svg">
<circle cx="16" cy="16" r="16" fill="#15A2D4"/>
<circle cx="16" cy="16" r="16" fill="url(#paint0_linear_21_44)"/>
<path d="M23.2213 20.7434C23.5045 18.6903 22.6549 19.0443 22.3718 20.0354C19.8939 24.7788 12.4602 27.0443 11.1151 18.7611C10.9099 12.5301 12.885 9.13276 16.1417 7.43365C19.3983 6.26673 21.593 8.00001 19.7523 12.1062C19.2567 13.0974 19.1859 13.5221 20.7434 13.239C22.3808 12.19 23.0089 11.3274 23.0089 8.99116C22.7257 4.88497 14.4255 3.75223 10.1948 9.62833C6.37174 14.9381 7.29209 21.8053 10.4071 24.5664C14.565 27.649 20.531 26.8319 23.2213 20.7434Z" fill="white"/>
<defs>
<linearGradient id="paint0_linear_21_44" x1="16" y1="0" x2="16" y2="32" gradientUnits="userSpaceOnUse">
<stop stop-color="#5720BF" stop-opacity="0"/>
<stop offset="1" stop-color="#5720BF"/>
</linearGradient>
</defs>
</svg>
