<svg xmlns="http://www.w3.org/2000/svg" width="32" height="32" viewBox="0 0 3.86 3.86">
 <g fill-rule="nonzero"><path fill="#A2D8E7" d="M1.76 3.8c0,0 0,-0.01 0.01,-0.01 0,0 0.01,0.01 0.01,0.01 0,0.01 -0.01,0.01 -0.01,0.01 -0.01,0 -0.01,0 -0.01,-0.01zm0.4 0c0,0 0,-0.01 0.01,-0.01 0,0 0,0.01 0,0.01 0,0.01 0,0.01 0,0.01 -0.01,0 -0.01,0 -0.01,-0.01zm-0.65 -0.03c0,0 0.01,-0.01 0.01,-0.01 0,0 0.01,0.01 0.01,0.01 0,0 -0.01,0.01 -0.01,0.01 0,0 -0.01,-0.01 -0.01,-0.01zm0.9 0c0,0 0,-0.01 0,-0.01 0.01,0 0.01,0.01 0.01,0.01 0,0 0,0.01 -0.01,0.01 0,0 0,-0.01 0,-0.01zm-0.96 -0.02c0,0 0,0 0,0 0.01,0 0.01,0 0.01,0 0,0.01 0,0.01 -0.01,0.01 0,0 0,0 0,-0.01zm1.02 0c0,0 0.01,0 0.01,0 0,0 0.01,0 0.01,0 0,0.01 -0.01,0.01 -0.01,0.01 0,0 -0.01,0 -0.01,-0.01zm-1.17 -0.05c0,0 0,0 0.01,0 0,0 0,0 0,0 0,0.01 0,0.01 0,0.01 -0.01,0 -0.01,0 -0.01,-0.01zm-0.05 -0.01c0,-0.01 0,-0.01 0.01,-0.01 0,0 0,0 0,0.01 0,0 0,0.01 0,0.01 -0.01,0 -0.01,-0.01 -0.01,-0.01zm1.42 0c0,-0.01 0,-0.01 0.01,-0.01 0,0 0.01,0 0.01,0.01 0,0 -0.01,0.01 -0.01,0.01 -0.01,0 -0.01,-0.01 -0.01,-0.01zm-1.46 -0.02c0,0 0.01,-0.01 0.01,-0.01 0.01,0 0.01,0.01 0.01,0.01 0,0.01 0,0.01 -0.01,0.01 0,0 -0.01,0 -0.01,-0.01zm1.49 0c0,0 0.01,-0.01 0.01,-0.01 0.01,0 0.01,0.01 0.01,0.01 0,0.01 0,0.01 -0.01,0.01 0,0 -0.01,0 -0.01,-0.01zm-1.68 -0.1c0,0 0,-0.01 0,-0.01 0.01,0 0.01,0.01 0.01,0.01 0,0.01 0,0.01 -0.01,0.01 0,0 0,0 0,-0.01zm1.88 0c0,0 0.01,-0.01 0.01,-0.01 0.01,0 0.01,0.01 0.01,0.01 0,0.01 0,0.01 -0.01,0.01 0,0 -0.01,0 -0.01,-0.01zm-1.93 -0.03c0,-0.01 0,-0.01 0,-0.01 0.01,0 0.01,0 0.01,0.01 0,0 0,0.01 -0.01,0.01 0,0 0,-0.01 0,-0.01zm-0.05 -0.03c0,-0.01 0,-0.01 0.01,-0.01 0.02,0.02 0.03,0.03 0.01,0.03 0,0 -0.01,-0.01 -0.02,-0.02zm-0.05 -0.03c0,-0.01 0,-0.02 0.01,-0.01 0.02,0.01 0.03,0.03 0.01,0.03 0,0 -0.01,-0.01 -0.02,-0.02zm-0.07 -0.06c-0.02,-0.03 -0.02,-0.03 0,-0.01 0.02,0.01 0.03,0.03 0.03,0.03 0,0.01 -0.01,0.01 -0.03,-0.02zm2.3 0.02c0,-0.01 0,-0.01 0.01,-0.01 0,0 0.01,0 0.01,0.01 0,0 -0.01,0.01 -0.01,0.01 -0.01,0 -0.01,-0.01 -0.01,-0.01zm-2.47 -0.18c-0.12,-0.12 -0.12,-0.12 0,0 0.07,0.06 0.12,0.11 0.12,0.12 0,0.01 -0.02,-0.01 -0.12,-0.12l0 0zm2.57 0.1c0,-0.01 0.01,-0.02 0.03,-0.03 0.03,-0.02 0.03,-0.02 0.01,0.01 -0.03,0.02 -0.04,0.03 -0.04,0.02zm0.16 -0.16c0,-0.01 0.01,-0.02 0.02,-0.02 0,0 0,0.01 -0.01,0.02 0,0.01 -0.01,0.02 -0.01,0.02 -0.01,0 -0.01,-0.01 0,-0.02zm-1.59 -0.06c0.01,-0.01 0.03,-0.01 0.04,0 0.02,0 0.01,0.01 -0.02,0.01 -0.02,0 -0.03,-0.01 -0.02,-0.01l0 0zm0.19 0c0.02,-0.01 0.04,-0.01 0.05,0 0.01,0 0,0.01 -0.03,0.01 -0.02,0 -0.03,-0.01 -0.02,-0.01l0 0zm-1.48 -0.04c-0.02,-0.02 -0.02,-0.02 0.01,0 0.02,0.01 0.03,0.02 0.03,0.03 0,0.01 -0.01,0 -0.04,-0.03zm1.19 0.02c0.02,0 0.03,0 0.04,0 0,0.01 -0.01,0.01 -0.03,0.01 -0.01,0 -0.02,0 -0.01,-0.01l0 0zm0.4 0c0.01,0 0.03,0 0.03,0 0.01,0.01 0,0.01 -0.02,0.01 -0.02,0 -0.02,0 -0.01,-0.01l0 0zm-0.45 -0.01c0,-0.01 0.01,-0.01 0.02,0 0,0 0,0.01 -0.01,0.01 -0.01,0 -0.02,-0.01 -0.01,-0.01zm0.51 0c0.01,-0.01 0.02,-0.01 0.02,0 0.01,0 0,0.01 -0.01,0.01 -0.01,0 -0.02,-0.01 -0.01,-0.01zm-0.56 -0.02c0,-0.01 0.01,-0.01 0.02,0 0.01,0 0,0.01 -0.01,0.01 -0.01,0 -0.02,-0.01 -0.01,-0.01zm0.62 0c0,0 0,-0.01 0.01,-0.01 0,0 0.01,0.01 0.01,0.01 0,0.01 -0.01,0.01 -0.01,0.01 -0.01,0 -0.01,0 -0.01,-0.01zm1.26 0c0,0 0,-0.01 0.01,-0.01 0,0 0.01,0.01 0.01,0.01 0,0.01 -0.01,0.01 -0.01,0.01 -0.01,0 -0.01,0 -0.01,-0.01zm-1.98 -0.03c-0.06,-0.04 -0.05,-0.05 0.01,-0.02 0.07,0.04 0.08,0.04 0.06,0.04 -0.01,0 -0.04,-0.01 -0.07,-0.02l0 0zm0.75 0.01c0,0 0.01,0 0.01,0 0.01,0 0.01,0 0.01,0 0,0.01 0,0.01 -0.01,0.01 0,0 -0.01,0 -0.01,-0.01zm-1.79 -0.03c-0.02,-0.03 -0.02,-0.03 0.01,-0.01 0.02,0.01 0.03,0.03 0.03,0.03 0,0.01 -0.01,0.01 -0.04,-0.02zm1.83 0.02c0,-0.01 0,-0.01 0.01,-0.01 0,0 0,0 0,0.01 0,0 0,0.01 0,0.01 -0.01,0 -0.01,-0.01 -0.01,-0.01zm0.03 -0.02c0,0 0,-0.01 0.01,-0.01 0,0 0.01,0.01 0.01,0.01 0,0.01 -0.01,0.01 -0.01,0.01 -0.01,0 -0.01,0 -0.01,-0.01zm1.19 0c0,0 0.01,-0.01 0.01,-0.01 0,0 0.01,0.01 0.01,0.01 0,0.01 -0.01,0.01 -0.01,0.01 0,0 -0.01,0 -0.01,-0.01zm-1.16 -0.01c0,-0.01 0.01,-0.01 0.01,-0.01 0.01,0 0.01,0 0.01,0.01 0,0 0,0 -0.01,0 0,0 -0.01,0 -0.01,0zm-0.93 -0.03c-0.01,-0.01 -0.01,-0.02 0,-0.01 0.02,0.01 0.03,0.03 0.02,0.03 -0.01,0 -0.02,-0.01 -0.02,-0.02zm0.97 0c0.01,-0.01 0.02,-0.02 0.02,-0.02 0.01,0 0.01,0.01 0,0.02 0,0.01 -0.01,0.02 -0.02,0.02 0,0 0,-0.01 0,-0.02zm-1.97 -0.02c-0.05,-0.1 -0.06,-0.11 -0.03,-0.07 0.03,0.04 0.06,0.09 0.05,0.09 0,0 -0.01,-0.01 -0.02,-0.02zm0.89 -0.07c-0.04,-0.04 -0.07,-0.08 -0.06,-0.08 0,0 0.04,0.04 0.08,0.08 0.04,0.04 0.07,0.07 0.06,0.07 0,0 -0.04,-0.03 -0.08,-0.07zm1.15 0.04c0.01,-0.01 0.01,-0.02 0.02,-0.02 0,0 0,0.01 0,0.02 -0.01,0.01 -0.02,0.02 -0.02,0.02 -0.01,0 0,-0.01 0,-0.02zm-0.57 -0.03c0.01,0 0.03,0 0.04,0 0.01,0.01 0,0.01 -0.02,0.01 -0.03,0 -0.04,0 -0.02,-0.01l0 0zm0.21 0c0.01,0 0.03,0 0.04,0 0.01,0.01 0,0.01 -0.02,0.01 -0.02,0 -0.03,0 -0.02,-0.01l0 0zm-0.27 -0.01c0,-0.01 0.01,-0.01 0.02,0 0.01,0 0,0.01 -0.01,0.01 -0.01,0 -0.02,-0.01 -0.01,-0.01zm0.37 -0.01c0.04,-0.02 0.07,-0.02 0.04,0 -0.02,0.01 -0.04,0.02 -0.05,0.02 -0.02,0 -0.02,-0.01 0.01,-0.02l0 0zm-0.5 -0.05c-0.04,-0.03 -0.08,-0.06 -0.09,-0.08 -0.02,-0.01 0,0 0.04,0.03 0.04,0.02 0.09,0.06 0.12,0.07 0.02,0.02 0.04,0.03 0.03,0.03 -0.01,0 -0.05,-0.02 -0.1,-0.05l0 0zm0.87 0.01c0.02,-0.02 0.04,-0.04 0.05,-0.04 0,0 -0.01,0.02 -0.04,0.04 -0.02,0.02 -0.04,0.04 -0.04,0.04 -0.01,0 0.01,-0.02 0.03,-0.04zm1.04 0.03c0,0 0,-0.01 0.01,-0.01 0,0 0.01,0.01 0.01,0.01 0,0.01 -0.01,0.01 -0.01,0.01 -0.01,0 -0.01,0 -0.01,-0.01zm-1.34 -0.01c0.02,-0.02 0.12,-0.06 0.12,-0.05 0,0.01 -0.1,0.05 -0.11,0.05 -0.01,0 -0.01,0 -0.01,0l0 0zm-1.92 -0.02c0,0 0,-0.01 0.01,-0.01 0,0 0.01,0.01 0.01,0.01 0,0 -0.01,0.01 -0.01,0.01 -0.01,0 -0.01,-0.01 -0.01,-0.01zm3.28 0c0,0 0,-0.01 0.01,-0.01 0,0 0,0.01 0,0.01 0,0 0,0.01 0,0.01 -0.01,0 -0.01,-0.01 -0.01,-0.01zm-3.32 -0.08c-0.02,-0.02 -0.03,-0.05 -0.02,-0.05 0,-0.01 0.02,0.02 0.03,0.05 0.04,0.07 0.02,0.07 -0.01,0zm0.88 -0.01c-0.04,-0.06 -0.1,-0.2 -0.09,-0.21 0,-0.01 0.02,0.02 0.03,0.05 0.01,0.03 0.04,0.09 0.06,0.13 0.06,0.09 0.06,0.11 0,0.03zm1.21 0.04c0,0 0.02,-0.01 0.03,-0.03 0.03,-0.02 0.03,-0.02 0.01,0.01 -0.02,0.03 -0.04,0.04 -0.04,0.02zm0.23 -0.03c0,0 0.02,-0.02 0.03,-0.03 0.03,-0.02 0.03,-0.02 0.01,0.01 -0.02,0.02 -0.04,0.03 -0.04,0.02zm-0.07 -0.11c0.05,-0.05 0.12,-0.15 0.16,-0.22 0.07,-0.12 0.1,-0.13 0.11,-0.04 0,0.07 0,0.07 -0.01,0 -0.01,-0.06 -0.01,-0.06 -0.11,0.08 -0.05,0.07 -0.13,0.17 -0.17,0.21 -0.07,0.07 -0.07,0.07 0.02,-0.03l0 0zm-1.01 0.04c-0.23,-0.26 -0.2,-0.97 0.06,-1.41 0.36,-0.63 1.15,-0.48 0.85,0.17 -0.1,0.21 0.11,0.21 0.25,-0.01 0.23,-0.35 -0.02,-0.7 -0.5,-0.7 -0.64,0 -1.13,0.55 -1.16,1.3 -0.01,0.2 0,0.29 0.04,0.44 0,0.03 0,0.04 -0.01,0.02 -0.22,-0.34 0.05,-1.23 0.47,-1.54 0.67,-0.51 1.58,-0.12 1.17,0.5 -0.14,0.22 -0.38,0.22 -0.28,-0.01 0.28,-0.61 -0.41,-0.78 -0.8,-0.19 -0.25,0.4 -0.3,1.06 -0.1,1.38 0.05,0.08 0.06,0.09 0.01,0.05l0 0zm2.14 0.02c0,-0.01 0.01,-0.01 0.01,-0.01 0.01,0 0.01,0 0.01,0.01 0,0 0,0.01 -0.01,0.01 0,0 -0.01,-0.01 -0.01,-0.01zm-0.98 -0.05c0.01,-0.02 0.03,-0.04 0.03,-0.04 0.02,0 -0.02,0.06 -0.04,0.07 -0.01,0.01 -0.01,-0.01 0.01,-0.03zm-2.46 -0.05c-0.05,-0.11 -0.08,-0.23 -0.08,-0.27 0,-0.02 0.02,0.03 0.04,0.1 0.02,0.08 0.04,0.16 0.06,0.18 0.01,0.03 0.01,0.05 0.01,0.06 -0.01,0 -0.02,-0.03 -0.03,-0.07zm3.46 0.06c0,0 0,0 0.01,0 0,0 0.01,0 0.01,0 0,0.01 -0.01,0.01 -0.01,0.01 -0.01,0 -0.01,0 -0.01,-0.01zm0.02 -0.03c0,0 0,-0.01 0.01,-0.01 0,0 0,0.01 0,0.01 0,0.01 0,0.01 0,0.01 -0.01,0 -0.01,0 -0.01,-0.01zm-0.98 -0.05c0,0 0,-0.01 0.01,-0.01 0,0 0.01,0.01 0.01,0.01 0,0.01 -0.01,0.01 -0.01,0.01 -0.01,0 -0.01,0 -0.01,-0.01zm0.99 0c0,0 0.01,-0.01 0.01,-0.01 0.01,0 0.01,0.01 0.01,0.01 0,0.01 0,0.01 -0.01,0.01 0,0 -0.01,0 -0.01,-0.01zm-0.97 -0.03c0,-0.01 0,-0.01 0.01,-0.01 0,0 0,0 0,0.01 0,0 0,0.01 0,0.01 -0.01,0 -0.01,-0.01 -0.01,-0.01zm0.01 -0.03c0,-0.01 0.01,-0.01 0.01,-0.01 0.01,0 0.01,0 0.01,0.01 0,0 0,0 -0.01,0 0,0 -0.01,0 -0.01,0zm0.02 -0.05c0,-0.01 0.01,-0.01 0.01,-0.01 0.01,0.01 0.01,0.02 0,0.02 0,0.01 -0.01,0.01 -0.01,-0.01zm0.98 0.01c0,0 0,-0.01 0.01,-0.01 0,0 0,0.01 0,0.01 0,0.01 0,0.01 0,0.01 -0.01,0 -0.01,0 -0.01,-0.01zm0.01 -0.05c0,0 0.01,-0.01 0.01,-0.01 0.01,0 0.01,0.01 0.01,0.01 0,0.01 0,0.01 -0.01,0.01 0,0 -0.01,0 -0.01,-0.01zm0.02 -0.06c0,-0.01 0,-0.01 0.01,-0.01 0,0 0.01,0 0.01,0.01 0,0 -0.01,0 -0.01,0 -0.01,0 -0.01,0 -0.01,0zm-3.66 -0.14c0,-0.02 0.01,-0.02 0.01,-0.02 0.01,0.01 0.01,0.02 0,0.03 0,0 -0.01,0 -0.01,-0.01zm-0.01 -0.1c0,-0.03 0,-0.04 0.01,-0.02 0,0.01 0,0.03 0,0.04 -0.01,0.01 -0.01,0 -0.01,-0.02l0 0zm3.7 -0.01c0,-0.01 0.01,-0.01 0.01,-0.01 0.01,0 0.01,0 0.01,0.01 0,0 0,0.01 -0.01,0.01 0,0 -0.01,-0.01 -0.01,-0.01zm-3.7 -0.39c0,-0.02 0,-0.03 0.01,-0.02 0,0.01 0,0.03 0,0.04 -0.01,0.01 -0.01,0 -0.01,-0.02l0 0zm3.7 0c0,-0.01 0.01,-0.02 0.01,-0.01 0.01,0 0.01,0.01 0,0.02 0,0.01 -0.01,0 -0.01,-0.01zm-3.69 -0.12c0,-0.01 0.01,-0.01 0.01,-0.01 0.01,0.01 0.01,0.02 0,0.02 0,0.01 -0.01,0 -0.01,-0.01zm3.68 -0.01c0,0 0,0 0,0 0.01,0 0.01,0 0.01,0 0,0.01 0,0.01 -0.01,0.01 0,0 0,0 0,-0.01zm-3.65 -0.14c0.04,-0.33 0.4,-0.86 0.76,-1.1 0.19,-0.12 0.54,-0.27 0.64,-0.27 0.02,0 -0.02,0.02 -0.09,0.04 -0.62,0.19 -1.27,0.85 -1.29,1.31 0,0.02 -0.01,0.05 -0.02,0.07 -0.01,0.02 -0.01,0.01 0,-0.05l0 0zm3.62 -0.01c0,-0.02 -0.01,-0.04 0,-0.05 0,0 0.01,0.02 0.02,0.04 0,0.02 0,0.05 0,0.05 0,0.01 -0.01,-0.01 -0.02,-0.04zm-0.03 -0.11c-0.12,-0.5 -0.68,-1.04 -1.25,-1.21 -0.1,-0.03 -0.12,-0.04 -0.07,-0.03 0.34,0.04 0.86,0.4 1.09,0.75 0.13,0.19 0.26,0.47 0.25,0.52 0,0.01 -0.01,0 -0.02,-0.03zm-2.1 -1.26c0.01,-0.01 0.03,-0.01 0.03,0 0.01,0.01 0,0.01 -0.02,0.01 -0.02,0 -0.02,-0.01 -0.01,-0.01l0 0zm0.62 0c0.01,-0.01 0.02,-0.01 0.02,0 0.01,0 0.01,0.01 -0.01,0.01 -0.01,0 -0.01,-0.01 -0.01,-0.01zm-0.5 -0.02c0.01,0 0.02,0 0.03,0 0,0.01 -0.01,0.01 -0.02,0.01 -0.02,0 -0.03,0 -0.01,-0.01l0 0zm0.39 0c0.02,0 0.03,0 0.04,0 0,0.01 -0.01,0.01 -0.03,0.01 -0.01,0 -0.02,0 -0.01,-0.01l0 0z"/>
 <path fill="#A0A1E9" d="M1.78 3.8c0.01,-0.01 0.02,-0.01 0.02,0 0.01,0.01 0.01,0.01 -0.01,0.01 -0.01,0 -0.01,0 -0.01,-0.01zm0.35 0c0.01,-0.01 0.02,-0.01 0.02,0 0.01,0.01 0,0.01 -0.01,0.01 -0.01,0 -0.02,0 -0.01,-0.01zm-0.48 -0.02c0.01,0 0.02,0 0.02,0 0.01,0.01 0,0.01 -0.01,0.01 -0.01,0 -0.02,0 -0.01,-0.01zm0.61 0c0.01,0 0.02,0 0.02,0 0.01,0.01 0.01,0.01 -0.01,0.01 -0.01,0 -0.01,0 -0.01,-0.01zm-0.8 -0.03c-0.48,-0.13 -0.93,-0.51 -1.16,-0.96 -0.07,-0.13 -0.05,-0.13 0.02,0.01 0.26,0.48 0.64,0.79 1.14,0.94 0.15,0.04 0.14,0.05 0,0.01l0 0zm0.98 0c0.69,-0.19 1.15,-0.67 1.35,-1.42 0,-0.02 0,0 0,0.03 -0.07,0.6 -0.93,1.45 -1.43,1.42 -0.02,0 0.02,-0.02 0.08,-0.03l0 0zm-0.71 -0.59c-0.26,-0.05 -0.63,-0.34 -0.63,-0.48 0,-0.01 0.02,0.02 0.05,0.06 0.34,0.53 1.07,0.55 1.48,0.03 0.1,-0.13 0.18,-0.3 0.17,-0.37 0,-0.03 0,-0.06 0.01,-0.05 0.04,0.02 -0.01,0.19 -0.1,0.33 -0.22,0.35 -0.63,0.54 -0.98,0.48zm0.12 -0.24c-0.11,-0.03 -0.25,-0.12 -0.3,-0.2 -0.02,-0.03 0,-0.02 0.06,0.04 0.3,0.29 0.79,0.15 1.06,-0.3 0.04,-0.07 0.07,-0.12 0.08,-0.12 0.01,0 -0.08,0.14 -0.14,0.23 -0.19,0.27 -0.5,0.41 -0.76,0.35zm-1.61 -0.27c0,-0.01 0,-0.01 0.01,-0.01 0,0.01 0,0.02 0,0.02 -0.01,0.01 -0.01,0 -0.01,-0.01zm1.24 -0.05c-0.02,-0.04 -0.03,-0.07 -0.03,-0.07 0,-0.01 0.02,0.02 0.04,0.07 0.05,0.09 0.03,0.09 -0.01,0zm-0.4 0.04c0,0 0.01,0 0.01,0 0,0 0.01,0 0.01,0 0,0.01 -0.01,0.01 -0.01,0.01 0,0 -0.01,0 -0.01,-0.01zm-0.86 -0.03c0,0 0,-0.01 0.01,-0.01 0,0 0.01,0.01 0.01,0.01 0,0.01 -0.01,0.01 -0.01,0.01 -0.01,0 -0.01,0 -0.01,-0.01zm0.84 -0.02c-0.01,-0.01 -0.01,-0.03 -0.01,-0.04 0,-0.01 0.01,0 0.02,0.02 0.01,0.02 0.01,0.04 0.01,0.04 -0.01,0.01 -0.02,0 -0.02,-0.02zm-0.86 -0.02c0,-0.01 0.01,-0.02 0.02,-0.01 0,0 0,0.01 0,0.02 -0.01,0.01 -0.02,0 -0.02,-0.01zm-0.01 -0.05c0,-0.01 0,-0.02 0.01,-0.01 0,0.01 0,0.02 0,0.02 -0.01,0.01 -0.01,0 -0.01,-0.01zm0.84 -0.01c0,0 0.01,-0.01 0.01,-0.01 0,0 0.01,0.01 0.01,0.01 0,0.01 -0.01,0.01 -0.01,0.01 0,0 -0.01,0 -0.01,-0.01zm0.4 -0.02c0,-0.02 0,-0.02 0.01,-0.01 0.01,0 0.01,0.01 0,0.02 -0.01,0 -0.01,0 -0.01,-0.01zm-1.26 -0.03c0,0 0,-0.01 0.01,-0.01 0,0 0.01,0.01 0.01,0.01 0,0.01 -0.01,0.01 -0.01,0.01 -0.01,0 -0.01,0 -0.01,-0.01zm0.85 -0.01c0,-0.01 0,-0.01 0.01,-0.01 0,0.01 0,0.02 0,0.03 -0.01,0 -0.01,0 -0.01,-0.02zm0.39 -0.01c0,-0.01 0.01,-0.02 0.01,-0.01 0.01,0 0.01,0.01 0,0.02 0,0 -0.01,0 -0.01,-0.01zm-1.26 -0.04c0,-0.01 0.01,-0.01 0.01,-0.01 0.01,0 0.01,0 0.01,0.01 0,0 0,0 -0.01,0 0,0 -0.01,0 -0.01,0zm0.85 -0.03c0,-0.01 0,-0.02 0.01,-0.01 0.01,0.01 0.01,0.02 0,0.02 -0.01,0.01 -0.01,0 -0.01,-0.01zm0.4 -0.02c0,-0.01 0,-0.01 0.01,-0.01 0,0.01 0,0.02 0,0.03 -0.01,0 -0.01,0 -0.01,-0.02zm2.4 -0.09c0,-0.02 0,-0.02 0.01,-0.02 0,0.01 0,0.02 0,0.03 -0.01,0 -0.01,0 -0.01,-0.01zm-2.42 -0.12c0,-0.06 0.01,-0.08 0.01,-0.05 0.01,0.03 0.01,0.07 0,0.1 0,0.03 -0.01,0.01 -0.01,-0.05zm2.43 -0.03c0.01,-0.02 0.01,-0.02 0.01,-0.01 0.01,0.02 0.01,0.03 0,0.03 0,0.01 -0.01,0 -0.01,-0.02l0 0zm0 -0.32c0,-0.01 0.01,-0.02 0.01,-0.01 0.01,0.01 0.01,0.02 0,0.02 0,0.01 -0.01,0 -0.01,-0.01zm-0.01 -0.14c0,0 0,-0.01 0,-0.01 0.01,0 0.01,0.01 0.01,0.01 0,0.01 0,0.01 -0.01,0.01 0,0 0,0 0,-0.01zm-0.02 -0.06c0,-0.02 0,-0.06 -0.01,-0.08 -0.01,-0.04 -0.01,-0.04 0.01,0 0.01,0.02 0.02,0.06 0.01,0.08 -0.01,0.04 -0.01,0.04 -0.01,0zm-0.03 -0.16c0,-0.01 0,-0.02 0.01,-0.01 0,0.02 0,0.03 0,0.04 -0.01,0 -0.01,-0.01 -0.01,-0.03l0 0zm-0.02 -0.05c0,-0.01 0.01,-0.02 0.01,-0.01 0.01,0 0.01,0.01 0,0.02 0,0.01 -0.01,0 -0.01,-0.01zm-0.02 -0.05c0,-0.01 0.01,-0.02 0.01,-0.01 0.01,0 0.01,0.01 0,0.02 0,0.01 -0.01,0 -0.01,-0.01zm-0.01 -0.04c0,-0.01 0,-0.01 0.01,-0.01 0,0 0,0 0,0.01 0,0 0,0.01 0,0.01 -0.01,0 -0.01,-0.01 -0.01,-0.01zm-0.02 -0.04c0,-0.02 0.01,-0.02 0.01,-0.02 0.01,0.01 0.01,0.02 0,0.03 0,0 -0.01,0 -0.01,-0.01zm-0.02 -0.05c0,0 0.01,0 0.01,0 0.01,0 0.01,0 0.01,0 0,0.01 0,0.01 -0.01,0.01 0,0 -0.01,0 -0.01,-0.01zm-0.03 -0.06c0,-0.01 0,-0.01 0.01,-0.01 0,0 0.01,0 0.01,0.01 0,0 -0.01,0.01 -0.01,0.01 -0.01,0 -0.01,-0.01 -0.01,-0.01zm-0.02 -0.04c0,0 0.01,0 0.01,0 0.01,0 0.01,0 0.01,0 0,0.01 0,0.01 -0.01,0.01 0,0 -0.01,0 -0.01,-0.01zm-0.01 -0.03c0,0 0,-0.01 0.01,-0.01 0,0 0,0.01 0,0.01 0,0.01 0,0.01 0,0.01 -0.01,0 -0.01,0 -0.01,-0.01zm-0.02 -0.03c0,-0.01 0,-0.01 0.01,-0.01 0,0 0.01,0 0.01,0.01 0,0 -0.01,0.01 -0.01,0.01 -0.01,0 -0.01,-0.01 -0.01,-0.01zm-0.02 -0.03c0,-0.01 0.01,-0.01 0.01,-0.01 0.01,0 0.01,0 0.01,0.01 0,0 0,0 -0.01,0 0,0 -0.01,0 -0.01,0zm-0.03 -0.05c0,-0.01 0.01,-0.01 0.01,-0.01 0,0 0.01,0 0.01,0.01 0,0 -0.01,0 -0.01,0 0,0 -0.01,0 -0.01,0zm-0.03 -0.05c0,-0.01 0,-0.01 0.01,-0.01 0,0 0.01,0 0.01,0.01 0,0 -0.01,0 -0.01,0 -0.01,0 -0.01,0 -0.01,0z"/>
 <path fill="#61CBD7" d="M0.14 2.32c0,-0.01 0,-0.02 0.01,-0.01 0.01,0.01 0.01,0.02 0,0.02 -0.01,0.01 -0.01,0 -0.01,-0.01zm0.84 -0.09c0,-0.02 0.01,-0.02 0.01,-0.01 0.01,0.01 0.01,0.03 0,0.03 0,0.01 -0.01,0 -0.01,-0.02l0 0zm-0.87 -0.13c0,-0.02 0,-0.03 0.01,-0.01 0,0.01 0,0.02 -0.01,0.03 0,0 0,-0.01 0,-0.02l0 0zm0.88 -0.11c0,-0.04 0,-0.06 0,-0.04 0.01,0.02 0.01,0.06 0,0.08 0,0.02 0,0 0,-0.04l0 0zm0.41 -0.12c0,-0.02 0,-0.03 0.01,-0.02 0,0.02 0,0.03 0,0.05 -0.01,0.01 -0.01,0 -0.01,-0.03l0 0zm-0.4 -0.04c0,-0.02 0.01,-0.05 0.02,-0.07 0.01,-0.03 0.01,-0.04 0.01,-0.01 0,0.02 -0.01,0.05 -0.01,0.07 -0.02,0.04 -0.02,0.04 -0.02,0.01zm0.42 -0.04c0,-0.02 0,-0.03 0,-0.02 0.01,0.01 0.01,0.03 0,0.04 0,0.01 0,0 0,-0.02l0 0zm-1.32 0.01c0,0 0.01,-0.01 0.01,-0.01 0.01,0 0.01,0.01 0.01,0.01 0,0 0,0.01 -0.01,0.01 0,0 -0.01,-0.01 -0.01,-0.01zm1.34 -0.12c0.14,-0.68 1.01,-1.09 1.03,-0.48 0,0.12 0,0.12 -0.01,0 -0.06,-0.53 -0.72,-0.27 -0.97,0.38 -0.04,0.08 -0.06,0.13 -0.05,0.1zm-0.41 0c0,-0.3 0.49,-0.82 0.89,-0.93 0.31,-0.09 0.83,0.07 0.83,0.25 0,0.01 -0.02,-0.02 -0.05,-0.06 -0.38,-0.49 -1.35,-0.11 -1.62,0.64 -0.02,0.08 -0.05,0.12 -0.05,0.1zm-0.91 -0.01c0,-0.01 0.01,-0.01 0.01,-0.01 0,0 0.01,0 0.01,0.01 0,0 -0.01,0.01 -0.01,0.01 0,0 -0.01,-0.01 -0.01,-0.01zm2.3 -0.02c0.01,-0.01 0.03,-0.01 0.04,0 0.01,0 0,0.01 -0.02,0.01 -0.02,0 -0.03,-0.01 -0.02,-0.01l0 0zm-2.28 -0.04c0,-0.02 0.01,-0.06 0.02,-0.07 0.01,-0.03 0.01,-0.02 0,0.03 -0.01,0.08 -0.02,0.1 -0.02,0.04zm2.22 0.01c0,-0.01 0,-0.01 0.01,0 0.02,0.01 0.03,0.02 0.01,0.02 0,0 -0.01,-0.01 -0.02,-0.02zm0.15 0.01c0,0 0,0 0,0 0.01,0 0.01,0 0.01,0 0,0.01 0,0.01 -0.01,0.01 0,0 0,0 0,-0.01zm0.03 -0.01c0,-0.01 0,-0.01 0.01,-0.01 0,0 0,0 0,0.01 0,0 0,0.01 0,0.01 -0.01,0 -0.01,-0.01 -0.01,-0.01zm0.04 -0.03c0.01,-0.01 0.01,-0.01 0.02,-0.01 0,0 0,0 0,0.01 -0.01,0.01 -0.02,0.02 -0.02,0.02 -0.01,0 -0.01,-0.01 0,-0.02zm-0.22 -0.04c0.02,-0.06 0.09,-0.23 0.09,-0.21 0,0.02 -0.02,0.08 -0.05,0.14 -0.02,0.06 -0.04,0.09 -0.04,0.07l0 0zm0.33 -0.06c0,-0.01 0,-0.01 0.01,-0.01 0,0 0,0 0,0.01 0,0 0,0 0,0 -0.01,0 -0.01,0 -0.01,0zm-2.52 -0.03c0,-0.47 0.78,-1.2 1.41,-1.33 0.17,-0.03 0.29,-0.05 0.26,-0.03 -0.01,0.01 -0.06,0.02 -0.11,0.03 -0.68,0.08 -1.3,0.58 -1.51,1.24 -0.03,0.1 -0.05,0.13 -0.05,0.09l0 0zm2.55 -0.02c0,-0.01 0,-0.01 0.01,-0.01 0,0 0.01,0 0.01,0.01 0,0 -0.01,0 -0.01,0 -0.01,0 -0.01,0 -0.01,0zm0.02 -0.04c0,-0.01 0,-0.02 0.01,-0.04 0.01,-0.01 0.02,-0.02 0.02,-0.01 0,0.01 -0.01,0.03 -0.02,0.04 -0.01,0.02 -0.01,0.02 -0.01,0.01zm0.03 -0.1c0,-0.02 0.01,-0.02 0.01,-0.02 0.01,0.01 0.01,0.02 0,0.03 0,0 -0.01,0 -0.01,-0.01zm0.02 -0.12c0,-0.01 0,-0.02 0.01,-0.01 0,0 0,0.01 0,0.02 -0.01,0.01 -0.01,0 -0.01,-0.01zm0.86 -0.01c0,0 0,-0.01 0.01,-0.01 0,0 0,0.01 0,0.01 0,0.01 0,0.01 0,0.01 -0.01,0 -0.01,0 -0.01,-0.01zm-0.88 -0.08c0,-0.02 0.01,-0.03 0.01,-0.01 0.01,0.01 0.01,0.02 0,0.03 -0.01,0 -0.01,-0.01 -0.01,-0.02l0 0zm-0.02 -0.05c0,-0.01 0.01,-0.01 0.01,-0.01 0.01,0 0.01,0 0.01,0.01 0,0 0,0.01 -0.01,0.01 0,0 -0.01,-0.01 -0.01,-0.01zm0.71 -0.19c-0.01,-0.02 -0.01,-0.02 0,-0.01 0.02,0.01 0.03,0.02 0.01,0.02 0,0 -0.01,0 -0.01,-0.01zm-0.07 -0.09c-0.03,-0.04 -0.03,-0.04 0.01,0 0.03,0.03 0.04,0.04 0.03,0.04 -0.01,0 -0.02,-0.02 -0.04,-0.04l0 0zm-0.13 -0.15c-0.01,-0.01 -0.01,-0.01 0,0 0.02,0.01 0.03,0.02 0.02,0.02 -0.01,0 -0.02,-0.01 -0.02,-0.02zm-0.09 -0.07c-0.04,-0.05 -0.04,-0.05 0,-0.01 0.04,0.04 0.05,0.05 0.04,0.05 0,0 -0.02,-0.02 -0.04,-0.04l0 0zm-0.16 -0.12c-0.19,-0.13 -0.58,-0.28 -0.74,-0.28 -0.03,0 -0.05,-0.01 -0.05,-0.02 0,-0.04 0.35,0.06 0.54,0.15 0.13,0.06 0.34,0.19 0.34,0.21 0,0.01 0,0.01 -0.09,-0.06zm-0.92 -0.33c0.01,0 0.03,0 0.04,0 0.01,0.01 0,0.01 -0.02,0.01 -0.02,0 -0.03,0 -0.02,-0.01l0 0z"/>
 <path fill="#8F64E9" d="M1.82 3.8c0.02,0 0.03,0 0.04,0 0,0.01 -0.01,0.01 -0.03,0.01 -0.02,0 -0.02,0 -0.01,-0.01l0 0zm0.27 0c0.01,0 0.02,0 0.03,0 0.01,0.01 0,0.01 -0.02,0.01 -0.02,0 -0.02,0 -0.01,-0.01l0 0zm-0.56 -0.05c-0.34,-0.09 -0.62,-0.24 -0.85,-0.47 -0.14,-0.14 -0.14,-0.14 0,-0.01 0.27,0.25 0.65,0.45 0.94,0.49 0.04,0 0.07,0.01 0.07,0.02 0,0.01 0,0.01 0,0.01 0,0 -0.07,-0.01 -0.16,-0.04l0 0zm0.7 0.03c0.01,-0.01 0.03,-0.02 0.05,-0.02 0.61,0 1.5,-0.91 1.5,-1.53 0,-0.03 0.01,-0.04 0.02,-0.03 0.03,0.03 -0.07,0.38 -0.17,0.58 -0.25,0.49 -0.7,0.85 -1.22,0.97 -0.07,0.02 -0.14,0.04 -0.16,0.04 -0.02,0.01 -0.03,0 -0.02,-0.01l0 0zm-0.39 -0.61c0.03,0 0.08,0 0.11,0 0.04,0 0.01,0.01 -0.05,0.01 -0.06,0 -0.09,-0.01 -0.06,-0.01l0 0zm-0.13 -0.02c0.01,0 0.03,0 0.04,0 0.01,0.01 0,0.01 -0.02,0.01 -0.03,0 -0.03,0 -0.02,-0.01l0 0zm0.33 0c0.01,0 0.03,0 0.04,0 0.01,0.01 0,0.01 -0.02,0.01 -0.02,0 -0.03,0 -0.02,-0.01l0 0zm-0.41 -0.01c0.01,-0.01 0.02,-0.01 0.03,0 0,0 0,0.01 -0.02,0.01 -0.01,0 -0.01,-0.01 -0.01,-0.01zm0.53 -0.02c0.07,-0.02 0.1,-0.02 0.04,0.01 -0.03,0.01 -0.06,0.02 -0.08,0.02 -0.01,0 0.01,-0.01 0.04,-0.03l0 0zm-1.65 -0.02c-0.03,-0.04 -0.03,-0.04 0,-0.01 0.04,0.03 0.05,0.04 0.04,0.04 -0.01,0 -0.02,-0.01 -0.04,-0.03l0 0zm1.07 0.02c0.01,0 0.02,0 0.03,0 0,0.01 0,0.01 -0.02,0.01 -0.01,0 -0.01,0 -0.01,-0.01zm-0.05 -0.01c0.01,-0.01 0.02,-0.01 0.03,0 0,0 0,0.01 -0.01,0.01 -0.02,0 -0.02,-0.01 -0.02,-0.01zm-0.03 -0.02c0,0 0,-0.01 0,-0.01 0.01,0 0.01,0.01 0.01,0.01 0,0.01 0,0.01 -0.01,0.01 0,0 0,0 0,-0.01zm0.76 0c0,0 0,-0.01 0.01,-0.01 0,0 0,0.01 0,0.01 0,0.01 0,0.01 0,0.01 -0.01,0 -0.01,0 -0.01,-0.01zm-0.8 -0.02c0,0 0.01,0 0.01,0 0.01,0 0.01,0 0.01,0 0,0.01 0,0.01 -0.01,0.01 0,0 -0.01,0 -0.01,-0.01zm0.83 0.01c0,-0.01 0.03,-0.03 0.07,-0.05 0.04,-0.03 0.12,-0.09 0.18,-0.14 0.11,-0.09 0.11,-0.09 0,0.01 -0.1,0.09 -0.25,0.2 -0.25,0.18zm-0.87 -0.03c-0.01,-0.01 -0.01,-0.02 0.01,-0.01 0.02,0.01 0.02,0.03 0.01,0.03 -0.01,0 -0.01,-0.01 -0.02,-0.02zm-0.96 -0.02c-0.01,-0.01 -0.01,-0.01 0.01,-0.01 0.02,0.02 0.02,0.03 0.01,0.03 -0.01,0 -0.01,-0.01 -0.02,-0.02zm0.91 -0.02c-0.01,-0.01 0,-0.01 0.01,0 0.02,0.01 0.02,0.02 0.01,0.02 -0.01,0 -0.01,-0.01 -0.02,-0.02zm-0.12 -0.1c-0.08,-0.08 -0.08,-0.08 0.01,0 0.05,0.04 0.09,0.08 0.09,0.09 0,0.01 -0.02,-0.01 -0.1,-0.09zm-0.83 0.07c0,-0.01 0,-0.01 0.01,-0.01 0,0 0.01,0 0.01,0.01 0,0 -0.01,0 -0.01,0 -0.01,0 -0.01,0 -0.01,0zm1.52 -0.07c0.02,-0.01 0.05,-0.01 0.07,0 0.02,0 0.01,0 -0.03,0 -0.05,0 -0.06,0 -0.04,0l0 0zm-0.11 -0.02c0.01,-0.01 0.02,-0.01 0.02,0 0.01,0.01 0.01,0.01 -0.01,0.01 -0.01,0 -0.01,0 -0.01,-0.01zm0.28 0c0.01,-0.01 0.02,-0.01 0.03,0 0,0.01 0,0.01 -0.02,0.01 -0.01,0 -0.01,0 -0.01,-0.01zm-0.33 -0.02c0.01,0 0.02,0 0.02,0 0.01,0.01 0.01,0.01 -0.01,0.01 -0.01,0 -0.01,0 -0.01,-0.01zm0.38 0c0.01,0 0.02,0 0.03,0 0,0.01 0,0.01 -0.02,0.01 -0.01,0 -0.01,0 -0.01,-0.01zm-0.42 -0.01c0,0 0.01,-0.01 0.01,-0.01 0.01,0 0.01,0.01 0.01,0.01 0,0 0,0.01 -0.01,0.01 0,0 -0.01,-0.01 -0.01,-0.01zm0.47 0c0.01,-0.01 0.02,-0.01 0.02,0 0.01,0 0.01,0.01 -0.01,0.01 -0.01,0 -0.01,-0.01 -0.01,-0.01zm-0.5 -0.02c0,0 0,-0.01 0.01,-0.01 0,0 0.01,0.01 0.01,0.01 0,0.01 -0.01,0.01 -0.01,0.01 -0.01,0 -0.01,0 -0.01,-0.01zm0.55 0c0,0 0,-0.01 0.01,-0.01 0,0 0,0.01 0,0.01 0,0.01 0,0.01 0,0.01 -0.01,0 -0.01,0 -0.01,-0.01zm0.03 -0.01c0,-0.01 0,-0.01 0.01,-0.01 0,0 0.01,0 0.01,0.01 0,0 -0.01,0 -0.01,0 -0.01,0 -0.01,0 -0.01,0zm0.04 -0.03c0.01,-0.01 0.02,-0.01 0.02,-0.01 0,0 0,0 0,0.01 -0.01,0.01 -0.02,0.02 -0.02,0.02 -0.01,0 0,-0.01 0,-0.02zm0.05 -0.03c0.01,-0.01 0.02,-0.02 0.02,-0.02 0,0 0,0.01 0,0.02 -0.01,0.01 -0.02,0.02 -0.02,0.02 -0.01,0 0,-0.01 0,-0.02zm0.26 0.01c0,0 0.01,-0.02 0.03,-0.03 0.02,-0.02 0.02,-0.02 0,0.01 -0.02,0.02 -0.03,0.03 -0.03,0.02zm-0.2 -0.05c0,-0.01 0,-0.01 0.01,-0.01 0,0 0.01,0 0.01,0.01 0,0 -0.01,0.01 -0.01,0.01 -0.01,0 -0.01,-0.01 -0.01,-0.01zm-0.88 -0.02c0,0 0.01,-0.01 0.01,-0.01 0,0 0.01,0.01 0.01,0.01 0,0.01 -0.01,0.01 -0.01,0.01 0,0 -0.01,0 -0.01,-0.01zm1.14 -0.01c0,-0.01 0.01,-0.01 0.01,-0.01 0.01,0 0.01,0 0,0.01 0,0.01 -0.01,0.02 -0.02,0.02 0,0 0,-0.01 0.01,-0.02zm-0.22 -0.01c0.01,-0.01 0.01,-0.02 0.02,-0.02 0,0 0,0.01 0,0.02 -0.01,0 -0.02,0.01 -0.02,0.01 -0.01,0 -0.01,-0.01 0,-0.01zm0.26 -0.05c0.01,-0.02 0.02,-0.04 0.02,-0.04 0.01,0 0,0.02 -0.01,0.04 -0.01,0.01 -0.02,0.03 -0.02,0.03 -0.01,0 0,-0.02 0.01,-0.03zm0.03 -0.06c0,-0.01 0,-0.01 0.01,-0.01 0,0 0.01,0 0.01,0.01 0,0 -0.01,0.01 -0.01,0.01 -0.01,0 -0.01,-0.01 -0.01,-0.01zm0.02 -0.03c0,-0.01 0,-0.01 0,-0.01 0.01,0 0.01,0 0.01,0.01 0,0 0,0 -0.01,0 0,0 0,0 0,0zm0.01 -0.06c0,-0.02 0.01,-0.02 0.01,-0.01 0.01,0 0.01,0.01 0,0.02 0,0 -0.01,0 -0.01,-0.01zm0.02 -0.04c0,-0.01 0,-0.01 0.01,-0.01 0,0 0.01,0 0.01,0.01 0,0 -0.01,0 -0.01,0 -0.01,0 -0.01,0 -0.01,0zm0.99 -0.39c0.01,-0.02 0.01,-0.02 0.01,-0.01 0.01,0.02 0.01,0.03 0,0.04 0,0 -0.01,-0.01 -0.01,-0.03l0 0zm0 -0.23c0.01,-0.02 0.01,-0.02 0.01,-0.01 0.01,0.01 0.01,0.03 0,0.03 0,0.01 -0.01,0 -0.01,-0.02l0 0zm-0.03 -0.18c0,-0.01 0,-0.02 0.01,-0.02 0,0 0.01,0.01 0.01,0.02 0.01,0.01 0,0.03 0,0.03 -0.01,0 -0.02,-0.02 -0.02,-0.03z"/>
 <path fill="#5CA2D9" d="M0.39 2.93c0,-0.01 0,-0.01 0.01,-0.01 0.02,0.02 0.03,0.03 0.01,0.03 0,0 -0.01,-0.01 -0.02,-0.02zm-0.02 -0.04c0,0 0,-0.01 0.01,-0.01 0,0 0.01,0.01 0.01,0.01 0,0.01 -0.01,0.01 -0.01,0.01 -0.01,0 -0.01,0 -0.01,-0.01zm-0.06 -0.12c-0.11,-0.2 -0.21,-0.57 -0.17,-0.6 0.01,-0.02 0.01,0 0.01,0.04 0,0.12 0.09,0.39 0.18,0.58 0.02,0.04 0.04,0.08 0.03,0.08 0,0 -0.03,-0.05 -0.05,-0.1zm1.35 0.04c-0.02,-0.03 -0.02,-0.03 0.01,-0.01 0.01,0.01 0.02,0.03 0.02,0.03 0,0.01 -0.01,0 -0.03,-0.02zm-0.51 -0.01c0,-0.01 0,-0.02 0.01,-0.01 0.02,0.01 0.03,0.03 0.01,0.03 0,0 -0.01,-0.01 -0.02,-0.02zm-0.03 -0.05c-0.01,-0.01 0,-0.02 0.01,-0.01 0.02,0.01 0.02,0.03 0.01,0.03 0,0 -0.01,-0.01 -0.02,-0.02zm-0.02 -0.04c0,0 0,-0.01 0.01,-0.01 0,0 0,0.01 0,0.01 0,0.01 0,0.01 0,0.01 -0.01,0 -0.01,0 -0.01,-0.01zm1.36 0c0,0 0,-0.01 0,-0.01 0.01,0 0.01,0.01 0.01,0.01 0,0.01 0,0.01 -0.01,0.01 0,0 0,0 0,-0.01zm-0.93 -0.04c-0.01,-0.02 -0.02,-0.03 -0.01,-0.03 0,0 0.02,0.01 0.03,0.03 0,0.02 0.01,0.03 0,0.03 0,0 -0.01,-0.01 -0.02,-0.03zm-0.46 -0.03c-0.03,-0.06 -0.02,-0.07 0.01,-0.01 0.01,0.02 0.02,0.05 0.01,0.05 0,0 -0.01,-0.01 -0.02,-0.04l0 0zm1.44 0.02c0,0 0.01,-0.01 0.02,-0.03 0.03,-0.02 0.03,-0.02 0.01,0.01 -0.02,0.03 -0.03,0.04 -0.03,0.02zm-1.01 -0.05c0,0 0,-0.01 0,-0.01 0.01,0 0.01,0.01 0.01,0.01 0,0.01 0,0.01 -0.01,0.01 0,0 0,0 0,-0.01zm1.08 -0.04c0.02,-0.02 0.03,-0.03 0.04,-0.03 0,0 -0.01,0.01 -0.02,0.03 -0.02,0.02 -0.04,0.03 -0.04,0.03 -0.01,0 0,-0.01 0.02,-0.03zm-1.1 0.01c0,-0.01 0,-0.01 0.01,-0.01 0,0 0.01,0 0.01,0.01 0,0 -0.01,0.01 -0.01,0.01 -0.01,0 -0.01,-0.01 -0.01,-0.01zm-0.46 -0.08c-0.01,-0.04 -0.03,-0.11 -0.03,-0.16 -0.01,-0.09 -0.01,-0.09 0.01,0.01 0.01,0.05 0.02,0.12 0.03,0.15 0.01,0.03 0.02,0.06 0.01,0.06 0,0.01 -0.01,-0.02 -0.02,-0.06zm0.42 -0.02c-0.03,-0.06 -0.03,-0.14 -0.04,-0.33 0,-0.25 0,-0.25 0.01,0 0.01,0.16 0.02,0.27 0.04,0.32 0.02,0.04 0.03,0.07 0.02,0.08 0,0 -0.02,-0.03 -0.03,-0.07zm1.35 0.05c0,-0.01 0,-0.01 0,-0.01 0.01,0 0.01,0 0.01,0.01 0,0 0,0.01 -0.01,0.01 0,0 0,-0.01 0,-0.01zm-0.16 -0.03c0.01,-0.01 0.01,-0.01 0.02,-0.01 0,0 0,0 0,0.01 -0.01,0.01 -0.02,0.02 -0.02,0.02 -0.01,0 -0.01,-0.01 0,-0.02zm0.02 -0.04c0,0 0.01,-0.01 0.01,-0.01 0.01,0 0.01,0.01 0.01,0.01 0,0.01 0,0.01 -0.01,0.01 0,0 -0.01,0 -0.01,-0.01zm0.05 -0.08c0.05,-0.09 0.14,-0.07 0.13,0.02 0,0.04 0,0.04 -0.01,0 -0.01,-0.08 -0.07,-0.08 -0.11,-0.01 -0.01,0.02 -0.03,0.05 -0.03,0.05 -0.01,0 0,-0.03 0.02,-0.06l0 0zm-1.73 -0.27c0,-0.08 0,-0.11 0.01,-0.07 0,0.03 0,0.1 0,0.14 -0.01,0.04 -0.01,0 -0.01,-0.07l0 0zm-0.87 -0.05c0,-0.02 0.01,-0.02 0.02,-0.01 0,0 0,0.01 0,0.02 -0.01,0 -0.02,0 -0.02,-0.01zm0.89 -0.18c0,-0.02 0,-0.03 0,-0.02 0.01,0.02 0.01,0.04 0,0.05 0,0.01 0,0 0,-0.03l0 0zm0.42 -0.03c0,-0.02 0.01,-0.02 0.01,-0.01 0.01,0.01 0.01,0.02 0,0.03 0,0.01 -0.01,0 -0.01,-0.02l0 0zm-1.3 -0.02c0,-0.02 0,-0.02 0.01,-0.01 0,0.01 0,0.03 -0.01,0.03 0,0.01 0,0 0,-0.02l0 0zm0.89 -0.05c0,0 0,0 0.01,0 0,0 0.01,0 0.01,0 0,0.01 -0.01,0.01 -0.01,0.01 -0.01,0 -0.01,0 -0.01,-0.01zm0.43 -0.02c0,-0.02 0.01,-0.03 0.01,-0.02 0,0.01 0,0.03 0,0.04 0,0.01 -0.01,0 -0.01,-0.02l0 0zm-1.31 -0.04c0,-0.02 0.01,-0.05 0.02,-0.06 0.01,-0.02 0.01,-0.02 0.01,0.01 0,0.02 0,0.04 -0.01,0.06 -0.02,0.02 -0.02,0.01 -0.02,-0.01zm0.9 -0.01c0,-0.01 0,-0.02 0.01,-0.01 0,0 0,0.01 0,0.02 -0.01,0.01 -0.01,0 -0.01,-0.01zm0.43 -0.03c0,0 0,0 0,0 0.01,0 0.01,0 0.01,0 0,0.01 0,0.01 -0.01,0.01 0,0 0,0 0,-0.01zm0.01 -0.04c0,-0.01 0.01,-0.01 0.01,-0.01 0.01,0.01 0.01,0.02 0,0.02 0,0.01 -0.01,0 -0.01,-0.01zm0.9 0c-0.01,-0.02 -0.02,-0.04 -0.02,-0.06 0.01,-0.02 0.01,-0.02 0.01,0.01 0.01,0.02 0.02,0.04 0.04,0.05 0.01,0.01 0.02,0.02 0.01,0.02 -0.01,0 -0.03,-0.01 -0.04,-0.02l0 0zm0.17 -0.01c0.07,-0.04 0.15,-0.11 0.21,-0.2 0.01,-0.03 0.03,-0.05 0.03,-0.05 0,0.08 -0.21,0.28 -0.28,0.28 -0.01,0 0,-0.02 0.04,-0.03zm-2.38 -0.05c0,-0.02 0.01,-0.02 0.02,-0.01 0,0 0,0.01 0,0.02 -0.01,0 -0.02,0 -0.02,-0.01zm1.33 0c0,0 0,0 0.01,0 0,0 0.01,0 0.01,0 0,0.01 -0.01,0.01 -0.01,0.01 -0.01,0 -0.01,0 -0.01,-0.01zm2.28 -0.03c0.01,-0.02 0.01,-0.02 0.01,-0.01 0.01,0.01 0.01,0.03 0,0.03 0,0.01 -0.01,0 -0.01,-0.02l0 0zm-3.59 -0.05c0,-0.02 0.01,-0.02 0.01,-0.01 0.01,0.01 0.01,0.03 0,0.03 0,0.01 -0.01,0 -0.01,-0.02l0 0zm2.19 0.02c0,-0.01 0,-0.01 0,-0.01 0.01,0 0.01,0 0.01,0.01 0,0 0,0.01 -0.01,0.01 0,0 0,-0.01 0,-0.01zm1.36 -0.13c-0.08,-0.24 -0.24,-0.51 -0.42,-0.7 -0.05,-0.06 -0.09,-0.11 -0.08,-0.11 0.02,0 0.17,0.18 0.26,0.29 0.12,0.16 0.3,0.57 0.28,0.63 0,0 -0.02,-0.04 -0.04,-0.11l0 0zm-1.35 0.1c0,-0.01 0.01,-0.01 0.01,-0.01 0.01,0 0.01,0 0.01,0.01 0,0 0,0 -0.01,0 0,0 -0.01,0 -0.01,0zm0.02 -0.04c0,0 0,-0.01 0.01,-0.01 0,0 0.01,0.01 0.01,0.01 0,0.01 -0.01,0.01 -0.01,0.01 -0.01,0 -0.01,0 -0.01,-0.01zm0.02 -0.03c0,-0.01 0,-0.01 0,-0.01 0.01,0 0.01,0 0.01,0.01 0,0 0,0.01 -0.01,0.01 0,0 0,-0.01 0,-0.01zm0.01 -0.05c0,0 0.01,-0.01 0.01,-0.01 0.01,0 0.01,0.01 0.01,0.01 0,0 0,0.01 -0.01,0.01 0,0 -0.01,-0.01 -0.01,-0.01zm0.36 -0.08c0.01,-0.05 0.01,-0.09 0.02,-0.09 0.01,-0.02 0,0.1 -0.01,0.14 -0.01,0.02 -0.01,0 -0.01,-0.05zm-2.56 0.05c0,-0.01 0,-0.01 0.01,-0.01 0,0 0.01,0 0.01,0.01 0,0 -0.01,0 -0.01,0 -0.01,0 -0.01,0 -0.01,0zm2.22 -0.04c0,-0.02 0.01,-0.02 0.01,-0.01 0.01,0.01 0,0.03 0,0.03 -0.01,0.01 -0.01,0 -0.01,-0.02l0 0zm-2.19 -0.05c0,0 0.01,0 0.01,0 0.01,0 0.01,0 0.01,0 0,0.01 0,0.01 -0.01,0.01 0,0 -0.01,0 -0.01,-0.01zm2.54 -0.13c0,-0.03 0,-0.04 0.01,-0.02 0,0.02 0,0.04 0,0.05 -0.01,0.01 -0.01,0 -0.01,-0.03l0 0zm-0.03 -0.08c-0.01,-0.04 -0.01,-0.05 0.01,-0.02 0.01,0.02 0.02,0.03 0.01,0.04 0,0 -0.01,-0.01 -0.02,-0.02zm-0.04 -0.08c0,-0.01 0,-0.01 0.01,-0.01 0,0 0.01,0 0.01,0.01 0,0 -0.01,0 -0.01,0 -0.01,0 -0.01,0 -0.01,0zm-0.05 -0.07c-0.02,-0.03 -0.02,-0.03 0,-0.01 0.03,0.02 0.04,0.03 0.03,0.03 -0.01,0 -0.02,-0.01 -0.03,-0.02zm0.43 -0.39c-0.06,-0.05 -0.06,-0.05 0,-0.02 0.03,0.02 0.05,0.05 0.06,0.05 0.02,0.03 0,0.02 -0.06,-0.03zm-0.1 -0.07c0,-0.01 0.01,-0.01 0.01,-0.01 0,0 0.01,0 0.01,0.01 0,0 -0.01,0 -0.01,0 0,0 -0.01,0 -0.01,0zm-0.04 -0.03c-0.01,-0.01 -0.01,-0.02 0.01,-0.01 0.02,0.01 0.02,0.03 0.01,0.03 -0.01,0 -0.01,-0.01 -0.02,-0.02zm-0.09 -0.06c0,0 0,0 0.01,0 0,0 0.01,0 0.01,0 0,0.01 -0.01,0.01 -0.01,0.01 -0.01,0 -0.01,0 -0.01,-0.01zm-0.03 -0.01c0,-0.01 0,-0.01 0,-0.01 0.01,0 0.01,0 0.01,0.01 0,0 0,0.01 -0.01,0.01 0,0 0,-0.01 0,-0.01zm-0.04 -0.02c0,0 0.01,-0.01 0.01,-0.01 0.01,0 0.01,0.01 0.01,0.01 0,0 0,0.01 -0.01,0.01 0,0 -0.01,-0.01 -0.01,-0.01zm-0.03 -0.02c0,0 0,0 0.01,0 0,0 0.01,0 0.01,0 0,0.01 -0.01,0.01 -0.01,0.01 -0.01,0 -0.01,0 -0.01,-0.01zm-0.62 -0.18c0.01,-0.01 0.04,-0.01 0.05,0 0.02,0 0.01,0.01 -0.03,0.01 -0.03,0 -0.04,-0.01 -0.02,-0.01z"/>
 <path fill="#05C0CB" d="M1.01 1.38c-0.04,-0.02 -0.06,-0.03 -0.04,-0.03 0.03,0 0.03,-0.01 -0.01,-0.04 -0.04,-0.03 -0.06,-0.03 -0.17,-0.03 -0.08,0.01 -0.11,0.01 -0.09,0 0.04,-0.01 0.04,-0.01 0,-0.02 -0.03,0 -0.06,-0.01 -0.07,-0.04 -0.02,-0.02 -0.05,-0.04 -0.08,-0.05 -0.06,-0.01 -0.07,-0.08 -0.01,-0.11 0.04,-0.01 0.04,-0.02 0.04,-0.09 0,-0.1 -0.05,-0.08 -0.09,0.03 -0.02,0.04 -0.1,0.11 -0.11,0.09 -0.02,-0.01 0.01,-0.06 0.05,-0.07 0.03,-0.02 0.04,-0.04 0.05,-0.09 0,-0.04 0.03,-0.09 0.05,-0.11 0.02,-0.02 0.04,-0.05 0.04,-0.06 0,-0.02 0.01,-0.03 0.03,-0.02 0.04,0.01 0.15,-0.12 0.15,-0.16 0,-0.02 0.01,-0.03 0.01,-0.03 0.01,0 0.05,-0.03 0.1,-0.07 0.04,-0.03 0.09,-0.06 0.1,-0.06 0.02,0 0.05,-0.02 0.06,-0.03 0.07,-0.08 0.41,-0.22 0.51,-0.21 0.04,0 0.07,-0.01 0.09,-0.02 0.01,-0.01 0.05,-0.02 0.08,-0.02 0.08,0 0.18,-0.02 0.17,-0.04 -0.01,-0.01 0.03,-0.01 0.09,-0.01 0.11,0 0.11,0 0.04,0.03 -0.03,0.02 -0.07,0.03 -0.09,0.03 -0.01,0 -0.02,0.01 -0.02,0.02 0,0.02 0.04,0.02 0.07,0 0.02,-0.03 0.32,-0.03 0.34,-0.01 0.03,0.02 -0.03,0.04 -0.12,0.03 -0.06,-0.01 -0.07,0 -0.07,0.01 0.01,0.01 0.03,0.02 0.05,0.02 0.01,0 0.03,0.01 0.04,0.02 0.01,0.02 0.1,0.02 0.12,-0.01 0.02,-0.02 0.11,-0.01 0.12,0.02 0,0.02 -0.01,0.02 -0.02,0.02 -0.04,-0.02 -0.1,0.01 -0.08,0.04 0.01,0.01 0.03,0.02 0.03,0.02 0.01,-0.01 0.03,0 0.05,0.01 0.03,0.03 0.01,0.04 -0.05,0.03 -0.02,0 -0.03,0.19 -0.01,0.2 0.05,0.03 0.03,0.08 -0.02,0.09 -0.03,0 -0.05,0.01 -0.05,0.02 0,0.01 -0.05,0.02 -0.1,0.03 -0.2,0.02 -0.27,0.03 -0.29,0.04 -0.01,0.01 -0.06,0.02 -0.11,0.03 -0.11,0.02 -0.21,0.08 -0.25,0.14 -0.02,0.03 -0.04,0.04 -0.04,0.04 -0.02,0 -0.29,0.27 -0.29,0.29 0,0.02 -0.11,0.16 -0.13,0.16 0,0 -0.04,-0.02 -0.07,-0.03l0 0zm-0.38 -0.26c-0.01,-0.01 -0.01,0 -0.01,0.01 0,0.01 0,0.02 0.01,0.01 0.01,-0.01 0.01,-0.02 0,-0.02zm0.66 -0.04c0.01,-0.01 0,-0.02 -0.02,-0.02 -0.03,0 -0.04,0.01 -0.04,0.03 0,0.03 0.05,0.03 0.06,-0.01zm-0.02 -0.1c0.01,-0.01 0,-0.02 0,-0.02 -0.01,0 -0.03,0.01 -0.03,0.02 -0.01,0.01 0,0.02 0.01,0.02 0,0 0.02,-0.01 0.02,-0.02zm1.02 -0.34c0,-0.03 -0.08,-0.06 -0.12,-0.05 -0.03,0.01 -0.04,0.04 -0.01,0.05 0.04,0.01 0.13,0.01 0.13,0zm-0.02 -0.3c0,0 0,0 0,0 -0.01,0 -0.01,0 -0.01,0 0,0.01 0,0.01 0.01,0.01 0,0 0,0 0,-0.01zm-0.55 -0.15c0,0 -0.01,0 -0.02,0 -0.01,0.01 0,0.01 0.01,0.01 0.01,0 0.02,0 0.01,-0.01zm-0.09 1.12c0,-0.01 0.01,-0.02 0.01,-0.02 0.01,-0.01 0.02,-0.01 0.02,0 0,0.01 -0.01,0.02 -0.02,0.03 0,0.01 -0.01,0 -0.01,-0.01zm0.23 -0.16c0,-0.01 -0.01,-0.02 -0.03,-0.02 -0.04,0 -0.02,-0.05 0.03,-0.07 0.03,-0.01 0.03,-0.01 0.02,0.02 -0.03,0.05 -0.02,0.05 0.02,0.04 0.04,-0.01 0.04,-0.01 0.02,0.02 -0.03,0.03 -0.06,0.03 -0.06,0.01l0 0zm0.12 -0.01c0.01,-0.01 0.02,-0.01 0.02,0 0.01,0 0,0.01 -0.01,0.01 -0.01,0 -0.02,-0.01 -0.01,-0.01zm0.02 -0.13c0.01,-0.03 0.11,-0.04 0.11,-0.01 0,0.02 -0.02,0.03 -0.06,0.03 -0.04,0 -0.06,-0.01 -0.05,-0.02l0 0zm0.23 -0.06c0,-0.01 0,-0.02 0.01,-0.02 0.01,0 0.02,0.01 0.02,0.02 0,0.01 -0.01,0.01 -0.01,0.01 0,0 -0.01,0 -0.02,-0.01z"/>
 <path fill="#09B3CE" d="M0.93 1.84c-0.01,0 -0.08,-0.01 -0.17,0 -0.12,0 -0.17,0 -0.26,-0.03 -0.05,-0.02 -0.11,-0.03 -0.12,-0.03 -0.01,0 -0.03,-0.02 -0.04,-0.05 -0.03,-0.06 -0.09,-0.05 -0.13,0.03 -0.04,0.09 -0.07,-0.07 -0.03,-0.16 0.01,-0.03 0.02,-0.08 0.02,-0.12 0,-0.05 0.05,-0.18 0.13,-0.37 0.02,-0.05 0.15,-0.26 0.16,-0.26 0.03,0 -0.04,0.15 -0.06,0.17 -0.04,0.01 -0.07,0.06 -0.05,0.07 0.01,0.02 0.09,-0.05 0.11,-0.09 0.04,-0.11 0.09,-0.13 0.09,-0.03 0,0.07 0,0.08 -0.04,0.09 -0.06,0.03 -0.05,0.1 0.01,0.11 0.03,0.01 0.06,0.03 0.08,0.05 0.01,0.03 0.04,0.04 0.07,0.04 0.04,0.01 0.04,0.01 0,0.02 -0.02,0.01 0.01,0.01 0.09,0 0.11,0 0.13,0 0.17,0.03 0.04,0.03 0.04,0.03 0.01,0.04 -0.02,0 0,0.01 0.04,0.03 0.08,0.03 0.08,0.03 0.13,-0.03 0.06,-0.06 0.06,-0.06 -0.02,0.08 -0.03,0.08 -0.08,0.18 -0.09,0.22 -0.05,0.18 -0.08,0.23 -0.1,0.19l0 0zm0.55 -0.13c0,-0.01 0.01,-0.02 0.02,-0.02 0.01,0 0.01,0.01 0,0.02 0,0.01 -0.01,0.02 -0.01,0.02 -0.01,0 -0.01,-0.01 -0.01,-0.02zm0.02 -0.09c0,-0.04 0,-0.08 0.02,-0.12 0.05,-0.12 0.09,-0.18 0.11,-0.18 0.01,0 0.02,-0.01 0.03,-0.02 0,-0.02 0,-0.02 -0.02,-0.01 -0.03,0.02 0.07,-0.11 0.12,-0.16 0.02,-0.01 0.04,-0.02 0.05,-0.02 0,0.01 0.01,0.02 0.03,0.02 0.01,0 0.02,0.01 0.02,0.02 0,0.02 0.03,0.02 0.06,-0.01 0.02,-0.03 0.02,-0.03 -0.02,-0.02 -0.04,0.01 -0.05,0.01 -0.02,-0.04 0.01,-0.03 0.01,-0.03 -0.01,-0.02 -0.07,0.02 -0.01,-0.02 0.08,-0.06 0.12,-0.06 0.25,-0.08 0.28,-0.05 0.02,0.01 0.03,0.01 0.03,0 0,-0.03 0.09,0.01 0.14,0.07 0.05,0.06 0.05,0.22 -0.01,0.36 -0.03,0.09 -0.03,0.09 -0.06,0.03 -0.03,-0.07 -0.04,-0.07 -0.07,0 -0.02,0.04 -0.03,0.04 -0.06,0.04 -0.02,-0.01 -0.07,0.01 -0.11,0.02 -0.15,0.07 -0.19,0.09 -0.22,0.1 -0.09,0.01 -0.13,0.03 -0.15,0.07 -0.04,0.05 -0.07,0.05 -0.08,-0.02 0,-0.05 0,-0.05 -0.03,0 -0.04,0.08 -0.09,0.07 -0.11,0l0 0zm0.9 -0.44c0,-0.02 -0.01,-0.01 -0.01,0.01 0,0.01 0,0.02 0.01,0.02 0,-0.01 0.01,-0.02 0,-0.03l0 0zm-0.4 -0.04c0,-0.01 -0.01,-0.01 -0.02,0 -0.01,0 0,0.01 0.01,0.01 0.01,0 0.02,-0.01 0.01,-0.01zm0.11 -0.14c0,-0.01 -0.02,-0.02 -0.05,-0.02 -0.08,0.01 -0.09,0.05 -0.01,0.05 0.04,0 0.06,-0.01 0.06,-0.03zm-0.9 0.24c0,-0.02 0.05,-0.07 0.06,-0.06 0,0 -0.01,0.03 -0.02,0.05 -0.03,0.02 -0.04,0.03 -0.04,0.01zm1.61 -0.08c0,-0.02 0.01,-0.03 0.02,-0.04 0.01,0 0.01,0 0.01,0.02 0,0.01 0,0.03 -0.01,0.03 -0.01,0.01 -0.02,0 -0.02,-0.01zm-2.2 -0.03c0,-0.01 0,-0.02 0.01,-0.01 0.01,0 0.01,0.01 0,0.02 -0.01,0.01 -0.01,0 -0.01,-0.01zm0.69 -0.01c0,0 0.01,-0.01 0.01,-0.01 0.01,0 0.01,0.01 0.01,0.01 0,0.01 0,0.01 -0.01,0.01 0,0 -0.01,0 -0.01,-0.01zm-0.08 -0.03c0,-0.02 0.01,-0.03 0.04,-0.03 0.04,0 0.03,0.04 -0.01,0.05 -0.02,0 -0.03,-0.01 -0.03,-0.02l0 0zm1.5 -0.15c-0.12,-0.14 -0.28,-0.21 -0.56,-0.23 -0.06,0 -0.06,-0.01 0.02,-0.01 0.06,0 0.1,-0.01 0.1,-0.02 0,0 0.02,-0.02 0.05,-0.02 0.05,-0.01 0.07,-0.06 0.02,-0.09 -0.02,-0.01 -0.01,-0.2 0.01,-0.2 0.06,0.01 0.08,0 0.05,-0.03 -0.02,-0.01 -0.04,-0.02 -0.05,-0.01 0,0 -0.02,-0.01 -0.03,-0.02 -0.02,-0.03 0.04,-0.06 0.08,-0.04 0.02,0 0.02,0 0.02,-0.02 -0.01,-0.03 -0.1,-0.04 -0.12,-0.02 -0.02,0.03 -0.11,0.03 -0.12,0.01 -0.01,-0.01 -0.03,-0.02 -0.04,-0.02 -0.02,0 -0.04,-0.01 -0.05,-0.02 0,-0.01 0.01,-0.02 0.07,-0.01 0.05,0 0.09,0.01 0.11,0 0.03,-0.01 0.02,-0.04 -0.02,-0.04 -0.02,0 -0.03,0 -0.02,-0.01 0.06,-0.02 0.46,0.11 0.54,0.17 0.01,0.01 0.05,0.03 0.08,0.04 0.03,0.01 0.06,0.04 0.07,0.05 0,0.02 0.03,0.04 0.06,0.05 0.06,0.02 0.07,0.06 0.02,0.05 -0.04,-0.02 -0.16,0.09 -0.14,0.13 0.01,0.03 0.03,0.21 0.03,0.27 0,0.05 -0.04,0.06 -0.06,0.01 -0.03,-0.09 -0.08,-0.03 -0.05,0.06 0.03,0.08 0.02,0.07 -0.07,-0.03l0 0zm-0.04 -0.13c0,-0.01 -0.01,-0.01 -0.01,-0.01 -0.01,0 -0.01,0 -0.01,0.01 0,0 0,0.01 0.01,0.01 0,0 0.01,-0.01 0.01,-0.01zm0.18 -0.37c0,-0.01 -0.01,-0.02 -0.02,-0.02 -0.01,0 -0.01,0.01 -0.01,0.02 0,0.02 0,0.03 0.01,0.03 0.01,0 0.02,-0.01 0.02,-0.03zm-1.63 0.54c0,-0.01 0.02,-0.02 0.03,-0.02 0,0 0.01,0.01 0,0.02 0,0.01 -0.02,0.02 -0.02,0.02 -0.01,0 -0.02,-0.01 -0.01,-0.02zm0.21 0c0.01,-0.01 0.02,-0.02 0.02,-0.02 0.01,0 0.01,0.01 0,0.02 -0.01,0.01 -0.01,0.02 -0.02,0.02 0,0 0,-0.01 0,-0.02zm0.1 -0.07c0,-0.02 0.14,-0.11 0.19,-0.12 0.04,0 0.05,0 0.04,0 -0.02,0.01 -0.07,0.04 -0.13,0.07 -0.06,0.03 -0.1,0.05 -0.1,0.05l0 0zm-1.02 -0.11c0.01,-0.03 0.03,-0.05 0.03,-0.05 0.01,0 0.01,0.01 0.01,0.02 0,0.02 -0.02,0.04 -0.04,0.05 -0.04,0.02 -0.04,0.02 0,-0.02zm0.08 -0.06c-0.02,-0.01 0,-0.04 0.06,-0.1 0.09,-0.09 0.11,-0.07 0.02,0.04 -0.04,0.04 -0.07,0.06 -0.08,0.06l0 0zm1.3 0c0.01,-0.01 0.02,-0.01 0.03,0 0,0 0,0.01 -0.01,0.01 -0.02,0 -0.02,-0.01 -0.02,-0.01zm0.15 -0.02c0,0 0,0 0.01,0 0,0 0,0 0,0 0,0.01 0,0.01 0,0.01 -0.01,0 -0.01,0 -0.01,-0.01zm0.1 -0.08c-0.03,-0.01 -0.02,-0.04 0.01,-0.05 0.04,-0.01 0.12,0.02 0.12,0.05 0,0.01 -0.09,0.01 -0.13,0zm0.81 -0.03c0.01,-0.01 0.02,-0.01 0.03,0 0,0 0,0.01 -0.01,0.01 -0.02,0 -0.02,-0.01 -0.02,-0.01zm0.16 -0.05c0,-0.01 0.01,-0.01 0.01,-0.01 0.01,0 0.01,0 0.01,0.01 0,0 0,0.01 -0.01,0.01 0,0 -0.01,-0.01 -0.01,-0.01zm-2.31 -0.06c0.01,-0.01 0.02,-0.02 0.02,-0.02 0.01,0 0.01,0.01 0,0.02 0,0.01 -0.01,0.02 -0.02,0.02 0,0 0,-0.01 0,-0.02zm0.15 -0.09c0,0 0.02,-0.02 0.04,-0.03 0.05,-0.03 0.05,-0.03 0.02,0 -0.03,0.03 -0.06,0.05 -0.06,0.03l0 0zm1.29 -0.07c0,0 0,0 0.01,0 0,0 0,0 0,0 0,0.01 0,0.01 0,0.01 -0.01,0 -0.01,0 -0.01,-0.01zm-1.16 -0.01c0,-0.01 0,-0.01 0.01,-0.01 0,0 0,0 0,0.01 0,0 0,0.01 0,0.01 -0.01,0 -0.01,-0.01 -0.01,-0.01zm0.13 -0.07c0,0 0,-0.01 0.01,-0.01 0,0 0.01,0.01 0.01,0.01 0,0.01 -0.01,0.01 -0.01,0.01 -0.01,0 -0.01,0 -0.01,-0.01zm0.08 -0.03c0,-0.01 0.01,-0.01 0.01,-0.01 0.01,0 0.01,0 0.01,0.01 0,0 0,0.01 -0.01,0.01 0,0 -0.01,-0.01 -0.01,-0.01zm0.39 -0.04c0.01,0 0.02,0 0.02,0 0.01,0.01 0,0.01 -0.01,0.01 -0.01,0 -0.02,0 -0.01,-0.01zm-0.15 -0.03c0.04,-0.01 0.07,-0.02 0.08,-0.02 0.01,0.02 -0.02,0.03 -0.08,0.04 -0.06,0.01 -0.06,0.01 0,-0.02l0 0zm0.34 0.01c0,-0.01 0.01,-0.02 0.02,-0.02 0.02,0 0.06,-0.01 0.09,-0.03 0.04,-0.02 0.07,-0.03 0.08,-0.02 0.01,0.01 0.05,0.02 0.09,0.02 0.04,0 0.01,0.01 -0.07,0.02 -0.07,0.01 -0.14,0.02 -0.15,0.03 -0.02,0.02 -0.06,0.02 -0.06,0zm-0.16 -0.05c0.02,0 0.04,0 0.05,0.01 0.01,0 0,0 -0.03,0 -0.03,0 -0.03,0 -0.02,-0.01l0 0zm0.11 -0.01c0.01,-0.01 0.03,-0.01 0.03,0 0.01,0.01 0,0.01 -0.02,0.01 -0.02,0 -0.02,-0.01 -0.01,-0.01l0 0z"/>
 <path fill="#4F55E3" d="M0.95 3.49c0,-0.01 0,-0.01 0.01,-0.01 0,0 0.01,0 0.01,0.01 0,0 -0.01,0.01 -0.01,0.01 -0.01,0 -0.01,-0.01 -0.01,-0.01zm-0.07 -0.06c-0.02,-0.02 -0.02,-0.02 0.01,0 0.01,0.01 0.03,0.02 0.03,0.03 0,0.01 -0.02,0 -0.04,-0.03zm-0.05 -0.02c0,-0.01 0.01,-0.01 0.01,-0.01 0.01,0 0.01,0 0.01,0.01 0,0 0,0 -0.01,0 0,0 -0.01,0 -0.01,0zm-0.16 -0.16c-0.17,-0.17 -0.4,-0.49 -0.29,-0.39 0.04,0.03 0.15,0.07 0.16,0.06 0.03,-0.02 0.15,-0.05 0.23,-0.05 0.08,0 0.1,-0.01 0.13,-0.04 0.04,-0.04 0.14,-0.05 0.18,-0.02 0.02,0.02 0.05,-0.01 0.03,-0.04 -0.03,-0.07 -0.01,-0.05 0.04,0.02 0.12,0.18 0.32,0.32 0.54,0.37 0.11,0.02 0.11,0.02 0.01,0.01 -0.06,0 -0.13,-0.02 -0.15,-0.03 -0.03,-0.02 -0.08,-0.03 -0.12,-0.03 -0.03,0 -0.08,-0.02 -0.1,-0.03 -0.05,-0.04 -0.08,-0.04 -0.09,0 -0.01,0.03 -0.03,0.03 -0.16,0.03 -0.09,0 -0.21,0.01 -0.29,0.03 -0.1,0.02 -0.14,0.02 -0.17,0.01 -0.04,-0.02 -0.03,-0.01 0.02,0.05 0.18,0.19 0.2,0.23 0.03,0.05zm1.35 -0.08c0.01,0 0.03,0 0.04,0 0.01,0.01 0,0.01 -0.02,0.01 -0.02,0 -0.03,0 -0.02,-0.01l0 0zm0.08 -0.02c0.02,0 0.03,0 0.04,0.01 0,0 -0.01,0.01 -0.03,0 -0.01,0 -0.02,0 -0.01,-0.01l0 0zm0.18 -0.07c0.26,-0.13 0.48,-0.38 0.55,-0.63 0.02,-0.09 0.02,-0.09 0.05,-0.03 0.03,0.05 0.07,0.05 0.07,-0.01 0,-0.06 0.05,-0.12 0.09,-0.11 0.03,0 0.06,-0.01 0.08,-0.04 0.02,-0.02 0.07,-0.07 0.11,-0.11 0.04,-0.04 0.1,-0.09 0.14,-0.13 0.03,-0.03 0.08,-0.07 0.1,-0.08 0.03,-0.02 0.06,-0.05 0.07,-0.09 0.03,-0.08 0.1,-0.17 0.15,-0.18 0.02,0 0.03,-0.02 0.04,-0.07 0.01,-0.1 0.03,-0.11 0.04,-0.01 0.01,0.05 0.02,0.09 0.03,0.09 0.02,0 0.03,0.31 0.02,0.43 -0.02,0.1 -0.02,0.1 -0.04,0.06 -0.02,-0.06 -0.08,-0.02 -0.08,0.05 0,0.06 -0.01,0.06 -0.06,0.02 -0.02,-0.02 -0.03,-0.02 -0.03,0.05 0,0.06 0,0.07 -0.03,0.06 -0.02,-0.01 -0.06,0.01 -0.14,0.1 -0.06,0.06 -0.15,0.12 -0.2,0.15 -0.09,0.05 -0.16,0.1 -0.16,0.12 0,0.03 -0.09,0.08 -0.2,0.12 -0.07,0.02 -0.12,0.05 -0.12,0.06 -0.01,0.02 -0.04,0.03 -0.09,0.04 -0.05,0.01 -0.1,0.02 -0.11,0.04 -0.01,0.01 -0.03,0.02 -0.05,0.02 -0.04,0 -0.06,0.02 -0.04,0.04 0.02,0.02 0.02,0.03 -0.01,0.04 -0.01,0 -0.03,0 -0.04,-0.01 -0.01,-0.02 -0.03,-0.02 -0.12,0.03 -0.06,0.03 -0.12,0.05 -0.13,0.05 -0.01,0 0.04,-0.03 0.11,-0.07l0 0zm-0.49 -0.21c-0.14,-0.05 -0.29,-0.2 -0.21,-0.2 0.02,0 0.04,0.01 0.05,0.04 0.03,0.08 0.15,0.11 0.2,0.05 0.03,-0.02 0.17,-0.04 0.31,-0.03 0.02,0 0.07,-0.01 0.11,-0.03 0.03,-0.02 0.11,-0.05 0.16,-0.06 0.1,-0.02 0.17,-0.08 0.24,-0.19 0.01,-0.02 0.02,-0.03 0.02,-0.02 0,0.03 -0.1,0.16 -0.18,0.24 -0.18,0.2 -0.49,0.28 -0.7,0.2zm-0.31 -0.31c0,0 0,-0.01 0.01,-0.01 0,0 0.01,0.01 0.01,0.01 0,0.01 -0.01,0.01 -0.01,0.01 -0.01,0 -0.01,0 -0.01,-0.01zm2.27 -0.2c0,0 0,-0.01 0.01,-0.01 0,0 0,0.01 0,0.01 0,0.01 0,0.01 0,0.01 -0.01,0 -0.01,0 -0.01,-0.01zm-0.93 -0.01c0,-0.01 0,-0.01 0.01,-0.01 0,0 0.01,0 0.01,0.01 0,0 -0.01,0 -0.01,0 -0.01,0 -0.01,0 -0.01,0zm0.94 -0.08c0,-0.01 0.01,-0.02 0.01,-0.01 0.01,0.01 0.01,0.02 0,0.02 0,0.01 -0.01,0 -0.01,-0.01z"/>
 <path fill="#2689D6" d="M0.25 2.53c0,-0.02 0,-0.04 0,-0.06 0,-0.01 -0.01,-0.02 -0.03,-0.02 -0.03,0 -0.07,-0.13 -0.07,-0.24 0,-0.03 0,-0.05 -0.01,-0.05 -0.01,0.01 -0.04,-0.13 -0.03,-0.15 0.01,-0.01 0.06,0.09 0.07,0.15 0.01,0.04 0.02,0.06 0.03,0.05 0.02,0 0.03,0 0.03,0.02 0,0.04 0.03,0.05 0.04,0.01 0.01,-0.03 0.02,-0.03 0.17,-0.03 0.12,0 0.17,-0.01 0.2,-0.03 0.02,-0.02 0.06,-0.02 0.11,-0.02 0.06,0.01 0.09,0.01 0.11,-0.02 0.08,-0.07 0.09,-0.06 0.1,0.08 0.02,0.14 0.01,0.17 -0.03,0.17 -0.15,0 -0.3,0.02 -0.31,0.03 -0.02,0.02 -0.24,0.02 -0.24,0 0,-0.03 -0.05,-0.01 -0.06,0.02 -0.02,0.07 -0.08,0.12 -0.08,0.09zm0 -0.1c0,-0.01 0,-0.01 0,-0.01 -0.01,0 -0.01,0 -0.01,0.01 0,0 0,0.01 0.01,0.01 0,0 0,-0.01 0,-0.01zm1.16 -0.3c0.01,-0.1 0.01,-0.16 0.01,-0.14 0.01,0.02 0.02,0.03 0.04,0.02 0.01,-0.01 0.07,-0.02 0.12,-0.02 0.05,0 0.1,-0.01 0.11,-0.02 0.01,-0.01 0.07,-0.02 0.13,-0.03 0.06,-0.01 0.12,-0.02 0.14,-0.04 0.03,-0.03 0.15,-0.07 0.26,-0.09 0.05,-0.01 0.11,-0.03 0.14,-0.05 0.02,-0.01 0.08,-0.04 0.13,-0.05 0.05,-0.02 0.09,-0.04 0.09,-0.05 0.01,-0.01 0,-0.02 -0.03,-0.01 -0.02,0.01 0,-0.01 0.04,-0.04 0.04,-0.03 0.09,-0.06 0.1,-0.08 0.01,-0.02 0.02,-0.03 0.03,-0.03 0,0.01 0,0.02 -0.01,0.03 -0.02,0.02 -0.01,0.03 0.01,0.06 0.03,0.02 0.04,0.02 0.06,0 0.01,-0.01 0.04,-0.03 0.06,-0.04 0.06,-0.04 0.12,-0.1 0.12,-0.14 0,-0.02 0.01,-0.05 0.01,-0.05 0,-0.01 0.01,-0.01 0.03,-0.01 0.02,0.01 0.03,0 0.05,-0.03 0.01,-0.02 0.02,-0.04 0.03,-0.04 0.03,0 0.13,-0.16 0.14,-0.22 0.01,-0.04 0.02,-0.05 0.03,-0.03 0.03,0.05 0.08,0 0.07,-0.09 0,-0.01 0,-0.03 0.01,-0.03 0.01,-0.01 0.02,-0.03 0.02,-0.05 0,-0.01 0.01,-0.03 0.02,-0.03 0.02,0 0.03,-0.01 0.03,-0.02 0.01,0 0.04,0.03 0.07,0.08 0.09,0.14 0.09,0.15 -0.05,0.41 -0.03,0.06 -0.07,0.11 -0.09,0.12 -0.02,0.02 -0.04,0.05 -0.05,0.08 -0.03,0.06 -0.14,0.18 -0.17,0.18 -0.01,0 -0.03,0 -0.03,0.01 0,0.01 -0.04,0.04 -0.09,0.08 -0.04,0.03 -0.1,0.08 -0.12,0.1 -0.03,0.03 -0.08,0.06 -0.11,0.06 -0.06,0.01 -0.21,0.06 -0.27,0.09 -0.15,0.08 -0.25,0.12 -0.27,0.12 -0.02,0 -0.07,0.02 -0.11,0.03 -0.05,0.03 -0.11,0.04 -0.28,0.05 -0.18,0.01 -0.22,0.01 -0.27,0.05 -0.12,0.08 -0.15,0.06 -0.15,-0.14l0 0zm1.28 -0.48c0,-0.01 -0.01,-0.03 -0.03,-0.04 -0.03,-0.02 -0.06,0.02 -0.04,0.05 0.03,0.02 0.07,0.02 0.07,-0.01zm-2.57 0.13c0,-0.02 0.01,-0.03 0.01,-0.02 0.01,0.02 0.01,0.04 0,0.05 0,0.01 -0.01,0 -0.01,-0.03l0 0zm2.3 -0.11c0,-0.01 0.01,-0.01 0.01,-0.01 0.01,0 0.01,0 0.01,0.01 0,0 0,0.01 -0.01,0.01 0,0 -0.01,-0.01 -0.01,-0.01zm0.3 -0.2c0,-0.01 0,-0.01 0.01,-0.01 0,0 0.01,0 0.01,0.01 0,0 -0.01,0.01 -0.01,0.01 -0.01,0 -0.01,-0.01 -0.01,-0.01zm0.07 -0.14c0,-0.01 0,-0.02 0.01,-0.01 0,0 0,0.01 0,0.02 -0.01,0.01 -0.01,0 -0.01,-0.01zm0.84 -0.14c0,-0.01 0,-0.01 0.01,-0.01 0,0 0.01,0 0.01,0.01 0,0 -0.01,0.01 -0.01,0.01 -0.01,0 -0.01,-0.01 -0.01,-0.01zm-0.32 -0.47c-0.02,-0.03 -0.02,-0.03 0.01,-0.01 0.03,0.03 0.04,0.04 0.02,0.04 0,0 -0.01,-0.01 -0.03,-0.03zm-0.04 -0.06c0,-0.01 0,-0.01 0.01,0 0.02,0.01 0.03,0.02 0.01,0.02 0,0 -0.01,-0.01 -0.02,-0.02z"/>
 <path fill="#1A98D3" d="M0.24 2.24c0,-0.02 -0.02,-0.03 -0.03,-0.03 -0.01,0.01 -0.02,-0.01 -0.03,-0.05 -0.01,-0.03 -0.03,-0.09 -0.05,-0.12 -0.03,-0.06 -0.03,-0.09 0,-0.27 0.02,-0.11 0.04,-0.12 0.04,-0.02 0,0.08 0,0.08 0.04,0.01 0.04,-0.08 0.1,-0.09 0.13,-0.03 0.01,0.03 0.03,0.05 0.04,0.05 0.01,0 0.07,0.01 0.12,0.03 0.09,0.03 0.14,0.03 0.26,0.03 0.09,-0.01 0.16,0 0.17,0.01 0.02,0.02 0.02,0.02 0.06,-0.06 0.01,-0.03 0.02,-0.04 0.02,-0.02 -0.01,0.02 -0.02,0.1 -0.03,0.18 -0.02,0.12 -0.03,0.14 -0.06,0.16 -0.01,0 -0.04,0.02 -0.05,0.04 -0.02,0.02 -0.04,0.02 -0.11,0.01 -0.05,0 -0.09,0 -0.11,0.02 -0.03,0.02 -0.08,0.03 -0.2,0.03 -0.13,0 -0.16,0 -0.16,0.02 0,0.04 -0.04,0.05 -0.05,0.01zm1.18 -0.27c-0.01,-0.05 0.01,-0.16 0.05,-0.33 0.01,-0.05 0.04,-0.05 0.04,0 0,0.06 0.06,0.04 0.1,-0.02 0.03,-0.05 0.03,-0.05 0.03,0 0.01,0.07 0.04,0.07 0.08,0.02 0.02,-0.04 0.06,-0.06 0.15,-0.07 0.03,-0.01 0.07,-0.03 0.22,-0.1 0.04,-0.01 0.09,-0.03 0.11,-0.02 0.03,0 0.04,0 0.06,-0.04 0.03,-0.07 0.04,-0.07 0.07,0 0.03,0.07 0.1,-0.06 0.1,-0.2 0,-0.04 0.01,-0.09 0.02,-0.09 0.03,-0.04 -0.01,0.23 -0.06,0.34 -0.08,0.18 -0.02,0.25 0.17,0.19 0.02,-0.01 0.03,0 0.02,0.01 0,0.01 -0.04,0.03 -0.09,0.05 -0.05,0.01 -0.11,0.04 -0.13,0.05 -0.03,0.02 -0.09,0.04 -0.14,0.05 -0.11,0.02 -0.23,0.06 -0.26,0.09 -0.02,0.02 -0.08,0.03 -0.14,0.04 -0.06,0.01 -0.12,0.02 -0.13,0.03 -0.01,0.01 -0.06,0.02 -0.11,0.02 -0.05,0 -0.11,0.01 -0.12,0.02 -0.02,0.01 -0.03,0 -0.04,-0.04l0 0zm0.08 -0.26c0.01,-0.01 0.01,-0.02 0,-0.02 -0.01,0 -0.02,0.01 -0.02,0.02 0,0.01 0,0.02 0.01,0.02 0,0 0.01,-0.01 0.01,-0.02zm-0.48 -0.03c0,-0.02 0,-0.02 0.01,-0.02 0,0.01 0,0.02 0,0.03 -0.01,0 -0.01,0 -0.01,-0.01zm1.6 -0.02c-0.02,-0.03 0.01,-0.07 0.04,-0.05 0.02,0.01 0.03,0.03 0.03,0.04 0,0.03 -0.04,0.03 -0.07,0.01zm-2.46 -0.03c0,0 0.01,-0.05 0.02,-0.1 0.02,-0.08 0.02,-0.09 0.02,-0.04 0,0.05 -0.04,0.19 -0.04,0.14l0 0zm0.87 0c0,0 0.01,0 0.01,0 0,0 0.01,0 0.01,0 0,0.01 -0.01,0.01 -0.01,0.01 0,0 -0.01,0 -0.01,-0.01zm1.69 -0.05c-0.02,-0.02 -0.03,-0.03 -0.02,-0.05 0.11,-0.19 0.14,-0.38 0.07,-0.51 -0.03,-0.06 -0.03,-0.06 0.01,-0.02 0.04,0.04 0.04,0.04 0.03,0 -0.03,-0.1 0.01,-0.19 0.04,-0.09 0.02,0.05 0.06,0.04 0.06,-0.01 0,-0.06 -0.02,-0.24 -0.03,-0.27 -0.02,-0.04 0.1,-0.15 0.14,-0.13 0.05,0.01 0.04,-0.03 -0.02,-0.05 -0.03,-0.01 -0.06,-0.03 -0.07,-0.05 -0.01,-0.03 0,-0.03 0.04,0.01 0.12,0.07 0.18,0.13 0.17,0.14 0,0.01 0,0.01 0.01,0.01 0.02,-0.01 0.05,0.02 0.08,0.06 0.04,0.04 0.09,0.09 0.12,0.12 0.05,0.06 0.06,0.09 0.02,0.09 -0.01,0 -0.02,0.02 -0.02,0.03 0,0.02 -0.01,0.04 -0.02,0.05 -0.01,0 -0.01,0.02 -0.01,0.03 0.01,0.09 -0.04,0.14 -0.07,0.09 -0.01,-0.02 -0.02,-0.01 -0.03,0.03 -0.01,0.06 -0.11,0.22 -0.14,0.22 -0.01,0 -0.02,0.02 -0.03,0.04 -0.02,0.03 -0.03,0.04 -0.05,0.03 -0.02,0 -0.03,0 -0.03,0.01 0,0 -0.01,0.03 -0.01,0.05 0,0.04 -0.11,0.15 -0.15,0.15 -0.01,0 -0.02,0.01 -0.03,0.02 -0.01,0.04 -0.03,0.04 -0.06,0l0 0zm0.13 -0.44c0,-0.02 0,-0.02 -0.01,-0.02 -0.01,0.01 -0.02,0.02 -0.02,0.04 0,0.01 0.01,0.02 0.02,0.01 0.01,0 0.01,-0.02 0.01,-0.03zm0.15 -0.53c-0.01,-0.01 -0.02,-0.01 -0.03,0 0,0 0,0.01 0.02,0.01 0.01,0 0.01,-0.01 0.01,-0.01zm-1.95 0.97c0,0 0,0 0.01,0 0,0 0,0 0,0 0,0.01 0,0.01 0,0.01 -0.01,0 -0.01,0 -0.01,-0.01zm0.48 -0.11c0,-0.01 0,-0.01 0.01,-0.01 0,0 0.01,0 0.01,0.01 0,0 -0.01,0.01 -0.01,0.01 -0.01,0 -0.01,-0.01 -0.01,-0.01zm-1.33 -0.07c0,0 0.01,-0.01 0.01,-0.01 0.01,0 0.01,0.01 0.01,0.01 0,0.01 0,0.01 -0.01,0.01 0,0 -0.01,0 -0.01,-0.01zm0.02 -0.05c0,0 0,-0.01 0.01,-0.01 0,0 0.01,0.01 0.01,0.01 0,0.01 -0.01,0.01 -0.01,0.01 -0.01,0 -0.01,0 -0.01,-0.01zm0.02 -0.04c0,-0.01 0,-0.02 0.01,-0.01 0,0.01 0,0.02 0,0.02 -0.01,0.01 -0.01,0 -0.01,-0.01zm0.01 -0.04c0,0 0.01,-0.01 0.01,-0.01 0.01,0 0.01,0.01 0.01,0.01 0,0 0,0.01 -0.01,0.01 0,0 -0.01,-0.01 -0.01,-0.01zm0.02 -0.03c0,-0.01 0.01,-0.03 0.02,-0.04 0.01,-0.02 0.01,-0.02 0.01,-0.01 0,0.01 0,0.03 -0.01,0.04 -0.01,0.01 -0.02,0.02 -0.02,0.01zm2.12 -0.05c0,-0.02 0.01,-0.03 0.01,-0.01 0.01,0.01 0,0.02 0,0.03 -0.01,0 -0.01,-0.01 -0.01,-0.02l0 0zm-1.99 -0.22c0,0 0.01,-0.01 0.01,-0.01 0.01,0 0.01,0.01 0.01,0.01 0,0.01 0,0.01 -0.01,0.01 0,0 -0.01,0 -0.01,-0.01zm2.31 -0.04c-0.01,-0.01 0,-0.02 0.01,-0.01 0.02,0.01 0.02,0.03 0.01,0.03 0,0 -0.01,-0.01 -0.02,-0.02zm-0.08 -0.08c-0.01,-0.02 -0.01,-0.02 0.01,-0.01 0.01,0.01 0.02,0.02 0.01,0.02 -0.01,0 -0.02,0 -0.02,-0.01zm0.04 -0.04c0,-0.01 0,-0.01 0.01,-0.01 0,0 0.01,0 0.01,0.01 0,0 -0.01,0.01 -0.01,0.01 -0.01,0 -0.01,-0.01 -0.01,-0.01zm-0.21 -0.05c0,-0.01 0,-0.01 0,-0.01 0.01,0 0.01,0 0.01,0.01 0,0 0,0.01 -0.01,0.01 0,0 0,-0.01 0,-0.01zm0.38 -0.32c0,-0.01 0,-0.02 0.01,-0.02 0.01,0 0.02,0.01 0.02,0.02 0,0.02 -0.01,0.03 -0.02,0.03 -0.01,0 -0.01,-0.01 -0.01,-0.03zm0.05 -0.08c0,0 0,-0.01 0,-0.01 0.01,0 0.01,0.01 0.01,0.01 0,0 0,0.01 -0.01,0.01 0,0 0,-0.01 0,-0.01zm-0.04 -0.02c0,0 0.01,0 0.01,0 0.01,0 0.01,0 0.01,0 0,0.01 0,0.01 -0.01,0.01 0,0 -0.01,0 -0.01,-0.01zm-0.05 -0.02c-0.01,-0.01 0,-0.01 0.01,-0.01 0.03,0.01 0.03,0.03 0.01,0.03 -0.01,0 -0.02,-0.01 -0.02,-0.02l0 0zm-0.11 -0.06c0,0 0,-0.01 0.01,-0.01 0,0 0,0.01 0,0.01 0,0.01 0,0.01 0,0.01 -0.01,0 -0.01,0 -0.01,-0.01zm-0.04 -0.02c0,0 0.01,0 0.01,0 0.01,0 0.01,0 0.01,0 0,0.01 0,0.01 -0.01,0.01 0,0 -0.01,0 -0.01,-0.01zm-0.55 -0.13c0,-0.01 0.01,-0.01 0.02,0 0,0 0,0.01 -0.01,0.01 -0.01,0 -0.02,-0.01 -0.01,-0.01z"/>
 <path fill="#6C2BEC" d="M1.78 3.8c-0.05,0 -0.09,-0.01 -0.09,-0.02 0,-0.01 -0.03,-0.02 -0.07,-0.03 -0.1,-0.01 -0.38,-0.1 -0.34,-0.1 0.02,0 0.03,-0.02 0.03,-0.04 0,-0.05 0.09,-0.06 0.18,-0.03 0.03,0.01 0.05,0.02 0.06,0.02 0,0 0.01,0.01 0.02,0.02 0.03,0.02 0.11,0.01 0.1,-0.02 -0.01,-0.01 -0.03,-0.02 -0.06,-0.02 -0.09,0 -0.04,-0.04 0.08,-0.06 0.06,-0.01 0.13,-0.03 0.15,-0.04 0.04,-0.01 0.14,-0.04 0.3,-0.08 0.03,-0.01 0.07,-0.03 0.09,-0.06 0.02,-0.02 0.07,-0.04 0.1,-0.05 0.14,-0.02 0.15,-0.03 0.17,-0.06 0.01,-0.02 0.07,-0.06 0.13,-0.1 0.06,-0.03 0.11,-0.06 0.11,-0.07 0,-0.01 0.19,-0.14 0.35,-0.22 0.08,-0.04 0.16,-0.1 0.19,-0.13 0.04,-0.04 0.12,-0.1 0.18,-0.15 0.08,-0.05 0.13,-0.09 0.15,-0.13 0.03,-0.08 0.14,-0.11 0.14,-0.03 0,0.5 -0.93,1.36 -1.47,1.36 -0.02,0 -0.04,0.01 -0.05,0.02 -0.02,0.02 -0.32,0.03 -0.45,0.02l0 0zm-0.67 -0.21c0,-0.01 0.01,-0.01 0.01,-0.01 0.01,0 0.01,0 0.01,0.01 0,0 0,0.01 -0.01,0.01 0,0 -0.01,-0.01 -0.01,-0.01zm0.42 0c0,-0.01 0,-0.01 0.01,-0.01 0,0 0.01,0 0.01,0.01 0,0 -0.01,0.01 -0.01,0.01 -0.01,0 -0.01,-0.01 -0.01,-0.01z"/>
 <path fill="#3869E2" d="M0.47 2.91c-0.09,-0.03 -0.2,-0.17 -0.14,-0.17 0.01,0 0.03,-0.03 0.04,-0.05 0.02,-0.05 0.03,-0.05 0.11,-0.05 0.05,0 0.13,-0.01 0.16,-0.02 0.04,-0.01 0.13,-0.02 0.2,-0.03 0.07,-0.01 0.14,-0.02 0.16,-0.03 0.03,-0.01 0.03,-0.01 0.1,0.16 0.03,0.07 0.01,0.12 -0.02,0.09 -0.04,-0.03 -0.14,-0.02 -0.18,0.02 -0.03,0.03 -0.05,0.04 -0.13,0.04 -0.08,0 -0.17,0.02 -0.23,0.05 -0.01,0 -0.04,0 -0.07,-0.01l0 0zm1.26 -0.12c-0.05,-0.01 -0.08,-0.03 -0.1,-0.08 -0.01,-0.02 -0.03,-0.04 -0.06,-0.04 -0.05,-0.01 -0.1,-0.12 -0.07,-0.18 0.02,-0.06 0.04,-0.06 0.11,-0.01 0.06,0.04 0.06,0.04 0.08,-0.01 0.02,-0.04 0.04,-0.05 0.08,-0.05 0.02,0 0.09,-0.01 0.14,-0.01 0.05,0 0.13,-0.01 0.19,-0.01 0.07,0 0.1,0 0.13,-0.03 0.02,-0.02 0.06,-0.03 0.13,-0.03 0.12,0 0.18,-0.03 0.18,-0.08 0.01,-0.06 0.08,-0.08 0.08,-0.02 0,0.02 -0.01,0.05 -0.02,0.07 -0.03,0.06 0.06,0.04 0.1,-0.03 0.03,-0.05 0.05,-0.06 0.09,-0.06 0.08,0 0.19,-0.05 0.21,-0.09 0.02,-0.03 0.05,-0.05 0.07,-0.07 0.03,-0.01 0.07,-0.04 0.09,-0.07 0.02,-0.02 0.06,-0.05 0.08,-0.06 0.03,0 0.04,-0.02 0.04,-0.03 0,-0.02 0.07,-0.1 0.19,-0.22 0.02,-0.02 0.05,-0.03 0.07,-0.03 0.03,0.01 0.04,0 0.05,-0.03 0,-0.02 0.01,-0.05 0.01,-0.08 0.02,-0.05 0.11,-0.13 0.13,-0.09 0.03,0.04 0,0.23 -0.04,0.23 -0.04,0 -0.12,0.09 -0.15,0.17 -0.01,0.04 -0.04,0.07 -0.07,0.09 -0.02,0.01 -0.07,0.05 -0.11,0.08 -0.03,0.04 -0.09,0.09 -0.13,0.13 -0.04,0.04 -0.09,0.09 -0.11,0.11 -0.02,0.03 -0.05,0.04 -0.08,0.04 -0.04,-0.01 -0.09,0.05 -0.09,0.11 0,0.07 -0.04,0.06 -0.09,-0.01 -0.06,-0.1 -0.17,-0.11 -0.17,-0.02 0,0.02 -0.01,0.04 -0.02,0.05 -0.01,0.01 -0.05,0.06 -0.09,0.11 -0.06,0.07 -0.08,0.08 -0.16,0.1 -0.05,0.01 -0.12,0.03 -0.16,0.05 -0.04,0.02 -0.1,0.04 -0.12,0.04 -0.02,0 -0.09,0 -0.16,0 -0.07,0 -0.13,0.01 -0.14,0.03 -0.03,0.03 -0.06,0.04 -0.11,0.03l0 0zm-1.43 -0.17c0,-0.02 0.01,-0.03 0.02,-0.03 0.01,0.01 0.02,0.03 0.02,0.04 0,0.01 -0.01,0.02 -0.02,0.02 -0.01,0 -0.02,-0.01 -0.02,-0.03zm3.32 -1.22c0,-0.01 0,-0.03 0,-0.03 0.02,-0.02 0.03,0 0.02,0.03 0,0.01 -0.01,0.01 -0.02,0z"/>
 <path fill="#3376DA" d="M0.25 2.62c-0.05,-0.15 -0.05,-0.17 -0.02,-0.17 0.01,0 0.02,0.01 0.02,0.02 0,0.1 0.04,0.08 0.08,-0.03 0.01,-0.03 0.06,-0.05 0.06,-0.02 0,0.02 0.22,0.02 0.24,0 0.01,-0.01 0.07,-0.02 0.14,-0.02 0.07,-0.01 0.14,-0.01 0.17,-0.02 0.04,0 0.05,0 0.07,0.08 0.02,0.1 0.02,0.1 -0.11,0.12 -0.05,0 -0.15,0.02 -0.21,0.03 -0.07,0.02 -0.16,0.03 -0.21,0.03 -0.08,0 -0.09,0 -0.11,0.04 -0.04,0.09 -0.06,0.08 -0.12,-0.06l0 0zm0.09 0.01c0,-0.01 -0.01,-0.03 -0.02,-0.04 -0.01,0 -0.02,0.01 -0.02,0.03 0,0.02 0.01,0.03 0.02,0.03 0.01,0 0.02,-0.01 0.02,-0.02zm1.11 -0.19c-0.01,-0.04 -0.03,-0.09 -0.03,-0.11 -0.01,-0.02 0,-0.03 0.04,-0.03 0.03,0 0.07,-0.01 0.1,-0.03 0.05,-0.04 0.09,-0.04 0.27,-0.05 0.17,-0.01 0.23,-0.02 0.28,-0.05 0.04,-0.01 0.09,-0.03 0.11,-0.03 0.02,0 0.12,-0.04 0.27,-0.12 0.06,-0.03 0.21,-0.08 0.27,-0.09 0.03,0 0.08,-0.03 0.11,-0.06 0.02,-0.02 0.08,-0.07 0.12,-0.1 0.05,-0.04 0.09,-0.07 0.09,-0.08 0,-0.01 0.02,-0.01 0.03,-0.01 0.03,0 0.14,-0.12 0.17,-0.18 0.01,-0.03 0.03,-0.06 0.05,-0.08 0.03,-0.02 0.09,-0.11 0.17,-0.28 0.02,-0.03 0.03,-0.08 0.03,-0.1 0,-0.07 0.06,0.02 0.14,0.23 0.06,0.14 0.06,0.14 0.03,0.17 -0.07,0.05 -0.1,0.09 -0.1,0.13 0,0.07 -0.02,0.09 -0.06,0.08 -0.02,0 -0.05,0.01 -0.07,0.03 -0.12,0.12 -0.19,0.2 -0.19,0.22 0,0.01 -0.01,0.03 -0.04,0.03 -0.02,0.01 -0.06,0.04 -0.08,0.06 -0.02,0.03 -0.06,0.06 -0.09,0.07 -0.02,0.02 -0.05,0.04 -0.07,0.07 -0.02,0.04 -0.13,0.09 -0.21,0.09 -0.04,0 -0.06,0.01 -0.09,0.06 -0.04,0.07 -0.13,0.09 -0.1,0.03 0.01,-0.02 0.02,-0.05 0.02,-0.07 0,-0.06 -0.07,-0.04 -0.08,0.02 0,0.05 -0.06,0.08 -0.18,0.08 -0.07,0 -0.11,0.01 -0.13,0.03 -0.03,0.03 -0.06,0.03 -0.13,0.03 -0.06,0 -0.14,0.01 -0.19,0.01 -0.05,0 -0.12,0.01 -0.14,0.01 -0.04,0 -0.06,0.01 -0.08,0.05 -0.02,0.05 -0.02,0.05 -0.08,0.01 -0.06,-0.04 -0.1,-0.05 -0.1,-0.03 0,0.07 -0.04,0.07 -0.06,-0.01l0 0zm2.19 -1.07c-0.02,-0.02 -0.03,0 -0.02,0.03 0.01,0.01 0.02,0.01 0.02,0 0.01,-0.01 0.01,-0.03 0,-0.03zm-3.4 1.06c0,-0.01 0,-0.01 0.01,-0.01 0,0 0,0 0,0.01 0,0 0,0.01 0,0.01 -0.01,0 -0.01,-0.01 -0.01,-0.01zm2.45 -0.05c0,-0.01 0.01,-0.03 0.03,-0.04 0.02,-0.03 0.02,-0.02 0,0.01 -0.01,0.01 -0.03,0.03 -0.03,0.04 0,0 0,0 0,-0.01zm0.07 -0.07c0.01,-0.01 0.02,-0.01 0.02,0 0.01,0.01 0,0.01 -0.01,0.01 -0.01,0 -0.02,0 -0.01,-0.01z"/>
 <path fill="#5736F1" d="M1.12 3.58c-0.07,-0.03 -0.16,-0.09 -0.2,-0.12 -0.04,-0.04 -0.08,-0.06 -0.09,-0.06 0,0 -0.06,-0.06 -0.13,-0.14 -0.08,-0.08 -0.1,-0.12 -0.08,-0.11 0.03,0.01 0.07,0.01 0.17,-0.01 0.08,-0.02 0.2,-0.03 0.29,-0.03 0.13,0 0.15,0 0.16,-0.03 0.01,-0.04 0.04,-0.04 0.09,0 0.02,0.01 0.07,0.03 0.1,0.03 0.04,0 0.09,0.02 0.12,0.03 0.14,0.08 0.56,0.05 0.75,-0.05 0.09,-0.04 0.11,-0.04 0.12,-0.02 0.01,0.01 0.03,0.01 0.04,0.01 0.03,-0.01 0.03,-0.02 0.01,-0.04 -0.02,-0.02 0,-0.04 0.04,-0.04 0.02,0 0.04,-0.01 0.05,-0.02 0.01,-0.02 0.06,-0.03 0.11,-0.04 0.05,-0.01 0.08,-0.02 0.09,-0.04 0,-0.01 0.05,-0.04 0.12,-0.06 0.11,-0.04 0.2,-0.09 0.2,-0.12 0,-0.02 0.07,-0.07 0.16,-0.12 0.05,-0.03 0.14,-0.09 0.2,-0.15 0.08,-0.09 0.12,-0.11 0.14,-0.1 0.03,0.01 0.03,0 0.03,-0.06 0,-0.07 0.01,-0.07 0.03,-0.05 0.05,0.04 0.06,0.04 0.06,-0.02 0,-0.05 0.05,-0.11 0.07,-0.08 0.01,0.02 0,0.18 -0.02,0.23 0,0.01 -0.01,0.01 -0.03,-0.01 -0.03,-0.03 -0.08,0 -0.11,0.07 -0.02,0.04 -0.07,0.08 -0.15,0.13 -0.06,0.05 -0.14,0.11 -0.18,0.15 -0.03,0.03 -0.11,0.09 -0.19,0.13 -0.16,0.08 -0.35,0.21 -0.35,0.22 0,0.01 -0.05,0.04 -0.11,0.07 -0.06,0.04 -0.12,0.08 -0.13,0.1 -0.02,0.03 -0.03,0.04 -0.17,0.06 -0.03,0.01 -0.08,0.03 -0.1,0.05 -0.02,0.03 -0.06,0.05 -0.09,0.06 -0.16,0.04 -0.26,0.07 -0.3,0.08 -0.02,0.01 -0.09,0.03 -0.15,0.04 -0.12,0.02 -0.17,0.06 -0.08,0.06 0.03,0 0.05,0.01 0.06,0.02 0.01,0.03 -0.07,0.04 -0.1,0.02 -0.01,-0.01 -0.02,-0.02 -0.02,-0.02 -0.01,0 -0.03,-0.01 -0.06,-0.02 -0.09,-0.03 -0.18,-0.02 -0.18,0.03 0,0.05 -0.06,0.04 -0.19,-0.03zm0.43 0.01c0,-0.01 -0.01,-0.01 -0.01,-0.01 -0.01,0 -0.01,0 -0.01,0.01 0,0 0,0.01 0.01,0.01 0,0 0.01,-0.01 0.01,-0.01z"/>
 </g>
 </svg>
