<svg xmlns="http://www.w3.org/2000/svg" viewBox="0 0 24 24" fill="currentColor">
  <path d="M20.76 3.24C20.18 2.66 19.34 2.34 18.5 2.34H5.5c-.84 0-1.68.32-2.26.9-.58.58-.9 1.42-.9 2.26v13c0 .84.32 1.68.9 2.26.58.58 1.42.9 2.26.9h13c.84 0 1.68-.32 2.26-.9.58-.58.9-1.42.9-2.26V5.5c0-.84-.32-1.68-.9-2.26zm-2.26.76v16H5.5V4h13zm-3-1.5a1 1 0 0 1 1 1v1.5H7.5V3.5a1 1 0 0 1 1-1h7zm0 16a1 1 0 0 1-1 1H8.5a1 1 0 0 1-1-1V18.5h9v1.5z"/>
  <circle cx="10" cy="8" r="2"/>
  <circle cx="14" cy="8" r="2"/>
  <path d="M16 12H8l1 2h6l1-2z"/>
</svg>