<svg xmlns="http://www.w3.org/2000/svg" width="32" height="32" viewBox="0 0 3.86 3.86">
 <g>
 <g fill-rule="nonzero"><path fill="#86D239" d="M2.14 0.54c0,0 0.01,0 0.01,0 0,0 0,0 0,0 -0.01,0 -0.01,0 -0.01,0zm-0.11 -0.04c-0.01,0 -0.03,-0.01 -0.05,-0.01 -0.01,0 -0.04,-0.01 -0.06,-0.01 -0.03,-0.01 -0.1,-0.03 -0.16,-0.05 -0.13,-0.03 -0.12,-0.02 -0.08,-0.1 0.14,-0.3 0.34,-0.34 0.5,-0.1 0.05,0.06 0.1,0.17 0.08,0.17 0,0 0,0.01 0,0.01 0,0 -0.01,0.01 -0.03,0.01 -0.06,0.01 -0.08,0.02 -0.06,0.04 0,0 -0.01,0 -0.02,0.01 -0.02,0 -0.03,0 -0.03,0.02 -0.01,0 -0.02,0.01 -0.03,0.01 -0.01,0.01 -0.02,0.01 -0.02,0.01 -0.01,0 -0.02,0 -0.04,-0.01zm0.26 -0.04c0,0 0,0 0,0 0,0 0,0 0,0 0,0 0,0 0,0 0,0 0,0 0,0zm-0.02 -0.05c0,0 0,0 0,0 0,0 0,0 0,0 0,0 0,0.01 0,0.01 0,0 0,-0.01 0,-0.01zm-0.9 -0.06c0,0 -0.03,0 -0.07,-0.01 -0.09,-0.01 -0.09,-0.01 -0.07,-0.03 0.07,-0.07 0.24,-0.16 0.39,-0.21 0.08,-0.02 0.09,-0.02 0.04,0.01 -0.08,0.05 -0.17,0.12 -0.25,0.22 -0.02,0.02 -0.03,0.03 -0.04,0.02l0 0zm1.16 -0.03c0,0 0,-0.01 0.01,-0.01 0,0 0,0.01 0,0.01 0,0 0,0 0,0 -0.01,0 -0.01,0 -0.01,0zm-0.08 -0.08c-0.07,-0.06 -0.12,-0.1 -0.18,-0.14 -0.03,-0.02 -0.01,-0.02 0.05,0.01 0.16,0.05 0.32,0.14 0.26,0.14 -0.01,0 -0.01,0 -0.02,0.01 0,0.01 -0.02,0.02 -0.04,0.01 0,0 -0.01,0.01 0,0.01 0,0.02 -0.01,0.02 -0.07,-0.04l0 0zm0.1 -0.01c0,0 0,0 -0.01,0 0,0 0,0 0,0 0,0.01 0,0.01 0,0.01 0.01,0 0.01,0 0.01,-0.01zm0.06 0.03c0,-0.01 0,-0.01 0,-0.01 0,0.01 0,0.01 0,0.01 0,0 0,0 0,0z"/>
 <path fill="#21D495" d="M1.91 3.29c-0.01,-0.02 -0.2,-0.69 -0.2,-0.72 0,-0.01 0.02,-0.01 0.11,-0.02 0.05,-0.01 0.12,-0.01 0.15,-0.02 0.11,-0.02 0.23,-0.04 0.24,-0.05 0.03,-0.01 -0.05,0.31 -0.17,0.73 -0.02,0.08 -0.1,0.12 -0.13,0.08l0 0zm-0.14 -0.07c-0.13,-0.14 -0.46,-0.62 -0.44,-0.64 0.01,-0.01 0.15,-0.01 0.16,0 0,0 0.03,0.06 0.06,0.13 0.08,0.18 0.13,0.28 0.2,0.42 0.06,0.11 0.07,0.13 0.07,0.13 0,0 -0.02,-0.02 -0.05,-0.04l0 0zm0.35 0.04c0,0 0.02,-0.05 0.04,-0.1 0.09,-0.16 0.22,-0.42 0.28,-0.58 0.02,-0.05 0.03,-0.05 0.05,-0.05 0.01,0.01 0.03,0.02 0.06,0.02 0.08,0.02 0.07,0.04 -0.12,0.32 -0.12,0.18 -0.31,0.42 -0.31,0.39l0 0zm-0.5 -0.1c-0.16,-0.17 -0.41,-0.49 -0.4,-0.52 0.02,-0.04 0.03,-0.04 0.09,0.06 0.12,0.18 0.18,0.27 0.25,0.36 0.08,0.1 0.12,0.15 0.11,0.15 0,0 -0.02,-0.02 -0.05,-0.05l0 0zm0.65 0.04c0,-0.01 0.05,-0.07 0.1,-0.14 0.12,-0.16 0.14,-0.19 0.23,-0.32 0.09,-0.14 0.14,-0.18 0.14,-0.12 0,0.04 -0.45,0.59 -0.47,0.59 -0.01,0 -0.01,-0.01 0,-0.01zm-1.07 -0.58c0,0 0,-0.01 0,-0.01 0.02,-0.01 0.02,-0.01 0.02,0 0,0.01 -0.02,0.02 -0.02,0.01z"/>
 <path fill="#58CF4B" d="M1.21 2.63c-0.01,-0.01 -0.01,-0.01 0,-0.01 0,0.01 0.01,0 0.01,0 0,-0.02 0,-0.02 -0.02,-0.01 -0.01,0 -0.05,-0.04 -0.04,-0.05 0.02,-0.01 0.06,0 0.08,0.02 0.01,0.03 -0.02,0.08 -0.03,0.05zm0.05 0c0,0 0,0 0.01,0 0,0 0,0 0,0 0,0.01 0,0.01 0,0.01 -0.01,0 -0.01,0 -0.01,-0.01zm0.06 -0.05c0,-0.01 0.01,-0.01 0.03,-0.01 0.01,0 0.01,0.01 -0.01,0.01 -0.01,0 -0.02,0 -0.02,0l0 0zm0.07 -0.01c0.01,0 0.01,0 0.01,0 0,0.01 0,0.01 0,0.01 -0.01,0 -0.01,0 -0.01,-0.01zm-0.27 -0.07c-0.06,-0.08 -0.25,-0.42 -0.24,-0.43 0,0 0.05,0.01 0.08,0.03 0,0 0.03,0.04 0.05,0.08 0.02,0.05 0.07,0.14 0.11,0.21 0.07,0.13 0.08,0.15 0.06,0.13 0,0 -0.01,0 -0.02,0 -0.02,0.01 -0.01,0.01 -0.04,-0.02l0 0zm0.15 -0.04c0,-0.01 -0.02,-0.03 -0.03,-0.04 -0.02,-0.05 -0.13,-0.27 -0.13,-0.27 0,0 0.05,0.01 0.11,0.03 0.05,0.01 0.11,0.03 0.11,0.03 0.02,0.01 0.02,0.01 0.05,0.08 0.02,0.08 0.02,0.09 0,0.08 -0.01,0 -0.02,0 -0.02,0.01 -0.02,0.01 -0.04,0.03 -0.06,0.03 -0.03,0 -0.03,0.02 -0.02,0.05 0,0.02 0,0.02 -0.01,0l0 0zm0.1 -0.09c0,0 0,0 0,0 0,0 0,0 0,0 0,0 0,0.01 0,0.01 0,0 0,-0.01 0,-0.01zm1.94 -1.17c0,0 0,-0.01 0,0 0,0 0,0 0,0.01 0,0 0,0 0,-0.01zm0 -0.01c0,-0.01 0,-0.01 0,-0.01 0,0 0,0 0,0.01 0,0 0,0 0,0 0,0 0,0 0,0zm-0.07 -0.04c0,-0.01 0,-0.01 0.01,-0.01 0,0 0,0.01 0,0.01 -0.01,0 -0.01,0 -0.01,0zm0.01 -0.03c0,-0.02 -0.01,-0.06 -0.02,-0.1 -0.05,-0.32 -0.13,-0.49 -0.33,-0.68 -0.08,-0.06 -0.08,-0.07 -0.01,-0.03 0.27,0.19 0.45,0.53 0.43,0.79 -0.01,0.04 -0.02,0.03 -0.02,-0.02 -0.01,-0.05 -0.02,-0.04 -0.02,0.01 -0.01,0.06 -0.02,0.08 -0.03,0.03l0 0zm-0.21 -0.07c-0.03,-0.03 -0.21,-0.15 -0.25,-0.17 -0.03,-0.02 -0.03,-0.02 -0.03,-0.06 -0.02,-0.06 -0.07,-0.22 -0.11,-0.29 -0.08,-0.15 -0.15,-0.25 -0.31,-0.37 -0.01,-0.02 -0.02,-0.02 -0.01,-0.02 0.02,0.01 0.07,0.05 0.12,0.1 0.06,0.06 0.07,0.06 0.07,0.04 -0.01,0 0,-0.01 0,-0.01 0.02,0.01 0.04,0 0.04,-0.01 0.01,-0.01 0.01,-0.01 0.02,-0.01 0.05,0 -0.1,-0.09 -0.24,-0.14 -0.02,-0.01 -0.04,-0.01 -0.04,-0.02 0,0 0.03,0.01 0.06,0.02 0.4,0.14 0.66,0.47 0.71,0.93 0.01,0.03 0.01,0.03 -0.03,0.01l0 0zm-0.5 -0.73c0,0 0,-0.01 0,-0.01 -0.01,0 -0.01,0.01 -0.01,0.01 0,0 0,0 0.01,0 0,0 0,0 0,0zm0.07 -0.07c0,0 0,0 0,0.01 0,0 0,0 0,0 0,0 0,0 0,-0.01zm-0.27 0.39c-0.01,-0.01 -0.02,-0.01 -0.02,-0.01 -0.01,0 -0.02,0 -0.03,-0.01 -0.04,-0.02 -0.17,-0.07 -0.24,-0.1 -0.04,-0.01 -0.08,-0.03 -0.08,-0.03 -0.01,0 0.03,0 0.06,0.01 0.04,0.02 0.09,0 0.09,-0.02 0,-0.01 0.01,-0.01 0.03,-0.01 0.01,-0.01 0.02,-0.01 0.02,-0.01 -0.02,-0.02 0,-0.03 0.06,-0.04 0.02,0 0.03,-0.01 0.03,-0.01 0,0 0,-0.01 0,-0.01 0.03,0 -0.07,-0.18 -0.14,-0.25 -0.03,-0.02 -0.04,-0.04 -0.03,-0.03 0.04,0.02 0.12,0.13 0.17,0.22 0.05,0.12 0.11,0.34 0.08,0.3l0 0zm-0.19 -0.1c0,0 -0.01,0 -0.01,0 0,0 0,0 0.01,0 0,0 0,0 0,0zm0.14 -0.08c0,0 0,0 0,0 0,0 0,0 0,0 0,0 0,0 0,0 0,0 0,0 0,0zm-0.02 -0.05c0,0 0,0 0,0 0,0 0,0 0,0 0,0 0,0.01 0,0.01 0,0 0,-0.01 0,-0.01zm-0.34 0.07c0,0 0,0 0,0 0,0 0,0 0,0 0,0 0,0 0,0 0,0 0,0 0,0zm-0.03 -0.01c0,0 0,0 0.01,0 0,0 0,0 0,0 0,0.01 0,0.01 0,0.01 -0.01,0 -0.01,0 -0.01,-0.01zm-0.26 -0.07c0,0 0,-0.01 0.01,-0.02 0,-0.01 0.01,-0.01 0.01,-0.01 0,0 -0.01,0.01 -0.01,0.02 -0.01,0.01 -0.01,0.01 -0.01,0.01zm0.02 -0.04c0,-0.01 0.04,-0.09 0.04,-0.09 0.01,0 0,0.02 -0.01,0.04 -0.03,0.05 -0.03,0.06 -0.03,0.05l0 0zm-0.27 -0.01c0,0 0,0 0,0 0.01,0 0.01,0 0.01,0 0,0 0,0.01 -0.01,0.01 0,0 0,-0.01 0,-0.01zm0.02 -0.02c0.01,-0.01 0.01,-0.02 0.02,-0.02 0,0 -0.01,0.01 -0.01,0.02 -0.01,0.01 -0.02,0.01 -0.02,0.01 0,0 0,0 0.01,-0.01zm-0.19 -0.01c0,-0.01 0.01,-0.01 0.01,-0.01 0.01,-0.01 0.01,-0.01 0,0 0,0.01 -0.01,0.01 -0.01,0.01zm-0.16 -0.01c0,-0.01 0.04,-0.04 0.05,-0.03 0,0 -0.01,0.01 -0.02,0.02 -0.02,0.01 -0.03,0.02 -0.03,0.01zm0.43 -0.06c0.02,-0.03 0.05,-0.05 0.05,-0.05 0,0 -0.02,0.02 -0.05,0.05 -0.03,0.02 -0.05,0.04 -0.05,0.04 0,0 0.02,-0.02 0.05,-0.04zm-0.22 0.03c0,-0.01 0,-0.01 0,-0.01 0,0 0,0 0,0.01 0,0 0,0 0,0 -0.01,0 -0.01,0 0,0zm0.01 -0.01c0,0 0.01,-0.01 0.01,-0.01 0.01,-0.01 0.01,-0.01 0,0 0,0.01 -0.01,0.01 -0.01,0.01zm0.43 -0.01c0,-0.01 0.01,-0.01 0.01,-0.01 0,0 0,0 0,0.01 -0.01,0 -0.01,0 -0.01,0 0,0 0,0 0,0zm-0.4 -0.01c0,-0.01 0,-0.01 0.01,-0.01 0,0 0,0 -0.01,0.01 0,0 0,0 0,0 0,0 0,0 0,0zm0.42 -0.02c0,0 0.01,-0.01 0.01,-0.01 0,0 0,0 -0.01,0.01 -0.01,0.02 -0.01,0.02 0,0zm0.81 0c0,0 0,0 0,0 0.01,0 0.01,0 0.01,0 0,0.01 0,0.01 -0.01,0.01 0,0 0,0 0,-0.01zm-1.21 0c0.01,-0.01 0.01,-0.01 0.01,-0.01 0,0 0,0 0,0.01 0,0 -0.01,0 -0.01,0 0,0 0,0 0,0zm0.02 -0.01c0,0 0,0 0,0 0,0 0,0 0,0 0,0 0,0 0,0 0,0 0,0 0,0zm0.02 -0.01c0,-0.01 0,-0.01 0,-0.01 0,0 0,0 0,0.01 0,0 0,0 0,0 0,0 0,0 0,0zm0.38 -0.01c0.01,-0.01 0.02,-0.02 0.02,-0.02 0,0 0,0.01 -0.01,0.02 -0.01,0 -0.01,0.01 -0.01,0.01 -0.01,0 0,-0.01 0,-0.01zm-0.37 0c0,0 0,0 0,0 0,0 0,0 0,0 0,0 0,0 0,0 0,0 0,0 0,0zm0.17 -0.02c0.01,0 0.01,-0.01 0.02,-0.01 0,0 -0.01,0.01 -0.01,0.01 -0.01,0.01 -0.01,0.02 -0.02,0.02 0,0 0.01,-0.01 0.01,-0.02zm-0.15 0.01c0,0 0,-0.01 0,-0.01 0,0 0,0.01 0,0.01 0,0 0,0 0,0 0,0 0,0 0,0zm0.01 -0.01c0,0 0,0 0,0 0,0 0.01,0 0.01,0 0,0 -0.01,0 -0.01,0 0,0 0,0 0,0zm0.01 0c0,-0.01 0,-0.01 0,-0.01 0.01,0 0.01,0 0.01,0.01 0,0 0,0 -0.01,0 0,0 0,0 0,0zm0.01 -0.01c0,0 0.01,0 0.01,0 0,0 0,0 0,0 0,0 0,0 0,0 0,0 -0.01,0 -0.01,0zm0.14 0c0,0 0.01,-0.01 0.01,-0.01 0.01,-0.01 0.01,-0.01 0.01,0 -0.01,0.01 -0.02,0.02 -0.02,0.01zm-0.12 -0.01c0,0 0,0 0,0 0,0 0,0 0,0 0,0 0,0.01 0,0.01 0,0 0,-0.01 0,-0.01zm0.01 0c0,0 0,-0.01 0,-0.01 0,0 0,0.01 0,0.01 0,0 0,0 0,0 0,0 0,0 0,0zm0.33 0c0,0 0,-0.01 0.01,-0.01 0.01,-0.01 0.01,-0.01 0,0 -0.01,0.01 -0.01,0.01 -0.01,0.01zm-0.31 -0.01c0,0 0,0 0,0 0,0 0,0 0,0 0,0 0,0 0,0 0,0 0,0 0,0zm0.01 0c0,-0.01 0,-0.01 0,-0.01 0,0 0,0 0,0.01 0,0 0,0 0,0 0,0 0,0 0,0zm0.01 -0.01c0,0 0.01,0 0.01,0 0,0 0,0 0,0 -0.01,0 -0.01,0 -0.01,0zm0.02 -0.01c0,0 0,0 0,0 0,0 0,0 0,0 0,0 0,0.01 0,0.01 0,0 0,-0.01 0,-0.01zm0.77 -0.01c-0.04,-0.02 -0.04,-0.03 -0.01,-0.01 0.01,0 0.03,0.01 0.03,0.02 0.01,0.01 0.01,0.01 -0.02,-0.01zm-0.76 0.01c0,0 0,-0.01 0,-0.01 0.01,0 0.01,0.01 0.01,0.01 0,0 0,0 -0.01,0 0,0 0,0 0,0zm0.1 0c0,0 0,-0.01 0,-0.01 0,0 0,0.01 0,0.01 0,0 0,0 0,0 0,0 0,0 0,0zm0.2 -0.01c0,0 0.02,-0.02 0.02,-0.01 0,0 0,0 -0.01,0.01 -0.01,0.01 -0.02,0.01 -0.01,0l0 0zm-0.19 0c0.01,-0.01 0.01,-0.01 0.01,-0.01 0,0 0,0 0,0.01 0,0 -0.01,0 -0.01,0 0,0 0,0 0,0zm0.02 -0.01c0,0 0,0 0,0 0,0 0,0 0,0 0,0 0,0 0,0 0,0 0,0 0,0zm0.4 -0.01c0,0 0,0 0.01,0 0,0 0,0.01 0,0.01 0,0 0,0 -0.01,-0.01l0 0zm-0.46 0c0,0 0.01,0 0.01,0 0,0 0,0.01 -0.01,0.01 0,0 0,-0.01 0,-0.01zm0.02 0c0,-0.01 0,-0.01 0.01,0 0,0 0,0 -0.01,0 0,0 0,0 0,0zm0.06 0c0,-0.01 0,-0.01 0,-0.01 0,0 0,0 0,0.01 0,0 0,0 0,0 0,0 0,0 0,0zm0.36 -0.01c-0.01,0 -0.02,-0.01 -0.01,-0.01 0,0 0.01,0.01 0.02,0.01 0.01,0.01 0.01,0.01 -0.01,0l0 0zm-0.4 0c0,0 0.01,0 0.01,0 0,0 0,0 -0.01,0 0,0 -0.01,0 0,0l0 0zm0.05 -0.01c0,0 0.01,0 0.01,0 0.01,0 0.01,0 0.01,0 0,0 0,0 -0.01,0.01 -0.01,0 -0.01,0 -0.01,-0.01zm0.54 0c-0.01,-0.01 0.01,-0.01 0.04,0 0.03,0.01 0.03,0.01 0,0.01 -0.02,0 -0.03,0 -0.04,-0.01l0 0zm-0.57 0c0,0 0.01,0 0.01,0 0,0 0,0 0,0 0,0.01 0,0.01 0,0.01 0,0 -0.01,0 -0.01,-0.01zm0.24 0c0,0 0.01,0 0.01,0 0.01,0 0.01,0 0,0 -0.02,0.01 -0.02,0.01 -0.01,0zm0.11 0c0,0 0,0 0,0 0,0 0,0 0,0 0,0 0,0 0,0 0,0 0,0 0,0zm-0.07 -0.01c0.01,0 0.03,0 0.04,0 0.01,0 0.01,0 -0.02,0 -0.02,0 -0.03,0 -0.02,0l0 0z"/>
 <path fill="#5DC625" d="M0.66 1.22c0,-0.04 -0.01,-0.04 -0.02,-0.01 -0.02,0.02 -0.02,-0.15 -0.01,-0.24 0.04,-0.24 0.18,-0.47 0.38,-0.62 0.06,-0.05 0.07,-0.05 0.01,0.01 -0.21,0.2 -0.32,0.47 -0.32,0.78 0,0.03 -0.01,0.05 -0.01,0.05 0,-0.01 -0.02,0 -0.02,0.02 0,0 0,0.01 0,0.01 -0.01,0 -0.01,0 -0.01,0l0 0zm0.21 -0.2c0,-0.13 0.09,-0.38 0.2,-0.53 0.04,-0.05 0.15,-0.17 0.15,-0.17 0,0.01 0.04,0.01 0.08,0.02 0.04,0.01 0.07,0.01 0.08,0.01 0,0 -0.01,0.03 -0.04,0.06 -0.07,0.11 -0.13,0.26 -0.17,0.42 -0.01,0.03 -0.01,0.04 -0.02,0.04 0,-0.01 -0.01,-0.02 -0.01,-0.01 0,0 -0.01,0.02 -0.02,0.03 -0.02,0.01 -0.02,0.01 -0.02,-0.01 0,-0.02 0,-0.02 -0.01,-0.01 -0.01,0.01 -0.01,0.02 0,0.02 0.01,0 0,0.01 -0.02,0.01 -0.01,0 -0.02,0.01 -0.02,0.01 0.01,0 0.01,0.01 0.02,0.01 0.01,0 0.02,0 0.02,0 0,0.01 -0.08,0.02 -0.09,0.01 0,0 -0.01,0.01 -0.01,0.02 0,0.02 -0.01,0.02 -0.04,0.02 -0.02,0.01 -0.03,0.01 -0.03,0.02 0,0 0,0 -0.02,0 -0.01,0 -0.01,0 -0.01,0.01 -0.01,0.03 -0.02,0.04 -0.02,0.02l0 0zm0.27 -0.18c0,-0.01 0,-0.01 -0.01,-0.01 0,0 0,0 0,0.01 0,0 0,0 0.01,0 0,0 0,0 0,0zm0.02 -0.01c0,0 0,0 0,0 0,0 -0.01,0 -0.01,0 0,0 0.01,0.01 0.01,0.01 0,0 0,-0.01 0,-0.01zm1.16 -0.19c0,-0.01 0,-0.01 0,-0.01 0,0 0.01,0 0.01,0.01 0.01,0 0,0 -0.01,0zm-0.73 -0.04c0,0 0,-0.01 0.01,0 0,0 0,0.01 0,0.01 -0.01,0.01 -0.01,0 -0.01,-0.01zm0.68 0.01c0,0 0.01,0 0.01,0 0,0.01 0,0.01 -0.01,0.01 0,0 0,0 0,-0.01zm-0.02 0c0,-0.01 0.01,-0.01 0.01,0 0,0 0,0 0,0 -0.01,0 -0.01,0 -0.01,0zm-0.01 -0.01c0,0 0,0 0,0 0,0 0,0 0,0 0,0 0,0 0,0 0,0 0,0 0,0zm-0.01 0c0,-0.01 0,-0.01 0,-0.01 0,0 0,0 0,0.01 0,0 0,0 0,0 0,0 0,0 0,0zm-0.03 -0.01c0,-0.01 -0.01,-0.01 0,-0.01 0,0 0.01,0 0.01,0.01 0.01,0 0.01,0 0.01,0 -0.01,0 -0.01,0 -0.02,0zm-0.05 -0.02c-0.16,-0.06 -0.39,-0.12 -0.39,-0.1 0,0.02 -0.02,0.04 -0.03,0.02 0,0 -0.02,-0.01 -0.02,-0.01 -0.01,0 -0.02,0 -0.03,0 0,-0.01 0,-0.01 -0.01,0 0,0 0,0.01 -0.01,0.01 0,0.01 -0.01,0.02 -0.01,0.03 0,0.01 -0.01,0.02 -0.01,0.02 -0.01,-0.01 -0.01,0 -0.02,0.01 -0.02,0.01 -0.02,0.01 0.01,-0.1 0.01,-0.01 0.01,-0.03 0.01,-0.03 0,-0.02 -0.01,-0.02 0.12,0.01 0.14,0.04 0.36,0.11 0.41,0.14 0.03,0.01 0.02,0.01 -0.02,0l0 0zm-0.49 -0.12c0,0 0,0 0,0 -0.01,0 -0.01,0 -0.01,0 0,0 0,0 0.01,0 0,0 0,0 0,0zm-0.05 -0.31c0,0 0,0 0,0 0.01,0 0.01,0 0,0 0,0.01 0,0.01 0,0.01 -0.01,0 0,0 0,-0.01zm-0.06 -0.02c0,0 0,0 0,0 0,0 0.01,0 0.01,0 0,0 -0.01,0 -0.01,0 0,0 0,0 0,0zm0.02 -0.01c0,0 0,0 0,0 0,0 0,0 0,0 0,0.01 0,0.01 0,0.01 0,0 0,0 0,-0.01zm0.02 0c0,0 0,0 0,0 0,0 0,0 0,0 0,0 0,0 0,0 0,0 0,0 0,0zm0.28 -0.01c0,-0.01 0,-0.01 0,-0.01 0,0 0,0 0,0.01 0,0 0,0 0,0 0,0 0,0 0,0zm0.01 -0.01c0,0 0,0 0,0 0,0 0,0 0,0 0,0 0,0 0,0 0,0 0,0 0,0z"/>
 <path fill="#1ECC5E" d="M1.52 3.05c0,0 0,0 0,0 0,0 0,0 0,0 0,0 0,0 0,0 0,0 0,0 0,0zm0.1 -0.01c0,0 0,0 0.01,0 0,0 0,0 0,0 0,0 0,0.01 0,0.01 -0.01,0 -0.01,-0.01 -0.01,-0.01zm-0.08 0c0,-0.01 0,-0.01 0.01,-0.01 0,0 0,0 0,0.01 0,0 0,0 0,0 -0.01,0 -0.01,0 -0.01,0zm-0.06 -0.03c0,-0.01 0,-0.01 0.01,-0.01 0,0 0,0 0,0.01 0,0 0,0 0,0 -0.01,0 -0.01,0 -0.01,0zm0.11 -0.02c0,0 0,0 0,0 0,0 0,0 0,0 0,0.01 0,0.01 0,0.01 0,0 0,0 0,-0.01zm-0.08 0c0,0 0,-0.01 0,-0.01 0,0 0,0.01 0,0.01 0,0 0,0 0,0 0,0 0,0 0,0zm-0.02 -0.02c0,0 0.01,0 0.01,0 0,0 0,0 0,0 0,0 0,0 0,0 0,0 -0.01,0 -0.01,0zm-0.06 -0.03c0,0 0,0 0,0 0.01,0 0.01,0.01 0.01,0.01 0,0 -0.01,0 -0.01,-0.01l0 0zm0.03 -0.01c0,0 0.01,-0.01 0.01,-0.01 0,0 0,0.01 0,0.01 0,0 0,0 0,0 0,0 -0.01,0 -0.01,0zm-0.06 -0.02c0,0 0,0 0.01,0 0,0 0,0 0,0 0,0 0,0 0,0 -0.01,0 -0.01,0 -0.01,0zm0.12 0c0,0 0.01,0 0.01,0 0,0 0,0 0,0 0,0 0,0 0,0 0,0 -0.01,0 -0.01,0zm0.11 -0.01c0,0 0.01,0 0.01,0 0,0 0,0 0,0 0,0 0,0.01 0,0.01 0,0 -0.01,-0.01 -0.01,-0.01zm0 -0.01c0,0 0,0 0,0 0,0 0,0 0,0 0,0 0,0 0,0 0,0 0,0 0,0zm-0.2 -0.01c0,0 0.01,0 0.01,0 0,0 0,0 0,0 0,0.01 0,0.01 0,0.01 0,0 -0.01,0 -0.01,-0.01zm0.19 0c0,0 0,0 0.01,0 0,0 0,0 0,0 0,0 0,0 0,0 -0.01,0 -0.01,0 -0.01,0zm-0.16 -0.06c0,0 0.01,-0.01 0.01,-0.01 0,0 0,0.01 0,0.01 0,0 0,0 0,0 0,0 -0.01,0 -0.01,0zm0.3 -0.04c0,0 0,0 0.01,0 0,0 0,0 0,0 0,0 0,0 0,0 -0.01,0 -0.01,0 -0.01,0zm0 -0.02c0,-0.01 0,-0.01 0,-0.01 0,0 0,0 0,0.01 0,0 0,0 0,0 0,0 0,0 0,0zm-0.34 -0.01c0,0 0,0 0,0 0.01,0 0.01,0 0.01,0 0,0 0,0 -0.01,0 0,0 0,0 0,0zm1.3 -0.14c-0.01,0 -0.02,-0.01 -0.02,-0.01 0,-0.01 0.03,-0.05 0.06,-0.1 0.02,-0.04 0.06,-0.11 0.08,-0.15 0.04,-0.06 0.04,-0.06 0.07,-0.08 0.06,-0.03 0.06,-0.03 -0.01,0.1 -0.13,0.21 -0.16,0.25 -0.18,0.24l0 0zm-1.23 -0.03c-0.01,-0.01 -0.05,-0.01 -0.09,-0.01 -0.07,0 -0.08,0 -0.09,-0.01 0,-0.01 -0.02,-0.04 -0.03,-0.07 -0.02,-0.03 -0.03,-0.05 -0.02,-0.05 0,0 0.01,0.01 0.01,0.02 0.01,0.02 0.01,0.02 0.01,0.01 -0.01,-0.05 -0.01,-0.06 0.01,-0.06 0.03,0 0.05,-0.02 0.06,-0.03 0.01,-0.01 0.02,-0.01 0.03,-0.01 0.01,0 0.02,0 0.02,0 0,-0.01 0.02,0.03 0.04,0.08 0.02,0.05 0.04,0.1 0.04,0.11 0.02,0.02 0.02,0.03 0.01,0.02l0 0zm-0.12 -0.21c0,0 0,0 0,0 0,0 0,0 0,0 0,0 0,0.01 0,0.01 0,0 0,-0.01 0,-0.01zm1.18 0.18c-0.09,-0.02 -0.08,-0.01 -0.06,-0.08 0.03,-0.06 0.03,-0.06 0.1,-0.08 0.04,-0.02 0.08,-0.03 0.1,-0.04 0.02,-0.01 0.03,-0.01 0.03,0 0,0.01 -0.11,0.22 -0.11,0.22 0,0 -0.03,-0.01 -0.06,-0.02l0 0zm-1.41 -0.02c-0.02,-0.03 -0.02,-0.03 -0.01,-0.02 0.01,0.02 0.02,0.02 0.03,0.01 0.01,0 0.01,0 0.02,0 0.01,0.01 0.01,0.01 0.01,0 -0.01,-0.02 0,-0.01 0.01,0.01 0.02,0.03 0.02,0.03 -0.02,0.03 -0.02,0 -0.03,-0.01 -0.04,-0.03l0 0zm0.57 0.03c0,-0.01 -0.01,-0.06 -0.02,-0.13 -0.02,-0.07 -0.03,-0.12 -0.03,-0.13 0,-0.01 0.01,0 0.06,0.01 0.13,0.03 0.23,0.06 0.32,0.09 0.05,0.01 0.11,0.03 0.12,0.03 0.12,0.04 0.09,0.05 -0.19,0.1 -0.1,0.02 -0.26,0.03 -0.26,0.03l0 0zm-0.53 -0.06c0,0 0,0 0,0 0,0 0,0 0,0 0,0 0,0 0,0 0,0 0,0 0,0zm-0.01 -0.01c0,0 0,0 0,0 0.01,0 0.01,0 0.01,0 0,0 0,0 -0.01,0 0,0 0,0 0,0zm0 -0.01c0,-0.01 0,-0.01 0,-0.01 0,0 0,0 0,0.01 0,0 0,0 0,0 0,0 0,0 0,0zm-0.02 -0.02c0,0 0.01,0 0.01,0 0,0 0,0 0,0 0,0 0,0 0,0 0,0 -0.01,0 -0.01,0zm0 -0.01c0,-0.01 0,-0.01 0,-0.01 0,0 0,0 0,0.01 0,0 0,0 0,0 0,0 0,0 0,0zm0.09 -0.02c0,0 0.01,-0.01 0.01,-0.01 0,0 0,0.01 0,0.01 0,0 0,0 0,0 0,0 -0.01,0 -0.01,0zm-0.01 -0.03c0,-0.01 0,-0.01 0.01,0 0,0 0,0.01 0,0.01 0,0.01 0,0.01 -0.01,-0.01l0 0zm0.16 -0.05c0,-0.01 0,-0.01 0.01,-0.01 0,0 0,0.01 0,0.01 -0.01,0 -0.01,0 -0.01,0zm-0.01 -0.03c0,0 0.01,0 0.01,0 0,0 0,0 0,0 0,0.01 0,0.01 0,0.01 0,0 -0.01,0 -0.01,-0.01zm0 -0.01c0,-0.01 0,-0.01 0,-0.01 0,0 0,0 0,0.01 0,0 0,0 0,0 0,0 0,0 0,0zm-0.03 -0.09c0,0 0,0 0,0 0,0 0,0 0,0 0,0 0,0 0,0 0,0 0,0 0,0zm-0.02 -0.01c0,0 0.01,0 0.01,0 0,0 0,0 -0.01,0 0,0 -0.01,0 0,0l0 0zm-0.04 -0.01c0,-0.01 0,-0.01 0,-0.01 0,0 0,0 0,0.01 0,0 0,0 0,0 0,0 0,0 0,0zm1.98 -0.94c-0.04,-0.04 -0.04,-0.04 -0.04,-0.14 0,-0.06 0,-0.08 0.01,-0.06 0.01,0.09 0.02,0.09 0.02,0.08 0.01,0 0.01,-0.02 0.02,-0.05 0,-0.05 0.01,-0.06 0.02,-0.01 0,0.04 0.01,0.07 0.01,0.04 0,-0.01 0.01,-0.02 0.01,-0.02 0.01,0.01 0,0.19 -0.01,0.19 0,0 -0.02,-0.01 -0.04,-0.03l0 0zm0.04 -0.06c0,-0.01 0,0 0,0 0,0.01 0,0.01 0,0.01 0,-0.01 0,-0.01 0,-0.01zm0 -0.01c0,-0.01 0,-0.01 0,-0.01 0,0 0,0 0,0.01 0,0 0,0 0,0 0,0 0,0 0,0zm-0.06 -0.05c-0.01,0 -0.01,0 -0.01,0.01 0,0 0,0 0.01,0 0,0 0,-0.01 0,-0.01zm-0.2 -0.09c-0.02,-0.01 -0.02,-0.01 -0.01,-0.01 0,0.01 0.02,0.02 0.02,0.02 0.01,0.01 0.02,0.01 0.01,0.01 0,0 -0.01,-0.01 -0.02,-0.02zm0.27 -0.02c0,-0.01 0,-0.01 0,-0.01 0,0.01 0,0.01 0,0.02 0,0 -0.01,-0.01 0,-0.01l0 0zm-0.32 -0.01c0,-0.01 0,-0.01 0.01,0 0,0 0.01,0.01 0.01,0.01 0,0 -0.01,0 -0.02,-0.01zm0.31 -0.04c0,0 0,0 0,0 0,0 0,0 0,0.01 0,0 0,0 0,-0.01zm-0.01 -0.04c0,0 0,0 0.01,0 0,0 0,0 0,0 0,0 0,0.01 0,0.01 -0.01,0 -0.01,-0.01 -0.01,-0.01zm-0.25 -0.02c0,0 0,0 0.01,0 0,0 0,0 0,0 0,0.01 0,0.01 0,0.01 -0.01,0 -0.01,0 -0.01,-0.01zm0.25 -0.01c0,0 0,0 0,0 0,0 0,0 0,0 0,0 0,0.01 0,0.01 0,0 0,-0.01 0,-0.01z"/>
 <path fill="#4AB725" d="M0.89 2.1c0,0 0,0 0,0 0,0 0,0 0,0 0,0 0,0 0,0 0,0 0,0 0,0zm0.07 0c0,-0.01 0,-0.01 0,-0.01 0.01,0.01 0.01,0.01 0.01,0.01 0,0 -0.01,0 -0.01,0l0 0zm-0.09 -0.03c0,0 0,0 0.01,0 0,0 0,0 0,0 0,0 0,0 0,0 -0.01,0 -0.01,0 -0.01,0zm-0.12 -0.29c0,-0.01 0,-0.01 0,-0.02 0,-0.01 0,-0.01 0,-0.01 0.01,0.01 0.01,0.01 0.01,0.02 0,0.01 -0.01,0.01 -0.01,0.01zm0.07 -0.02c-0.01,0 0,-0.01 0,-0.01 0,0 0,0 0,0.01 0,0.02 0,0.02 0,0l0 0zm-0.1 -0.06c0,-0.01 0,-0.02 0,-0.03 0,0 -0.01,-0.02 -0.01,-0.03 -0.01,-0.01 -0.01,-0.02 -0.01,-0.02 0.01,0 0.01,0 0.01,0 0,0.01 0,0 0,-0.01 0.01,-0.02 0,-0.03 -0.01,-0.01 0,0.02 -0.01,-0.01 -0.04,-0.11 -0.11,-0.45 -0.03,-0.81 0.27,-1.09 0.04,-0.03 0.13,-0.1 0.13,-0.1 0,0.01 0,0.01 0,0.01 -0.24,0.17 -0.39,0.39 -0.43,0.66 -0.01,0.09 -0.01,0.26 0.01,0.24 0.01,-0.03 0.02,-0.03 0.02,0.01 0,0 0,0 0.01,0 0,0 0,-0.01 0,-0.01 0,-0.02 0.02,-0.03 0.02,-0.02 0,0 0.01,-0.02 0.01,-0.05 0,-0.26 0.08,-0.5 0.23,-0.69 0.04,-0.05 0.14,-0.14 0.15,-0.14 0,0 -0.01,0.01 -0.03,0.03 -0.23,0.2 -0.35,0.51 -0.34,0.83 0.01,0.13 0.05,0.38 0.07,0.45 0.02,0.03 0.02,0.06 0.01,0.06 -0.01,0 -0.02,-0.04 -0.02,-0.06 0,-0.03 -0.01,-0.03 -0.02,0 0,0.01 0,0.03 -0.01,0.03 0,0.01 -0.01,0.02 -0.01,0.04 0,0.03 0,0.03 -0.01,0.01l0 0zm0.02 -0.16c0,0 -0.01,0 -0.01,0 0,0.01 0.01,0.01 0.01,0.01 0,-0.01 0,-0.01 0,-0.01zm0.2 0.13c0,0 0,0 0,0 0.01,0 0.01,0 0.01,0 0,0 0,0.01 -0.01,0.01 0,0 0,-0.01 0,-0.01zm-0.03 -0.09c0,-0.01 0,-0.03 -0.01,-0.04 0,-0.02 -0.02,-0.11 -0.04,-0.18 -0.06,-0.34 0.07,-0.75 0.31,-1 0.07,-0.07 0.07,-0.06 -0.01,0.02 -0.15,0.16 -0.25,0.37 -0.28,0.59 -0.01,0.05 -0.01,0.09 0,0.04 0.01,-0.02 0.01,-0.02 0.02,-0.02 0.02,0 0.02,0 0.02,0 0,-0.01 0.01,-0.01 0.03,-0.02 0.03,0 0.04,0 0.04,-0.02 0,-0.01 0.01,-0.02 0.01,-0.02 0.01,0.01 0.09,0 0.09,-0.01 0,0 -0.01,0 -0.02,0 -0.01,0 -0.01,-0.01 -0.02,-0.01 0,0 0.01,-0.01 0.02,-0.01 0.02,0 0.03,-0.01 0.02,-0.01 -0.01,0 -0.01,-0.01 0,-0.02 0.01,-0.01 0.01,-0.01 0.01,0.01 0,0.02 0,0.02 0.02,0.01 0.01,-0.01 0.02,-0.03 0.02,-0.03 0,-0.01 0.01,0 0.01,0.01 0.01,0 0.01,-0.01 0.02,-0.04 0.05,-0.19 0.17,-0.46 0.22,-0.47 0.01,-0.01 0.01,0 0,0.01 -0.18,0.2 -0.29,0.69 -0.23,1.04 0,0.03 -0.01,0.03 -0.02,0 -0.01,-0.01 -0.04,-0.02 -0.04,0 0,0 0,0 -0.01,0 -0.02,0 -0.02,0.01 -0.02,0.02 0,0.03 -0.05,0.06 -0.1,0.06 -0.06,0 -0.07,0.02 -0.05,0.07 0.01,0.02 0.01,0.04 0,0.04 0,0 0,-0.01 -0.01,-0.02l0 0zm0.12 -0.17c0,0 -0.01,-0.01 -0.01,0 0,0 -0.01,0 -0.01,0 0,0.01 0.01,0.01 0.01,0.01 0,0 0.01,0 0.01,-0.01zm0.14 0.1c0,-0.01 0,-0.01 0,-0.01 0,0.01 0,0.02 0,0.02 0,0 0,0 0,-0.01zm0.38 -0.4c-0.01,-0.02 -0.01,-0.02 -0.01,-0.01 -0.02,0.05 0,-0.31 0.03,-0.45 0.02,-0.11 0.07,-0.27 0.07,-0.24 0,0.02 0,0.04 -0.03,0.11 -0.01,0.03 -0.01,0.04 0.01,0.03 0.01,-0.01 0.01,-0.02 0.02,-0.01 0,0 0.01,-0.01 0.01,-0.02 0,-0.01 0.01,-0.02 0.01,-0.03 0.01,0 0.01,-0.01 0.01,-0.01 0.01,-0.01 0.01,-0.01 0.01,0 0.01,0 0.02,0 0.03,0 0,0 0.02,0.01 0.02,0.01 0.01,0.02 0.03,0 0.03,-0.02 0,-0.03 0.28,0.05 0.53,0.15 0.05,0.02 0.06,0.02 0.06,0.02 0,-0.01 0,-0.01 0,0 0,0.02 -0.03,0.01 -0.07,-0.01 -0.05,-0.02 -0.08,-0.02 -0.07,0.01 0.01,0.03 0.01,0.03 -0.02,0.02 -0.06,-0.01 -0.06,-0.01 -0.06,0.04 0,0.04 -0.01,0.04 -0.05,0.05 0,0 -0.01,0.01 -0.02,0.02 0,0.01 -0.01,0.01 -0.04,0.01 -0.03,0 -0.04,0 -0.05,0.01 -0.01,0.01 -0.02,0.02 -0.03,0.02 0,0 -0.01,0 -0.02,0 -0.01,0.01 -0.01,0.01 -0.01,0 0,-0.01 -0.02,-0.01 -0.03,0.01 -0.01,0.01 0,0.03 0.02,0.03 0.01,0 0.01,0 0.01,0 0,0.01 0,0.01 -0.01,0.01 -0.01,0 -0.02,0 -0.02,0.01 0,0.02 -0.01,0.03 -0.05,0.03 -0.04,0 -0.04,0 -0.1,0.06 -0.06,0.07 -0.08,0.08 -0.09,0.06 -0.01,-0.01 -0.01,-0.01 -0.01,0 -0.01,0 -0.01,0 -0.02,0 -0.01,0 -0.04,0.03 -0.04,0.06 -0.01,0.05 -0.02,0.06 -0.02,0.03l0 0zm0.65 -0.49c0,0 0,-0.01 0,-0.01 0,0 -0.03,-0.01 -0.04,-0.01 0,0.01 0,0.01 0.01,0.02 0.02,0.01 0.03,0.01 0.03,0zm-0.6 -0.02c-0.01,-0.01 -0.01,0 -0.01,0 0,0.01 0,0.02 0.01,0.01 0,0 0,-0.01 0,-0.01zm-0.01 0.51c0,-0.01 0,-0.02 0,-0.02 0.01,-0.02 0.02,0 0.01,0.01 0,0.01 0,0.01 0,0.01 0.01,-0.01 0.01,-0.01 0,0 -0.01,0.01 -0.01,0.01 -0.01,0l0 0zm0.03 -0.07c0,0 0,0 0,0 0,0 0,0 0,0 0,0 0,0 0,0 0,0 0,0 0,0zm-0.49 -0.2c0,-0.01 0,-0.01 0,-0.01 0.01,0 0.01,0 0.01,0.01 0,0 0,0 0,0 -0.01,0 -0.01,0 -0.01,0zm0.02 -0.01c0,0 0.01,0 0.01,0 0,0 0,0 0,0 0,0 0,0.01 0,0.01 0,0 -0.01,-0.01 -0.01,-0.01zm1.59 -0.07c0,0 0,0 0,0 0,0 0,0 0,0 0,0 0,0 0,0 0,0 0,0 0,0zm-0.05 -0.13c0,0 0.01,0 0.01,0 0,0 0,0 0,0 0,0 0,0.01 0,0.01 0,0 -0.01,-0.01 -0.01,-0.01zm-0.35 -0.03c0,0 0,0 0,0 0.01,0 0.01,0 0.01,0 0,0 0,0 -0.01,0 0,0 0,0 0,0zm0.34 0c0,0 0,0 0,0 0.01,0 0.01,0 0.01,0 0,0 0,0 -0.01,0 0,0 0,0 0,0zm0 -0.01c0,0 0,0 0,0 0,0 0,0 0,0 0,0 0,0 0,0 0,0 0,0 0,0zm-0.35 -0.01c0,0 0.01,-0.01 0.01,-0.01 0,0 0,0.01 0,0.01 0,0 0,0 0,0 0,0 -0.01,0 -0.01,0zm0.34 -0.01c0,0 0,0 0,0 0.01,0 0.01,0.01 0,0.01 0,0 0,0 0,-0.01zm0.41 0c0,-0.01 0,-0.01 0,-0.01 0,0 0,0 0,0.01 0,0 0,0 0,0 0,0 0,0 0,0zm-0.42 -0.01c0,0 0,0 0.01,0 0,0 0,0 0,0 0,0 0,0 0,0 -0.01,0 -0.01,0 -0.01,0zm-0.33 -0.01c0,0 0,-0.01 0,0 0,0 0,0 0,0 0,0.01 0,0 0,0zm0.33 0c0,0 0,-0.01 0,-0.01 0,0 0,0.01 0,0.01 0,0 0,0 0,0 0,0 0,0 0,0zm0.24 -0.01c0,0 0,0 0.01,0 0,0 0.01,0.01 0,0.01 0,0 0,0 -0.01,-0.01l0 0zm0.23 0.01c0,0 0,-0.01 0.01,-0.01 0,0 0,0.01 0,0.01 0,0 0,0 0,0 -0.01,0 -0.01,0 -0.01,0zm-0.48 -0.02c0,0 0,0 0,0 0.01,0 0.01,0 0.01,0 0,0.01 0,0.01 -0.01,0.01 0,0 0,0 0,-0.01zm-0.33 0c0,-0.01 0,-0.01 0.01,-0.01 0,0 0,0.01 0,0.01 -0.01,0 -0.01,0 -0.01,0zm0.57 0c0,0 0.01,0 0.01,0 0,0 0,0 0,0 0,0 0,0 0,0 0,0 -0.01,0 -0.01,0zm-0.24 -0.01c0,0 0,0 0,0 0,0 0,0 0,0 0,0 0,0.01 0,0.01 0,0 0,-0.01 0,-0.01zm-0.33 -0.01c0,-0.01 0,-0.01 0,-0.01 0,0.01 0,0.01 0,0.01 0,0 0,0 0,0zm0.55 -0.02c0,0 0,0 0,0 0.01,0 0.01,0 0.01,0 0,0 0,0.01 -0.01,0.01 0,0 0,-0.01 0,-0.01zm0.16 0c0,0 0,0 0,0 0,0 0,0 0,0 0,0 0,0.01 0,0.01 0,0 0,-0.01 0,-0.01zm-0.72 0c0,-0.01 0,-0.01 0,-0.01 0,0 0.01,0 0.01,0.01 0,0 -0.01,0 -0.01,0 0,0 0,0 0,0zm0.31 -0.01c0,0 0,0 0,0 0.01,0 0.01,0 0.01,0 0,0 0,0 -0.01,0 0,0 0,0 0,0zm0.45 0c0,-0.01 0,-0.01 0.01,-0.01 0,0.01 0.01,0.01 0,0.01 0,0 0,0 -0.01,0l0 0zm-0.77 -0.02c0,0 0,-0.01 0,-0.02 0,0 0,0 0,0.01 0.01,0.01 0.01,0.02 0.01,0.02 0,0 -0.01,0 -0.01,-0.01zm0.31 0.01c0,0 0.01,-0.01 0.01,-0.01 0,0 0,0.01 0,0.01 0,0 0,0 0,0 0,0 -0.01,0 -0.01,0zm-0.96 -0.02c0,0 0,0 0.01,0 0,0 0,0 0,0 0,0 0,0 0,0 -0.01,0 -0.01,0 -0.01,0zm1.18 -0.01c0,0 0.01,0 0.01,0 0,0 0,0 0,0 0,0.01 0,0.01 0,0.01 0,0 -0.01,0 -0.01,-0.01zm-0.54 -0.01c0,0 0,0 0.01,0 0,0 0,0 0,0 0,0 0,0 0,0 -0.01,0 -0.01,0 -0.01,0zm0.68 -0.01c0,-0.01 0,-0.01 0.01,0 0.01,0.01 0.01,0.01 0,0.01 0,0 0,0 -0.01,-0.01zm-0.68 0c0,-0.01 0,-0.01 0,-0.01 0,0 0,0.01 0,0.01 0,0 0,0 0,0zm0.29 0c0,0 0.01,0 0.01,0 0,0 0,0 0,0 0,0 0,0 0,0 0,0 -0.01,0 -0.01,0zm0.21 -0.02c-0.01,-0.02 -0.01,-0.02 0.01,-0.01 0.01,0.01 0.02,0.02 0.02,0.02 0,0.01 -0.01,0 -0.03,-0.01l0 0zm-0.51 0c0,-0.01 0,-0.01 0,-0.01 0.01,0.01 0.01,0.01 0,0.01 0,0 0,0 0,0zm0.29 0c0,0 0,0 0.01,0 0,0 0,0 0,0 0,0 0,0 0,0 -0.01,0 -0.01,0 -0.01,0zm0.42 0c0,-0.01 0,-0.01 0.01,-0.01 0,0.01 0.01,0.01 0,0.01 0,0 0,0 -0.01,0l0 0zm-1.35 -0.01c0,0 0,0 0,0 0.01,0 0.01,0 0.01,0 0,0 0,0 -0.01,0 0,0 0,0 0,0zm0.63 -0.01c0,0 0.01,0 0.01,0 0,0 0,0 0,0 0,0 0,0.01 0,0.01 0,0 -0.01,-0.01 -0.01,-0.01zm0.28 -0.01c0,0 0,-0.01 0.01,0 0.01,0.01 0.01,0.02 0,0.02 0,0 0,-0.01 -0.01,-0.02zm-0.9 0.01c0,-0.01 0,-0.01 0,-0.02 0.01,0 0.01,-0.01 0.01,0 0,0 0,0.01 -0.01,0.01 0,0.01 0,0.01 0,0.01zm0.62 -0.02c-0.01,-0.01 -0.01,-0.02 0,0 0,0 0,0.01 0,0.01 0,0 0,0 0,-0.01zm0.68 0c0,0 0,-0.01 0,0 0.01,0 0.01,0.01 0.01,0.01 0,0 -0.01,-0.01 -0.01,-0.01l0 0zm-0.41 -0.01c0,0 0,0 0,0 0.01,0.01 0.01,0.01 0.01,0.01 -0.01,0 -0.01,0 -0.01,-0.01l0 0zm-1.13 -0.01c0,-0.01 0.01,-0.02 0.01,-0.02 0,0 0,0.01 -0.01,0.02 0,0 -0.01,0.01 -0.01,0.01 0,0 0,-0.01 0.01,-0.01zm0.25 0.01c0,-0.01 0,-0.01 0,-0.01 0,0 0,0 0,0.01 0,0 0,0 0,0 0,0 0,0 0,0zm0.6 -0.01c0,0 0,0 0,0 0,0 0,0 0,0 0,0 0,0 0,0 0,0 0,0 0,0zm0.67 0c0,0 0,0 0,0 0,0 0,0 0,0 0,0 0,0 0,0 0,0 0,0 0,0zm-1.27 -0.01c0,0 0.01,0 0.01,0 0,0 0,0 0,0 0,0.01 0,0.01 0,0.01 0,0 -0.01,0 -0.01,-0.01zm0.59 0c0,0 0,-0.01 0,-0.01 0,0 0.01,0.01 0.01,0.01 0,0 -0.01,0 -0.01,0 0,0 0,0 0,0zm0.26 -0.01c0,0 0,0 0.01,0 0,0 0,0.01 0,0.01 0,0 0,0 -0.01,-0.01l0 0zm0.21 0c-0.01,-0.01 -0.01,-0.01 0,0 0.01,0.01 0.01,0.01 0.01,0.01 0,0 -0.01,0 -0.01,-0.01zm0.15 0c0,0 0,0 0.01,0 0,0.01 0,0.01 0,0.01 0,0 0,0 -0.01,-0.01l0 0zm0.03 0c0,0 0,0 0.01,0 0,0.01 0.01,0.01 0,0.01 0,0 0,0 -0.01,-0.01l0 0zm-1.23 0c0,0 0,0 0,0 0.01,0 0.01,0 0.01,0 0,0 0,0 -0.01,0 0,0 0,0 0,0zm0.57 0c0,-0.01 0,-0.01 0.01,-0.01 0,0 0,0 0,0.01 0,0 0,0 0,0 -0.01,0 -0.01,0 -0.01,0zm-0.76 -0.07c0.03,-0.03 0.06,-0.05 0.06,-0.05 0,0 -0.02,0.02 -0.05,0.05 -0.03,0.04 -0.06,0.06 -0.06,0.06 0,0 0.02,-0.02 0.05,-0.06zm0.2 0.06c0,0 0,0 0,0 0,0 0,0 0,0 0,0 0,0 0,0 0,0 0,0 0,0zm1.2 0c0,0 0,0 0.01,0 0,0 0,0 0,0 0,0 0,0 0,0 -0.01,0 -0.01,0 -0.01,0zm-0.64 -0.01c0,0 0,0 0,0 0,0 0,0 0,0 0,0.01 0,0.01 0,0.01 0,0 0,-0.01 0,-0.01zm0.46 0c0,0 0,0 0,0 0,0 0.01,0 0.01,0 0,0.01 -0.01,0.01 -0.01,0.01 0,0 0,-0.01 0,-0.01zm-1.45 -0.01c0.01,-0.01 0.02,-0.02 0.02,-0.02 0,0 -0.01,0.01 -0.01,0.02 -0.01,0 -0.02,0.01 -0.02,0.01 0,0 0,-0.01 0.01,-0.01zm0.43 0.01c0,0 0,-0.01 0.01,-0.01 0,0 0,0.01 0,0.01 0,0 0,0 0,0 -0.01,0 -0.01,0 -0.01,0zm1.16 -0.01c-0.01,0 -0.01,0 0,0 0,0 0.01,0.01 0.01,0.01 0,0 -0.01,0 -0.01,-0.01l0 0zm-1.77 0c0,0 0.01,0 0.01,0 0,0 0,0 0,0 0,0 0,0 0,0 0,0 -0.01,0 -0.01,0zm1.16 0c0,0 0,0 0,0 0.01,0 0.01,0 0.01,0 0,0 0,0 -0.01,0 0,0 0,0 0,0zm0.22 -0.04c-0.05,-0.04 -0.05,-0.04 0,0 0.02,0.02 0.04,0.04 0.04,0.04 0,0.01 0,0 -0.04,-0.04l0 0zm-1.36 0.03c0,0 0,0 0.01,0 0,0 0,0 0,0 -0.01,0.01 -0.01,0.01 -0.01,0.01 0,0 0,0 0,-0.01zm0.6 0.01c0,-0.01 0,-0.01 0,-0.01 0,0 0.01,0 0.01,0.01 0,0 -0.01,0 -0.01,0 0,0 0,0 0,0zm1.16 0c0,-0.01 0,-0.01 0,-0.01 0,0 0,0 0,0.01 0,0 0,0 0,0 0,0 0,0 0,0zm-0.18 -0.02c-0.01,0 -0.01,0 0,0 0,0 0.01,0.01 0.01,0.01 0,0 -0.01,0 -0.01,0l0 -0.01zm-0.97 0c0,-0.01 0.01,-0.02 0.02,-0.03 0.01,-0.01 0.01,-0.01 0,0 0,0.01 -0.01,0.02 -0.02,0.03 -0.01,0.01 -0.01,0.01 0,0zm0.52 0c0,0 0,0 0,0 0,0 0.01,0 0.01,0 0,0 -0.01,0.01 -0.01,0.01 0,0 0,-0.01 0,-0.01zm-0.94 0c0,0 0,-0.01 0.01,-0.01 0.01,-0.01 0.01,-0.01 0,0 -0.01,0.01 -0.01,0.01 -0.01,0.01zm0.93 -0.02c-0.01,-0.01 -0.01,-0.01 -0.01,-0.01 0,0 0.01,0 0.01,0.01 0.01,0.01 0.01,0.01 0.01,0.01 -0.01,0 -0.01,0 -0.01,-0.01zm0.43 0c-0.01,-0.01 -0.01,-0.01 0,0 0.01,0.01 0.01,0.01 0.01,0.01 0,0 -0.01,0 -0.01,-0.01zm-1.34 0c0,0 0.01,-0.01 0.02,-0.02 0.01,0 0.02,-0.01 0.02,-0.01 0,0.01 -0.01,0.01 -0.02,0.02 -0.01,0.01 -0.02,0.01 -0.02,0.01zm1.32 -0.01c-0.01,-0.01 0,-0.01 0,0 0.01,0 0.01,0.01 0,0.01 0,0 0,-0.01 0,-0.01l0 0zm-0.43 -0.01c0,-0.01 0,-0.01 0,-0.01 0.01,0.01 0.01,0.01 0.01,0.01 0,0.01 0,0 -0.01,0l0 0zm0.41 0c0,-0.01 0,-0.01 0,-0.01 0.01,0.01 0.01,0.01 0.01,0.01 -0.01,0 -0.01,0 -0.01,0l0 0zm-1.26 -0.01c0,0 0.01,-0.01 0.01,-0.01 0.01,0 0.02,-0.01 0.02,0 0,0 -0.01,0 -0.02,0.01 0,0 -0.01,0 -0.01,0zm0.39 0c0.01,-0.01 0.01,-0.01 0.01,-0.01 0,0 0,0 0,0.01 0,0 0,0 -0.01,0 0,0 0,0 0,0zm0.85 -0.01c0,0 0,0 0,0 0.01,0 0.01,0.01 0.01,0.01 0,0 -0.01,0 -0.01,-0.01l0 0zm-0.41 -0.01c-0.01,-0.01 -0.01,-0.01 0,0 0.02,0.01 0.02,0.02 0.02,0.02 0,0 -0.01,-0.01 -0.02,-0.02zm0.39 0c-0.01,-0.01 -0.01,-0.01 0,0 0.01,0 0.01,0 0.01,0.01 0,0 0,0 -0.01,-0.01l0 0zm-1.19 0c0,0 0.01,-0.01 0.01,-0.01 0.01,0 0.02,0 0.02,0 0,0 -0.01,0 -0.02,0.01 0,0 -0.01,0 -0.01,0zm0.4 -0.02c0.01,-0.02 0.02,-0.03 0.02,-0.03 0.01,0 -0.01,0.02 -0.03,0.04 -0.02,0.01 -0.02,0.01 0.01,-0.01zm0.61 0.01c-0.01,-0.01 -0.01,-0.01 0,0 0.01,0 0.02,0.01 0.02,0.01 0,0.01 -0.01,0 -0.02,-0.01zm-0.82 0c0,0 0,-0.01 0.01,-0.01 0.01,-0.01 0.01,-0.01 0,0 -0.01,0.01 -0.01,0.01 -0.01,0.01zm0.98 0c0,0 0,-0.01 0,-0.01 0,0 0,0.01 0,0.01 0,0 0,0 0,0 0,0 0,0 0,0zm-1.14 -0.01c0,0 0,0 0.01,0 0,0 0,0 0,0 0,0 0,0 0,0 -0.01,0 -0.01,0 -0.01,0zm0.74 -0.02c-0.03,-0.03 -0.03,-0.03 0,0 0.02,0.02 0.03,0.02 0.02,0.02 0,0 -0.01,-0.01 -0.02,-0.02zm0.37 0.01c-0.02,0 -0.02,-0.01 -0.02,-0.01 0.01,0 0.04,0.02 0.04,0.02 0,0.01 0,0.01 -0.02,-0.01l0 0zm-1.09 0.01c0,-0.01 0,-0.01 0,-0.01 0,0 0,0 0,0.01 0,0 0,0 0,0 0,0 0,0 0,0zm0.01 -0.01c0,0 0,0 0,0 0,0 0,0 0,0 0,0 0,0 0,0 0,0 0,0 0,0zm0.01 -0.01c0,0 0,0 0,0 0,0 0.01,0 0.01,0 0,0 -0.01,0.01 -0.01,0.01 0,0 0,-0.01 0,-0.01zm0.16 -0.01c0.02,-0.01 0.04,-0.03 0.04,-0.02 0,0 -0.01,0.01 -0.03,0.02 -0.02,0.01 -0.02,0.01 -0.01,0zm0.75 0.01c0,0 0,0 0,0 0,0 0,0 0,0 0,0 0,0.01 0,0.01 0,0 0,-0.01 0,-0.01zm-0.9 0c0,0 0,-0.01 0,-0.01 0.01,0 0.01,0.01 0.01,0.01 0,0 0,0 -0.01,0 0,0 0,0 0,0zm1.02 0c0,0 0.01,-0.01 0.01,-0.01 0,0 0,0.01 0,0.01 0,0 0,0 0,0 0,0 -0.01,0 -0.01,0zm-1 -0.01c0.01,-0.01 0.01,-0.01 0.02,-0.01 0,0 0,0 -0.01,0.01 0,0 -0.01,0 -0.01,0 -0.01,0 0,0 0,0zm0.84 -0.01c-0.03,-0.02 -0.03,-0.03 -0.01,-0.01 0.01,0 0.03,0.01 0.03,0.02 0.01,0.01 0,0.01 -0.02,-0.01l0 0zm0.15 0.01c0,0 0,0 0.01,0 0,0 0,0 0,0 0,0 0,0 0,0 -0.01,0 -0.01,0 -0.01,0zm-0.02 -0.01c-0.01,0 -0.01,0 0,0 0,0 0.01,0 0.01,0 0.01,0.01 0.01,0.01 0,0.01 0,0 -0.01,0 -0.01,-0.01zm-0.95 0c0,0 0.01,0 0.01,0 0,0 0,0 0,0 0,0 0,0 0,0 0,0 -0.01,0 -0.01,0zm0.32 -0.01c0.01,-0.01 0.02,-0.01 0.02,-0.01 0,0 0,0 -0.01,0.01 -0.01,0.01 -0.01,0.01 -0.01,0.01 -0.01,0 0,0 0,-0.01zm-0.3 0c0,0 0,0 0.01,0 0,0 0,0.01 -0.01,0.01 0,0 0,-0.01 0,-0.01zm0.91 0c0,0 0,0 0,0 0,0 0.01,0 0.01,0 0,0 -0.01,0.01 -0.01,0.01 0,0 0,-0.01 0,-0.01zm-0.9 0c0,0 0.01,-0.01 0.01,-0.01 0,0 0,0.01 0,0.01 0,0 0,0 0,0 0,0 -0.01,0 -0.01,0zm0.88 0c0.01,-0.01 0.01,-0.01 0.01,0 0,0 0,0 0,0 -0.01,0 -0.01,0 -0.01,0zm-0.86 -0.01c0,0 0.01,0 0.01,0 0,0 0,0 -0.01,0 0,0 0,0 0,0zm0.11 0c0,-0.01 0,-0.01 0.01,-0.01 0,0 0,0 0,0.01 -0.01,0 -0.01,0 -0.01,0 0,0 0,0 0,0zm0.72 -0.01c-0.02,0 -0.02,0 0,0 0.01,0 0.03,0.01 0.02,0.01 0,0 -0.01,0 -0.02,-0.01zm-0.81 0c0.01,0 0.02,0 0.03,-0.01 0.01,0 0.01,0 0,0 0,0.01 -0.01,0.01 -0.02,0.01 -0.01,0.01 -0.01,0.01 -0.01,0zm0.51 0c-0.01,-0.01 -0.02,-0.02 -0.01,-0.02 0,0 0.04,0.03 0.03,0.03 0,0 -0.01,-0.01 -0.02,-0.01zm0.2 0c0,0 0,0 0,0 0.01,0 0.01,0.01 0.01,0.01 0,0 -0.01,-0.01 -0.01,-0.01l0 0zm-0.61 0c0,0 0.01,-0.01 0.02,-0.01 0,0 0.01,-0.01 0.01,0 0,0 -0.01,0 -0.01,0.01 -0.01,0 -0.02,0 -0.02,0zm0.18 0c0,0 0.04,-0.03 0.05,-0.03 0,0 -0.01,0.01 -0.02,0.02 -0.02,0.01 -0.03,0.01 -0.03,0.01zm0.4 -0.01c-0.02,-0.02 -0.02,-0.02 0,-0.01 0.01,0.01 0.02,0.01 0.02,0.01 0,0.01 0,0.01 -0.02,0zm0.1 0c0,0 0,0 0,0 0.01,0 0.01,0.01 0,0.01 0,0 -0.01,-0.01 0,-0.01zm-0.73 0c0,-0.01 0,-0.01 0,0 0.01,0 0,0 0,0 0,0 -0.01,0 0,0zm0.71 0c0,-0.01 0,-0.01 0.01,0 0,0 0,0 -0.01,0 0,0 0,0 0,0zm-0.69 -0.01c0,0 0,0 0,0 0,0 0,0 0,0 0,0 0,0 0,0 0,0 0,0 0,0zm0.07 0c0,0 0,0 0,0 0,0 0,0 0,0 0,0 0,0 0,0 0,0 0,0 0,0zm0.6 0c0,0 0.01,0 0.01,0 0,0 0,0 -0.01,0 -0.01,0 -0.01,0 0,0l0 0zm-0.65 -0.01c0.01,0 0.01,0 0.01,0 0.01,0.01 0,0.01 0,0.01 -0.01,0 -0.01,0 -0.01,-0.01l0 0zm0.06 0c0,0 0,0 0,0 0,0 0,0 0,0 0,0.01 0,0.01 0,0.01 0,0 0,0 0,-0.01zm0.33 0c0,0 0,0 0,0 0,0 0,0 0,0 0,0.01 0,0.01 0,0.01 0,0 0,0 0,-0.01zm0.24 0c0,0 0,0 0,0 0.01,0.01 0,0.01 0,0.01 0,0 -0.01,0 0,-0.01zm-0.6 0c0,0 0.01,0 0.01,0 0,0 0,0 -0.01,0 -0.01,0 -0.01,0 0,0l0 0zm0.22 0c0,0 0,0 0,0 0,0 0,0 0,0 0,0 0,0 0,0 0,0 0,0 0,0zm0.11 0c-0.02,-0.01 -0.01,-0.01 0.01,0 0.01,0 0.01,0 0,0 0,0 -0.01,0 -0.01,0zm0.24 0c0.01,0 0.01,0 0.02,0 0,0 -0.01,0 -0.01,0 -0.01,0 -0.01,0 -0.01,0l0 0zm-0.55 -0.01c0,0 0,0 0,0 0,0 0,0 0,0 0,0 0,0.01 0,0.01 0,0 0,-0.01 0,-0.01zm0.22 0c0,0 0,0 0,0 0.01,0 0.01,0.01 0,0.01 0,0 -0.01,-0.01 0,-0.01zm0.03 -0.01c0,0 0.01,0 0.01,0 0.01,0.01 0.01,0.01 0,0.01 -0.01,0 -0.01,0 -0.01,-0.01z"/>
 <path fill="#2DBC2A" d="M1.92 3.81c-0.14,0 -0.15,0 -0.16,-0.01 0,0 -0.01,-0.05 -0.02,-0.11 -0.02,-0.05 -0.03,-0.12 -0.04,-0.14 -0.01,-0.06 -0.04,-0.06 0.26,-0.06 0.3,0 0.28,-0.01 0.25,0.09 -0.01,0.06 -0.04,0.17 -0.04,0.2 -0.01,0.04 -0.01,0.04 -0.06,0.04 -0.03,0 -0.11,0 -0.19,-0.01l0 0zm-0.7 -1.63c-0.11,-0.04 -0.11,-0.04 -0.12,-0.07 -0.01,-0.02 -0.01,-0.03 -0.01,-0.04 -0.01,-0.01 -0.05,-0.1 -0.07,-0.14 0,-0.03 -0.02,-0.07 -0.03,-0.1 -0.04,-0.08 -0.08,-0.22 -0.07,-0.23 0.01,0 0.01,-0.02 0,-0.04 -0.01,-0.01 -0.01,-0.01 -0.01,0 0,0.01 0,0 0,-0.02 0,-0.06 0,-0.05 0.06,-0.05 0.05,0 0.1,-0.03 0.1,-0.06 0,-0.01 0,-0.02 0.02,-0.02 0.01,0 0.01,0 0.01,0 0,-0.02 0.03,-0.01 0.04,0.01 0.01,0.02 0.02,0.02 0.02,0.01 0.01,-0.01 0.01,0.03 0.01,0.07 0,0.01 0,0.02 0,0.02 0,0.01 0.01,0.04 0.02,0.08 0.02,0.11 0.03,0.18 0.06,0.29 0.01,0.05 0.03,0.11 0.03,0.13 0.01,0.02 0.01,0.04 0.02,0.05 0,0 -0.01,0.01 -0.02,0 -0.01,0 -0.01,0.01 -0.01,0.01 0,0.01 -0.01,0.01 -0.01,0.01 -0.09,0 -0.11,0.05 -0.03,0.07 0.02,0.01 0.05,0.02 0.06,0.02 0.1,0.04 0.05,0.03 -0.07,0l0 0zm-0.07 -0.06c0,-0.01 -0.01,-0.01 -0.01,-0.01 -0.01,-0.01 -0.01,0 -0.01,0.01 0.01,0.01 0.02,0.01 0.02,0l0 0zm0.1 -0.12c0,-0.01 0,-0.01 -0.01,-0.01 0,0 0,0.01 0,0.01 0.01,0.01 0.01,0.01 0.01,0l0 0zm-0.3 -0.33c0,0 0,0 -0.01,0 0,0 0,0 0,0 0,0 0,0.01 0,0.01 0.01,0 0.01,-0.01 0.01,-0.01zm0.34 0.47c-0.01,-0.01 -0.01,-0.02 0,-0.03 0.01,0 0.01,-0.01 0.01,-0.01 0,-0.01 0,-0.02 0.01,-0.01 0,0 0,0.02 -0.01,0.04 0,0.02 0,0.02 -0.01,0.01l0 0zm-0.38 -0.06c-0.04,-0.02 -0.04,-0.02 -0.07,-0.09 -0.05,-0.1 -0.1,-0.22 -0.09,-0.21 0.01,0 0.01,-0.01 0.01,-0.01 0,-0.02 -0.01,-0.02 -0.02,-0.01 0,0 0,0 -0.01,-0.02 0,-0.02 -0.01,-0.03 0,-0.03 0,0 0,-0.01 0,-0.02 0,-0.02 0.01,-0.03 0.01,-0.04 0.01,0 0.01,-0.02 0.01,-0.03 0.01,-0.03 0.02,-0.03 0.02,0 0,0.03 0.02,0.08 0.02,0.05 0.01,-0.01 0.01,0.01 0.02,0.03 0.01,0.03 0.01,0.05 0.01,0.05 0,0.01 0,0.01 0,0.02 0,0 0,0 0.01,-0.01 0,0 0,0.01 0.01,0.03 0.04,0.1 0.05,0.15 0.06,0.15 0,0.01 0.01,0.04 0.03,0.07 0.01,0.04 0.03,0.07 0.03,0.07 0.01,0.01 -0.02,0.01 -0.05,0l0 0zm0.72 -0.1c0,0 0.01,-0.01 0.01,-0.01 0,0 0,0.01 0,0.01 0,0 0,0 0,0 0,0 -0.01,0 -0.01,0zm0 -0.03c0,-0.02 0,-0.04 0,-0.04 0.01,0 0.01,0 0.01,0.03 0,0.03 0,0.03 -0.01,0.01zm-0.03 -0.02c0,0 0,0 0,0 0,0 0,0 0,0 0,0 0,0 0,0 0,0 0,0 0,0zm0 -0.01c-0.01,-0.01 -0.01,-0.01 -0.01,-0.02 0,0 0,-0.01 0.01,0 0,0 0,0.01 0,0.01 0,0.01 0,0.01 0,0.01zm-0.02 -0.07c0,-0.02 -0.01,-0.06 -0.01,-0.09 -0.01,-0.03 -0.01,-0.05 -0.01,-0.06 0,-0.01 -0.02,-0.17 -0.03,-0.31 0,-0.04 0,-0.15 0,-0.24 0,-0.1 0,-0.14 0,-0.1 0,0.04 0.01,0.06 0.01,0.05 0,-0.01 0,-0.01 0.01,0.01 0,0.03 0.01,0.03 0.02,-0.03 0,-0.03 0.03,-0.06 0.04,-0.06 0.01,0 0.01,0 0.02,0 0,-0.01 0,-0.01 0.01,0 0.01,0.02 0.03,0.01 0.09,-0.06 0.06,-0.06 0.06,-0.06 0.1,-0.06 0.04,0 0.05,-0.01 0.05,-0.03 0,-0.01 0.01,-0.01 0.02,-0.01 0.01,0 0.01,0 0.01,-0.01 0,0 0,0 -0.01,0 -0.02,0 -0.03,-0.02 -0.02,-0.03 0.01,-0.02 0.03,-0.02 0.03,-0.01 0,0.01 0,0.01 0.01,0 0.01,0 0.02,0 0.02,0 0.01,0 0.02,-0.01 0.03,-0.02 0.01,-0.01 0.02,-0.01 0.05,-0.01 0.03,0 0.04,0 0.04,-0.01 0.01,-0.01 0.02,-0.02 0.02,-0.02 0.04,-0.01 0.05,-0.01 0.05,-0.05 0,-0.05 0,-0.05 0.06,-0.04 0.03,0.01 0.03,0.01 0.02,-0.02 -0.01,-0.03 0.02,-0.03 0.07,-0.01 0.02,0.01 0.06,0.02 0.07,0.02 0.02,-0.01 0.05,0.36 0.04,0.54 0,0.09 0,0.1 -0.02,0.12 -0.01,0.03 -0.01,0.04 -0.01,0.07 0,0.03 -0.04,0.06 -0.05,0.03 -0.01,-0.01 -0.06,0.01 -0.06,0.03 0,0.01 -0.03,0.01 -0.03,0 -0.01,-0.01 -0.04,-0.01 -0.04,0 0,0.02 -0.02,0.05 -0.02,0.05 -0.01,0 -0.01,0.01 0,0.01 0,0.01 0,0.01 -0.01,0 -0.01,0 -0.01,0 -0.02,0.01 0,0.01 -0.01,0.01 -0.02,0.01 -0.02,-0.01 -0.04,-0.01 -0.04,0.01 0.01,0 0,0.01 0,0.01 -0.01,0 -0.01,0.01 -0.01,0.01 0,0.01 0,0.02 0,0.02 -0.01,0.01 -0.01,0.02 -0.01,0.03 0.01,0.01 0,0.01 -0.02,0.01 -0.05,0 -0.07,0.02 -0.07,0.06 0,0.04 -0.02,0.05 -0.06,0.04 -0.01,-0.01 -0.02,-0.01 -0.02,0 0,0 -0.01,0 -0.02,0.01 -0.03,0 -0.04,0.01 -0.02,0.01 0.02,0 0.02,0 0.02,0.01 0,0.01 0,0.02 -0.04,0.02 -0.04,0 -0.05,0 -0.05,0.04 -0.01,0.02 -0.01,0.02 -0.05,0.02 -0.02,0 -0.04,0 -0.03,0 0,0.01 0.01,0.01 0.02,0.01 0.02,0 0.03,0 0.03,0.01 0,0.01 -0.01,0.01 -0.03,0.01 -0.01,0 -0.02,0 -0.02,0 0,-0.01 0,-0.01 -0.01,0 -0.01,0 -0.02,0.01 -0.02,0.02 0,0 0,0.01 -0.02,0.01 -0.02,0 -0.02,0 -0.01,-0.02 0.01,-0.01 0.01,-0.01 -0.01,0 -0.02,0 -0.03,0 -0.02,0.01 0,0 0,0.01 -0.01,0.01 0,0 -0.01,-0.02 -0.01,-0.03l0 0zm0.21 -0.11c0,-0.01 0,-0.01 0,0 0,0.01 0,0.01 0,0.01 0,0 0,-0.01 0,-0.01l0 0zm-0.19 -0.63c0.01,-0.01 0.01,-0.01 0,0 0,0 0,0 0,-0.01 0.01,-0.01 0,-0.03 -0.01,-0.01 0,0 0,0.03 0,0.03 0.01,0 0.01,0 0.01,-0.01l0 0zm0.02 -0.07c0,0 0,0 0,0 0,0 0,0 0,0 0,0 0,0 0,0 0,0 0,0 0,0zm-0.9 0.65c0,0 0,0 0,0 0,0 0,0 0,0 0,0 0,0 0,0 0,0 0,0 0,0zm-0.02 -0.04c0,-0.03 0,-0.03 0.01,0 0,0.01 0.01,0.02 0,0.02 0,0 0,0 -0.01,-0.02l0 0zm1.28 0c0,-0.01 0.01,-0.02 0.01,-0.02 0.02,0 0.02,0 0.01,0.02 -0.01,0 -0.02,0.01 -0.02,0.01 0,0 0,-0.01 0,-0.01zm-1.19 -0.01c0,0 0,0 0,0 0,0 0,0 0,0 0,0 0,0.01 0,0.01 0,0 0,-0.01 0,-0.01zm-0.08 -0.02c0,0 0,0 -0.01,0 -0.01,0 -0.01,0 -0.01,-0.01 0,0 0,-0.01 0.01,0 0,0 0,0 0,-0.01 0,0 0.01,-0.01 0.01,-0.01 0,0 0.01,0.01 0.01,0.02 0,0.01 -0.01,0.02 -0.01,0.02 0,0 0,-0.01 0,-0.01l0 0zm0.07 0c0,0 0,0 0.01,0 0,0 0,0 0,0 0,0 0,0 0,0 -0.01,0 -0.01,0 -0.01,0zm-0.01 -0.03c0,-0.01 0,-0.01 0,-0.02 0,0 0.01,0.01 0.01,0.02 0,0.01 0,0.02 0,0.02 0,0 0,-0.01 -0.01,-0.02zm-0.09 0c0,0 0.01,0 0.01,0 0,0 0,0 0,0 0,0.01 0,0.01 0,0.01 0,0 -0.01,0 -0.01,-0.01zm0.23 0c0,0 0,-0.01 0,-0.01 0,0 0.01,0.01 0.01,0.01 0,0 -0.01,0 -0.01,0 0,0 0,0 0,0zm-0.23 -0.01c0,-0.01 0,-0.01 0,-0.01 0,0 0,0 0,0.01 0,0 0,0 0,0 0,0 0,0 0,0zm-0.01 -0.03c0,0 0,0 0.01,0 0,0 0,0.01 0,0.01 -0.01,0 -0.01,0 -0.01,-0.01zm0.09 0c0,0 0.01,0 0.01,0 0,0 0,0 0,0 0,0 0,0 0,0 0,0 -0.01,0 -0.01,0zm-0.03 -0.01c0,0 0.01,0 0.01,0 0,0 0,0 0,0.01 0,0 -0.01,0 -0.01,-0.01zm0.17 0c0,-0.01 0,-0.01 0,-0.01 0,0 0,0.01 0,0.01 0,0 0,0 0,0zm-0.23 -0.01c0,0 0,0 0,0 0,0 0,0 0,0 0,0 0,0.01 0,0.01 0,0 0,-0.01 0,-0.01zm0.09 0c0,0 0,-0.01 0,-0.01 0,0 0,0.01 0,0.01 0,0 0,0 0,0 0,0 0,0 0,0zm0.13 -0.01c0,-0.01 0,-0.01 0.01,-0.01 0,0.01 0,0.01 0,0.01 -0.01,0 -0.01,0 -0.01,0zm0 -0.03c0,-0.01 0,-0.01 0,-0.01 0,0.01 0,0.01 0,0.01 0,0 0,0 0,0zm-0.01 -0.03c0,-0.01 0,-0.01 0,0 0.01,0 0.01,0.01 0,0.01 0,0 0,0 0,-0.01l0 0zm-0.23 0c0,0 0,0 0,0 0,0 0,0 0,0 0,0 0,0 0,0 0,0 0,0 0,0zm0.22 -0.03c0,-0.01 0.01,-0.01 0.01,-0.01 0,0 0,0.01 0,0.01 0,0 -0.01,0 -0.01,0zm0.14 -0.02c0,0 0.01,0 0.01,0 0,-0.01 0.01,0 0.01,0 0,0.01 -0.01,0.01 -0.01,0.01 0,0 -0.01,0 -0.01,-0.01zm-0.37 0c0,-0.01 0,-0.01 0,-0.01 0,0 0,0 0,0.01 0,0 0,0 0,0 0,0 0,0 0,0zm0.23 0c0,-0.01 0,-0.01 0,-0.01 0,0 0,0 0,0.01 0,0 0,0 0,0 0,0 0,0 0,0zm0.29 -0.03c0,-0.01 0,-0.01 0,-0.01 0,0.01 0,0.02 0,0.02 0,0.01 0,0.01 0,-0.01zm1.22 -0.01c0,0 0,0 0.01,0 0,0 0,0 0,0 0,0 0,0 0,0 -0.01,0 -0.01,0 -0.01,0zm-1.52 -0.01c0,0 0,0 0,0 0.01,0 0.01,0 0.01,0 0,0 0,0.01 -0.01,0.01 0,0 0,-0.01 0,-0.01zm0.29 -0.01c0,-0.01 0,-0.01 0,-0.01 0,0 0,0.01 0,0.01 0,0.01 0,0.01 0,0zm1.23 -0.01c0,-0.01 0.01,-0.01 0.01,0 0,0 0,0.01 0,0.02 0,0 -0.01,-0.01 -0.01,-0.02zm-1.52 -0.01c0,-0.01 0,-0.01 0,-0.01 0,0 0,0 0,0.01 0,0 0,0 0,0 0,0 0,0 0,0zm0.29 -0.05c0,-0.01 0,-0.01 0,-0.01 0,0.01 0,0.01 0,0.02 0,0 0,0 0,-0.01zm1.68 -0.14c0,0 0,-0.01 0,-0.01 0,0 0,0.01 0,0.01 0,0 0,0 0,0 0,0 0,0 0,0zm0 -0.03c0,0 -0.01,-0.01 -0.01,-0.02 0,-0.01 0,-0.02 -0.01,-0.02 0,0 -0.01,0 0,-0.01 0,0 0,0 -0.01,0 0,0 0,0 0,-0.02 0,-0.01 0,-0.02 -0.01,-0.04 0,-0.01 -0.01,-0.04 -0.01,-0.07 0,-0.02 -0.01,-0.05 -0.01,-0.05 -0.01,-0.03 0.19,0.1 0.25,0.16 0.03,0.02 0.03,0.02 -0.01,-0.01 -0.02,-0.01 -0.05,-0.02 -0.05,-0.02 0,0 -0.01,-0.01 -0.02,-0.02 -0.01,0 -0.02,-0.01 -0.04,-0.01 -0.01,0 -0.02,0 -0.02,0 0,-0.01 -0.03,-0.01 -0.03,0 -0.01,0.02 -0.02,0.01 -0.02,-0.02 0,-0.02 0,-0.02 -0.01,-0.02 -0.01,0 -0.01,0.07 0,0.1 0.01,0.01 0.01,0.03 0.01,0.05 0.01,0.01 0.01,0.03 0.01,0.03 0,0 -0.01,-0.01 -0.01,-0.01l0 0zm0.23 -0.04c-0.01,-0.01 -0.01,-0.01 0,0 0.01,0 0.01,0.01 0.01,0.01 0,0 -0.01,-0.01 -0.01,-0.01zm-0.89 -0.45c-0.01,-0.01 -0.01,-0.01 -0.01,-0.02 0.01,0 0.04,0.01 0.04,0.01 0,0.02 0,0.02 -0.03,0.01z"/>
 <path fill="#12A54F" d="M1.76 3.8c-0.01,-0.01 -0.02,-0.06 -0.01,-0.05 0,0 0,0.02 0.01,0.03 0,0.02 0.01,0.03 0.02,0.03 0.01,0.01 0.01,0.01 0,0.01 -0.01,0 -0.02,-0.01 -0.02,-0.02zm0.4 0.01c0,0 0,0 0,0 0,0 0,0 0,0 0,0.01 0,0.01 0,0.01 -0.01,0 -0.01,0 0,-0.01zm0 -0.02c0,-0.01 0.01,-0.01 0.01,0 0,0 0,0.01 0,0.01 0,0 -0.01,0 -0.01,-0.01l0 0zm0.01 -0.02c0,-0.01 0,-0.01 0,-0.01 0.01,0.01 0.01,0.01 0,0.01 0,0.01 0,0 0,0l0 0zm0.01 -0.03c0,0 0,-0.02 0.01,-0.04 0.01,-0.04 0.01,-0.02 0,0.02 -0.01,0.02 -0.01,0.03 -0.01,0.02zm-0.44 -0.02c-0.01,-0.01 -0.01,-0.03 -0.01,-0.03 0.01,0 0.01,0.01 0.01,0.02 0,0.01 0,0.03 0,0.03 0,0 0,-0.01 0,-0.02zm-0.02 -0.06c0,-0.01 0,-0.02 0,-0.02 0,0 0.01,0.01 0.01,0.02 0,0.01 0,0.02 0,0.02 0,0 0,0 -0.01,-0.02zm0.48 0c0,-0.01 0,-0.01 0,-0.01 0,0.01 0,0.01 0,0.02 0,0 -0.01,-0.01 0,-0.01l0 0zm0 -0.03c0,-0.01 0,-0.02 0.01,-0.03 0,-0.01 0,0 0,0.01 -0.01,0.03 -0.01,0.04 -0.01,0.02zm-0.49 -0.03c-0.01,-0.02 -0.01,-0.04 -0.01,-0.04 0.01,0 0.01,0.01 0.01,0.03 0.01,0.02 0.01,0.04 0.01,0.04 0,0 -0.01,-0.02 -0.01,-0.03zm0.5 -0.02c0,-0.01 0.01,-0.01 0.01,-0.01 0,0.01 0,0.01 0,0.02 -0.01,0 -0.01,-0.01 -0.01,-0.01l0 0zm0.01 -0.03c0,-0.01 0,-0.01 0,-0.01 0,0.01 0,0.01 0,0.02 0,0 0,-0.01 0,-0.01l0 0zm-0.52 -0.01c0,-0.01 0,-0.01 0,-0.01 0,0.01 0,0.01 0,0.02 0,0 0,0 0,-0.01zm0.53 -0.03c0,-0.01 0,-0.02 0,-0.02 0,0.01 0,0.02 0,0.03 0,0.02 0,0.02 0,-0.01zm-0.54 0c0,-0.02 0.01,-0.03 0.03,-0.03 0.01,0.01 0.01,0.01 0,0.01 -0.02,0 -0.02,0.01 -0.03,0.02 0,0.01 0,0.01 0,0zm0.18 -0.02c0.06,-0.01 0.17,-0.01 0.23,0 0.07,0 0.02,0 -0.11,0 -0.13,0 -0.18,0 -0.12,0zm0.04 -0.19c-0.01,-0.01 -0.12,-0.39 -0.12,-0.4 0.01,0 0.03,0.09 0.06,0.19 0.06,0.22 0.05,0.21 0.12,0.2 0.04,0 0.04,0 0.05,-0.02 0.01,-0.02 0.01,-0.02 0.01,0 -0.01,0.01 -0.01,0.02 -0.01,0.02 -0.01,0.01 -0.1,0.01 -0.11,0.01l0 0zm-0.13 -0.07c-0.09,-0.09 -0.22,-0.25 -0.31,-0.39 -0.02,-0.04 0,-0.02 0.03,0.02 0.11,0.17 0.32,0.43 0.32,0.4 0,-0.01 -0.03,-0.05 -0.06,-0.11 -0.06,-0.12 -0.11,-0.21 -0.11,-0.22 0.01,0 0.02,0.03 0.04,0.07 0.02,0.04 0.06,0.12 0.09,0.17 0.06,0.11 0.06,0.13 0,0.06zm0.04 0.03c0,0 0,0 0,0 0,0 0,0 0,0 0,0 0,0 0,0 0,0 0,0 0,0zm0.28 0.01c0,-0.01 0.1,-0.19 0.1,-0.19 0.01,0 -0.02,0.05 -0.06,0.12 -0.03,0.07 -0.03,0.07 0.02,0.02 0.18,-0.19 0.34,-0.43 0.49,-0.73 0.09,-0.16 0.08,-0.15 0.04,-0.14 -0.04,0.02 -0.06,0.02 -0.03,0.01 0.01,0 0.02,-0.01 0.02,-0.02 0,0 0.01,0 0.01,0 0.02,0 0.04,-0.02 0.05,-0.04 0,-0.01 0.01,-0.03 0.01,-0.03 0.01,-0.01 0.08,-0.16 0.08,-0.17 0,0 0.01,-0.02 0.03,-0.05 0.01,-0.02 0.02,-0.05 0.02,-0.05 0,-0.01 0.03,-0.1 0.05,-0.14 0,-0.01 0.01,-0.03 0.01,-0.04 0.01,-0.01 0.02,-0.06 0.04,-0.11 0.03,-0.11 0.07,-0.24 0.09,-0.35 0.01,-0.08 0.01,-0.3 -0.01,-0.38 -0.01,-0.12 -0.01,-0.11 -0.01,-0.09 0.14,0.39 -0.13,1.27 -0.61,1.98 -0.14,0.21 -0.34,0.44 -0.34,0.4l0 0zm-0.07 -0.03c0,-0.01 0.04,-0.13 0.04,-0.13 0,0 0,0.03 -0.02,0.07 -0.01,0.06 -0.02,0.08 -0.02,0.06zm-0.4 -0.06c-0.06,-0.06 -0.13,-0.15 -0.19,-0.23 -0.07,-0.08 -0.12,-0.15 -0.12,-0.15 0,0 0.03,0.04 0.07,0.08 0.1,0.14 0.26,0.32 0.27,0.31 0,0 -0.03,-0.05 -0.07,-0.1 -0.09,-0.12 -0.26,-0.35 -0.21,-0.29 0.01,0.01 0.05,0.06 0.09,0.12 0.04,0.05 0.1,0.14 0.14,0.19 0.07,0.09 0.08,0.1 0.06,0.09 -0.01,-0.01 -0.01,-0.01 -0.01,0 0.01,0.01 0.01,0.01 0.02,0.01 0,-0.01 0.02,0.02 0.01,0.02 0,0.01 -0.03,-0.02 -0.06,-0.05l0 0zm0.61 0.05c0,-0.01 0.03,-0.04 0.12,-0.16 0.05,-0.06 0.15,-0.2 0.21,-0.29 0.02,-0.03 0.04,-0.06 0.04,-0.06 0.01,0 0,0 -0.04,0.07 -0.08,0.11 -0.1,0.14 -0.2,0.27 -0.12,0.16 -0.11,0.15 -0.1,0.15 0.02,0 0.47,-0.55 0.47,-0.58 0,-0.01 0.02,-0.04 0.05,-0.08 0.06,-0.1 0.17,-0.28 0.17,-0.29 0,-0.01 -0.01,-0.01 -0.02,0 -0.02,0.01 -0.02,0 0,-0.01 0.02,-0.02 0.04,-0.04 0.06,-0.09 0.02,-0.03 0.04,-0.08 0.05,-0.1 0.05,-0.1 0.08,-0.16 0.08,-0.17 0,0 0.01,-0.02 0.02,-0.04 0.01,-0.02 0.02,-0.05 0.02,-0.06 0.01,-0.02 0.02,-0.04 0.03,-0.06 0,-0.02 0.01,-0.04 0.02,-0.06 0,-0.02 0.01,-0.06 0.02,-0.09 0.03,-0.09 0.04,-0.15 0.06,-0.21 0,-0.02 0.01,-0.06 0.01,-0.08 0.03,-0.13 0,-0.38 -0.05,-0.52 -0.01,-0.02 -0.02,-0.04 -0.02,-0.04 0.01,-0.01 0.06,0.15 0.08,0.24 0.08,0.48 -0.25,1.27 -0.81,1.97 -0.13,0.17 -0.27,0.31 -0.27,0.29l0 0zm-0.17 -0.13c0,0 0.02,-0.07 0.04,-0.14 0.02,-0.07 0.04,-0.15 0.05,-0.18 0.01,-0.03 0.01,-0.06 0.01,-0.05 0.01,0 -0.01,0.07 -0.04,0.16 -0.04,0.16 -0.06,0.22 -0.06,0.21zm0.14 -0.03c0,0 0,-0.01 0.01,-0.03 0.03,-0.05 0.14,-0.28 0.19,-0.41 0.2,-0.44 0.3,-0.79 0.36,-1.18 0.01,-0.1 0.02,-0.22 0.01,-0.34 0,-0.07 0,-0.12 0.01,-0.11 0.01,0.07 0,0.39 -0.02,0.53 -0.02,0.11 -0.03,0.15 -0.04,0.18 0,0.01 -0.01,0.05 -0.01,0.07 -0.01,0.02 -0.02,0.06 -0.02,0.09 -0.01,0.03 -0.02,0.06 -0.02,0.07 0,0 -0.01,0.03 -0.01,0.05 -0.01,0.02 -0.02,0.04 -0.02,0.05 0,0.01 -0.01,0.03 -0.01,0.05 -0.01,0.02 -0.03,0.06 -0.03,0.09 -0.03,0.07 -0.06,0.18 -0.07,0.2 -0.01,0.02 0.02,0.01 0.05,-0.01 0.02,-0.01 0.04,-0.01 0.04,0 0,0 -0.02,0.01 -0.05,0.02 -0.06,0.02 -0.06,0.02 -0.08,0.07 -0.01,0.02 -0.03,0.06 -0.04,0.08 -0.01,0.03 -0.02,0.05 -0.02,0.05 0,0.01 -0.11,0.24 -0.16,0.35 -0.05,0.1 -0.07,0.15 -0.07,0.13l0 0zm-0.56 -0.15c0,0 0,0 0,0 0,0 0,0 0,0 0,0 0,0 0,0 0,0 0,0 0,0zm-0.01 -0.01c0,0 0,0 0,0 0.01,0 0.01,0 0.01,0 0,0 0,0 -0.01,0 0,0 0,0 0,0zm-0.03 -0.06c-0.01,-0.02 -0.02,-0.04 -0.02,-0.05 0,0 0.01,0.02 0.03,0.05 0.01,0.02 0.02,0.05 0.02,0.05 0,0 -0.01,-0.02 -0.03,-0.05zm0.16 -0.02c-0.01,-0.04 -0.01,-0.07 -0.01,-0.07 0,0 0.01,0.03 0.02,0.06 0.01,0.04 0.01,0.07 0.01,0.07 0,0 -0.01,-0.03 -0.02,-0.06zm-0.32 -0.03c-0.02,-0.04 -0.03,-0.05 -0.02,-0.03 0.02,0.01 0.04,0.04 0.03,0.04 0,0 -0.01,0 -0.01,-0.01l0 0zm0.12 -0.03c-0.01,-0.04 -0.01,-0.04 0.01,-0.01 0.01,0.02 0.01,0.03 0.01,0.03 0,0 -0.01,-0.01 -0.02,-0.02l0 0zm-0.27 0.01c0,0 0,0 0,0 0.01,0 0.01,0.01 0.01,0.01 0,0 0,0 -0.01,-0.01l0 0zm0.07 0c0,0 0,0 0,0 0,0 0,0 0,0 0,0 0,0 0,0 0,0 0,0 0,0zm-0.08 -0.02c0,0 0,0 0,0 0.01,0.01 0.01,0.01 0.01,0.01 0,0 -0.01,0 -0.01,-0.01l0 0zm0.07 0c-0.01,0 0,0 0,0 0.01,0.01 0.01,0.01 0,0.01 0,0 0,0 0,-0.01l0 0zm0.39 -0.02c-0.01,-0.02 -0.01,-0.03 0,-0.03 0,0 0,0.01 0,0.02 0.01,0.03 0,0.03 0,0.01zm-0.41 0c0,0 0,0 0.01,0 0,0 0,0 0,0 0,0.01 0,0.01 0,0.01 -0.01,0 -0.01,0 -0.01,-0.01zm0.07 0c0,0 0,0 0,0 0.01,0 0.01,0 0.01,0 0,0.01 0,0.01 -0.01,0l0 0zm-0.08 -0.01c0,-0.01 0,-0.01 0,-0.01 0,0 0.01,0 0.01,0.01 0,0 -0.01,0 -0.01,0 0,0 0,0 0,0zm0.07 0c0,-0.01 0,-0.01 0.01,-0.01 0,0 0,0 0,0.01 0,0 0,0 0,0 -0.01,0 -0.01,0 -0.01,0zm0.15 -0.02c-0.02,-0.03 -0.01,-0.04 0,-0.01 0.01,0.01 0.01,0.03 0.01,0.03 0,0 -0.01,-0.01 -0.01,-0.02zm-0.29 0.01c0,0 0,0 0,0 0,0 0,0 0,0 0,0 0,0 0,0 0,0 0,0 0,0zm0.13 -0.01c0,0 0,-0.01 0.01,0 0,0 0,0 0,0 0,0.01 0,0.01 -0.01,0l0 0zm0.79 0c0,-0.01 0,-0.01 0,-0.01 0,0.01 0,0.01 0,0.02 0,0 0,-0.01 0,-0.01l0 0zm0.44 -0.02c0.04,-0.05 0.05,-0.06 0.05,-0.06 0,0 0,0.01 -0.01,0.02 -0.03,0.05 -0.04,0.06 -0.04,0.06 -0.01,0 0,-0.01 0,-0.02zm-0.88 0.01c0,-0.01 0,-0.01 0,-0.01 0,0.01 0,0.01 0,0.01 0,0.01 0,0 0,0l0 0zm-0.36 0c0,-0.01 0.01,-0.01 0.01,-0.01 0,0 0,0 0,0.01 0,0 0,0 0,0 0,0 -0.01,0 -0.01,0zm0.8 -0.01c0,-0.01 0.01,-0.05 0.02,-0.09 0.01,-0.05 0.02,-0.08 0.02,-0.07 0,0 0,0.04 -0.02,0.09 -0.01,0.04 -0.02,0.07 -0.02,0.07zm-0.95 -0.01c0,0 0,-0.01 0,-0.01 0,0 0,0.01 0,0.01 0,0 0,0 0,0 0,0 0,0 0,0zm0.07 0c0,0 0,-0.01 0,-0.01 0,0 0.01,0.01 0.01,0.01 0,0 -0.01,0 -0.01,0 0,0 0,0 0,0zm0.43 -0.01c0,-0.01 0,-0.01 0.01,0 0,0 0,0.01 0,0.01 -0.01,0 -0.01,0 -0.01,-0.01l0 0zm-0.2 0c-0.01,-0.02 -0.01,-0.02 0,-0.01 0.01,0 0.01,0.01 0.01,0.01 -0.01,0 -0.01,0 -0.01,0l0 0zm-0.24 -0.01c0,0 0,0 0,0 0,0 0,0 0,0 0,0 0,0 0,0 0,0 0,0 0,0zm-0.08 -0.01c0,0 0,0 0,0 0,0 0,0 0,0 0,0 0,0.01 0,0.01 0,0 0,-0.01 0,-0.01zm0.51 -0.01c0,-0.01 0,-0.02 0,-0.02 0,-0.01 0.01,0 0.01,0.01 0,0.03 0,0.03 -0.01,0.01zm-0.37 0.01c0,0 0.01,-0.01 0.01,-0.01 0,0 0,0.01 0,0.01 0,0 0,0 0,0 0,0 -0.01,0 -0.01,0zm0.17 -0.01c0,0 0,0 0,0 0,0 0,0 0,0 0,0 0,0 0,0 0,0 0,0 0,0zm1.17 -0.05c0.08,-0.13 0.2,-0.33 0.26,-0.45 0.14,-0.3 0.21,-0.52 0.26,-0.8 0.02,-0.1 0.01,-0.37 -0.01,-0.45 -0.01,-0.04 -0.01,-0.08 -0.02,-0.08 0,-0.01 0,-0.01 0.01,0 0.06,0.16 0.05,0.56 -0.02,0.77 0,0.01 0,0.03 -0.01,0.04 0,0.02 -0.01,0.04 -0.01,0.05 0,0.01 -0.01,0.02 -0.01,0.03 0,0.01 0,0.02 -0.01,0.04 -0.02,0.03 -0.03,0.08 -0.02,0.08 0.01,0 0.01,0.01 0.01,0.01 0,0 -0.01,0 -0.01,0 -0.01,0 -0.01,0 -0.02,0.02 -0.01,0.01 -0.01,0.03 -0.02,0.04 -0.01,0.01 -0.01,0.03 -0.01,0.03 0,0.01 -0.01,0.03 -0.02,0.05 0,0.01 -0.01,0.03 -0.01,0.03 0,0.01 -0.01,0.03 -0.03,0.07 -0.02,0.04 -0.03,0.06 -0.02,0.07 0,0.01 0,0.02 -0.01,0.02 0,0.01 0,0.01 0,0 0,0 -0.01,0 -0.01,0 -0.01,0 -0.03,0.04 -0.02,0.05 0,0 0.01,0 0.01,-0.01 0,-0.02 0.02,-0.02 0.02,-0.01 0,0.02 -0.02,0.04 -0.04,0.04 -0.01,0 -0.03,0.03 -0.02,0.03 0,0.01 0,0.01 -0.01,0.02 -0.02,0.01 -0.04,0.04 -0.07,0.1 -0.07,0.12 -0.13,0.22 -0.15,0.24 -0.01,0 0,-0.01 0.01,-0.03l0 0zm-1.18 0.02c0,0 0,0 0,0 0,0 0,0 0,0 0,0 0,0 0,0 0,0 0,0 0,0zm0.2 -0.01c0,-0.01 0.01,-0.01 0.01,-0.01 0,0.01 0,0.01 0,0.02 0,0 -0.01,-0.01 -0.01,-0.01l0 0zm-0.21 0c0,0 0,0 0,0 0.01,0 0.01,0 0.01,0 0,0 0,0 -0.01,0 0,0 0,0 0,0zm-0.02 -0.05c-0.02,-0.03 -0.12,-0.3 -0.12,-0.31 0,0 0,-0.01 -0.01,-0.02 -0.02,-0.04 -0.03,-0.08 -0.03,-0.1 -0.01,-0.02 0.01,0.01 0.02,0.06 0.05,0.13 0.13,0.35 0.15,0.38 0.01,0.01 0.01,0.03 0.01,0.03 0,0 -0.01,-0.02 -0.02,-0.04l0 0zm-0.22 -0.08c-0.09,-0.17 -0.24,-0.5 -0.23,-0.51 0.01,0 0.03,0.05 0.06,0.14 0.04,0.09 0.13,0.28 0.21,0.44 0.02,0.02 0.02,0.04 0.02,0.04 0,0 -0.03,-0.05 -0.06,-0.11zm0.43 0.02c-0.03,-0.16 -0.04,-0.2 -0.06,-0.32 -0.04,-0.22 -0.08,-0.46 -0.07,-0.47 0,0 0,0.03 0.01,0.06 0.01,0.08 0.03,0.24 0.04,0.3 0.02,0.1 0.04,0.2 0.05,0.24 0,0.02 0.02,0.09 0.03,0.15 0.01,0.06 0.02,0.11 0.02,0.12 0,0.01 -0.01,-0.03 -0.02,-0.08l0 0zm-0.46 0.08c-0.03,-0.04 -0.22,-0.37 -0.21,-0.38 0,0 0.01,0.02 0.02,0.05 0.05,0.08 0.12,0.2 0.16,0.27 0.04,0.07 0.04,0.08 0.03,0.06l0 0zm-0.09 -0.02c-0.02,-0.04 -0.14,-0.24 -0.15,-0.26 -0.02,-0.04 -0.01,-0.02 0.02,0.03 0.02,0.03 0.06,0.1 0.09,0.15 0.05,0.08 0.08,0.14 0.04,0.08zm1.08 -0.07c0,-0.02 0,-0.03 0.01,-0.04 0,0 0,-0.02 0,-0.03 0.01,-0.02 0.01,-0.05 0.02,-0.08 0,-0.02 0.01,-0.06 0.02,-0.08 0.01,-0.03 0.01,-0.07 0.02,-0.1 0,-0.02 0.01,-0.07 0.02,-0.11 0,-0.03 0.01,-0.07 0.01,-0.08 0.03,-0.13 0.07,-0.47 0.08,-0.76 0,-0.18 0,-0.18 0,0.02 -0.01,0.38 -0.04,0.64 -0.15,1.2 -0.02,0.1 -0.02,0.1 -0.03,0.06l0 0zm-0.03 -0.06c0,-0.01 0,-0.01 0,-0.02 0.01,0 0.01,0 0.01,0.01 0,0 0,0.01 -0.01,0.01 0,0 0,0 0,0zm0.49 -0.11c0,0 0,0 0,0 0,0 0,0 0,0 0,0 0,0.01 0,0.01 0,0 0,-0.01 0,-0.01zm-0.07 -0.02c0,-0.01 0.01,-0.02 0.01,-0.03 0,0 0.01,0.01 0.01,0.02 0,0.01 -0.01,0.02 -0.01,0.02 0,0 -0.01,0 -0.01,-0.01zm-1.65 -0.05c-0.01,-0.02 -0.02,-0.03 -0.02,-0.03 0.01,0 0.01,0.01 0.02,0.03 0.01,0.01 0.02,0.03 0.01,0.03 0,0 -0.01,-0.02 -0.01,-0.03zm-0.05 -0.08c-0.01,-0.03 -0.02,-0.05 -0.02,-0.05 0.01,0 0.02,0.02 0.03,0.05 0.01,0.02 0.02,0.04 0.02,0.04 0,0 -0.02,-0.02 -0.03,-0.04zm1.86 0.03c0,0 0,0 0,0 0,0 0,0.01 0,0.01 0,0 0,0 0,-0.01zm-1.76 -0.01c0,0 0,0 0,0 0,0 0,0 0,0 0,0 0,0 0,0 0,0 0,0 0,0zm-0.01 -0.01c0,-0.01 0,-0.01 0,-0.01 0.01,0 0.01,0 0.01,0.01 0,0 0,0 -0.01,0 0,0 0,0 0,0zm0 -0.02c0,0 0,0 0,0 0,0 0,0 0,0 0,0.01 0,0.01 0,0.01 0,0 0,0 0,-0.01zm-0.02 -0.03c0,-0.01 -0.01,-0.02 -0.01,-0.02 0.01,0 0.03,0.04 0.02,0.04 0,0 0,0 -0.01,-0.02zm1.81 0c0,-0.01 0,-0.01 0,-0.01 0,0 0.01,0 0.01,0.01 0,0 -0.01,0.01 -0.01,0.01 0,0 0,0 0,-0.01zm-1.9 -0.01c0,-0.01 0,-0.01 0,-0.01 0,0 0,0 0,0.01 0,0 0,0 0,0 0,0 0,0 0,0zm-0.02 -0.03c-0.01,-0.02 0,-0.03 0.01,-0.01 0,0.01 0.01,0.02 0,0.02 0,0 0,0 -0.01,-0.01l0 0zm0.09 0.01c0,0 0.01,0 0.01,0 0,0 0,0 0,0 0,0 0,0.01 0,0.01 0,0 -0.01,-0.01 -0.01,-0.01zm0.35 -0.01c0,0 0,0 0,0 0,0 0,0.01 0,0.01 0,0 0,0 0,-0.01zm-0.36 -0.01c0,-0.01 0,-0.01 0,-0.01 0,-0.01 0,0 0.01,0.01 0.01,0.02 0,0.02 -0.01,0zm0.34 -0.03c0,-0.02 -0.01,-0.05 -0.02,-0.07 0,-0.01 -0.01,-0.03 -0.01,-0.03 0.01,-0.01 0.02,0.02 0.03,0.06 0.01,0.04 0.01,0.07 0.01,0.07 0,0 0,-0.01 -0.01,-0.03zm-0.44 -0.02c-0.02,-0.05 -0.02,-0.05 0,-0.01 0.01,0.02 0.02,0.04 0.02,0.04 -0.01,0 -0.01,-0.01 -0.02,-0.03zm0.09 0.01c-0.01,-0.02 -0.01,-0.03 0,0 0,0 0.01,0.01 0.01,0.01 -0.01,0.01 -0.01,0 -0.01,-0.01l0 0zm-0.02 -0.03c0,0 0,0 0.01,0 0,0 0,0 0,0 0,0 0,0 0,0 -0.01,0 -0.01,0 -0.01,0zm2.14 -0.02c0,-0.02 0,-0.02 0.01,-0.02 0.01,0 0.01,0 0,0.02 0,0.03 -0.01,0.03 -0.01,0zm-2.15 0c0,-0.01 0,-0.02 0.01,0 0,0 0,0.01 0,0.01 0,0 0,0 -0.01,-0.01zm-0.09 -0.01c0,0 0.01,0 0.01,0 0,0 0,0 0,0 0,0 0,0 0,0 0,0 -0.01,0 -0.01,0zm0 -0.02c-0.01,-0.01 -0.01,-0.02 0,0 0,0 0,0.01 0,0.01 0,0 0,0 0,-0.01l0 0zm0.08 0.01c0,0 0.01,0 0.01,0 0,0 0,0 0,0 0,0 0,0 0,0 0,0 -0.01,0 -0.01,0zm0.11 -0.04c-0.02,-0.05 -0.02,-0.06 -0.01,-0.04 0.01,0.02 0.03,0.07 0.03,0.07 0,0.01 -0.01,-0.01 -0.02,-0.03zm-0.12 0.02c-0.01,-0.03 -0.01,-0.05 0,-0.02 0.01,0.01 0.01,0.03 0.01,0.03 0,0 0,0 -0.01,-0.01l0 0zm-0.08 -0.01c0,0 0,0 0,0 0,0 0,0 0,0 0,0 0,0 0,0 0,0 0,0 0,0zm2.28 -0.01c-0.01,-0.01 0,-0.02 0.01,-0.02 0.01,0 0.01,0.02 0,0.02 -0.01,0.01 -0.01,0.01 -0.01,0zm-1.84 -0.03c-0.01,-0.03 -0.01,-0.05 -0.01,-0.05 0,0 0.01,0.02 0.01,0.04 0.01,0.02 0.01,0.04 0.01,0.04 0,0 -0.01,-0.01 -0.01,-0.03zm-0.45 0.03c0,-0.01 0,-0.01 0,-0.01 0.01,0 0.01,0 0.01,0.01 0,0 0,0 -0.01,0 0,0 0,0 0,0zm-0.01 -0.02c0,-0.02 0,-0.02 0.01,-0.01 0,0.01 0,0.01 0,0.02 0,0 -0.01,-0.01 -0.01,-0.01zm0.08 -0.01c0,-0.01 0,-0.01 0.01,-0.01 0,0 0,0 0,0.01 0,0 0,0 0,0 -0.01,0 -0.01,0 -0.01,0zm-0.09 -0.02c0,0 0,0 0.01,0 0,0 0,0 0,0 0,0.01 0,0.01 0,0.01 -0.01,0 -0.01,0 -0.01,-0.01zm0.08 -0.01c0,-0.01 0,-0.02 0,-0.02 0,-0.01 0,0 0.01,0.01 0,0.01 0,0.02 0,0.03 0,0 0,-0.01 -0.01,-0.02zm-0.08 0c0,-0.01 0,-0.01 0,-0.01 0,0.01 0,0.01 0,0.01 0,0 0,0 0,0zm0.21 -0.01c0,0 0,0 0,0 0.01,0 0.01,0 0,0.01 0,0 0,0 0,-0.01zm-0.22 -0.01c0,0 0,0 0,0 0,0 0.01,0 0.01,0 0,0.01 -0.01,0.01 -0.01,0.01 0,0 0,0 0,-0.01zm0.21 -0.02c-0.01,-0.01 -0.01,-0.02 -0.01,-0.02 0,0 0.01,0.01 0.01,0.02 0.01,0.01 0.01,0.02 0.01,0.02 0,0 -0.01,-0.01 -0.01,-0.02zm-0.22 0.01c0,-0.01 0.01,-0.01 0.01,-0.01 0,0.01 0,0.01 0,0.01 0,0 -0.01,0 -0.01,0zm0.47 -0.03c-0.01,-0.02 -0.01,-0.03 -0.01,-0.04 0,0 0.01,0.02 0.01,0.03 0.01,0.02 0.01,0.04 0.01,0.04 0,0 -0.01,-0.02 -0.01,-0.03zm-0.38 0.02c0,0 0,0 0,0 0,0 0.01,0 0.01,0 0,0 -0.01,0 -0.01,0 0,0 0,0 0,0zm-0.09 -0.01c0,0 0,0 0,0 0,0 0,0 0,0 0,0 0,0.01 0,0.01 0,0 0,-0.01 0,-0.01zm2.37 0c0,0 0,-0.01 0.01,-0.01 0,0 0,0.01 0,0.01 0,0 0,0 0,0 -0.01,0 -0.01,0 -0.01,0zm-2.38 -0.01c0,-0.01 0,-0.01 0.01,-0.01 0,0.01 0,0.01 0,0.01 -0.01,0 -0.01,0 -0.01,0zm0.09 0c0,0 0,0 0.01,0 0,0 0,0 0,0 0,0 0,0 0,0 -0.01,0 -0.01,0 -0.01,0zm0 -0.01c0,-0.01 0,-0.01 0,-0.01 0,0 0,0.01 0,0.01 0,0 0,0 0,0zm-0.09 -0.01c0,0 0,0 0,0 0,0 0,0 0,0 0,0 0,0.01 0,0.01 0,0 0,-0.01 0,-0.01zm0.21 0c0,0 0.01,0 0.01,0 0,0 0,0 0,0 0,0 0,0.01 0,0.01 0,0 -0.01,-0.01 -0.01,-0.01zm-0.13 -0.01c0,0 0,0 0,0 0.01,0 0.01,0 0.01,0 0,0 0,0 -0.01,0 0,0 0,0 0,0zm0.13 -0.01c0,0 0,0 0,0 0,0 0,0 0,0 0,0.01 0,0.01 0,0.01 0,0 0,0 0,-0.01zm-0.23 -0.01c0,0 0,0 0.01,0 0,0 0,0 0,0 0,0 0,0.01 0,0.01 -0.01,0 -0.01,-0.01 -0.01,-0.01zm0.09 0c0,0 0.01,0 0.01,0 0,0 0,0 0,0 0,0 0,0.01 0,0.01 0,0 -0.01,-0.01 -0.01,-0.01zm0.4 -0.01c0,-0.01 0,-0.01 0,0 0,0 0,0.01 0,0.01 0,0 0,0 0,-0.01zm-0.27 0.01c0,-0.01 0,-0.01 0.01,-0.01 0,0 0,0 0,0.01 0,0 0,0 0,0 -0.01,0 -0.01,0 -0.01,0zm-0.22 -0.02c0,0 0,0 0,0 0,0 0,0 0,0 0,0.01 0,0.01 0,0.01 0,0 0,0 0,-0.01zm0.09 0c0,0 0,0 0,0 0,0 0,0 0,0 0,0.01 0,0.01 0,0.01 0,0 0,0 0,-0.01zm0.13 0c0,0 0,-0.01 0,-0.01 0,0 0,0.01 0,0.01 0,0 0,0 0,0 0,0 0,0 0,0zm0.26 -0.01c0,-0.01 0,-0.01 0,-0.01 0,0.01 0,0.01 0,0.01 0,0.01 0,0 0,0l0 0zm-0.49 0c0,-0.01 0,-0.01 0,-0.01 0.01,0 0.01,0 0.01,0.01 0,0 0,0 -0.01,0 0,0 0,0 0,0zm0.09 0c0,-0.01 0,-0.01 0.01,-0.01 0,0 0,0 0,0.01 0,0 0,0 0,0 -0.01,0 -0.01,0 -0.01,0zm0.13 -0.01c0,-0.01 0,-0.01 0,-0.01 0.01,0 0.01,0.01 0,0.01 0,0 0,0 0,0zm-0.22 -0.01c0,0 0,-0.01 0,-0.01 0,0 0,0.01 0,0.01 0,0 0,0 0,0 0,0 0,0 0,0zm0.09 -0.01c0,0 0,0 0,0 0,0 0,0.01 0,0.01 0,0 0,0 0,-0.01zm0.74 -0.02c0,-0.01 0,-0.02 0,-0.01 0.01,0.01 0.01,0.02 0,0.03 0,0 0,0 0,-0.02l0 0zm-0.62 0.02c0,-0.01 0.01,-0.01 0.01,-0.01 0,0 0,0 0,0.01 0,0 0,0 0,0 0,0 -0.01,0 -0.01,0zm0.27 -0.02c0,0 0,-0.01 0,-0.02 0,-0.01 0,0 0,0.01 0.01,0.03 0.01,0.04 0,0.01l0 0zm-0.49 0.01c0,0 0,0 0,0 0,0 0.01,0 0.01,0 0,0 -0.01,0 -0.01,0 0,0 0,0 0,0zm0.09 0c0,-0.01 0,-0.01 0,-0.01 0.01,0 0.01,0.01 0,0.01 0,0 0,0 0,0zm0.13 -0.02c0,0 0,0 0,0 0,0 0,0.01 0,0.01 0,0 0,0 0,-0.01zm-0.23 0c0,0 0,0 0.01,0 0,0 0,0 0,0 0,0 0,0 0,0 -0.01,0 -0.01,0 -0.01,0zm0.09 0c0,-0.01 0.01,-0.01 0.01,-0.01 0,0.01 0,0.01 0,0.01 0,0 -0.01,0 -0.01,0zm0.13 -0.01c0,-0.01 0,-0.01 0.01,-0.01 0,0 0,0.01 0,0.01 -0.01,0 -0.01,0 -0.01,0zm-0.22 -0.01c0,0 0,0 0,0 0,0 0,0 0,0 0,0 0,0.01 0,0.01 0,0 0,-0.01 0,-0.01zm0.09 0c0,-0.01 0,-0.01 0,-0.01 0,0 0,0 0,0.01 0,0 0,0 0,0 0,0 0,0 0,0zm0.75 -0.06c0,-0.03 0,-0.06 0,-0.06 0,0 0,0.02 0.01,0.06 0,0.03 0,0.06 0,0.06 0,0 -0.01,-0.03 -0.01,-0.06zm-0.85 0.04c0,0 0,0 0,0 0.01,0 0.01,0 0.01,0 0,0.01 0,0.01 -0.01,0.01 0,0 0,0 0,-0.01zm0.23 0c0,0 0,-0.01 0,0 0,0 0,0 0,0.01 0,0 0,0 0,-0.01zm0.27 0c0,0 0,-0.01 0,0 0.01,0 0.01,0 0,0.01 0,0 0,0 0,-0.01zm-0.51 -0.02c0,0 0.01,0 0.01,0 0,0 0,0 0,0.01 0,0 -0.01,0 -0.01,-0.01zm0.23 0c0,-0.01 0,-0.01 0,-0.01 0.01,0.01 0.01,0.01 0,0.01 0,0 0,0 0,0zm0.27 -0.02c0,0 0.01,0 0.01,0 0,0 0,0.01 0,0.01 0,0 -0.01,0 -0.01,-0.01zm-0.5 0c0,0 0,0 0,0 0,0 0,0 0,0 0,0 0,0 0,0 0,0 0,0 0,0zm0.22 0c0,-0.01 0.01,-0.01 0.01,-0.01 0,0 0,0 0,0.01 0,0 0,0 0,0 0,0 -0.01,0 -0.01,0zm-0.13 -0.01c0,0 0,0 0,0 0,0 0.01,0 0.01,0 0,0 -0.01,0 -0.01,0 0,0 0,0 0,0zm0.13 -0.02c0,-0.01 0,-0.01 0,-0.01 0,0.01 0,0.01 0,0.01 0,0 0,0 0,0zm0.28 0c0,-0.01 0,-0.01 0,-0.01 0,0.01 0,0.01 0,0.01 0,0 0,0 0,0zm-0.42 0c0,-0.01 0.01,-0.01 0.01,-0.01 0,0 0,0 0,0.01 0,0 0,0 0,0 0,0 -0.01,0 -0.01,0zm-0.09 -0.01c0,0 0,0 0,0 0,0 0,0 0,0 0,0 0,0 0,0 0,0 0,0 0,0zm0.22 -0.01c0,0 0,-0.01 0,-0.01 0.01,0 0.01,0.01 0.01,0.01 0,0 0,0 -0.01,0 0,0 0,0 0,0zm-0.13 -0.01c0,0 0,0 0,0 0,0 0,0 0,0 0,0 0,0 0,0 0,0 0,0 0,0zm0.41 -0.01c0,0 0,0 0.01,0 0,0 0,0.01 0,0.01 -0.01,0 -0.01,0 -0.01,-0.01l0 0zm-0.51 0c0,0 0,0 0,0 0.01,0 0.01,0 0,0.01 0,0 0,0 0,-0.01zm0.23 -0.01c0,0 0,-0.01 0,0 0,0 0,0 0,0 0,0.01 0,0 0,0zm0.64 -0.03c0,-0.02 0,-0.03 0.01,-0.02 0,0.01 0,0.03 0,0.04 -0.01,0.01 -0.01,0 -0.01,-0.02l0 0zm-0.78 0.03c0,-0.01 0,-0.01 0,-0.01 0.01,0 0.01,0 0.01,0.01 0,0 0,0 -0.01,0 0,0 0,0 0,0zm-0.1 -0.01c0,-0.01 0.01,-0.01 0.01,-0.01 0,0.01 0,0.01 0,0.01 0,0 -0.01,0 -0.01,0zm0.23 -0.02c0,0 0,0 0,0 0,0 0.01,0 0.01,0 0,0 -0.01,0.01 -0.01,0.01 0,0 0,-0.01 0,-0.01zm0.29 0c0,-0.01 0,-0.01 0,-0.01 0,0.01 0,0.01 0,0.01 0,0.01 0,0 0,0l0 0zm-0.42 0c0,-0.01 0,-0.01 0,-0.01 0,0 0,0 0,0.01 0,0 0,0 0,0 0,0 0,0 0,0zm0.12 -0.03c0,-0.01 0.01,-0.01 0.01,-0.01 0,0.01 0,0.01 0,0.01 0,0 -0.01,0 -0.01,0zm-0.23 0c0,-0.01 0,-0.01 0.01,-0.01 0,0 0,0 0,0.01 0,0 0,0 0,0 -0.01,0 -0.01,0 -0.01,0zm0.1 0c0,-0.01 0,-0.01 0,-0.01 0,0 0.01,0 0.01,0.01 0,0 -0.01,0 -0.01,0 0,0 0,0 0,0zm0.42 -0.03c0,0 0,-0.01 0,0 0.01,0 0.01,0.01 0,0.01 0,0.01 0,0 0,-0.01zm0.37 -0.04c0,-0.02 0,-0.02 0,-0.01 0,0.01 0,0.03 0,0.03 0,0.01 0,0 0,-0.02l0 0zm-0.8 0.03c0,0 0,0 0.01,0 0,0 0,0 0,0 0,0 0,0 0,0 -0.01,0 -0.01,0 -0.01,0zm-0.1 -0.03c0,0 0,0 0,0 0,0 0.01,0 0.01,0 0,0.01 -0.01,0.01 -0.01,0.01 0,0 0,0 0,-0.01zm0.52 -0.02c0,-0.01 0.01,-0.01 0.01,-0.01 0,0.01 0,0.02 0,0.02 0,0.01 -0.01,0 -0.01,-0.01zm-0.43 -0.08c0,-0.01 0,-0.01 0,-0.01 0,0 0,0 0,0.01 0,0 0,0 0,0 0,0 0,0 0,0zm0.43 -0.01c0,-0.01 0,-0.01 0,-0.01 0,0.01 0,0.01 0,0.02 0,0 0,-0.01 0,-0.01l0 0zm0.37 -0.09c0,-0.03 0,-0.04 0,-0.02 0,0.01 0,0.04 0,0.06 0,0.01 0,0 0,-0.04zm-0.37 -0.09c0,-0.01 0,-0.01 0,-0.01 0,0 0,0 0,0.01 0,0 0,0 0,0 0,0 0,0 0,0zm1.24 -0.1c0,-0.02 0,-0.03 0,-0.02 0.01,0.01 0.01,0.03 0,0.04 0,0.01 0,0 0,-0.02l0 0zm-0.87 0.01c0,-0.01 0.01,-0.01 0.01,-0.01 0,0.01 0,0.01 0,0.01 0,0 -0.01,0 -0.01,0zm1.25 -0.07c-0.01,-0.03 -0.01,-0.06 -0.01,-0.07 0,-0.01 0,-0.01 0,0.01 0.01,0.03 0.02,0.11 0.02,0.11 0,0 -0.01,-0.02 -0.01,-0.05l0 0zm-0.38 -0.04c0,-0.02 0,-0.02 0,-0.01 0,0.01 0,0.02 0,0.03 0,0.01 0,0 0,-0.02l0 0zm-0.86 0.02c0,0 0,0 0,0 0.01,0 0.01,0 0.01,0 0,0 0,0 -0.01,0 0,0 0,0 0,0zm1.49 -0.1c-0.01,-0.03 -0.01,-0.06 -0.01,-0.06 0,0 0.04,0.11 0.04,0.12 -0.01,0 -0.01,-0.02 -0.03,-0.06l0 0zm-0.64 0.03c0,-0.01 0,-0.02 0,-0.01 0,0.01 0,0.01 0,0.02 0,0 0,0 0,-0.01zm-0.84 0c0,0 0,0 0,0 0,0 0,0 0,0 0,0 0,0.01 0,0.01 0,0 0,-0.01 0,-0.01zm1.2 -0.03c0,-0.02 0,-0.03 0,-0.04 0,0 0,0.02 0.01,0.03 0,0.02 0,0.04 0,0.04 0,0 0,-0.01 -0.01,-0.03zm-0.37 -0.02c0,-0.01 0,-0.02 0.01,-0.01 0,0.01 0,0.01 0,0.02 -0.01,0 -0.01,0 -0.01,-0.01zm0.79 -0.03c0,-0.02 -0.01,-0.04 -0.01,-0.04 0,0 0.01,0.01 0.02,0.03 0.01,0.02 0.01,0.04 0.01,0.04 0,0.01 -0.01,-0.01 -0.02,-0.03zm-0.43 0c0,-0.01 0,-0.01 0,-0.01 0.01,0.01 0.01,0.01 0,0.02 0,0 0,-0.01 0,-0.01l0 0zm-0.36 -0.01c0,-0.01 0,-0.01 0,-0.01 0,0.01 0,0.01 0,0.02 0,0 0,0 0,-0.01zm0.35 -0.01c0,-0.01 0.01,-0.01 0.01,-0.01 0,0 0,0.01 0,0.01 0,0 -0.01,0 -0.01,0zm0.28 0c0,-0.01 0,-0.01 0,-0.01 0,0 0,0.01 0,0.01 0,0 0,0 0,0zm0.23 -0.03c-0.01,-0.01 -0.01,-0.02 -0.01,-0.02 0,0 0.02,0.03 0.02,0.04 0,0 -0.01,-0.01 -0.01,-0.02zm-0.51 0.01c0,-0.01 0,-0.01 0,-0.01 0,0.01 0,0.01 0,0.01 0,0 0,0 0,0zm0.27 0c0,0 0,0 0.01,0 0,0 0,0 0,0 0,0 0,0 0,0 -0.01,0 -0.01,0 -0.01,0zm-0.63 -0.01c0,-0.01 0,-0.01 0,-0.01 0.01,0 0.01,0.01 0,0.01 0,0 0,0 0,0zm0.62 -0.01c0,-0.01 0,-0.02 0.01,0 0,0 0,0.01 0,0.01 0,0 0,0 -0.01,-0.01l0 0zm0.16 0c-0.01,-0.03 -0.01,-0.03 0,-0.01 0.01,0.01 0.01,0.02 0.01,0.02 0,0 -0.01,0 -0.01,-0.01l0 0zm-0.43 0c0,0 0,-0.01 0.01,0 0,0 0,0 0,0 -0.01,0.01 -0.01,0 -0.01,0zm0 -0.02c0,0 0,0 0,0 0,0 0,0 0,0.01 0,0 0,0 0,-0.01zm-1.15 0c0,0 0,0 0,0 0.01,0 0.01,0 0.01,0 0,0 0,0 -0.01,0 0,0 0,0 0,0zm1.41 0c0,0 0.01,0 0.01,0 0,0 0,0 0,0 0,0 0,0 0,0 0,0 -0.01,0 -0.01,0zm0.23 -0.02c-0.01,-0.02 -0.01,-0.03 -0.01,-0.03 0,0 0.01,0.01 0.02,0.03 0,0.01 0.01,0.02 0,0.02 0,0 0,-0.01 -0.01,-0.02zm-0.85 0.01c0,-0.01 0.01,-0.01 0.01,-0.01 0,0.01 0,0.01 0,0.01 -0.01,0.01 -0.01,0 -0.01,0l0 0zm0.35 -0.01c0,0 0,0 0,0 0.01,0 0.01,0.01 0,0.01 0,0 0,0 0,-0.01zm0.27 0.01c0,-0.01 0,-0.01 0,-0.01 0,0 0,0 0,0.01 0,0 0,0 0,0 0,0 0,0 0,0zm0.15 -0.01c0,0 0,0 0,-0.01 0,0 0.01,0 0.01,0.01 0,0.01 0,0.01 -0.01,0zm-0.16 -0.01c0,-0.01 0,-0.01 0,-0.01 0.01,0.01 0.01,0.01 0.01,0.01 -0.01,0.01 -0.01,0 -0.01,0l0 0zm-0.27 0c0,0 0.01,0 0.01,0 0,0 0,0 0,0 0,0 0,0 0,0 0,0 -0.01,0 -0.01,0zm0.41 -0.03c-0.01,-0.01 -0.01,-0.02 -0.01,-0.02 0,0 0.01,0.01 0.02,0.02 0,0.01 0.01,0.03 0.01,0.03 0,0 -0.01,-0.02 -0.02,-0.03zm-0.75 0.01c0,0 0,0 0,0 0,0 0,0 0,0.01 0,0 0,0 0,-0.01zm0.34 0c0,0 0,0 0,0 0,0 0,0 0,0.01 0,0 0,0 0,-0.01zm0.26 0c0,0 0,0 0,0 0,0 0.01,0 0.01,0 0,0 -0.01,0 -0.01,0 0,0 0,0 0,0zm0.23 -0.01c-0.01,0 0,-0.01 0,0 0.01,0 0.01,0.01 0,0.01 0,0 0,-0.01 0,-0.01l0 0zm-0.5 0c0,0 0,-0.01 0,-0.01 0.01,0 0.01,0.01 0.01,0.01 0,0 0,0 -0.01,0 0,0 0,0 0,0zm0.26 0c0,0 0,-0.01 0.01,-0.01 0,0 0,0.01 0,0.01 0,0 0,0 0,0 -0.01,0 -0.01,0 -0.01,0zm-0.6 -0.01c0,-0.01 0,-0.01 0,-0.01 0.01,0 0.01,0 0.01,0.01 0,0 0,0 -0.01,0 0,0 0,0 0,0zm0.34 0c0,-0.01 0,-0.01 0,-0.01 0,0 0,0 0,0.01 0,0 0,0 0,0 0,0 0,0 0,0zm0.25 -0.01c0,-0.01 0,-0.02 0,-0.02 0,0 0,0.01 0.01,0.02 0,0 0,0.01 0,0.01 0,0 -0.01,-0.01 -0.01,-0.01zm0.23 -0.01c-0.01,-0.01 -0.01,-0.01 0,-0.01 0,0.01 0.02,0.03 0.01,0.03 0,0 0,-0.01 -0.01,-0.02l0 0zm-0.08 -0.01c0,0 0,0 0,0 0.01,0 0.01,0.01 0.01,0.01 0,0 -0.01,0 -0.01,-0.01l0 0zm-0.75 0c0,-0.01 0.01,-0.01 0.01,-0.01 0,0.01 0,0.01 0,0.01 0,0 -0.01,0 -0.01,0zm0.33 0c0,-0.01 0,-0.01 0.01,-0.01 0,0 0,0 0,0.01 0,0 0,0 0,0 -0.01,0 -0.01,0 -0.01,0zm0.26 0c0,-0.01 0,-0.01 0,-0.01 0,0 0.01,0 0.01,0.01 0,0 -0.01,0 -0.01,0 0,0 0,0 0,0zm0.15 -0.01c0,0 0,0 0,0 0.01,0 0.01,0 0.01,0 0,0 0,0 -0.01,0 0,0 0,0 0,0zm0.07 0c0,-0.01 0,-0.01 0,-0.01 0.01,0.01 0.01,0.01 0.01,0.01 0,0 -0.01,0 -0.01,0l0 0zm-0.48 -0.01c0,0 0,0 0,0 0,0 0,0 0,0 0,0 0,0.01 0,0.01 0,0 0,-0.01 0,-0.01zm0.25 0c0,0 0,0 0.01,0 0,0 0,0 0,0 0,0 0,0.01 0,0.01 -0.01,0 -0.01,-0.01 -0.01,-0.01zm0.15 -0.01c0,0 0,0 0,0 0.01,0 0.01,0.01 0.01,0.01 0,0 -0.01,0 -0.01,-0.01l0 0zm-0.41 0c0,0 0,0 0,0 0.01,0 0.01,0 0.01,0 0,0 0,0 -0.01,0 0,0 0,0 0,0zm0.25 -0.01c0,0 0,0 0,0 0.01,0 0.01,0 0.01,0 0,0.01 0,0.01 -0.01,0.01 0,0 0,0 0,-0.01zm0.22 0c-0.01,-0.01 -0.01,-0.01 0,-0.01 0.01,0.01 0.01,0.02 0.01,0.02 0,0 -0.01,-0.01 -0.01,-0.01zm-0.47 0c0,0 0,0 0,0 0,0 0,0 0,0 0,0 0,0 0,0 0,0 0,0 0,0zm0.4 -0.01c0,0 0,0 0,0 0.01,0 0.01,0.01 0.01,0.01 0,0 -0.01,0 -0.01,-0.01l0 0zm-0.41 0c0,-0.01 0,-0.01 0,-0.01 0,0 0.01,0 0.01,0.01 0,0 -0.01,0 -0.01,0 0,0 0,0 0,0zm0.24 -0.01c0,0 0,0 0.01,0 0,0 0.01,0.01 0,0.01 0,0 0,0 -0.01,-0.01l0 0zm0.16 0c-0.01,-0.01 0,-0.01 0,-0.01 0.01,0.01 0.01,0.01 0,0.01 0,0 0,0 0,0l0 0zm0.06 -0.01c-0.02,-0.02 -0.02,-0.02 0,-0.01 0.01,0.01 0.01,0.02 0.01,0.02 0,0.01 0,0 -0.01,-0.01l0 0zm-0.47 0c0,0 0,0 0.01,0 0,0 0,0 0,0 0,0.01 0,0.01 0,0.01 -0.01,0 -0.01,0 -0.01,-0.01zm-0.31 0c0,0 0,0 0,0 0,0 0,0 0,0 0,0 0,0 0,0 0,0 0,0 0,0zm0.56 0c0,0 0,0 0,0 0,0 0,0 0,0 0,0 0,0 0,0 0,0 0,0 0,0zm-0.25 -0.01c0,0 0,0 0,0 0,0 0,0 0,0 0,0 0,0.01 0,0.01 0,0 0,-0.01 0,-0.01zm0.39 -0.01c-0.01,-0.01 -0.01,-0.01 0,0 0.01,0 0.01,0.01 0.01,0.01 0,0 -0.01,-0.01 -0.01,-0.01zm-0.71 0c0,0 0,0 0,0 0,0 0.01,0 0.01,0 0,0 -0.01,0 -0.01,0 0,0 0,0 0,0zm0.55 -0.01c-0.01,-0.01 -0.01,-0.01 0,0 0.01,0.01 0.01,0.01 0.01,0.01 0,0 -0.01,0 -0.01,-0.01zm-0.25 -0.01c0,0 0,0 0,0 0,0 0,0 0,0 0,0 0,0 0,0 0,0 0,0 0,0zm0.38 -0.01c-0.01,-0.01 -0.01,-0.01 0.01,0 0,0.01 0.01,0.01 0.01,0.01 0,0.01 0,0 -0.02,-0.01zm-0.15 0c0,0 0,0 0.01,0 0,0 0,0.01 0,0.01 0,0 -0.01,0 -0.01,-0.01l0 0zm0.2 -0.01c-0.02,-0.03 -0.02,-0.03 0,-0.01 0.02,0.02 0.03,0.03 0.02,0.03 0,0 -0.01,-0.01 -0.02,-0.02l0 0zm-0.45 -0.01c0,0 0,0 0,0 0.01,0 0.01,0 0.01,0 0,0 0,0 -0.01,0 0,0 0,0 0,0zm-0.3 0c0,-0.01 0,-0.01 0.01,-0.01 0,0 0,0 0,0.01 0,0 0,0 0,0 -0.01,0 -0.01,0 -0.01,0zm0.53 -0.01c0,0 0,0 0,0 0,0 0.01,0 0.01,0.01 0,0 -0.01,0 -0.01,-0.01l0 0zm-0.24 -0.01c0,0 0,0 0,0 0,0 0,0 0,0 0,0 0,0.01 0,0.01 0,0 0,-0.01 0,-0.01zm0.34 -0.04c-0.04,-0.04 -0.04,-0.04 0,0 0.04,0.04 0.05,0.05 0.05,0.05 0,0 -0.02,-0.02 -0.05,-0.05l0 0zm-0.35 0.02c0,0 0,0 0,0 0,0 0,0 0,0 0,0.01 0,0.01 0,0.01 0,0 0,0 0,-0.01zm0.41 -0.01c-0.02,-0.02 -0.02,-0.02 0,0 0.01,0 0.01,0.01 0.01,0.01 0,0 0,0 -0.01,-0.01zm-0.23 -0.03c-0.02,-0.02 -0.02,-0.02 0.01,0 0.01,0.01 0.02,0.02 0.02,0.02 0,0.01 -0.01,0 -0.03,-0.02l0 0zm0.19 0c0,-0.01 0,-0.01 0,0 0.01,0 0.01,0.01 0.01,0.01 0,0 -0.01,-0.01 -0.01,-0.01l0 0zm-0.41 0c0,-0.01 0,-0.01 0,-0.01 0,0 0.01,0 0.01,0.01 0,0 -0.01,0 -0.01,0 0,0 0,0 0,0zm0.39 -0.02c-0.01,0 -0.01,-0.01 0,0 0.01,0 0.01,0.01 0,0.01 0,0 0,-0.01 0,-0.01l0 0zm-0.42 -0.02c0,0 0,0 0,0 0.01,0 0.01,0.01 0.01,0.01 0,0 -0.01,0 -0.01,-0.01l0 0zm0.39 0.01c0,-0.01 0.01,-0.01 0.01,-0.01 0,0 0,0 0,0.01 0,0 0,0 0,0 0,0 -0.01,0 -0.01,0zm-0.04 -0.01c0,-0.01 0,-0.01 0,-0.01 0.01,0.01 0.01,0.01 0.01,0.01 -0.01,0 -0.01,0 -0.01,0l0 0zm0.03 -0.01c0,0 0,0 0,0 0,0 0,0 0,0 0,0.01 0,0.01 0,0.01 0,0 0,-0.01 0,-0.01zm-0.19 -0.01c0,0 0,0 0,0 0.01,0 0.01,0.01 0.01,0.01 0,0 -0.01,0 -0.01,-0.01l0 0zm0.17 0c0,0 0,0 0,0 0,0 0,0 0,0 0,0 0,0 0,0 0,0 0,0 0,0zm-0.2 -0.02c0,0 0,-0.01 0,-0.01 0,0 0,0.01 0,0.01 0,0 0,0 0,0 0,0 0,0 0,0zm-0.07 -0.05c0,0 0,0 0,0 0.01,0 0.01,0 0.01,0 0,0 0,0 -0.01,0 0,0 0,0 0,0z"/>
 <path fill="#14B937" d="M1.86 3.81c0.04,0 0.1,0 0.14,0 0.03,0.01 0,0.01 -0.08,0.01 -0.07,0 -0.1,0 -0.06,-0.01l0 0zm0.31 -0.06c0,0 0,0 0,0 0,0 0.01,0 0.01,0 0,0.01 -0.01,0.01 -0.01,0.01 0,0 0,0 0,-0.01zm-0.4 -0.26c0.01,0 0.01,0 0.02,0 0,0 -0.01,0.01 -0.01,0.01 -0.01,0 -0.01,-0.01 -0.01,-0.01l0 0zm0.44 -1.04c-0.01,0 -0.03,-0.01 -0.04,-0.02 -0.02,0 -0.08,-0.02 -0.13,-0.03 -0.1,-0.03 -0.21,-0.06 -0.31,-0.09 -0.08,-0.02 -0.07,0 -0.09,-0.13 -0.01,-0.05 -0.02,-0.1 -0.03,-0.13 -0.01,-0.08 -0.03,-0.19 -0.03,-0.2 0,0 0.01,0.01 0.01,0.01 0,0.01 0,0.02 0,0.02 0.01,0 0.01,-0.01 0.01,-0.01 -0.01,-0.01 0,-0.01 0.02,-0.01 0.02,-0.01 0.02,-0.01 0.01,0 -0.01,0.02 -0.01,0.02 0.01,0.02 0.02,0 0.02,-0.01 0.02,-0.01 0,-0.01 0.01,-0.02 0.02,-0.02 0.01,-0.01 0.01,-0.01 0.01,0 0,0 0.01,0 0.02,0 0.02,0 0.03,0 0.03,-0.01 0,-0.01 -0.01,-0.01 -0.03,-0.01 -0.01,0 -0.02,0 -0.02,-0.01 -0.01,0 0.01,0 0.03,0 0.04,0 0.04,0 0.05,-0.02 0,-0.04 0.01,-0.04 0.05,-0.04 0.04,0 0.04,-0.01 0.04,-0.02 0,-0.01 0,-0.01 -0.02,-0.01 -0.02,0 -0.01,-0.01 0.02,-0.01 0.01,-0.01 0.02,-0.01 0.02,-0.01 0,-0.01 0.01,-0.01 0.02,0 0.04,0.01 0.06,0 0.06,-0.04 0,-0.04 0.02,-0.06 0.07,-0.06 0.02,0 0.03,0 0.02,-0.01 0,-0.01 0,-0.02 0.01,-0.03 0,0 0,-0.01 0,-0.02 0,0 0,-0.01 0.01,-0.01 0,0 0.01,-0.01 0,-0.01 0,-0.02 0.02,-0.02 0.04,-0.01 0.01,0 0.02,0 0.02,-0.01 0.01,-0.01 0.01,-0.01 0.02,-0.01 0.01,0.01 0.01,0.01 0.01,0 -0.01,0 -0.01,-0.01 0,-0.01 0,0 0.02,-0.03 0.02,-0.05 0,-0.01 0.03,-0.01 0.04,0 0,0.01 0.03,0.01 0.03,0 0,-0.02 0.05,-0.04 0.06,-0.03 0.01,0.03 0.05,0 0.05,-0.03 0,-0.02 0,-0.04 0.01,-0.06 0.01,-0.02 0.02,-0.05 0.02,-0.06 0,-0.02 0,-0.01 0,0.02 0.01,0.02 0,0.04 0,0.05 -0.01,0 -0.01,0.01 0,0.03 0,0.07 -0.04,0.49 -0.07,0.6 0,0.01 -0.01,0.05 -0.01,0.08 -0.01,0.04 -0.02,0.09 -0.02,0.11 -0.01,0.03 -0.01,0.07 -0.02,0.1 -0.01,0.02 -0.02,0.06 -0.02,0.08 -0.01,0.03 -0.01,0.06 -0.02,0.08 0,0.04 -0.01,0.05 -0.02,0.04l0 0zm-0.01 -0.04c0,-0.01 0,-0.01 -0.01,-0.01 0,0.01 0,0.01 0,0.02 0,0 0,0 0,0 0.01,0 0.01,-0.01 0.01,-0.01zm-0.56 -0.43c0,0 0,-0.01 0,-0.01 0,0 -0.01,0.01 -0.01,0.01 0,0 0.01,0 0.01,0 0,0 0,0 0,0zm0 -0.04c0,-0.03 0,-0.03 -0.01,-0.03 0,0 0,0.02 0,0.04 0.01,0.02 0.01,0.02 0.01,-0.01zm-0.04 -0.01c0,0 0,0 0,0 0,0 0,0 0,0 0,0 0,0 0,0 0,0 0,0 0,0zm0 -0.03c-0.01,-0.01 -0.01,0 -0.01,0 0,0.01 0.01,0.02 0.01,0.01 0,0 0,-0.01 0,-0.01l0 0zm0.4 -0.25c0.01,-0.02 0.01,-0.02 -0.01,-0.02 0,0 -0.01,0.01 -0.01,0.02 0,0 0,0.01 0,0.01 0,0 0.01,-0.01 0.02,-0.01zm0.54 0.73c0.01,-0.02 0.04,-0.13 0.07,-0.2 0,-0.03 0.02,-0.07 0.03,-0.09 0,-0.02 0.01,-0.04 0.01,-0.05 0,-0.01 0.01,-0.03 0.02,-0.05 0,-0.02 0.01,-0.05 0.01,-0.05 0,-0.01 0.01,-0.04 0.02,-0.07 0,-0.03 0.01,-0.07 0.02,-0.09 0,-0.02 0.01,-0.06 0.01,-0.07 0.01,-0.03 0.02,-0.07 0.04,-0.18 0.01,-0.11 0.02,-0.26 0.02,-0.4 0,-0.11 0,-0.14 0.01,-0.13 0,0.01 0,0.03 0,0.04 0,0.02 0,0.02 0,0.02 0.01,0 0.01,0 0.01,0 -0.01,0.01 0,0.01 0,0.01 0.01,0 0.01,0.01 0.01,0.02 0,0.01 0.01,0.02 0.01,0.02 0.01,0.01 0.01,-0.05 -0.01,-0.07 -0.01,-0.03 -0.01,-0.1 0,-0.1 0.01,0 0.01,0 0.01,0.02 0,0.03 0.01,0.04 0.02,0.02 0,-0.01 0.03,-0.01 0.03,0 0,0 0.01,0 0.02,0 0.02,0 0.03,0.01 0.04,0.01 0.01,0.01 0.02,0.02 0.03,0.02 0.11,0.05 0.13,0.14 0.1,0.35 -0.02,0.1 -0.05,0.24 -0.09,0.35 -0.02,0.05 -0.03,0.1 -0.04,0.11 0,0.01 -0.01,0.03 -0.01,0.04 -0.02,0.04 -0.05,0.13 -0.05,0.14 0,0 -0.01,0.03 -0.02,0.05 -0.02,0.03 -0.03,0.05 -0.03,0.05 0,0.01 -0.07,0.16 -0.08,0.17 0,0 -0.01,0.02 -0.01,0.03 -0.01,0.02 -0.03,0.04 -0.05,0.04 0,0 -0.01,0 -0.01,0 0,0.01 -0.03,0.02 -0.06,0.03 -0.01,0 -0.03,0 -0.03,0.01 -0.02,0.01 -0.06,0.02 -0.05,0l0 0zm0.14 -0.07c0,0 0,0 0,0 0,0 0,0 0,0 0,0 0,0.01 0,0.01 0,0 0,-0.01 0,-0.01zm-0.05 -0.03c0,-0.01 -0.01,-0.02 -0.01,-0.02 0,0.01 -0.01,0.02 -0.01,0.03 0,0.01 0.01,0.01 0.01,0.01 0,0 0.01,-0.01 0.01,-0.02zm0.14 -0.09c0,0 0,0 0,0 0,0.01 0,0.01 0,0.01 0,0 0,-0.01 0,-0.01zm0.03 -0.07c0,-0.01 -0.01,-0.01 -0.01,-0.01 0,0 0,0 0,0.01 0,0.01 0,0.01 0,0.01 0,0 0.01,-0.01 0.01,-0.01zm0.03 -0.98c0,0 0,-0.01 0,-0.01 0,0 0,0.01 0,0.01 0,0 0,0 0,0 0,0 0,0 0,0zm0.08 1.12c0,-0.01 0.02,-0.03 0.03,-0.03 0.01,0 0.03,-0.02 0.03,-0.04 0,-0.01 -0.02,-0.01 -0.02,0.01 0,0.01 -0.01,0.01 -0.01,0.01 -0.01,-0.01 0.01,-0.05 0.02,-0.05 0,0 0.01,0 0.01,0 0,0.01 0,0.01 0,0 0.01,0 0.01,-0.01 0.01,-0.02 -0.01,-0.01 0,-0.03 0.02,-0.07 0.02,-0.04 0.03,-0.06 0.03,-0.07 0,0 0.01,-0.02 0.01,-0.03 0.01,-0.02 0.02,-0.04 0.02,-0.05 0,0 0,-0.02 0.01,-0.03 0.01,-0.01 0.01,-0.03 0.02,-0.04 0.01,-0.02 0.01,-0.02 0.02,-0.02 0,0 0.01,0 0.01,0 0,0 0,-0.01 -0.01,-0.01 -0.01,0 0,-0.05 0.02,-0.08 0.01,-0.02 0.01,-0.03 0.01,-0.04 0,-0.01 0.01,-0.02 0.01,-0.03 0,-0.01 0.01,-0.03 0.01,-0.05 0.01,-0.01 0.01,-0.03 0.01,-0.04 0.02,-0.05 0.03,-0.11 0.05,-0.23 0.01,-0.06 0.02,-0.12 0.02,-0.12 0.01,-0.02 0.07,0.07 0.06,0.11 -0.01,0.08 -0.02,0.1 -0.02,0.12 -0.01,0.02 -0.01,0.03 -0.01,0.04 0,0.01 -0.01,0.04 -0.02,0.08 -0.02,0.03 -0.03,0.07 -0.03,0.09 -0.01,0.02 -0.02,0.04 -0.02,0.06 -0.01,0.02 -0.02,0.04 -0.03,0.06 0,0.01 -0.01,0.04 -0.02,0.06 -0.01,0.02 -0.02,0.04 -0.02,0.04 0,0.01 -0.03,0.07 -0.08,0.17 -0.01,0.02 -0.03,0.07 -0.05,0.1 -0.02,0.05 -0.04,0.08 -0.06,0.08 0,0 -0.01,0.01 -0.01,0.01 -0.01,0.02 -0.02,0.02 -0.02,0.01l0 0zm0.16 -0.28c0.01,-0.02 0.01,-0.02 0,-0.02 -0.01,0 -0.01,0 -0.01,0.02 0,0.03 0.01,0.03 0.01,0zm0.03 -0.07c0,-0.02 -0.01,-0.02 -0.01,-0.01 -0.01,0.02 0,0.03 0.01,0.02 0,0 0.01,-0.01 0,-0.01zm0.04 -0.1c0,0 0,-0.01 0,-0.01 -0.01,0 -0.01,0.01 -0.01,0.01 0,0 0,0 0.01,0 0,0 0,0 0,0zm-1.83 0.38c-0.01,0 -0.03,-0.01 -0.05,-0.02 -0.02,-0.01 -0.05,-0.01 -0.06,-0.02 -0.06,-0.01 -0.01,-0.06 0.06,-0.06 0,0 0.01,0 0.01,-0.01 0,0 0,-0.01 0.01,-0.01 0.01,0.01 0.02,0 0.02,0 -0.01,-0.01 -0.01,-0.01 0,0 0.01,0.01 0,0.04 -0.01,0.04 -0.01,0.01 -0.01,0.02 0,0.03 0.01,0.01 0.01,0.01 0.02,-0.01 0,-0.02 0,-0.02 0.01,0 0,0 0,0.02 0.01,0.04 0.01,0.02 0.01,0.03 0.01,0.03 0,0 -0.01,0 -0.03,-0.01l0 0zm-0.18 -0.07c0,-0.01 0,-0.02 0.01,-0.01 0,0 0.01,0 0.01,0.01 0,0.01 -0.01,0.01 -0.02,0l0 0zm-0.04 -0.02c0,0 0,0 0.01,0 0,0 0,0 0,0.01 -0.01,0 -0.01,0 -0.01,-0.01zm0 -0.02c0,0 0,0 0,0 0,0 0,0.01 0,0.01 0,0 0,0 0,-0.01zm-0.02 -0.04c0,0 0,0 0,0 0,0 0,0 0,0 0,0.01 0,0.01 0,0.01 0,0 0,0 0,-0.01zm-0.01 -0.01c0,0 0,0 0.01,0 0,0 0,0 0,0 0,0 0,0.01 0,0.01 -0.01,0 -0.01,-0.01 -0.01,-0.01zm0.22 -0.01c0,0 0,0 0,0 0.01,0 0.01,0 0.01,0 0,0 0,0 -0.01,0 0,0 0,0 0,0zm-0.04 -0.02c0,0 0,-0.01 0,-0.01 0.01,0 0.01,0 0.01,0.01 0,0.01 0,0.01 -0.01,0l0 0zm0.33 -0.17c0,0 0.01,0 0.01,0 0,0 0,0 0,0 0,0 0,0 0,0 0,0 -0.01,0 -0.01,0zm0.22 -0.09c0,-0.01 0,-0.01 0,0 0,0 0,0.01 0,0.01 0,0 0,0 0,-0.01l0 0zm-0.23 -0.01c0,0 0,-0.01 0.01,0 0,0 0,0 0,0 -0.01,0.01 -0.01,0.01 -0.01,0zm1.22 -0.75c0,-0.01 0,-0.01 0,-0.01 0.01,0 0.01,0.01 0,0.01 0,0 0,0 0,0zm-0.01 -0.07c0,-0.01 0.01,-0.01 0.01,0 0,0 0,0.01 0,0.01 -0.01,0 -0.01,0 -0.01,-0.01l0 0z"/>
 <path fill="#1D5F3A" d="M1.75 3.82c0,-0.01 -0.01,-0.02 -0.01,-0.03 0,0 0,-0.03 -0.01,-0.05 0,-0.03 -0.02,-0.08 -0.03,-0.12 0,-0.04 -0.01,-0.08 -0.02,-0.1 -0.01,-0.04 -0.02,-0.04 0.28,-0.04 0.24,0 0.28,0 0.28,0.01 0,0.01 -0.01,0.07 -0.03,0.16 -0.02,0.07 -0.03,0.12 -0.03,0.14 -0.01,0.04 0,0.04 -0.22,0.04 -0.2,0 -0.2,0 -0.21,-0.01l0 0zm0.43 -0.07c0.06,-0.27 0.06,-0.25 0.05,-0.26 -0.01,-0.01 -0.51,-0.01 -0.53,0 -0.01,0 0.04,0.3 0.06,0.32 0.03,0.06 0.41,0 0.42,-0.06zm-0.87 -1.18c0,0 0,0 0,0 0.01,0 0.01,0 0.01,0 0,0.01 0,0.01 -0.01,0.01 0,0 0,0 0,-0.01zm-0.08 -0.01c-0.03,-0.04 -0.04,-0.07 -0.03,-0.05 0.02,0.02 0.04,0.06 0.04,0.06 0,0 -0.01,-0.01 -0.01,-0.01zm-0.1 -0.01c-0.01,-0.02 -0.04,-0.07 -0.03,-0.06 0.01,0 0.05,0.07 0.05,0.07 0,0 -0.01,0 -0.02,-0.01l0 0zm0.18 0.01c0,0 0,0 0,0 0,0 0,0 0,0 0,0 0,0 0,0 0,0 0,0 0,0zm0.18 0c0,0 0,0 0,0 0,0 0,0 0,0 0,0 0,0 0,0 0,0 0,0 0,0zm-0.19 -0.01c0,0 0,0 0,0 0,0 0.01,0 0.01,0 0,0 -0.01,0 -0.01,0 0,0 0,0 0,0zm0.18 0c0,0 0,0 0.01,0 0,0 0,0 0,0 0,0 0,0 0,0 -0.01,0 -0.01,0 -0.01,0zm-0.19 -0.02c0,0 0,0 0,0 0.01,0 0.01,0.01 0.01,0.01 0,0 -0.01,0 -0.01,-0.01l0 0zm0.19 0.01c0,0 0,-0.01 0,-0.01 0,0 0,0.01 0,0.01 0,0 0,0 0,0 0,0 0,0 0,0zm0.22 -0.01c0,0 0,0 0,0 0,0 0,0.01 0,0.01 0,0 0,0 0,-0.01zm-0.42 -0.01c0,0 0,0 0,0 0.01,0 0.01,0 0.01,0 0,0 0,0 -0.01,0 0,0 0,0 0,0zm-0.01 -0.02c0,0 0,0 0,-0.01 0,0 0.01,0.01 0.01,0.01 0,0.01 0,0.01 -0.01,0zm0.19 0.01c0,0 0.01,-0.01 0.01,-0.01 0,0 0,0.01 0,0.01 0,0 0,0 0,0 0,0 -0.01,0 -0.01,0zm-0.28 -0.03c-0.01,-0.01 -0.01,-0.01 -0.01,-0.01 0.01,0 0.01,0 0.01,0.01 0.01,0.01 0.01,0.01 0.01,0.01 0,0 -0.01,0 -0.01,-0.01zm0.28 0.01c0,0 0,0 0,0 0,0 0,0 0,0 0,0 0,0 0,0 0,0 0,0 0,0zm-0.2 -0.01c0,0 0,0 0.01,0 0,0 0,0 0,0 0,0 0,0.01 0,0.01 -0.01,0 -0.01,-0.01 -0.01,-0.01zm-0.19 -0.04c-0.03,-0.05 -0.08,-0.13 -0.07,-0.12 0.01,0.01 0.1,0.16 0.1,0.16 -0.01,0 -0.02,-0.02 -0.03,-0.04zm0.38 0.02c-0.01,-0.02 -0.01,-0.02 0,-0.01 0.01,0.01 0.01,0.03 0.01,0.03 0,0 -0.01,-0.01 -0.01,-0.02zm0.23 0.01c0,0 0.01,0 0.01,0 0,0 0,0.01 0,0.01 0,0 -0.01,0 -0.01,-0.01zm-0.42 0c0,0 0,0 0,0 0,0 0,0 0,0 0,0 0,0 0,0 0,0 0,0 0,0zm-0.01 -0.01c0,0 0,0 0,0 0.01,0 0.01,0 0.01,0 0,0 0,0 -0.01,0 0,0 0,0 0,0zm0.99 0c0,-0.01 0,-0.01 0,-0.01 0,0 0,0.01 0,0.01 0,0 0,0 0,0zm-1.08 -0.01c0,0 0,0 0,0 0,0 0.01,0 0.01,0 0,0 -0.01,0.01 -0.01,0.01 0,0 0,-0.01 0,-0.01zm0.52 0c0,-0.01 0,-0.01 0,0 0,0 0,0 0,0 0,0.01 0,0 0,0zm-0.44 0c0,-0.01 0.01,-0.01 0.01,-0.01 0,0 0,0 0,0.01 0,0 0,0 0,0 0,0 -0.01,0 -0.01,0zm-0.09 -0.01c0,0 0.01,0 0.01,0 0,0 0,0 0,0 0,0 0,0 0,0 0,0 -0.01,0 -0.01,0zm1.09 -0.01c0,-0.01 0.01,-0.01 0.01,-0.01 0,0.01 0,0.01 0,0.02 0,0 -0.01,0 -0.01,-0.01zm-1.1 -0.02c-0.01,-0.01 -0.01,-0.02 -0.01,-0.02 0,0 0.01,0.01 0.01,0.02 0.01,0.01 0.01,0.02 0.01,0.02 0,0 -0.01,-0.01 -0.01,-0.02zm0.09 0.02c0,0 0,-0.01 0.01,-0.01 0,0 0,0.01 0,0.01 0,0 0,0 0,0 -0.01,0 -0.01,0 -0.01,0zm0.2 0c0,0 0.01,-0.01 0.01,-0.01 0,0 0,0.01 0,0.01 0,0 0,0 0,0 0,0 -0.01,0 -0.01,0zm0.24 -0.01c0,-0.01 0,-0.01 0.01,0 0,0 0,0.01 -0.01,0.01 0,0 0,0 0,-0.01l0 0zm-0.44 0c0,-0.01 0,-0.01 0,-0.01 0,0 0,0 0,0.01 0,0 0,0 0,0 0,0 0,0 0,0zm0.2 -0.01c0,0 0,0 0,0 0,0 0,0 0,0 0,0 0,0 0,0 0,0 0,0 0,0zm0.82 -0.01c0,-0.02 0.01,-0.04 0.01,-0.02 0,0 0,0.02 0,0.02 -0.01,0.02 -0.01,0.02 -0.01,0l0 0zm-1.04 -0.01c0,0 0,-0.01 0,-0.01 0,0 0.01,0 0.01,0.01 0.01,0.02 0,0.02 -0.01,0zm1.3 0.01c0,0 0,0 0,0 0,0 0,0 0,0 0,0.01 0,0.01 0,0.01 0,0 0,0 0,-0.01zm-1.09 -0.01c0,0 0,0 0.01,0 0,0 0,0.01 0,0.01 -0.01,0 -0.01,0 -0.01,-0.01zm0.24 0c0,0 0.01,0 0.01,0 0,0 0,0.01 0,0.01 0,0 -0.01,0 -0.01,-0.01zm0.85 -0.01c0.01,-0.01 0.01,-0.02 0.01,-0.02 0.01,-0.01 0.01,-0.01 0.01,0 -0.01,0.01 -0.01,0.02 -0.01,0.03 -0.01,0 -0.01,0 -0.01,-0.01zm-1.4 -0.01c-0.04,-0.08 -0.05,-0.11 -0.04,-0.1 0,0.01 0.01,0.02 0.01,0.02 0,0 0.01,0.03 0.03,0.05 0.01,0.02 0.02,0.04 0.02,0.05 0,0 -0.01,-0.01 -0.02,-0.02zm0.3 -0.01c0,-0.01 -0.01,-0.02 0,-0.02 0,0 0,0.01 0,0.02 0.01,0.01 0.01,0.02 0.01,0.02 0,0 -0.01,-0.01 -0.01,-0.02zm0.25 0.01c0,0 0,-0.01 0,0 0.01,0 0.01,0 0,0 0,0.01 0,0 0,0zm-0.47 -0.02c-0.01,-0.02 -0.02,-0.05 -0.01,-0.05 0,0.01 0.03,0.07 0.03,0.07 -0.01,0 -0.01,-0.01 -0.02,-0.02l0 0zm1.07 0c0,-0.02 0.03,-0.14 0.03,-0.13 0,0.02 -0.02,0.13 -0.03,0.13 0,0 0,0 0,0l0 0zm-0.61 -0.01c0,-0.01 0.01,-0.01 0.01,-0.01 0,0.01 0,0.01 0,0.01 -0.01,0.01 -0.01,0 -0.01,0l0 0zm0.88 0c0,0 0,0 0,0 0,0 0.01,0 0.01,0 0,0 -0.01,0.01 -0.01,0.01 0,0 0,-0.01 0,-0.01zm0.21 0c0,-0.01 0.01,-0.01 0.01,-0.01 0,0 0,0.01 -0.01,0.01 0,0.01 0,0.01 0,0l0 0zm-1.35 -0.02c0,-0.01 0,-0.02 0.01,0 0,0 0,0.01 0,0.01 0,0 0,0 -0.01,-0.01l0 0zm1.15 0.01c0,-0.01 0,-0.01 0,-0.01 0,0.01 0,0.01 0,0.01 0,0 0,0 0,0zm0.21 -0.01c0,0 0,0 0,0 0,0 0,0 0,0 0,0 0,0 0,0 0,0 0,0 0,0zm-0.21 -0.01c0,0 0,-0.01 0.01,-0.01 0,0 0,0 0,0.01 0,0.01 -0.01,0.01 -0.01,0zm-1.57 -0.04c-0.02,-0.04 -0.05,-0.08 -0.04,-0.07 0.01,0.01 0.07,0.11 0.06,0.11 0,0 -0.01,-0.02 -0.02,-0.04zm0.68 0.04c0,-0.01 0,-0.01 0,-0.01 0,0 0,0 0,0.01 0,0 0,0 0,0 0,0 0,0 0,0zm1.11 -0.01c0.01,-0.02 0.01,-0.03 0.01,-0.02 0,0.01 0,0.01 -0.01,0.02 -0.01,0.01 -0.01,0.01 0,0l0 0zm-1.38 0c0,0 0.01,0 0.01,0 0,0 0,0 0,0 0,0 0,0 0,0 0,0 -0.01,0 -0.01,0zm-0.22 -0.02c-0.01,-0.02 -0.01,-0.03 0,-0.01 0.01,0.01 0.01,0.02 0.01,0.02 0,0.01 -0.01,0 -0.01,-0.01l0 0zm0.47 -0.03c-0.12,-0.63 -0.15,-1.17 -0.08,-1.58 0.02,-0.1 0.05,-0.18 0.09,-0.31 0.02,-0.04 0.05,-0.1 0.08,-0.13 0.01,-0.02 0.02,-0.04 0.03,-0.05 0.01,-0.01 0.03,-0.04 0.05,-0.05 0.02,-0.01 0.04,-0.03 0.05,-0.04 0.17,-0.13 0.41,0.1 0.5,0.49 0.05,0.22 0.08,0.72 0.05,0.91 -0.01,0.04 -0.01,0.04 -0.01,-0.01 0.04,-0.69 -0.05,-1.13 -0.26,-1.33 -0.1,-0.1 -0.2,-0.11 -0.31,-0.03 -0.31,0.25 -0.38,1.05 -0.19,2.06 0.01,0.06 0.02,0.1 0.02,0.11 -0.01,0.01 -0.01,-0.01 -0.02,-0.04l0 0zm-0.26 0.02c0,-0.01 0,-0.02 0,-0.03 0,0 0.02,0.03 0.01,0.04 0,0 0,0 -0.01,-0.01zm1.18 0.01c0,-0.01 0.01,-0.02 0.01,-0.03 0.01,-0.02 0.01,-0.01 0,0.02 0,0.01 -0.01,0.01 -0.01,0.01zm0.22 -0.01c0,0 0,0 0.01,0 0,0 0,0 0,0 0,0 0,0 0,0 -0.01,0 -0.01,0 -0.01,0zm0.11 0c0,-0.01 0.03,-0.06 0.03,-0.06 0,0 0,0.01 -0.01,0.03 -0.02,0.03 -0.02,0.04 -0.02,0.03zm-0.1 -0.01c0,0 0,-0.01 0,-0.01 0,0 0.01,0.01 0.01,0.01 0,0 -0.01,0 -0.01,0 0,0 0,0 0,0zm-1.74 -0.03c0,-0.01 -0.01,-0.02 -0.01,-0.02 0.01,0 0.03,0.04 0.02,0.04 0,0 0,-0.01 -0.01,-0.02zm0.11 0.02c0,0 0,0 0,0 0,0 0,0 0,0 0,0 0,0 0,0 0,0 0,0 0,0zm1.82 0c0,0 0.01,0 0.01,0 0,0 0,0 0,0 0,0 0,0 0,0 0,0 -0.01,0 -0.01,0zm-0.18 0c0,-0.01 0,-0.02 0.01,-0.03 0.01,-0.02 0.01,-0.02 0.01,-0.01 -0.01,0.02 -0.03,0.04 -0.02,0.04l0 0zm-1.65 -0.02c-0.01,-0.01 -0.01,-0.01 -0.01,-0.02 0,0 0.01,0.01 0.01,0.02 0.01,0.02 0,0.02 0,0zm1.84 0c0.01,0 0.01,-0.01 0.01,0 0,0 0,0 0,0.01 -0.01,0 -0.01,0 -0.01,-0.01l0 0zm-1.65 -0.09c-0.33,-1 -0.2,-1.73 0.37,-2.05 0.12,-0.06 -0.15,0.02 -0.29,0.09 -0.58,0.31 -0.71,0.97 -0.35,1.87 0.03,0.05 0.04,0.1 0.04,0.1 0,0 -0.05,-0.11 -0.05,-0.12 0,0 0,-0.01 -0.01,-0.03 -0.01,-0.01 -0.02,-0.03 -0.02,-0.05 -0.01,-0.01 -0.02,-0.03 -0.02,-0.05 -0.01,-0.02 -0.03,-0.07 -0.04,-0.12 -0.02,-0.05 -0.03,-0.1 -0.04,-0.11 0,0 -0.01,-0.03 -0.02,-0.06 0,-0.03 -0.01,-0.07 -0.01,-0.08 -0.08,-0.25 -0.06,-0.59 0.04,-0.81 0.04,-0.11 0.04,-0.09 0.06,-0.14 0.02,-0.03 0.03,-0.05 0.04,-0.05 0,-0.01 0.01,-0.02 0.02,-0.03 0.11,-0.19 0.34,-0.35 0.59,-0.42 0.08,-0.03 0.14,-0.02 0.08,0.01 -0.06,0.03 -0.18,0.12 -0.22,0.17 -0.1,0.09 -0.15,0.16 -0.2,0.26 -0.05,0.1 -0.08,0.2 -0.1,0.29 -0.01,0.02 -0.01,0.05 -0.02,0.07 -0.03,0.16 -0.03,0.46 0.01,0.65 0,0.02 0.01,0.07 0.02,0.11 0.01,0.04 0.02,0.09 0.02,0.11 0,0.02 0.02,0.07 0.03,0.11 0.01,0.04 0.02,0.1 0.03,0.14 0.01,0.03 0.03,0.07 0.03,0.1 0.01,0.02 0.02,0.06 0.03,0.08 0.01,0.03 0.02,0.05 0.01,0.05 0,0.01 -0.01,-0.03 -0.03,-0.09l0 0zm1.24 0.08c0,0 0,-0.01 0.01,-0.01 0,0 0,0 0,0.01 0,0.01 -0.01,0.01 -0.01,0zm0.42 -0.01c0,0 0,0 0.01,0 0,0 0,0 0,0 0,0.01 0,0.01 0,0.01 -0.01,0 -0.01,0 -0.01,-0.01zm-1.98 -0.04c-0.02,-0.03 -0.02,-0.04 0,-0.02 0.01,0.02 0.02,0.06 0.02,0.06 0,0 -0.01,-0.02 -0.02,-0.04zm0.11 0.03c0,0 0,0 0.01,0 0,0 0,0 0,0 0,0 0,0.01 0,0.01 -0.01,0 -0.01,-0.01 -0.01,-0.01zm1.17 -0.01c0,0 0,-0.01 0.01,0 0,0 0,0.01 0,0.01 -0.01,0.01 -0.01,0 -0.01,-0.01zm0.71 0.01c0,0 0,0 0,0 0,0 0,0 0,0 0,0 0,0.01 0,0.01 0,0 0,-0.01 0,-0.01zm-0.09 0c0,-0.01 0,-0.01 0.01,-0.01 0,0 0,0 0,0.01 0,0 0,0 0,0 -0.01,0 -0.01,0 -0.01,0zm-1.8 -0.02c-0.01,-0.02 -0.01,-0.03 0,-0.01 0.01,0.01 0.01,0.02 0.01,0.02 0,0 0,0 -0.01,-0.01l0 0zm1.47 0.01c0,0 0.01,0 0.01,0 0,0 0,0 0,0 0,0 0,0 0,0 0,0 -0.01,0 -0.01,0zm0.23 0c0,-0.01 0,-0.01 0,-0.01 0.01,0.01 0.01,0.01 0,0.01 0,0 0,0 0,0zm0.19 0c0,0 0.01,0 0.01,0 0,0 0,0 0,0 0,0 0,0 0,0 0,0 -0.01,0 -0.01,0zm-2.08 -0.01c0,0 0,0 0.01,0 0,0 0,0 0,0 0,0.01 0,0.01 0,0.01 -0.01,0 -0.01,0 -0.01,-0.01zm2 0c0,0 0,-0.01 0.01,-0.01 0.01,-0.02 0.01,-0.02 0,0 -0.01,0.02 -0.01,0.02 -0.01,0.01l0 0zm0.09 0c0,0 0,0 0,0 0.01,0 0.01,0 0.01,0 0,0 0,0 -0.01,0 0,0 0,0 0,0zm-2.1 -0.01c0,0 -0.11,-0.23 -0.11,-0.23 0,0 0,-0.01 -0.01,-0.03 -0.01,-0.02 -0.03,-0.07 -0.06,-0.15 -0.01,-0.03 -0.04,-0.13 -0.06,-0.19 -0.16,-0.52 -0.03,-0.98 0.35,-1.25 0.13,-0.09 0.19,-0.11 0.1,-0.03 -0.16,0.14 -0.21,0.21 -0.29,0.36 -0.16,0.3 -0.14,0.7 0.04,1.18 0.02,0.05 0.04,0.1 0.05,0.12 0.01,0.02 0.02,0.06 0.03,0.08 0.01,0.02 0.02,0.04 0.02,0.05 0.01,0.01 0.01,0.02 0.02,0.03 0,0.03 -0.02,-0.01 -0.05,-0.08 -0.35,-0.78 -0.3,-1.35 0.15,-1.73 0.03,-0.02 0.06,-0.04 0.06,-0.05 0,-0.01 -0.15,0.09 -0.21,0.15 -0.42,0.38 -0.44,0.9 -0.06,1.69 0.02,0.05 0.04,0.09 0.04,0.09 0,0 0,-0.01 -0.01,-0.01l0 0zm1.39 -0.01c0,-0.01 0,-0.01 0,0 0,0 0,0.01 0,0.01 0,0 0,0 0,-0.01zm0.29 0.01c0,-0.01 0,-0.01 0.01,-0.02 0,-0.01 0,0 0,0.02 -0.01,0 -0.01,0.01 -0.01,0zm0.23 0c0,0 0,0 0,0 0,0 0,0 0,0 0,0 0,0.01 0,0.01 0,0 0,-0.01 0,-0.01zm0.2 0c0,-0.01 0,-0.01 0,-0.01 0,0 0,0 0,0.01 0,0 0,0 0,0 0,0 0,0 0,0zm-0.2 -0.01c0,0 0,0 0,0 0.01,0 0.01,0 0.01,0 0,0 0,0 -0.01,0 0,0 0,0 0,0zm0.21 -0.01c0,0 0,-0.01 0,-0.01 0,0 0,0.01 0,0.01 0,0 0,0.01 -0.01,0.01 0,0 0,-0.01 0.01,-0.01zm-0.2 0c0,0 0,-0.01 0,-0.01 0,0 0,0.01 0,0.01 0,0 0,0 0,0 0,0 0,0 0,0zm0.11 0c0,0 0,-0.01 0,-0.01 0,0 0,0.01 0,0.01 0,0 0,0 0,0 0,0 0,0 0,0zm-0.63 -0.02c0,-0.01 0,-0.01 0,-0.01 0,0.01 0,0.02 0,0.02 0,0 0,0 0,-0.01zm0.29 0c0,0 0,0 0.01,0 0,0 0,0 0,0.01 -0.01,0 -0.01,0 -0.01,-0.01zm0.23 0.01c0,-0.01 0.01,-0.01 0.01,-0.01 0,0 0,0 0,0.01 0,0 0,0 0,0 0,0 -0.01,0 -0.01,0zm0.11 0c0,-0.01 0,-0.01 0.01,-0.01 0,0 0,0 0,0.01 0,0 0,0 0,0 -0.01,0 -0.01,0 -0.01,0zm0.09 0c0,-0.01 0.01,-0.02 0.02,-0.03 0.01,-0.02 0.01,-0.03 0.01,-0.02 0,0 0,0.01 -0.01,0.03 -0.01,0.01 -0.02,0.02 -0.02,0.02zm-2.04 -0.01c0,0 0,0 0,0 0,0 0.01,0 0.01,0 0,0 -0.01,0 -0.01,0 0,0 0,0 0,0zm1.85 -0.01c0,0 0,-0.01 0.01,-0.02 0,-0.01 0.01,-0.01 0.01,-0.01 0,0.01 -0.01,0.02 -0.01,0.02 -0.01,0.01 -0.01,0.02 -0.01,0.01zm0.11 0c0,0 0,0 0,0 0,0 0.01,0 0.01,0 0,0.01 -0.01,0.01 -0.01,0.01 0,0 0,0 0,-0.01zm-0.34 -0.01c0,0 0,0 0,0 0,0 0,0.01 0,0.01 0,0 0,0 0,-0.01zm0.35 0c0,0 0,0 0,0 0,0 0,0 0,0 0,0 0,0 0,0 0,0 0,0 0,0zm-0.65 -0.01c0,-0.01 0,-0.02 0,-0.01 0.01,0 0.01,0.01 0,0.01 0,0.01 0,0 0,0zm0.31 -0.01c0,0 0,-0.02 0,-0.03 0.01,-0.02 0.01,0 0,0.02 0,0.02 0,0.02 0,0.01zm0.34 0.01c0,-0.01 0.02,-0.05 0.02,-0.05 0,0 0,0.01 0,0.03 -0.01,0.02 -0.02,0.03 -0.02,0.02zm-0.1 -0.02c0,0 0.01,-0.02 0.01,-0.04 0.01,-0.01 0.02,-0.02 0.01,-0.01 0,0.02 -0.02,0.06 -0.02,0.05l0 0zm-0.54 -0.03c0,-0.01 0.01,-0.07 0.02,-0.14 0.02,-0.11 0.03,-0.24 0.04,-0.33 0.01,-0.04 0.01,-0.04 0.01,-0.01 0,0.04 -0.01,0.14 -0.04,0.31 -0.01,0.11 -0.04,0.25 -0.03,0.17l0 0zm0.75 0.02c0,0 0,0 0,0 0,0 0,0 0,0 0,0.01 0,0.01 0,0.01 0,0 0,0 0,-0.01zm0 -0.01c0,0 0.01,-0.02 0.02,-0.03 0,-0.02 0.01,-0.03 0.01,-0.02 0,0 -0.01,0.02 -0.01,0.03 -0.01,0.02 -0.02,0.03 -0.02,0.02zm-0.08 -0.01c0,-0.01 0.03,-0.09 0.04,-0.11 0.01,-0.01 0.01,-0.01 0,0.02 -0.02,0.04 -0.04,0.09 -0.04,0.09l0 0zm-0.36 -0.01c0,-0.02 0.03,-0.1 0.03,-0.09 0,0 0,0.02 -0.01,0.05 -0.01,0.02 -0.02,0.04 -0.02,0.04zm0.26 -0.03c0,-0.01 0.01,-0.03 0.01,-0.02 0,0 0,0.01 -0.01,0.01 0,0.01 0,0.01 0,0.01l0 0zm0.21 -0.01c0,-0.01 0,-0.01 0,-0.01 0.01,0 0.01,0 0.01,0.01 0,0 0,0 -0.01,0 0,0 0,0 0,0zm0.01 -0.02c0,0 0,0 0,0 0,0 0,0 0,0 0,0.01 0,0.01 0,0.01 0,0 0,0 0,-0.01zm-0.21 -0.01c0,0 0,0 0,0 0.01,0 0.01,0 0.01,0 0,0 0,0 -0.01,0 0,0 0,0 0,0zm0.21 0c0,-0.01 0.01,-0.01 0.01,-0.01 0,0.01 0,0.01 0,0.01 0,0 -0.01,0 -0.01,0zm-0.2 -0.01c0,0 0,-0.01 0,-0.02 0.01,0 0.01,0 0.01,0 0,0 0,0.01 -0.01,0.02 0,0 0,0 0,0zm0.21 -0.01c0,0 0,0 0,0 0,0 0.01,0 0.01,0 0,0 -0.01,0.01 -0.01,0.01 0,0 0,-0.01 0,-0.01zm0.01 -0.01c0,0 0,0 0,0 0,0 0,0 0,0 0,0 0,0 0,0 0,0 0,0 0,0zm-0.47 -0.01c0,-0.01 0.01,-0.01 0.01,-0.01 0,0.01 0,0.01 0,0.02 0,0 -0.01,-0.01 -0.01,-0.01l0 0zm0.26 0c0,-0.01 0,-0.01 0,-0.01 0.01,0 0.01,0.01 0,0.01 0,0 0,0 0,0zm0.21 0c0,0 0,0 0.01,0 0,0 0,0 0,0 0,0 0,0 0,0 -0.01,0 -0.01,0 -0.01,0zm-0.09 -0.01c0,-0.01 0.03,-0.07 0.03,-0.07 0,0.01 -0.01,0.02 -0.01,0.04 -0.01,0.02 -0.02,0.04 -0.02,0.03l0 0zm0.1 0c0,-0.01 0,-0.01 0,-0.02 0.01,0 0.01,-0.01 0.01,0 0,0 0,0.01 -0.01,0.01 0,0.01 0,0.01 0,0.01zm-0.47 -0.01c0,-0.01 0,-0.01 0,-0.01 0.01,0.01 0.01,0.01 0,0.01 0,0 0,0 0,0zm0.26 -0.01c0,-0.01 0.01,-0.02 0.01,-0.02 0,-0.01 0,-0.01 0,0 0,0.01 -0.01,0.02 -0.01,0.03 0,0 0,0 0,-0.01zm-0.25 -0.02c0,-0.03 0.01,-0.07 0.02,-0.07 0,0 -0.01,0.02 -0.01,0.05 -0.01,0.02 -0.01,0.03 -0.01,0.02l0 0zm0.47 0.01c0,-0.01 0,-0.01 0,-0.01 0.01,0 0.01,0 0.01,0.01 0,0 0,0 -0.01,0 0,0 0,0 0,0zm0.01 -0.02c0,0 0,-0.01 0.01,-0.03 0.01,-0.01 0.01,-0.01 0.01,-0.01 -0.01,0.02 -0.02,0.05 -0.02,0.04l0 0zm-0.21 -0.01c0,-0.02 0.05,-0.18 0.06,-0.21 0.01,-0.03 0.01,-0.03 0.01,-0.01 0,0.03 -0.06,0.21 -0.07,0.22 -0.01,0.01 -0.01,0.01 0,0l0 0zm0.12 -0.02c0,0 0,-0.01 0.01,0 0,0 0,0 0,0 -0.01,0.01 -0.01,0 -0.01,0zm0.01 -0.02c0,0 0,0 0,0 0,0 0,0 0,0.01 0,0 0,0 0,-0.01zm0.1 -0.02c0.01,0 0.01,-0.02 0.01,-0.02 0.01,-0.01 0.01,0 0.01,0.01 -0.01,0 -0.01,0.01 -0.01,0.02 -0.01,0.01 -0.01,0 -0.01,-0.01zm-0.09 0c0,-0.01 0,-0.02 0.01,-0.03 0,0 0,0 0,0.01 0,0.01 -0.01,0.02 -0.01,0.02 -0.01,0.01 -0.01,0.01 0,0zm-0.39 -0.01c0,-0.01 0,-0.02 0.01,-0.03 0,-0.01 0,-0.01 0,0 0,0 0,0.02 0,0.03 -0.01,0.01 -0.01,0.01 -0.01,0zm0.5 -0.03c0.01,-0.03 0.04,-0.12 0.04,-0.11 0,0.01 -0.03,0.1 -0.04,0.11 0,0.01 0,0.01 0,0l0 0zm-0.1 0c0,-0.01 0.02,-0.07 0.03,-0.08 0,-0.01 0,0 -0.02,0.05 0,0.02 -0.01,0.03 -0.01,0.03zm-0.39 -0.03c0,-0.01 0,-0.01 0.01,-0.01 0,0.01 0,0.01 0,0.02 -0.01,0 -0.01,0 -0.01,-0.01zm0.01 -0.03c0,-0.02 0.03,-0.15 0.03,-0.14 0,0.01 -0.02,0.15 -0.03,0.15 0,0 0,0 0,-0.01zm0.41 -0.04c0,0 0,0 0.01,0 0,0 0,0.01 0,0.01 -0.01,0 -0.01,0 -0.01,-0.01zm0.01 -0.02c0,0 0,-0.01 0,-0.02 0.01,-0.01 0.01,0 0,0.02 0,0.01 0,0.01 0,0zm0.1 0c0,-0.02 0.01,-0.03 0.01,-0.02 0,0 0,0.01 0,0.01 -0.01,0.01 -0.01,0.01 -0.01,0.01l0 0zm-0.22 -0.04c0,-0.01 0,-0.01 0.01,0 0,0 0,0.01 0,0.01 -0.01,0 -0.01,0 -0.01,-0.01zm0.13 0c0,0 0,-0.02 0.01,-0.03 0,-0.02 0.01,-0.03 0.01,-0.02 0,0 -0.01,0.02 -0.01,0.03 0,0.02 -0.01,0.03 -0.01,0.02zm0.1 -0.01c0,0 0.01,-0.01 0.01,0 0,0 0,0 0,0 0,0.01 -0.01,0.01 -0.01,0zm-0.22 -0.01c0,-0.01 0,-0.01 0,-0.01 0,0.01 0,0.01 0,0.01 0,0 0,0 0,0zm0.23 -0.02c0.01,-0.04 0.02,-0.05 0.01,-0.02 0,0.02 0,0.03 -0.01,0.04 0,0 0,0 0,-0.02zm-0.22 0c0,-0.01 0,-0.01 0,-0.01 0,0.01 0,0.01 0,0.01 0,0.01 -0.01,0 0,0l0 0zm-0.29 -0.02c0,0 0,-0.02 0,-0.05 0.04,-0.2 0.03,-0.46 0,-0.62 -0.01,-0.06 -0.01,-0.08 0,-0.03 0.04,0.15 0.05,0.4 0.01,0.64 -0.01,0.06 -0.01,0.09 -0.01,0.06l0 0zm0.29 -0.02c0.04,-0.18 0.05,-0.28 0.05,-0.4 -0.01,-0.08 -0.01,-0.08 0,-0.01 0.01,0.11 -0.01,0.31 -0.04,0.4 0,0.02 -0.01,0.02 -0.01,0.01zm0.13 0.01c0,-0.01 0,-0.01 0,-0.01 0,0.01 0,0.01 0,0.01 0,0.01 0,0 0,0l0 0zm0.01 -0.03c0,-0.01 0,-0.03 0,-0.03 0.01,-0.01 0.01,0.01 0,0.03 0,0.01 0,0.01 0,0zm0.1 0c0,-0.01 0,-0.01 0,0 0,0 0,0.01 0,0.01 0,0 0,0 0,-0.01l0 0zm0 -0.02c0.01,-0.02 0.02,-0.04 0.02,-0.02 0,0.01 -0.01,0.02 -0.01,0.02 0,0.01 -0.01,0.01 -0.01,0l0 0zm-0.09 -0.04c0,0 0,-0.01 0,0 0,0 0,0.01 0,0.01 0,0.01 0,0 0,-0.01zm0.11 0c0,-0.01 0,-0.04 0.01,-0.07 0.01,-0.04 0.01,-0.06 0.01,-0.04 0,0.02 -0.02,0.12 -0.02,0.11l0 0zm-0.1 -0.05c0,-0.02 0,-0.04 0.01,-0.05 0,-0.02 0,0.04 -0.01,0.07 -0.01,0.01 -0.01,0.01 0,-0.02l0 0zm0.01 -0.1c0,-0.01 0,-0.02 0.01,-0.01 0,0.01 0,0.02 0,0.03 -0.01,0 -0.01,0 -0.01,-0.02zm0.11 -0.01c0,-0.01 0,-0.01 0.01,0 0,0 0,0.01 -0.01,0.01 0,0.01 0,0 0,-0.01zm-0.1 -0.06c0,-0.02 0,-0.03 0,-0.02 0,0.01 0,0.03 0,0.04 0,0.01 0,0 0,-0.02l0 0zm0.11 0c0,-0.02 0,-0.02 0,-0.01 0,0 0,0.01 0,0.02 0,0.01 0,0 0,-0.01l0 0zm0 -0.16c0,-0.02 0,-0.02 0,-0.02 0,0.01 0,0.03 0,0.04 0,0.01 0,0 0,-0.02l0 0zm-0.11 -0.04c0,-0.01 0,-0.02 0,-0.01 0,0.01 0,0.02 0,0.03 0,0 0,0 0,-0.02l0 0zm-0.15 -0.03c0,-0.03 0,-0.05 0,-0.06 0,0 0.01,0.09 0.01,0.1 0,0 0,-0.01 -0.01,-0.04zm0.25 0.01c0,-0.01 0,-0.01 0,-0.01 0.01,0.01 0.01,0.01 0,0.02 0,0 0,0 0,-0.01zm-0.11 -0.03c0,-0.02 0,-0.02 0.01,-0.01 0,0 0,0.02 0,0.02 -0.01,0.01 -0.01,0 -0.01,-0.01zm0.11 -0.02c0,-0.01 0,-0.01 0,0 0,0 0,0.01 0,0.02 0,0 0,-0.01 0,-0.02zm-0.12 -0.05c-0.01,-0.02 -0.01,-0.04 -0.01,-0.04 0.01,0 0.01,0.01 0.01,0.03 0.01,0.03 0.01,0.05 0.01,0.05 0,0 -0.01,-0.02 -0.01,-0.04zm0.11 0.03c0,-0.01 0,-0.01 0,-0.01 0,0.01 0,0.01 0,0.01 0,0 0,0 0,0zm-0.25 -0.02c0,-0.01 0,-0.01 0,0 0,0 0,0.01 0,0.01 0,0 0,0 0,-0.01l0 0zm0.24 -0.01c0,-0.01 0,-0.01 0.01,-0.01 0,0.01 0,0.01 0,0.01 -0.01,0 -0.01,0 -0.01,0zm-0.25 -0.01c0,-0.01 0.01,-0.01 0.01,-0.01 0,0.01 0,0.01 0,0.02 -0.01,0 -0.01,-0.01 -0.01,-0.01l0 0zm0.24 -0.06c-0.01,-0.02 -0.02,-0.04 -0.01,-0.04 0,0 0,0.02 0.01,0.04 0.01,0.02 0.01,0.04 0.01,0.05 0,0 -0.01,-0.02 -0.01,-0.05zm-0.25 0.02c0,-0.02 0,-0.03 0.01,0 0,0.01 0,0.02 0,0.02 0,0 0,-0.01 -0.01,-0.02zm0.14 -0.02c0,-0.01 0,-0.01 0,-0.02 0,0 0.01,0.01 0.01,0.02 0,0.01 0,0.01 0,0.02 0,0 0,-0.01 -0.01,-0.02zm-0.14 -0.01c-0.01,-0.02 -0.05,-0.13 -0.08,-0.18 -0.13,-0.27 -0.35,-0.46 -0.65,-0.55 -0.04,-0.01 -0.07,-0.02 -0.06,-0.02 0.01,0 0.07,0.01 0.09,0.02 0.01,0 0.05,0.02 0.08,0.03 0.2,0.08 0.38,0.23 0.5,0.43 0.01,0.02 0.03,0.04 0.03,0.05 0.02,0.03 0.09,0.21 0.09,0.22 0,0 0,0 0,0zm0.13 -0.05c-0.02,-0.04 -0.01,-0.04 0,0 0.01,0.02 0.01,0.03 0.01,0.03 0,0.01 -0.01,-0.01 -0.01,-0.03zm-0.44 0c-0.02,-0.08 -0.06,-0.18 -0.12,-0.3 -0.01,-0.02 -0.05,-0.07 -0.06,-0.09 -0.01,0 -0.01,-0.01 -0.01,-0.02 0,-0.03 -0.22,-0.21 -0.3,-0.26 -0.05,-0.02 -0.05,-0.03 -0.02,-0.04 0.02,0 0.02,0 0,0.01 -0.02,0 -0.02,0 0.03,0.03 0.2,0.12 0.36,0.31 0.45,0.54 0.02,0.07 0.04,0.15 0.04,0.16 0,0 -0.01,-0.01 -0.01,-0.03l0 0zm0.53 0c0,-0.01 0,-0.02 0.01,-0.01 0,0.01 0,0.02 0,0.02 0,0 0,0 -0.01,-0.01zm-0.01 -0.02c0,0 0,-0.01 -0.01,-0.03 0,-0.01 0,-0.02 0,-0.02 0,0 0.02,0.04 0.02,0.05 0,0 -0.01,0 -0.01,0l0 0zm-0.1 -0.02c0,-0.01 0,-0.01 0,-0.01 0.01,0 0.01,0.01 0,0.01 0,0 0,0 0,0zm-0.02 -0.04c0,-0.02 -0.02,-0.04 -0.03,-0.06 0,-0.02 -0.02,-0.04 -0.02,-0.05 -0.01,-0.01 -0.01,-0.02 -0.01,-0.02 0,-0.03 -0.15,-0.19 -0.23,-0.26 -0.05,-0.03 -0.06,-0.04 -0.04,-0.05 0.02,-0.01 0.23,0.15 0.29,0.23 0.08,0.1 0.15,0.19 0.14,0.2 0,0 -0.01,-0.01 -0.02,-0.02 -0.05,-0.1 -0.17,-0.24 -0.27,-0.32 -0.09,-0.06 -0.19,-0.11 -0.11,-0.05 0.08,0.06 0.18,0.17 0.23,0.25 0.03,0.05 0.09,0.17 0.09,0.17 0,0 -0.01,-0.01 -0.02,-0.02l0 0zm0.1 0c0,0 0,0 0,0 0,0 0.01,0 0.01,0 0,0 -0.01,0.01 -0.01,0.01 0,0 0,-0.01 0,-0.01z"/>
 </g>
 </g>
 </svg>
