<svg width="30" height="30" viewBox="0 0 30 30" fill="none" xmlns="http://www.w3.org/2000/svg">
<path d="M0.0150208 25.0063V0H25.5871C27.9633 -6.90618e-06 30 1.92356 30 4.52603V25.0063C30 27.6088 28.3027 29.8718 25.5871 29.8718H4.08845C2.16489 29.8718 -0.211287 27.722 0.0150208 25.0063Z" fill="#663398"/>
<path d="M11.7827 24.78V24.1011H13.9326V25.2326C13.9326 26.8167 12.2353 27.722 10.6512 27.722C9.5197 27.722 7.59613 26.7036 7.59613 25.2326V18.783C7.59613 17.6515 8.95394 16.4069 10.9907 16.4069C12.6879 16.4069 13.9326 17.4252 13.9326 18.4436V20.0277H11.7827V19.2356C11.7827 18.1041 9.9723 18.2173 9.9723 19.2356V24.78C9.9723 25.7984 11.7827 25.9115 11.7827 24.78Z" fill="white"/>
<path d="M16.8745 24.1011H14.8378C14.8378 26.1378 15.4036 27.6088 17.6666 27.6088C19.7033 27.6088 20.948 26.4773 20.948 25.1195V24.1011C20.948 20.5934 17.1008 21.2724 17.1008 19.6882V18.783C17.1008 18.1041 18.685 18.1041 18.685 18.783V19.8014H20.8348V18.6699C20.8348 17.3121 19.7033 16.2937 17.7798 16.2937C16.4219 16.2937 14.8378 17.4252 14.8378 18.6699V19.9145C14.8378 23.0828 18.7981 22.1776 18.685 24.3274V24.8932C18.685 26.0247 16.8745 25.7984 16.8745 24.8932V24.1011Z" fill="white"/>
<path d="M23.6635 24.1011H21.6268C21.6268 26.1378 22.1926 27.6088 24.4556 27.6088C26.4923 27.6088 27.737 26.4773 27.737 25.1195V24.1011C27.737 20.5934 23.8898 21.2724 23.8898 19.6882V18.783C23.8898 18.1041 25.474 18.1041 25.474 18.783V19.8014H27.6238V18.6699C27.6238 17.3121 26.4923 16.2937 24.5688 16.2937C23.2109 16.2937 21.6268 17.4252 21.6268 18.6699V19.9145C21.6268 23.0828 25.5871 22.1776 25.474 24.3274V24.8932C25.474 26.0247 23.6635 25.7984 23.6635 24.8932V24.1011Z" fill="white"/>
</svg>
