<svg width="33" height="33" viewBox="0 0 33 33" fill="none" xmlns="http://www.w3.org/2000/svg">
<circle cx="16.0263" cy="16.0263" r="16.0263" fill="black"/>
<path d="M8.21347 17.4286L5.10838 11.9196C4.4073 10.7176 6.21022 9.91628 6.81117 10.9179L9.91627 16.427C10.5173 17.4286 8.81449 18.4302 8.21347 17.4286Z" fill="#C4F74F"/>
<path d="M25.3006 20.9874L22.1955 15.4784C21.4945 14.2764 23.2974 13.4751 23.8983 14.4767L27.0034 19.9858C27.6044 20.9874 25.9016 21.9891 25.3006 20.9874Z" fill="#C4F74F"/>
<path d="M18.4895 17.3815L15.3844 11.8724C14.6833 10.6705 16.4862 9.86916 17.0872 10.8708L20.1923 16.3798C20.7933 17.3815 19.0905 18.3831 18.4895 17.3815Z" fill="#C4F74F"/>
<path d="M14.8835 21.5884L11.7784 16.0793C11.0773 14.8774 12.8803 14.0761 13.4812 15.0777L16.5863 20.5867C17.1873 21.5884 15.4845 22.59 14.8835 21.5884Z" fill="#C4F74F"/>
</svg>
