<svg width="32" height="32" viewBox="0 0 32 32" fill="none" xmlns="http://www.w3.org/2000/svg">
<path d="M17.5144 31.2855C16.6625 32.1714 15.5812 32.3027 14.467 31.2855L0.737409 17.571C-0.245545 16.6523 -0.278316 15.3399 0.835712 14.3556L11.2886 3.92203L13.7789 6.38277C13.3858 7.66237 13.6807 8.67948 14.9913 9.40129V22.6237C12.5666 23.8377 13.4841 27.0531 16.0726 27.1515C18.2026 27.1515 19.5133 23.9033 16.8918 22.6237V9.53253L22.5278 15.143C21.6759 17.9319 24.7561 19.2771 26.4599 17.6694C27.677 16.5211 27.2464 12.9776 23.8385 13.7978L18.2353 8.15451C18.8579 5.69377 16.8918 4.51261 15.0896 5.03756L12.632 2.57682L14.8275 0.37855C15.3518 -0.113596 16.5642 -0.212024 17.4161 0.608219L31.4078 14.6181C32.096 15.2743 32.2926 16.357 31.4078 17.3413L17.5144 31.2855Z" fill="#FF4F2A"/>
</svg>
