<svg width="25" height="32" viewBox="0 0 25 32" fill="none" xmlns="http://www.w3.org/2000/svg">
<path d="M15.5932 31.6597C5.3366 33.6941 0.462619 26.1924 0.0811768 20.1741L17.6275 6.82361C21.2533 11.5683 23.4763 14.1982 24.5359 19.6231C25.0868 25.3871 20.891 30.3035 15.5932 31.6597Z" fill="black"/>
<path d="M12.0753 30.6849C1.73398 30.6849 -4.07243 20.3012 3.3445 7.84076C4.40953 9.26669 4.90238 9.81887 5.67553 10.5532C7.77448 6.29414 9.18596 3.96877 12.372 0C16.283 4.75312 18.3332 7.45478 21.1028 12.5028C27.2906 22.4203 20.6366 30.473 12.0753 30.6849Z" fill="#FF4B18"/>
<path d="M12.0736 6.5346L12.1178 6.4845C16.2713 11.3161 19.1533 14.961 19.9161 19.8774C19.7466 24.6242 15.8898 27.1248 11.8635 27.2095C6.9895 27.04 3.72602 23.9885 4.02272 19.284C5.37409 14.1319 7.98783 11.1679 12.0736 6.5346Z" fill="#FF9859"/>
</svg>
