<svg xmlns="http://www.w3.org/2000/svg" width="32" height="32" viewBox="0 0 3.86 3.86">
 <g>
 <g fill-rule="nonzero"><path fill="#FD9657" d="M1.78 3.31c-0.43,-0.08 -0.71,-0.41 -0.71,-0.82 0,-0.14 0.03,-0.24 0.12,-0.43 0.06,-0.12 0.09,-0.17 0.18,-0.32 0.02,-0.02 0.04,-0.05 0.04,-0.06 0.02,-0.02 0.11,-0.15 0.13,-0.17 0,-0.01 0.03,-0.05 0.06,-0.09 0.03,-0.04 0.08,-0.1 0.11,-0.14 0.03,-0.05 0.08,-0.1 0.1,-0.14 0.03,-0.03 0.06,-0.06 0.07,-0.08 0.02,-0.02 0.04,-0.05 0.05,-0.06 0.01,-0.02 0.02,-0.04 0.03,-0.04 0,0 0.01,-0.01 0.02,-0.03 0.01,-0.01 0.02,-0.03 0.02,-0.03 0.03,0.02 0.52,0.67 0.57,0.76 0,0.02 0.02,0.04 0.03,0.05 0.01,0.02 0.03,0.05 0.06,0.09 0.02,0.04 0.04,0.08 0.06,0.11 0.02,0.04 0.09,0.19 0.12,0.25 0.27,0.63 -0.33,1.28 -1.06,1.15l0 0zm-0.11 -2.64c0,-0.01 0,-0.01 0.01,-0.01 0,0.01 0,0.01 0,0.02 -0.01,0 -0.01,0 -0.01,-0.01zm0.04 -0.06c0,-0.01 0,-0.01 0.01,-0.01 0,0 0,0 0,0.01 0,0 0,0 0,0 -0.01,0 -0.01,0 -0.01,0zm0.04 -0.06c0.01,-0.02 0.02,-0.03 0.02,-0.03 0.01,0 0.01,0.01 0,0.03 -0.01,0.02 -0.02,0.03 -0.03,0.03 -0.01,0 0,-0.01 0.01,-0.03zm0.06 -0.08c0,-0.01 0.01,-0.01 0.01,-0.01 0,0 0,0 0,0.01 -0.01,0 -0.01,0.01 -0.01,0.01 -0.01,0 -0.01,-0.01 0,-0.01zm0.44 -0.02c-0.01,-0.02 -0.02,-0.04 -0.01,-0.04 0.01,0 0.05,0.04 0.05,0.05 0,0.01 -0.02,0.01 -0.04,-0.01zm-0.39 -0.06c0,-0.02 0.03,-0.05 0.04,-0.04 0,0.01 0,0.02 -0.01,0.03 -0.02,0.01 -0.03,0.02 -0.03,0.01l0 0zm0.11 -0.01c0,-0.01 0.01,-0.01 0.01,-0.01 0.01,0 0.01,0 0.01,0.01 0,0 -0.01,0.01 -0.01,0.01 0,0 -0.01,-0.01 -0.01,-0.01zm0.01 -0.05c0,-0.03 0.02,-0.06 0.04,-0.06 0,0 0,0.01 -0.01,0.02 -0.01,0.01 -0.01,0.02 -0.01,0.02 0.02,0.02 0.01,0.05 -0.01,0.05 0,0 -0.01,-0.01 -0.01,-0.03l0 0zm0.16 0.01c-0.02,-0.02 -0.03,-0.03 -0.03,-0.03 0.02,-0.11 -0.09,-0.12 -0.16,-0.01 -0.01,0.01 -0.02,0.02 -0.02,0.02 -0.01,-0.01 0.1,-0.16 0.11,-0.16 0.01,0 0.03,0.02 0.04,0.04 0.02,0.02 0.04,0.05 0.05,0.06 0.03,0.03 0.07,0.1 0.06,0.1 -0.01,0 -0.03,-0.01 -0.05,-0.02l0 0z"/>
 <path fill="#EE7845" d="M1.77 3.32c-0.5,-0.1 -0.81,-0.56 -0.69,-1.02 0.05,-0.21 0.25,-0.55 0.57,-0.98 0.11,-0.15 0.14,-0.21 0.2,-0.34 0.01,-0.02 0.03,-0.03 0.05,-0.04 0.03,0 0.04,-0.02 0.03,-0.04 -0.01,0 -0.02,-0.01 -0.02,-0.02 -0.01,-0.05 -0.13,-0.05 -0.17,0 -0.01,0.02 -0.03,0.04 -0.02,0.04 0.01,0.03 -0.02,0.04 -0.04,0.02 -0.01,-0.01 -0.03,-0.02 -0.04,-0.02 -0.02,0 -0.03,0 -0.04,0 -0.01,-0.01 -0.02,0 -0.03,0.01 0,0.01 -0.02,0.03 -0.03,0.04 -0.03,0.02 -0.04,0.03 -0.04,0.06 0,0.03 -0.01,0.04 -0.05,0.09 -0.04,0.03 -0.06,0.07 -0.07,0.08 0,0.02 -0.01,0.04 -0.02,0.06 0,0.01 -0.02,0.04 -0.03,0.05 -0.05,0.11 -0.19,0.09 -0.25,-0.04 -0.02,-0.02 -0.04,-0.04 -0.05,-0.04 -0.01,-0.01 -0.02,-0.02 -0.02,-0.02 0.01,-0.02 -0.01,-0.06 -0.03,-0.06 -0.01,0 -0.05,0.06 -0.05,0.08 0,0.01 -0.01,0.02 -0.02,0.03 -0.02,0.01 -0.03,0.03 -0.04,0.05 0,0.02 -0.02,0.04 -0.03,0.06 -0.02,0.02 -0.03,0.04 -0.03,0.07 0,0.04 0,0.05 -0.02,0.07 -0.02,0.02 -0.04,0.06 -0.05,0.11 -0.02,0.05 -0.03,0.09 -0.04,0.09 -0.01,0.02 -0.02,0.09 -0.04,0.17 -0.01,0.06 -0.03,0.14 -0.04,0.11 -0.01,-0.18 0.28,-0.92 0.35,-0.92 0.01,0 0.05,0.05 0.08,0.1 0.18,0.23 0.18,0.24 0.27,0.05 0.14,-0.27 0.49,-0.81 0.67,-1.03 0.06,-0.07 0.04,-0.03 -0.01,0.05 -0.03,0.04 -0.06,0.07 -0.05,0.08 0,0 0.01,-0.01 0.02,-0.02 0.07,-0.11 0.18,-0.1 0.16,0.01 0,0 0.07,0.05 0.08,0.05 0.01,0 -0.04,-0.07 -0.06,-0.1 -0.03,-0.04 -0.08,-0.1 -0.07,-0.11 0,-0.01 0.4,0.51 0.53,0.69 0.11,0.16 0.33,0.49 0.36,0.55 0.01,0.02 0.04,0.06 0.06,0.1 0.04,0.07 0.13,0.25 0.19,0.38 0.04,0.09 0.11,0.28 0.1,0.3 0,0 -0.01,-0.03 -0.02,-0.07 -0.02,-0.04 -0.04,-0.11 -0.07,-0.15 -0.02,-0.05 -0.06,-0.13 -0.09,-0.2 -0.03,-0.06 -0.06,-0.12 -0.08,-0.14 -0.01,-0.02 -0.03,-0.05 -0.03,-0.06 -0.01,-0.02 -0.02,-0.04 -0.03,-0.06 -0.02,-0.02 -0.04,-0.06 -0.06,-0.09 -0.03,-0.06 -0.13,-0.18 -0.14,-0.18 0,0 -0.01,-0.02 -0.02,-0.04 -0.01,-0.05 -0.04,-0.07 -0.07,-0.06 -0.03,0.01 -0.05,-0.03 -0.03,-0.06 0.01,-0.02 0,-0.03 -0.03,-0.06 -0.02,-0.02 -0.03,-0.04 -0.03,-0.03 0.01,0.01 0,0.02 -0.01,0.03 -0.02,0.03 -0.08,-0.04 -0.08,-0.1 0.01,-0.07 -0.07,-0.11 -0.09,-0.05 -0.01,0.02 -0.02,0.03 -0.03,0.03 -0.02,0 -0.09,-0.02 -0.1,-0.03 -0.01,-0.01 -0.03,-0.02 -0.03,-0.02 -0.01,0 -0.01,0 -0.01,-0.01 0,0 0,-0.01 -0.01,-0.02 0,0 -0.02,-0.01 -0.02,-0.03 -0.02,-0.02 -0.04,-0.03 -0.04,-0.01 0,0.01 -0.01,0.01 -0.01,0.01 -0.01,-0.01 -0.01,-0.01 -0.01,0 0,0.01 -0.02,0.03 -0.04,0.04 -0.04,0.05 -0.04,0.14 0.01,0.12 0.01,-0.01 0.02,0.01 0.02,0.03 0,0.04 0.02,0.09 0.03,0.09 0,0 0.01,0.02 0.02,0.04 0.01,0.03 0.12,0.18 0.16,0.23 0.01,0.01 0.03,0.03 0.04,0.05 0.01,0.03 0.04,0.07 0.07,0.11 0.16,0.22 0.37,0.61 0.41,0.74 0,0.02 0.02,0.07 0.02,0.09 0.08,0.24 -0.04,0.58 -0.27,0.78 -0.13,0.11 -0.27,0.18 -0.46,0.22 -0.08,0.02 -0.32,0.02 -0.4,0.01l0 0zm0.33 -0.01c0.62,-0.09 0.96,-0.63 0.74,-1.15 -0.03,-0.06 -0.1,-0.21 -0.12,-0.25 -0.02,-0.03 -0.04,-0.07 -0.06,-0.11 -0.03,-0.04 -0.05,-0.07 -0.06,-0.09 -0.01,-0.01 -0.03,-0.03 -0.03,-0.05 -0.05,-0.09 -0.54,-0.74 -0.57,-0.76 0,0 -0.01,0.02 -0.02,0.03 -0.01,0.02 -0.02,0.03 -0.02,0.03 -0.01,0 -0.02,0.02 -0.03,0.04 -0.01,0.01 -0.03,0.04 -0.05,0.06 -0.01,0.02 -0.04,0.05 -0.07,0.08 -0.02,0.04 -0.07,0.09 -0.1,0.14 -0.03,0.04 -0.08,0.1 -0.11,0.14 -0.03,0.04 -0.06,0.08 -0.06,0.09 -0.02,0.02 -0.11,0.15 -0.13,0.17 0,0.01 -0.02,0.04 -0.04,0.06 -0.09,0.15 -0.12,0.2 -0.18,0.32 -0.09,0.19 -0.12,0.29 -0.12,0.43 0,0.53 0.48,0.91 1.03,0.82l0 0zm-0.43 -2.51c0,-0.02 0,-0.03 -0.01,-0.03 -0.01,0 -0.03,0.05 -0.02,0.06 0.01,0.01 0.03,0 0.03,-0.03zm0.66 -0.07c0,-0.01 -0.01,-0.01 -0.01,-0.01 0,0 0,0 0,0.01 0,0 0,0 0,0 0,0 0.01,0 0.01,0zm-0.65 -0.07c-0.01,0 -0.01,0 -0.01,0.01 0,0.01 0,0.01 0.01,0.01 0,-0.01 0,-0.01 0,-0.02zm0.04 -0.05c0,-0.01 0,-0.01 0,-0.01 -0.01,0 -0.01,0 -0.01,0.01 0,0 0,0 0.01,0 0,0 0,0 0,0zm0.05 -0.06c0.01,-0.02 0.01,-0.03 0,-0.03 0,0 -0.01,0.01 -0.02,0.03 -0.01,0.02 -0.02,0.03 -0.01,0.03 0.01,0 0.02,-0.01 0.03,-0.03zm0.05 -0.08c0,-0.01 0,-0.01 0,-0.01 0,0 -0.01,0 -0.01,0.01 -0.01,0 -0.01,0.01 0,0.01 0,0 0,-0.01 0.01,-0.01zm0.47 -0.01c0,-0.01 -0.04,-0.05 -0.05,-0.05 -0.01,0 0,0.02 0.01,0.04 0.02,0.02 0.04,0.02 0.04,0.01zm-0.39 -0.11c0,0 -0.01,0 -0.02,0.01 -0.02,0.03 -0.02,0.05 0.01,0.02 0.01,-0.01 0.01,-0.02 0.01,-0.03zm0.09 0.03c0,-0.01 0,-0.01 -0.01,-0.01 0,0 -0.01,0 -0.01,0.01 0,0 0.01,0.01 0.01,0.01 0,0 0.01,-0.01 0.01,-0.01zm0.02 -0.04c0,-0.01 0,-0.02 -0.01,-0.03 0,0 0,-0.01 0.01,-0.02 0.01,-0.01 0.01,-0.02 0.01,-0.02 -0.02,0 -0.04,0.03 -0.04,0.06 0,0.03 0.02,0.04 0.03,0.01l0 0zm1.31 1.89c0,0 0,-0.01 0,-0.01 0,-0.01 0.01,0 0.01,0.01 0.01,0.02 0,0.02 -0.01,0zm-2.73 -0.09c0,-0.02 0.01,-0.04 0.01,-0.05 0.01,-0.03 0.01,0.03 0,0.06 0,0.03 -0.01,0.03 -0.01,-0.01zm0.02 -0.1c0,-0.02 0.01,-0.02 0.01,-0.01 0,0.01 0,0.02 0,0.02 0,0 -0.01,0 -0.01,-0.01zm0.39 -0.81c0,0 0,0 0,0 0,0 0.01,0 0.01,0 0,0 -0.01,0.01 -0.01,0.01 0,0 0,-0.01 0,-0.01z"/>
 <path fill="#F96D34" d="M1.9 3.34c0.03,-0.01 0.08,-0.01 0.1,0 0.03,0 0,0 -0.05,0 -0.06,0 -0.08,0 -0.05,0zm-0.16 -0.02c-0.01,0 0,0 0.03,0 0.03,0 0.06,0.01 0.06,0.01 0.01,0.01 -0.06,0 -0.09,-0.01zm0.36 0c0.09,-0.01 0.15,-0.02 0.1,-0.01 -0.02,0.01 -0.06,0.02 -0.09,0.02 -0.05,0 -0.05,0 -0.01,-0.01l0 0zm-0.41 -0.01c0.01,-0.01 0.02,-0.01 0.02,0 0,0 0,0 -0.01,0 -0.02,0 -0.02,0 -0.01,0zm-0.11 -0.04c-0.18,-0.07 -0.36,-0.23 -0.44,-0.39 -0.03,-0.06 -0.01,-0.03 0.04,0.05 0.07,0.13 0.26,0.28 0.41,0.34 0.05,0.01 0.08,0.03 0.08,0.03 0,0.01 -0.03,0 -0.09,-0.03l0 0zm0.68 0.02c0.03,-0.01 0.04,-0.01 0.03,0 -0.01,0.01 -0.03,0.01 -0.03,0.01 -0.01,0 -0.01,0 0,-0.01zm0.05 -0.01c0,-0.01 0.01,-0.01 0.01,0 0.01,0 0,0 0,0 -0.01,0 -0.01,0 -0.01,0zm0.13 -0.06c0.16,-0.09 0.3,-0.21 0.39,-0.37 0.01,-0.02 0.02,-0.03 0.02,-0.02 -0.03,0.08 -0.18,0.25 -0.3,0.33 -0.05,0.03 -0.19,0.11 -0.21,0.11 0,0 0.04,-0.02 0.1,-0.05l0 0zm-1.35 -0.44c-0.01,-0.02 -0.01,-0.05 -0.01,-0.06 0,0 0.01,0.02 0.02,0.05 0.01,0.03 0.02,0.05 0.01,0.06 0,0 -0.01,-0.02 -0.02,-0.05zm1.76 0.02c0,-0.01 0.01,-0.01 0.01,-0.02 0.01,0 0.01,-0.02 0.02,-0.03 0,-0.02 0.01,-0.03 0.01,-0.03 0.01,0.01 -0.02,0.08 -0.03,0.08 0,0.01 -0.01,0.01 -0.01,0l0 0zm-1.79 -0.15c-0.02,-0.11 -0.03,-0.2 -0.01,-0.26 0,-0.03 0.01,-0.08 0.02,-0.11 0.01,-0.04 0.02,-0.09 0.04,-0.11 0.06,-0.15 0.15,-0.32 0.19,-0.38 0.03,-0.06 0.04,-0.07 0.02,-0.08 -0.01,-0.02 -0.01,-0.03 0.01,-0.05 0.02,-0.02 0.02,-0.04 0.01,-0.05 0,-0.02 0,-0.03 0,-0.04 0,0 -0.01,0 -0.02,0.02 -0.04,0.04 -0.15,0.08 -0.15,0.05 0,-0.01 -0.05,-0.01 -0.06,0 0,0 -0.06,0.01 -0.13,0.02 -0.1,0.01 -0.12,0.01 -0.12,0.03 0,0.02 0,0.02 -0.04,0.01 -0.04,-0.01 -0.09,0.01 -0.09,0.04 0,0.01 0,0.02 -0.01,0.02 -0.02,0.02 -0.03,0.07 -0.04,0.13 0,0.01 -0.02,0.07 -0.04,0.12 -0.02,0.08 -0.03,0.09 -0.02,0.05 0,-0.03 0.01,-0.07 0.02,-0.09 0.01,-0.02 0.02,-0.06 0.02,-0.09 0.01,-0.08 0.03,-0.15 0.04,-0.17 0.01,0 0.02,-0.04 0.04,-0.09 0.01,-0.05 0.03,-0.09 0.05,-0.11 0.02,-0.02 0.02,-0.03 0.02,-0.07 0,-0.03 0.01,-0.05 0.03,-0.07 0.01,-0.02 0.03,-0.04 0.03,-0.06 0.01,-0.02 0.02,-0.04 0.04,-0.05 0.01,-0.01 0.02,-0.02 0.02,-0.03 0,-0.02 0.04,-0.08 0.05,-0.08 0.02,0 0.04,0.04 0.03,0.06 0,0 0.01,0.01 0.02,0.02 0.01,0 0.03,0.02 0.05,0.04 0.06,0.13 0.2,0.15 0.25,0.04 0.01,-0.01 0.03,-0.04 0.03,-0.05 0.01,-0.02 0.02,-0.04 0.02,-0.06 0.01,-0.01 0.03,-0.05 0.07,-0.08 0.04,-0.05 0.05,-0.06 0.05,-0.09 0,-0.03 0.01,-0.04 0.04,-0.06 0.01,-0.01 0.03,-0.03 0.03,-0.04 0.01,-0.01 0.01,-0.02 0.03,-0.01 0.01,0 0.02,0 0.04,0 0.01,0 0.03,0.01 0.04,0.02 0.02,0.02 0.05,0.01 0.04,-0.02 -0.01,0 0.01,-0.02 0.02,-0.04 0.04,-0.05 0.16,-0.05 0.17,0 0,0.01 0.01,0.02 0.02,0.02 0.01,0.02 0,0.04 -0.03,0.04 -0.02,0.01 -0.04,0.02 -0.05,0.04 -0.06,0.13 -0.09,0.19 -0.2,0.34 -0.5,0.67 -0.65,1.01 -0.58,1.33 0,0.02 0.01,0.05 0,0.05 0,0.01 -0.01,-0.02 -0.01,-0.05l0 0zm-0.2 -1.01c0,-0.01 -0.01,-0.02 -0.03,-0.02 -0.02,0 -0.02,0 -0.01,0.01 0.01,0 0.02,0.01 0.01,0.01 0,0 0,0 0,0.01 0.01,0.01 0.03,0.01 0.03,-0.01zm0.08 -0.12c0,0 -0.01,0 -0.01,0 0,0 0,0 0,0 0,0.01 0,0.01 0,0.01 0,0 0.01,0 0.01,-0.01zm0.07 -0.29c0,0 -0.01,0 -0.01,0 0,0 0,0 0,0 0,0 0,0.01 0,0.01 0,0 0.01,-0.01 0.01,-0.01zm1.89 1.45c0.01,-0.03 0.01,-0.04 0.01,-0.02 0,0.01 0,0.03 -0.01,0.04 -0.01,0.01 -0.01,0 0,-0.02zm0.02 -0.19c0,-0.08 -0.01,-0.16 -0.02,-0.18 0,-0.02 -0.02,-0.07 -0.02,-0.09 -0.04,-0.13 -0.25,-0.52 -0.41,-0.74 -0.03,-0.04 -0.06,-0.08 -0.07,-0.11 -0.01,-0.02 -0.03,-0.04 -0.04,-0.05 -0.04,-0.05 -0.15,-0.2 -0.16,-0.23 -0.01,-0.02 -0.02,-0.04 -0.02,-0.04 -0.01,0 -0.03,-0.05 -0.03,-0.09 0,-0.02 -0.01,-0.04 -0.02,-0.03 -0.05,0.02 -0.05,-0.07 -0.01,-0.12 0.02,-0.01 0.04,-0.03 0.04,-0.04 0,-0.01 0,-0.01 0.01,0 0,0 0.01,0 0.01,-0.01 0,-0.02 0.02,-0.01 0.04,0.01 0,0.02 0.02,0.03 0.02,0.04 0.01,0 0.01,0.01 0.01,0.01 0,0.01 0,0.01 0.01,0.01 0,0 0.02,0.01 0.03,0.02 0.01,0.01 0.08,0.03 0.1,0.03 0.01,0 0.02,-0.01 0.03,-0.03 0.02,-0.06 0.1,-0.02 0.09,0.05 0,0.06 0.06,0.13 0.08,0.1 0.01,-0.01 0.02,-0.02 0.01,-0.03 0,-0.01 0.01,0.01 0.03,0.03 0.03,0.03 0.04,0.04 0.03,0.06 -0.02,0.03 0,0.07 0.03,0.06 0.03,-0.01 0.06,0.01 0.07,0.06 0.01,0.02 0.02,0.04 0.02,0.04 0.01,0 0.11,0.12 0.14,0.18 0.02,0.03 0.04,0.07 0.06,0.09 0.01,0.02 0.02,0.04 0.03,0.06 0,0.01 0.02,0.04 0.03,0.06 0.02,0.02 0.05,0.07 0.07,0.12 0.03,0.05 0.05,0.1 0.05,0.1 0,0.01 0,0.01 0,0.01 0,0 -0.01,-0.01 -0.02,-0.02 0,-0.02 -0.01,-0.03 -0.02,-0.03 -0.02,0 -0.05,-0.05 -0.05,-0.08 0,-0.02 -0.01,-0.04 -0.04,-0.07 -0.04,-0.05 -0.06,-0.05 -0.03,-0.01 0.01,0.02 0.02,0.04 0.02,0.04 -0.01,0.01 -0.01,0.01 0,0.01 0.01,-0.01 0.01,-0.01 0.01,0 0,0.01 0,0.02 0,0.02 -0.01,0 -0.02,0 -0.04,0.01 -0.03,0.02 -0.06,-0.01 -0.02,-0.04 0.01,-0.02 0,-0.05 -0.03,-0.06 -0.01,0 -0.02,-0.01 -0.03,-0.02 -0.03,-0.02 -0.04,-0.02 -0.05,0.01 0,0.03 -0.07,0.09 -0.08,0.07 0,-0.01 -0.01,-0.01 -0.01,0 -0.02,0 -0.03,-0.01 -0.04,-0.06 -0.01,-0.02 -0.04,-0.02 -0.04,0 0,0.01 0,0.02 -0.01,0.02 -0.01,0 -0.01,0.01 -0.01,0.02 0,0.01 -0.01,0.03 -0.01,0.04 -0.01,0.01 -0.01,0.02 0.01,0.05 0.05,0.07 0.2,0.41 0.23,0.52 0.03,0.09 0.04,0.28 0.03,0.34 -0.01,0.03 -0.01,-0.01 -0.01,-0.11zm-0.27 -0.88c0,0 -0.01,-0.01 -0.01,-0.01 -0.01,0 -0.01,0.01 -0.01,0.01 0,0.01 0,0.02 0.01,0.02 0,0 0.01,-0.01 0.01,-0.02zm0.66 0.63c0,0 0.01,-0.01 0.01,-0.01 0,0 0.01,0.01 0.01,0.01 0,0 -0.01,0 -0.01,0 0,0 -0.01,0 -0.01,0zm-0.01 -0.03c0,0 0.01,-0.01 0.01,0 0.01,0 0.01,0.01 0,0.01 0,0 -0.01,0 -0.01,-0.01zm-0.01 -0.03c0,0 0.01,-0.01 0.01,-0.01 0,0 0,0.01 0,0.01 0,0 0,0 0,0 0,0 -0.01,0 -0.01,0zm-2.69 -0.03c0,-0.01 0.01,-0.02 0.01,-0.01 0,0.01 0,0.02 0,0.02 0,0 -0.01,0 -0.01,-0.01zm2.68 0.01c0,0 0.01,-0.01 0.01,-0.01 0,0 0,0.01 0,0.01 0,0 0,0 0,0 0,0 -0.01,0 -0.01,0zm-0.01 -0.03c0,0 0.01,-0.01 0.01,0 0.01,0 0.01,0.01 0,0.01 0,0 -0.01,0 -0.01,-0.01zm-0.01 -0.04c0,-0.01 0.01,-0.01 0.01,-0.01 0,0 0,0 0,0.01 0,0 0,0 0,0 0,0 -0.01,0 -0.01,0zm-0.01 -0.03c0,-0.01 0.01,-0.01 0.01,0 0,0 0,0.01 0,0.01 0,0 -0.01,0 -0.01,-0.01zm-0.03 -0.08c-0.03,-0.05 -0.06,-0.12 -0.06,-0.13 0,0 0.02,0.04 0.05,0.09 0.02,0.05 0.04,0.09 0.04,0.09 0,0.01 -0.01,-0.01 -0.03,-0.05zm-0.54 -0.25c0,-0.01 0,-0.01 0.01,-0.01 0,0.01 0,0.01 0,0.02 -0.01,0 -0.01,0 -0.01,-0.01zm-1.04 -0.9c-0.01,-0.01 0.01,-0.06 0.02,-0.06 0.02,0 0.01,0.05 0,0.06 -0.01,0 -0.02,0 -0.02,0l0 0zm0.68 -0.1c0,-0.01 0,-0.01 0,-0.01 0,0 0.01,0 0.01,0.01 0,0 -0.01,0 -0.01,0 0,0 0,0 0,0z"/>
 <path fill="#F75924" d="M1.79 3.34c0.01,-0.01 0.03,-0.01 0.05,0 0.01,0 0,0 -0.03,0 -0.02,0 -0.03,0 -0.02,0l0 0zm0.3 -0.01c0.58,-0.07 0.95,-0.56 0.81,-1.07 -0.03,-0.11 -0.18,-0.45 -0.23,-0.52 -0.02,-0.03 -0.02,-0.04 -0.01,-0.05 0,-0.01 0.01,-0.03 0.01,-0.04 0,-0.01 0,-0.02 0.01,-0.02 0.01,0 0.01,-0.01 0.01,-0.02 0,-0.02 0.03,-0.02 0.04,0 0.01,0.05 0.02,0.06 0.04,0.06 0,-0.01 0.01,-0.01 0.01,0 0.01,0.02 0.08,-0.04 0.08,-0.07 0.01,-0.03 0.02,-0.03 0.05,-0.01 0.01,0.01 0.02,0.02 0.03,0.02 0.03,0.01 0.04,0.04 0.03,0.06 -0.04,0.03 -0.01,0.06 0.02,0.04 0.02,-0.01 0.03,-0.01 0.04,-0.01 0,0 0,-0.01 0,-0.02 0,-0.01 0,-0.01 -0.01,0 -0.01,0 -0.01,0 0,-0.01 0,0 -0.01,-0.02 -0.02,-0.04 -0.03,-0.04 -0.01,-0.04 0.03,0.01 0.03,0.03 0.04,0.05 0.04,0.07 0,0.03 0.03,0.08 0.05,0.08 0.01,0 0.06,0.1 0.06,0.12 0,0 0.02,0.04 0.05,0.1 0.02,0.05 0.04,0.1 0.04,0.11 0,0.02 0.03,0.06 0.04,0.06 0,0 0,0 0.01,0.01 0,0.01 0,0.02 -0.01,0.02 -0.01,-0.01 -0.01,0.01 0.01,0.03 0.06,0.06 0.04,0.44 -0.03,0.62 -0.01,0.03 -0.02,0.07 -0.03,0.08 0,0.02 -0.01,0.03 -0.01,0.03 0,-0.01 0,-0.03 0.01,-0.05 0.01,-0.03 0.02,-0.06 0.02,-0.09 0.01,-0.02 0.02,-0.07 0.03,-0.1 0.03,-0.14 0.01,-0.43 -0.03,-0.44 -0.01,-0.01 -0.02,-0.01 -0.02,-0.02 0,-0.06 -0.05,-0.09 -0.09,-0.05 -0.03,0.03 -0.03,0.03 -0.05,0 -0.02,-0.03 -0.03,-0.03 -0.05,-0.02 -0.01,0.01 -0.02,0.01 -0.03,0.01 -0.02,-0.02 -0.05,0 -0.05,0.04 0,0.02 0,0.03 0,0.03 -0.01,-0.02 -0.05,-0.02 -0.05,0 0,0.01 0.01,0.01 0.02,0.01 0.02,0 0.02,0.02 0,0.03 -0.01,0 -0.01,0.03 -0.01,0.09 0.01,0.31 -0.12,0.56 -0.38,0.75 -0.12,0.09 -0.37,0.19 -0.49,0.18 -0.04,0 -0.04,0 0.01,-0.01l0 0zm0.6 -1.61c-0.01,0 -0.01,0 -0.01,0.01 0,0.01 0,0.01 0.01,0.01 0,-0.01 0,-0.01 0,-0.02zm-1.01 1.6c-0.02,-0.01 -0.05,-0.02 -0.06,-0.03 -0.02,-0.01 -0.02,-0.01 0,0 0.01,0 0.05,0.01 0.08,0.02 0.04,0.01 0.06,0.02 0.05,0.02 -0.01,0 -0.04,0 -0.07,-0.01zm-0.16 -0.06c-0.12,-0.07 -0.2,-0.12 -0.28,-0.21 -0.14,-0.16 -0.22,-0.39 -0.21,-0.63 0,-0.06 0,-0.09 -0.01,-0.1 -0.01,-0.01 -0.01,-0.03 0,-0.09 0.01,-0.02 -0.03,-0.02 -0.05,0.01 -0.02,0.02 -0.15,0.02 -0.2,-0.01 -0.04,-0.02 -0.06,-0.02 -0.06,0 0,0.01 0,0.02 -0.01,0.02 -0.01,0 -0.02,0.01 -0.01,0.03 0.01,0.02 -0.02,0.03 -0.05,0.01 -0.02,-0.02 -0.02,-0.04 -0.02,0.17 -0.01,0.13 0,0.21 0.03,0.3 0.01,0.02 0.01,0.05 0.01,0.06 0,0.07 -0.07,-0.19 -0.08,-0.3 -0.01,-0.14 0,-0.33 0.02,-0.35 0.01,-0.01 0.01,-0.02 0.01,-0.03 0,-0.01 0.02,-0.07 0.03,-0.12 0.02,-0.06 0.04,-0.12 0.04,-0.13 0.01,-0.06 0.02,-0.11 0.04,-0.13 0.01,0 0.01,-0.01 0.01,-0.02 0,-0.03 0.05,-0.05 0.09,-0.04 0.04,0.01 0.04,0.01 0.04,-0.01 0,-0.02 0.02,-0.02 0.12,-0.03 0.07,-0.01 0.13,-0.02 0.13,-0.02 0.01,-0.01 0.06,-0.01 0.06,0 0,0.03 0.11,-0.01 0.15,-0.05 0.01,-0.02 0.02,-0.02 0.02,-0.02 0,0.01 0,0.02 0,0.04 0.01,0.01 0.01,0.03 -0.01,0.05 -0.02,0.02 -0.02,0.03 -0.01,0.05 0.02,0.01 0.01,0.02 -0.02,0.08 -0.04,0.06 -0.13,0.24 -0.19,0.38 -0.01,0.02 -0.03,0.06 -0.03,0.08 -0.01,0.03 -0.02,0.08 -0.03,0.12 -0.08,0.32 0.17,0.76 0.5,0.89 0.03,0.01 0.04,0.02 0.03,0.02 -0.01,0 -0.03,-0.01 -0.06,-0.02l0 0zm1.61 -0.09c0,-0.01 0.01,-0.01 0.01,-0.01 0,0 0,0 0,0.01 0,0 0,0 0,0 0,0 -0.01,0 -0.01,0zm-2.32 -0.05c-0.02,-0.02 -0.03,-0.04 -0.02,-0.04 0,0 0.01,0.01 0.02,0.03 0.02,0.02 0.01,0.03 0,0.01zm-0.04 -0.05c0,-0.01 0.01,-0.01 0.01,-0.01 0,0 0,0 0,0.01 0,0 0,0 0,0 0,0 -0.01,0 -0.01,0zm2.42 -0.01c0,-0.01 0.01,-0.03 0.02,-0.04 0.03,-0.03 0.03,-0.03 0.01,0.01 -0.02,0.04 -0.03,0.05 -0.03,0.03zm-2.46 -0.07c-0.03,-0.04 -0.05,-0.09 -0.04,-0.09 0.01,0 0.06,0.1 0.05,0.11 0,0 -0.01,-0.01 -0.01,-0.02l0 0zm-0.07 -0.13c0,-0.01 0.01,-0.01 0.01,-0.01 0,0.01 0,0.01 0,0.02 0,0 -0.01,0 -0.01,-0.01zm0.3 -0.55c0,-0.02 0.02,-0.02 0.02,0 0.01,0.01 0,0.01 -0.01,0.01 -0.01,0 -0.01,0 -0.01,-0.01l0 0zm-0.36 -0.25c0,-0.01 0.01,-0.01 0.01,0 0,0 0,0.01 0,0.01 0,0 -0.01,0 -0.01,-0.01zm0.01 -0.04c0,-0.01 0.01,-0.01 0.01,-0.01 0,0 0,0 0,0.01 0,0 0,0 0,0 0,0 -0.01,0 -0.01,0zm2.63 -0.03c0,-0.01 0.01,-0.01 0.01,-0.01 0,0 0,0 0,0.01 0,0 0,0 0,0 0,0 -0.01,0 -0.01,0zm-2.41 -0.34c0,-0.01 0,-0.01 0,-0.01 0.01,0 0,-0.01 -0.01,-0.01 -0.01,-0.01 -0.01,-0.01 0.01,-0.01 0.02,0 0.03,0.01 0.03,0.02 0,0.02 -0.02,0.02 -0.03,0.01zm1.8 -0.04c0,0 0,-0.01 0.01,-0.01 0,0 0.01,0.01 0.01,0.01 0,0.01 -0.01,0.02 -0.01,0.02 -0.01,0 -0.01,-0.01 -0.01,-0.02zm-1.7 -0.09c0,0 0,0 0,0 0,0 0.01,0 0.01,0 0,0.01 -0.01,0.01 -0.01,0.01 0,0 0,0 0,-0.01zm0.32 -0.16c0,0 0,0 0,0 0.01,0 0.01,0 0.01,0 0,0 0,0.01 -0.01,0.01 0,0 0,-0.01 0,-0.01z"/>
 <path fill="#F74915" d="M1.87 3.74c-0.15,-0.02 -0.44,-0.09 -0.47,-0.12 -0.02,-0.02 0.17,0.04 0.21,0.06 0.12,0.07 0.66,0.05 0.85,-0.03 0.04,-0.02 0.08,-0.03 0.09,-0.04 0.02,0 0.05,-0.02 0.07,-0.03 0.02,-0.02 0.06,-0.04 0.09,-0.04 0.02,-0.01 0.04,-0.02 0.05,-0.03 0,-0.01 0.02,-0.03 0.04,-0.04 0.02,-0.01 0.06,-0.04 0.09,-0.07 0.03,-0.02 0.06,-0.05 0.06,-0.05 0.01,0 0.02,-0.01 0.04,-0.04 0.01,-0.02 0.03,-0.04 0.04,-0.05 0.03,-0.02 0.08,-0.1 0.08,-0.12 0,-0.01 0.01,-0.02 0.02,-0.03 0.02,-0.03 0.04,-0.11 0.04,-0.17 0,-0.02 0.01,-0.04 0.02,-0.05 0.01,-0.01 0.01,-0.02 0.01,-0.04 0,-0.03 0,-0.04 0.02,-0.04 0.02,0 0.04,-0.03 0.03,-0.07 0,-0.04 0,-0.04 -0.01,-0.03 0,0.01 -0.02,0.04 -0.03,0.05 -0.02,0.02 -0.03,0.03 -0.02,0.03 0,0 0,0.01 -0.01,0.02 -0.01,0.01 -0.02,0.04 -0.02,0.06 0,0.05 -0.03,0.04 -0.04,-0.02 -0.01,-0.03 -0.03,-0.05 -0.06,-0.05 -0.01,0 -0.01,0.03 -0.01,0.07 0,0.04 0,0.06 -0.01,0.04 -0.01,-0.01 -0.01,-0.01 -0.01,0.01 0,0.05 -0.07,-0.08 -0.07,-0.13 0,-0.03 -0.02,-0.03 -0.02,0 0,0.01 -0.01,0.02 -0.01,0.03 -0.02,0.03 -0.02,0.06 -0.01,0.06 0.02,0 0.01,0.03 0,0.05 -0.01,0.02 -0.02,0.02 -0.04,0.01 -0.02,-0.02 -0.05,0 -0.07,0.05 -0.02,0.02 -0.04,0.04 -0.07,0.06 -0.02,0.01 -0.04,0.02 -0.05,0.04 0,0.01 -0.01,0.02 -0.02,0.02 0,0 -0.01,0.01 -0.02,0.02 0,0 -0.01,0.01 -0.01,0.01 -0.01,0 -0.03,0.01 -0.05,0.03 -0.23,0.18 -0.71,0.25 -0.97,0.14 -0.02,-0.01 -0.06,-0.02 -0.09,-0.03 -0.05,-0.03 -0.2,-0.12 -0.26,-0.17 -0.02,-0.02 -0.04,-0.04 -0.04,-0.03 -0.01,0 -0.05,-0.05 -0.05,-0.07 0,0 -0.01,-0.02 -0.02,-0.03 -0.01,-0.01 -0.02,-0.02 -0.02,-0.02 0,-0.04 -0.09,-0.09 -0.1,-0.06 0,0.01 -0.01,0.01 -0.03,-0.01 -0.02,-0.02 -0.07,-0.02 -0.07,0.01 0,0.01 -0.03,0 -0.05,-0.02 -0.01,0 -0.01,-0.01 -0.01,-0.01 0,-0.01 0,-0.01 -0.01,0 -0.02,0 -0.02,-0.01 -0.03,-0.02 0,-0.03 -0.08,-0.03 -0.08,-0.01 0,0.01 0.01,0.02 0.02,0.02 0,0.01 0.01,0.03 0.01,0.05 0,0.04 0,0.06 -0.02,0.04 0,-0.01 -0.01,-0.01 -0.01,0 0,0.01 0.02,0.03 0.03,0.05 0.02,0.01 0.03,0.03 0.03,0.04 0,0.01 0.01,0.04 0.02,0.06 0.02,0.03 0.02,0.05 0.02,0.06 0,0.02 0.18,0.19 0.21,0.2 0.02,0.01 0.03,0.02 0.03,0.03 0,0.02 0.01,0.03 0.03,0.05 0.03,0.01 0.06,0.04 0.09,0.05 0.02,0.02 0.07,0.05 0.1,0.06 0.05,0.03 0.08,0.05 0.05,0.05 -0.08,0 -0.48,-0.33 -0.54,-0.45 -0.02,-0.04 -0.04,-0.06 -0.04,-0.07 -0.01,0 -0.01,-0.01 -0.01,-0.01 0,-0.01 0,-0.01 -0.01,-0.01 0,0 -0.01,-0.01 -0.02,-0.03 -0.03,-0.08 -0.05,-0.13 -0.06,-0.14 -0.01,0 -0.02,-0.04 -0.03,-0.08 -0.01,-0.04 -0.02,-0.1 -0.03,-0.12 -0.03,-0.12 -0.02,-0.43 0.01,-0.4 0.03,0.02 0.06,0.01 0.05,-0.01 -0.01,-0.02 0,-0.03 0.01,-0.03 0.01,0 0.01,-0.01 0.01,-0.02 0,-0.02 0.02,-0.02 0.06,0 0.05,0.03 0.18,0.03 0.2,0.01 0.02,-0.03 0.06,-0.03 0.05,-0.01 -0.01,0.06 -0.01,0.08 0,0.09 0.01,0.01 0.01,0.04 0.01,0.1 -0.01,0.3 0.12,0.59 0.34,0.74 0.14,0.1 0.19,0.13 0.34,0.16 0.09,0.03 0.38,0.03 0.46,0.01 0.49,-0.11 0.79,-0.47 0.78,-0.92 0,-0.06 0,-0.09 0.01,-0.09 0.02,-0.01 0.02,-0.03 0,-0.03 -0.01,0 -0.02,0 -0.02,-0.01 0,-0.02 0.04,-0.02 0.05,0 0,0 0,-0.01 0,-0.03 0,-0.04 0.03,-0.06 0.05,-0.04 0.01,0 0.02,0 0.03,-0.01 0.02,-0.01 0.03,-0.01 0.05,0.02 0.02,0.03 0.02,0.03 0.05,0 0.04,-0.04 0.09,-0.01 0.09,0.05 0,0.01 0.01,0.01 0.02,0.02 0.02,0 0.03,0.08 0.04,0.17 0.01,0.15 0.01,0.21 -0.03,0.33 -0.04,0.15 -0.05,0.2 -0.07,0.23 -0.02,0.01 -0.03,0.04 -0.03,0.04 0,0.08 -0.23,0.32 -0.42,0.46 -0.22,0.15 -0.63,0.25 -0.9,0.22l0 0zm1.36 -0.84c0,-0.01 0,-0.02 0,-0.02 -0.02,0 -0.04,0.03 -0.03,0.05 0.01,0.02 0.03,0 0.03,-0.03l0 0zm-2.46 -0.12c0,0 -0.01,0 -0.01,0 -0.01,0.01 0,0.01 0,0.01 0.01,0 0.01,0 0.01,-0.01zm0.21 -0.47c0,-0.02 -0.02,-0.02 -0.02,0 0,0.01 0,0.01 0.01,0.01 0.01,0 0.02,0 0.01,-0.01l0 0zm0.09 0.68c-0.01,-0.01 0,-0.03 0.02,-0.03 0.01,0 0.02,0.01 0.02,0.01 0,0.02 -0.03,0.03 -0.04,0.02zm1.99 -0.07c0,-0.01 0.01,-0.01 0.01,0 0,0 0,0.01 0,0.02 0,0 -0.01,-0.01 -0.01,-0.02z"/>
 <path fill="#F83505" d="M1.92 3.72c-0.12,0 -0.29,-0.03 -0.31,-0.04 -0.02,-0.01 -0.18,-0.06 -0.2,-0.06 -0.01,0 -0.02,-0.01 -0.03,-0.02 0,-0.01 -0.03,-0.03 -0.06,-0.05 -0.03,-0.01 -0.08,-0.04 -0.1,-0.06 -0.03,-0.01 -0.06,-0.04 -0.09,-0.05 -0.02,-0.02 -0.03,-0.03 -0.03,-0.05 0,-0.01 -0.01,-0.02 -0.03,-0.03 -0.03,-0.01 -0.21,-0.18 -0.21,-0.2 0,-0.01 0,-0.03 -0.02,-0.06 -0.01,-0.02 -0.02,-0.05 -0.02,-0.06 0,-0.01 -0.01,-0.03 -0.03,-0.04 -0.01,-0.02 -0.03,-0.04 -0.03,-0.05 0,-0.01 0.01,-0.01 0.01,0 0.02,0.02 0.02,0 0.02,-0.04 0,-0.02 -0.01,-0.04 -0.01,-0.05 -0.01,0 -0.02,-0.01 -0.02,-0.02 0,-0.02 0.08,-0.02 0.08,0.01 0.01,0.01 0.01,0.02 0.03,0.02 0.01,-0.01 0.01,-0.01 0.01,0 0,0 0,0.01 0.01,0.01 0.02,0.02 0.05,0.03 0.05,0.02 0,-0.03 0.05,-0.03 0.07,-0.01 0.02,0.02 0.03,0.02 0.03,0.01 0.01,-0.03 0.1,0.02 0.1,0.06 0,0 0.01,0.01 0.02,0.02 0.01,0.01 0.02,0.03 0.02,0.03 0,0.02 0.04,0.07 0.05,0.07 0,-0.01 0.02,0.01 0.04,0.03 0.06,0.05 0.21,0.14 0.26,0.17 0.03,0.01 0.07,0.02 0.09,0.03 0.26,0.11 0.74,0.04 0.97,-0.14 0.02,-0.02 0.04,-0.03 0.05,-0.03 0,0 0.01,-0.01 0.01,-0.01 0.01,-0.01 0.02,-0.02 0.02,-0.02 0.01,0 0.02,-0.01 0.02,-0.02 0.01,-0.02 0.03,-0.03 0.05,-0.04 0.03,-0.02 0.05,-0.04 0.07,-0.06 0.02,-0.05 0.05,-0.07 0.07,-0.05 0.02,0.01 0.03,0.01 0.04,-0.01 0.01,-0.02 0.02,-0.05 0,-0.05 -0.01,0 -0.01,-0.03 0.01,-0.06 0,-0.01 0.01,-0.02 0.01,-0.03 0,-0.03 0.02,-0.03 0.02,0 0,0.05 0.07,0.18 0.07,0.13 0,-0.02 0,-0.02 0.01,-0.01 0.01,0.02 0.01,0 0.01,-0.04 0,-0.04 0,-0.07 0.01,-0.07 0.03,0 0.05,0.02 0.06,0.05 0.01,0.06 0.04,0.07 0.04,0.02 0,-0.02 0.01,-0.05 0.02,-0.06 0.01,-0.01 0.01,-0.02 0.01,-0.02 -0.01,0 0,-0.01 0.02,-0.03 0.01,-0.01 0.03,-0.04 0.03,-0.05 0.01,-0.01 0.01,-0.01 0.01,0.03 0.01,0.04 -0.01,0.07 -0.03,0.07 -0.02,0 -0.02,0.01 -0.02,0.04 0,0.02 0,0.03 -0.01,0.04 -0.01,0.01 -0.02,0.03 -0.02,0.05 0,0.06 -0.02,0.14 -0.04,0.17 -0.01,0.01 -0.02,0.02 -0.02,0.03 0,0.02 -0.05,0.1 -0.08,0.12 -0.01,0.01 -0.03,0.03 -0.04,0.05 -0.02,0.03 -0.03,0.04 -0.04,0.04 0,0 -0.03,0.03 -0.06,0.05 -0.03,0.03 -0.07,0.06 -0.09,0.07 -0.02,0.01 -0.04,0.03 -0.04,0.04 -0.01,0.01 -0.03,0.02 -0.05,0.03 -0.03,0 -0.07,0.02 -0.09,0.04 -0.02,0.01 -0.05,0.03 -0.07,0.03 -0.01,0.01 -0.06,0.02 -0.09,0.04 -0.12,0.05 -0.35,0.08 -0.54,0.07l0 0zm-0.81 -0.75c0,0 -0.01,-0.01 -0.02,-0.01 -0.02,0 -0.03,0.02 -0.02,0.03 0.01,0.01 0.04,0 0.04,-0.02zm1.96 -0.05c0,-0.01 -0.01,-0.01 -0.01,0 0,0.01 0.01,0.02 0.01,0.02 0,-0.01 0,-0.02 0,-0.02zm0.13 0.01c-0.01,-0.02 0.01,-0.05 0.03,-0.05 0.01,0 0.01,0.04 -0.01,0.05 -0.01,0.01 -0.02,0.01 -0.02,0l0 0zm-2.44 -0.15c0,0 0.01,0 0.01,0 0,0.01 0,0.01 -0.01,0.01 0,0 -0.01,0 0,-0.01z"/>
 <path fill="#9C321E" d="M1.84 3.76c-0.74,-0.09 -1.28,-0.67 -1.28,-1.36 0,-0.16 0.01,-0.28 0.06,-0.52 0.06,-0.28 0.21,-0.67 0.31,-0.79 0.03,-0.03 0.02,-0.01 -0.01,0.05 -0.1,0.15 -0.23,0.5 -0.28,0.76 -0.01,0.05 -0.02,0.12 -0.03,0.16 -0.11,0.54 0.06,1.03 0.5,1.38 0.45,0.36 1.19,0.4 1.66,0.08 0.38,-0.26 0.59,-0.62 0.59,-1.03 0,-0.17 -0.07,-0.42 -0.16,-0.62 -0.06,-0.14 -0.15,-0.31 -0.19,-0.38 -0.02,-0.04 -0.05,-0.08 -0.06,-0.1 -0.03,-0.06 -0.25,-0.39 -0.36,-0.55 -0.07,-0.1 -0.29,-0.39 -0.4,-0.53 -0.06,-0.08 -0.11,-0.15 -0.11,-0.15 0,0 0.03,0.03 0.07,0.08 0.03,0.04 0.09,0.12 0.12,0.16 0.49,0.61 0.91,1.3 1.03,1.68 0.01,0.04 0.03,0.09 0.03,0.11 0.21,0.52 -0.21,1.27 -0.83,1.48 -0.02,0.01 -0.05,0.02 -0.06,0.03 -0.07,0.03 -0.47,0.08 -0.6,0.06l0 0zm-0.66 -2.45c-0.03,-0.02 -0.08,-0.08 -0.11,-0.12 -0.03,-0.05 -0.06,-0.09 -0.07,-0.09 0,-0.01 0,-0.02 0,-0.02 0,0 0.03,0.03 0.06,0.08 0.17,0.22 0.17,0.22 0.25,0.07 0.11,-0.23 0.21,-0.39 0.48,-0.79 0.03,-0.05 0.08,-0.1 0.06,-0.06 -0.01,0.01 -0.03,0.04 -0.05,0.07 -0.15,0.2 -0.36,0.54 -0.47,0.75 -0.09,0.19 -0.09,0.19 -0.15,0.11l0 0zm0.71 -1.01c0.06,-0.08 0.1,-0.13 0.1,-0.12 0,0.01 0,0.02 -0.01,0.02 0,0.01 -0.03,0.04 -0.06,0.08 -0.03,0.04 -0.06,0.08 -0.06,0.08 -0.01,0 0.01,-0.03 0.03,-0.06zm0.11 -0.15c0,0 0.01,0 0.01,0 0,0 0,0 0,0 0,0 0,0.01 0,0.01 0,0 -0.01,-0.01 -0.01,-0.01z"/>
 <path fill="#5B1E13" d="M1.83 3.78c-0.93,-0.12 -1.44,-0.88 -1.23,-1.87 0.07,-0.35 0.3,-0.9 0.35,-0.85 0.01,0 0,0.01 -0.01,0.03 -0.1,0.11 -0.26,0.5 -0.32,0.79 -0.05,0.24 -0.06,0.36 -0.06,0.52 0,0.86 0.85,1.51 1.73,1.33 0.07,-0.01 0.14,-0.03 0.15,-0.03 0.01,-0.01 0.04,-0.02 0.06,-0.03 0.51,-0.17 0.88,-0.67 0.88,-1.17 0,-0.11 -0.03,-0.26 -0.05,-0.31 0,-0.02 -0.02,-0.07 -0.03,-0.11 -0.07,-0.24 -0.25,-0.58 -0.5,-0.95 -0.25,-0.37 -0.38,-0.55 -0.67,-0.91 -0.03,-0.05 -0.06,-0.08 -0.06,-0.08 0.02,0 0.07,0.06 0.35,0.43 0.12,0.15 0.29,0.39 0.39,0.55 0.09,0.14 0.13,0.2 0.16,0.26 0.02,0.03 0.06,0.1 0.09,0.15 0.36,0.6 0.42,1.07 0.2,1.51 -0.24,0.48 -0.86,0.81 -1.43,0.74l0 0zm-0.65 -2.48c-0.06,-0.07 -0.2,-0.25 -0.19,-0.25 0.01,0 0.04,0.04 0.07,0.08 0.07,0.09 0.17,0.2 0.18,0.19 0,0 0.03,-0.06 0.06,-0.12 0.03,-0.06 0.08,-0.14 0.1,-0.19 0.03,-0.04 0.06,-0.09 0.07,-0.11 0.01,-0.02 0.05,-0.08 0.09,-0.14 0.04,-0.06 0.07,-0.11 0.08,-0.12 0,-0.01 0.03,-0.04 0.05,-0.08 0.02,-0.03 0.04,-0.06 0.04,-0.06 0,-0.01 0.02,-0.04 0.05,-0.07 0.03,-0.04 0.06,-0.08 0.08,-0.11 0.01,-0.02 0.05,-0.07 0.09,-0.11 0.03,-0.04 0.06,-0.08 0.06,-0.08 0,-0.01 0.01,0 0.01,0 0,0 -0.02,0.03 -0.05,0.07 -0.23,0.3 -0.52,0.73 -0.66,1.03 -0.07,0.13 -0.07,0.13 -0.13,0.07l0 0z"/>
 </g>
 </g>
 </svg>
