<svg width="23" height="32" viewBox="0 0 23 32" fill="none" xmlns="http://www.w3.org/2000/svg">
<path d="M22.7097 6.1936H0L2.06452 29.4038L11.3548 32.0001L20.6452 29.4038L22.7097 6.1936Z" fill="#B63E1E"/>
<path d="M18.8622 27.9022L20.5826 8.13293H11.3549V29.998L18.8622 27.9022Z" fill="#C15121"/>
<path d="M18.174 13.826L18.4242 10.9795H4.25415L4.9736 19.5504H14.8583L14.5767 23.2102L11.3548 24.086L8.1955 23.2727L8.00782 20.9893H5.13001L5.53665 25.4311L11.3236 27.0577L17.173 25.4311L17.9237 16.7038H7.60117L7.35092 13.826H18.174Z" fill="white" fill-opacity="0.7"/>
<path d="M2.12708 4.25415V0H3.56598V1.34506H4.87976V0H6.38123V4.25415H4.87976V2.78397H3.56598V4.25415H2.12708Z" fill="white"/>
<path d="M9.69697 4.25415H8.28934V1.43891H6.94428V0H10.9169V1.43891H9.69697V4.25415Z" fill="white"/>
<path d="M13.1691 0H11.6051V4.25415H12.9189V2.22092L13.9824 3.78495L15.0459 2.22092V4.25415H16.4536V0H14.8583L13.9824 1.43891L13.1691 0Z" fill="white"/>
<path d="M17.1417 4.25415V0H18.6119V2.78397H20.6452V4.25415H17.1417Z" fill="white"/>
</svg>
