<svg width="31" height="31" viewBox="0 0 31 31" fill="none" xmlns="http://www.w3.org/2000/svg">
<rect width="30.8622" height="30.8622" fill="#6D00CD"/>
<path d="M21.2606 21.8334V8.89164C21.2606 8.41231 21.5018 8.09276 22.0647 8.09276H25.1202C25.7463 8.11083 25.9242 8.25254 25.9242 8.89164V21.8334C25.9242 22.4725 25.7634 22.6323 25.1202 22.6323H21.9843C21.4214 22.6323 21.2606 22.3926 21.2606 21.8334Z" fill="white"/>
<path d="M13.678 21.2343L16.1703 8.59842C16.2626 8.13043 16.5581 7.86458 17.1041 7.97227L20.0681 8.55688C20.672 8.69432 20.8173 8.86672 20.6942 9.49072L18.202 22.1266C18.0789 22.7506 17.8921 22.8759 17.2681 22.7528L14.2261 22.1528C13.6801 22.0451 13.5703 21.7803 13.678 21.2343Z" fill="white"/>
<path d="M5.29267 20.0558L11.04 8.5299C11.2529 8.10302 11.6082 7.92486 12.1062 8.1732L14.8099 9.52134C15.3559 9.81369 15.4504 10.0184 15.1666 10.5876L9.41922 22.1135C9.13541 22.6826 8.92216 22.754 8.35298 22.4702L5.57823 21.0866C5.0802 20.8382 5.04433 20.5538 5.29267 20.0558Z" fill="white"/>
</svg>
