<svg width="29" height="32" viewBox="0 0 29 32" fill="none" xmlns="http://www.w3.org/2000/svg">
<path d="M8.49017 23.8358V10.4752C8.47909 10.1935 8.52901 10.076 8.88702 10.0605H10.3842C10.6226 10.104 10.7021 10.186 10.7089 10.4752V23.98C10.7269 26.7927 7.8949 28.3794 4.68404 26.7927L1.31083 24.9356C0.178256 24.2814 -0.0611574 23.5533 0.0120515 21.7983V9.24915C0.0730445 8.10973 0.411156 7.6901 1.23867 7.10353L13.1622 0.378185C14.1597 -0.0896187 14.7296 -0.148155 15.7777 0.342124L27.6651 7.04944C28.5803 7.67233 28.9217 8.10619 29 9.14097V22.808C29 23.8718 28.549 24.4668 27.4667 25.0799L15.9762 31.5528C14.984 32.1117 14.2264 32.1658 13.1261 31.6069L8.99525 29.2088C8.84587 29.0632 8.85274 28.9973 8.99525 28.9023C9.75468 28.6482 10.1669 28.4805 10.8532 28.0909C11.0334 28.0123 11.1238 27.9827 11.3583 28.127L14.2264 29.7858C14.4407 29.9162 14.5783 29.9127 14.8578 29.7497L26.4926 23.1867C26.7894 23.0243 26.8901 22.9097 26.8534 22.6277V9.37536C26.8668 9.07869 26.7723 8.96186 26.4746 8.81642L14.8397 2.25335C14.5879 2.08256 14.4411 2.09684 14.1723 2.25335L2.55549 8.79839C2.20739 8.94998 2.14175 9.0814 2.1406 9.35733V22.7179C2.13609 22.858 2.16293 22.9341 2.32099 23.0604L5.94673 25.0799C7.15532 25.6208 8.38194 24.9717 8.49017 23.8358Z" fill="#8CC84A"/>
<path d="M19.1329 11.8275C20.4976 12.0968 21.0127 12.5054 21.4418 13.7387C21.4706 13.9936 21.5471 14.0945 21.8567 14.1534H23.3539C23.5697 14.1363 23.6322 14.0686 23.6967 13.901V13.5584C23.4363 11.7423 22.5422 10.8358 21.5501 10.3851C19.2953 9.3606 15.7056 9.53763 14.0821 10.4752C11.7551 11.539 11.4665 15.4336 14.2445 16.3892C16.0844 17.1284 17.3832 16.9047 19.5658 17.3087C21.027 17.5792 21.8535 17.8677 21.8026 18.8594C21.7305 20.2657 20.461 20.5398 18.1408 20.6263C15.3868 20.615 14.3707 19.9953 14.1182 18.4447C14.1184 18.1372 14.0147 18.0721 13.7755 18.0119H12.2422C12.0052 18.0471 11.8961 18.0914 11.8453 18.3184V18.6971C12.1064 20.442 12.647 21.2827 14.5872 22.1589C16.1926 22.826 19.4756 22.9342 21.4599 22.213C23.1916 21.5836 24.1837 20.3919 24.1837 18.6791C24.1837 16.7859 23.3112 16.0842 21.6763 15.5237C18.7 14.8025 16.6977 14.9 15.1644 14.2796C14.4068 13.9731 14.4068 12.4225 15.7056 12.0078C17.0353 11.7348 17.7872 11.7285 19.1329 11.8275Z" fill="#8CC84A"/>
</svg>
