<svg viewBox="0 0 24 24" fill="none" xmlns="http://www.w3.org/2000/svg">
  <path d="M12 2C6.48 2 2 6.48 2 12s4.48 10 10 10c.93 0 1.68-.75 1.68-1.68 0-.43-.17-.82-.44-1.12-.28-.3-.44-.7-.44-1.12a1.68 1.68 0 011.68-1.68h1.98c3.06 0 5.54-2.48 5.54-5.54C22 5.82 17.52 2 12 2z" fill="#E8E8E8"/>
  <circle cx="6.5" cy="11.5" r="1.5" fill="#F44336"/>
  <circle cx="9.5" cy="7.5" r="1.5" fill="#4CAF50"/>
  <circle cx="14.5" cy="7.5" r="1.5" fill="#2196F3"/>
  <circle cx="17.5" cy="11.5" r="1.5" fill="#FFC107"/>
</svg>
