<svg width="31" height="33" viewBox="0 0 31 33" fill="none" xmlns="http://www.w3.org/2000/svg">
<path d="M15.9855 0.810333C19.5471 0.810333 22.9699 2.84877 24.7453 7.25955C21.6171 7.46824 20.528 9.78739 21.1037 12.0408C21.6794 14.2942 22.8201 16.5172 24.633 19.0359C23.751 19.7577 23.4685 20.5481 23.2697 22.4685V27.3465C22.984 30.0464 21.3283 32.1707 18.9221 32.0789C16.5286 31.9874 16.1024 27.3963 16.0978 27.3465V22.2605C16.0978 20.5599 15.3781 19.8649 13.6916 19.3728C15.2157 16.1803 15.5295 14.1702 14.9914 10.4685C14.3818 7.26001 11.6544 6.81024 9.07147 7.75662C10.1624 2.96011 12.4242 0.810481 15.9855 0.810333ZM12.424 20.8806C13.1941 20.8486 13.7081 20.9607 14.2375 21.2976C14.4375 21.4666 14.5115 21.7911 14.4943 22.4685C13.5478 23.3028 11.8146 23.5065 9.90546 23.0945C9.1841 22.9388 8.93221 22.8063 8.83026 22.4685C8.85928 22.127 9.16726 21.9674 10.0021 21.7146C11.0125 21.4741 11.574 21.4099 12.424 20.8806ZM2.63788 0.922638C4.46681 -0.296633 7.24196 -0.376507 10.8195 1.0994C8.4133 3.20118 7.14571 7.24412 7.258 10.2762C7.36971 11.7607 7.45046 12.4096 7.258 14.0457C6.94682 16.6907 7.99634 18.4576 9.64862 19.8533C8.80349 20.7993 8.3371 21.3377 7.51483 22.3084C6.35974 23.7522 5.26858 23.56 4.11346 22.0359C2.05998 18.9396 0.744908 13.196 0.0870972 8.9285C-0.297901 4.85347 0.6004 2.3505 2.63788 0.922638ZM26.0295 20.0623C26.7987 20.3937 27.4106 20.4966 29.6711 20.1424C30.1345 20.0494 30.3781 20.0146 30.5851 20.1902C30.6139 20.3901 30.5865 20.5247 30.1203 20.9763C29.3495 21.5991 28.8355 21.8578 27.8098 22.1961C26.6757 22.496 26.0399 22.5375 24.9064 22.4363C25.0165 20.9525 25.2345 20.3853 26.0295 20.0623ZM11.3332 8.89627C12.5364 8.96044 12.768 9.29516 13.1301 9.84256C11.9911 9.52174 11.2375 9.6502 11.2375 10.0994C11.382 10.8213 12.3442 11.8 13.3869 10.8699C14.221 15.8429 12.8738 16.5172 12.1037 19.2605C10.2587 18.9397 8.47731 16.693 8.83026 14.4148C9.05665 12.576 9.01289 11.5711 8.83026 9.79471C9.43989 9.24925 10.0663 9.00008 11.3332 8.89627ZM20.4777 0.24881C23.3013 -0.328744 25.9812 0.152043 28.3557 1.91678C30.0241 3.34456 30.3927 3.84238 30.5051 5.43045C30.4569 7.21127 30.3219 8.12359 29.9435 9.74686C28.9008 13.3563 28.0651 15.2757 26.1896 18.4744L25.7404 17.8162C26.3821 16.5969 26.5743 15.5215 26.4299 14.1258C26.061 11.9767 26.1978 11.7166 26.3498 10.3084C26.4854 9.23753 26.5267 8.54303 26.4465 7.48416C25.4999 4.03486 22.9484 1.53228 20.4777 0.24881ZM24.8576 8.87967C24.7132 10.6123 24.4885 11.6556 24.7131 13.4363C24.9039 14.5423 24.9865 15.4737 24.6818 16.2918C24.2176 15.4763 23.9762 15.0046 23.5676 14.2058L23.5266 14.1258C23.0133 12.9869 22.676 12.185 22.5637 11.0301C23.0609 11.3348 23.6703 11.3183 24.1516 10.9334C24.7452 10.436 24.6168 10.0027 24.2639 9.77811C23.7668 9.56979 23.3654 9.61855 22.8361 9.74686C23.1249 9.24955 23.8193 8.96124 24.8576 8.87967Z" fill="#1876B9"/>
</svg>
