<svg xmlns="http://www.w3.org/2000/svg" viewBox="0 0 32 32" fill="currentColor">
  <rect width="32" height="32" rx="2" fill="#3776AB"/>
  <path d="M15.9 4c-1.7 0-3.2.1-4.4.4-3.3.7-3.9 2.1-3.9 4.7v3.4h7.8v1H7.6c-2.3 0-4.3 1.4-4.9 4-1 3.1-1 5.1 0 8.3.7 2.4 2.4 4 4.9 4h3.1v-4.1c0-2.6 2.2-4.9 4.9-4.9h7.8c2.2 0 3.9-1.8 3.9-4v-7.4c0-2.1-1.8-3.7-3.9-4.1-.8-.1-1.6-.3-2.5-.3zm-1 2.3c.8 0 1.5.7 1.5 1.5s-.7 1.5-1.5 1.5-1.5-.7-1.5-1.5.7-1.5 1.5-1.5z" fill="#FFD43B"/>
  <path d="M24.4 12.4v4.1c0 2.7-2.3 5-4.9 5H11.7c-2.2 0-3.9 1.9-3.9 4.1v7.4c0 2.1 1.8 3.4 3.9 4 2.5.7 4.9.8 7.8 0 1.9-.5 3.9-1.5 3.9-4v-3.4h-7.8v-1h11.7c2.3 0 3.1-1.6 3.9-4 .8-2.5.8-4.9 0-8.3-.6-2.3-1.6-4-3.9-4h-2.9zm-4.3 15.4c.8 0 1.5.7 1.5 1.5s-.7 1.5-1.5 1.5-1.5-.7-1.5-1.5.7-1.5 1.5-1.5z" fill="#3776AB"/>
</svg>