<svg xmlns="http://www.w3.org/2000/svg" width="32" height="32" viewBox="0 0 3.86 3.86">
 <g>
 <g fill-rule="nonzero"><path fill="#D7F3FA" d="M1.12 3.59c-0.23,-0.03 -0.35,-0.27 -0.32,-0.67 0.01,-0.12 0.02,-0.2 0.03,-0.25 0.02,-0.04 0.03,-0.08 0.03,-0.09 0,-0.01 -0.05,-0.03 -0.1,-0.04 -0.17,-0.06 -0.27,-0.1 -0.33,-0.14 -0.03,-0.02 -0.07,-0.05 -0.09,-0.06 -0.05,-0.03 -0.17,-0.15 -0.2,-0.19 -0.04,-0.06 -0.06,-0.23 -0.03,-0.31 0,-0.02 0.01,-0.05 0.01,-0.07 0.03,-0.13 0.37,-0.36 0.66,-0.44 0.08,-0.03 0.08,-0.03 0.06,-0.12 -0.09,-0.3 -0.05,-0.68 0.1,-0.84 0.12,-0.14 0.48,-0.12 0.7,0.04 0.03,0.02 0.07,0.05 0.09,0.06 0.03,0.02 0.07,0.05 0.1,0.08 0.13,0.12 0.12,0.12 0.25,0 0.02,-0.02 0.06,-0.05 0.09,-0.07 0.04,-0.02 0.08,-0.05 0.1,-0.07 0.44,-0.34 0.88,-0.09 0.84,0.49 0,0.07 -0.01,0.15 -0.01,0.17 0,0.05 -0.01,0.1 -0.03,0.17 -0.02,0.06 -0.02,0.06 0.07,0.09 0.05,0.01 0.1,0.03 0.13,0.04 0.03,0.01 0.08,0.04 0.11,0.05 0.59,0.26 0.57,0.83 -0.03,1.05 -0.02,0 -0.06,0.02 -0.09,0.03 -0.03,0.01 -0.09,0.03 -0.13,0.05 -0.09,0.02 -0.09,0.03 -0.05,0.14 0.19,0.52 -0.15,1.06 -0.56,0.89 -0.17,-0.07 -0.35,-0.17 -0.49,-0.3 -0.08,-0.08 -0.07,-0.08 -0.17,0.01 -0.26,0.24 -0.51,0.34 -0.74,0.3l0 0zm0.2 -0.18c0.12,-0.04 0.36,-0.2 0.46,-0.3 0.04,-0.05 0.04,-0.04 -0.07,-0.17 -0.03,-0.03 -0.08,-0.09 -0.11,-0.13 -0.07,-0.11 -0.07,-0.11 -0.24,-0.14 -0.08,-0.01 -0.18,-0.03 -0.22,-0.04 -0.1,-0.01 -0.1,-0.02 -0.12,0.07 -0.05,0.18 -0.04,0.46 0.02,0.62 0.03,0.07 0.17,0.12 0.28,0.09l0 0zm1.47 -0.01c0.13,-0.06 0.17,-0.31 0.11,-0.64 -0.02,-0.14 -0.03,-0.15 -0.18,-0.12 -0.05,0.01 -0.12,0.03 -0.17,0.03 -0.15,0.03 -0.16,0.03 -0.2,0.07 -0.02,0.02 -0.05,0.07 -0.06,0.09 -0.02,0.03 -0.06,0.08 -0.09,0.11 -0.13,0.14 -0.13,0.12 0.05,0.27 0.23,0.19 0.41,0.25 0.54,0.19l0 0zm-0.79 -0.52c0.15,-0.17 0.12,-0.2 -0.15,-0.17 -0.07,0.01 -0.07,0 -0.02,0.07 0.11,0.15 0.12,0.15 0.17,0.1zm0.29 -0.39c0.02,-0.01 0.04,-0.04 0.05,-0.06 0.01,-0.02 0.03,-0.06 0.05,-0.09 0.05,-0.06 0.11,-0.18 0.17,-0.3 0.05,-0.1 0.05,-0.12 0,-0.22 -0.06,-0.11 -0.11,-0.21 -0.14,-0.25 -0.01,-0.02 -0.04,-0.07 -0.06,-0.1 -0.08,-0.12 -0.08,-0.12 -0.49,-0.11 -0.26,0 -0.26,0 -0.33,0.13 -0.01,0.02 -0.04,0.06 -0.06,0.09 -0.01,0.02 -0.04,0.08 -0.06,0.12 -0.02,0.03 -0.05,0.08 -0.06,0.1 -0.06,0.09 -0.05,0.27 0.02,0.31 0.01,0 0.02,0.03 0.04,0.06 0.02,0.05 0.18,0.31 0.2,0.33 0.04,0.03 0.64,0.03 0.67,-0.01l0 0zm-0.39 -0.2c-0.4,-0.11 -0.36,-0.71 0.05,-0.71 0.42,0 0.49,0.57 0.09,0.7 -0.08,0.02 -0.09,0.02 -0.14,0.01zm-0.53 0.18c0,-0.01 -0.05,-0.1 -0.08,-0.14 -0.02,-0.02 -0.04,-0.07 -0.06,-0.1 -0.01,-0.03 -0.03,-0.05 -0.04,-0.05 -0.01,0.01 -0.1,0.24 -0.09,0.25 0.01,0 0.05,0.01 0.09,0.02 0.05,0.01 0.09,0.02 0.1,0.02 0.02,0.01 0.08,0.01 0.08,0zm1.32 -0.01c0.04,-0.01 0.09,-0.02 0.1,-0.02 0.02,0 0.02,-0.01 0,-0.06 -0.05,-0.21 -0.08,-0.23 -0.12,-0.13 -0.02,0.04 -0.05,0.08 -0.06,0.09 -0.11,0.13 -0.09,0.16 0.08,0.12zm-1.78 -0.09c0.01,-0.04 0.06,-0.17 0.06,-0.18 0.01,0 0.02,-0.04 0.04,-0.08 0.02,-0.04 0.04,-0.1 0.05,-0.13 0.02,-0.05 0,-0.12 -0.09,-0.3 -0.01,-0.03 -0.03,-0.08 -0.04,-0.12 -0.02,-0.08 -0.01,-0.08 -0.12,-0.04 -0.71,0.22 -0.71,0.6 0.01,0.84 0.09,0.03 0.09,0.03 0.09,0.01l0 0zm2.19 -0.01c0.7,-0.22 0.71,-0.6 0.04,-0.83 -0.14,-0.05 -0.15,-0.05 -0.17,0.05 0,0.02 -0.02,0.07 -0.04,0.1 -0.01,0.04 -0.04,0.09 -0.05,0.12 -0.01,0.04 -0.03,0.08 -0.04,0.1 -0.01,0.02 -0.01,0.04 0,0.05 0,0.01 0.02,0.07 0.05,0.13 0.02,0.06 0.04,0.11 0.05,0.13 0.01,0.01 0.02,0.05 0.04,0.09 0.02,0.09 0.01,0.09 0.12,0.06l0 0zm-1.88 -0.7c0.01,-0.03 0.03,-0.07 0.05,-0.09 0.03,-0.05 0.1,-0.16 0.1,-0.17 0,-0.02 -0.05,-0.01 -0.17,0.02 -0.07,0.02 -0.1,0.03 -0.09,0.04 0,0.01 0.01,0.04 0.02,0.07 0.04,0.17 0.06,0.19 0.09,0.13zm1.55 -0.09c0.04,-0.13 0.04,-0.14 -0.01,-0.14 -0.01,0 -0.04,-0.01 -0.07,-0.02 -0.17,-0.04 -0.17,-0.04 -0.09,0.09 0.03,0.05 0.07,0.12 0.08,0.15 0.04,0.07 0.04,0.07 0.09,-0.08l0 0zm-1.63 -0.33c0.04,-0.01 0.19,-0.04 0.32,-0.06 0.06,-0.01 0.09,-0.03 0.14,-0.11 0.02,-0.04 0.06,-0.09 0.09,-0.12 0.09,-0.1 0.12,-0.14 0.12,-0.15 0,-0.01 -0.08,-0.08 -0.16,-0.15 -0.49,-0.36 -0.71,-0.23 -0.65,0.37 0.03,0.24 0.03,0.24 0.14,0.22l0 0zm1.74 -0.04c0.01,-0.02 0.01,-0.05 0.02,-0.06 0.04,-0.13 0.02,-0.53 -0.04,-0.61 -0.11,-0.16 -0.43,-0.05 -0.71,0.22 -0.06,0.06 -0.07,0.04 0.06,0.19 0.02,0.02 0.05,0.06 0.07,0.1 0.03,0.03 0.06,0.07 0.08,0.09 0.04,0.05 0.03,0.05 0.26,0.08 0.07,0.01 0.13,0.02 0.15,0.02 0.07,0.03 0.1,0.02 0.11,-0.03zm-0.78 -0.09c-0.12,-0.16 -0.14,-0.17 -0.2,-0.1 -0.14,0.16 -0.14,0.15 0.05,0.15 0.18,0 0.18,0 0.15,-0.05z"/>
 <path fill="#D9EAEE" d="M1.13 3.59c-0.03,0 -0.07,-0.01 -0.08,-0.01 -0.04,-0.01 -0.13,-0.08 -0.13,-0.1 0,-0.01 -0.01,-0.02 -0.01,-0.02 -0.03,-0.02 -0.06,-0.09 -0.08,-0.18 -0.01,-0.05 -0.02,-0.11 -0.03,-0.13 -0.01,-0.02 -0.01,-0.07 0,-0.14 0,-0.05 0.01,-0.13 0.01,-0.17 0,-0.08 0.01,-0.14 0.02,-0.16 0.06,-0.08 0.03,-0.13 -0.1,-0.15 -0.03,-0.01 -0.05,-0.01 -0.05,-0.02 0,-0.01 -0.08,-0.04 -0.1,-0.04 -0.03,0 -0.12,-0.05 -0.15,-0.08 -0.02,-0.01 -0.06,-0.03 -0.09,-0.05 -0.03,-0.02 -0.07,-0.05 -0.08,-0.06 -0.01,-0.02 -0.03,-0.05 -0.06,-0.07 -0.06,-0.06 -0.07,-0.08 -0.09,-0.16 -0.02,-0.08 -0.02,-0.16 0,-0.21 0,-0.02 0.01,-0.05 0.01,-0.07 0,-0.02 0.02,-0.04 0.03,-0.05 0.02,-0.02 0.05,-0.06 0.08,-0.09 0.03,-0.04 0.07,-0.07 0.09,-0.08 0.01,-0.01 0.06,-0.04 0.1,-0.07 0.04,-0.03 0.1,-0.06 0.12,-0.07 0.03,-0.01 0.08,-0.02 0.11,-0.04 0.03,-0.01 0.06,-0.03 0.08,-0.03 0.11,0 0.15,-0.05 0.11,-0.13 -0.04,-0.07 -0.05,-0.4 -0.02,-0.57 0.01,-0.12 0.04,-0.18 0.12,-0.27 0.09,-0.11 0.32,-0.13 0.51,-0.05 0.05,0.02 0.1,0.04 0.12,0.05 0.02,0 0.05,0.03 0.07,0.05 0.03,0.02 0.05,0.03 0.06,0.03 0.01,0 0.11,0.08 0.14,0.11 0.1,0.11 0.11,0.11 0.23,-0.01 0.04,-0.03 0.08,-0.06 0.11,-0.07 0.02,-0.02 0.06,-0.04 0.08,-0.06 0.03,-0.02 0.06,-0.05 0.07,-0.05 0.02,0 0.07,-0.03 0.12,-0.05 0.17,-0.08 0.43,-0.06 0.51,0.04 0.01,0.02 0.04,0.05 0.06,0.07 0.07,0.07 0.11,0.3 0.09,0.51 -0.01,0.07 -0.01,0.13 -0.01,0.13 0.01,0.01 -0.01,0.11 -0.03,0.15 -0.03,0.07 0,0.11 0.09,0.11 0.03,0 0.14,0.05 0.14,0.06 0,0 0.01,0.01 0.02,0.01 0.02,0 0.14,0.05 0.14,0.06 0,0.01 0.03,0.03 0.08,0.06 0.04,0.02 0.08,0.05 0.08,0.05 0,0.01 0.04,0.04 0.08,0.09 0.05,0.04 0.08,0.09 0.09,0.1 0,0.01 0.01,0.05 0.02,0.08 0.05,0.19 -0.07,0.41 -0.26,0.51 -0.04,0.02 -0.07,0.04 -0.08,0.05 -0.03,0.03 -0.13,0.08 -0.16,0.08 -0.01,0 -0.04,0.01 -0.07,0.03 -0.03,0.01 -0.07,0.03 -0.08,0.03 -0.11,0.01 -0.12,0.03 -0.09,0.13 0.02,0.04 0.03,0.1 0.03,0.15 0,0.04 0.01,0.12 0.01,0.18 0.01,0.08 0.01,0.13 -0.01,0.19 -0.01,0.05 -0.02,0.1 -0.02,0.12 -0.03,0.25 -0.35,0.37 -0.62,0.24 -0.05,-0.02 -0.1,-0.04 -0.11,-0.05 -0.02,0 -0.05,-0.02 -0.07,-0.04 -0.02,-0.02 -0.06,-0.05 -0.09,-0.06 -0.03,-0.01 -0.07,-0.05 -0.1,-0.08 -0.03,-0.02 -0.06,-0.05 -0.06,-0.05 -0.01,0 -0.02,-0.01 -0.04,-0.02 -0.03,-0.04 -0.04,-0.04 -0.08,0 -0.02,0.02 -0.03,0.03 -0.04,0.03 0,0 -0.03,0.03 -0.06,0.05 -0.03,0.03 -0.07,0.07 -0.1,0.08 -0.02,0.01 -0.07,0.04 -0.09,0.06 -0.03,0.02 -0.05,0.04 -0.06,0.04 0,0 -0.01,0 -0.02,0 -0.01,0 -0.15,0.07 -0.16,0.07 -0.02,0.02 -0.19,0.02 -0.25,0.01l0 0zm0.21 -0.19c0.03,0 0.05,-0.02 0.05,-0.02 0,-0.01 0.09,-0.05 0.11,-0.05 0.01,0 0.03,-0.02 0.04,-0.03 0.03,-0.03 0.13,-0.1 0.16,-0.12 0.07,-0.04 0.11,-0.11 0.08,-0.14 -0.01,-0.02 -0.02,-0.04 -0.02,-0.05 0,-0.01 -0.03,-0.04 -0.07,-0.07 -0.03,-0.04 -0.06,-0.07 -0.06,-0.08 0,-0.09 -0.17,-0.18 -0.35,-0.18 -0.03,0 -0.05,0 -0.05,-0.01 -0.02,-0.01 -0.13,-0.03 -0.16,-0.03 -0.02,0 -0.04,0.03 -0.06,0.09 0,0.01 -0.01,0.08 -0.02,0.14 0,0.07 -0.01,0.15 -0.01,0.19 -0.01,0.04 0,0.08 0.02,0.16 0.02,0.05 0.03,0.1 0.03,0.11 0.01,0.04 0.07,0.08 0.16,0.11 0.05,0.01 0.07,0.01 0.15,-0.02l0 0zm1.45 0c0.12,-0.05 0.16,-0.21 0.13,-0.55 -0.02,-0.22 -0.04,-0.24 -0.18,-0.21 -0.04,0 -0.1,0.02 -0.14,0.02 -0.04,0.01 -0.09,0.02 -0.11,0.02 -0.03,0.01 -0.05,0.01 -0.07,0.01 -0.03,0 -0.11,0.09 -0.14,0.14 0,0.02 -0.04,0.06 -0.07,0.09 -0.03,0.04 -0.06,0.07 -0.06,0.07 0,0.01 -0.01,0.03 -0.03,0.05 -0.03,0.04 -0.02,0.04 0.1,0.14 0.04,0.04 0.1,0.08 0.12,0.1 0.03,0.03 0.06,0.05 0.07,0.05 0.01,0 0.04,0.01 0.08,0.04 0.11,0.06 0.19,0.07 0.3,0.03zm-0.79 -0.52c0.03,-0.03 0.05,-0.05 0.05,-0.05 0,-0.01 0.01,-0.03 0.04,-0.06 0.04,-0.06 -0.05,-0.08 -0.23,-0.06 -0.08,0.01 -0.08,0 -0.03,0.07 0.11,0.15 0.11,0.15 0.17,0.1l0 0zm0.3 -0.38c0,-0.01 0.03,-0.04 0.04,-0.07 0.02,-0.03 0.04,-0.06 0.04,-0.07 0.03,-0.02 0.1,-0.15 0.1,-0.17 0,-0.01 0.01,-0.03 0.02,-0.04 0.02,-0.01 0.04,-0.05 0.09,-0.16 0.02,-0.07 -0.11,-0.38 -0.19,-0.45 -0.01,-0.01 -0.03,-0.05 -0.05,-0.08 -0.03,-0.08 -0.05,-0.09 -0.12,-0.1 -0.07,-0.01 -0.48,-0.02 -0.53,-0.01 -0.02,0.01 -0.05,0.02 -0.06,0.02 -0.04,0.01 -0.11,0.1 -0.11,0.14 0,0.01 -0.01,0.02 -0.01,0.02 -0.02,0.01 -0.1,0.14 -0.11,0.18 0,0.01 -0.02,0.04 -0.03,0.06 -0.03,0.03 -0.04,0.05 -0.06,0.13 -0.02,0.04 -0.01,0.05 0,0.08 0.01,0.03 0.02,0.05 0.02,0.07 0.01,0.01 0.02,0.04 0.04,0.06 0.02,0.02 0.04,0.05 0.04,0.07 0.01,0.03 0.03,0.08 0.16,0.27 0.04,0.07 0.02,0.07 0.41,0.07 0.22,0 0.29,-0.01 0.31,-0.02l0 0zm-0.39 -0.21c-0.33,-0.08 -0.4,-0.53 -0.11,-0.66 0.03,-0.01 0.06,-0.03 0.08,-0.04 0.05,-0.03 0.18,0 0.27,0.06 0.02,0.01 0.04,0.03 0.05,0.03 0.01,0.01 0.02,0.02 0.02,0.02 0,0.01 0.02,0.03 0.03,0.06 0.02,0.03 0.03,0.06 0.04,0.08 0,0.01 0.01,0.03 0.01,0.03 0.09,0.06 -0.08,0.33 -0.24,0.39 -0.09,0.04 -0.11,0.04 -0.15,0.03l0 0zm-0.53 0.19c0,-0.02 -0.07,-0.13 -0.09,-0.15 -0.01,-0.01 -0.03,-0.05 -0.05,-0.08 -0.04,-0.1 -0.1,-0.05 -0.12,0.1 0,0.01 -0.01,0.04 -0.01,0.05 -0.01,0.03 -0.01,0.03 0.05,0.05 0.03,0 0.08,0.02 0.11,0.02 0.08,0.02 0.11,0.02 0.11,0.01l0 0zm1.29 -0.02c0.02,-0.01 0.06,-0.02 0.09,-0.02 0.05,-0.01 0.05,-0.01 0.04,-0.04 0,-0.01 -0.01,-0.04 -0.01,-0.06 -0.02,-0.16 -0.1,-0.2 -0.13,-0.07 -0.01,0.02 -0.03,0.05 -0.04,0.06 -0.02,0.03 -0.09,0.13 -0.09,0.15 0,0.01 0.09,0 0.14,-0.02l0 0zm-1.75 -0.1c0,-0.03 0.04,-0.15 0.05,-0.16 0.01,-0.01 0.07,-0.14 0.07,-0.17 0,-0.01 0.02,-0.03 0.03,-0.06 0.02,-0.03 -0.05,-0.25 -0.09,-0.27 -0.01,-0.01 -0.05,-0.13 -0.05,-0.18 -0.01,-0.04 -0.02,-0.04 -0.06,-0.02 -0.02,0.01 -0.06,0.02 -0.09,0.03 -0.03,0 -0.06,0.01 -0.06,0.02 -0.01,0.01 -0.13,0.06 -0.15,0.06 -0.04,0 -0.22,0.13 -0.26,0.2 -0.03,0.05 -0.04,0.14 -0.02,0.22 0.01,0.03 0.11,0.14 0.13,0.13 0,0 0.02,0.01 0.04,0.03 0.03,0.03 0.1,0.07 0.12,0.07 0.01,0 0.07,0.03 0.12,0.05 0.05,0.03 0.11,0.05 0.13,0.05 0.01,0 0.03,0.01 0.05,0.02 0.03,0.01 0.04,0.01 0.04,-0.02zm2.15 0.01c0.02,-0.01 0.08,-0.03 0.12,-0.05 0.04,-0.02 0.09,-0.04 0.12,-0.04 0.1,-0.03 0.3,-0.19 0.32,-0.25 0,-0.01 0,-0.03 0.01,-0.05 0.05,-0.11 -0.16,-0.36 -0.34,-0.39 -0.01,0 -0.05,-0.02 -0.09,-0.03 -0.13,-0.07 -0.23,-0.08 -0.23,-0.01 0,0.03 -0.04,0.14 -0.06,0.16 -0.02,0.02 -0.06,0.12 -0.06,0.15 -0.01,0.02 -0.01,0.04 -0.02,0.05 -0.01,0.02 -0.01,0.03 0,0.05 0.01,0.02 0.02,0.05 0.02,0.06 0.01,0.04 0.06,0.17 0.08,0.19 0.01,0 0.02,0.04 0.03,0.07 0.01,0.07 0.03,0.1 0.05,0.1 0,0 0.03,-0.01 0.05,-0.01l0 0zm-1.85 -0.69c0.01,-0.02 0.01,-0.03 0.01,-0.04 0,-0.01 0.02,-0.04 0.04,-0.07 0.04,-0.05 0.11,-0.16 0.11,-0.18 0,-0.01 -0.07,-0.01 -0.13,0.01 -0.03,0.01 -0.08,0.02 -0.1,0.03 -0.03,0.01 -0.05,0.01 -0.05,0.01 0,0.01 0.01,0.02 0.01,0.04 0.01,0.01 0.02,0.04 0.02,0.06 0.01,0.06 0.05,0.17 0.07,0.17 0,0 0.01,-0.01 0.02,-0.03l0 0zm1.53 -0.04c0.02,-0.04 0.03,-0.08 0.03,-0.09 0,-0.01 0.01,-0.04 0.02,-0.06 0.01,-0.05 0.01,-0.06 -0.07,-0.07 -0.02,0 -0.05,-0.01 -0.06,-0.01 -0.01,-0.02 -0.14,-0.03 -0.14,-0.02 0,0.01 0.07,0.14 0.09,0.16 0.01,0.01 0.04,0.05 0.05,0.09 0.04,0.08 0.05,0.08 0.08,0zm-1.57 -0.41c0.04,0 0.1,-0.01 0.15,-0.02 0.04,-0.01 0.1,-0.02 0.13,-0.03 0.07,-0.01 0.13,-0.06 0.15,-0.12 0,-0.02 0.03,-0.05 0.06,-0.08 0.03,-0.03 0.06,-0.07 0.07,-0.09 0.01,-0.01 0.03,-0.04 0.04,-0.05 0.04,-0.03 0.04,-0.04 0,-0.07 -0.01,-0.02 -0.03,-0.04 -0.04,-0.05 -0.01,-0.01 -0.03,-0.03 -0.04,-0.03 -0.01,-0.01 -0.05,-0.03 -0.09,-0.06 -0.03,-0.03 -0.09,-0.07 -0.13,-0.09 -0.04,-0.02 -0.08,-0.04 -0.09,-0.05 -0.1,-0.09 -0.35,-0.02 -0.37,0.1 0,0.01 -0.01,0.06 -0.02,0.11 -0.03,0.09 -0.03,0.17 -0.02,0.2 0.01,0.01 0.02,0.07 0.02,0.13 0,0.06 0.01,0.11 0.01,0.12 0,0.01 0.01,0.03 0.01,0.04 0.01,0.04 0.04,0.07 0.07,0.06 0.01,0 0.05,-0.01 0.09,-0.02zm1.7 0c0.01,-0.02 0.02,-0.09 0.03,-0.19 0,-0.05 0.01,-0.11 0.01,-0.12 0.02,-0.04 0.02,-0.16 0.01,-0.19 -0.01,-0.01 -0.04,-0.12 -0.04,-0.16 -0.01,-0.11 -0.27,-0.16 -0.39,-0.08 -0.01,0.02 -0.05,0.04 -0.08,0.06 -0.04,0.02 -0.1,0.06 -0.15,0.1 -0.04,0.03 -0.08,0.06 -0.09,0.06 -0.01,0 -0.02,0.02 -0.04,0.04 -0.01,0.02 -0.02,0.04 -0.03,0.04 -0.03,0 0,0.04 0.09,0.13 0.04,0.05 0.1,0.14 0.1,0.15 0,0.03 0.11,0.11 0.15,0.11 0.02,0 0.05,0.01 0.05,0.01 0.01,0.01 0.05,0.02 0.1,0.02 0.05,0 0.1,0.01 0.12,0.02 0.05,0.02 0.15,0.02 0.16,0l0 0zm-0.83 -0.07c0.08,0 0.08,0 0.05,-0.04 -0.02,-0.02 -0.03,-0.05 -0.03,-0.05 0,-0.02 -0.1,-0.11 -0.11,-0.11 -0.01,0 -0.12,0.1 -0.12,0.11 0,0 -0.01,0.03 -0.03,0.05 -0.04,0.05 0.03,0.06 0.24,0.04l0 0z"/>
 <path fill="#C6EAF3" d="M1.13 3.59c-0.29,-0.04 -0.41,-0.45 -0.29,-0.94 0.03,-0.09 0.03,-0.09 -0.06,-0.11 -0.04,-0.01 -0.12,-0.04 -0.18,-0.07 -0.74,-0.3 -0.66,-0.88 0.16,-1.13 0.11,-0.04 0.11,-0.03 0.08,-0.12 -0.01,-0.04 -0.02,-0.1 -0.02,-0.14 0,-0.03 -0.01,-0.11 -0.02,-0.16 -0.06,-0.55 0.35,-0.83 0.8,-0.53 0.13,0.09 0.19,0.14 0.27,0.2 0.09,0.09 0.07,0.09 0.2,-0.02 0.67,-0.58 1.19,-0.28 1.01,0.59 -0.04,0.16 -0.04,0.14 0.04,0.17 0.92,0.25 0.92,0.98 0,1.21 -0.07,0.02 -0.07,0.02 -0.05,0.14 0.21,0.89 -0.32,1.21 -1.01,0.61 -0.12,-0.1 -0.09,-0.1 -0.2,0 -0.27,0.23 -0.52,0.34 -0.73,0.3l0 0zm0.2 -0.18c0.11,-0.03 0.35,-0.19 0.45,-0.3 0.04,-0.04 0.01,-0.11 -0.07,-0.18 -0.01,-0.01 -0.05,-0.06 -0.1,-0.12 -0.08,-0.13 -0.08,-0.12 -0.21,-0.14 -0.06,0 -0.15,-0.02 -0.21,-0.03 -0.17,-0.04 -0.17,-0.04 -0.2,0.25 -0.04,0.42 0.08,0.6 0.34,0.52l0 0zm1.46 0c0.12,-0.07 0.16,-0.25 0.13,-0.55 -0.03,-0.26 -0.03,-0.26 -0.2,-0.22 -0.05,0.01 -0.15,0.03 -0.21,0.03 -0.13,0.02 -0.12,0.01 -0.23,0.16 -0.04,0.05 -0.08,0.1 -0.08,0.1 -0.07,0.04 -0.11,0.14 -0.08,0.18 0.22,0.23 0.54,0.37 0.67,0.3l0 0zm-0.79 -0.53c0.17,-0.19 0.18,-0.18 -0.05,-0.17 -0.19,0 -0.19,0 -0.12,0.08 0.04,0.05 0.08,0.1 0.09,0.11 0.03,0.04 0.04,0.04 0.08,-0.02l0 0zm0.25 -0.37c0.06,-0.01 0.36,-0.49 0.36,-0.58 0,-0.02 -0.1,-0.21 -0.16,-0.32 -0.03,-0.04 -0.07,-0.11 -0.09,-0.15 -0.08,-0.12 -0.05,-0.11 -0.4,-0.11 -0.35,0 -0.34,0 -0.4,0.09 -0.02,0.03 -0.05,0.09 -0.07,0.12 -0.02,0.04 -0.05,0.09 -0.07,0.12 -0.01,0.02 -0.03,0.07 -0.05,0.09 -0.07,0.12 -0.08,0.16 -0.05,0.22 0.03,0.07 0.14,0.27 0.19,0.35 0.02,0.03 0.05,0.08 0.07,0.11 0.03,0.05 0.04,0.06 0.08,0.06 0.07,0.01 0.55,0.01 0.59,0l0 0zm-0.4 -0.24c-0.23,-0.09 -0.31,-0.35 -0.17,-0.54 0.2,-0.27 0.62,-0.13 0.62,0.21 0,0.23 -0.24,0.4 -0.45,0.33zm-0.47 0.21c0,-0.01 -0.02,-0.05 -0.06,-0.1 -0.03,-0.05 -0.07,-0.12 -0.09,-0.15 -0.04,-0.09 -0.05,-0.07 -0.11,0.11 -0.04,0.11 -0.06,0.09 0.17,0.14 0.06,0.01 0.09,0.01 0.09,0l0 0zm1.31 -0.02c0.14,-0.03 0.13,-0.02 0.1,-0.12 -0.06,-0.19 -0.07,-0.2 -0.13,-0.09 -0.02,0.04 -0.06,0.11 -0.09,0.14 -0.07,0.11 -0.07,0.11 0.12,0.07l0 0zm-1.75 -0.14c0.01,-0.03 0.05,-0.13 0.08,-0.22 0.07,-0.17 0.07,-0.17 0,-0.33 -0.04,-0.09 -0.08,-0.19 -0.09,-0.23 -0.02,-0.07 -0.01,-0.07 -0.12,-0.03 -0.72,0.24 -0.72,0.62 0.02,0.86 0.09,0.02 0.08,0.03 0.11,-0.05l0 0zm2.38 -0.04c0.51,-0.24 0.41,-0.57 -0.23,-0.77 -0.1,-0.03 -0.09,-0.04 -0.13,0.07 -0.01,0.05 -0.04,0.11 -0.05,0.13 -0.1,0.22 -0.09,0.21 -0.03,0.37 0.03,0.08 0.07,0.17 0.08,0.21 0.04,0.11 0.03,0.11 0.16,0.06 0.06,-0.02 0.15,-0.05 0.2,-0.07l0 0zm-2.09 -0.63c0.02,-0.03 0.06,-0.1 0.09,-0.15 0.08,-0.13 0.08,-0.13 -0.11,-0.09 -0.13,0.03 -0.12,0.02 -0.08,0.14 0.05,0.18 0.06,0.18 0.1,0.1zm1.5 0.04c0.01,-0.01 0.03,-0.07 0.05,-0.13 0.04,-0.13 0.05,-0.12 -0.08,-0.15 -0.19,-0.04 -0.19,-0.04 -0.11,0.09 0.04,0.06 0.08,0.13 0.09,0.16 0.02,0.05 0.04,0.06 0.05,0.03l0 0zm-1.59 -0.45c0.04,-0.01 0.14,-0.02 0.22,-0.04 0.18,-0.02 0.16,-0.02 0.26,-0.14 0.04,-0.05 0.1,-0.13 0.13,-0.17 0.08,-0.09 0.08,-0.09 0.03,-0.13 -0.33,-0.32 -0.66,-0.4 -0.75,-0.2 -0.07,0.15 -0.06,0.46 0,0.66 0.01,0.04 0.01,0.04 0.11,0.02l0 0zm1.74 -0.01c0.02,-0.05 0.03,-0.13 0.05,-0.28 0.05,-0.53 -0.2,-0.65 -0.65,-0.31 -0.21,0.16 -0.21,0.15 -0.12,0.25 0.03,0.04 0.08,0.1 0.1,0.12 0.12,0.17 0.12,0.17 0.25,0.19 0.11,0.01 0.27,0.04 0.32,0.05 0.01,0 0.03,0.01 0.03,0.01 0,0 0.01,-0.02 0.02,-0.03l0 0zm-0.74 -0.07c0.01,0 -0.17,-0.21 -0.19,-0.21 -0.02,0 -0.19,0.2 -0.18,0.21 0.01,0.01 0.36,0.01 0.37,0l0 0z"/>
 <path fill="#B7E8F5" d="M2.6 3.59c-0.14,-0.02 -0.34,-0.13 -0.54,-0.3 -0.04,-0.04 -0.08,-0.07 -0.09,-0.08 -0.01,-0.01 -0.03,0 -0.12,0.07 -0.69,0.6 -1.2,0.3 -1.01,-0.59 0.03,-0.13 0.03,-0.12 -0.08,-0.16 -0.89,-0.3 -0.88,-0.95 0.02,-1.19 0.09,-0.03 0.09,-0.03 0.07,-0.12 -0.23,-0.88 0.3,-1.23 0.98,-0.65 0.06,0.04 0.11,0.09 0.11,0.09 0.01,0.01 0.04,-0.01 0.11,-0.07 0.71,-0.62 1.25,-0.27 1.01,0.64 -0.02,0.08 -0.02,0.08 0.07,0.1 0.92,0.28 0.91,0.95 -0.02,1.21 -0.07,0.02 -0.07,0.01 -0.04,0.17 0.13,0.58 -0.06,0.94 -0.47,0.88l0 0zm-1.23 -0.19c0.14,-0.06 0.45,-0.28 0.45,-0.33 0,-0.01 -0.03,-0.06 -0.08,-0.11 -0.04,-0.05 -0.1,-0.13 -0.14,-0.17 -0.07,-0.11 -0.07,-0.11 -0.21,-0.12 -0.07,-0.01 -0.18,-0.03 -0.24,-0.04 -0.12,-0.03 -0.11,-0.03 -0.14,0.06 -0.12,0.52 0.03,0.84 0.36,0.71zm1.45 0c0.11,-0.08 0.15,-0.38 0.08,-0.68 -0.02,-0.12 -0.02,-0.11 -0.15,-0.09 -0.06,0.01 -0.17,0.03 -0.23,0.04 -0.14,0.01 -0.13,0.01 -0.23,0.14 -0.02,0.03 -0.08,0.1 -0.12,0.15 -0.1,0.11 -0.1,0.11 -0.02,0.18 0.3,0.26 0.53,0.35 0.67,0.26zm-0.75 -0.59c0.09,-0.11 0.1,-0.11 -0.12,-0.11 -0.1,0 -0.18,0.01 -0.18,0.01 0,0.01 0.09,0.14 0.14,0.19 0.05,0.05 0.05,0.05 0.16,-0.09l0 0zm0.21 -0.29c0.03,-0.01 0.2,-0.29 0.28,-0.45 0.07,-0.15 0.07,-0.15 -0.09,-0.42 -0.18,-0.33 -0.14,-0.3 -0.53,-0.31 -0.25,0 -0.32,0.01 -0.34,0.04 -0.18,0.24 -0.32,0.54 -0.28,0.62 0.06,0.13 0.26,0.47 0.29,0.5 0.03,0.03 0.61,0.04 0.67,0.02l0 0zm-0.47 -0.28c-0.26,-0.13 -0.26,-0.49 0.01,-0.61 0.22,-0.11 0.48,0.06 0.48,0.31 0,0.24 -0.27,0.41 -0.49,0.3zm-0.43 0.24c0,-0.01 -0.03,-0.07 -0.07,-0.13 -0.04,-0.06 -0.07,-0.13 -0.09,-0.15 -0.01,-0.02 -0.02,-0.04 -0.02,-0.04 -0.03,0 -0.12,0.26 -0.1,0.28 0.03,0.02 0.28,0.06 0.28,0.04l0 0zm1.32 -0.01c0.13,-0.03 0.13,-0.02 0.09,-0.15 -0.06,-0.18 -0.07,-0.19 -0.14,-0.07 -0.02,0.05 -0.06,0.11 -0.07,0.14 -0.08,0.12 -0.08,0.12 0.12,0.08zm-1.76 -0.14c0.01,-0.03 0.05,-0.13 0.08,-0.23 0.07,-0.17 0.07,-0.17 0.01,-0.32 -0.04,-0.08 -0.07,-0.19 -0.09,-0.23 -0.03,-0.08 -0.02,-0.08 -0.15,-0.04 -0.69,0.24 -0.69,0.61 0.01,0.85 0.12,0.04 0.12,0.04 0.14,-0.03zm2.16 0.04c0.72,-0.24 0.73,-0.63 0.01,-0.86 -0.12,-0.04 -0.11,-0.04 -0.15,0.06 -0.01,0.05 -0.05,0.15 -0.09,0.23 -0.05,0.14 -0.05,0.14 -0.02,0.22 0.07,0.15 0.09,0.22 0.11,0.28 0.04,0.11 0.03,0.1 0.14,0.07l0 0zm-1.86 -0.73c0.02,-0.03 0.06,-0.1 0.09,-0.15 0.08,-0.13 0.07,-0.13 -0.16,-0.08 -0.09,0.02 -0.09,0.02 -0.05,0.13 0.06,0.19 0.07,0.2 0.12,0.1l0 0zm1.5 0.05c0,-0.02 0.03,-0.08 0.05,-0.14 0.05,-0.13 0.06,-0.12 -0.23,-0.17 -0.05,-0.01 -0.05,0.01 0.02,0.11 0.03,0.05 0.07,0.12 0.08,0.15 0.05,0.09 0.05,0.09 0.08,0.05l0 0zm-1.6 -0.45c0.03,0 0.13,-0.02 0.22,-0.03 0.17,-0.02 0.17,-0.02 0.25,-0.14 0.05,-0.06 0.12,-0.14 0.15,-0.19 0.08,-0.09 0.08,-0.09 -0.12,-0.24 -0.51,-0.39 -0.78,-0.16 -0.63,0.53 0.02,0.1 0.02,0.1 0.13,0.07l0 0zm1.74 0.01c0.05,-0.09 0.07,-0.5 0.03,-0.63 -0.08,-0.27 -0.39,-0.23 -0.76,0.11 -0.08,0.07 -0.08,0.07 0.01,0.17 0.04,0.05 0.11,0.13 0.15,0.18 0.04,0.06 0.08,0.1 0.09,0.11 0.02,0 0.1,0.01 0.18,0.02 0.09,0.02 0.17,0.03 0.19,0.04 0.06,0.01 0.1,0.01 0.11,0l0 0zm-0.74 -0.09c0,-0.02 -0.17,-0.22 -0.19,-0.22 -0.01,0 -0.18,0.2 -0.18,0.22 0,0.01 0.06,0.01 0.18,0.01 0.13,0 0.19,0 0.19,-0.01z"/>
 <path fill="#A7E5F6" d="M2.61 3.59c-0.15,-0.02 -0.36,-0.14 -0.56,-0.31 -0.11,-0.1 -0.08,-0.1 -0.2,0 -0.68,0.6 -1.2,0.3 -1.01,-0.58 0.03,-0.14 0.04,-0.13 -0.11,-0.19 -0.85,-0.3 -0.84,-0.9 0.03,-1.16 0.12,-0.04 0.11,-0.03 0.09,-0.13 -0.21,-0.92 0.32,-1.24 1.02,-0.62 0.09,0.08 0.08,0.08 0.17,0 0.7,-0.62 1.24,-0.3 1.02,0.59 -0.03,0.12 -0.03,0.12 0.08,0.15 0.91,0.29 0.9,0.89 -0.01,1.19 -0.1,0.03 -0.09,0.03 -0.07,0.12 0.12,0.5 0,0.89 -0.29,0.94 -0.07,0.01 -0.08,0.01 -0.16,0l0 0zm-1.28 -0.17c0.12,-0.04 0.35,-0.19 0.46,-0.31 0.04,-0.04 0.04,-0.04 -0.02,-0.11 -0.03,-0.04 -0.1,-0.13 -0.15,-0.2 -0.1,-0.13 -0.09,-0.12 -0.24,-0.14 -0.05,0 -0.14,-0.02 -0.21,-0.03 -0.14,-0.03 -0.14,-0.03 -0.16,0.06 -0.13,0.49 0.02,0.81 0.32,0.73l0 0zm1.46 0c0.15,-0.07 0.2,-0.4 0.11,-0.74 -0.02,-0.08 -0.02,-0.08 -0.15,-0.05 -0.07,0.01 -0.18,0.03 -0.24,0.04 -0.07,0 -0.13,0.01 -0.13,0.02 0,0 -0.04,0.05 -0.09,0.11 -0.05,0.07 -0.12,0.15 -0.15,0.19 -0.08,0.09 -0.07,0.1 0.12,0.24 0.22,0.18 0.41,0.24 0.53,0.19l0 0zm-0.73 -0.59c0.12,-0.14 0.12,-0.14 -0.11,-0.14 -0.23,0 -0.22,-0.01 -0.08,0.17 0.09,0.1 0.08,0.1 0.19,-0.03zm0.16 -0.3c0.08,-0.01 0.11,-0.05 0.28,-0.34 0.15,-0.27 0.15,-0.24 0,-0.5 -0.2,-0.36 -0.18,-0.35 -0.53,-0.35 -0.39,0 -0.34,-0.02 -0.49,0.22 -0.23,0.38 -0.22,0.35 -0.07,0.63 0.15,0.27 0.2,0.33 0.26,0.33 0.09,0.01 0.48,0.01 0.55,0.01l0 0zm-0.37 -0.28c-0.18,-0.07 -0.27,-0.23 -0.22,-0.4 0.1,-0.34 0.57,-0.33 0.66,0.02 0.05,0.25 -0.21,0.48 -0.44,0.38l0 0zm0.86 0.22c0.13,-0.03 0.12,-0.02 0.08,-0.14 -0.06,-0.19 -0.07,-0.2 -0.11,-0.13 -0.01,0.03 -0.06,0.1 -0.1,0.16 -0.09,0.16 -0.1,0.15 0.13,0.11l0 0zm-1.32 0c-0.01,-0.01 -0.04,-0.06 -0.07,-0.11 -0.03,-0.05 -0.07,-0.12 -0.08,-0.15 -0.05,-0.09 -0.05,-0.08 -0.12,0.11 -0.05,0.13 -0.05,0.12 0.07,0.15 0.13,0.02 0.21,0.03 0.2,0l0 0zm-0.45 -0.14c0.01,-0.03 0.05,-0.13 0.09,-0.22 0.07,-0.2 0.07,-0.16 0,-0.33 -0.03,-0.07 -0.07,-0.17 -0.08,-0.22 -0.02,-0.05 -0.04,-0.09 -0.04,-0.09 -0.01,0 -0.06,0.02 -0.12,0.04 -0.7,0.24 -0.7,0.61 0,0.85 0.12,0.04 0.13,0.04 0.15,-0.03zm2.17 0.04c0.72,-0.24 0.72,-0.63 -0.01,-0.87 -0.11,-0.03 -0.1,-0.04 -0.15,0.09 -0.02,0.06 -0.06,0.16 -0.09,0.22 -0.05,0.12 -0.05,0.12 0.01,0.26 0.03,0.07 0.07,0.18 0.09,0.23 0.04,0.11 0.03,0.1 0.15,0.07zm-1.89 -0.68c0.01,-0.02 0.05,-0.09 0.09,-0.16 0.11,-0.18 0.12,-0.17 -0.11,-0.13 -0.12,0.03 -0.12,0.03 -0.1,0.11 0.06,0.19 0.09,0.24 0.12,0.18l0 0zm1.54 -0.06c0.09,-0.22 0.09,-0.2 -0.04,-0.23 -0.23,-0.04 -0.23,-0.04 -0.15,0.09 0.04,0.05 0.08,0.12 0.1,0.16 0.04,0.09 0.05,0.09 0.09,-0.02l0 0zm-1.55 -0.39c0.07,-0.02 0.16,-0.03 0.21,-0.04 0.11,-0.01 0.11,-0.01 0.18,-0.11 0.04,-0.05 0.1,-0.13 0.15,-0.18 0.1,-0.12 0.1,-0.11 -0.01,-0.19 -0.49,-0.43 -0.79,-0.36 -0.76,0.17 0.01,0.25 0.04,0.38 0.08,0.37 0.02,0 0.08,-0.01 0.15,-0.02l0 0zm1.7 -0.09c0.11,-0.61 -0.08,-0.86 -0.47,-0.63 -0.16,0.09 -0.38,0.26 -0.36,0.29 0.01,0.01 0.06,0.07 0.11,0.13 0.05,0.07 0.12,0.15 0.15,0.19 0.05,0.06 0.05,0.06 0.18,0.08 0.08,0.01 0.18,0.02 0.22,0.03 0.15,0.03 0.14,0.03 0.17,-0.09zm-0.76 0.01c0,-0.02 -0.18,-0.22 -0.2,-0.22 -0.01,0 -0.19,0.21 -0.19,0.22 0,0.01 0.09,0.01 0.19,0.01 0.11,0 0.2,0 0.2,-0.01l0 0z"/>
 <path fill="#97E2F6" d="M2.58 3.58c-0.15,-0.03 -0.33,-0.14 -0.52,-0.3 -0.12,-0.1 -0.1,-0.1 -0.22,0 -0.69,0.6 -1.2,0.28 -0.99,-0.62 0.03,-0.1 0.03,-0.1 -0.1,-0.14 -0.87,-0.3 -0.87,-0.89 0.01,-1.17 0.12,-0.04 0.12,-0.04 0.1,-0.11 -0.24,-0.89 0.28,-1.25 0.97,-0.66 0.06,0.04 0.11,0.09 0.11,0.09 0.01,0.01 0.04,-0.01 0.11,-0.07 0.7,-0.61 1.19,-0.33 1.01,0.58 -0.03,0.14 -0.03,0.13 0.11,0.17 0.88,0.29 0.85,0.92 -0.07,1.19 -0.07,0.02 -0.07,0.02 -0.04,0.15 0.06,0.26 0.05,0.54 -0.03,0.69 -0.08,0.18 -0.25,0.25 -0.45,0.2l0 0zm-1.25 -0.16c0.11,-0.03 0.25,-0.12 0.41,-0.26 0.11,-0.09 0.11,-0.08 0.01,-0.2 -0.04,-0.05 -0.11,-0.13 -0.14,-0.18 -0.09,-0.11 -0.08,-0.1 -0.21,-0.12 -0.06,-0.01 -0.17,-0.02 -0.23,-0.04 -0.15,-0.03 -0.14,-0.03 -0.16,0.08 -0.09,0.38 -0.03,0.7 0.14,0.73 0.03,0 0.05,0.01 0.05,0.01 0.02,0 0.08,-0.01 0.13,-0.02l0 0zm1.43 0.01c0.17,-0.05 0.22,-0.29 0.16,-0.66 -0.03,-0.18 -0.02,-0.17 -0.2,-0.14 -0.06,0.01 -0.15,0.02 -0.22,0.03 -0.13,0.02 -0.11,0.01 -0.21,0.13 -0.04,0.06 -0.1,0.14 -0.14,0.18 -0.09,0.1 -0.09,0.1 0.02,0.19 0.26,0.23 0.46,0.32 0.59,0.27l0 0zm-0.76 -0.53c0.06,-0.05 0.15,-0.18 0.15,-0.19 0,-0.01 -0.04,-0.02 -0.2,-0.02 -0.24,0 -0.23,-0.01 -0.07,0.18 0.07,0.08 0.07,0.08 0.12,0.03l0 0zm0.31 -0.4c0.11,-0.15 0.31,-0.52 0.31,-0.57 0,-0.06 -0.3,-0.57 -0.35,-0.58 -0.04,-0.01 -0.6,-0.01 -0.63,0 -0.05,0.01 -0.3,0.42 -0.35,0.55 -0.02,0.08 0.28,0.61 0.35,0.63 0.1,0.02 0.65,0 0.67,-0.03zm-0.43 -0.24c-0.33,-0.11 -0.35,-0.51 -0.04,-0.64 0.33,-0.13 0.6,0.3 0.35,0.55 -0.08,0.08 -0.22,0.12 -0.31,0.09l0 0zm-0.49 0.22c0,-0.01 -0.02,-0.06 -0.06,-0.11 -0.03,-0.05 -0.07,-0.12 -0.09,-0.16 -0.04,-0.08 -0.05,-0.08 -0.09,0.02 -0.09,0.23 -0.1,0.21 0.07,0.24 0.15,0.03 0.17,0.04 0.17,0.01l0 0zm1.31 -0.01c0.15,-0.02 0.14,-0.02 0.11,-0.11 -0.08,-0.23 -0.09,-0.24 -0.15,-0.14 -0.02,0.04 -0.06,0.11 -0.09,0.17 -0.08,0.13 -0.08,0.12 0.13,0.08l0 0zm-1.79 -0.07c0.01,-0.01 0.03,-0.05 0.05,-0.1 0.01,-0.05 0.05,-0.16 0.09,-0.23 0.04,-0.1 0.05,-0.14 0.04,-0.16 -0.02,-0.04 -0.12,-0.31 -0.14,-0.37 -0.03,-0.08 -0.03,-0.08 -0.14,-0.04 -0.73,0.24 -0.73,0.62 0,0.87 0.1,0.04 0.09,0.04 0.1,0.03zm2.25 -0.05c0.66,-0.24 0.66,-0.59 0.01,-0.83 -0.19,-0.07 -0.18,-0.07 -0.23,0.1 -0.01,0.02 -0.04,0.1 -0.07,0.18 -0.06,0.13 -0.06,0.13 0.01,0.3 0.03,0.09 0.07,0.19 0.08,0.22 0.03,0.1 0.03,0.1 0.2,0.03l0 0zm-1.85 -0.8c0.11,-0.2 0.11,-0.19 -0.1,-0.15 -0.15,0.03 -0.15,0.01 -0.07,0.23 0.05,0.13 0.04,0.13 0.17,-0.08l0 0zm1.48 0.03c0.05,-0.16 0.05,-0.15 -0.09,-0.18 -0.19,-0.04 -0.2,-0.04 -0.17,0.02 0.02,0.03 0.05,0.09 0.09,0.15 0.09,0.17 0.09,0.16 0.11,0.15 0.01,-0.01 0.03,-0.07 0.06,-0.14l0 0zm-1.52 -0.35c0.11,-0.01 0.21,-0.03 0.23,-0.03 0.02,-0.01 0.04,-0.02 0.11,-0.11 0.04,-0.06 0.11,-0.14 0.15,-0.19 0.09,-0.11 0.09,-0.11 -0.13,-0.28 -0.5,-0.38 -0.77,-0.15 -0.63,0.54 0.03,0.11 0.03,0.11 0.06,0.11 0.01,-0.01 0.11,-0.02 0.21,-0.04l0 0zm1.62 0c0.2,-0.61 -0.06,-0.96 -0.5,-0.69 -0.3,0.18 -0.34,0.25 -0.24,0.37 0.05,0.04 0.11,0.13 0.16,0.18 0.04,0.06 0.07,0.1 0.07,0.1 0.02,0 0.33,0.05 0.39,0.06 0.11,0.02 0.11,0.02 0.12,-0.02l0 0zm-0.73 -0.06c0.01,-0.01 -0.18,-0.25 -0.21,-0.25 -0.02,0 -0.21,0.24 -0.2,0.25 0.01,0.01 0.4,0.01 0.41,0z"/>
 <path fill="#89E0F8" d="M1.12 3.58c-0.26,-0.07 -0.37,-0.42 -0.27,-0.88 0.03,-0.15 0.03,-0.14 -0.07,-0.18 -0.62,-0.2 -0.84,-0.55 -0.55,-0.86 0.12,-0.13 0.27,-0.22 0.58,-0.32 0.07,-0.03 0.07,-0.03 0.04,-0.16 -0.19,-0.89 0.33,-1.18 1.01,-0.58 0.1,0.1 0.08,0.1 0.2,-0.01 0.71,-0.6 1.22,-0.26 0.99,0.65 -0.02,0.08 -0.03,0.07 0.12,0.12 0.86,0.29 0.86,0.87 -0.01,1.16 -0.14,0.04 -0.13,0.04 -0.11,0.12 0.23,0.91 -0.3,1.25 -0.99,0.63 -0.07,-0.06 -0.11,-0.08 -0.12,-0.08 0,0.01 -0.05,0.05 -0.09,0.09 -0.28,0.24 -0.54,0.35 -0.73,0.3l0 0zm0.2 -0.15c0.13,-0.04 0.31,-0.16 0.46,-0.29 0.07,-0.07 0.07,-0.07 -0.03,-0.19 -0.05,-0.06 -0.13,-0.15 -0.16,-0.2 -0.03,-0.04 -0.06,-0.08 -0.07,-0.08 -0.02,0 -0.32,-0.04 -0.39,-0.06 -0.05,-0.01 -0.09,-0.01 -0.09,-0.01 -0.03,0 -0.08,0.31 -0.07,0.48 0.01,0.29 0.13,0.41 0.35,0.35l0 0zm1.46 0c0.15,-0.07 0.21,-0.37 0.13,-0.71 -0.03,-0.13 -0.02,-0.13 -0.16,-0.1 -0.09,0.02 -0.34,0.05 -0.36,0.05 -0.01,0 -0.05,0.05 -0.09,0.11 -0.04,0.05 -0.11,0.14 -0.16,0.2 -0.08,0.09 -0.08,0.09 0,0.16 0.25,0.23 0.5,0.35 0.64,0.29l0 0zm-0.72 -0.59c0.14,-0.16 0.15,-0.15 -0.11,-0.15 -0.25,0 -0.24,-0.02 -0.1,0.15 0.11,0.13 0.1,0.13 0.21,0zm0.23 -0.32c0.03,-0.01 0.19,-0.27 0.28,-0.45 0.08,-0.15 0.08,-0.16 -0.12,-0.49 -0.17,-0.27 -0.12,-0.25 -0.55,-0.25 -0.32,0.01 -0.28,-0.01 -0.39,0.17 -0.2,0.32 -0.24,0.43 -0.2,0.52 0.11,0.21 0.29,0.5 0.32,0.51 0.08,0.02 0.62,0.01 0.66,-0.01l0 0zm-0.46 -0.28c-0.17,-0.06 -0.25,-0.28 -0.17,-0.45 0.16,-0.31 0.63,-0.2 0.63,0.15 -0.01,0.23 -0.24,0.38 -0.46,0.3zm-0.43 0.25c0,0 -0.03,-0.07 -0.07,-0.14 -0.04,-0.07 -0.09,-0.14 -0.1,-0.17 -0.04,-0.07 -0.05,-0.06 -0.12,0.15 -0.03,0.08 -0.04,0.11 -0.03,0.12 0.04,0.02 0.32,0.06 0.32,0.04zm1.3 -0.01c0.15,-0.03 0.15,-0.03 0.1,-0.15 -0.07,-0.21 -0.08,-0.22 -0.13,-0.13 -0.02,0.03 -0.06,0.11 -0.1,0.17 -0.09,0.15 -0.09,0.15 0.13,0.11l0 0zm-1.73 -0.2c0.02,-0.07 0.06,-0.18 0.09,-0.24 0.04,-0.08 0.04,-0.11 0.03,-0.13 0,-0.01 -0.03,-0.09 -0.07,-0.17 -0.03,-0.08 -0.06,-0.17 -0.07,-0.21 -0.03,-0.07 -0.03,-0.07 -0.15,-0.03 -0.71,0.24 -0.72,0.61 -0.03,0.86 0.15,0.06 0.15,0.06 0.2,-0.08l0 0zm2.15 0.09c0.72,-0.25 0.72,-0.62 -0.01,-0.87 -0.12,-0.05 -0.12,-0.05 -0.16,0.08 -0.02,0.06 -0.06,0.16 -0.09,0.23 -0.06,0.12 -0.06,0.12 -0.02,0.22 0.03,0.07 0.11,0.28 0.14,0.36 0.01,0.02 0.04,0.02 0.14,-0.02l0 0zm-1.89 -0.69c0.01,-0.02 0.06,-0.1 0.1,-0.17 0.1,-0.16 0.1,-0.16 -0.14,-0.11 -0.06,0.01 -0.1,0.02 -0.1,0.02 -0.02,0 0,0.06 0.03,0.15 0.06,0.18 0.07,0.19 0.11,0.11l0 0zm1.52 0.01c0.1,-0.25 0.1,-0.27 -0.03,-0.29 -0.24,-0.05 -0.24,-0.05 -0.15,0.1 0.04,0.07 0.09,0.14 0.1,0.17 0.03,0.07 0.05,0.07 0.08,0.02l0 0zm-1.44 -0.46c0.23,-0.03 0.21,-0.02 0.3,-0.14 0.04,-0.05 0.11,-0.14 0.15,-0.19 0.09,-0.11 0.09,-0.1 0,-0.18 -0.53,-0.47 -0.86,-0.35 -0.79,0.27 0.02,0.11 0.04,0.25 0.05,0.27 0.01,0.01 0.03,0.01 0.29,-0.03l0 0zm1.59 -0.04c0.19,-0.75 -0.16,-0.98 -0.72,-0.5 -0.13,0.11 -0.13,0.1 -0.05,0.2 0.04,0.04 0.11,0.12 0.15,0.18 0.11,0.14 0.09,0.13 0.26,0.15 0.08,0.01 0.17,0.02 0.21,0.03 0.12,0.03 0.13,0.02 0.15,-0.06zm-0.74 -0.02c0,-0.03 -0.18,-0.24 -0.21,-0.24 -0.02,0 -0.2,0.21 -0.2,0.24 0,0.01 0.04,0.01 0.2,0.01 0.16,0 0.21,0 0.21,-0.01l0 0z"/>
 <path fill="#85DEF6" d="M1.15 3.58c-0.29,-0.04 -0.4,-0.38 -0.29,-0.9 0.02,-0.13 0.03,-0.13 -0.08,-0.16 -0.89,-0.29 -0.9,-0.89 -0.01,-1.17 0.12,-0.04 0.12,-0.02 0.08,-0.18 -0.18,-0.87 0.32,-1.16 1,-0.57 0.12,0.11 0.09,0.11 0.21,0 0.7,-0.61 1.2,-0.3 0.99,0.62 -0.02,0.1 -0.03,0.09 0.09,0.13 0.88,0.29 0.9,0.86 0.03,1.16 -0.15,0.05 -0.15,0.04 -0.12,0.16 0.21,0.89 -0.3,1.2 -0.99,0.6 -0.07,-0.06 -0.11,-0.09 -0.12,-0.08 0,0.01 -0.05,0.05 -0.11,0.09 -0.26,0.23 -0.49,0.33 -0.68,0.3l0 0zm0.18 -0.15c0.11,-0.04 0.27,-0.14 0.43,-0.27 0.1,-0.09 0.1,-0.08 0.01,-0.19 -0.05,-0.05 -0.11,-0.13 -0.15,-0.19 -0.09,-0.11 -0.09,-0.11 -0.23,-0.13 -0.06,-0.01 -0.16,-0.02 -0.23,-0.03 -0.14,-0.03 -0.14,-0.03 -0.16,0.06 -0.12,0.53 0.02,0.84 0.33,0.75l0 0zm1.46 0c0.15,-0.07 0.2,-0.34 0.13,-0.7 -0.03,-0.15 -0.02,-0.14 -0.15,-0.12 -0.05,0.01 -0.15,0.03 -0.23,0.04 -0.18,0.02 -0.16,0.01 -0.25,0.13 -0.04,0.06 -0.1,0.14 -0.15,0.19 -0.09,0.11 -0.09,0.1 -0.02,0.16 0.26,0.24 0.52,0.36 0.67,0.3zm-0.76 -0.55c0.18,-0.21 0.18,-0.2 -0.08,-0.2 -0.24,0.01 -0.23,0 -0.11,0.16 0.11,0.13 0.11,0.13 0.19,0.04zm0.27 -0.36c0.04,-0.04 0.25,-0.4 0.31,-0.52 0.03,-0.08 -0.02,-0.2 -0.22,-0.51 -0.11,-0.17 -0.07,-0.16 -0.44,-0.16 -0.37,0 -0.33,-0.02 -0.46,0.21 -0.25,0.39 -0.24,0.37 -0.09,0.65 0.15,0.27 0.2,0.34 0.27,0.34 0.14,0.02 0.61,0.01 0.63,-0.01l0 0zm-0.46 -0.28c-0.17,-0.07 -0.24,-0.23 -0.2,-0.39 0.11,-0.37 0.65,-0.29 0.64,0.1 0,0.22 -0.24,0.37 -0.44,0.29zm0.87 0.24c0.14,-0.03 0.14,-0.02 0.1,-0.13 -0.07,-0.22 -0.09,-0.25 -0.14,-0.16 -0.01,0.03 -0.06,0.11 -0.1,0.17 -0.09,0.16 -0.1,0.16 0.14,0.12l0 0zm-1.31 0.01c0,-0.01 -0.03,-0.07 -0.07,-0.14 -0.04,-0.07 -0.09,-0.14 -0.1,-0.17 -0.04,-0.07 -0.06,-0.05 -0.13,0.16 -0.04,0.11 -0.04,0.1 0.01,0.12 0.13,0.03 0.29,0.05 0.29,0.03zm-0.46 -0.13c0.01,-0.03 0.05,-0.13 0.09,-0.23 0.09,-0.22 0.08,-0.18 0.01,-0.35 -0.03,-0.07 -0.07,-0.17 -0.08,-0.22 -0.04,-0.11 -0.03,-0.11 -0.17,-0.06 -0.71,0.25 -0.71,0.63 0,0.87 0.13,0.05 0.14,0.04 0.15,-0.01zm2.18 0.01c0.73,-0.25 0.71,-0.66 -0.04,-0.89 -0.1,-0.02 -0.09,-0.03 -0.13,0.08 -0.02,0.05 -0.05,0.15 -0.09,0.23 -0.03,0.08 -0.05,0.15 -0.05,0.16 0,0.01 0.03,0.07 0.06,0.14 0.02,0.06 0.06,0.16 0.08,0.2 0.04,0.13 0.03,0.13 0.17,0.08zm-1.89 -0.68c0.01,-0.01 0.05,-0.08 0.09,-0.16 0.11,-0.19 0.12,-0.18 -0.14,-0.13 -0.12,0.02 -0.11,0.02 -0.08,0.11 0.06,0.22 0.1,0.27 0.13,0.18l0 0zm1.56 -0.12c0.06,-0.17 0.07,-0.15 -0.12,-0.18 -0.19,-0.04 -0.19,-0.04 -0.11,0.1 0.04,0.05 0.07,0.12 0.09,0.14 0.07,0.14 0.08,0.14 0.14,-0.06l0 0zm-1.62 -0.32c0.05,-0.01 0.14,-0.02 0.21,-0.03 0.16,-0.02 0.15,-0.02 0.22,-0.12 0.04,-0.04 0.11,-0.13 0.15,-0.19 0.12,-0.13 0.12,-0.12 -0.11,-0.29 -0.35,-0.26 -0.59,-0.25 -0.66,0.03 -0.05,0.19 0.01,0.64 0.08,0.62 0.01,0 0.06,-0.01 0.11,-0.02l0 0zm1.74 -0.06c0.18,-0.78 -0.19,-1 -0.78,-0.46 -0.08,0.07 -0.08,0.06 0.04,0.2 0.05,0.06 0.12,0.15 0.15,0.19 0.06,0.08 0.04,0.08 0.24,0.1 0.09,0.02 0.19,0.03 0.23,0.04 0.1,0.02 0.1,0.02 0.12,-0.07l0 0zm-0.75 -0.02c0,-0.03 -0.18,-0.25 -0.21,-0.25 -0.02,0 -0.2,0.22 -0.2,0.25 0,0.01 0.04,0.01 0.2,0.01 0.16,0 0.21,0 0.21,-0.01l0 0z"/>
 <path fill="#76DCF7" d="M2.63 3.58c-0.15,-0.02 -0.35,-0.12 -0.56,-0.31 -0.11,-0.09 -0.13,-0.1 -0.16,-0.06 -0.64,0.69 -1.23,0.39 -1.05,-0.52 0.03,-0.14 0.03,-0.14 -0.1,-0.18 -0.87,-0.28 -0.87,-0.87 0,-1.15 0.13,-0.04 0.13,-0.03 0.1,-0.19 -0.18,-0.88 0.29,-1.16 0.97,-0.58 0.06,0.05 0.11,0.09 0.11,0.09 0.01,0.01 0.04,0 0.09,-0.05 0.71,-0.63 1.21,-0.36 1.02,0.55 -0.03,0.15 -0.03,0.13 0.08,0.17 0.31,0.1 0.57,0.27 0.64,0.43 0.01,0.03 0.03,0.07 0.03,0.08 0.02,0.02 0.02,0.13 0,0.16 0,0.01 -0.02,0.04 -0.03,0.07 -0.08,0.16 -0.32,0.32 -0.64,0.43 -0.11,0.04 -0.11,0.03 -0.07,0.18 0.12,0.56 -0.06,0.93 -0.43,0.88l0 0zm0.13 -0.14c0.16,-0.04 0.23,-0.27 0.18,-0.61 -0.04,-0.25 -0.03,-0.24 -0.2,-0.21 -0.07,0.01 -0.17,0.02 -0.23,0.03 -0.14,0.02 -0.13,0.01 -0.21,0.12 -0.04,0.06 -0.11,0.14 -0.15,0.19 -0.1,0.12 -0.1,0.11 -0.01,0.19 0.25,0.22 0.48,0.33 0.62,0.29zm-1.43 -0.01c0.12,-0.04 0.28,-0.14 0.44,-0.28 0.09,-0.08 0.09,-0.07 -0.01,-0.19 -0.04,-0.05 -0.11,-0.13 -0.14,-0.18 -0.09,-0.12 -0.08,-0.11 -0.21,-0.13 -0.06,-0.01 -0.16,-0.02 -0.22,-0.03 -0.17,-0.03 -0.17,-0.04 -0.19,0.05 -0.12,0.54 0.02,0.85 0.33,0.76l0 0zm0.73 -0.58c0.15,-0.18 0.16,-0.17 -0.11,-0.17 -0.23,0 -0.23,0 -0.17,0.08 0.17,0.22 0.17,0.22 0.28,0.09l0 0zm0.26 -0.34c0.1,-0.14 0.31,-0.53 0.31,-0.58 0,-0.05 -0.29,-0.56 -0.34,-0.59 -0.11,-0.06 -0.67,-0.01 -0.72,0.06 -0.26,0.38 -0.31,0.52 -0.25,0.64 0.15,0.3 0.28,0.49 0.33,0.5 0.21,0.02 0.64,0 0.67,-0.03l0 0zm-0.43 -0.26c-0.39,-0.1 -0.31,-0.67 0.1,-0.64 0.32,0.03 0.4,0.48 0.1,0.62 -0.06,0.03 -0.15,0.04 -0.2,0.02zm-0.48 0.25c0,-0.01 -0.05,-0.11 -0.18,-0.33 -0.03,-0.05 -0.03,-0.05 -0.05,-0.03 -0.03,0.03 -0.11,0.28 -0.11,0.3 0.01,0.03 0.32,0.08 0.34,0.06l0 0zm1.31 -0.02c0.13,-0.03 0.13,-0.02 0.09,-0.15 -0.07,-0.21 -0.09,-0.23 -0.14,-0.14 -0.02,0.03 -0.06,0.11 -0.1,0.18 -0.1,0.16 -0.1,0.16 0.15,0.11l0 0zm-1.76 -0.16c0.04,-0.12 0.08,-0.21 0.12,-0.3 0.03,-0.08 0.03,-0.09 0.02,-0.12 -0.03,-0.05 -0.12,-0.29 -0.15,-0.37 -0.03,-0.08 -0.02,-0.08 -0.15,-0.04 -0.73,0.25 -0.72,0.65 0.01,0.89 0.12,0.04 0.11,0.04 0.15,-0.06l0 0zm2.15 0.06c0.73,-0.25 0.73,-0.65 0,-0.89 -0.12,-0.04 -0.12,-0.04 -0.15,0.05 -0.02,0.04 -0.06,0.14 -0.09,0.23 -0.08,0.18 -0.08,0.15 -0.01,0.3 0.02,0.06 0.06,0.16 0.08,0.22 0.04,0.11 0.05,0.12 0.06,0.12 0,0 0.05,-0.01 0.11,-0.03l0 0zm-1.87 -0.69c0.01,-0.03 0.06,-0.11 0.1,-0.18 0.04,-0.07 0.07,-0.13 0.07,-0.14 0,-0.02 -0.32,0.03 -0.34,0.05 0,0.01 0.01,0.06 0.03,0.12 0.08,0.22 0.09,0.24 0.14,0.15l0 0zm1.51 0.01c0.03,-0.08 0.09,-0.24 0.09,-0.26 0,-0.02 -0.03,-0.03 -0.18,-0.06 -0.18,-0.03 -0.18,-0.03 -0.11,0.09 0.03,0.05 0.08,0.13 0.1,0.18 0.06,0.1 0.07,0.11 0.1,0.05l0 0zm-1.59 -0.44c0.06,-0.01 0.17,-0.03 0.24,-0.04 0.14,-0.02 0.11,0.01 0.29,-0.22 0.06,-0.07 0.12,-0.14 0.13,-0.15 0.04,-0.04 0,-0.11 -0.19,-0.25 -0.34,-0.25 -0.58,-0.23 -0.65,0.05 -0.04,0.14 0,0.63 0.06,0.63 0,0 0.05,-0.01 0.12,-0.02l0 0zm1.73 0c0.07,-0.13 0.08,-0.55 0.02,-0.69 -0.1,-0.24 -0.43,-0.17 -0.78,0.16 -0.08,0.07 -0.08,0.07 0,0.17 0.04,0.04 0.11,0.13 0.16,0.19 0.05,0.06 0.09,0.11 0.09,0.11 0.02,0 0.34,0.05 0.39,0.06 0.1,0.02 0.11,0.02 0.12,0l0 0zm-0.72 -0.08c0,-0.01 -0.01,-0.03 -0.02,-0.05 -0.12,-0.14 -0.18,-0.22 -0.2,-0.22 -0.02,0 -0.22,0.25 -0.21,0.27 0.01,0.01 0.43,0.01 0.43,0z"/>
 <path fill="#6AD9F8" d="M1.13 3.57c-0.26,-0.05 -0.37,-0.4 -0.27,-0.88 0.04,-0.14 0.04,-0.13 -0.1,-0.19 -0.33,-0.11 -0.53,-0.25 -0.61,-0.41 -0.02,-0.04 -0.03,-0.07 -0.04,-0.07 0,0.01 0,-0.01 -0.01,-0.04 -0.01,-0.04 0,-0.14 0.01,-0.13 0.01,0 0.02,-0.02 0.03,-0.05 0.07,-0.17 0.31,-0.33 0.62,-0.44 0.14,-0.04 0.14,-0.03 0.11,-0.15 -0.2,-0.9 0.29,-1.2 0.97,-0.6 0.12,0.1 0.11,0.1 0.23,-0.01 0.69,-0.6 1.19,-0.27 0.97,0.63 -0.03,0.09 -0.02,0.09 0.1,0.13 0.35,0.11 0.65,0.34 0.65,0.51 0,0.02 0,0.02 0.01,0.01 0.01,-0.01 0.01,0 0.01,0.06 0,0.04 0,0.07 -0.01,0.06 0,0 -0.01,0.02 -0.02,0.04 -0.05,0.19 -0.33,0.38 -0.69,0.49 -0.07,0.02 -0.08,0.02 -0.05,0.11 0.23,0.9 -0.28,1.23 -0.98,0.62 -0.12,-0.1 -0.1,-0.1 -0.2,-0.01 -0.28,0.25 -0.54,0.36 -0.73,0.32l0 0zm0.18 -0.13c0.13,-0.03 0.28,-0.13 0.45,-0.27 0.11,-0.1 0.11,-0.09 0.02,-0.2 -0.05,-0.05 -0.11,-0.13 -0.15,-0.19 -0.1,-0.12 -0.09,-0.12 -0.23,-0.14 -0.07,0 -0.18,-0.02 -0.25,-0.03 -0.14,-0.03 -0.13,-0.04 -0.17,0.12 -0.1,0.49 0.04,0.78 0.33,0.71l0 0zm1.52 -0.02c0.18,-0.13 0.17,-0.86 -0.01,-0.82 -0.14,0.02 -0.33,0.05 -0.38,0.06 -0.06,0 -0.06,0 -0.16,0.12 -0.05,0.07 -0.12,0.16 -0.16,0.2 -0.08,0.1 -0.08,0.09 0,0.16 0.31,0.28 0.56,0.38 0.71,0.28l0 0zm-0.82 -0.5c0.12,-0.14 0.19,-0.24 0.15,-0.24 0,0 -0.1,0 -0.21,0 -0.1,0 -0.2,0 -0.2,0 -0.05,0 0.16,0.28 0.2,0.28 0.01,0 0.04,-0.02 0.06,-0.04l0 0zm0.28 -0.38c0.03,-0.01 0.19,-0.27 0.28,-0.45 0.09,-0.18 0.1,-0.14 -0.05,-0.41 -0.17,-0.3 -0.21,-0.35 -0.28,-0.35 -0.11,-0.01 -0.6,0 -0.63,0.01 -0.04,0.02 -0.35,0.55 -0.35,0.59 0,0.04 0.27,0.51 0.34,0.6 0.02,0.02 0.65,0.03 0.69,0.01zm-0.44 -0.3c-0.28,-0.1 -0.27,-0.52 0.01,-0.61 0.3,-0.09 0.54,0.25 0.35,0.5 -0.08,0.1 -0.24,0.15 -0.36,0.11l0 0zm-0.44 0.25c0,-0.01 -0.03,-0.07 -0.07,-0.14 -0.04,-0.07 -0.09,-0.15 -0.1,-0.17 -0.05,-0.09 -0.07,-0.07 -0.15,0.16 -0.04,0.12 -0.04,0.12 0.11,0.15 0.14,0.02 0.21,0.03 0.21,0l0 0zm1.29 0c0.16,-0.03 0.16,-0.03 0.12,-0.15 -0.08,-0.23 -0.1,-0.25 -0.15,-0.16 -0.01,0.02 -0.06,0.1 -0.1,0.17 -0.1,0.18 -0.1,0.18 0.13,0.14l0 0zm-1.72 -0.21c0.02,-0.07 0.06,-0.18 0.09,-0.23 0.02,-0.06 0.04,-0.12 0.04,-0.13 0,-0.01 -0.04,-0.09 -0.07,-0.17 -0.04,-0.09 -0.07,-0.19 -0.08,-0.22 -0.03,-0.09 -0.04,-0.09 -0.24,-0.01 -0.65,0.25 -0.63,0.62 0.06,0.86 0.15,0.05 0.15,0.05 0.2,-0.1l0 0zm2.14 0.1c0.74,-0.25 0.73,-0.65 -0.02,-0.9 -0.12,-0.04 -0.11,-0.05 -0.18,0.13 -0.02,0.07 -0.06,0.17 -0.08,0.22 -0.05,0.1 -0.05,0.1 0.03,0.3 0.05,0.11 0.09,0.22 0.1,0.24 0.01,0.05 0.03,0.06 0.15,0.01zm-1.89 -0.68c0.02,-0.02 0.06,-0.1 0.1,-0.17 0.12,-0.2 0.12,-0.19 -0.14,-0.14 -0.14,0.02 -0.14,0.02 -0.08,0.18 0.07,0.21 0.08,0.22 0.12,0.13l0 0zm1.53 -0.02c0.11,-0.27 0.11,-0.26 -0.03,-0.29 -0.26,-0.05 -0.27,-0.05 -0.18,0.09 0.03,0.05 0.07,0.13 0.1,0.18 0.06,0.11 0.07,0.11 0.11,0.02zm-1.63 -0.41c0.03,-0.01 0.11,-0.02 0.2,-0.03 0.09,-0.02 0.17,-0.03 0.19,-0.03 0.01,0 0.05,-0.04 0.08,-0.09 0.04,-0.05 0.11,-0.13 0.16,-0.2 0.11,-0.13 0.11,-0.12 0.03,-0.19 -0.58,-0.53 -0.94,-0.36 -0.81,0.38 0.03,0.18 0.04,0.19 0.15,0.16zm1.78 -0.05c0.21,-0.8 -0.19,-1.05 -0.79,-0.49 -0.08,0.07 -0.08,0.06 0.02,0.17 0.04,0.06 0.11,0.14 0.15,0.2 0.05,0.06 0.09,0.11 0.1,0.11 0.02,0 0.08,0.01 0.15,0.02 0.07,0.01 0.16,0.02 0.2,0.03 0.13,0.03 0.15,0.02 0.17,-0.04zm-0.74 -0.05c0,-0.03 -0.19,-0.26 -0.22,-0.26 -0.01,0 -0.06,0.05 -0.16,0.18 -0.09,0.11 -0.09,0.1 0.16,0.1 0.21,0 0.22,0 0.22,-0.02zm0.52 -0.9c0.01,0 0.03,0 0.03,0.01 0.01,0 0,0 -0.02,0 -0.01,0 -0.02,0 -0.01,-0.01l0 0z"/>
 <path fill="#65D8F8" d="M2.63 3.57c-0.16,-0.02 -0.37,-0.14 -0.57,-0.32 -0.11,-0.1 -0.11,-0.1 -0.14,-0.06 -0.61,0.66 -1.22,0.42 -1.06,-0.43 0.04,-0.23 0.04,-0.21 -0.1,-0.26 -0.35,-0.12 -0.63,-0.33 -0.63,-0.5 0,-0.02 -0.01,-0.02 -0.01,0.01 -0.01,0.04 -0.03,-0.06 -0.02,-0.12 0.01,-0.04 0.01,-0.05 0.02,-0.02 0,0.02 0.01,0.02 0.01,0 0,-0.17 0.29,-0.39 0.65,-0.51 0.12,-0.03 0.12,-0.04 0.1,-0.13 -0.24,-0.88 0.28,-1.21 0.96,-0.61 0.11,0.1 0.12,0.1 0.19,0.03 0.7,-0.64 1.2,-0.37 1.01,0.53 -0.03,0.16 -0.04,0.14 0.11,0.19 0.85,0.27 0.86,0.84 0,1.13 -0.15,0.05 -0.14,0.04 -0.11,0.18 0.09,0.43 0.02,0.76 -0.18,0.86 -0.03,0.01 -0.16,0.05 -0.17,0.04 0,0 -0.02,0 -0.06,-0.01l0 0zm0.2 -0.14c0.14,-0.09 0.17,-0.37 0.09,-0.77 -0.02,-0.09 -0.01,-0.08 -0.22,-0.05 -0.09,0.02 -0.19,0.03 -0.24,0.04 -0.1,0 -0.08,-0.01 -0.17,0.12 -0.05,0.05 -0.12,0.14 -0.16,0.19 -0.1,0.12 -0.1,0.11 -0.03,0.17 0.3,0.28 0.57,0.39 0.73,0.3l0 0zm-1.49 0.01c0.12,-0.04 0.32,-0.17 0.47,-0.3 0.07,-0.07 0.07,-0.06 -0.03,-0.18 -0.04,-0.05 -0.11,-0.14 -0.16,-0.19 -0.09,-0.13 -0.07,-0.11 -0.21,-0.13 -0.06,-0.01 -0.17,-0.02 -0.24,-0.04 -0.17,-0.03 -0.16,-0.03 -0.19,0.1 -0.11,0.52 0.04,0.83 0.36,0.74l0 0zm0.7 -0.55c0.2,-0.23 0.21,-0.22 -0.09,-0.22 -0.29,0 -0.28,-0.02 -0.07,0.23 0.07,0.09 0.07,0.09 0.16,-0.01zm0.28 -0.38c0.08,-0.09 0.33,-0.53 0.33,-0.58 0,-0.05 -0.26,-0.51 -0.33,-0.58 -0.04,-0.04 -0.53,-0.05 -0.69,-0.02 -0.05,0.01 -0.37,0.53 -0.37,0.6 0,0.04 0.14,0.3 0.28,0.52 0.07,0.11 0.04,0.1 0.46,0.1 0.29,0 0.29,0 0.32,-0.04l0 0zm-0.44 -0.27c-0.28,-0.09 -0.32,-0.46 -0.06,-0.58 0.29,-0.14 0.57,0.17 0.4,0.45 -0.07,0.11 -0.23,0.17 -0.34,0.13l0 0zm-0.46 0.26c0,-0.01 -0.03,-0.08 -0.08,-0.16 -0.05,-0.07 -0.09,-0.16 -0.1,-0.18 -0.04,-0.07 -0.06,-0.06 -0.1,0.03 -0.11,0.29 -0.11,0.27 0.04,0.3 0.22,0.04 0.24,0.04 0.24,0.01l0 0zm1.31 -0.01c0.15,-0.03 0.14,-0.02 0.06,-0.23 -0.07,-0.18 -0.07,-0.19 -0.16,-0.03 -0.03,0.06 -0.08,0.14 -0.1,0.18 -0.08,0.13 -0.07,0.13 0.2,0.08zm-1.79 -0.09c0.01,-0.01 0.03,-0.08 0.05,-0.14 0.03,-0.07 0.07,-0.17 0.09,-0.22 0.04,-0.11 0.04,-0.11 0.02,-0.17 -0.05,-0.1 -0.12,-0.29 -0.14,-0.36 -0.02,-0.07 -0.03,-0.07 -0.17,-0.03 -0.74,0.25 -0.73,0.65 0.02,0.91 0.1,0.04 0.12,0.04 0.13,0.01l0 0zm2.22 -0.03c0.7,-0.26 0.68,-0.65 -0.04,-0.89 -0.14,-0.04 -0.14,-0.04 -0.17,0.03 -0.01,0.04 -0.05,0.14 -0.09,0.24 -0.08,0.2 -0.08,0.18 -0.02,0.31 0.04,0.09 0.07,0.17 0.13,0.35 0.01,0.02 0.06,0.01 0.19,-0.04l0 0zm-1.93 -0.64c0.01,-0.02 0.06,-0.11 0.1,-0.19 0.09,-0.15 0.1,-0.18 0.09,-0.19 -0.01,0 -0.3,0.04 -0.34,0.05 -0.03,0.01 -0.03,0.05 0.02,0.16 0.07,0.21 0.09,0.23 0.13,0.17l0 0zm1.53 -0.03c0.04,-0.09 0.09,-0.24 0.09,-0.27 0,-0.02 0,-0.03 -0.13,-0.05 -0.27,-0.05 -0.27,-0.05 -0.18,0.1 0.03,0.05 0.08,0.14 0.11,0.19 0.06,0.11 0.07,0.11 0.11,0.03zm-1.63 -0.43c0.07,-0.01 0.21,-0.03 0.36,-0.05 0.05,-0.01 0.05,-0.01 0.13,-0.11 0.08,-0.11 0.17,-0.22 0.21,-0.26 0.05,-0.05 0.02,-0.08 -0.12,-0.2 -0.56,-0.45 -0.88,-0.22 -0.73,0.52 0.03,0.14 0.02,0.13 0.15,0.1l0 0zm1.77 0.01c0.01,-0.03 0.05,-0.21 0.06,-0.34 0.05,-0.6 -0.3,-0.7 -0.83,-0.23 -0.1,0.09 -0.1,0.08 0.02,0.22 0.06,0.07 0.13,0.16 0.16,0.21 0.03,0.04 0.06,0.07 0.07,0.07 0.02,0 0.33,0.05 0.39,0.06 0.09,0.02 0.12,0.02 0.13,0.01l0 0zm-0.72 -0.1c0.01,-0.02 -0.02,-0.05 -0.13,-0.19 -0.09,-0.11 -0.1,-0.11 -0.19,0 -0.13,0.16 -0.15,0.19 -0.13,0.2 0.02,0.02 0.45,0.01 0.45,-0.01l0 0zm1.63 0.76c0,-0.04 0,-0.06 0,-0.04 0,0.03 0,0.06 0,0.08 0,0.02 0,0 0,-0.04zm-1.12 -1.67c0.01,0 0.03,0 0.03,0.01 0.01,0 0,0 -0.02,0 -0.01,0 -0.02,0 -0.01,-0.01l0 0z"/>
 </g>
 </g>
 </svg>
