<svg viewBox="0 0 24 24" fill="currentColor" xmlns="http://www.w3.org/2000/svg">
  <path d="M12 10.11c1.03 0 1.87.84 1.87 1.89 0 1-.84 1.85-1.87 1.85S10.13 13 10.13 12c0-1.05.84-1.89 1.87-1.89M7.37 20c.63.38 2.01-.2 3.6-1.7-.52-.59-1.03-1.23-1.51-1.9a22.7 22.7 0 0 1-2.4-.36c-.51 2.14-.32 3.61.31 3.96m.71-5.74l-.29-.51c-.11.29-.22.58-.29.86.27.06.57.11.88.16l-.3-.51m6.54-.76l.81-1.5-.81-1.5c-.3-.53-.62-1-.91-1.47C13.17 9 12.6 9 12 9c-.6 0-1.17 0-1.71.03-.29.47-.61.94-.91 1.47L8.57 12l.81 1.5c.3.53.62 1 .91 1.47.54.03 1.11.03 1.71.03.6 0 1.17 0 1.71-.03.29-.47.61-.94.91-1.47M12 6.78c-.19.22-.39.45-.59.72h1.18c-.2-.27-.4-.5-.59-.72m0 10.44c.19-.22.39-.45.59-.72h-1.18c.2.27.4.5.59.72M16.62 4c-.62-.38-2 .2-3.59 1.7.52.59 1.03 1.23 1.51 1.9.82.08 1.63.2 2.4.36.51-2.14.32-3.61-.32-3.96m-.7 5.74l.29.51c.11-.29.22-.58.29-.86-.27-.06-.57-.11-.88-.16l.3.51m1.45-7.05c1.47.84 1.63 3.05 1.01 5.63 2.54.75 4.37 1.99 4.37 3.68 0 1.69-1.83 2.93-4.37 3.68.62 2.58.46 4.79-1.01 5.63-1.46.84-3.45-.12-5.37-1.95-1.92 1.83-3.91 2.79-5.38 1.95-1.46-.84-1.62-3.05-1-5.63-2.54-.75-4.37-1.99-4.37-3.68 0-1.69 1.83-2.93 4.37-3.68-.62-2.58-.46-4.79 1-5.63 1.47-.84 3.46.12 5.38 1.95 1.92-1.83 3.91-2.79 5.37-1.95M17.08 12c.34.75.64 1.5.89 2.26 2.1-.63 3.28-1.53 3.28-2.26 0-.73-1.18-1.63-3.28-2.26-.25.76-.55 1.51-.89 2.26M6.92 12c-.34-.75-.64-1.5-.89-2.26-2.1.63-3.28 1.53-3.28 2.26 0 .73 1.18 1.63 3.28 2.26.25-.76.55-1.51.89-2.26m9.06 0c.45-1.29.73-2.61.82-3.87-.58-.1-1.17-.19-1.75-.22-.17-.27-.35-.53-.54-.78 1.72-1.59 2.94-2.23 3.64-1.83.7.4.96 2.03.48 4.12.21.14.41.28.59.43.18-.15.38-.29.59-.43-.48-2.09-.22-3.72.48-4.12.7-.4 1.92.24 3.64 1.83-.19.25-.37.51-.54.78-.58.03-1.17.12-1.75.22.09 1.26.37 2.58.82 3.87.45 1.29.73 2.61.82 3.87.58.1 1.17.19 1.75.22.17.27.35.53.54.78-1.72 1.59-2.94 2.23-3.64 1.83-.7-.4-.96-2.03-.48-4.12-.21-.14-.41-.28-.59-.43-.18.15-.38.29-.59.43.48 2.09.22 3.72-.48 4.12-.7.4-1.92-.24-3.64-1.83.19-.25.37-.51.54-.78.58-.03 1.17-.12 1.75-.22-.09-1.26-.37-2.58-.82-3.87"/>
</svg>
