<svg width="34" height="31" viewBox="0 0 34 31" fill="none" xmlns="http://www.w3.org/2000/svg">
<path d="M21.6064 0.511586C23.3986 -0.195181 24.6105 -0.169495 25.6201 0.587758C26.865 1.52156 27.2351 2.30395 27.3613 3.99498C27.6122 6.15284 27.3411 7.38396 26.8896 9.43541L26.8818 9.47252C29.3291 10.2159 30.7947 10.633 32.7383 12.5008C33.5787 13.3085 34 13.9652 34 15.1766C34 16.3629 33.5271 17.0969 32.915 17.7264C31.1482 19.5438 29.3806 20.2498 26.8564 20.9061C27.4622 23.0516 27.639 24.3395 27.3613 26.6112C27.1917 27.9994 26.907 28.8323 26.0488 29.5643C24.6606 30.7484 23.3481 30.624 21.7832 29.993C19.6288 29.1243 18.6227 28.2507 16.9492 26.7958L16.9121 26.7626C13.2269 30.2206 10.0962 31.054 8.53125 29.9686C5.93146 28.5046 6.28521 23.8342 7.11816 20.9315C4.6277 20.1725 3.54937 19.6176 1.91797 18.5087C0.31633 17.105 0.00442439 16.4019 0 15.2274C0 13.9401 0.534088 13.155 1.3125 12.4256C2.62505 11.1959 3.8171 10.5349 7.11816 9.47252C6.48713 7.2008 6.31039 5.73619 6.61328 3.59069C6.94141 1.84931 7.42118 1.04198 8.60742 0.411C9.99565 -0.245265 11.2126 0.00625893 12.8223 0.739125C14.7658 1.7235 15.5616 2.45098 16.9873 3.79284C18.7037 2.05123 19.7639 1.31928 21.6064 0.511586ZM25.5078 21.3309C23.6917 21.7775 22.6758 21.9284 20.8545 22.035C19.801 23.5511 19.1074 24.3436 18.0127 25.6131C21.2854 28.5494 23.3682 29.4158 24.835 28.6864C26.0573 27.8748 26.1467 25.8064 25.5078 21.3309ZM8.53223 21.285C7.61586 25.5852 7.90077 27.8226 9.26367 28.7313C10.5762 29.3874 12.4154 28.4343 15.9785 25.6512C14.6866 24.2986 14.0495 23.4932 13.0498 21.9667C11.2107 21.8081 10.1781 21.602 8.53223 21.285ZM14.9902 22.16C15.5756 22.9916 16.0014 23.5315 16.9355 24.4999C17.7083 23.7305 18.1869 23.1909 18.9473 22.162C17.4458 22.3275 16.5176 22.3089 14.9902 22.16ZM20.0674 9.82506C17.6463 9.69664 16.3049 9.70125 13.9336 9.80065C12.5679 11.7933 11.8862 12.9847 10.7783 15.202C11.8385 17.3064 12.4909 18.4806 13.8828 20.5526C16.2569 20.6784 17.6014 20.6972 20.042 20.5526C21.4048 18.5142 22.0731 17.3381 23.1465 15.202C22.059 13.0122 21.3771 11.8408 20.0674 9.82506ZM10.0215 16.9432C9.59178 17.8651 9.33543 18.5035 8.96094 19.7958C10.0129 20.0827 10.7194 20.2288 11.9902 20.3758C11.0989 19.1563 10.6531 18.342 10.0215 16.9432ZM23.8838 16.9579C23.2624 18.3348 22.7744 19.1248 21.8691 20.3641C22.8829 20.2833 23.5642 20.1913 24.873 19.8797C24.6038 18.823 24.3827 18.136 23.8838 16.9579ZM7.51953 10.9061C3.34889 12.2967 1.56512 13.6771 1.47266 15.3124C1.57256 16.7764 3.32569 17.878 7.53125 19.538C8.04197 17.739 8.41399 16.7817 9.22266 15.1464C8.42656 13.4805 8.08102 12.4858 7.51953 10.9061ZM26.5068 10.8876C25.9673 12.6783 25.58 13.6295 24.7451 15.2518C25.5143 16.9301 25.8438 17.93 26.3799 19.5184C30.5727 18.1948 32.3788 16.8427 32.4971 15.2089C32.4203 13.7436 30.6847 12.6145 26.5068 10.8876ZM17.0127 12.0975C18.7132 12.0977 20.0927 13.4761 20.0928 15.1766C20.0928 16.8772 18.7132 18.2555 17.0127 18.2557C15.3121 18.2555 13.9336 16.8772 13.9336 15.1766C13.9337 13.4761 15.3122 12.0977 17.0127 12.0975ZM21.916 10.0565C22.8051 11.2777 23.2489 12.0933 23.8779 13.493C24.3093 12.572 24.5665 11.9341 24.9434 10.6424C23.8921 10.3537 23.1863 10.2058 21.916 10.0565ZM12.0166 9.98815C11.0041 10.0852 10.3243 10.1889 9.02051 10.5214C9.30654 11.5733 9.5381 12.256 10.0557 13.4256C10.6549 12.0391 11.1313 11.2418 12.0166 9.98815ZM24.6562 1.7069C23.345 1.04868 21.5052 1.998 17.9375 4.77428C19.2268 6.12916 19.8615 6.93646 20.8584 8.46471C22.6974 8.62655 23.7296 8.8342 25.375 9.15416C26.299 4.85572 26.0176 2.61803 24.6562 1.7069ZM15.9502 4.79577C12.6945 1.8408 10.6165 0.961654 9.14551 1.68248C7.91837 2.4869 7.81762 4.555 8.43066 9.03405C10.2492 8.59801 11.266 8.45342 13.0879 8.35729C14.1501 6.8473 14.8481 6.05907 15.9502 4.79577ZM17.0215 5.91491C16.2443 6.67978 15.7623 7.21675 14.9961 8.24108C16.4983 8.08421 17.4266 8.10881 18.9531 8.26647C18.3725 7.43135 17.9501 6.88868 17.0215 5.91491Z" fill="#67DAFA"/>
</svg>
