<svg xmlns="http://www.w3.org/2000/svg" width="32" height="32" viewBox="0 0 3.86 3.86">
 <g fill-rule="nonzero"><path fill="#37BCF6" d="M1.91 3.03c-0.26,0 -0.46,-0.07 -0.64,-0.22 -0.06,-0.04 -0.08,-0.07 -0.19,-0.18 -0.19,-0.18 -0.25,-0.23 -0.37,-0.26 -0.23,-0.06 -0.45,0.03 -0.63,0.25 -0.01,0.01 -0.02,0.02 -0.02,0.02 0,0 0.04,-0.11 0.05,-0.15 0.16,-0.39 0.45,-0.58 0.89,-0.58 0.26,0 0.46,0.07 0.65,0.21 0.06,0.04 0.09,0.07 0.21,0.19 0.18,0.18 0.24,0.22 0.35,0.25 0.24,0.07 0.47,-0.01 0.65,-0.24 0.01,-0.01 0.01,-0.02 0.01,-0.02 0,0 -0.01,0.06 -0.02,0.09 -0.15,0.44 -0.47,0.66 -0.94,0.64l0 0zm-1.85 -0.38c0,0 0,0 0,0 0,0 0,0 0,0 0,0.01 0,0.01 0,0.01 0,0 0,0 0,-0.01zm2.79 -0.75c-0.26,0 -0.46,-0.08 -0.64,-0.22 -0.05,-0.04 -0.08,-0.07 -0.19,-0.18 -0.19,-0.18 -0.25,-0.23 -0.36,-0.26 -0.24,-0.06 -0.46,0.03 -0.64,0.25 -0.01,0.01 -0.01,0.02 -0.01,0.02 -0.01,0 0.01,-0.06 0.02,-0.09 0.14,-0.42 0.43,-0.63 0.87,-0.64 0.02,0 0.02,0 0,0 -0.03,0 -0.03,0 0.01,0 0.01,0 0.04,0 0.06,0 0.04,0 0.04,0 0.01,0 -0.02,0 -0.02,0 -0.01,0 0.25,0 0.44,0.07 0.62,0.21 0.06,0.04 0.09,0.07 0.21,0.19 0.18,0.18 0.24,0.22 0.35,0.25 0.24,0.07 0.47,-0.01 0.65,-0.24 0.01,-0.01 0.02,-0.02 0.02,-0.02 0,0 -0.02,0.06 -0.03,0.09 -0.15,0.44 -0.46,0.65 -0.94,0.64l0 0zm0.97 -0.74c0,0 0,0 0,0 0,0 0,0 0,0 0,0 0,0 0,0 0,0 0,0 0,0z"/>
 </g>
 </svg>
