<svg width="32" height="32" viewBox="0 0 32 32" fill="none" xmlns="http://www.w3.org/2000/svg">
<path d="M30.8866 32H1.18519C0.39507 32 0 31.5331 0 30.8148V1.04153C0 0.448934 0.520772 -4.3841e-06 1.11336 0H30.8328C31.4792 0 32 0.3771 32 1.11336V30.9585C32 31.4972 31.6229 32 30.8866 32Z" fill="#197ABF"/>
<path d="M18.945 14.6711H7.41638V17.3H11.6612V29.5039H14.7002V17.3H18.945V14.6711Z" fill="black"/>
<path d="M21.4949 24.9966L19.0348 26.4332C20.651 29.2525 23.4523 29.9708 26.4512 29.2525C30.5275 28.0494 29.9169 23.4164 28.2828 22.2132C27.4688 21.5212 26.9899 21.2615 26.0022 20.7946C25.0146 20.3277 24.2065 20.0763 23.4343 19.5376C22.3569 18.6038 23.1291 17.1672 24.0988 17.1672C25.1406 17.1177 25.632 17.369 26.3075 18.4242L28.642 16.9338C27.367 14.33 24.0988 14.0067 21.9618 15.0842C19.2862 16.5208 19.5196 20.0224 21.1538 21.5488C22.3569 22.8058 24.3143 23.1829 25.7868 24.0808C27.0438 24.9966 26.5589 26.4332 25.2121 26.7564C23.2548 27.0258 22.4362 26.3929 21.4949 24.9966Z" fill="black"/>
</svg>
