<svg viewBox="0 0 24 24" fill="currentColor" xmlns="http://www.w3.org/2000/svg">
  <path d="M3 3h18v18H3V3zm10.71 14.86c.5.98 1.51 1.73 3.09 1.73 1.6 0 2.8-.83 2.8-2.36 0-1.41-.81-2.04-2.25-2.66l-.42-.18c-.73-.31-1.04-.51-1.04-1.02 0-.4.31-.71.81-.71.5 0 .81.21 1.11.71l1.37-.88c-.43-.76-1.02-1.05-1.85-1.05-1.19 0-1.95.76-1.95 1.76 0 1.21.81 1.79 2.03 2.31l.42.17c.77.33 1.23.53 1.23 1.13 0 .48-.45.83-1.15.83-.83 0-1.31-.43-1.67-1.03l-1.43.81zM13 11.25H8.5V8.5h12v2.75h-4.5v9.25h-3v-9.25z"/>
</svg>
