<svg xmlns="http://www.w3.org/2000/svg" viewBox="0 0 24 24" fill="currentColor">
  <!-- USA Flag -->
  <rect x="2" y="6" width="20" height="12" rx="2" fill="#B22234"/>
  <!-- White stripes -->
  <rect x="2" y="7" width="20" height="1" fill="#FFFFFF"/>
  <rect x="2" y="9" width="20" height="1" fill="#FFFFFF"/>
  <rect x="2" y="11" width="20" height="1" fill="#FFFFFF"/>
  <rect x="2" y="13" width="20" height="1" fill="#FFFFFF"/>
  <rect x="2" y="15" width="20" height="1" fill="#FFFFFF"/>
  <rect x="2" y="17" width="20" height="1" fill="#FFFFFF"/>
  <!-- Blue canton -->
  <rect x="2" y="6" width="9" height="6" rx="1" fill="#3C3B6E"/>
  <!-- Stars (simplified 5x4 pattern) -->
  <circle cx="3.5" cy="7.5" r="0.3" fill="#FFFFFF"/>
  <circle cx="5" cy="7.5" r="0.3" fill="#FFFFFF"/>
  <circle cx="6.5" cy="7.5" r="0.3" fill="#FFFFFF"/>
  <circle cx="8" cy="7.5" r="0.3" fill="#FFFFFF"/>
  <circle cx="9.5" cy="7.5" r="0.3" fill="#FFFFFF"/>

  <circle cx="4.25" cy="8.5" r="0.3" fill="#FFFFFF"/>
  <circle cx="5.75" cy="8.5" r="0.3" fill="#FFFFFF"/>
  <circle cx="7.25" cy="8.5" r="0.3" fill="#FFFFFF"/>
  <circle cx="8.75" cy="8.5" r="0.3" fill="#FFFFFF"/>

  <circle cx="3.5" cy="9.5" r="0.3" fill="#FFFFFF"/>
  <circle cx="5" cy="9.5" r="0.3" fill="#FFFFFF"/>
  <circle cx="6.5" cy="9.5" r="0.3" fill="#FFFFFF"/>
  <circle cx="8" cy="9.5" r="0.3" fill="#FFFFFF"/>
  <circle cx="9.5" cy="9.5" r="0.3" fill="#FFFFFF"/>

  <circle cx="4.25" cy="10.5" r="0.3" fill="#FFFFFF"/>
  <circle cx="5.75" cy="10.5" r="0.3" fill="#FFFFFF"/>
  <circle cx="7.25" cy="10.5" r="0.3" fill="#FFFFFF"/>
  <circle cx="8.75" cy="10.5" r="0.3" fill="#FFFFFF"/>

  <circle cx="3.5" cy="11.5" r="0.3" fill="#FFFFFF"/>
  <circle cx="5" cy="11.5" r="0.3" fill="#FFFFFF"/>
  <circle cx="6.5" cy="11.5" r="0.3" fill="#FFFFFF"/>
  <circle cx="8" cy="11.5" r="0.3" fill="#FFFFFF"/>
  <circle cx="9.5" cy="11.5" r="0.3" fill="#FFFFFF"/>
</svg>
