<svg xmlns="http://www.w3.org/2000/svg" width="32" height="32" viewBox="0 0 3.86 3.86">
 <g fill-rule="nonzero"><path fill="#E8E7E7" d="M1.88 3.77c-0.68,-0.01 -1.32,-0.44 -1.6,-1.08 -0.09,-0.2 -0.14,-0.42 -0.15,-0.61 -0.01,-0.11 0,-0.28 0.01,-0.34 0.1,-0.85 0.75,-1.5 1.6,-1.61 0.1,-0.01 0.33,-0.01 0.44,0.01 0.8,0.1 1.44,0.71 1.57,1.51 0.03,0.17 0.03,0.43 0,0.59 -0.14,0.86 -0.89,1.52 -1.72,1.53 -0.04,0 -0.07,0 -0.08,0 0,0 -0.03,0 -0.07,0l0 0zm0.16 -0.09c1.34,-0.07 2.1,-1.59 1.35,-2.7 -0.71,-1.05 -2.26,-1.01 -2.92,0.06 -0.69,1.13 0.08,2.58 1.4,2.64 0.03,0 0.14,0 0.17,0zm-0.17 -0.17c-0.1,0 -0.21,-0.02 -0.31,-0.04 -0.05,-0.02 -0.05,-0.02 -0.05,-0.02 0,-0.01 0.46,-1.36 0.46,-1.37 0.01,0 0.01,0 0.01,0.01 0,0 0.11,0.29 0.24,0.65 0.13,0.36 0.24,0.66 0.24,0.67 0.01,0.02 0.01,0.02 -0.02,0.03 -0.19,0.06 -0.38,0.08 -0.57,0.07l0 0zm-0.62 -0.16c-0.65,-0.32 -1,-1.07 -0.82,-1.79 0.02,-0.09 0.08,-0.25 0.09,-0.25 0,0 0.75,2.04 0.75,2.04 0,0.01 -0.01,0.01 -0.02,0l0 0zm1.48 -0.05c0,-0.01 0.47,-1.36 0.49,-1.41 0.09,-0.24 0.13,-0.46 0.1,-0.67 0,-0.03 0,-0.03 0.03,0.02 0.37,0.73 0.11,1.62 -0.59,2.05 -0.02,0.01 -0.03,0.01 -0.03,0.01zm-1.17 -0.39c-0.02,-0.04 -0.57,-1.69 -0.57,-1.69 0,-0.01 0,-0.01 0.04,-0.01 0.11,-0.01 0.15,-0.01 0.16,-0.02 0.05,-0.02 0.04,-0.09 0,-0.11 -0.02,-0.01 -0.03,-0.01 -0.11,0 -0.21,0.02 -0.44,0.02 -0.44,0.01 0,-0.01 0.04,-0.06 0.07,-0.1 0.56,-0.72 1.6,-0.82 2.28,-0.21 0.02,0.01 0.02,0.02 0.01,0.02 -0.18,-0.01 -0.31,0.16 -0.27,0.34 0.02,0.07 0.04,0.13 0.12,0.26 0.19,0.3 0.2,0.46 0.07,0.88 -0.01,0.03 -0.02,0.07 -0.03,0.09 0,0.01 -0.04,0.14 -0.08,0.28 -0.07,0.22 -0.08,0.25 -0.08,0.25 0,0 -0.57,-1.67 -0.57,-1.68 0,-0.01 0,-0.01 0.03,-0.01 0.18,-0.01 0.2,-0.02 0.21,-0.06 0.01,-0.06 -0.03,-0.08 -0.1,-0.07 -0.04,0 -0.13,0.01 -0.2,0.01 -0.08,0 -0.27,0 -0.34,0 -0.08,0 -0.17,-0.01 -0.23,-0.01 -0.06,-0.01 -0.09,0.01 -0.09,0.05 0,0.06 0.02,0.07 0.19,0.08 0.02,0 0.03,0 0.03,0 0,0.01 0.24,0.67 0.24,0.67 0,0.01 -0.07,0.24 -0.17,0.52 -0.17,0.51 -0.17,0.52 -0.17,0.51l0 0z"/>
 <path fill="#D8D7D7" d="M1.84 3.77c-0.65,-0.02 -1.29,-0.47 -1.56,-1.08 -0.12,-0.27 -0.16,-0.53 -0.15,-0.83 0.03,-0.84 0.66,-1.56 1.49,-1.71 0.21,-0.03 0.45,-0.03 0.66,0 0.75,0.14 1.34,0.74 1.47,1.49 0.17,1.05 -0.57,2.01 -1.62,2.12 -0.06,0.01 -0.2,0.01 -0.29,0.01l0 0zm0.18 -0.09c1.18,-0.05 1.97,-1.24 1.55,-2.34 -0.39,-1.05 -1.66,-1.46 -2.58,-0.84 -0.98,0.66 -1.04,2.07 -0.12,2.81 0.32,0.26 0.74,0.39 1.15,0.37l0 0zm-0.14 -0.17c-0.11,0 -0.21,-0.02 -0.31,-0.04 -0.04,-0.01 -0.06,-0.02 -0.06,-0.02 0,0 0.46,-1.36 0.46,-1.36 0.01,-0.01 0,-0.02 0.25,0.66 0.13,0.36 0.24,0.66 0.24,0.66 0.01,0.02 0.01,0.01 -0.05,0.03 -0.17,0.06 -0.36,0.08 -0.53,0.07l0 0zm-0.65 -0.17c-0.66,-0.34 -0.99,-1.11 -0.78,-1.83 0.02,-0.08 0.06,-0.2 0.07,-0.2 0,0 0.75,2.04 0.75,2.04 0,0.01 -0.01,0.01 -0.04,-0.01zm1.5 -0.04c0,-0.01 0.48,-1.39 0.49,-1.41 0.09,-0.23 0.13,-0.46 0.1,-0.66 0,-0.04 0,-0.04 0.03,0.01 0.36,0.71 0.12,1.58 -0.54,2.02 -0.06,0.03 -0.08,0.04 -0.08,0.04l0 0zm-1.18 -0.41c-0.3,-0.89 -0.56,-1.67 -0.56,-1.67 0,-0.01 0.02,-0.01 0.04,-0.01 0.09,-0.01 0.15,-0.01 0.16,-0.02 0.05,-0.02 0.05,-0.09 0,-0.11 -0.01,-0.01 -0.02,-0.01 -0.09,0 -0.22,0.01 -0.45,0.02 -0.46,0.01 0,0 0.02,-0.03 0.05,-0.08 0.55,-0.73 1.6,-0.84 2.29,-0.24 0.03,0.03 0.03,0.03 0,0.03 -0.17,0 -0.29,0.16 -0.25,0.34 0.02,0.07 0.04,0.13 0.12,0.25 0.12,0.19 0.16,0.31 0.16,0.47 0,0.12 -0.02,0.19 -0.1,0.44 -0.01,0.04 -0.06,0.19 -0.1,0.33 -0.08,0.28 -0.08,0.27 -0.08,0.26 -0.01,0 -0.57,-1.67 -0.57,-1.67 0,-0.01 0,-0.01 0.08,-0.01 0.07,-0.01 0.11,-0.01 0.12,-0.02 0.05,-0.01 0.05,-0.09 0.01,-0.11 -0.02,-0.01 -0.04,-0.01 -0.12,0 -0.06,0 -0.12,0.01 -0.2,0.01 -0.06,0 -0.2,0 -0.26,0 -0.07,0 -0.17,-0.01 -0.23,-0.01 -0.06,-0.01 -0.07,-0.01 -0.08,0 -0.05,0.01 -0.06,0.09 -0.01,0.11 0.02,0.01 0.08,0.01 0.15,0.02 0.03,0 0.04,0 0.04,0.01 0,0 0.06,0.15 0.12,0.33 0.12,0.33 0.12,0.33 -0.05,0.84 -0.18,0.56 -0.17,0.53 -0.18,0.5z"/>
 <path fill="#C8C7C7" d="M1.84 3.77c-0.35,-0.01 -0.74,-0.16 -1.03,-0.4 -0.85,-0.68 -0.92,-1.94 -0.15,-2.71 0.37,-0.37 0.85,-0.56 1.38,-0.53 0.93,0.04 1.69,0.8 1.73,1.72 0.03,0.71 -0.32,1.35 -0.94,1.7 -0.3,0.16 -0.61,0.23 -0.99,0.22zm0.2 -0.09c1.34,-0.07 2.1,-1.57 1.36,-2.69 -0.69,-1.04 -2.22,-1.03 -2.9,0 -0.74,1.13 0.02,2.63 1.37,2.69 0.03,0.01 0.14,0.01 0.17,0zm-0.17 -0.17c-0.1,0 -0.2,-0.02 -0.3,-0.04 -0.05,-0.02 -0.06,-0.02 -0.06,-0.02 0,-0.01 0.42,-1.23 0.46,-1.36 0.01,-0.01 0.01,0 0.01,0.01 0.11,0.29 0.48,1.31 0.48,1.31 0.01,0.02 0.01,0.01 -0.02,0.02 -0.11,0.04 -0.23,0.07 -0.36,0.08 -0.03,0 -0.18,0 -0.21,0l0 0zm-0.63 -0.17c-0.72,-0.36 -1.05,-1.23 -0.74,-1.98 0.02,-0.05 0.02,-0.05 0.02,-0.04 0.01,0.01 0.75,2.03 0.75,2.03 0,0.01 -0.01,0 -0.03,-0.01zm1.5 -0.05c0,0 0.47,-1.37 0.49,-1.41 0.08,-0.23 0.11,-0.44 0.09,-0.64 0,-0.05 0,-0.05 0.03,0.01 0.35,0.7 0.13,1.56 -0.53,2 -0.07,0.04 -0.09,0.05 -0.08,0.04l0 0zm-1.18 -0.38c0,0 -0.13,-0.38 -0.29,-0.85 -0.15,-0.46 -0.28,-0.84 -0.28,-0.84 0,-0.01 0,-0.01 0.02,-0.01 0.11,-0.01 0.16,-0.01 0.17,-0.01 0.06,-0.02 0.06,-0.11 0,-0.13 -0.01,0 -0.02,0 -0.06,0.01 -0.15,0.01 -0.24,0.01 -0.36,0.01 -0.14,0 -0.13,0.01 -0.09,-0.05 0.55,-0.76 1.61,-0.88 2.32,-0.26 0.01,0.01 0.02,0.02 0,0.02 -0.13,-0.01 -0.25,0.1 -0.27,0.25 0,0.09 0.03,0.18 0.13,0.34 0.19,0.31 0.2,0.46 0.06,0.9 -0.01,0.05 -0.06,0.2 -0.1,0.34 -0.09,0.3 -0.08,0.26 -0.08,0.26 0,0 -0.01,-0.02 -0.03,-0.07 -0.09,-0.28 -0.54,-1.6 -0.54,-1.6 0,-0.01 0,-0.01 0.05,-0.01 0.15,-0.01 0.17,-0.01 0.18,-0.05 0.03,-0.05 -0.01,-0.09 -0.09,-0.08 -0.04,0 -0.13,0 -0.2,0.01 -0.08,0 -0.27,0 -0.34,0 -0.08,-0.01 -0.17,-0.01 -0.23,-0.01 -0.07,-0.01 -0.11,0.02 -0.09,0.08 0.01,0.03 0.04,0.04 0.2,0.05 0.01,0 0.02,0 0.02,0.01 0,0 0.24,0.66 0.24,0.66 0,0.01 -0.34,1.03 -0.34,1.03 0,0 0,0 0,0l0 0z"/>
 <path fill="#C0BEBE" d="M1.85 3.77c-1.2,-0.05 -2.02,-1.29 -1.62,-2.42 0.45,-1.29 2.11,-1.64 3.04,-0.66 1.13,1.2 0.23,3.15 -1.42,3.08l0 0zm0.2 -0.09c1.38,-0.08 2.12,-1.68 1.28,-2.78 -0.82,-1.08 -2.5,-0.85 -3,0.42 -0.46,1.17 0.46,2.44 1.72,2.36l0 0zm-0.19 -0.17c-0.1,-0.01 -0.19,-0.02 -0.29,-0.04 -0.05,-0.02 -0.06,-0.02 -0.06,-0.02 0,-0.01 0.46,-1.36 0.47,-1.36 0,0 -0.01,-0.04 0.24,0.66 0.13,0.36 0.24,0.66 0.24,0.66 0.01,0.02 0.01,0.01 -0.03,0.03 -0.12,0.04 -0.23,0.06 -0.37,0.07 -0.03,0 -0.16,0 -0.2,0zm-0.63 -0.17c-0.73,-0.38 -1.04,-1.25 -0.72,-2 0.01,-0.03 0.01,-0.03 0.01,-0.02 0.01,0 0.17,0.46 0.38,1.02 0.2,0.55 0.37,1.01 0.37,1.01 0,0.01 -0.01,0.01 -0.04,-0.01zm1.51 -0.04c0,-0.01 0.47,-1.37 0.49,-1.42 0.08,-0.22 0.12,-0.44 0.09,-0.65 0,-0.04 0,-0.04 0.02,0.01 0.37,0.72 0.12,1.61 -0.57,2.04 -0.03,0.02 -0.03,0.02 -0.03,0.02zm-1.18 -0.4c0,0 -0.57,-1.68 -0.57,-1.68 0,-0.01 0,-0.01 0.05,-0.01 0.16,-0.01 0.19,-0.02 0.19,-0.07 0,-0.06 -0.03,-0.07 -0.13,-0.06 -0.19,0.01 -0.36,0.02 -0.43,0.01 -0.03,0 -0.03,0 -0.01,-0.03 0.53,-0.77 1.62,-0.91 2.32,-0.29 0.03,0.03 0.03,0.02 0,0.03 -0.18,0 -0.3,0.18 -0.24,0.37 0.02,0.06 0.04,0.12 0.12,0.25 0.12,0.19 0.16,0.36 0.14,0.54 -0.01,0.08 -0.03,0.15 -0.09,0.35 -0.02,0.04 -0.06,0.19 -0.1,0.33 -0.08,0.25 -0.08,0.26 -0.08,0.25 -0.01,-0.01 -0.57,-1.67 -0.56,-1.67 0,-0.01 0.02,-0.01 0.04,-0.01 0.06,0 0.13,-0.01 0.14,-0.01 0.07,-0.02 0.06,-0.12 0,-0.13 -0.01,0 -0.04,0 -0.06,0.01 -0.21,0.01 -0.39,0.02 -0.52,0.01 -0.1,-0.01 -0.16,-0.01 -0.23,-0.01 -0.08,-0.01 -0.1,0.01 -0.1,0.06 0,0.05 0.02,0.06 0.2,0.07 0.01,0 0.02,0 0.02,0.01 0,0 0.24,0.65 0.24,0.66 0,0 -0.34,1.03 -0.34,1.03 0,0 0,0 0,-0.01l0 0z"/>
 <path fill="#B8B7B6" d="M1.85 3.77c-1.25,-0.05 -2.07,-1.38 -1.58,-2.53 0.52,-1.22 2.14,-1.5 3.03,-0.52 1.09,1.21 0.18,3.12 -1.45,3.05l0 0zm0.2 -0.09c1.23,-0.07 2,-1.38 1.46,-2.49 -0.57,-1.18 -2.19,-1.32 -2.96,-0.27 -0.83,1.13 -0.05,2.72 1.35,2.77 0.03,0 0.12,0 0.15,-0.01l0 0zm-0.18 -0.17c-0.1,0 -0.21,-0.02 -0.32,-0.05 -0.04,-0.01 -0.04,-0.01 -0.04,-0.01 0,0 0.04,-0.12 0.3,-0.89 0.08,-0.24 0.15,-0.44 0.16,-0.45 0,-0.02 0.01,-0.02 0.01,-0.01 0.02,0.04 0.48,1.3 0.48,1.31 0.01,0.02 0.01,0.01 -0.02,0.03 -0.19,0.05 -0.38,0.08 -0.57,0.07l0 0zm-0.63 -0.17c-0.72,-0.37 -1.04,-1.2 -0.75,-1.95 0.02,-0.05 0.03,-0.08 0.03,-0.08 0,0.01 0.74,2.04 0.75,2.04 0,0.01 -0.01,0.01 -0.03,-0.01l0 0zm1.5 -0.05c0,-0.01 0.47,-1.37 0.48,-1.39 0.09,-0.25 0.13,-0.49 0.1,-0.69 0,-0.02 0.01,0 0.04,0.07 0.34,0.7 0.1,1.54 -0.54,1.97 -0.06,0.04 -0.09,0.05 -0.08,0.04l0 0zm-1.18 -0.39c0,0 -0.57,-1.68 -0.57,-1.68 0,-0.01 0.01,-0.01 0.06,-0.01 0.1,-0.01 0.14,-0.01 0.15,-0.02 0.04,-0.03 0.03,-0.09 -0.01,-0.11 -0.01,-0.01 -0.03,-0.01 -0.11,0 -0.19,0.01 -0.44,0.02 -0.44,0.01 0,-0.01 0.11,-0.15 0.17,-0.21 0.58,-0.62 1.54,-0.66 2.17,-0.1 0.03,0.02 0.03,0.01 0,0.02 -0.17,0 -0.29,0.16 -0.25,0.34 0.01,0.07 0.05,0.14 0.13,0.28 0.12,0.19 0.17,0.37 0.14,0.56 -0.02,0.07 -0.04,0.15 -0.09,0.32 -0.02,0.06 -0.13,0.44 -0.18,0.59 0,0.01 0,0 -0.01,-0.02 0,-0.01 -0.13,-0.38 -0.28,-0.83 -0.25,-0.75 -0.28,-0.82 -0.27,-0.82 0,-0.01 0,-0.01 0.01,-0.01 0.02,0 0.14,-0.01 0.17,-0.01 0.06,-0.01 0.07,-0.11 0.01,-0.12 -0.01,-0.01 -0.01,-0.01 -0.12,0 -0.27,0.02 -0.39,0.02 -0.68,0 -0.03,-0.01 -0.06,-0.01 -0.07,-0.01 -0.07,0.01 -0.07,0.12 0,0.13 0.02,0 0.1,0.01 0.13,0.01 0.02,0 0.04,0 0.04,0.01 0,0 0.23,0.63 0.24,0.66 0,0.01 -0.34,1.03 -0.34,1.02l0 0z"/>
 <path fill="#A8A6A6" d="M1.86 3.77c-1.4,-0.07 -2.21,-1.65 -1.43,-2.83 0.78,-1.17 2.54,-1.06 3.16,0.21 0.6,1.24 -0.35,2.69 -1.73,2.62l0 0zm0.2 -0.09c1.38,-0.09 2.1,-1.66 1.29,-2.77 -0.73,-0.97 -2.21,-0.92 -2.87,0.11 -0.72,1.13 0.06,2.61 1.41,2.67 0.02,0 0.14,0 0.17,-0.01zm-0.18 -0.17c-0.08,0 -0.16,-0.01 -0.24,-0.03 -0.06,-0.01 -0.13,-0.03 -0.13,-0.03 0,0 0.46,-1.36 0.47,-1.36 0,0 -0.01,-0.03 0.24,0.65 0.13,0.36 0.24,0.66 0.24,0.67 0.01,0.02 0.01,0.01 -0.02,0.02 -0.18,0.06 -0.37,0.09 -0.56,0.08l0 0zm-0.65 -0.17c-0.68,-0.36 -1.01,-1.15 -0.77,-1.88 0.02,-0.05 0.06,-0.14 0.06,-0.14 0,-0.01 0.75,2.03 0.75,2.03 0,0 -0.01,0 -0.04,-0.01l0 0zm1.51 -0.05c0,0 0.47,-1.37 0.49,-1.41 0.09,-0.24 0.12,-0.45 0.09,-0.67 0,-0.01 0.04,0.05 0.06,0.11 0.31,0.72 0.05,1.56 -0.61,1.96 -0.03,0.02 -0.03,0.02 -0.03,0.01l0 0zm-1.47 -1.23c-0.15,-0.46 -0.28,-0.84 -0.28,-0.84 0,0 0.02,-0.01 0.04,-0.01 0.09,0 0.14,-0.01 0.16,-0.01 0.05,-0.02 0.05,-0.1 0,-0.12 -0.01,-0.01 -0.03,-0.01 -0.13,0 -0.2,0.01 -0.42,0.02 -0.41,0.01 0,-0.01 0.05,-0.08 0.08,-0.13 0.56,-0.69 1.59,-0.77 2.25,-0.19 0.03,0.03 0.03,0.02 -0.01,0.03 -0.15,0 -0.27,0.15 -0.24,0.32 0.01,0.08 0.04,0.14 0.12,0.28 0.11,0.18 0.15,0.31 0.15,0.47 0,0.1 -0.01,0.19 -0.09,0.42 -0.01,0.04 -0.06,0.19 -0.1,0.34 -0.08,0.27 -0.08,0.26 -0.08,0.26 0,0 -0.56,-1.67 -0.56,-1.67 0,-0.01 0,0 0.06,-0.01 0.09,-0.01 0.12,-0.01 0.14,-0.02 0.05,-0.02 0.04,-0.1 -0.01,-0.11 -0.01,-0.01 -0.03,-0.01 -0.11,0 -0.05,0 -0.12,0.01 -0.2,0.01 -0.06,0 -0.2,0 -0.26,0 -0.07,0 -0.17,-0.01 -0.23,-0.01 -0.02,-0.01 -0.05,-0.01 -0.06,-0.01 -0.08,0 -0.09,0.12 -0.01,0.13 0.01,0 0.09,0.01 0.13,0.01 0.02,0 0.04,0.01 0.04,0.01 0,0 0.05,0.15 0.12,0.33 0.12,0.33 0.12,0.33 -0.05,0.84 -0.09,0.29 -0.17,0.51 -0.17,0.51 0,0 -0.12,-0.36 -0.29,-0.84l0 0z"/>
 <path fill="#908E8E" d="M1.86 3.77c-1.43,-0.08 -2.22,-1.69 -1.4,-2.86 0.84,-1.21 2.69,-0.97 3.2,0.42 0.45,1.21 -0.51,2.51 -1.8,2.44l0 0zm0.18 -0.08c1.32,-0.07 2.09,-1.55 1.38,-2.67 -0.68,-1.08 -2.27,-1.08 -2.95,0.01 -0.7,1.12 0.07,2.59 1.4,2.66 0.03,0 0.14,0 0.17,0l0 0zm-0.17 -0.18c-0.1,-0.01 -0.2,-0.02 -0.3,-0.05 -0.05,-0.01 -0.06,-0.01 -0.06,-0.01 0,-0.01 0.46,-1.36 0.47,-1.36 0,0 0.11,0.3 0.24,0.66 0.13,0.36 0.24,0.66 0.24,0.66 0.01,0.01 0.01,0.01 -0.03,0.02 -0.11,0.04 -0.22,0.07 -0.35,0.08 -0.03,0 -0.18,0 -0.21,0l0 0zm-0.64 -0.17c-0.55,-0.29 -0.89,-0.9 -0.84,-1.5 0.01,-0.19 0.05,-0.34 0.12,-0.5 0.01,-0.02 0.01,-0.03 0.01,-0.02 0.01,0.02 0.74,2.03 0.74,2.03 0,0 0,0 -0.03,-0.01l0 0zm1.51 -0.05c0,-0.01 0.48,-1.38 0.49,-1.41 0.08,-0.23 0.12,-0.44 0.1,-0.64 -0.01,-0.04 -0.01,-0.04 0.02,0.01 0.35,0.7 0.12,1.56 -0.54,2 -0.05,0.04 -0.07,0.05 -0.07,0.04l0 0zm-1.18 -0.39c-0.01,-0.02 -0.57,-1.68 -0.57,-1.68 0,0 0.01,0 0.02,-0.01 0.19,-0.01 0.22,-0.02 0.22,-0.08 -0.01,-0.05 -0.03,-0.06 -0.11,-0.06 -0.15,0.02 -0.24,0.02 -0.36,0.02 -0.1,0 -0.11,0 -0.11,0 0,-0.01 0.04,-0.07 0.07,-0.11 0.54,-0.68 1.53,-0.79 2.21,-0.25 0.06,0.05 0.08,0.07 0.06,0.06 -0.11,-0.01 -0.24,0.1 -0.26,0.24 -0.02,0.1 0.01,0.18 0.12,0.36 0.19,0.31 0.2,0.46 0.07,0.88 -0.01,0.04 -0.03,0.09 -0.03,0.1 -0.01,0.02 -0.05,0.14 -0.09,0.28 -0.04,0.13 -0.07,0.24 -0.07,0.24 0,0 -0.56,-1.67 -0.56,-1.67 0,0 0.02,-0.01 0.04,-0.01 0.15,-0.01 0.17,-0.01 0.18,-0.04 0.03,-0.06 -0.01,-0.1 -0.09,-0.1 -0.04,0.01 -0.13,0.01 -0.2,0.02 -0.08,0 -0.27,0 -0.34,0 -0.08,-0.01 -0.17,-0.01 -0.23,-0.02 -0.03,0 -0.04,0 -0.05,0 -0.05,0.02 -0.06,0.1 -0.01,0.13 0.02,0 0.1,0.01 0.17,0.01 0.01,0 0.02,0.01 0.02,0.01 0,0 0.24,0.66 0.24,0.66 0,0.02 -0.34,1.03 -0.34,1.02l0 0z"/>
 <path fill="#81807F" d="M1.87 3.77c-1.06,-0.06 -1.84,-0.96 -1.73,-2.01 0.11,-1.05 1.1,-1.8 2.14,-1.6 1.12,0.21 1.78,1.38 1.37,2.44 -0.28,0.73 -1.02,1.21 -1.78,1.17l0 0zm0.15 -0.08c1.38,-0.04 2.16,-1.66 1.33,-2.78 -0.92,-1.22 -2.87,-0.75 -3.12,0.76 -0.17,1.05 0.68,2.05 1.73,2.02 0.01,0 0.04,0 0.06,0l0 0zm-0.15 -0.18c-0.1,-0.01 -0.2,-0.02 -0.3,-0.05 -0.05,-0.01 -0.06,-0.01 -0.06,-0.01 0,-0.01 0.46,-1.36 0.47,-1.36 0,0 0.11,0.3 0.24,0.66 0.13,0.36 0.24,0.66 0.24,0.66 0,0.01 0.01,0.01 0.01,0.01 0,0.01 -0.08,0.03 -0.14,0.04 -0.14,0.04 -0.31,0.06 -0.46,0.05l0 0zm-0.64 -0.18c-0.73,-0.38 -1.04,-1.23 -0.72,-1.98 0,-0.02 0.01,-0.03 0.01,-0.03 0,0 0.17,0.45 0.37,1.01 0.21,0.56 0.37,1.02 0.37,1.02 0,0 0,0 -0.03,-0.02l0 0zm1.51 -0.04c0,-0.02 0.48,-1.38 0.49,-1.41 0.07,-0.19 0.1,-0.35 0.1,-0.52 0,-0.05 0,-0.12 -0.01,-0.15 0,-0.01 0.02,0.02 0.04,0.07 0.34,0.73 0.08,1.59 -0.6,2 -0.02,0.02 -0.02,0.02 -0.02,0.01zm-1.18 -0.39c-0.01,-0.03 -0.57,-1.68 -0.57,-1.68 0,0 0.01,0 0.02,0 0.02,0 0.16,-0.02 0.17,-0.02 0.05,-0.01 0.06,-0.07 0.03,-0.11 -0.02,-0.02 -0.03,-0.02 -0.11,-0.01 -0.07,0 -0.12,0 -0.21,0.01 -0.05,0 -0.24,0 -0.24,0 -0.01,0 0.02,-0.04 0.05,-0.08 0.5,-0.67 1.44,-0.82 2.13,-0.35 0.05,0.03 0.17,0.12 0.17,0.13 0,0 -0.01,0 -0.02,0 -0.17,0.01 -0.29,0.17 -0.25,0.35 0.01,0.07 0.04,0.13 0.13,0.27 0.1,0.16 0.14,0.3 0.14,0.45 0,0.11 -0.02,0.2 -0.09,0.43 -0.01,0.04 -0.06,0.2 -0.1,0.34 -0.04,0.14 -0.08,0.26 -0.08,0.26 0,0 -0.56,-1.67 -0.56,-1.67 0,0 0,0 0.01,0 0.03,-0.01 0.17,-0.02 0.18,-0.02 0.06,-0.02 0.05,-0.11 -0.01,-0.13 0,0 -0.02,0 -0.06,0 -0.22,0.02 -0.39,0.02 -0.51,0.02 -0.07,-0.01 -0.14,-0.01 -0.18,-0.01 -0.11,-0.01 -0.11,-0.01 -0.12,-0.01 -0.05,0.02 -0.06,0.1 -0.01,0.13 0.01,0 0.1,0.01 0.16,0.01 0.02,0.01 0.03,0.01 0.03,0.01 0,0 0.24,0.66 0.24,0.66 0,0.01 -0.34,1.03 -0.34,1.02l0 0z"/>
 <path fill="#807E7D" d="M1.86 3.77c-0.9,-0.05 -1.61,-0.72 -1.72,-1.6 0,-0.03 0,-0.05 -0.01,-0.12 0,-0.03 0,-0.17 0,-0.2 0,-0.02 0,-0.04 0,-0.06 0.09,-1.01 0.99,-1.75 2,-1.65 0.87,0.08 1.56,0.78 1.63,1.65 0,0.01 0.01,0.04 0.01,0.05 0,0.04 0,0.18 0,0.21 0,0.02 -0.01,0.04 -0.01,0.06 -0.08,0.96 -0.94,1.71 -1.9,1.66l0 0zm0.15 -0.08c1.34,-0.05 2.13,-1.54 1.41,-2.67 -0.73,-1.15 -2.43,-1.06 -3.03,0.16 -0.58,1.18 0.31,2.56 1.62,2.51zm-0.13 -0.18c-0.08,0 -0.16,-0.01 -0.24,-0.03 -0.05,-0.01 -0.13,-0.03 -0.13,-0.03 0,0 0.46,-1.35 0.47,-1.36 0,0 -0.02,-0.03 0.24,0.66 0.13,0.36 0.24,0.66 0.24,0.66 0,0.01 0.01,0.01 0.01,0.01 0,0.01 -0.1,0.03 -0.15,0.05 -0.14,0.03 -0.31,0.05 -0.44,0.04zm-0.65 -0.17c-0.66,-0.35 -0.99,-1.11 -0.78,-1.82 0.02,-0.08 0.06,-0.2 0.07,-0.2 0,0 0.72,1.97 0.74,2.02 0,0.01 0.01,0.01 -0.03,0l0 0zm1.51 -0.05c0,0 0.47,-1.37 0.49,-1.41 0.08,-0.22 0.12,-0.44 0.1,-0.63 -0.01,-0.05 -0.01,-0.05 0.02,0 0.36,0.72 0.11,1.6 -0.57,2.02 -0.04,0.03 -0.04,0.03 -0.04,0.02l0 0zm-1.19 -0.42c-0.08,-0.22 -0.56,-1.65 -0.56,-1.65 0,0 0.01,0 0.01,0 0.08,-0.01 0.17,-0.02 0.18,-0.02 0.06,-0.02 0.06,-0.1 0.01,-0.12 -0.01,-0.01 -0.03,-0.01 -0.11,0 -0.2,0.01 -0.44,0.02 -0.43,0.01 0,-0.01 0.06,-0.09 0.09,-0.13 0.55,-0.67 1.54,-0.77 2.21,-0.21 0.05,0.04 0.05,0.04 0.03,0.04 -0.14,0 -0.26,0.13 -0.26,0.28 0,0.1 0.03,0.16 0.12,0.32 0.12,0.18 0.16,0.3 0.16,0.46 0,0.12 -0.01,0.2 -0.1,0.47 0,0.02 -0.05,0.16 -0.09,0.3 -0.04,0.15 -0.08,0.27 -0.08,0.27 0,0 -0.4,-1.19 -0.54,-1.59 -0.03,-0.09 -0.03,-0.08 -0.01,-0.08 0.03,0 0.16,-0.02 0.18,-0.02 0.06,-0.02 0.05,-0.12 -0.02,-0.13 0,0 -0.03,0 -0.06,0 -0.09,0.01 -0.11,0.01 -0.22,0.02 -0.06,0 -0.22,0 -0.28,0 -0.08,-0.01 -0.14,-0.01 -0.21,-0.01 -0.07,-0.01 -0.08,-0.01 -0.1,0 -0.05,0.02 -0.05,0.1 0,0.12 0.01,0 0.06,0.01 0.14,0.01 0.05,0.01 0.05,0.01 0.05,0.01 0.26,0.71 0.26,0.62 0.07,1.17 -0.09,0.28 -0.17,0.51 -0.17,0.51 0,0 -0.01,-0.01 -0.01,-0.03l0 0z"/>
 <path fill="#787675" d="M1.9 3.77c0,0 -0.02,0 -0.04,0 -1.07,-0.06 -1.87,-1.03 -1.71,-2.09 0.15,-1.05 1.17,-1.74 2.21,-1.51 0.77,0.18 1.34,0.85 1.4,1.63 0.01,0.01 0.01,0.03 0.01,0.05 0,0.02 0,0.17 0,0.2 0,0.01 0,0.03 -0.01,0.05 -0.06,0.87 -0.77,1.58 -1.64,1.66 -0.07,0.01 -0.21,0.01 -0.22,0.01zm0.12 -0.08c1.36,-0.06 2.14,-1.6 1.36,-2.72 -0.75,-1.09 -2.39,-0.98 -2.99,0.2 -0.59,1.17 0.31,2.57 1.63,2.52l0 0zm-0.14 -0.18c-0.1,-0.01 -0.2,-0.02 -0.3,-0.04 -0.03,-0.01 -0.07,-0.02 -0.07,-0.02 0,0 0.46,-1.36 0.47,-1.36 0,0 0.11,0.3 0.24,0.66 0.13,0.36 0.24,0.66 0.24,0.66 0,0.01 0.01,0.01 0,0.01 0,0.01 -0.07,0.03 -0.11,0.04 -0.15,0.04 -0.32,0.06 -0.47,0.05l0 0zm-0.65 -0.17c-0.71,-0.37 -1.03,-1.21 -0.74,-1.95 0.02,-0.04 0.03,-0.07 0.03,-0.07 0,0 0.65,1.77 0.74,2.01 0,0.02 0.01,0.02 -0.03,0.01l0 0zm1.51 -0.05c0,-0.01 0.47,-1.36 0.48,-1.4 0.09,-0.23 0.13,-0.45 0.11,-0.65 -0.01,-0.04 -0.01,-0.04 0.01,0 0.37,0.73 0.12,1.61 -0.58,2.04 -0.02,0.02 -0.02,0.02 -0.02,0.01l0 0zm-1.2 -0.46c-0.04,-0.1 -0.55,-1.61 -0.55,-1.61 0,0 0.02,0 0.06,-0.01 0.07,0 0.13,-0.01 0.14,-0.01 0.05,-0.02 0.05,-0.1 0,-0.13 -0.01,0 -0.02,0 -0.11,0.01 -0.06,0 -0.12,0 -0.2,0.01 -0.05,0 -0.23,0 -0.23,0 -0.01,0 0.03,-0.06 0.08,-0.12 0.56,-0.69 1.57,-0.78 2.24,-0.2 0.03,0.03 0.03,0.02 0.01,0.02 -0.16,0 -0.29,0.17 -0.25,0.34 0.01,0.08 0.04,0.13 0.12,0.26 0.11,0.19 0.15,0.3 0.15,0.46 0,0.11 -0.01,0.19 -0.09,0.44 -0.01,0.04 -0.06,0.19 -0.1,0.33 -0.04,0.15 -0.08,0.27 -0.08,0.27 0,0 -0.56,-1.66 -0.56,-1.67 0,0 -0.01,0 0.05,-0.01 0.1,0 0.14,-0.01 0.15,-0.02 0.04,-0.02 0.04,-0.09 0,-0.11 -0.02,-0.01 -0.04,-0.01 -0.12,0 -0.05,0 -0.11,0 -0.2,0.01 -0.06,0 -0.2,0 -0.26,0 -0.07,-0.01 -0.17,-0.01 -0.21,-0.01 -0.09,-0.01 -0.1,-0.01 -0.12,0 -0.04,0.03 -0.03,0.1 0.01,0.12 0.02,0 0.08,0.01 0.15,0.01 0.02,0.01 0.04,0.01 0.04,0.01 0,0 0.05,0.15 0.12,0.33 0.12,0.33 0.12,0.33 -0.05,0.84 -0.09,0.28 -0.17,0.51 -0.17,0.51 0,0 -0.01,-0.03 -0.02,-0.07l0 0z"/>
 <path fill="#696665" d="M1.91 3.77c0,0 -0.02,0 -0.04,0 -0.92,-0.05 -1.68,-0.78 -1.74,-1.68 0,-0.02 0,-0.04 0,-0.05 0,-0.01 0,-0.04 0,-0.09 0,-0.05 0,-0.09 0,-0.1 0,0 0,-0.02 0,-0.04 0.06,-0.88 0.8,-1.62 1.68,-1.68 0.02,0 0.04,0 0.04,0 0.1,-0.01 0.34,0.01 0.5,0.04 0.77,0.17 1.36,0.85 1.41,1.63 0.01,0.02 0.01,0.04 0.01,0.05 0,0.01 0,0.04 0,0.1 0,0.05 0,0.09 0,0.1 0,0 0,0.03 -0.01,0.05 -0.06,0.83 -0.72,1.53 -1.55,1.65 -0.09,0.01 -0.3,0.03 -0.3,0.02l0 0zm0.12 -0.08c1.32,-0.07 2.09,-1.51 1.41,-2.64 -0.66,-1.09 -2.24,-1.13 -2.94,-0.06 -0.75,1.13 0.02,2.63 1.38,2.7 0.03,0 0.12,0 0.15,0l0 0zm-0.14 -0.18c-0.11,0 -0.22,-0.02 -0.33,-0.05 -0.04,-0.01 -0.05,-0.01 -0.05,-0.02 0,0 0.47,-1.35 0.47,-1.35 0,0 0.11,0.3 0.24,0.66 0.13,0.36 0.24,0.66 0.24,0.66 0.01,0.01 0.01,0.01 -0.04,0.03 -0.11,0.03 -0.22,0.05 -0.34,0.07 -0.03,0 -0.13,0 -0.14,0 0,0 -0.02,0 -0.05,0l0 0zm-0.65 -0.17c-0.56,-0.29 -0.9,-0.9 -0.85,-1.51 0.02,-0.18 0.06,-0.34 0.13,-0.51 0,0 0.74,2.02 0.74,2.03 0,0 -0.01,0 -0.02,-0.01zm1.5 -0.05c0,0 0.47,-1.35 0.48,-1.38 0.04,-0.11 0.06,-0.16 0.07,-0.24 0.04,-0.14 0.05,-0.29 0.04,-0.43 -0.01,-0.03 -0.01,-0.03 0.01,-0.01 0.34,0.65 0.17,1.47 -0.41,1.93 -0.06,0.05 -0.19,0.14 -0.19,0.13l0 0zm-1.19 -0.42c-0.04,-0.11 -0.56,-1.65 -0.56,-1.65 0,0 0.01,0 0.02,0 0.19,-0.02 0.2,-0.02 0.21,-0.05 0.03,-0.06 -0.01,-0.1 -0.09,-0.1 -0.2,0.02 -0.48,0.03 -0.48,0.02 0,-0.01 0.06,-0.1 0.1,-0.14 0.56,-0.67 1.56,-0.76 2.22,-0.18 0.03,0.02 0.03,0.02 0.01,0.02 -0.16,0 -0.28,0.16 -0.26,0.33 0.02,0.08 0.04,0.14 0.13,0.28 0.11,0.18 0.15,0.3 0.15,0.46 0,0.11 -0.02,0.19 -0.1,0.45 -0.01,0.03 -0.05,0.17 -0.09,0.31 -0.04,0.13 -0.07,0.25 -0.08,0.25 0,0.01 0,0.02 0,0.02 0,-0.01 -0.56,-1.67 -0.56,-1.67 0,0 0.02,0 0.04,-0.01 0.09,0 0.14,-0.01 0.15,-0.01 0.05,-0.02 0.06,-0.1 0.01,-0.12 -0.02,-0.01 -0.03,-0.01 -0.06,-0.01 -0.29,0.02 -0.51,0.02 -0.79,0 -0.06,0 -0.1,0.03 -0.08,0.08 0.01,0.05 0.02,0.05 0.2,0.07 0.02,0 0.02,0 0.02,0 0,0.01 0.06,0.16 0.12,0.34 0.12,0.32 0.12,0.32 -0.05,0.83 -0.09,0.28 -0.17,0.51 -0.17,0.51 0,0 -0.01,-0.01 -0.01,-0.03l0 0z"/>
 <path fill="#605E5D" d="M1.91 3.77c-0.01,0 -0.02,0 -0.04,0 -0.77,-0.03 -1.46,-0.57 -1.67,-1.32 -0.07,-0.24 -0.09,-0.48 -0.06,-0.73 0.11,-0.85 0.81,-1.52 1.66,-1.59 0.02,0 0.04,0 0.05,0 0.62,-0.05 1.3,0.3 1.64,0.85 0.2,0.33 0.3,0.72 0.28,1.08 -0.08,0.94 -0.8,1.66 -1.71,1.71 -0.02,0 -0.05,0 -0.05,0 -0.04,0 -0.1,0 -0.1,0l0 0zm0.13 -0.08c1.34,-0.08 2.1,-1.59 1.36,-2.7 -0.75,-1.12 -2.41,-1.01 -3.01,0.19 -0.59,1.18 0.33,2.58 1.65,2.51zm-0.18 -0.18c-0.11,-0.01 -0.26,-0.04 -0.34,-0.06 -0.01,0 0.45,-1.35 0.46,-1.35 0,0 0.11,0.29 0.24,0.65 0.13,0.36 0.24,0.66 0.24,0.66 0.01,0.01 0,0.01 -0.03,0.02 -0.19,0.06 -0.38,0.09 -0.57,0.08l0 0zm-0.63 -0.17c-0.49,-0.26 -0.79,-0.72 -0.84,-1.28 -0.02,-0.21 0.02,-0.46 0.1,-0.67 0.02,-0.04 0.03,-0.07 0.03,-0.07 0,0 0.74,2.03 0.74,2.03 0,0 -0.01,0 -0.03,-0.01l0 0zm1.51 -0.05c0,0 0.48,-1.37 0.49,-1.41 0.09,-0.22 0.13,-0.5 0.1,-0.66 -0.01,-0.01 0,0 0.02,0.04 0.36,0.73 0.09,1.62 -0.61,2.03 0,0 0,0 0,0zm-1.19 -0.4c-0.02,-0.08 -0.56,-1.67 -0.56,-1.67 0,0 0.02,0 0.04,0 0.09,-0.01 0.15,-0.02 0.16,-0.02 0.06,-0.03 0.05,-0.11 -0.01,-0.13 -0.01,0 -0.01,0 -0.08,0 -0.07,0.01 -0.12,0.01 -0.2,0.02 -0.05,0 -0.25,0 -0.25,0 0,-0.01 0.05,-0.08 0.08,-0.12 0.56,-0.69 1.56,-0.78 2.24,-0.21 0.03,0.03 0.03,0.03 0.01,0.03 -0.17,0.01 -0.29,0.17 -0.26,0.34 0.02,0.07 0.05,0.13 0.13,0.27 0.11,0.18 0.15,0.3 0.15,0.47 0,0.1 -0.02,0.18 -0.09,0.43 -0.02,0.05 -0.06,0.19 -0.1,0.33 -0.08,0.26 -0.08,0.26 -0.08,0.25 -0.01,0 -0.56,-1.66 -0.56,-1.66 0,0 0,0 0.03,0 0.11,-0.01 0.15,-0.02 0.17,-0.02 0.06,-0.03 0.04,-0.12 -0.02,-0.13 -0.01,0 -0.03,0 -0.06,0 -0.29,0.02 -0.46,0.02 -0.75,0 -0.02,0 -0.04,0 -0.05,0 -0.06,0.01 -0.08,0.1 -0.02,0.13 0.01,0 0.06,0.01 0.17,0.02 0.02,0 0.25,0.6 0.26,0.66 0,0.01 -0.33,1.01 -0.34,1.02 0,0 0,-0.01 -0.01,-0.01l0 0z"/>
 <path fill="#585655" d="M1.92 3.77c0,0 -0.02,0 -0.04,0 -0.78,-0.03 -1.47,-0.57 -1.68,-1.33 -0.04,-0.12 -0.07,-0.3 -0.07,-0.4 0,0 0,-0.01 0,-0.01 0,0 0,-0.02 0,-0.04 0,-0.05 0,-0.13 0,-0.13 0,0 0,0 0,-0.01 0,-0.16 0.06,-0.42 0.15,-0.62 0.27,-0.63 0.89,-1.07 1.56,-1.1 0.01,0 0.02,0 0.02,0 0,0 0.09,0 0.13,0 0.02,0 0.04,0 0.04,0 0,0 0.01,0 0.01,0 0.14,0 0.37,0.05 0.55,0.11 0.67,0.25 1.14,0.89 1.18,1.59 0,0.02 0,0.03 0,0.03 0,0 0,0.18 0,0.18 0,0 0,0.01 0,0.02 -0.04,0.66 -0.46,1.27 -1.08,1.55 -0.21,0.1 -0.48,0.16 -0.69,0.16 -0.01,0 -0.02,0 -0.02,0 0,0 -0.01,0 -0.03,0 -0.02,0 -0.03,0 -0.03,0l0 0zm0.09 -0.08c0.97,-0.02 1.76,-0.9 1.68,-1.88 -0.12,-1.32 -1.6,-2.05 -2.7,-1.31 -1.01,0.67 -1.05,2.14 -0.07,2.86 0.3,0.21 0.71,0.35 1.04,0.33 0,0 0.03,0 0.05,0l0 0zm-0.13 -0.18c-0.11,-0.01 -0.18,-0.02 -0.27,-0.04 -0.04,-0.01 -0.1,-0.02 -0.1,-0.02 0,0 0.1,-0.3 0.23,-0.67 0.12,-0.36 0.23,-0.67 0.23,-0.67 0.01,-0.02 0.01,-0.02 0.01,-0.01 0,0 0.11,0.3 0.24,0.65 0.13,0.36 0.24,0.65 0.24,0.66 0,0.01 0.01,0.01 -0.03,0.02 -0.17,0.06 -0.38,0.09 -0.55,0.08l0 0zm-0.65 -0.18c-0.64,-0.33 -0.97,-1.06 -0.79,-1.76 0.02,-0.1 0.08,-0.26 0.08,-0.25 0.01,0.03 0.74,2.03 0.74,2.03 0,0 -0.01,-0.01 -0.03,-0.02zm1.51 -0.04c0.01,-0.02 0.48,-1.37 0.48,-1.39 0.09,-0.23 0.13,-0.45 0.11,-0.65 0,-0.02 0,-0.03 0,-0.03 0,-0.01 0.04,0.08 0.06,0.12 0.29,0.69 0.05,1.5 -0.58,1.91 -0.06,0.04 -0.07,0.05 -0.07,0.04zm-1.2 -0.46c-0.02,-0.04 -0.14,-0.42 -0.29,-0.84 -0.3,-0.9 -0.26,-0.77 -0.22,-0.77 0.1,-0.01 0.15,-0.02 0.17,-0.02 0.04,-0.03 0.04,-0.1 -0.01,-0.13 -0.01,0 -0.03,0 -0.12,0.01 -0.16,0.01 -0.36,0.01 -0.41,0.01 -0.01,0 -0.01,-0.01 0.04,-0.08 0.55,-0.72 1.59,-0.83 2.28,-0.24 0.02,0.02 0.02,0.02 0,0.02 -0.18,0.01 -0.29,0.17 -0.25,0.35 0.01,0.07 0.04,0.13 0.12,0.26 0.18,0.3 0.2,0.45 0.06,0.89 -0.01,0.04 -0.06,0.19 -0.1,0.33 -0.08,0.28 -0.08,0.27 -0.08,0.26 -0.01,-0.01 -0.56,-1.66 -0.56,-1.66 0,0 0.01,0 0.04,-0.01 0.1,0 0.14,-0.01 0.16,-0.01 0.05,-0.03 0.05,-0.1 0,-0.12 -0.02,-0.01 -0.03,-0.01 -0.09,-0.01 -0.21,0.02 -0.38,0.02 -0.51,0.02 -0.09,-0.01 -0.14,-0.01 -0.24,-0.02 -0.11,-0.01 -0.14,0.12 -0.03,0.13 0.03,0.01 0.11,0.01 0.13,0.02 0.02,0 0.03,0 0.03,0 0,0 0.24,0.66 0.24,0.66 0,0.01 -0.34,1.02 -0.34,1.02 0,0 -0.01,-0.03 -0.02,-0.07l0 0z"/>
 <path fill="#454241" d="M1.94 3.77c0,0 0.01,0 0.02,0 0.01,0 0,0 -0.01,0 -0.01,0 -0.02,0 -0.01,0l0 0zm-0.08 0c-0.94,-0.05 -1.68,-0.8 -1.73,-1.74 0,-0.02 0,-0.02 0,-0.01 0,0.01 0,-0.01 0,-0.03 0,-0.02 0,-0.06 0,-0.08 0,-0.03 0,-0.04 0,-0.03 0,0.01 0,0 0,-0.02 0.04,-0.85 0.68,-1.56 1.52,-1.71 0.07,-0.01 0.17,-0.02 0.23,-0.02 0.01,0 0.01,0 0,0 -0.02,0 0.07,0 0.11,0 0.02,0 0.04,0 0.03,0 -0.01,0 -0.01,0 0.01,0 0.79,0.04 1.47,0.59 1.68,1.35 0.03,0.12 0.05,0.28 0.06,0.39 0,0.02 0,0.02 0,0 0,-0.02 0,0.08 0,0.12 0,0.03 0,0.04 0,0.03 0,-0.01 0,-0.01 0,0 -0.01,0.16 -0.04,0.36 -0.1,0.52 -0.27,0.76 -1.01,1.27 -1.81,1.23l0 0zm0.17 -0.08c1.18,-0.06 1.97,-1.25 1.55,-2.35 -0.37,-1 -1.55,-1.43 -2.47,-0.92 -1.07,0.6 -1.22,2.06 -0.29,2.86 0.29,0.25 0.66,0.39 1.06,0.41 0.03,0 0.12,0 0.15,0l0 0zm-0.13 -0.18c-0.12,-0.01 -0.24,-0.02 -0.36,-0.06 -0.03,0 -0.03,0 -0.03,-0.01 0.01,-0.02 0.47,-1.34 0.47,-1.34 0,0 0.11,0.3 0.24,0.65 0.13,0.36 0.24,0.66 0.24,0.66 0,0.01 0,0.01 -0.04,0.02 -0.17,0.06 -0.33,0.08 -0.52,0.08zm-0.67 -0.18c-0.55,-0.28 -0.89,-0.89 -0.84,-1.5 0.02,-0.18 0.06,-0.34 0.13,-0.5 0,-0.01 0,-0.02 0.04,0.09 0.02,0.05 0.18,0.5 0.36,1 0.39,1.06 0.34,0.93 0.34,0.93 0,0 -0.02,-0.01 -0.03,-0.02l0 0zm1.51 -0.04c0.01,-0.02 0.48,-1.37 0.49,-1.4 0.09,-0.23 0.12,-0.45 0.1,-0.65 0,-0.01 0,-0.02 0,-0.02 0,0 0.03,0.06 0.05,0.1 0.3,0.69 0.06,1.51 -0.57,1.93 -0.06,0.04 -0.07,0.04 -0.07,0.04zm-1.46 -1.23c-0.16,-0.46 -0.28,-0.84 -0.28,-0.84 0,0 0.02,0 0.04,0 0.08,-0.01 0.14,-0.02 0.15,-0.02 0.05,-0.02 0.06,-0.1 0.01,-0.12 -0.02,-0.01 -0.03,-0.01 -0.08,-0.01 -0.2,0.01 -0.47,0.02 -0.47,0.02 0,-0.01 0.06,-0.09 0.09,-0.13 0.54,-0.66 1.51,-0.76 2.18,-0.23 0.03,0.02 0.07,0.06 0.07,0.06 0,0 0,0 -0.01,0 -0.15,0 -0.27,0.15 -0.26,0.31 0.01,0.08 0.03,0.15 0.13,0.31 0.1,0.15 0.14,0.27 0.15,0.41 0.01,0.12 -0.01,0.21 -0.1,0.49 -0.01,0.04 -0.05,0.18 -0.09,0.32 -0.05,0.14 -0.08,0.25 -0.08,0.25 0,0 -0.01,-0.02 -0.02,-0.04 -0.04,-0.13 -0.54,-1.62 -0.54,-1.62 0,0 0.02,0 0.04,0 0.09,-0.01 0.14,-0.02 0.15,-0.02 0.06,-0.02 0.06,-0.12 -0.01,-0.13 -0.01,0 -0.02,0 -0.06,0 -0.29,0.02 -0.43,0.02 -0.71,0 -0.03,0 -0.07,0 -0.08,0 -0.08,0 -0.09,0.12 -0.01,0.13 0.01,0.01 0.09,0.01 0.13,0.02 0.02,0 0.04,0 0.04,0 0,0 0.05,0.15 0.12,0.33 0.12,0.33 0.12,0.33 -0.05,0.84 -0.09,0.28 -0.17,0.51 -0.17,0.51 0,0 -0.13,-0.38 -0.28,-0.84l0 0z"/>
 </g>
 </svg>
