<svg width="38" height="32" viewBox="0 0 38 32" fill="none" xmlns="http://www.w3.org/2000/svg">
<path d="M30.5054 0H7.13683C5.74868 0 4.59182 1.07973 3.97475 2.69934L0.427047 12.4941C-0.266996 14.1137 -0.168914 15.6199 1.12116 16.813C1.12116 16.813 13.6923 27.6104 16.0832 29.7698C18.4741 31.9293 19.9186 32.0017 22.4074 29.7698L36.7524 17.0444C38.2178 15.7333 38.2777 14.2067 37.5236 12.4169L34.0531 2.69934C33.359 0.848363 32.2793 0 30.5054 0Z" fill="#4088FE"/>
<path d="M8.75647 18.9725H29.2714L20.8649 26.4535C19.4385 27.6443 18.665 27.5767 17.3172 26.4535L8.75647 18.9725Z" fill="white"/>
<path d="M8.75647 18.9725L23.1015 10.1804H33.4361C33.976 11.6457 33.0886 12.3441 31.9708 13.1111L22.7159 18.9725H8.75647Z" fill="#BAD6FD"/>
<path d="M6.28852 5.32154L4.5918 10.1803H33.4361L31.6623 5.24442C31.028 3.6112 30.5065 3.21826 29.3486 3.23919H9.21923C7.38784 3.23575 6.82699 3.78774 6.28852 5.32154Z" fill="white"/>
</svg>
