<svg xmlns="http://www.w3.org/2000/svg" width="32" height="32" viewBox="0 0 3.86 3.86">
 <g fill-rule="nonzero"><path fill="#F4EAEA" d="M0.12 1.93c0,-1.84 0,-1.84 1.84,-1.84 1.84,0 1.84,0 1.84,1.84 0,1.84 0,1.84 -1.84,1.84 -1.84,0 -1.84,0 -1.84,-1.84zm3.39 0c0,-1.55 0,-1.55 -1.55,-1.55 -1.56,0 -1.56,0 -1.56,1.55 0,1.55 0,1.55 1.56,1.55 1.55,0 1.55,0 1.55,-1.55zm-2.7 1.27c-0.05,-0.05 -0.05,-0.05 -0.05,-0.38 0,-0.32 0,-0.32 0.42,-0.75 0.42,-0.42 0.42,-0.42 0.38,-0.46 -0.05,-0.05 -0.05,-0.05 -0.01,-0.09 0.04,-0.04 0.04,-0.04 0.04,-0.27 0,-0.23 0,-0.23 0.19,-0.42 0.19,-0.19 0.19,-0.19 0.67,-0.19 0.49,0 0.49,0 0.63,0.14 0.14,0.14 0.14,0.14 0.14,0.66 0,0.28 0,0.51 0,0.52 0,0.01 -0.04,0.05 -0.16,0.18 -0.15,0.18 -0.15,0.18 -0.37,0.18 -0.21,0 -0.21,0 -0.26,0.05 -0.05,0.05 -0.04,0.05 -0.1,0 -0.04,-0.04 -0.04,-0.04 -0.08,0 -0.05,0.04 -0.05,0.04 -0.16,0.04 -0.12,0 -0.12,0 -0.12,0.09 0,0.11 0.02,0.1 -0.09,0.1 -0.09,0 -0.09,0 -0.09,0.09 0,0.09 0,0.09 -0.09,0.09 -0.09,0 -0.09,0 -0.09,0.09 0,0.11 0.01,0.1 -0.1,0.1 -0.09,0 -0.09,0 -0.09,0.09 0,0.09 0,0.09 -0.05,0.09 -0.04,0 -0.04,0 -0.04,0.04 0,0.06 0.03,0.06 -0.24,0.06 -0.23,0 -0.23,0 -0.28,-0.05zm0.68 -0.55c0.2,-0.21 0.38,-0.4 0.4,-0.42 0.03,-0.03 0.03,-0.03 0.17,-0.03 0.14,0 0.14,0 0.18,-0.03 0.05,-0.03 0.05,-0.03 0.28,-0.03 0.23,0 0.23,0 0.41,-0.18 0.2,-0.2 0.19,-0.18 0.11,-0.27 -0.01,-0.01 -0.03,0.01 -0.17,0.15 -0.16,0.16 -0.16,0.16 -0.37,0.16 -0.2,0 -0.2,0 -0.25,0.03 -0.05,0.03 -0.05,0.03 -0.2,0.03 -0.16,0 -0.37,0.19 -0.99,0.88 -0.01,0.01 0.04,0.09 0.07,0.09 0,0 0.16,-0.17 0.36,-0.38l0 0zm1.39 -1.47c0,-0.15 0,-0.15 -0.13,-0.15 -0.13,0 -0.13,0 -0.13,0.15 0,0.15 0,0.15 0.13,0.15 0.13,0 0.13,0 0.13,-0.15z"/>
 <path fill="#ECDADA" d="M0.12 1.93c0,-1.84 0,-1.84 1.84,-1.84 1.84,0 1.84,0 1.84,1.84 0,1.84 0,1.84 -1.84,1.84 -1.84,0 -1.84,0 -1.84,-1.84zm3.39 0c0,-1.56 0,-1.56 -1.55,-1.56 -1.56,0 -1.56,0 -1.56,1.56 0,0.85 0,1.55 0,1.55 0,0.01 0.32,0.01 1.56,0.01 1.55,0 1.55,0 1.55,-1.56zm-2.7 1.27c-0.05,-0.05 -0.05,-0.05 -0.05,-0.38 0,-0.32 0,-0.32 0.42,-0.74 0.42,-0.42 0.42,-0.42 0.38,-0.47 -0.05,-0.05 -0.05,-0.04 -0.01,-0.09 0.04,-0.04 0.04,-0.04 0.04,-0.26 0,-0.19 0,-0.23 0.01,-0.24 0,-0.02 0.36,-0.37 0.37,-0.37 0.01,0 0.23,-0.01 0.49,0 0.48,0 0.48,0 0.62,0.14 0.14,0.14 0.14,0.14 0.14,0.66 0,0.53 -0.03,0.6 -0.31,0.86 -0.01,0.01 -0.01,0.01 -0.22,0.01 -0.21,0 -0.21,0 -0.26,0.04 -0.05,0.06 -0.04,0.06 -0.09,0.01 -0.05,-0.05 -0.05,-0.05 -0.09,0 -0.05,0.04 -0.05,0.04 -0.16,0.04 -0.12,0 -0.12,0 -0.12,0.1 0,0.09 0,0.09 -0.09,0.09 -0.09,0 -0.09,0 -0.09,0.09 0,0.11 0.01,0.09 -0.1,0.09 -0.09,0 -0.09,0 -0.09,0.09 0,0.1 0,0.1 -0.09,0.1 -0.09,0 -0.09,0 -0.09,0.09 0,0.1 0,0.09 -0.05,0.09 -0.04,0 -0.04,0 -0.05,0.05 0,0.07 -0.44,0.07 -0.51,0l0 0zm0.71 -0.58c0.4,-0.42 0.4,-0.42 0.54,-0.42 0.14,0 0.14,0 0.18,-0.03 0.05,-0.03 0.05,-0.03 0.28,-0.03 0.23,0 0.23,0 0.41,-0.18 0.12,-0.11 0.18,-0.18 0.18,-0.19 0,0 -0.06,-0.08 -0.08,-0.09 0,0 -0.06,0.06 -0.16,0.16 -0.16,0.16 -0.16,0.16 -0.37,0.16 -0.21,0 -0.21,0 -0.25,0.02 -0.05,0.03 -0.05,0.03 -0.2,0.03 -0.16,0 -0.31,0.13 -0.99,0.88 -0.02,0.02 0.04,0.11 0.06,0.11 0.01,0 0.19,-0.19 0.4,-0.42l0 0zm1.37 -1.44c0,-0.15 0,-0.15 -0.14,-0.15 -0.13,-0.01 -0.13,-0.01 -0.13,0.15 0,0.15 0,0.15 0.13,0.15 0.14,0 0.14,0 0.14,-0.15z"/>
 <path fill="#E1C2C3" d="M0.12 1.93c0,-1.84 0,-1.84 1.84,-1.84 1.84,0 1.84,0 1.84,1.84 0,1.84 0,1.84 -1.84,1.84 -1.84,0 -1.84,0 -1.84,-1.84zm3.4 0c0,-1.56 0,-1.56 -1.56,-1.56 -1.56,0 -1.56,0 -1.56,1.56 0,1.56 0,1.56 1.56,1.56 1.56,0 1.56,0 1.56,-1.56zm-2.71 1.27c-0.05,-0.05 -0.05,-0.05 -0.05,-0.38 0,-0.32 0,-0.32 0.42,-0.74 0.23,-0.23 0.42,-0.42 0.42,-0.43 0,0 -0.02,-0.02 -0.04,-0.04 -0.05,-0.05 -0.05,-0.04 0,-0.09 0.03,-0.04 0.03,-0.04 0.03,-0.27 0,-0.23 0,-0.23 0.19,-0.42 0.19,-0.18 0.19,-0.18 0.67,-0.18 0.49,0 0.49,0 0.63,0.14 0.14,0.14 0.14,0.14 0.14,0.66 0,0.51 0,0.51 -0.16,0.69 -0.16,0.18 -0.16,0.18 -0.37,0.18 -0.21,0 -0.21,0 -0.26,0.04 -0.05,0.06 -0.04,0.06 -0.1,0 -0.04,-0.04 -0.04,-0.04 -0.08,0.01 -0.05,0.04 -0.05,0.04 -0.16,0.04 -0.12,0 -0.12,0 -0.12,0.09 0,0.11 0.01,0.1 -0.1,0.1 -0.08,0 -0.08,0 -0.09,0.09 0,0.09 0,0.09 -0.09,0.09 -0.09,0 -0.09,0 -0.09,0.09 0,0.11 0.01,0.1 -0.09,0.1 -0.09,0 -0.09,0 -0.1,0.09 0,0.09 0,0.09 -0.04,0.09 -0.05,0 -0.05,0 -0.05,0.05 0,0.07 -0.44,0.06 -0.51,0l0 0zm0.72 -0.58c0.39,-0.42 0.39,-0.42 0.53,-0.42 0.14,0 0.14,0 0.19,-0.03 0.04,-0.02 0.04,-0.02 0.27,-0.02 0.23,0 0.23,0 0.41,-0.19 0.1,-0.1 0.19,-0.18 0.19,-0.18 0,-0.01 -0.08,-0.1 -0.09,-0.1 0,0 -0.08,0.07 -0.16,0.16 -0.16,0.15 -0.16,0.15 -0.37,0.15 -0.21,0 -0.21,0 -0.25,0.03 -0.05,0.03 -0.05,0.03 -0.2,0.03 -0.16,0 -0.16,0 -0.58,0.45 -0.24,0.25 -0.43,0.45 -0.43,0.45 0,0.01 0.08,0.09 0.09,0.08 0,0 0.18,-0.18 0.4,-0.41l0 0zm1.36 -1.44c0,-0.16 0,-0.16 -0.14,-0.16 -0.13,0 -0.13,0 -0.13,0.16 0,0.15 0,0.15 0.13,0.15 0.14,0 0.14,0 0.14,-0.15z"/>
 <path fill="#DCB7B7" d="M0.12 1.93c0,-1.84 0,-1.84 1.84,-1.84 1.84,0 1.84,0 1.84,1.84 0,1.84 0,1.84 -1.84,1.84 -1.84,0 -1.84,0 -1.84,-1.84zm3.39 1.56c0.01,-0.01 0.01,-3.11 0,-3.12 0,0 -3.1,0 -3.11,0 -0.01,0.01 -0.01,3.11 0,3.12 0.01,0 3.11,0 3.11,0zm-2.7 -0.3c-0.05,-0.05 -0.05,-0.05 -0.05,-0.37 0,-0.32 0,-0.32 0.42,-0.74 0.43,-0.43 0.43,-0.43 0.38,-0.47 -0.05,-0.05 -0.05,-0.05 0,-0.09 0.03,-0.04 0.03,-0.04 0.03,-0.27 0,-0.23 0,-0.23 0.19,-0.42 0.19,-0.18 0.19,-0.18 0.67,-0.18 0.49,0 0.49,0 0.63,0.14 0.14,0.14 0.14,0.14 0.14,0.66 0,0.51 0,0.51 -0.16,0.69 -0.08,0.09 -0.15,0.17 -0.15,0.17 -0.01,0.01 -0.06,0.01 -0.22,0.01 -0.21,0 -0.21,0 -0.26,0.04 -0.05,0.06 -0.04,0.06 -0.09,0 -0.05,-0.04 -0.05,-0.04 -0.1,0.01 -0.04,0.04 -0.04,0.04 -0.16,0.04 -0.11,0 -0.11,0 -0.11,0.09 0,0.09 0,0.09 -0.09,0.09 -0.09,0.01 -0.09,0.01 -0.09,0.09 -0.01,0.11 0.01,0.1 -0.1,0.1 -0.09,0 -0.09,0 -0.09,0.09 0,0.09 0,0.09 -0.09,0.09 -0.09,0.01 -0.09,0.01 -0.09,0.09 -0.01,0.11 0,0.1 -0.05,0.1 -0.05,0 -0.05,0 -0.05,0.05 0,0.05 0.03,0.04 -0.23,0.04 -0.23,0 -0.23,0 -0.28,-0.05l0 0zm0.36 -0.19c0.02,-0.03 0.2,-0.21 0.39,-0.42 0.36,-0.38 0.36,-0.38 0.5,-0.38 0.14,0 0.14,0 0.19,-0.03 0.04,-0.02 0.04,-0.02 0.27,-0.02 0.23,0 0.23,0 0.42,-0.19 0.11,-0.11 0.18,-0.18 0.18,-0.19 -0.01,0 -0.07,-0.08 -0.08,-0.09 -0.01,-0.01 -0.01,-0.01 -0.17,0.15 -0.16,0.16 -0.16,0.16 -0.37,0.16 -0.21,0 -0.21,0 -0.25,0.03 -0.05,0.03 -0.05,0.03 -0.2,0.03 -0.15,0 -0.15,0 -0.18,0.03 -0.02,0.01 -0.21,0.21 -0.42,0.43 -0.21,0.23 -0.39,0.42 -0.4,0.43 -0.01,0.01 -0.01,0.01 0.03,0.06 0.05,0.05 0.04,0.05 0.09,0l0 0zm1.72 -1.82c0,-0.15 0,-0.15 -0.01,-0.16 0,0 -0.06,0 -0.13,0 -0.13,0 -0.13,0 -0.13,0.15 0,0.09 0,0.16 0,0.16 0,0 0.03,0 0.13,0 0.14,0 0.14,0 0.14,-0.15z"/>
 <path fill="#D4A7A8" d="M0.12 1.93c0,-1.84 0,-1.84 1.84,-1.84 1.84,0 1.84,0 1.84,1.84 0,1.84 0,1.84 -1.84,1.84 -1.84,0 -1.84,0 -1.84,-1.84zm3.4 0c0,-1.56 0,-1.56 -1.56,-1.56 -1.56,0 -1.56,0 -1.56,1.56 0,0.85 0,1.55 0,1.56 0,0 0.31,0 1.56,0 1.56,0 1.56,0 1.56,-1.56zm-2.71 1.26c-0.05,-0.04 -0.05,-0.04 -0.05,-0.37 0,-0.32 0,-0.32 0.43,-0.74 0.23,-0.23 0.42,-0.42 0.42,-0.42 0,-0.01 -0.02,-0.03 -0.05,-0.05 -0.04,-0.05 -0.04,-0.05 0,-0.09 0.03,-0.04 0.03,-0.04 0.03,-0.27 0,-0.23 0,-0.23 0.19,-0.41 0.19,-0.19 0.19,-0.19 0.67,-0.19 0.49,0 0.49,0 0.63,0.14 0.14,0.14 0.14,0.14 0.14,0.66 0,0.51 0,0.51 -0.01,0.52 -0.02,0.03 -0.27,0.31 -0.29,0.33 -0.02,0.02 -0.02,0.02 -0.23,0.02 -0.21,0 -0.21,0 -0.26,0.04 -0.05,0.05 -0.04,0.05 -0.09,0 -0.05,-0.05 -0.05,-0.05 -0.1,0.01 -0.04,0.04 -0.04,0.04 -0.16,0.04 -0.11,0 -0.11,0 -0.11,0.09 0,0.09 0,0.09 -0.09,0.09 -0.09,0.01 -0.09,0.01 -0.09,0.09 -0.01,0.11 0.01,0.1 -0.1,0.1 -0.09,0 -0.09,0 -0.09,0.09 0,0.09 0,0.09 -0.09,0.09 -0.09,0.01 -0.09,0.01 -0.09,0.09 -0.01,0.11 0,0.1 -0.06,0.1 -0.04,0 -0.04,0 -0.04,0.04 0,0.08 -0.44,0.08 -0.51,0l0 0zm0.68 -0.54c0.2,-0.21 0.38,-0.39 0.4,-0.41 0.03,-0.04 0.03,-0.04 0.17,-0.04 0.14,0 0.14,0 0.18,-0.03 0.05,-0.02 0.05,-0.02 0.28,-0.02 0.24,-0.01 0.24,-0.01 0.42,-0.19 0.17,-0.17 0.18,-0.18 0.18,-0.19 -0.02,-0.02 -0.09,-0.1 -0.09,-0.1 0,0 -0.08,0.08 -0.16,0.16 -0.16,0.16 -0.16,0.16 -0.37,0.16 -0.21,0 -0.21,0 -0.26,0.03 -0.04,0.03 -0.04,0.03 -0.19,0.03 -0.16,0 -0.16,0 -0.19,0.03 -0.07,0.07 -0.82,0.87 -0.82,0.87 0,0.01 0.08,0.09 0.09,0.09 0,0 0.16,-0.17 0.36,-0.39l0 0zm1.4 -1.47c0,-0.16 0,-0.16 -0.13,-0.16 -0.1,0 -0.14,0 -0.14,0.01 -0.01,0 -0.01,0.29 0,0.3 0,0 0.01,0 0.13,0 0.14,0 0.14,0 0.14,-0.15l0 0z"/>
 <path fill="#C6898A" d="M0.12 1.93c0,-1.84 0,-1.84 1.84,-1.84 1.84,0 1.84,0 1.84,1.84 0,1.84 0,1.84 -1.84,1.84 -1.84,0 -1.84,0 -1.84,-1.84zm3.4 0c0,-1.56 0,-1.56 -1.56,-1.56 -1.56,0 -1.56,0 -1.56,1.56 0,0.85 0,1.55 0,1.56 0,0 0.31,0 1.56,0 1.56,0 1.56,0 1.56,-1.56zm-2.71 1.26c-0.05,-0.04 -0.05,-0.04 -0.05,-0.37 0,-0.32 0,-0.32 0.43,-0.74 0.23,-0.23 0.42,-0.42 0.42,-0.42 0,-0.01 -0.02,-0.03 -0.05,-0.05 -0.05,-0.05 -0.05,-0.04 0,-0.09 0.04,-0.04 0.04,-0.04 0.04,-0.27 0,-0.23 0,-0.23 0.18,-0.41 0.19,-0.19 0.19,-0.19 0.67,-0.19 0.49,0 0.49,0 0.63,0.14 0.14,0.14 0.14,0.14 0.14,0.65 0,0.39 0,0.52 -0.01,0.52 0,0.01 -0.07,0.09 -0.15,0.18 -0.16,0.17 -0.16,0.17 -0.37,0.17 -0.22,0.01 -0.22,0.01 -0.26,0.05 -0.05,0.05 -0.04,0.05 -0.09,0 -0.05,-0.04 -0.05,-0.04 -0.09,0 -0.05,0.05 -0.05,0.05 -0.17,0.05 -0.11,0 -0.11,0 -0.11,0.09 0,0.11 0.01,0.09 -0.1,0.09 -0.09,0.01 -0.09,0.01 -0.09,0.1 0,0.09 0,0.09 -0.09,0.09 -0.09,0 -0.09,0 -0.09,0.09 0,0.11 0.01,0.09 -0.1,0.09 -0.09,0.01 -0.09,0.01 -0.09,0.1 0,0.09 0,0.09 -0.04,0.09 -0.05,0 -0.05,-0.01 -0.05,0.05 0,0.07 -0.44,0.06 -0.51,-0.01l0 0zm0.72 -0.57c0.39,-0.42 0.39,-0.42 0.53,-0.42 0.14,0 0.14,0 0.19,-0.02 0.04,-0.03 0.04,-0.03 0.27,-0.03 0.23,0 0.23,0 0.42,-0.19 0.1,-0.1 0.18,-0.18 0.18,-0.18 0,-0.01 -0.06,-0.08 -0.08,-0.1 -0.01,-0.01 -0.01,-0.01 -0.17,0.15 -0.16,0.16 -0.16,0.16 -0.37,0.16 -0.21,0 -0.21,0 -0.26,0.03 -0.04,0.03 -0.04,0.03 -0.2,0.03 -0.15,0 -0.15,0 -0.58,0.45 -0.23,0.24 -0.42,0.45 -0.42,0.45 0,0.01 0.08,0.09 0.09,0.09 0,0 0.18,-0.19 0.4,-0.42l0 0zm1.36 -1.44c0,-0.16 0,-0.16 -0.14,-0.16 -0.13,0 -0.13,0 -0.14,0.15 0,0.09 0,0.16 0.01,0.16 0,0 0.03,0 0.13,0 0.14,0 0.14,0 0.14,-0.15z"/>
 <path fill="#C17E80" d="M0.12 1.93c0,-1.84 0,-1.84 1.84,-1.84 1.84,0 1.84,0 1.84,1.84 0,1.84 0,1.84 -1.84,1.84 -1.84,0 -1.84,0 -1.84,-1.84zm3.4 1.56c0.01,-0.01 0.01,-3.11 0,-3.12 -0.01,-0.01 -3.11,-0.01 -3.12,0 -0.01,0.01 -0.01,3.11 0,3.12 0.01,0.01 3.11,0.01 3.12,0zm-2.71 -0.3c-0.05,-0.05 -0.05,-0.05 -0.05,-0.37 0,-0.32 0,-0.32 0.42,-0.74 0.5,-0.49 0.44,-0.42 0.39,-0.47 -0.05,-0.05 -0.05,-0.05 -0.01,-0.09 0.04,-0.04 0.04,-0.04 0.04,-0.27 0,-0.23 0,-0.23 0.18,-0.41 0.19,-0.19 0.19,-0.19 0.67,-0.19 0.49,0 0.49,0 0.62,0.14 0.14,0.14 0.14,0.14 0.14,0.66 0,0.56 0.02,0.5 -0.28,0.83 -0.03,0.03 -0.03,0.03 -0.24,0.03 -0.21,0 -0.21,0 -0.26,0.05 -0.05,0.05 -0.05,0.05 -0.09,0 -0.05,-0.05 -0.05,-0.05 -0.1,0 -0.04,0.05 -0.04,0.05 -0.16,0.05 -0.11,0 -0.11,0 -0.11,0.01 0,0 -0.01,0.04 -0.01,0.09 0,0.08 0,0.08 -0.08,0.08 -0.11,0 -0.1,-0.01 -0.1,0.1 0,0.09 0,0.09 -0.09,0.09 -0.11,0 -0.1,-0.01 -0.1,0.09 0,0.09 0,0.09 -0.08,0.09 -0.11,0 -0.1,-0.01 -0.1,0.1 0,0.09 0,0.09 -0.05,0.09 -0.04,0 -0.04,0 -0.04,0.04 0,0.08 -0.43,0.08 -0.51,0l0 0zm0.71 -0.57c0.22,-0.22 0.4,-0.41 0.4,-0.41 0.01,-0.01 0.07,-0.01 0.15,-0.01 0.13,0 0.13,0 0.18,-0.02 0.04,-0.03 0.04,-0.03 0.27,-0.03 0.24,0 0.24,0 0.42,-0.18 0.1,-0.1 0.18,-0.19 0.18,-0.19 0,-0.01 -0.08,-0.11 -0.09,-0.11 0,0 -0.08,0.07 -0.16,0.16 -0.16,0.16 -0.16,0.16 -0.37,0.16 -0.21,0 -0.21,0 -0.25,0.03 -0.05,0.02 -0.05,0.02 -0.2,0.02 -0.1,0 -0.15,0.01 -0.16,0.01 0,0 -0.82,0.86 -0.85,0.9 -0.01,0 0.07,0.09 0.09,0.09 0,0 0.18,-0.19 0.39,-0.42l0 0zm1.37 -1.29c0.01,-0.01 0.01,-0.3 0,-0.31 -0.01,0 -0.26,0 -0.27,0 -0.01,0 -0.01,0.31 0,0.31 0,0.01 0.27,0.01 0.27,0l0 0z"/>
 <path fill="#C07C7D" d="M0.12 1.93c0,-1.84 0,-1.84 1.84,-1.84 1.84,0 1.84,0 1.84,1.84 0,1.84 0,1.84 -1.84,1.84 -1.84,0 -1.84,0 -1.84,-1.84zm3.4 1.56c0,-0.01 0,-3.12 0,-3.12 -0.01,-0.01 -3.12,-0.01 -3.12,0 -0.01,0 -0.01,3.11 0,3.12 0,0.01 3.11,0.01 3.12,0zm-2.71 -0.3c-0.05,-0.05 -0.05,-0.05 -0.05,-0.37 0,-0.32 0,-0.32 0.43,-0.74 0.23,-0.23 0.42,-0.42 0.42,-0.42 0,-0.01 -0.02,-0.03 -0.04,-0.05 -0.05,-0.05 -0.05,-0.05 -0.01,-0.09 0.04,-0.04 0.04,-0.04 0.04,-0.27 0,-0.23 0,-0.23 0.18,-0.41 0.19,-0.19 0.19,-0.19 0.67,-0.19 0.49,0 0.49,0 0.62,0.14 0.14,0.14 0.14,0.14 0.14,0.66 0,0.51 0,0.51 -0.15,0.69 -0.16,0.17 -0.16,0.17 -0.37,0.17 -0.21,0 -0.21,0 -0.26,0.05 -0.05,0.05 -0.05,0.05 -0.09,0 -0.05,-0.05 -0.05,-0.05 -0.1,0 -0.04,0.05 -0.04,0.05 -0.16,0.05 -0.1,0 -0.11,0 -0.11,0 0,0.01 -0.01,0.05 -0.01,0.09 0,0.09 0,0.09 -0.08,0.09 -0.11,0 -0.1,-0.01 -0.1,0.1 0,0.09 0,0.09 -0.09,0.09 -0.11,0 -0.1,-0.01 -0.1,0.09 0,0.09 0,0.09 -0.08,0.09 -0.11,0 -0.1,-0.01 -0.1,0.1 0,0.09 0,0.09 -0.05,0.09 -0.04,0 -0.04,0 -0.04,0.04 0,0.06 0.03,0.05 -0.24,0.05 -0.22,0 -0.22,0 -0.27,-0.05l0 0zm0.69 -0.54c0.2,-0.21 0.38,-0.4 0.39,-0.41 0.03,-0.03 0.03,-0.03 0.17,-0.03 0.14,-0.01 0.14,-0.01 0.19,-0.03 0.04,-0.03 0.04,-0.03 0.27,-0.03 0.24,0 0.24,0 0.42,-0.18 0.1,-0.1 0.18,-0.19 0.18,-0.19 0,-0.01 -0.08,-0.1 -0.09,-0.11 0,0 -0.03,0.02 -0.16,0.16 -0.16,0.16 -0.16,0.16 -0.37,0.16 -0.21,0 -0.21,0 -0.25,0.03 -0.05,0.02 -0.05,0.02 -0.2,0.02 -0.16,0 -0.16,0 -0.17,0.01 -0.01,0.02 -0.85,0.9 -0.85,0.9 0,0.01 0.09,0.09 0.1,0.09 0,0 0.17,-0.17 0.37,-0.39zm1.39 -1.32c0.01,0 0.01,-0.3 0,-0.31 0,0 -0.26,0 -0.27,0 -0.01,0 -0.01,0.31 0,0.31 0,0.01 0.27,0.01 0.27,0l0 0z"/>
 <path fill="#B76B6C" d="M0.12 1.93c0,-1.84 0,-1.84 1.84,-1.84 1.84,0 1.84,0 1.84,1.84 0,1.84 0,1.84 -1.84,1.84 -1.84,0 -1.84,0 -1.84,-1.84zm3.4 1.56c0,-0.01 0,-3.12 0,-3.12 -0.01,-0.01 -3.12,-0.01 -3.12,0 -0.01,0 -0.01,3.11 0,3.12 0,0.01 3.11,0.01 3.12,0zm-2.71 -0.3c-0.04,-0.04 -0.04,-0.04 -0.04,-0.37 0,-0.32 0,-0.32 0.42,-0.74 0.23,-0.23 0.42,-0.42 0.42,-0.43 0,0 -0.02,-0.02 -0.04,-0.04 -0.05,-0.05 -0.05,-0.04 -0.01,-0.09 0.04,-0.03 0.04,-0.03 0.04,-0.27 0,-0.23 0,-0.23 0.18,-0.41 0.19,-0.19 0.19,-0.19 0.67,-0.19 0.49,0 0.49,0 0.62,0.14 0.14,0.14 0.14,0.14 0.14,0.66 0,0.51 0,0.51 -0.02,0.54 -0.31,0.35 -0.27,0.32 -0.5,0.32 -0.22,0 -0.22,0 -0.26,0.05 -0.05,0.05 -0.04,0.05 -0.09,0 -0.05,-0.05 -0.05,-0.05 -0.1,0 -0.04,0.05 -0.04,0.05 -0.16,0.05 -0.11,0 -0.11,0 -0.11,0.09 -0.01,0.09 -0.01,0.09 -0.1,0.09 -0.09,0 -0.09,0 -0.09,0.09 0,0.11 0.01,0.1 -0.1,0.1 -0.08,0 -0.08,0 -0.08,0.09 -0.01,0.09 -0.01,0.09 -0.1,0.09 -0.09,0 -0.09,0 -0.09,0.09 0,0.1 0.01,0.1 -0.05,0.1 -0.04,0 -0.04,0 -0.04,0.04 0,0.07 -0.44,0.07 -0.51,0zm0.72 -0.57c0.39,-0.41 0.39,-0.41 0.53,-0.41 0.14,0 0.14,0 0.18,-0.03 0.05,-0.03 0.05,-0.03 0.28,-0.03 0.24,0 0.24,0 0.42,-0.19 0.1,-0.1 0.18,-0.18 0.18,-0.18 0,-0.01 -0.08,-0.11 -0.09,-0.11 0,0 -0.07,0.06 -0.16,0.16 -0.16,0.16 -0.16,0.16 -0.37,0.16 -0.21,0 -0.21,0 -0.26,0.03 -0.04,0.02 -0.04,0.02 -0.19,0.02 -0.16,0 -0.16,0 -0.18,0.02 -0.16,0.18 -0.83,0.89 -0.83,0.89 -0.01,0.01 0.08,0.09 0.08,0.09 0.01,0 0.19,-0.19 0.41,-0.42l0 0zm1.36 -1.44c0,-0.16 0,-0.16 0,-0.16 -0.01,0 -0.07,0 -0.14,0 -0.13,0 -0.13,0 -0.14,0.15 0,0.09 0,0.16 0.01,0.16 0,0.01 0.03,0.01 0.13,0.01 0.14,0 0.14,0 0.14,-0.16z"/>
 <path fill="#AC5354" d="M0.12 1.93c0,-1.84 0,-1.84 1.84,-1.84 1.84,0 1.84,0 1.84,1.84 0,1.84 0,1.84 -1.84,1.84 -1.84,0 -1.84,0 -1.84,-1.84zm3.4 0c0,-1.56 0,-1.56 -1.56,-1.56 -1.57,0 -1.57,0 -1.57,1.56 0,0.85 0,1.56 0,1.56 0,0 0.32,0 1.57,0 1.56,0 1.56,0 1.56,-1.56zm-2.71 1.26c-0.04,-0.05 -0.04,-0.05 -0.04,-0.37 0,-0.32 0,-0.32 0.42,-0.74 0.27,-0.27 0.42,-0.42 0.42,-0.42 0,-0.01 -0.02,-0.03 -0.04,-0.05 -0.05,-0.05 -0.05,-0.04 0,-0.1 0.03,-0.03 0.03,-0.03 0.03,-0.26 0,-0.23 0,-0.23 0.19,-0.41 0.18,-0.18 0.18,-0.18 0.66,-0.18 0.49,0 0.49,0 0.62,0.13 0.16,0.16 0.15,0.07 0.14,0.88 0,0.3 0,0.3 -0.15,0.47 -0.16,0.17 -0.16,0.17 -0.37,0.17 -0.21,0 -0.21,0 -0.26,0.05 -0.05,0.04 -0.05,0.04 -0.09,0 -0.05,-0.06 -0.04,-0.06 -0.1,0 -0.04,0.04 -0.04,0.04 -0.16,0.04 -0.13,0 -0.12,-0.01 -0.12,0.1 0,0.09 0,0.09 -0.09,0.09 -0.1,0 -0.09,-0.01 -0.09,0.1 0,0.08 0,0.08 -0.09,0.08 -0.11,0 -0.1,-0.01 -0.1,0.1 0,0.09 0,0.09 -0.09,0.09 -0.1,0 -0.09,-0.01 -0.09,0.1 0,0.08 0,0.08 -0.04,0.08 -0.06,0 -0.06,0 -0.06,0.06 0,0.06 -0.43,0.06 -0.5,-0.01l0 0zm0.33 -0.15c0,-0.01 0.18,-0.19 0.38,-0.41 0.21,-0.22 0.39,-0.41 0.39,-0.41 0.01,-0.01 0.01,-0.01 0.15,-0.01 0.14,0 0.14,0 0.19,-0.03 0.04,-0.03 0.04,-0.03 0.27,-0.03 0.24,0 0.24,0 0.42,-0.18 0.1,-0.1 0.18,-0.19 0.18,-0.19 0,-0.01 -0.08,-0.11 -0.09,-0.11 0,0 -0.07,0.07 -0.16,0.16 -0.16,0.16 -0.16,0.16 -0.37,0.16 -0.21,0 -0.21,0 -0.26,0.03 -0.04,0.02 -0.04,0.02 -0.2,0.02 -0.15,0 -0.35,0.19 -1,0.9 -0.01,0.01 -0.01,0.01 0.04,0.06 0.05,0.05 0.04,0.05 0.06,0.04l0 0zm1.75 -1.86c0,-0.16 0,-0.16 -0.14,-0.16 -0.14,0 -0.14,0 -0.14,0.15 0,0.09 0,0.16 0,0.16 0,0.01 0.04,0.01 0.14,0.01 0.14,0 0.14,0 0.14,-0.16l0 0z"/>
 <path fill="#A54547" d="M0.12 1.93c0,-1.84 0,-1.84 1.84,-1.84 1.84,0 1.84,0 1.84,1.84 0,1.84 0,1.84 -1.84,1.84 -1.84,0 -1.84,0 -1.84,-1.84zm3.4 1.56c0.01,-0.01 0.01,-3.12 0,-3.12 -0.01,-0.01 -3.12,-0.01 -3.13,0 -0.01,0 -0.01,3.11 0,3.12 0.01,0.01 3.12,0.01 3.13,0zm-2.71 -0.3c-0.04,-0.05 -0.04,-0.05 -0.04,-0.37 0,-0.32 0,-0.32 0.42,-0.74 0.23,-0.23 0.42,-0.42 0.42,-0.42 0,-0.01 -0.02,-0.03 -0.04,-0.05 -0.05,-0.05 -0.05,-0.04 0,-0.09 0.03,-0.03 0.03,-0.03 0.03,-0.27 0,-0.23 0,-0.23 0.19,-0.41 0.18,-0.18 0.18,-0.18 0.66,-0.18 0.49,0 0.49,0 0.62,0.13 0.14,0.14 0.14,0.14 0.14,0.66 0,0.56 0.03,0.48 -0.27,0.82 -0.04,0.04 -0.04,0.04 -0.25,0.04 -0.22,0 -0.22,0 -0.26,0.04 -0.05,0.06 -0.04,0.05 -0.09,0.01 -0.05,-0.06 -0.04,-0.06 -0.1,0 -0.04,0.04 -0.04,0.04 -0.16,0.04 -0.14,0 -0.12,-0.01 -0.12,0.1 0,0.09 0,0.09 -0.09,0.09 -0.1,0 -0.09,-0.02 -0.09,0.09 0,0.09 0,0.09 -0.09,0.09 -0.11,0 -0.1,-0.01 -0.1,0.1 0,0.09 0,0.09 -0.09,0.09 -0.1,0 -0.09,-0.02 -0.09,0.09 0,0.09 0,0.09 -0.05,0.09 -0.04,0.01 -0.04,0.01 -0.05,0.05 0,0.07 -0.42,0.07 -0.5,0l0 0zm0.72 -0.56c0.39,-0.42 0.39,-0.42 0.53,-0.42 0.14,0 0.14,0 0.19,-0.03 0.04,-0.03 0.04,-0.03 0.27,-0.03 0.24,0 0.24,0 0.42,-0.18 0.15,-0.15 0.19,-0.19 0.19,-0.2 -0.01,-0.01 -0.09,-0.1 -0.1,-0.1 0,0 -0.08,0.07 -0.16,0.16 -0.16,0.16 -0.16,0.16 -0.37,0.16 -0.21,0 -0.21,0 -0.26,0.02 -0.04,0.03 -0.04,0.03 -0.2,0.03 -0.15,0 -0.15,0 -0.18,0.03 -0.19,0.2 -0.83,0.88 -0.83,0.88 0,0.01 0.09,0.1 0.09,0.1 0.01,0 0.18,-0.18 0.41,-0.42l0 0zm1.36 -1.29c0.01,-0.01 0.01,-0.32 0,-0.32 -0.01,-0.01 -0.26,-0.01 -0.27,0 -0.01,0 -0.01,0.31 -0.01,0.32 0.01,0 0.28,0 0.28,0l0 0z"/>
 <path fill="#A23E40" d="M0.12 1.93c0,-1.84 0,-1.84 1.84,-1.84 1.84,0 1.84,0 1.84,1.84 0,1.84 0,1.84 -1.84,1.84 -1.84,0 -1.84,0 -1.84,-1.84zm3.4 1.56c0.01,0 0.01,-3.12 0,-3.13 0,0 -3.12,0 -3.13,0 0,0.01 0,3.13 0,3.13 0.01,0.01 3.13,0.01 3.13,0zm-2.7 -0.3c-0.05,-0.05 -0.05,-0.05 -0.05,-0.37 0,-0.32 0,-0.32 0.42,-0.74 0.28,-0.27 0.42,-0.42 0.42,-0.42 0,-0.01 -0.01,-0.03 -0.04,-0.05 -0.04,-0.05 -0.04,-0.05 -0.02,-0.07 0.06,-0.06 0.06,-0.03 0.06,-0.29 0,-0.23 0,-0.23 0.18,-0.41 0.18,-0.18 0.18,-0.18 0.66,-0.18 0.49,0 0.49,0 0.62,0.14 0.14,0.13 0.14,0.13 0.14,0.65 0,0.51 0,0.51 -0.01,0.52 -0.02,0.02 -0.27,0.31 -0.29,0.32 -0.01,0.02 -0.01,0.02 -0.23,0.02 -0.21,0 -0.21,0 -0.25,0.04 -0.05,0.05 -0.05,0.05 -0.09,0 -0.05,-0.05 -0.04,-0.05 -0.1,0.01 -0.04,0.04 -0.04,0.04 -0.15,0.04 -0.15,0 -0.13,-0.01 -0.13,0.1 0,0.09 0,0.09 -0.09,0.09 -0.11,0 -0.1,-0.01 -0.1,0.1 0,0.08 0,0.08 -0.08,0.08 -0.11,0 -0.1,-0.01 -0.1,0.1 0,0.09 0,0.09 -0.09,0.09 -0.11,0 -0.1,-0.02 -0.1,0.1 0,0.08 0,0.08 -0.03,0.08 -0.06,0 -0.06,0 -0.06,0.05 0,0.07 -0.43,0.07 -0.49,0l0 0zm0.71 -0.56c0.39,-0.42 0.39,-0.42 0.53,-0.42 0.15,0 0.15,0 0.19,-0.03 0.04,-0.02 0.04,-0.02 0.27,-0.02 0.24,-0.01 0.24,-0.01 0.42,-0.19 0.1,-0.1 0.19,-0.19 0.19,-0.19 0,-0.01 -0.05,-0.06 -0.09,-0.1 -0.01,-0.02 0,-0.03 -0.17,0.14 -0.16,0.16 -0.16,0.16 -0.37,0.16 -0.21,0.01 -0.21,0.01 -0.26,0.03 -0.04,0.03 -0.04,0.03 -0.2,0.03 -0.08,0 -0.15,0 -0.15,0 -0.02,0.01 -0.86,0.91 -0.86,0.91 0,0.02 0.09,0.1 0.1,0.1 0.01,-0.01 0.18,-0.2 0.4,-0.42l0 0zm1.37 -1.45c0,-0.16 0,-0.16 -0.14,-0.17 -0.18,0 -0.15,-0.02 -0.15,0.17 0,0.19 -0.03,0.16 0.15,0.16 0.14,0 0.14,0 0.14,-0.16z"/>
 <path fill="#A0383A" d="M0.12 1.93c0,-1.84 0,-1.84 1.84,-1.84 1.84,0 1.84,0 1.84,1.84 0,1.84 0,1.84 -1.84,1.84 -1.84,0 -1.84,0 -1.84,-1.84zm3.4 0c0,-1.57 0,-1.57 -1.56,-1.57 -1.57,0 -1.57,0 -1.57,1.57 0,0.86 0,1.56 0,1.56 0,0.01 0.32,0.01 1.57,0.01 1.56,0 1.56,0 1.56,-1.57zm-2.7 1.26c-0.05,-0.05 -0.05,-0.05 -0.05,-0.37 0,-0.32 0,-0.32 0.42,-0.74 0.49,-0.49 0.44,-0.42 0.38,-0.47 -0.04,-0.05 -0.04,-0.05 0,-0.09 0.04,-0.03 0.04,-0.03 0.04,-0.27 0,-0.23 0,-0.23 0.18,-0.41 0.18,-0.18 0.18,-0.18 0.66,-0.18 0.49,0 0.49,0 0.62,0.13 0.14,0.14 0.14,0.14 0.14,0.66 0,0.51 0,0.51 -0.16,0.68 -0.15,0.17 -0.15,0.17 -0.36,0.18 -0.22,0 -0.22,0 -0.26,0.04 -0.05,0.05 -0.05,0.05 -0.09,0 -0.05,-0.05 -0.05,-0.05 -0.1,0.01 -0.04,0.04 -0.04,0.04 -0.16,0.04 -0.14,0 -0.12,-0.01 -0.12,0.1 0,0.08 0,0.08 -0.09,0.09 -0.11,0 -0.1,-0.02 -0.1,0.09 0,0.09 0,0.09 -0.08,0.09 -0.11,0 -0.1,-0.01 -0.1,0.1 0,0.08 0,0.08 -0.09,0.09 -0.11,0 -0.1,-0.02 -0.1,0.09 0,0.09 0,0.09 -0.04,0.09 -0.05,0 -0.05,0 -0.05,0.05 0,0.07 -0.43,0.07 -0.49,0l0 0zm0.71 -0.56c0.4,-0.42 0.4,-0.42 0.53,-0.42 0.14,0 0.14,0 0.19,-0.03 0.04,-0.02 0.04,-0.02 0.27,-0.02 0.24,0 0.24,0 0.42,-0.19 0.11,-0.11 0.19,-0.19 0.19,-0.19 0,-0.01 -0.09,-0.12 -0.1,-0.12 0,0 -0.08,0.08 -0.16,0.16 -0.16,0.16 -0.16,0.16 -0.37,0.16 -0.21,0.01 -0.21,0.01 -0.26,0.03 -0.05,0.03 -0.05,0.03 -0.2,0.03 -0.15,0 -0.15,0 -0.58,0.45 -0.24,0.25 -0.43,0.46 -0.43,0.46 0,0.01 0.09,0.1 0.09,0.1 0.01,0 0.19,-0.19 0.41,-0.42l0 0zm1.37 -1.29c0,-0.01 0,-0.31 0,-0.32 -0.01,-0.01 -0.29,-0.01 -0.29,0 -0.01,0.02 0,0.32 0.01,0.32 0.01,0 0.27,0 0.28,0z"/>
 <path fill="#9E3436" d="M0.12 1.93c0,-1.84 0,-1.84 1.84,-1.84 1.84,0 1.84,0 1.84,1.84 0,1.84 0,1.84 -1.84,1.84 -1.84,0 -1.84,0 -1.84,-1.84zm3.4 1.57c0.01,-0.01 0.01,-3.13 0,-3.14 0,-0.01 -3.12,-0.01 -3.13,0 -0.01,0.01 -0.01,3.13 0,3.14 0.01,0.01 3.13,0.01 3.13,0zm-2.7 -0.31c-0.05,-0.05 -0.05,-0.05 -0.05,-0.37 0,-0.31 0,-0.31 0.42,-0.74 0.28,-0.27 0.43,-0.42 0.43,-0.42 0,-0.01 -0.02,-0.03 -0.05,-0.05 -0.04,-0.05 -0.04,-0.05 0,-0.08 0.04,-0.04 0.04,-0.04 0.04,-0.27 0,-0.23 0,-0.23 0.18,-0.42 0.18,-0.18 0.18,-0.18 0.66,-0.18 0.48,0 0.48,0 0.62,0.14 0.14,0.13 0.14,0.13 0.14,0.65 0,0.51 0,0.51 -0.16,0.68 -0.15,0.17 -0.15,0.17 -0.36,0.18 -0.22,0 -0.22,0 -0.26,0.04 -0.05,0.04 -0.05,0.04 -0.09,0 -0.05,-0.05 -0.04,-0.05 -0.1,0 -0.05,0.05 -0.05,0.05 -0.16,0.05 -0.14,0 -0.12,-0.01 -0.12,0.1 0,0.08 0,0.08 -0.09,0.08 -0.11,0 -0.1,-0.01 -0.1,0.1 0,0.09 0,0.09 -0.09,0.09 -0.1,0 -0.09,-0.01 -0.09,0.1 0,0.08 0,0.08 -0.09,0.08 -0.11,0 -0.1,-0.01 -0.1,0.1 0,0.09 0,0.09 -0.04,0.09 -0.05,0 -0.05,0 -0.05,0.05 0,0.07 -0.42,0.07 -0.49,0l0 0zm0.7 -0.55c0.21,-0.22 0.39,-0.41 0.4,-0.42 0.01,-0.01 0.01,-0.01 0.15,-0.01 0.14,0 0.14,0 0.18,-0.03 0.04,-0.02 0.04,-0.02 0.28,-0.02 0.23,0 0.23,0 0.42,-0.19 0.12,-0.13 0.18,-0.19 0.18,-0.19 0,-0.02 -0.09,-0.12 -0.1,-0.12 -0.01,0 -0.04,0.04 -0.17,0.16 -0.16,0.16 -0.16,0.16 -0.37,0.16 -0.2,0 -0.2,0 -0.25,0.03 -0.04,0.03 -0.04,0.03 -0.19,0.03 -0.12,0 -0.16,0 -0.16,0 -0.02,0.01 -0.86,0.91 -0.86,0.91 0,0.01 0.09,0.1 0.1,0.1 0,0 0.12,-0.13 0.39,-0.41l0 0zm1.38 -1.3c0.01,-0.01 0,-0.32 -0.01,-0.33 0,0 -0.26,0 -0.27,0 -0.01,0.01 -0.02,0.33 -0.01,0.33 0.01,0.01 0.28,0 0.29,0l0 0z"/>
 </g>
 </svg>
