<svg xmlns="http://www.w3.org/2000/svg" width="32" height="32" viewBox="0 0 3.86 3.86">
 <g fill-rule="nonzero"><path fill="#D7E6FB" d="M0.06 3.79c-0.01,-0.01 -0.01,-0.01 -0.01,-0.02 0,-0.02 1.87,-3.75 1.88,-3.75 0.01,0 0.75,1.47 0.75,1.49 0,0 -0.08,0.16 -0.17,0.34 -0.09,0.18 -0.16,0.34 -0.16,0.34 0,0 0.02,0.01 0.04,0.01 0.58,0.21 1.12,0.79 1.36,1.47 0.03,0.1 0.04,0.09 -0.05,0.1 -0.55,0.09 -1.24,-0.2 -1.72,-0.74 -0.03,-0.04 -0.06,-0.07 -0.06,-0.07 0,0 -0.02,0.03 -0.04,0.05 -0.33,0.4 -0.82,0.69 -1.28,0.76 -0.12,0.02 -0.49,0.03 -0.54,0.02l0 0z"/>
 <path fill="#ACCCF7" d="M0.06 3.77c-0.01,0 0.09,-0.19 0.3,-0.61 0.16,-0.33 0.58,-1.17 0.93,-1.87 0.36,-0.72 0.63,-1.26 0.64,-1.26 0.01,0 0.74,1.46 0.74,1.48 0,0 -0.07,0.16 -0.16,0.34 -0.2,0.39 -0.18,0.34 -0.1,0.37 0.57,0.22 1.07,0.75 1.33,1.44 0.04,0.11 0.04,0.11 -0.22,0.11 -0.58,0.01 -1.15,-0.28 -1.56,-0.78 -0.04,-0.04 -0.03,-0.04 -0.08,0.02 -0.35,0.41 -0.83,0.69 -1.32,0.76 -0.11,0.01 -0.5,0.02 -0.5,0l0 0z"/>
 <path fill="#8BB7F1" d="M0.06 3.77c-0.01,-0.01 1.86,-3.74 1.87,-3.74 0,0 0.72,1.42 0.74,1.47 0,0.01 -0.03,0.07 -0.17,0.35 -0.12,0.25 -0.16,0.34 -0.16,0.34 0.01,0.01 0.05,0.02 0.09,0.04 0.58,0.23 1.09,0.8 1.32,1.47 0.02,0.06 0.02,0.06 -0.15,0.07 -0.56,0.04 -1.15,-0.24 -1.61,-0.75 -0.07,-0.08 -0.06,-0.08 -0.12,-0.01 -0.32,0.4 -0.8,0.68 -1.28,0.75 -0.08,0.02 -0.52,0.02 -0.53,0.01l0 0z"/>
 <path fill="#5D9BEF" d="M0.06 3.77c0,-0.01 1.86,-3.73 1.87,-3.73 0,0 0.72,1.43 0.73,1.46 0.01,0.01 -0.03,0.09 -0.16,0.35 -0.09,0.18 -0.17,0.34 -0.16,0.34 0,0 0.03,0.02 0.07,0.03 0.58,0.23 1.08,0.77 1.33,1.45 0.03,0.08 0.03,0.08 -0.04,0.09 -0.58,0.08 -1.23,-0.2 -1.72,-0.75 -0.06,-0.08 -0.05,-0.08 -0.12,0.01 -0.33,0.39 -0.82,0.68 -1.3,0.74 -0.1,0.02 -0.49,0.02 -0.5,0.01l0 0z"/>
 <path fill="#3085F9" d="M0.07 3.77c0,-0.01 1.85,-3.73 1.86,-3.73 0,0 0.73,1.46 0.73,1.47 0,0 -0.07,0.16 -0.17,0.34 -0.11,0.23 -0.16,0.34 -0.16,0.34 0,0.01 0.03,0.02 0.07,0.03 0.58,0.23 1.09,0.78 1.34,1.47 0.02,0.06 0.02,0.05 -0.03,0.06 -0.56,0.1 -1.24,-0.2 -1.72,-0.75 -0.07,-0.08 -0.06,-0.07 -0.12,-0.01 -0.33,0.42 -0.89,0.74 -1.39,0.78 -0.1,0 -0.41,0 -0.41,0l0 0z"/>
 <path fill="#207DFD" d="M0.07 3.77c0,-0.01 0.22,-0.45 0.49,-0.99 0.27,-0.54 0.69,-1.37 0.93,-1.85 0.44,-0.88 0.44,-0.88 0.72,-0.32 0.3,0.6 0.44,0.89 0.44,0.9 0,0 -0.07,0.16 -0.16,0.34 -0.19,0.39 -0.18,0.34 -0.07,0.39 0.57,0.22 1.07,0.77 1.31,1.44 0.03,0.07 0.03,0.06 -0.07,0.07 -0.59,0.06 -1.22,-0.23 -1.67,-0.75 -0.06,-0.08 -0.06,-0.08 -0.12,0 -0.32,0.39 -0.83,0.69 -1.3,0.76 -0.09,0.01 -0.49,0.02 -0.5,0.01l0 0z"/>
 <path fill="#1C78F6" d="M0.07 3.77c0,-0.01 0.94,-1.9 1.06,-2.13 0.06,-0.1 0.06,-0.1 0.19,-0.03 0.16,0.07 0.13,0.08 0.22,-0.06 0.2,-0.33 0.42,-0.56 0.68,-0.74 0.04,-0.02 0.07,-0.04 0.07,-0.04 0,0 0.28,0.55 0.32,0.65 0.05,0.1 0.06,0.06 -0.15,0.48 -0.15,0.32 -0.15,0.3 -0.06,0.33 0.58,0.22 1.09,0.77 1.33,1.45 0.03,0.08 0.03,0.08 -0.1,0.04 -0.39,-0.13 -0.6,-0.29 -0.99,-0.78 -0.22,-0.26 -0.31,-0.35 -0.44,-0.44 -0.03,-0.02 -0.06,-0.03 -0.06,-0.03 -0.01,0 -0.02,-0.01 -0.02,-0.01 -0.01,0 -0.01,0.03 -0.02,0.32 0,0.36 0,0.36 -0.13,0.19 -0.04,-0.04 -0.04,-0.04 -0.1,0.03 -0.32,0.39 -0.83,0.69 -1.3,0.76 -0.09,0.01 -0.49,0.02 -0.5,0.01l0 0z"/>
 <path fill="#1672EB" d="M0.07 3.77c0,-0.01 0.95,-1.92 1.01,-2.01 0.01,-0.01 0.02,-0.01 0.14,0.05 0.15,0.07 0.13,0.08 0.2,-0.04 0.2,-0.38 0.42,-0.65 0.66,-0.85 0.06,-0.05 0.2,-0.15 0.21,-0.15 0.01,0 0.23,0.46 0.26,0.53 0.02,0.04 0.02,0.04 0.02,0.21 0,0.19 0.01,0.14 -0.15,0.47 -0.11,0.24 -0.11,0.22 -0.03,0.25 0.58,0.21 1.08,0.75 1.33,1.43 0.04,0.1 0.04,0.1 -0.09,0.05 -0.39,-0.12 -0.6,-0.29 -0.98,-0.76 -0.3,-0.38 -0.52,-0.55 -0.73,-0.59 -0.04,0 -0.04,0.49 -0.01,0.54 0.02,0.03 0.03,0.02 -0.08,0.15 -0.32,0.37 -0.81,0.64 -1.26,0.71 -0.09,0.01 -0.49,0.02 -0.5,0.01l0 0z"/>
 <path fill="#126DE4" d="M0.07 3.77c0,-0.01 0.79,-1.6 0.88,-1.76 0.03,-0.04 0.03,-0.04 0.15,0.02 0.07,0.03 0.13,0.06 0.14,0.06 0.01,0 0.04,-0.06 0.14,-0.25 0.26,-0.49 0.51,-0.8 0.84,-1.01 0.03,-0.03 0.07,-0.05 0.07,-0.05 0.01,0 0.12,0.22 0.18,0.36 0.03,0.06 0.03,0.06 0.03,0.37 0,0.35 0.01,0.29 -0.12,0.56 -0.07,0.14 -0.07,0.13 -0.01,0.15 0.51,0.19 0.95,0.6 1.24,1.18 0.06,0.13 0.14,0.31 0.14,0.34 0,0.02 -0.25,-0.07 -0.39,-0.14 -0.25,-0.13 -0.4,-0.27 -0.71,-0.65 -0.15,-0.19 -0.25,-0.3 -0.31,-0.36 -0.18,-0.15 -0.31,-0.22 -0.49,-0.26 -0.11,-0.02 -0.1,-0.04 -0.1,0.18 0,0.22 -0.01,0.19 0.08,0.31 0.1,0.12 0.1,0.1 0.04,0.17 -0.31,0.4 -0.83,0.7 -1.3,0.77 -0.08,0.01 -0.49,0.02 -0.5,0.01l0 0z"/>
 <path fill="#0165F3" d="M0.07 3.76c0,-0.01 0.74,-1.48 0.78,-1.53 0,-0.01 0.01,-0.01 0.13,0.05 0.13,0.06 0.14,0.07 0.14,0.06 0.02,-0.03 0.09,-0.16 0.2,-0.37 0.31,-0.61 0.54,-0.9 0.9,-1.14 0.08,-0.05 0.07,-0.06 0.13,0.06 0.06,0.14 0.07,1.08 0.01,1.21 -0.04,0.09 -0.04,0.09 -0.08,0.08 -0.01,-0.01 -0.03,-0.01 -0.03,-0.01 -0.01,0 0,0.01 0.01,0.01 0.01,0 0.04,0.01 0.05,0.02 0.02,0.01 0.07,0.02 0.11,0.04 0.49,0.19 0.91,0.6 1.19,1.16 0.06,0.13 0.14,0.31 0.14,0.34 0,0.02 -0.25,-0.07 -0.39,-0.14 -0.25,-0.13 -0.4,-0.27 -0.71,-0.65 -0.27,-0.34 -0.38,-0.44 -0.61,-0.56 -0.06,-0.03 -0.11,-0.25 -0.05,-0.26 0.01,-0.01 -0.01,-0.01 -0.03,-0.01 -0.05,0 -0.05,0 -0.05,0.11 0,0.12 0.01,0.11 -0.11,0.08 -0.19,-0.03 -0.2,-0.03 -0.2,0.12 0,0.14 0,0.14 0.08,0.22 0.13,0.14 0.24,0.28 0.23,0.29 -0.21,0.36 -0.86,0.75 -1.35,0.82 -0.09,0.01 -0.49,0.01 -0.49,0l0 0zm2.17 -1.59c-0.01,-0.01 -0.01,-0.01 -0.02,0 0,0 0,0 0.01,0 0,0 0.01,0 0.01,0zm-0.03 -0.01c0,0 -0.01,0 -0.01,0 -0.01,0 0,0 0,0 0.01,0 0.01,0 0.01,0l0 0zm-0.02 -0.01c0,0 -0.01,0 -0.01,0 -0.01,0.01 -0.01,0.01 0,0.01 0.01,0 0.01,0 0.01,-0.01l0 0zm-0.03 0c-0.01,0 -0.01,0 -0.01,0 -0.01,0 -0.01,0 0,0 0.01,0 0.01,0 0.01,0l0 0zm-0.03 -0.01c-0.01,0 -0.01,0 -0.01,0 0,0 0,0.01 0,0.01 0.01,0 0.01,-0.01 0.01,-0.01l0 0zm-0.04 0c0,-0.01 -0.01,-0.01 -0.01,0 -0.01,0 0,0 0.01,0 0,0 0.01,0 0,0zm-0.06 -0.01c0,0 -0.01,0 -0.01,0 -0.01,0 0,0 0,0 0.01,0 0.01,0 0.01,0l0 0zm0.02 0c0,0 0,0 -0.01,0 0,0 0,0 0.01,0 0,0 0.01,0 0,0l0 0z"/>
 <path fill="#015DF7" d="M0.07 3.76c0,-0.01 0.74,-1.48 0.78,-1.53 0,-0.01 0.01,-0.01 0.13,0.05 0.13,0.06 0.14,0.07 0.14,0.06 0.02,-0.03 0.09,-0.16 0.2,-0.37 0.31,-0.61 0.54,-0.9 0.9,-1.14 0.08,-0.05 0.07,-0.06 0.13,0.06 0.06,0.14 0.07,1.08 0.01,1.21 -0.04,0.1 -0.03,0.09 -0.13,0.07 -0.28,-0.08 -0.32,-0.07 -0.32,0.06 0,0.12 0.01,0.11 -0.11,0.08 -0.19,-0.03 -0.2,-0.03 -0.2,0.12 0,0.14 0,0.14 0.08,0.22 0.13,0.14 0.24,0.28 0.23,0.29 -0.21,0.36 -0.86,0.75 -1.35,0.82 -0.09,0.01 -0.49,0.01 -0.49,0l0 0zm3.59 -0.04c-0.16,-0.05 -0.33,-0.13 -0.43,-0.2 -0.01,-0.01 -0.03,-0.03 -0.06,-0.05 -0.08,-0.06 -0.07,-0.02 -0.07,-0.42 0,-0.2 0,-0.35 0,-0.35 0.03,0 0.23,0.25 0.33,0.4 0.13,0.19 0.29,0.5 0.32,0.62 0,0.03 0,0.03 -0.09,0l0 0z"/>
 <path fill="#0A64D6" d="M0.07 3.76c0,-0.01 0.74,-1.48 0.78,-1.53 0,-0.01 0.01,-0.01 0.13,0.05 0.13,0.06 0.14,0.07 0.14,0.06 0.02,-0.03 0.09,-0.16 0.2,-0.37 0.31,-0.61 0.54,-0.9 0.9,-1.14 0.08,-0.05 0.07,-0.06 0.13,0.06 0.06,0.14 0.07,1.08 0.01,1.21 -0.04,0.1 -0.03,0.09 -0.13,0.07 -0.28,-0.08 -0.32,-0.07 -0.32,0.06 0,0.12 0.01,0.11 -0.11,0.08 -0.19,-0.03 -0.2,-0.03 -0.2,0.12 0,0.14 0,0.14 0.08,0.22 0.13,0.14 0.24,0.28 0.23,0.29 -0.21,0.36 -0.86,0.75 -1.35,0.82 -0.09,0.01 -0.49,0.01 -0.49,0l0 0z"/>
 <path fill="#025AC8" d="M0.08 3.76c0,-0.02 0.6,-1.21 0.61,-1.21 0,0 0.06,0.02 0.13,0.06 0.1,0.05 0.13,0.06 0.14,0.06 0.01,-0.02 0.19,-0.34 0.38,-0.73 0.27,-0.53 0.52,-0.86 0.82,-1.06 0.06,-0.04 0.12,1.21 0.07,1.27 0,0 -0.04,-0.01 -0.09,-0.01 -0.15,-0.03 -0.37,-0.04 -0.45,-0.02 -0.02,0 -0.04,0.01 -0.05,0.01 -0.01,0 -0.01,0 -0.01,0.07 0,0.08 0,0.08 -0.1,0.08 -0.1,0 -0.11,0 -0.11,0.08 0,0.09 0,0.09 0.1,0.17 0.15,0.12 0.4,0.38 0.39,0.41 -0.02,0.04 -0.24,0.28 -0.35,0.36 -0.3,0.24 -0.63,0.4 -0.97,0.45 -0.09,0.01 -0.51,0.02 -0.51,0.01l0 0z"/>
 <path fill="#0053B8" d="M0.68 3.26c0.46,-0.91 0.77,-1.53 0.83,-1.62 0.13,-0.23 0.28,-0.43 0.42,-0.56 0.11,-0.1 0.1,-0.16 0.1,0.47 0,0.55 0,0.55 -0.16,0.55 -0.2,0 -0.35,0.02 -0.47,0.07 -0.05,0.02 -0.05,0.02 -0.05,0.06 0,0.04 0,0.04 -0.03,0.05 -0.08,0.03 -0.06,0.09 0.06,0.16 0.18,0.12 0.33,0.25 0.47,0.43 0.06,0.07 0.06,0.06 0.02,0.11 -0.32,0.41 -0.83,0.71 -1.3,0.77 -0.16,0.02 -0.17,0.08 0.11,-0.49l0 0z"/>
 </g>
 </svg>
