<svg width="31" height="32" viewBox="0 0 31 32" fill="none" xmlns="http://www.w3.org/2000/svg">
<path d="M15.281 24.7622C18.3573 20.3746 20.7781 14.0202 21.8372 12.4063L18.7608 6.25359C14.8326 8.67399 12.8689 11.546 9.63256 18.3573C7.11022 23.4561 5.6922 26.3137 3.02594 31.3688C6.95965 31.3184 12.255 28.6455 15.281 24.7622Z" fill="#0054B9"/>
<path d="M0 31.3688L15.634 0L18.7608 6.25359C14.816 8.7544 12.8221 11.591 9.53169 18.5591C7.27519 23.1472 5.94471 25.8148 3.02593 31.3688H0Z" fill="#1571EB"/>
<path d="M21.8876 24.7622C24.4785 28.0681 26.1622 29.7268 30.9654 31.1671C26.5274 31.9236 21.5346 30.3098 17.6513 26.5778C13.8689 22.7954 12.6081 20.0216 8.11963 19.366C15.1297 18.0547 17.9539 19.6181 21.8876 24.7622Z" fill="#227FFF"/>
<path d="M30.9654 31.1671C29.9063 27.6369 27.2839 23.804 25.2666 21.9885C19.4669 16.6426 12.3559 16.2392 8.17004 19.366C14.0202 18.4582 16.947 18.5522 21.5346 24.3083C24.4092 28.242 26.7526 29.9908 30.9654 31.1671Z" fill="#015FCA"/>
</svg>
