<svg xmlns="http://www.w3.org/2000/svg" width="32" height="32" viewBox="0 0 3.86 3.86">
 <g>
 <g fill-rule="nonzero"><path fill="#D0D0D0" d="M0.2 3.63c-0.09,-0.13 -0.1,-0.34 -0.02,-0.41 0.04,-0.04 0.06,-0.14 0.06,-0.49 0,-0.55 0.97,-0.95 1.31,-0.54 0.08,0.1 0.11,0.06 0.11,-0.15 0,-0.15 0.02,-0.22 0.06,-0.23 0.05,-0.03 0.08,-0.17 0.02,-0.17 -0.02,0 -0.06,0.04 -0.1,0.08 -0.12,0.13 -1.29,0.11 -1.42,-0.03 -0.11,-0.12 -0.13,-0.35 -0.04,-0.42 0.04,-0.04 0.06,-0.14 0.06,-0.49 0,-0.62 0.01,-0.64 0.71,-0.64 0.68,0 0.71,0.02 0.71,0.58 0,0.45 0.03,0.51 0.29,0.51 0.16,0 0.16,0 0.16,-0.18 0,-0.35 0.61,-0.65 0.82,-0.4 0.03,0.03 0.08,0.06 0.12,0.06 0.03,0 0.08,0.02 0.11,0.05 0.02,0.03 0.07,0.06 0.1,0.06 0.06,0 0.46,0.33 0.46,0.38 0,0.02 -0.05,-0.01 -0.11,-0.07 -0.2,-0.2 -0.31,-0.27 -0.38,-0.27 -0.04,0 -0.08,-0.03 -0.1,-0.06 -0.01,-0.03 -0.06,-0.06 -0.11,-0.06 -0.05,0 -0.1,-0.02 -0.11,-0.05 -0.1,-0.27 -0.75,0.04 -0.77,0.38 -0.01,0.18 -0.01,0.18 -0.18,0.19 -0.28,0.02 -0.34,-0.07 -0.34,-0.54 0,-0.52 -0.02,-0.54 -0.68,-0.54 -0.66,0 -0.67,0.01 -0.67,0.63 0,0.35 -0.01,0.46 -0.05,0.5 -0.08,0.06 -0.07,0.21 0.02,0.34 0.18,0.25 1.49,0.14 1.49,-0.13 0,-0.07 0.1,-0.13 0.14,-0.09 0.02,0.02 0.01,0.05 -0.02,0.07 -0.06,0.06 -0.05,0.33 0.01,0.33 0.03,0 0.09,0.03 0.14,0.08 0.04,0.04 0.11,0.07 0.14,0.07 0.03,0 0.07,0.03 0.11,0.06 0.03,0.03 0.08,0.05 0.12,0.05 0.04,0 0.08,0.02 0.08,0.04 0,0.02 0.04,0.05 0.09,0.06 0.07,0.02 0.09,0.04 0.06,0.07 -0.02,0.02 -0.04,0.09 -0.04,0.15 0,0.09 -0.01,0.1 -0.06,0.06 -0.04,-0.03 -0.04,-0.06 -0.02,-0.09 0.05,-0.05 0.01,-0.14 -0.08,-0.14 -0.06,0 -0.07,0.02 -0.06,0.1 0.02,0.09 0.02,0.09 -0.05,0.03 -0.04,-0.04 -0.06,-0.08 -0.03,-0.11 0.05,-0.06 -0.02,-0.14 -0.09,-0.12 -0.05,0.02 -0.06,0.06 -0.05,0.11 0.02,0.06 0.01,0.06 -0.03,0.03 -0.03,-0.03 -0.05,-0.07 -0.04,-0.11 0.03,-0.1 -0.04,-0.18 -0.12,-0.13 -0.07,0.04 -0.08,0.04 -0.1,-0.08 -0.04,-0.19 -0.11,-0.14 -0.13,0.09 -0.01,0.2 0.08,0.34 0.2,0.34 0.03,0 0.07,0.03 0.1,0.06 0.02,0.03 0.07,0.06 0.11,0.06 0.04,0 0.09,0.02 0.11,0.05 0.03,0.03 0.08,0.06 0.11,0.06 0.04,0 0.09,0.02 0.12,0.05 0.02,0.04 0.1,0.06 0.18,0.06 0.08,0 0.17,-0.02 0.19,-0.06 0.03,-0.03 0.08,-0.05 0.11,-0.05 0.04,0 0.09,-0.03 0.12,-0.06 0.02,-0.03 0.07,-0.05 0.11,-0.05 0.03,0 0.08,-0.02 0.1,-0.05 0.04,-0.03 0.05,-0.03 0.05,0 0,0.03 -0.05,0.06 -0.11,0.07 -0.06,0.01 -0.13,0.05 -0.16,0.07 -0.02,0.03 -0.07,0.06 -0.11,0.06 -0.03,0 -0.08,0.02 -0.11,0.05 -0.02,0.03 -0.11,0.06 -0.19,0.06 -0.08,0 -0.16,-0.03 -0.18,-0.06 -0.03,-0.03 -0.08,-0.05 -0.12,-0.05 -0.03,0 -0.08,-0.03 -0.11,-0.06 -0.02,-0.03 -0.07,-0.06 -0.11,-0.06 -0.04,0 -0.09,-0.02 -0.11,-0.05 -0.03,-0.03 -0.08,-0.06 -0.11,-0.06 -0.03,0 -0.1,-0.04 -0.14,-0.08 -0.09,-0.08 -0.09,-0.08 -0.09,0.31 0,0.4 0,0.4 0.11,0.5 0.06,0.05 0.11,0.1 0.11,0.12 0,0.01 -0.05,-0.03 -0.13,-0.1 -0.13,-0.13 -0.13,-0.13 -0.13,-0.51 0,-0.5 0,-0.5 -0.68,-0.5 -0.66,0 -1.13,1 -0.52,1.1 0.15,0.03 0.15,0.03 0.06,0.1 -0.11,0.09 -0.21,0.07 -0.21,-0.04 0,-0.11 -0.09,-0.07 -0.1,0.04 -0.05,0.29 0.06,0.34 0.76,0.34 0.69,0 0.8,-0.04 0.8,-0.24 0,-0.06 0.02,-0.06 0.08,-0.02 0.07,0.04 0.09,0.04 0.18,-0.06 0.1,-0.12 0.1,-0.12 0.22,0.01 0.06,0.06 0.1,0.12 0.09,0.12 -0.02,0 -0.06,-0.04 -0.1,-0.08 -0.08,-0.09 -0.14,-0.09 -0.22,0 -0.04,0.05 -0.1,0.08 -0.13,0.07 -0.03,-0.01 -0.11,0.04 -0.17,0.11 -0.16,0.18 -1.34,0.19 -1.48,0.01l0 0zm0.24 -0.26c0.03,-0.04 -0.04,-0.09 -0.09,-0.06 -0.05,0.03 -0.02,0.1 0.03,0.1 0.02,0 0.05,-0.02 0.06,-0.04zm1.96 -1.23c-0.02,-0.01 -0.04,-0.01 -0.05,0 -0.02,0.02 -0.01,0.03 0.02,0.03 0.03,0 0.04,-0.01 0.03,-0.03l0 0zm-0.23 -0.11c-0.01,-0.01 -0.03,-0.01 -0.05,0 -0.01,0.01 0,0.03 0.03,0.03 0.02,0 0.04,-0.02 0.02,-0.03l0 0zm-0.22 -0.11c-0.02,-0.02 -0.04,-0.02 -0.05,0 -0.02,0.01 -0.01,0.02 0.02,0.02 0.03,0 0.04,-0.01 0.03,-0.02l0 0zm-0.14 -0.45c0,-0.01 -0.01,-0.01 -0.02,-0.01 -0.01,0 -0.02,0 -0.02,0.01 0,0.02 0.01,0.02 0.02,0.02 0.01,0 0.02,0 0.02,-0.02zm0.82 1.95c-0.09,-0.09 -0.09,-0.09 -0.18,-0.01 -0.04,0.04 -0.08,0.06 -0.08,0.04 0,-0.02 0.02,-0.05 0.05,-0.07 0.03,-0.02 0.07,-0.06 0.09,-0.11 0.04,-0.05 0.05,-0.06 0.05,-0.01 0,0.17 0.19,0.24 0.3,0.12 0.1,-0.11 0.1,-0.11 0.18,-0.03 0.09,0.1 0.11,0.17 0.02,0.08 -0.08,-0.08 -0.14,-0.08 -0.22,0.01 -0.09,0.1 -0.09,0.1 -0.21,-0.02l0 0zm0.53 0.09c0.01,-0.01 0.09,-0.08 0.19,-0.16 0.16,-0.15 0.16,-0.15 0.02,0.01 -0.08,0.09 -0.17,0.16 -0.19,0.16 -0.02,0 -0.03,-0.01 -0.02,-0.01zm-2.38 -0.11c-0.02,-0.02 -0.06,-0.05 -0.11,-0.07 -0.06,-0.02 0,-0.03 0.18,-0.03 0.26,-0.01 0.26,-0.01 0.19,0.07 -0.07,0.08 -0.22,0.1 -0.26,0.03zm0.16 -0.06c-0.04,-0.01 -0.1,-0.01 -0.13,0 -0.04,0.01 -0.01,0.02 0.06,0.02 0.07,0 0.1,-0.01 0.07,-0.02zm0.42 -0.01c-0.05,-0.03 -0.04,-0.04 0.03,-0.04 0.04,0 0.08,0.02 0.08,0.04 0,0.05 -0.04,0.05 -0.11,0zm0.94 -0.08c0,-0.03 -0.05,-0.1 -0.11,-0.16 -0.1,-0.12 -0.1,-0.12 0,-0.03 0.06,0.05 0.12,0.08 0.14,0.07 0.02,-0.01 0.02,0.02 0.01,0.07 -0.02,0.1 -0.04,0.13 -0.04,0.05zm0.86 -0.02c0,-0.03 0.02,-0.04 0.04,-0.03 0.02,0.01 0.03,0.04 0.01,0.06 -0.03,0.05 -0.05,0.04 -0.05,-0.03zm-0.52 -0.14c-0.1,-0.12 -0.1,-0.12 0.01,-0.02 0.1,0.09 0.1,0.09 0.2,0 0.1,-0.1 0.1,-0.1 0.01,0.02 -0.05,0.07 -0.1,0.12 -0.11,0.12 -0.01,0 -0.06,-0.05 -0.11,-0.12l0 0zm0.63 0.11c0,-0.01 0.01,-0.02 0.02,-0.02 0.01,0 0.02,0.01 0.02,0.02 0,0.01 -0.01,0.02 -0.02,0.02 -0.01,0 -0.02,-0.01 -0.02,-0.02zm-1.39 -0.03c0,-0.04 0.16,-0.19 0.18,-0.17 0,0.01 -0.03,0.06 -0.08,0.11 -0.05,0.04 -0.1,0.07 -0.1,0.06zm1.24 -0.05c0,-0.01 0.01,-0.01 0.02,-0.01 0.01,0 0.02,0 0.02,0.01 0,0.01 -0.01,0.02 -0.02,0.02 -0.01,0 -0.02,-0.01 -0.02,-0.02zm-0.71 -0.03c0,-0.01 0.01,-0.02 0.02,-0.02 0.01,0 0.02,0.01 0.02,0.02 0,0.01 -0.01,0.02 -0.02,0.02 -0.01,0 -0.02,-0.01 -0.02,-0.02zm0.64 0c0,-0.01 0,-0.02 0.02,-0.02 0.01,0 0.01,0.01 0.01,0.02 0,0.01 0,0.02 -0.01,0.02 -0.02,0 -0.02,-0.01 -0.02,-0.02zm-2.63 -0.04c0,-0.01 0.01,-0.02 0.02,-0.02 0.01,0 0.02,0.01 0.02,0.02 0,0.01 -0.01,0.02 -0.02,0.02 -0.01,0 -0.02,-0.01 -0.02,-0.02zm0.85 -0.02c0.01,-0.02 0.03,-0.04 0.04,-0.04 0,0 0.01,0.02 0.01,0.04 0,0.02 -0.02,0.04 -0.04,0.04 -0.02,0 -0.03,-0.02 -0.01,-0.04zm1.19 -0.02c0.01,-0.02 0.04,-0.02 0.05,0 0.01,0.01 0,0.02 -0.03,0.02 -0.02,0 -0.03,-0.01 -0.02,-0.02l0 0zm0.52 0c0.02,-0.02 0.04,-0.02 0.05,0 0.02,0.01 0.01,0.02 -0.02,0.02 -0.03,0 -0.04,-0.01 -0.03,-0.02l0 0zm0.53 -0.66c0.01,-0.03 0.06,-0.06 0.11,-0.07 0.06,-0.02 0.09,-0.02 0.08,0 -0.01,0.02 -0.05,0.04 -0.09,0.04 -0.04,0 -0.08,0.02 -0.09,0.04 -0.01,0.02 -0.01,0.01 -0.01,-0.01l0 0zm-3.08 -0.02c0.02,-0.01 0.04,-0.01 0.05,0 0.02,0.01 0.01,0.03 -0.02,0.03 -0.03,0 -0.04,-0.02 -0.03,-0.03l0 0zm0.85 0.01c0,-0.01 0.01,-0.02 0.02,-0.02 0.01,0 0.02,0.01 0.02,0.02 0,0.01 -0.01,0.02 -0.02,0.02 -0.01,0 -0.02,-0.01 -0.02,-0.02zm0.6 -0.15c0,-0.01 0.01,-0.02 0.02,-0.02 0.01,0 0.02,0.01 0.02,0.02 0,0.01 -0.01,0.02 -0.02,0.02 -0.01,0 -0.02,-0.01 -0.02,-0.02zm1.85 -0.19c0,-0.1 0.01,-0.14 0.02,-0.08 0.01,0.05 0.01,0.14 0,0.18 -0.01,0.05 -0.02,0 -0.02,-0.1l0 0zm-1.23 -0.22c-0.01,-0.03 -0.06,-0.06 -0.11,-0.06 -0.05,0 -0.11,-0.03 -0.12,-0.06 -0.01,-0.03 -0.06,-0.05 -0.11,-0.05 -0.12,0 -0.14,-0.06 -0.05,-0.14 0.08,-0.07 0.15,-0.03 0.15,0.09 0,0.02 0.03,0.05 0.07,0.05 0.04,0 0.1,0.02 0.13,0.05 0.03,0.03 0.08,0.06 0.12,0.06 0.03,0 0.05,0.02 0.05,0.04 -0.03,0.07 -0.11,0.08 -0.13,0.02l0 0zm-0.33 -0.24c-0.01,-0.01 -0.03,-0.01 -0.05,0 -0.01,0.02 0,0.03 0.03,0.03 0.02,0 0.04,-0.01 0.02,-0.03l0 0zm1.5 0.17c-0.01,-0.03 0,-0.08 0.02,-0.11 0.02,-0.04 0.03,-0.02 0.03,0.05 0,0.11 -0.02,0.14 -0.05,0.06l0 0zm0.06 -0.31c0,-0.08 0.01,-0.11 0.02,-0.07 0.01,0.05 0.01,0.12 0,0.15 -0.01,0.04 -0.02,0 -0.02,-0.08l0 0zm-3.43 0.07c-0.13,-0.13 -0.03,-0.16 0.41,-0.16 0.44,0 0.44,0 0.33,0.09 -0.13,0.11 -0.18,0.12 -0.32,0.01 -0.11,-0.08 -0.11,-0.08 -0.22,0 -0.12,0.09 -0.16,0.1 -0.2,0.06l0 0zm0.14 -0.12c-0.03,-0.03 -0.13,0.03 -0.11,0.07 0.02,0.03 0.04,0.03 0.08,0 0.03,-0.03 0.04,-0.06 0.03,-0.07l0 0zm0.54 0.03c0,-0.02 -0.05,-0.04 -0.11,-0.04 -0.07,0 -0.1,0.02 -0.09,0.04 0.01,0.02 0.06,0.04 0.11,0.04 0.05,0 0.09,-0.02 0.09,-0.04zm0.38 0c-0.03,-0.02 -0.04,-0.04 -0.03,-0.06 0.04,-0.03 0.14,0.01 0.14,0.06 0,0.05 -0.04,0.05 -0.11,0l0 0zm1.36 -0.08c-0.04,-0.06 -0.04,-0.07 0.02,-0.07 0.1,0 0.13,0.06 0.07,0.11 -0.04,0.03 -0.06,0.02 -0.09,-0.04zm-1.45 -0.24c0.01,-0.03 0.03,-0.05 0.04,-0.05 0.01,0 0.01,0.02 0.01,0.05 0,0.03 -0.01,0.06 -0.03,0.06 -0.02,0 -0.03,-0.03 -0.02,-0.06zm-0.83 -0.69c0.01,-0.02 0.03,-0.04 0.04,-0.04 0.01,0 0.01,0.02 0,0.04 -0.01,0.02 -0.03,0.04 -0.04,0.04 -0.01,0 -0.01,-0.02 0,-0.04zm0.84 0.02c0,-0.01 0.01,-0.02 0.02,-0.02 0.01,0 0.02,0.01 0.02,0.02 0,0.01 -0.01,0.02 -0.02,0.02 -0.01,0 -0.02,-0.01 -0.02,-0.02z"/>
 <path fill="#A8CECE" d="M1.8 3.46c-0.05,-0.05 -0.03,-0.1 0.02,-0.06 0.06,0.05 0.21,-0.07 0.21,-0.18 0,-0.11 -0.09,-0.08 -0.1,0.03 -0.02,0.1 -0.09,0.1 -0.15,0 -0.06,-0.09 -0.06,-0.09 0.02,-0.02 0.07,0.06 0.08,0.06 0.08,0.02 0,-0.25 0.33,-0.25 0.43,0.01 0.01,0.04 0.02,0.03 0.02,-0.02 0.01,-0.18 0.2,-0.26 0.31,-0.14 0.11,0.12 0.11,0.12 0.21,0 0.11,-0.12 0.31,-0.04 0.31,0.13 0,0.05 0.01,0.06 0.07,0.02 0.07,-0.04 0.08,-0.1 0.09,-0.44 0.01,-0.4 0.01,-0.4 0.02,0.02 0.01,0.62 0.11,0.58 0.13,-0.04 0,-0.42 0,-0.42 0.02,-0.01 0.01,0.55 -0.22,0.86 -0.44,0.59 -0.09,-0.11 -0.09,-0.11 -0.19,0.01 -0.11,0.12 -0.3,0.05 -0.3,-0.12 0,-0.05 -0.01,-0.05 -0.04,0.01 -0.13,0.22 -0.22,0.25 -0.34,0.11 -0.09,-0.11 -0.09,-0.11 -0.18,0 -0.08,0.1 -0.15,0.13 -0.2,0.08l0 0zm0.52 -0.08c-0.03,-0.01 -0.06,-0.05 -0.06,-0.1 0,-0.05 -0.03,-0.11 -0.08,-0.15 -0.08,-0.07 -0.15,-0.08 -0.15,-0.02 0,0.02 0.03,0.03 0.06,0.03 0.03,0 0.06,0.04 0.06,0.08 0,0.09 0.15,0.23 0.2,0.19 0.02,-0.01 0.01,-0.03 -0.03,-0.03zm0.5 0c0.04,-0.04 0.07,-0.1 0.08,-0.14 0.02,-0.1 0.11,-0.12 0.11,-0.03 0,0.15 0.17,0.25 0.26,0.16 0.05,-0.05 0.07,-0.09 0.06,-0.11 -0.01,-0.01 -0.04,0 -0.07,0.03 -0.06,0.06 -0.14,0.05 -0.14,-0.02 0,-0.28 -0.3,-0.22 -0.33,0.07 -0.01,0.06 -0.08,0.02 -0.08,-0.04 0,-0.16 -0.17,-0.27 -0.26,-0.17 -0.08,0.09 -0.11,0.22 -0.03,0.19 0.02,-0.01 0.05,-0.05 0.06,-0.1 0.01,-0.1 0.12,-0.1 0.12,0 0,0.06 0.09,0.21 0.14,0.22 0,0 0.04,-0.03 0.08,-0.06l0 0zm-2.31 -0.02c0.07,-0.07 0.19,-0.05 0.26,0.04 0.04,0.05 0.03,0.05 -0.01,0.01 -0.06,-0.05 -0.23,-0.06 -0.28,-0.01 -0.02,0.01 -0.01,0 0.03,-0.04zm0.78 -0.63c0,-0.09 0.01,-0.13 0.02,-0.08 0.01,0.04 0.01,0.12 0,0.16 -0.01,0.05 -0.02,0.01 -0.02,-0.08zm-0.78 -1.33c0.04,-0.03 0.09,-0.06 0.1,-0.06 0.01,0 0.06,0.03 0.1,0.06 0.07,0.06 0.07,0.06 -0.02,0.02 -0.06,-0.03 -0.1,-0.03 -0.16,0 -0.09,0.04 -0.09,0.04 -0.02,-0.02zm1.25 0.01c0.03,-0.02 0.06,-0.03 0.07,-0.02 0.01,0.01 -0.01,0.03 -0.05,0.04 -0.05,0.03 -0.05,0.02 -0.02,-0.02l0 0zm0.1 -0.13c0.03,-0.01 0.09,-0.01 0.13,0 0.03,0.01 0,0.02 -0.07,0.02 -0.07,0 -0.1,-0.01 -0.06,-0.02zm-0.13 -0.03c0,-0.01 0.01,-0.02 0.02,-0.02 0.01,0 0.02,0.01 0.02,0.02 0,0.01 -0.01,0.02 -0.02,0.02 -0.01,0 -0.02,-0.01 -0.02,-0.02zm-0.44 -0.51c0,-0.09 0.01,-0.13 0.02,-0.08 0.01,0.05 0.01,0.12 0,0.17 -0.01,0.04 -0.02,0.01 -0.02,-0.09z"/>
 <path fill="#B0B0B0" d="M0.28 3.68c0.02,-0.01 0.04,-0.01 0.05,0 0.02,0.01 0.01,0.03 -0.02,0.03 -0.03,0 -0.04,-0.02 -0.03,-0.03l0 0zm1.34 -0.07c0.05,-0.05 0.1,-0.09 0.11,-0.09 0.01,0 -0.02,0.04 -0.07,0.09 -0.05,0.05 -0.1,0.1 -0.11,0.1 -0.01,0 0.02,-0.05 0.07,-0.1zm-1.42 -0.05c-0.06,-0.11 -0.05,-0.27 0.02,-0.29 0.04,-0.02 0.05,-0.11 0.05,-0.48 0,-0.62 0,-0.62 0.64,-0.61 0.47,0 0.47,0 0,0.03 -0.47,0.02 -0.47,0.02 -0.03,0.03 0.54,0.01 0.52,-0.01 0.51,0.48 -0.02,0.6 -1.01,0.6 -1.01,-0.01 0,-0.25 -0.01,-0.39 -0.03,-0.39 -0.03,0 -0.04,0.16 -0.03,0.47 0,0.25 -0.01,0.47 -0.02,0.47 -0.02,0 -0.03,0.03 -0.02,0.08 0.01,0.06 0.04,0.08 0.11,0.08 0.06,0 0.09,0.01 0.08,0.03 -0.04,0.06 -0.19,0.03 -0.23,-0.05 -0.04,-0.09 -0.04,-0.09 -0.04,0 0,0.05 0.02,0.12 0.04,0.16 0.02,0.04 0.03,0.07 0.02,0.07 -0.01,0 -0.04,-0.03 -0.06,-0.07l0 0zm0.26 -0.51c0,-0.01 -0.01,-0.02 -0.02,-0.02 -0.01,0 -0.02,0.01 -0.02,0.02 0,0.01 0.01,0.02 0.02,0.02 0.01,0 0.02,-0.01 0.02,-0.02zm0.45 -0.02c0.36,0 0.43,-0.07 0.4,-0.39 -0.03,-0.29 -0.01,-0.28 -0.49,-0.29 -0.22,-0.01 -0.39,-0.01 -0.37,0 0.02,0 0.02,0.14 0.02,0.31 -0.02,0.31 0.02,0.43 0.13,0.39 0.03,-0.01 0.17,-0.02 0.31,-0.02zm0.41 0c0,-0.02 -0.01,-0.04 -0.01,-0.04 -0.01,0 -0.03,0.02 -0.04,0.04 -0.02,0.02 -0.01,0.04 0.01,0.04 0.02,0 0.04,-0.02 0.04,-0.04zm0 -0.69c0,-0.01 -0.01,-0.02 -0.02,-0.02 -0.01,0 -0.02,0.01 -0.02,0.02 0,0.01 0.01,0.02 0.02,0.02 0.01,0 0.02,-0.01 0.02,-0.02zm-0.57 1.11c-0.01,-0.01 0.04,-0.03 0.12,-0.03 0.08,0 0.14,0.02 0.13,0.03 -0.01,0.02 -0.07,0.03 -0.13,0.03 -0.06,0 -0.11,-0.01 -0.12,-0.03zm0.61 -0.07c-0.03,-0.04 -0.09,-0.05 -0.17,-0.04 -0.07,0.01 -0.12,0 -0.11,-0.02 0.01,-0.01 -0.14,-0.03 -0.33,-0.04 -0.19,0 -0.1,-0.01 0.2,-0.01 0.51,0 0.54,0.01 0.54,0.08 0,0.09 -0.06,0.11 -0.13,0.03l0 0zm0.11 -0.05c0,-0.02 -0.04,-0.04 -0.08,-0.04 -0.07,0 -0.08,0.01 -0.03,0.04 0.07,0.05 0.11,0.05 0.11,0zm1.25 0.09c0.02,-0.02 0.04,-0.02 0.05,0 0.02,0.01 0,0.02 -0.02,0.02 -0.03,0 -0.04,-0.01 -0.03,-0.02l0 0zm0.48 0c0,-0.01 0,-0.01 0.02,-0.01 0.01,0 0.01,0 0.01,0.01 0,0.01 0,0.02 -0.01,0.02 -0.02,0 -0.02,-0.01 -0.02,-0.02zm-1.45 -0.05c0.02,-0.02 0.06,-0.04 0.11,-0.04 0.09,0 0.07,0.03 -0.05,0.06 -0.04,0 -0.07,0 -0.06,-0.02l0 0zm0.58 0.02c0,-0.01 0.01,-0.02 0.02,-0.02 0.01,0 0.02,0.01 0.02,0.02 0,0.01 -0.01,0.02 -0.02,0.02 -0.01,0 -0.02,-0.01 -0.02,-0.02zm0.77 -0.03c-0.01,-0.01 0.02,-0.03 0.08,-0.03 0.11,0 0.12,0.02 0.02,0.05 -0.04,0.01 -0.09,0 -0.1,-0.02l0 0zm-0.88 -0.01c0,-0.01 0.01,-0.02 0.02,-0.02 0.01,0 0.02,0.01 0.02,0.02 0,0.01 -0.01,0.02 -0.02,0.02 -0.01,0 -0.02,-0.01 -0.02,-0.02zm0.46 -0.06c0,-0.05 0.01,-0.07 0.02,-0.04 0.01,0.02 0.01,0.06 0,0.09 -0.01,0.03 -0.02,0 -0.02,-0.05zm0.1 0.04c0,-0.02 0.02,-0.03 0.04,-0.02 0.02,0.01 0.04,0.03 0.04,0.04 0,0.01 -0.02,0.02 -0.04,0.02 -0.02,0 -0.04,-0.02 -0.04,-0.04zm-0.78 -0.02c0,-0.01 0.01,-0.02 0.02,-0.02 0.01,0 0.01,0.01 0.01,0.02 0,0.01 0,0.02 -0.01,0.02 -0.01,0 -0.02,-0.01 -0.02,-0.02zm0.15 0c0,-0.01 0.01,-0.02 0.02,-0.02 0.01,0 0.01,0.01 0.01,0.02 0,0.01 0,0.02 -0.01,0.02 -0.01,0 -0.02,-0.01 -0.02,-0.02zm1.16 0c0,-0.01 0.01,-0.02 0.02,-0.02 0.01,0 0.02,0.01 0.02,0.02 0,0.01 -0.01,0.02 -0.02,0.02 -0.01,0 -0.02,-0.01 -0.02,-0.02zm-1.54 -0.04c0,-0.01 0.01,-0.01 0.02,-0.01 0.01,0 0.02,0 0.02,0.01 0,0.01 -0.01,0.02 -0.02,0.02 -0.01,0 -0.02,-0.01 -0.02,-0.02zm0.68 0c0,-0.01 0.01,-0.01 0.02,-0.01 0.01,0 0.01,0 0.01,0.01 0,0.01 0,0.02 -0.01,0.02 -0.01,0 -0.02,-0.01 -0.02,-0.02zm0.56 0c0,-0.01 0.01,-0.01 0.02,-0.01 0.01,0 0.02,0 0.02,0.01 0,0.01 -0.01,0.02 -0.02,0.02 -0.01,0 -0.02,-0.01 -0.02,-0.02zm-0.23 -0.03c0,-0.01 0.01,-0.02 0.02,-0.02 0.01,0 0.02,0.01 0.02,0.02 0,0.01 -0.01,0.02 -0.02,0.02 -0.01,0 -0.02,-0.01 -0.02,-0.02zm0.57 0c0,-0.01 0,-0.02 0.02,-0.02 0.01,0 0.01,0.01 0.01,0.02 0,0.01 0,0.02 -0.01,0.02 -0.02,0 -0.02,-0.01 -0.02,-0.02zm-1.7 -0.13c-0.04,-0.05 -0.04,-0.06 0.02,-0.01 0.03,0.03 0.06,0.06 0.06,0.07 0,0.03 -0.03,0.01 -0.08,-0.06l0 0zm0.8 0.05c0,-0.01 0.01,-0.02 0.02,-0.02 0.01,0 0.01,0.01 0.01,0.02 0,0.01 0,0.02 -0.01,0.02 -0.01,0 -0.02,-0.01 -0.02,-0.02zm0.18 0c0,-0.01 0.01,-0.02 0.02,-0.02 0.01,0 0.02,0.01 0.02,0.02 0,0.01 -0.01,0.02 -0.02,0.02 -0.01,0 -0.02,-0.01 -0.02,-0.02zm0.19 0c0,-0.01 0.01,-0.02 0.02,-0.02 0.01,0 0.02,0.01 0.02,0.02 0,0.01 -0.01,0.02 -0.02,0.02 -0.01,0 -0.02,-0.01 -0.02,-0.02zm0.08 -0.02c0,-0.02 0.01,-0.04 0.02,-0.02 0.02,0.01 0.02,0.03 0,0.05 -0.01,0.01 -0.02,0 -0.02,-0.03l0 0zm0.09 0c-0.02,-0.03 -0.01,-0.04 0.01,-0.02 0.05,0.03 0.06,0.06 0.03,0.06 -0.01,0 -0.03,-0.02 -0.04,-0.04l0 0zm-0.88 -0.03c0,-0.03 0.01,-0.04 0.02,-0.03 0.02,0.01 0.02,0.04 0,0.05 -0.01,0.01 -0.02,0 -0.02,-0.02l0 0zm0.45 0.01c0,-0.01 0.01,-0.01 0.02,-0.01 0.01,0 0.02,0 0.02,0.01 0,0.01 -0.01,0.02 -0.02,0.02 -0.01,0 -0.02,-0.01 -0.02,-0.02zm-0.04 -0.07c0,-0.01 0.01,-0.02 0.02,-0.02 0.01,0 0.02,0.01 0.02,0.02 0,0.01 -0.01,0.02 -0.02,0.02 -0.01,0 -0.02,-0.01 -0.02,-0.02zm0.41 0c0,-0.01 0.01,-0.02 0.02,-0.02 0.01,0 0.02,0.01 0.02,0.02 0,0.01 -0.01,0.02 -0.02,0.02 -0.01,0 -0.02,-0.01 -0.02,-0.02zm-0.49 -0.38c-0.05,-0.07 -0.04,-0.07 0.03,-0.02 0.04,0.03 0.08,0.06 0.09,0.07 0,0.01 -0.01,0.01 -0.03,0.01 -0.02,0 -0.06,-0.03 -0.09,-0.06zm0.31 0.05c0,-0.01 0.03,-0.04 0.06,-0.07 0.06,-0.05 0.06,-0.04 0.02,0.02 -0.05,0.06 -0.08,0.08 -0.08,0.05l0 0zm-0.53 -0.17c-0.05,-0.06 -0.05,-0.06 0.01,-0.01 0.04,0.03 0.07,0.06 0.07,0.06 0,0.03 -0.03,0.02 -0.08,-0.05l0 0zm0.75 0.05c0,0 0.03,-0.03 0.07,-0.06 0.06,-0.05 0.06,-0.05 0.01,0.01 -0.05,0.07 -0.08,0.08 -0.08,0.05zm-0.49 -0.09c0,-0.02 -0.03,-0.04 -0.07,-0.04 -0.04,0 -0.1,-0.03 -0.13,-0.06 -0.03,-0.03 -0.08,-0.05 -0.11,-0.05 -0.03,0 -0.07,-0.03 -0.1,-0.06 -0.02,-0.03 -0.08,-0.06 -0.13,-0.06 -0.07,0 -0.09,-0.02 -0.12,-0.14 -0.03,-0.2 -0.06,-0.23 -0.09,-0.08 -0.02,0.13 -0.02,0.13 -0.03,-0.01 0,-0.1 0.02,-0.15 0.05,-0.17 0.04,-0.01 0.06,-0.07 0.06,-0.16 0,-0.08 0.02,-0.16 0.04,-0.17 0.02,-0.01 0.03,-0.05 0.02,-0.08 -0.02,-0.05 -0.02,-0.05 0.03,-0.01 0.06,0.04 0.06,0.05 0,0.11 -0.04,0.05 -0.06,0.11 -0.05,0.19 0.01,0.06 0.01,0.11 -0.01,0.12 -0.02,0.01 -0.02,0.07 -0.01,0.13 0.02,0.1 0.04,0.12 0.08,0.08 0.02,-0.02 0.07,-0.03 0.09,-0.02 0.04,0.01 0.03,0.02 -0.01,0.02 -0.07,0.01 -0.09,0.05 -0.04,0.09 0.01,0.02 0.05,0.01 0.08,-0.02 0.04,-0.04 0.05,-0.03 0.03,0.04 -0.02,0.04 -0.01,0.09 0.01,0.1 0.02,0.01 0.04,0 0.04,-0.03 0,-0.04 0.03,-0.07 0.06,-0.09 0.07,-0.02 0.14,0.06 0.09,0.12 -0.03,0.03 -0.01,0.07 0.03,0.11 0.07,0.06 0.07,0.06 0.05,-0.03 -0.01,-0.08 0,-0.1 0.06,-0.1 0.09,0 0.13,0.09 0.08,0.14 -0.02,0.03 -0.02,0.06 0.02,0.09 0.05,0.04 0.06,0.03 0.06,-0.07 0,-0.06 0.02,-0.13 0.04,-0.14 0.03,-0.02 0.03,-0.04 -0.02,-0.06 -0.06,-0.02 -0.04,-0.03 0.06,-0.03 0.16,0 0.21,0.1 0.06,0.12 -0.07,0.01 -0.09,0.04 -0.1,0.13 -0.01,0.11 -0.12,0.19 -0.12,0.09l0 0zm-0.03 -0.19c0,-0.02 -0.02,-0.04 -0.04,-0.04 -0.02,0 -0.04,0.02 -0.04,0.04 0,0.02 0.02,0.04 0.04,0.04 0.02,0 0.04,-0.02 0.04,-0.04zm-0.3 -0.02c0,-0.01 -0.01,-0.02 -0.02,-0.02 -0.01,0 -0.02,0.01 -0.02,0.02 0,0.01 0.01,0.02 0.02,0.02 0.01,0 0.02,-0.01 0.02,-0.02zm0.08 -0.11c-0.05,-0.04 -0.1,-0.01 -0.07,0.05 0.02,0.02 0.05,0.03 0.07,0.02 0.02,-0.02 0.02,-0.04 0,-0.07zm-0.31 0c0,-0.01 -0.01,-0.02 -0.02,-0.02 -0.01,0 -0.02,0.01 -0.02,0.02 0,0.01 0.01,0.02 0.02,0.02 0.01,0 0.02,-0.01 0.02,-0.02zm0.07 0.25c-0.04,-0.06 -0.04,-0.06 0.02,-0.01 0.03,0.02 0.06,0.05 0.06,0.06 0,0.03 -0.03,0.01 -0.08,-0.05zm1.21 0.05c0,-0.01 0.03,-0.04 0.06,-0.06 0.06,-0.05 0.06,-0.05 0.02,0.01 -0.05,0.06 -0.08,0.08 -0.08,0.05zm-1.39 -0.12c0,-0.01 0.01,-0.01 0.02,-0.01 0.01,0 0.02,0 0.02,0.01 0,0.01 -0.01,0.02 -0.02,0.02 -0.01,0 -0.02,-0.01 -0.02,-0.02zm1.65 -0.01c0,-0.02 0.02,-0.05 0.04,-0.06 0.02,-0.01 0.02,0 0.01,0.04 -0.02,0.06 -0.05,0.07 -0.05,0.02zm-1.9 -0.09c-0.01,-0.02 -0.01,-0.03 0.02,-0.01 0.04,0.03 0.06,0.06 0.03,0.06 -0.01,0 -0.03,-0.02 -0.05,-0.05l0 0zm0.21 0.03c0,-0.01 0.01,-0.02 0.02,-0.02 0.01,0 0.02,0.01 0.02,0.02 0,0.01 -0.01,0.02 -0.02,0.02 -0.01,0 -0.02,-0.01 -0.02,-0.02zm-0.07 -0.04c0,-0.01 0.01,-0.02 0.02,-0.02 0.01,0 0.01,0.01 0.01,0.02 0,0.01 0,0.02 -0.01,0.02 -0.01,0 -0.02,-0.01 -0.02,-0.02zm1.98 -0.25c0.02,-0.27 0.02,-0.27 0.03,-0.03 0.01,0.13 0,0.25 -0.02,0.27 -0.01,0.01 -0.02,-0.09 -0.01,-0.24l0 0zm-2.25 0.2c-0.03,-0.03 -0.03,-0.04 -0.01,-0.04 0.03,0 0.06,0.02 0.07,0.04 0.03,0.04 0.02,0.04 -0.06,0zm1.02 -0.07c0,-0.03 -0.04,-0.05 -0.09,-0.05 -0.07,0 -0.07,-0.01 -0.01,-0.02 0.07,-0.02 0.16,0.04 0.12,0.09 -0.01,0.01 -0.02,0 -0.02,-0.02l0 0zm0.39 -0.01c0.01,-0.02 0.06,-0.04 0.1,-0.04 0.04,0 0.07,0.02 0.07,0.04 0,0.02 -0.04,0.04 -0.1,0.04 -0.05,0 -0.08,-0.02 -0.07,-0.04zm-0.62 -0.11c0,-0.02 -0.04,-0.04 -0.08,-0.04 -0.07,-0.01 -0.07,-0.01 -0.02,-0.03 0.08,-0.01 0.17,0.05 0.13,0.09 -0.02,0.02 -0.03,0.01 -0.03,-0.02l0 0zm0.83 0c0,-0.02 0.04,-0.04 0.09,-0.04 0.05,0 0.09,0.02 0.09,0.04 0,0.02 -0.04,0.04 -0.09,0.04 -0.05,0 -0.09,-0.02 -0.09,-0.04zm-1.08 -0.14c-0.03,-0.03 -0.03,-0.05 -0.01,-0.05 0.03,0 0.09,0.07 0.07,0.09 -0.01,0.01 -0.04,-0.01 -0.06,-0.04zm1.3 0.03c0,-0.02 0.04,-0.04 0.1,-0.04 0.05,0 0.09,0.02 0.09,0.04 0,0.02 -0.04,0.03 -0.09,0.03 -0.06,0 -0.1,-0.01 -0.1,-0.03zm-0.65 -0.12c0.01,-0.02 0.03,-0.03 0.04,-0.03 0.01,0 0.01,0.01 -0.01,0.03 -0.01,0.02 -0.03,0.04 -0.04,0.04 -0.01,0 -0.01,-0.02 0.01,-0.04zm-2.3 -0.06c0.02,-0.01 0.04,-0.01 0.05,0 0.02,0.01 0,0.03 -0.02,0.03 -0.03,0 -0.04,-0.02 -0.03,-0.03l0 0zm1.19 0.01c0,-0.01 0.03,-0.02 0.06,-0.04 0.03,-0.01 0.05,0 0.03,0.02 -0.02,0.03 -0.09,0.05 -0.09,0.02l0 0zm2.12 -0.06c-0.01,-0.02 -0.01,-0.04 0.01,-0.05 0.02,-0.01 0.03,0 0.03,0.03 0,0.07 -0.01,0.07 -0.04,0.02l0 0zm-3.42 -0.08c-0.07,-0.09 -0.06,-0.24 0.01,-0.29 0.04,-0.04 0.05,-0.15 0.05,-0.5 0,-0.59 0.74,-0.93 1.22,-0.57 0.04,0.03 0.05,0.05 0.03,0.05 -0.02,0 -0.05,-0.01 -0.07,-0.03 -0.03,-0.05 -0.99,-0.05 -0.99,0 0,0.02 0.19,0.04 0.46,0.04 0.44,0.01 0.79,0.74 0.39,0.84 -0.56,0.14 -0.91,-0.01 -0.92,-0.39 -0.01,-0.54 -0.08,-0.49 -0.08,0.07 0,0.32 0.01,0.45 0.05,0.46 0.02,0.01 0.01,0.02 -0.02,0.02 -0.05,0.01 -0.07,0.03 -0.06,0.09 0.01,0.07 0.03,0.08 0.12,0.08 0.11,-0.01 0.11,-0.01 0.03,0.03 -0.08,0.04 -0.1,0.03 -0.16,-0.04 -0.07,-0.09 -0.07,-0.09 -0.07,0 0,0.05 0.02,0.11 0.04,0.14 0.03,0.02 0.04,0.05 0.03,0.06 -0.01,0.01 -0.04,-0.02 -0.06,-0.06l0 0zm1.11 -0.54c0,-0.03 0,-0.05 -0.01,-0.05 -0.01,0 -0.03,0.02 -0.04,0.05 -0.01,0.03 0,0.06 0.02,0.06 0.02,0 0.03,-0.03 0.03,-0.06zm-0.31 -0.02c0.51,0 0.46,-0.65 -0.05,-0.67 -0.48,-0.01 -0.5,0 -0.5,0.37 0,0.34 0.01,0.36 0.19,0.33 0.07,-0.02 0.23,-0.03 0.36,-0.03l0 0zm-0.53 -0.67c0.01,-0.02 0.01,-0.04 0,-0.04 -0.01,0 -0.03,0.02 -0.04,0.04 -0.01,0.02 -0.01,0.04 0,0.04 0.01,0 0.03,-0.02 0.04,-0.04zm1.2 1.23c0.01,-0.04 0.04,-0.06 0.05,-0.05 0.01,0.01 0,0.04 -0.03,0.07 -0.04,0.03 -0.04,0.03 -0.02,-0.02l0 0zm0.73 0.02c0,-0.01 0.01,-0.01 0.02,-0.01 0.01,0 0.02,0 0.02,0.01 0,0.02 -0.01,0.02 -0.02,0.02 -0.01,0 -0.02,0 -0.02,-0.02zm0.09 -0.08c0.01,-0.01 0.03,-0.01 0.05,0 0.01,0.02 0,0.03 -0.03,0.03 -0.03,0 -0.04,-0.01 -0.02,-0.03l0 0zm1.19 -0.14c0,-0.1 0.01,-0.14 0.02,-0.08 0.01,0.05 0.01,0.14 0,0.18 -0.01,0.05 -0.02,0 -0.02,-0.1l0 0zm-2.92 0.1c-0.02,-0.01 0.02,-0.03 0.1,-0.03 0.08,0 0.14,0.02 0.13,0.03 -0.02,0.04 -0.17,0.04 -0.23,0l0 0zm0.61 -0.06c-0.01,-0.04 0,-0.05 0.04,-0.03 0.05,0.02 0.06,0.01 0.04,-0.04 -0.01,-0.04 -0.01,-0.06 0.02,-0.06 0.05,0 0.02,0.16 -0.03,0.17 -0.02,0.01 -0.05,-0.01 -0.07,-0.04l0 0zm0.84 0.03c0,-0.01 0.01,-0.01 0.02,-0.01 0.01,0 0.02,0 0.02,0.01 0,0.02 -0.01,0.02 -0.02,0.02 -0.01,0 -0.02,0 -0.02,-0.02zm0.19 -0.01c0,-0.03 0.01,-0.04 0.02,-0.03 0.02,0.01 0.02,0.04 0,0.05 -0.01,0.01 -0.02,0 -0.02,-0.02l0 0zm0.19 0c0,-0.02 0.01,-0.04 0.04,-0.04 0.02,0 0.03,0.02 0.01,0.04 -0.01,0.02 -0.03,0.03 -0.04,0.03 -0.01,0 -0.01,-0.01 -0.01,-0.03zm0.33 -0.02c0,-0.01 0.01,-0.02 0.02,-0.02 0.01,0 0.02,0.01 0.02,0.02 0,0.01 -0.01,0.02 -0.02,0.02 -0.01,0 -0.02,-0.01 -0.02,-0.02zm-1.91 -0.04c0,-0.01 0.01,-0.02 0.02,-0.02 0.01,0 0.02,0.01 0.02,0.02 0,0.01 -0.01,0.02 -0.02,0.02 -0.01,0 -0.02,-0.01 -0.02,-0.02zm0.1 -0.06c0.01,-0.02 0.06,-0.03 0.11,-0.03 0.05,0 0.09,0.01 0.09,0.03 0,0.02 -0.05,0.04 -0.11,0.04 -0.07,0 -0.11,-0.01 -0.09,-0.04zm1.18 0c0,-0.02 0.01,-0.04 0.02,-0.02 0.02,0.01 0.02,0.03 0,0.05 -0.01,0.01 -0.02,0 -0.02,-0.03l0 0zm0.2 0c-0.01,-0.02 0,-0.03 0.02,-0.03 0.02,0 0.04,0.01 0.04,0.03 0,0.02 -0.01,0.04 -0.02,0.04 -0.01,0 -0.02,-0.02 -0.04,-0.04zm0.16 -0.03c-0.03,-0.04 -0.05,-0.08 -0.04,-0.09 0.04,-0.04 0.24,-0.03 0.24,0.01 0,0.01 -0.05,0.02 -0.1,0.01 -0.1,-0.02 -0.1,-0.01 -0.06,0.04 0.08,0.09 0.04,0.11 -0.04,0.03l0 0zm-0.89 -0.02c0,-0.01 0.01,-0.02 0.02,-0.02 0.01,0 0.02,0.01 0.02,0.02 0,0.01 -0.01,0.02 -0.02,0.02 -0.01,0 -0.02,-0.01 -0.02,-0.02zm0.31 -0.02c0.05,-0.03 0.07,-0.09 0.07,-0.21 0,-0.32 0.66,-0.64 0.76,-0.37 0.01,0.03 0.06,0.05 0.11,0.05 0.05,0 0.1,0.03 0.11,0.06 0.02,0.03 0.06,0.06 0.1,0.06 0.04,0 0.12,0.04 0.18,0.09 0.05,0.05 0.08,0.09 0.06,0.09 -0.02,0 -0.07,-0.03 -0.1,-0.07 -0.04,-0.04 -0.1,-0.08 -0.14,-0.08 -0.03,0 -0.08,-0.02 -0.11,-0.05 -0.02,-0.03 -0.07,-0.06 -0.11,-0.06 -0.04,0 -0.09,-0.02 -0.11,-0.05 -0.2,-0.24 -0.7,0.02 -0.72,0.37 -0.01,0.15 -0.03,0.19 -0.09,0.2 -0.07,0.01 -0.07,0.01 -0.01,-0.03l0 0zm0.33 -0.02c0,-0.01 0.01,-0.02 0.02,-0.02 0.01,0 0.02,0.01 0.02,0.02 0,0.01 -0.01,0.02 -0.02,0.02 -0.01,0 -0.02,-0.01 -0.02,-0.02zm-0.76 -0.08c-0.04,-0.06 -0.04,-0.07 0.02,-0.02 0.06,0.05 0.08,0.08 0.05,0.08 -0.01,0 -0.04,-0.03 -0.07,-0.06l0 0zm2 0.01c0,-0.02 0,-0.02 0.01,-0.02 0.02,0 0.02,0 0.02,0.02 0,0.01 0,0.01 -0.02,0.01 -0.01,0 -0.01,0 -0.01,-0.01zm-0.1 -0.1c-0.02,-0.03 -0.01,-0.04 0.02,-0.02 0.04,0.03 0.05,0.06 0.02,0.06 -0.01,0 -0.03,-0.02 -0.04,-0.04l0 0zm-1.97 -0.73c0,-0.01 0.01,-0.02 0.02,-0.02 0.01,0 0.02,0.01 0.02,0.02 0,0.01 -0.01,0.02 -0.02,0.02 -0.01,0 -0.02,-0.01 -0.02,-0.02z"/>
 <path fill="#E3E418" d="M2.47 1.94c-0.02,-0.02 -0.06,-0.03 -0.1,-0.03 -0.03,0 -0.09,-0.03 -0.11,-0.06 -0.03,-0.03 -0.08,-0.06 -0.11,-0.06 -0.15,0 -0.25,-0.17 -0.15,-0.28 0.1,-0.1 0.19,-0.13 0.1,-0.02 -0.08,0.08 -0.05,0.12 0.07,0.12 0.06,0 0.09,-0.03 0.09,-0.06 0,-0.07 0.08,-0.06 0.1,0.01 0.01,0.03 -0.01,0.05 -0.04,0.05 -0.1,0 -0.05,0.09 0.05,0.1 0.11,0.02 0.24,0.15 0.21,0.22 -0.02,0.06 -0.08,0.07 -0.11,0.01l0 0zm0.01 -0.26c0,-0.07 0.36,-0.37 0.44,-0.37 0.13,0 0.11,0.03 -0.09,0.23 -0.16,0.16 -0.35,0.24 -0.35,0.14l0 0zm-0.27 -0.37c0.05,-0.05 0.1,-0.08 0.11,-0.08 0.01,0 0,0.03 -0.04,0.08 -0.04,0.04 -0.09,0.07 -0.11,0.07 -0.02,0 0,-0.03 0.04,-0.07zm1.13 0.01c-0.03,-0.04 -0.07,-0.12 -0.1,-0.17 -0.03,-0.08 -0.07,-0.11 -0.16,-0.11 -0.08,0 -0.16,-0.04 -0.25,-0.11 -0.11,-0.09 -0.15,-0.11 -0.24,-0.1 -0.08,0.02 -0.11,0.01 -0.1,-0.02 0.03,-0.07 0.35,-0.08 0.4,-0.01 0.03,0.03 0.08,0.06 0.12,0.06 0.04,0 0.09,0.02 0.11,0.05 0.03,0.03 0.08,0.06 0.12,0.06 0.07,0 0.29,0.26 0.29,0.35 0,0.08 -0.12,0.08 -0.19,0l0 0zm-0.82 -0.18c0,-0.05 0.11,-0.11 0.14,-0.08 0.01,0.01 0.01,0.04 0,0.08 -0.03,0.07 -0.14,0.07 -0.14,0zm-0.25 -0.15c-0.03,-0.08 0.02,-0.13 0.11,-0.13 0.05,0 0.07,0.02 0.06,0.08 -0.01,0.1 -0.13,0.14 -0.17,0.05l0 0z"/>
 <path fill="#919191" d="M0.64 3.68c0.17,-0.01 0.45,-0.01 0.62,0 0.17,0 0.03,0.01 -0.31,0.01 -0.34,0 -0.48,-0.01 -0.31,-0.01zm-0.37 -0.03c0,-0.01 0.01,-0.02 0.02,-0.02 0.01,0 0.02,0.01 0.02,0.02 0,0.01 -0.01,0.02 -0.02,0.02 -0.01,0 -0.02,-0.01 -0.02,-0.02zm1.33 -0.06c0.02,-0.02 0.03,-0.03 0.05,-0.03 0.01,0 0,0.01 -0.01,0.03 -0.01,0.02 -0.03,0.04 -0.04,0.04 -0.01,0 -0.01,-0.02 0,-0.04zm-1.38 -0.05c-0.04,-0.12 -0.03,-0.25 0.02,-0.14 0.04,0.07 0.07,0.08 0.15,0.07 0.06,-0.01 0.11,0 0.11,0.02 0,0.01 -0.05,0.03 -0.11,0.03 -0.06,0 -0.12,0.02 -0.13,0.04 -0.01,0.03 -0.02,0.02 -0.04,-0.02l0 0zm0.5 -0.05c0,-0.02 0.06,-0.03 0.12,-0.02 0.09,0.02 0.13,0 0.17,-0.05 0.06,-0.07 0.06,-0.07 0.04,0 -0.02,0.04 -0.03,0.07 -0.03,0.08 0,0.01 -0.07,0.02 -0.15,0.02 -0.08,0 -0.15,-0.02 -0.15,-0.03zm0.66 -0.03c-0.03,-0.09 -0.02,-0.12 0.01,-0.06 0.05,0.07 0.13,0.01 0.11,-0.07 -0.01,-0.04 -0.01,-0.07 0.01,-0.07 0.04,0 0.05,0.11 0.01,0.2 -0.01,0.03 -0.04,0.06 -0.07,0.06 -0.02,0 -0.06,-0.03 -0.07,-0.06zm0.32 0c0,-0.05 0.01,-0.05 0.02,-0.02 0.01,0.02 0.01,0.06 0,0.07 -0.01,0.01 -0.02,-0.01 -0.02,-0.05zm-0.56 -0.12c0.04,-0.01 0.1,-0.01 0.14,0 0.03,0.01 0,0.02 -0.07,0.02 -0.07,0 -0.1,-0.01 -0.07,-0.02zm1.46 -0.03c0,-0.01 0.01,-0.02 0.02,-0.02 0.01,0 0.01,0.01 0.01,0.02 0,0.01 0,0.02 -0.01,0.02 -0.01,0 -0.02,-0.01 -0.02,-0.02zm0.63 0c0,-0.01 0.01,-0.02 0.02,-0.02 0.01,0 0.02,0.01 0.02,0.02 0,0.01 -0.01,0.02 -0.02,0.02 -0.01,0 -0.02,-0.01 -0.02,-0.02zm-2.9 -0.08c-0.04,-0.04 -0.02,-0.91 0.02,-0.91 0.03,0 0.04,0.14 0.03,0.45 -0.01,0.27 0,0.45 0.02,0.46 0.03,0.01 0.03,0.02 0,0.02 -0.02,0 -0.05,-0.01 -0.07,-0.02l0 0zm1.33 -0.06c-0.07,-0.08 -0.08,-0.12 -0.07,-0.48 0.02,-0.39 0.02,-0.39 0.02,0 0.01,0.34 0.02,0.4 0.09,0.48 0.05,0.05 0.08,0.09 0.07,0.09 -0.01,0 -0.06,-0.04 -0.11,-0.09l0 0zm-1.02 -0.05c0.13,-0.01 0.34,-0.01 0.47,0 0.13,0 0.02,0.01 -0.24,0.01 -0.26,0 -0.36,-0.01 -0.23,-0.01l0 0zm2.29 0c0,-0.01 0.01,-0.01 0.02,-0.01 0.01,0 0.02,0 0.02,0.01 0,0.01 -0.01,0.02 -0.02,0.02 -0.01,0 -0.02,-0.01 -0.02,-0.02zm-1.54 -0.4c0.02,-0.49 0.03,-0.47 -0.51,-0.48 -0.44,-0.01 -0.44,-0.01 0.03,-0.03 0.41,-0.02 0.8,0.02 0.59,0.06 -0.06,0.01 -0.07,0.07 -0.07,0.4 0,0.22 -0.01,0.4 -0.02,0.41 -0.02,0.01 -0.03,-0.15 -0.02,-0.36l0 0zm-0.88 0.3c-0.05,-0.05 -0.07,-0.61 -0.02,-0.64 0.01,-0.01 0.03,0.13 0.03,0.31 0,0.3 0,0.32 0.07,0.31 0.04,-0.01 0.19,-0.02 0.34,-0.03 0.18,-0.01 0.27,-0.04 0.31,-0.08 0.02,-0.03 0.04,-0.04 0.04,-0.02 0,0.11 -0.12,0.16 -0.37,0.16 -0.14,0 -0.28,0.01 -0.31,0.02 -0.03,0.01 -0.07,0 -0.09,-0.03l0 0zm2.1 -0.32c0.03,0 0.08,0 0.11,0.01 0.02,0.01 -0.01,0.01 -0.07,0.01 -0.06,0 -0.08,-0.01 -0.04,-0.02zm-0.14 -0.04c-0.02,-0.02 -0.06,-0.04 -0.1,-0.04 -0.03,0 -0.09,-0.03 -0.11,-0.06 -0.03,-0.03 -0.08,-0.05 -0.11,-0.05 -0.04,0 -0.09,-0.03 -0.12,-0.06 -0.02,-0.03 -0.07,-0.06 -0.11,-0.06 -0.04,0 -0.08,-0.01 -0.09,-0.03 -0.03,-0.05 0.16,0 0.21,0.06 0.02,0.02 0.07,0.05 0.11,0.05 0.03,0 0.08,0.02 0.11,0.05 0.06,0.07 0.23,0.08 0.21,0.01 -0.01,-0.02 0,-0.03 0,-0.01 0.05,0.07 0.12,0.01 0.13,-0.1 0.01,-0.09 0.04,-0.12 0.1,-0.13 0.05,-0.01 0.08,-0.05 0.1,-0.12 0.02,-0.12 0.06,-0.13 0.33,-0.12 0.06,0.01 0.1,-0.01 0.1,-0.03 0,-0.02 -0.04,-0.04 -0.1,-0.04 -0.1,-0.01 -0.1,-0.01 -0.01,-0.03 0.05,-0.01 0.11,-0.04 0.13,-0.07 0.01,-0.03 0.06,-0.05 0.11,-0.05 0.05,0 0.1,-0.02 0.13,-0.04 0.06,-0.06 0.06,0 0.01,0.13 -0.03,0.06 -0.07,0.1 -0.12,0.1 -0.04,0 -0.07,0.01 -0.07,0.04 0,0.02 -0.05,0.04 -0.1,0.06 -0.06,0.01 -0.13,0.05 -0.16,0.07 -0.02,0.03 -0.08,0.05 -0.12,0.05 -0.04,0 -0.07,0.02 -0.07,0.04 0,0.02 -0.04,0.05 -0.09,0.06 -0.06,0.01 -0.1,0.05 -0.11,0.1 0,0.05 -0.05,0.1 -0.09,0.12 -0.05,0.02 -0.08,0.06 -0.07,0.09 0.02,0.05 0,0.06 -0.03,0.01zm0.54 -0.53c0,-0.02 -0.03,-0.04 -0.07,-0.04 -0.04,0 -0.09,0.02 -0.1,0.04 -0.01,0.02 0.02,0.04 0.07,0.04 0.06,0 0.1,-0.02 0.1,-0.04zm0.45 -0.22c0,-0.02 -0.04,-0.04 -0.09,-0.04 -0.06,0 -0.1,0.02 -0.1,0.04 0,0.02 0.04,0.03 0.1,0.03 0.05,0 0.09,-0.01 0.09,-0.03zm-0.65 0.7c0.02,-0.02 0.07,-0.03 0.11,-0.02 0.05,0.01 0.04,0.02 -0.04,0.03 -0.06,0.02 -0.09,0.01 -0.07,-0.01l0 0zm0.2 -0.09c0,-0.01 0.01,-0.01 0.02,-0.01 0.01,0 0.02,0 0.02,0.01 0,0.01 -0.01,0.02 -0.02,0.02 -0.01,0 -0.02,-0.01 -0.02,-0.02zm-1.76 -0.03c0,-0.01 0.01,-0.02 0.02,-0.02 0.01,0 0.01,0.01 0.01,0.02 0,0.01 0,0.02 -0.01,0.02 -0.01,0 -0.02,-0.01 -0.02,-0.02zm1.86 -0.01c0.03,-0.01 0.06,-0.01 0.08,0 0.01,0.02 -0.01,0.02 -0.05,0.02 -0.05,0 -0.06,-0.01 -0.03,-0.02zm-0.84 -0.04c0.02,-0.01 0.04,-0.01 0.05,0 0.02,0.02 0,0.03 -0.02,0.03 -0.03,0 -0.04,-0.01 -0.03,-0.03l0 0zm-1.05 -0.05c-0.01,-0.03 -0.01,-0.04 0.02,-0.02 0.04,0.03 0.06,0.06 0.03,0.06 -0.01,0 -0.03,-0.02 -0.05,-0.04l0 0zm2.01 0.02c0,-0.01 0.01,-0.02 0.02,-0.02 0.01,0 0.02,0.01 0.02,0.02 0,0.01 -0.01,0.02 -0.02,0.02 -0.01,0 -0.02,-0.01 -0.02,-0.02zm0.08 0c0,-0.01 0.01,-0.02 0.02,-0.02 0.01,0 0.02,0.01 0.02,0.02 0,0.01 -0.01,0.02 -0.02,0.02 -0.01,0 -0.02,-0.01 -0.02,-0.02zm-1.11 -0.04c0.01,-0.02 0.03,-0.02 0.05,0 0.01,0.01 0,0.02 -0.03,0.02 -0.03,0 -0.04,-0.01 -0.02,-0.02l0 0zm-0.2 -0.07c-0.02,-0.03 -0.03,-0.06 -0.01,-0.06 0.02,0 0.06,0.03 0.08,0.06 0.06,0.07 0,0.07 -0.07,0l0 0zm1.46 0c0,-0.01 0.01,-0.02 0.02,-0.02 0.01,0 0.02,0.01 0.02,0.02 0,0.01 -0.01,0.02 -0.02,0.02 -0.01,0 -0.02,-0.01 -0.02,-0.02zm-1.74 -0.05c-0.03,-0.05 0.02,-0.35 0.05,-0.32 0.05,0.05 0.06,0.32 0.01,0.34 -0.02,0.01 -0.05,0 -0.06,-0.02zm0.09 -0.06c0,-0.03 -0.02,-0.06 -0.04,-0.06 -0.02,0 -0.04,0.03 -0.04,0.06 0,0.03 0.02,0.05 0.04,0.05 0.02,0 0.04,-0.02 0.04,-0.05zm1.76 0.08c0,-0.01 0.03,-0.03 0.06,-0.04 0.03,-0.01 0.05,-0.01 0.03,0.01 -0.02,0.04 -0.09,0.06 -0.09,0.03l0 0zm-1.07 -0.13c0.01,-0.01 0.03,-0.01 0.05,0 0.01,0.02 0,0.03 -0.03,0.03 -0.03,0 -0.04,-0.01 -0.02,-0.03l0 0zm-0.05 -0.07c0,-0.01 0.01,-0.01 0.02,-0.01 0.01,0 0.01,0 0.01,0.01 0,0.01 0,0.02 -0.01,0.02 -0.01,0 -0.02,-0.01 -0.02,-0.02zm-0.19 -0.03c0,-0.01 0.01,-0.02 0.02,-0.02 0.01,0 0.02,0.01 0.02,0.02 0,0.01 -0.01,0.02 -0.02,0.02 -0.01,0 -0.02,-0.01 -0.02,-0.02zm-0.04 -0.08c0,-0.01 0.01,-0.02 0.02,-0.02 0.01,0 0.02,0.01 0.02,0.02 0,0.01 -0.01,0.02 -0.02,0.02 -0.01,0 -0.02,-0.01 -0.02,-0.02zm-0.19 -0.04c0,-0.01 0.01,-0.01 0.02,-0.01 0.01,0 0.02,0 0.02,0.01 0,0.02 -0.01,0.02 -0.02,0.02 -0.01,0 -0.02,0 -0.02,-0.02zm-0.03 -0.07c0,-0.01 0.01,-0.02 0.02,-0.02 0.01,0 0.01,0.01 0.01,0.02 0,0.01 0,0.02 -0.01,0.02 -0.01,0 -0.02,-0.01 -0.02,-0.02zm-0.14 -0.07c-0.01,-0.03 -0.01,-0.1 -0.01,-0.14 0.02,-0.07 0.02,-0.05 0.04,0.05 0.02,0.15 0.01,0.18 -0.03,0.09zm-1.2 -0.05c0.16,-0.01 0.42,-0.01 0.58,0 0.16,0.01 0.03,0.01 -0.29,0.01 -0.32,0 -0.45,0 -0.29,-0.01zm2.96 -0.02c-0.01,-0.02 -0.01,-0.03 0.02,-0.01 0.04,0.02 0.06,0.06 0.03,0.06 -0.01,0 -0.03,-0.02 -0.05,-0.05l0 0zm-3.35 -0.01c0,-0.01 0.01,-0.02 0.02,-0.02 0.01,0 0.02,0.01 0.02,0.02 0,0.01 -0.01,0.02 -0.02,0.02 -0.01,0 -0.02,-0.01 -0.02,-0.02zm1.33 -0.06c0.04,-0.04 0.08,-0.07 0.09,-0.07 0.01,0 -0.01,0.03 -0.05,0.07 -0.04,0.04 -0.08,0.08 -0.09,0.08 -0.01,0 0.02,-0.04 0.05,-0.08zm2.03 -0.03c0.01,-0.02 0.03,-0.04 0.04,-0.04 0.01,0 0.01,0.02 -0.01,0.04 -0.01,0.02 -0.03,0.03 -0.04,0.03 -0.01,0 -0.01,-0.01 0.01,-0.03zm-3.41 -0.04c-0.01,-0.01 -0.02,-0.06 -0.02,-0.11 0,-0.1 0,-0.1 0.06,-0.01 0.04,0.07 0.08,0.08 0.15,0.06 0.05,-0.01 0.08,0 0.07,0.02 -0.02,0.03 -0.24,0.07 -0.26,0.04l0 0zm0.54 -0.04c-0.04,-0.02 -0.01,-0.03 0.08,-0.01 0.11,0.02 0.14,0.01 0.18,-0.06 0.02,-0.04 0.06,-0.08 0.08,-0.08 0.02,0 0,0.04 -0.05,0.09 -0.08,0.1 -0.19,0.12 -0.29,0.06l0 0zm0.68 -0.04c0.22,-0.13 0.09,-0.18 -0.47,-0.18 -0.72,0 -0.66,0.04 -0.66,-0.5 0,-0.55 0.07,-0.59 0.08,-0.05 0.01,0.22 0,0.4 -0.02,0.4 -0.01,0 -0.02,0.02 -0.01,0.04 0.01,0.04 0.17,0.06 0.59,0.07 0.55,0.02 0.9,0.19 0.5,0.25 -0.07,0.01 -0.07,0.01 -0.01,-0.03l0 0zm0.26 -0.01c0,-0.03 0.01,-0.07 0.03,-0.08 0.02,-0.01 0.03,0.01 0.02,0.06 -0.03,0.08 -0.05,0.09 -0.05,0.02zm-0.38 -0.06c-0.03,-0.02 -0.04,-0.04 -0.01,-0.04 0.03,0 0.06,0.02 0.07,0.04 0.03,0.05 0.01,0.05 -0.06,0zm0.58 0c-0.01,-0.02 0.01,-0.03 0.04,-0.02 0.06,0.03 0.08,0.06 0.02,0.06 -0.02,0 -0.04,-0.02 -0.06,-0.04zm0.13 -0.08c0,-0.02 0.02,-0.03 0.04,-0.03 0.03,0 0.03,0.01 0.02,0.03 -0.01,0.02 -0.03,0.04 -0.04,0.04 -0.01,0 -0.02,-0.02 -0.02,-0.04zm1.05 0.02c0,-0.01 0.01,-0.02 0.02,-0.02 0.01,0 0.02,0.01 0.02,0.02 0,0.01 -0.01,0.02 -0.02,0.02 -0.01,0 -0.02,-0.01 -0.02,-0.02zm-1.37 -0.1c-0.01,-0.02 -0.01,-0.03 0.02,-0.01 0.02,0.01 0.04,0.03 0.04,0.04 0,0.03 -0.03,0.02 -0.06,-0.03l0 0zm1.15 -0.05c0,-0.01 0.01,-0.02 0.02,-0.02 0.01,0 0.02,0.01 0.02,0.02 0,0.01 -0.01,0.02 -0.02,0.02 -0.01,0 -0.02,-0.01 -0.02,-0.02zm0.71 -0.08c-0.09,-0.1 -0.09,-0.1 0.01,-0.01 0.06,0.05 0.1,0.09 0.1,0.1 0,0.03 -0.03,0 -0.11,-0.09l0 0zm-1.97 0.01c-0.01,-0.02 -0.01,-0.21 -0.01,-0.42 0.01,-0.37 0.01,-0.37 0.03,0.05 0.02,0.42 0.02,0.47 -0.02,0.37zm0.59 -0.04c0,-0.06 0.01,-0.08 0.02,-0.05 0.01,0.04 0.01,0.09 0,0.12 -0.01,0.02 -0.02,-0.01 -0.02,-0.07zm0.52 0.07c0,-0.01 0.01,-0.01 0.02,-0.01 0.01,0 0.02,0 0.02,0.01 0,0.02 -0.01,0.02 -0.02,0.02 -0.01,0 -0.02,0 -0.02,-0.02zm-1.36 -0.04c0.31,-0.22 0,-0.82 -0.43,-0.83 -0.62,-0.01 -0.6,-0.08 0.02,-0.08 0.27,0 0.49,0.01 0.5,0.01 0.05,0.05 -0.03,0.9 -0.08,0.92 -0.04,0.01 -0.05,0 -0.01,-0.02l0 0zm-0.87 -0.07c-0.03,-0.04 -0.03,-0.61 0.01,-0.63 0.01,-0.01 0.03,0.13 0.03,0.32 0,0.18 -0.01,0.33 -0.01,0.33 0,0 -0.01,-0.01 -0.03,-0.02l0 0zm0.15 -0.03c0.01,-0.01 0.15,-0.02 0.3,-0.02 0.22,0 0.28,-0.02 0.31,-0.07 0.03,-0.04 0.04,-0.05 0.04,-0.03 0,0.1 -0.07,0.13 -0.36,0.14 -0.17,0.01 -0.3,0 -0.29,-0.02l0 0zm1.74 -0.3c0.04,-0.05 0.11,-0.06 0.28,-0.05 0.23,0 0.23,0 0.01,0.02 -0.12,0 -0.21,0.03 -0.21,0.05 0,0.02 -0.03,0.03 -0.06,0.03 -0.05,0 -0.06,-0.01 -0.02,-0.05l0 0zm-1.12 -0.25c0,-0.05 0.01,-0.07 0.02,-0.05 0.01,0.03 0.01,0.07 0,0.1 -0.01,0.02 -0.02,0 -0.02,-0.05zm-0.52 -0.1c0.1,-0.01 0.25,-0.01 0.34,0 0.09,0.01 0.01,0.01 -0.18,0.01 -0.18,0 -0.26,0 -0.16,-0.01zm0.79 -0.07c0.02,-0.02 0.04,-0.02 0.05,0 0.02,0.01 0,0.02 -0.02,0.02 -0.03,0 -0.04,-0.01 -0.03,-0.02l0 0z"/>
 <path fill="#A6A663" d="M2.37 2.32c0,-0.02 0.02,-0.04 0.04,-0.04 0.02,0 0.04,0.02 0.04,0.04 0,0.02 -0.02,0.04 -0.04,0.04 -0.02,0 -0.04,-0.02 -0.04,-0.04zm-0.21 -0.08c-0.03,-0.06 0.02,-0.09 0.07,-0.05 0.02,0.03 0.02,0.05 0,0.07 -0.02,0.01 -0.05,0 -0.07,-0.02zm-0.21 -0.1c-0.05,-0.04 -0.03,-0.08 0.03,-0.08 0.03,0 0.05,0.01 0.05,0.03 0,0.05 -0.05,0.08 -0.08,0.05zm0.5 -0.1c0,-0.01 0.01,-0.02 0.02,-0.02 0.01,0 0.01,0.01 0.01,0.02 0,0.01 0,0.02 -0.01,0.02 -0.01,0 -0.02,-0.01 -0.02,-0.02zm0.18 -0.22c0.02,-0.03 0.03,-0.06 0.02,-0.07 -0.01,-0.01 0.07,-0.1 0.17,-0.2 0.1,-0.09 0.19,-0.2 0.19,-0.23 0,-0.03 0.03,-0.05 0.06,-0.05 0.11,0 0.02,0.16 -0.22,0.38 -0.2,0.2 -0.32,0.29 -0.22,0.17l0 0zm-0.74 -0.18c0,-0.08 0.29,-0.45 0.35,-0.45 0.05,0 0.01,0.09 -0.05,0.14 -0.03,0.03 -0.04,0.05 -0.02,0.05 0.03,0 0.06,-0.02 0.07,-0.04 0.02,-0.03 0.04,-0.03 0.06,0.01 0.03,0.04 0.04,0.04 0.03,-0.01 0,-0.03 0,-0.07 0,-0.1 0.01,-0.05 0.15,-0.09 0.18,-0.04 0.01,0.02 0.05,0.02 0.09,-0.01 0.09,-0.05 0.15,-0.04 0.06,0.01 -0.07,0.04 -0.07,0.04 0.01,0.12 0.09,0.07 0.09,0.07 -0.05,0.2 -0.13,0.12 -0.25,0.13 -0.25,0.04 0,-0.05 -0.17,-0.14 -0.24,-0.14 -0.06,0 -0.2,0.15 -0.22,0.24 -0.01,0.06 -0.02,0.06 -0.02,-0.02l0 0zm0.66 -0.1c-0.02,-0.01 -0.04,-0.01 -0.05,0 -0.02,0.02 -0.01,0.03 0.02,0.03 0.03,0 0.04,-0.01 0.03,-0.03l0 0zm-0.12 -0.11c-0.01,-0.01 -0.02,0 -0.02,0.03 0,0.02 0.01,0.03 0.02,0.02 0.02,-0.01 0.02,-0.04 0,-0.05l0 0zm0.22 0.03c0.02,-0.02 0.01,-0.04 -0.01,-0.04 -0.03,0 -0.04,0.02 -0.04,0.04 0,0.02 0,0.03 0.01,0.03 0.01,0 0.03,-0.01 0.04,-0.03zm-0.09 -0.12c0,-0.02 -0.02,-0.03 -0.04,-0.03 -0.02,0 -0.03,0.01 -0.02,0.03 0.02,0.02 0.03,0.04 0.04,0.04 0.01,0 0.02,-0.02 0.02,-0.04zm-0.11 -0.09c0,-0.01 -0.01,-0.02 -0.02,-0.02 -0.01,0 -0.02,0.01 -0.02,0.02 0,0.01 0.01,0.02 0.02,0.02 0.01,0 0.02,-0.01 0.02,-0.02zm0.41 0.02c0,-0.02 0.02,-0.04 0.04,-0.04 0.02,0 0.03,0.02 0.03,0.04 0,0.02 -0.01,0.04 -0.03,0.04 -0.02,0 -0.04,-0.02 -0.04,-0.04zm0.32 -0.15c-0.02,-0.02 -0.01,-0.04 0.01,-0.04 0.03,0 0.04,0.02 0.04,0.04 0,0.02 0,0.04 -0.01,0.04 -0.01,0 -0.03,-0.02 -0.04,-0.04zm0.17 -0.09c-0.03,-0.04 -0.08,-0.06 -0.12,-0.06 -0.03,0 -0.08,-0.03 -0.11,-0.06 -0.02,-0.03 -0.07,-0.05 -0.11,-0.05 -0.04,0 -0.09,-0.03 -0.11,-0.06 -0.06,-0.07 -0.36,-0.08 -0.4,-0.01 -0.02,0.02 -0.01,0.05 0.02,0.06 0.02,0.01 0.03,0.03 0.02,0.05 -0.01,0.02 -0.05,0.01 -0.09,-0.01 -0.09,-0.06 -0.18,-0.02 -0.2,0.09 -0.01,0.07 -0.02,0.07 -0.04,0.02 -0.04,-0.09 0.07,-0.22 0.17,-0.22 0.04,0 0.07,-0.02 0.07,-0.04 0,-0.02 0.1,-0.03 0.22,-0.03 0.12,0 0.23,0.01 0.25,0.03 0.01,0.02 0.05,0.04 0.09,0.04 0.03,0 0.09,0.03 0.11,0.06 0.03,0.03 0.07,0.05 0.1,0.05 0.03,0 0.11,0.05 0.17,0.1 0.07,0.05 0.09,0.09 0.06,0.09 -0.03,0 -0.08,-0.02 -0.1,-0.05l0 0zm-0.6 -0.14c0,-0.02 0.01,-0.03 0.02,-0.02 0.02,0.01 0.02,0.04 0,0.05 -0.01,0.01 -0.02,0 -0.02,-0.03l0 0z"/>
 <path fill="#4C9F9F" d="M1.85 3.41c0,-0.02 0.01,-0.04 0.03,-0.04 0.02,0 0.04,-0.04 0.04,-0.09 0,-0.09 0.14,-0.24 0.18,-0.19 0.02,0.01 0.01,0.03 -0.02,0.04 -0.02,0.01 -0.05,0.05 -0.05,0.08 0,0.04 -0.04,0.11 -0.09,0.16 -0.05,0.05 -0.09,0.07 -0.09,0.04l0 0zm0.43 0c-0.01,-0.03 -0.01,-0.04 0.01,-0.04 0.03,0 0.04,0.01 0.04,0.04 0,0.02 0,0.03 -0.01,0.03 -0.01,0 -0.03,-0.01 -0.04,-0.03zm0.88 0c0,-0.03 0.02,-0.04 0.04,-0.04 0.02,0 0.03,0.01 0.02,0.04 -0.02,0.02 -0.04,0.03 -0.04,0.03 -0.01,0 -0.02,-0.01 -0.02,-0.03zm-0.44 -0.03c0.02,-0.01 0.04,-0.01 0.05,0 0.02,0.01 0,0.03 -0.02,0.03 -0.03,0 -0.04,-0.02 -0.03,-0.03l0 0zm-0.99 -0.07c0,-0.03 0.02,-0.05 0.04,-0.04 0.02,0.02 0.03,0.04 0.02,0.06 -0.03,0.05 -0.06,0.05 -0.06,-0.02zm0.44 0c-0.01,-0.02 -0.02,-0.06 -0.02,-0.1 0,-0.1 0.09,-0.06 0.1,0.04 0.01,0.08 -0.03,0.11 -0.08,0.06zm0.2 -0.05c0,-0.08 0.06,-0.14 0.09,-0.08 0.03,0.04 -0.01,0.15 -0.05,0.15 -0.02,0 -0.04,-0.03 -0.04,-0.07zm0.25 0.05c-0.01,-0.02 -0.02,-0.06 -0.02,-0.11 0,-0.05 0.01,-0.06 0.04,-0.03 0.02,0.02 0.03,0.07 0.03,0.1 -0.01,0.04 -0.03,0.05 -0.05,0.04zm0.2 -0.05c0,-0.04 0.02,-0.09 0.04,-0.1 0.02,-0.01 0.04,0.02 0.04,0.07 0,0.06 -0.02,0.1 -0.04,0.1 -0.02,0 -0.04,-0.03 -0.04,-0.07zm0.21 0.01c-0.03,-0.07 0.01,-0.14 0.06,-0.11 0.04,0.03 0.04,0.17 0,0.17 -0.02,0 -0.05,-0.03 -0.06,-0.06zm0.24 0.02c0,-0.02 0.02,-0.03 0.04,-0.03 0.02,0 0.03,0.01 0.02,0.03 -0.02,0.02 -0.03,0.04 -0.04,0.04 -0.01,0 -0.02,-0.02 -0.02,-0.04zm0.08 -0.48c0,-0.35 0.01,-0.42 0.05,-0.42 0.05,0 0.06,0.07 0.06,0.42 0,0.34 -0.01,0.41 -0.06,0.41 -0.04,0 -0.05,-0.07 -0.05,-0.41zm-0.87 0.3c0,-0.03 0.02,-0.04 0.04,-0.04 0.02,0 0.04,0.01 0.04,0.04 0,0.02 -0.02,0.03 -0.04,0.03 -0.02,0 -0.04,-0.01 -0.04,-0.03zm0.47 -0.03c0.01,-0.01 0.03,-0.01 0.05,0 0.01,0.01 0,0.03 -0.03,0.03 -0.03,0 -0.04,-0.02 -0.02,-0.03l0 0zm-1.75 -0.34c0.02,-0.23 0.08,-0.3 0.08,-0.09 0,0.08 -0.01,0.18 -0.02,0.21 -0.04,0.11 -0.07,0.06 -0.06,-0.12zm-0.55 -0.12c0,-0.04 0.01,-0.08 0.03,-0.08 0.03,0 0.04,0.04 0.04,0.08 0,0.04 -0.01,0.07 -0.04,0.07 -0.02,0 -0.03,-0.03 -0.03,-0.07zm1.19 -1.23c-0.16,-0.02 -0.12,-0.08 0.04,-0.08 0.09,0 0.15,0.01 0.15,0.03 0,0.05 -0.07,0.06 -0.19,0.05zm-0.64 -0.63c0.01,-0.11 0.03,-0.2 0.05,-0.2 0.04,0 0.05,0.26 0.01,0.35 -0.04,0.12 -0.07,0.05 -0.06,-0.15zm-0.55 -0.13c0,-0.04 0.01,-0.07 0.03,-0.05 0.03,0.01 0.04,0.04 0.04,0.07 0,0.03 -0.01,0.06 -0.04,0.06 -0.02,0 -0.03,-0.04 -0.03,-0.08z"/>
 <path fill="#5DB75B" d="M0.54 3.49c-0.09,-0.04 -0.04,-0.12 0.07,-0.12 0.09,0 0.11,0.01 0.11,0.06 -0.02,0.07 -0.09,0.1 -0.18,0.06l0 0zm-0.04 -2.01c0,-0.06 0.09,-0.1 0.17,-0.07 0.1,0.03 0.06,0.12 -0.06,0.12 -0.07,0 -0.11,-0.02 -0.11,-0.05l0 0zm1.5 -0.08c0,-0.01 0.01,-0.02 0.02,-0.02 0.01,0 0.01,0.01 0.01,0.02 0,0.01 0,0.02 -0.01,0.02 -0.01,0 -0.02,-0.01 -0.02,-0.02z"/>
 <path fill="#9C9C19" d="M2.46 2c-0.01,-0.03 -0.06,-0.06 -0.11,-0.06 -0.05,0 -0.1,-0.02 -0.11,-0.05 -0.02,-0.03 -0.06,-0.06 -0.1,-0.06 -0.07,0 -0.24,-0.14 -0.21,-0.17 0.01,-0.01 0.05,0.02 0.09,0.06 0.03,0.04 0.09,0.07 0.13,0.07 0.03,0 0.08,0.03 0.11,0.06 0.02,0.03 0.07,0.06 0.11,0.06 0.03,0 0.08,0.01 0.1,0.04 0.03,0.03 0.12,-0.04 0.32,-0.23 0.32,-0.31 0.4,-0.32 0.1,-0.02 -0.11,0.12 -0.23,0.25 -0.27,0.29 -0.07,0.08 -0.13,0.09 -0.16,0.01l0 0zm-0.13 -0.49c0,-0.01 0.01,-0.02 0.02,-0.02 0.01,0 0.02,0.01 0.02,0.02 0,0.01 -0.01,0.02 -0.02,0.02 -0.01,0 -0.02,-0.01 -0.02,-0.02zm0.94 -0.2c-0.04,-0.09 -0.06,-0.15 -0.04,-0.15 0.02,0 0.04,0.02 0.04,0.05 0,0.06 0.12,0.17 0.2,0.17 0.08,0 0.08,-0.1 0,-0.19 -0.08,-0.09 -0.04,-0.14 0.04,-0.06 0.07,0.07 0.08,0.22 0.02,0.28 -0.09,0.09 -0.18,0.05 -0.26,-0.1l0 0zm-0.29 -0.05c0.07,-0.07 0.14,-0.09 0.14,-0.03 0,0.02 -0.01,0.04 -0.03,0.04 -0.02,0 -0.07,0.01 -0.11,0.02 -0.06,0.03 -0.06,0.03 0,-0.03l0 0zm-0.72 -0.07c0,-0.02 0.02,-0.03 0.04,-0.02 0.02,0.02 0.03,0.04 0.03,0.04 0,0.01 -0.01,0.02 -0.03,0.02 -0.02,0 -0.04,-0.02 -0.04,-0.04zm0.22 -0.03c-0.03,-0.04 -0.09,-0.08 -0.14,-0.08 -0.04,0 -0.08,-0.01 -0.08,-0.03 0,-0.02 0.03,-0.03 0.08,-0.02 0.05,0.02 0.08,0 0.09,-0.06 0.02,-0.04 0.04,-0.07 0.06,-0.06 0.01,0.01 0.02,0.05 0.01,0.08 -0.03,0.06 0.03,0.07 0.09,0.01 0.05,-0.06 0.12,-0.01 0.11,0.09 0,0.07 0,0.07 -0.02,0.02 -0.02,-0.07 -0.04,-0.08 -0.12,-0.03 -0.03,0.02 -0.04,0.06 -0.03,0.09 0.04,0.08 0,0.08 -0.05,-0.01l0 0zm0.38 -0.14c-0.05,-0.05 -0.08,-0.1 -0.07,-0.11 0.01,-0.01 0.05,0.02 0.09,0.06 0.04,0.05 0.11,0.07 0.2,0.07 0.15,0 0.15,0.02 -0.02,0.05 -0.09,0.02 -0.13,0.01 -0.2,-0.07zm-0.3 -0.17c0,-0.02 0.03,-0.03 0.07,-0.03 0.04,0 0.08,0.01 0.09,0.03 0.01,0.01 -0.02,0.03 -0.07,0.03 -0.05,0 -0.09,-0.02 -0.09,-0.03z"/>
 <path fill="#6F6F6F" d="M0.29 3.61c-0.04,-0.08 0.25,-0.17 0.3,-0.09 0.01,0.02 -0.04,0.04 -0.13,0.04 -0.13,0 -0.15,0.01 -0.14,0.05 0.02,0.03 0.02,0.06 0.01,0.06 -0.01,0 -0.03,-0.03 -0.04,-0.06zm1.26 0.02c0,-0.02 0.01,-0.04 0.03,-0.06 0.03,-0.01 0.03,0.01 0.02,0.04 -0.03,0.06 -0.05,0.08 -0.05,0.02zm-0.89 -0.1c0.02,-0.02 0.1,-0.02 0.18,-0.02 0.09,0.01 0.17,0 0.18,-0.03 0.02,-0.03 0.05,-0.04 0.07,-0.02 0.09,0.05 -0.01,0.1 -0.23,0.1 -0.12,0 -0.21,-0.02 -0.2,-0.03zm0.67 -0.01c-0.04,-0.02 -0.04,-0.03 0.01,-0.05 0.03,-0.01 0.06,-0.01 0.06,0.01 0,0.06 0.1,0.04 0.12,-0.02 0.08,-0.2 0.07,-0.2 -0.53,-0.21 -0.56,0 -0.7,-0.02 -0.61,-0.11 0.03,-0.04 0.04,-0.04 0.04,0.02 0,0.06 0.05,0.06 0.57,0.06 0.58,-0.01 0.58,-0.01 0.58,0.15 0,0.17 -0.11,0.24 -0.24,0.15l0 0zm0.33 0.02c0,-0.01 0.01,-0.02 0.02,-0.02 0.01,0 0.02,0.01 0.02,0.02 0,0.01 -0.01,0.02 -0.02,0.02 -0.01,0 -0.02,-0.01 -0.02,-0.02zm-0.6 -0.15c0,-0.01 0.01,-0.02 0.02,-0.02 0.01,0 0.02,0.01 0.02,0.02 0,0.01 -0.01,0.02 -0.02,0.02 -0.01,0 -0.02,-0.01 -0.02,-0.02zm0.26 0c0,-0.01 0.01,-0.02 0.02,-0.02 0.01,0 0.02,0.01 0.02,0.02 0,0.01 -0.01,0.02 -0.02,0.02 -0.01,0 -0.02,-0.01 -0.02,-0.02zm0.38 -0.02c0,-0.03 0.01,-0.04 0.02,-0.03 0.02,0.02 0.02,0.04 0,0.05 -0.01,0.02 -0.02,0.01 -0.02,-0.02l0 0zm0 -0.13c0,-0.01 0.01,-0.02 0.02,-0.02 0.01,0 0.01,0.01 0.01,0.02 0,0.01 0,0.02 -0.01,0.02 -0.01,0 -0.02,-0.01 -0.02,-0.02zm-0.1 -0.1c-0.02,-0.03 -0.01,-0.04 0.02,-0.02 0.04,0.03 0.05,0.06 0.02,0.06 -0.01,0 -0.03,-0.02 -0.04,-0.04l0 0zm-0.23 -0.04c0.05,-0.03 0.06,-0.09 0.06,-0.43 0,-0.38 0.01,-0.39 0.09,-0.38 0.06,0 0.07,0 0.02,0.02 -0.06,0.01 -0.07,0.06 -0.07,0.38 0,0.35 -0.03,0.45 -0.13,0.45 -0.02,0 -0.01,-0.02 0.03,-0.04l0 0zm-0.85 -0.1c-0.02,-0.03 0,-0.04 0.03,-0.02 0.03,0.01 0.06,0 0.08,-0.02 0.01,-0.03 0.14,-0.04 0.31,-0.04 0.29,0.01 0.29,0.01 0.01,0.03 -0.16,0.02 -0.31,0.04 -0.35,0.06 -0.03,0.01 -0.07,0.01 -0.08,-0.01l0 0zm1.95 -0.38c-0.06,-0.08 -0.04,-0.1 0.03,-0.05 0.04,0.03 0.07,0.12 0.05,0.12 -0.01,0 -0.04,-0.03 -0.08,-0.07zm0.28 0.05c0,-0.01 0,-0.01 0.02,-0.01 0.01,0 0.01,0 0.01,0.01 0,0.01 0,0.02 -0.01,0.02 -0.02,0 -0.02,-0.01 -0.02,-0.02zm0.03 -0.07c0,-0.01 0.01,-0.02 0.02,-0.02 0.01,0 0.02,0.01 0.02,0.02 0,0.01 -0.01,0.02 -0.02,0.02 -0.01,0 -0.02,-0.01 -0.02,-0.02zm-0.51 -0.06c-0.03,-0.03 -0.05,-0.08 -0.05,-0.11 0.01,-0.04 0.01,-0.04 0.03,-0.01 0.01,0.03 0.06,0.05 0.12,0.05 0.08,0.01 0.09,0.01 0.01,0.02 -0.05,0.01 -0.07,0.04 -0.06,0.06 0.03,0.04 0,0.04 -0.05,-0.01l0 0zm0.35 0c0.03,-0.03 0.05,-0.08 0.05,-0.11 0,-0.04 0.04,-0.08 0.1,-0.09 0.05,-0.01 0.09,-0.04 0.09,-0.06 0,-0.02 0.03,-0.04 0.07,-0.04 0.04,0 0.1,-0.02 0.12,-0.05 0.03,-0.02 0.1,-0.06 0.16,-0.07 0.05,-0.02 0.1,-0.04 0.1,-0.06 0,-0.03 0.03,-0.04 0.07,-0.04 0.05,0 0.09,-0.04 0.12,-0.1 0.05,-0.14 0.04,-0.18 -0.02,-0.13 -0.09,0.08 -0.07,0.02 0.02,-0.07 0.12,-0.11 0.19,0 0.17,0.29 -0.01,0.21 -0.01,0.21 -0.02,-0.02 -0.01,-0.31 -0.11,-0.29 -0.12,0.02 0,0.11 -0.11,0.23 -0.21,0.23 -0.04,0 -0.09,0.03 -0.1,0.06 -0.01,0.03 -0.06,0.06 -0.11,0.06 -0.05,0 -0.1,0.02 -0.11,0.05 -0.02,0.03 -0.07,0.06 -0.12,0.06 -0.05,0 -0.1,0.01 -0.1,0.03 -0.01,0.02 -0.06,0.05 -0.11,0.06 -0.08,0.02 -0.08,0.02 -0.05,-0.02l0 0zm0.35 0.02c0,-0.01 0.01,-0.02 0.02,-0.02 0.01,0 0.02,0.01 0.02,0.02 0,0.01 -0.01,0.02 -0.02,0.02 -0.01,0 -0.02,-0.01 -0.02,-0.02zm0.05 -0.08c0.02,-0.01 0.04,-0.01 0.05,0 0.02,0.01 0,0.03 -0.02,0.03 -0.03,0 -0.04,-0.02 -0.03,-0.03l0 0zm-1.77 -0.03c0,-0.01 0.01,-0.02 0.02,-0.02 0.01,0 0.01,0.01 0.01,0.02 0,0.01 0,0.02 -0.01,0.02 -0.01,0 -0.02,-0.01 -0.02,-0.02zm0.79 -0.03c-0.02,-0.02 -0.04,-0.07 -0.04,-0.1 0,-0.04 0.01,-0.04 0.02,-0.01 0.01,0.02 0.06,0.05 0.1,0.05 0.07,0 0.07,0.01 0.02,0.02 -0.04,0.01 -0.06,0.03 -0.05,0.05 0.03,0.05 0.01,0.05 -0.05,-0.01l0 0zm1.17 0.01c0,-0.03 0.04,-0.06 0.08,-0.06 0.05,-0.01 0.06,-0.01 0.02,0.01 -0.03,0.01 -0.07,0.04 -0.09,0.07 -0.02,0.02 -0.02,0.02 -0.01,-0.02zm-2.68 -0.05c0.02,-0.01 0.18,-0.02 0.36,-0.02 0.34,0.02 0.34,0.02 -0.03,0.03 -0.2,0.01 -0.35,0.01 -0.33,-0.01l0 0zm2.89 -0.02c0,-0.03 0.01,-0.04 0.03,-0.03 0.01,0.01 0.01,0.04 0,0.05 -0.02,0.01 -0.03,0 -0.03,-0.02l0 0zm-1.62 -0.08c-0.07,-0.08 -0.08,-0.15 -0.03,-0.15 0.02,0 0.04,0.02 0.04,0.05 0,0.03 0.03,0.06 0.07,0.07 0.06,0.01 0.06,0.02 0.02,0.06 -0.03,0.03 -0.06,0.02 -0.1,-0.03zm1.69 -0.02c0.03,-0.02 0.06,-0.01 0.07,0 0.01,0.01 -0.01,0.02 -0.05,0.02 -0.04,0 -0.05,-0.01 -0.02,-0.02zm-0.84 -0.12c0.06,-0.01 0.13,-0.04 0.15,-0.06 0.02,-0.03 0.02,-0.02 0.01,0.01 -0.01,0.04 -0.06,0.06 -0.14,0.06 -0.12,0.01 -0.12,0.01 -0.02,-0.01zm-0.17 -0.05c0,-0.02 0.02,-0.04 0.03,-0.02 0.01,0.01 0.01,0.03 0,0.05 -0.01,0.01 -0.03,0 -0.03,-0.03l0 0zm-0.21 -0.09c-0.01,-0.03 -0.06,-0.06 -0.11,-0.06 -0.04,0 -0.1,-0.02 -0.11,-0.05 -0.02,-0.02 -0.06,-0.06 -0.1,-0.07 -0.04,-0.01 -0.06,-0.05 -0.06,-0.07 0,-0.04 0,-0.04 0.02,0 0.01,0.02 0.04,0.04 0.07,0.04 0.03,0 0.07,0.03 0.08,0.06 0.01,0.03 0.06,0.06 0.11,0.06 0.05,0 0.1,0.02 0.12,0.05 0.01,0.03 0.06,0.06 0.1,0.07 0.07,0.02 0.07,0.02 -0.01,0.02 -0.05,0 -0.1,-0.02 -0.11,-0.05l0 0zm0.65 0.03c0.04,-0.01 0.08,-0.04 0.1,-0.06 0.02,-0.03 0.03,-0.03 0.02,0.01 -0.01,0.03 -0.06,0.06 -0.11,0.06 -0.07,0.01 -0.07,0.01 -0.01,-0.01zm0.25 -0.11c0.02,-0.02 0.04,-0.02 0.05,0 0.02,0.01 0,0.02 -0.02,0.02 -0.03,0 -0.04,-0.01 -0.03,-0.02l0 0zm0.06 -0.07c0,-0.01 0.01,-0.02 0.02,-0.02 0.01,0 0.02,0.01 0.02,0.02 0,0.01 -0.01,0.02 -0.02,0.02 -0.01,0 -0.02,-0.01 -0.02,-0.02zm-2.93 -0.16c-0.04,-0.03 -0.03,-0.12 0,-0.12 0.02,0 0.03,0.03 0.03,0.07 0,0.09 0,0.09 -0.03,0.05zm1.28 -0.07c0.05,-0.05 0.1,-0.09 0.11,-0.09 0.01,0 -0.02,0.04 -0.07,0.09 -0.05,0.06 -0.09,0.1 -0.1,0.1 -0.02,0 0.02,-0.04 0.06,-0.1zm-1.04 -0.08c0.06,-0.01 0.15,-0.01 0.19,0 0.05,0.01 0,0.02 -0.1,0.02 -0.1,0 -0.14,-0.01 -0.09,-0.02l0 0zm0.46 0c0.02,-0.01 0.1,-0.03 0.18,-0.03 0.12,0 0.16,-0.01 0.15,-0.05 -0.01,-0.04 0.01,-0.04 0.05,0.01 0.03,0.04 0.08,0.06 0.11,0.05 0.07,-0.03 0.08,-0.18 0.01,-0.25 -0.04,-0.04 -0.04,-0.04 0.01,-0.03 0.23,0.07 0.05,0.31 -0.24,0.32 -0.17,0.01 -0.29,0 -0.27,-0.02l0 0zm2.65 -0.12c0,-0.11 -0.03,-0.2 -0.09,-0.26 -0.08,-0.1 -0.08,-0.1 0.02,0 0.09,0.08 0.11,0.12 0.09,0.26 -0.01,0.17 -0.01,0.17 -0.02,0zm-2.59 0.02c0,-0.01 0.01,-0.02 0.02,-0.02 0.01,0 0.02,0.01 0.02,0.02 0,0.01 -0.01,0.02 -0.02,0.02 -0.01,0 -0.02,-0.01 -0.02,-0.02zm0.1 -0.05c0.03,-0.01 0.07,-0.01 0.1,0 0.02,0.01 0,0.02 -0.05,0.02 -0.05,0 -0.07,-0.01 -0.05,-0.02zm0.54 0.01c0,-0.01 0.01,-0.02 0.02,-0.02 0.01,0 0.01,0.01 0.01,0.02 0,0.01 0,0.02 -0.01,0.02 -0.01,0 -0.02,-0.01 -0.02,-0.02zm0.26 0c0,-0.01 0.01,-0.02 0.02,-0.02 0.01,0 0.02,0.01 0.02,0.02 0,0.01 -0.01,0.02 -0.02,0.02 -0.01,0 -0.02,-0.01 -0.02,-0.02zm1.12 0c0,-0.01 0.01,-0.02 0.02,-0.02 0.01,0 0.02,0.01 0.02,0.02 0,0.01 -0.01,0.02 -0.02,0.02 -0.01,0 -0.02,-0.01 -0.02,-0.02zm-1.38 -0.11c0,-0.01 0.01,-0.02 0.02,-0.02 0.01,0 0.01,0.01 0.01,0.02 0,0.01 0,0.02 -0.01,0.02 -0.01,0 -0.02,-0.01 -0.02,-0.02zm-1.33 -0.05c-0.07,-0.07 0.02,-0.08 0.49,-0.08 0.52,0.01 0.52,0.01 0.02,0.02 -0.31,0.01 -0.49,0.03 -0.48,0.05 0.03,0.04 0.01,0.05 -0.03,0.01zm1.29 -0.03c0,-0.01 0.01,-0.02 0.02,-0.02 0.01,0 0.02,0.01 0.02,0.02 0,0.01 -0.01,0.02 -0.02,0.02 -0.01,0 -0.02,-0.01 -0.02,-0.02zm1.16 -0.02c-0.09,-0.02 -0.09,-0.03 -0.01,-0.03 0.05,0 0.09,0.01 0.11,0.03 0.01,0.02 0.01,0.04 0.01,0.04 -0.01,0 -0.06,-0.02 -0.11,-0.04zm-1.24 -0.01c0,-0.02 0.01,-0.02 0.02,-0.02 0.01,0 0.02,0 0.02,0.02 0,0.01 -0.01,0.01 -0.02,0.01 -0.01,0 -0.02,0 -0.02,-0.01zm0.65 -0.06c0,-0.05 0.01,-0.07 0.02,-0.05 0.01,0.03 0.01,0.07 0,0.1 -0.01,0.02 -0.02,0 -0.02,-0.05zm0.15 0.05c0.02,-0.02 0.04,-0.02 0.05,0 0.02,0.01 0.01,0.02 -0.02,0.02 -0.03,0 -0.04,-0.01 -0.03,-0.02l0 0zm-0.95 -0.45c0,-0.23 0.02,-0.43 0.03,-0.43 0.04,0 0.02,0.8 -0.02,0.84 -0.01,0.01 -0.02,-0.17 -0.01,-0.41l0 0zm1.73 0.42c0,-0.01 0.01,-0.02 0.02,-0.02 0.01,0 0.02,0.01 0.02,0.02 0,0.01 -0.01,0.02 -0.02,0.02 -0.01,0 -0.02,-0.01 -0.02,-0.02zm-2.65 -0.1c-0.01,-0.03 -0.01,-0.04 0.02,-0.02 0.03,0.02 0.07,0.01 0.1,-0.01 0.03,-0.03 0.15,-0.04 0.32,-0.03 0.28,0.01 0.28,0.01 -0.01,0.02 -0.16,0 -0.3,0.02 -0.31,0.04 -0.03,0.05 -0.08,0.05 -0.12,0l0 0zm2.01 -0.13c0,-0.01 0.01,-0.02 0.02,-0.02 0.01,0 0.02,0.01 0.02,0.02 0,0.01 -0.01,0.02 -0.02,0.02 -0.01,0 -0.02,-0.01 -0.02,-0.02zm0.19 0c0,-0.01 0.01,-0.02 0.02,-0.02 0.01,0 0.02,0.01 0.02,0.02 0,0.01 -0.01,0.02 -0.02,0.02 -0.01,0 -0.02,-0.01 -0.02,-0.02zm-2.18 -0.48c0.02,-0.01 0.19,-0.02 0.38,-0.02 0.36,0.02 0.36,0.02 -0.03,0.03 -0.21,0.01 -0.37,0.01 -0.35,-0.01zm1.02 -0.08c0,-0.01 0.01,-0.02 0.02,-0.02 0.01,0 0.01,0.01 0.01,0.02 0,0.01 0,0.02 -0.01,0.02 -0.01,0 -0.02,-0.01 -0.02,-0.02z"/>
 <path fill="#057E81" d="M0.63 2.87c-0.11,-0.34 -0.07,-0.4 0.3,-0.37 0.3,0.01 0.3,0.01 0.28,0.21 -0.02,0.19 -0.52,0.33 -0.58,0.16l0 0zm0.09 -0.25c0,-0.04 -0.01,-0.08 -0.04,-0.08 -0.02,0 -0.03,0.04 -0.03,0.08 0,0.04 0.01,0.07 0.03,0.07 0.03,0 0.04,-0.03 0.04,-0.07zm-0.09 -1.72c-0.09,-0.34 -0.07,-0.37 0.3,-0.37 0.3,0.01 0.3,0.01 0.28,0.21 -0.02,0.22 -0.52,0.36 -0.58,0.16zm0.09 -0.25c0,-0.03 -0.01,-0.06 -0.04,-0.07 -0.02,-0.02 -0.03,0.01 -0.03,0.05 0,0.04 0.01,0.08 0.03,0.08 0.03,0 0.04,-0.03 0.04,-0.06z"/>
 <path fill="#4E4E4E" d="M0.33 3.64c-0.03,-0.04 -0.02,-0.08 0.02,-0.08 0.02,0 0.03,0.01 0.02,0.03 -0.02,0.02 0.2,0.04 0.58,0.05 0.62,0.01 0.62,0.01 0.01,0.02 -0.33,0 -0.61,0 -0.63,-0.02zm1.22 -0.1c0.02,-0.03 0.06,-0.05 0.08,-0.04 0.01,0.01 0.03,-0.02 0.03,-0.06 0.01,-0.08 0.01,-0.08 0.03,-0.02 0.01,0.04 -0.01,0.09 -0.05,0.12 -0.09,0.07 -0.15,0.07 -0.09,0l0 0zm-0.94 0c0,-0.01 0.01,-0.02 0.02,-0.02 0.01,0 0.02,0.01 0.02,0.02 0,0.01 -0.01,0.02 -0.02,0.02 -0.01,0 -0.02,-0.01 -0.02,-0.02zm0.5 -0.02c0.02,-0.02 0.01,-0.05 -0.01,-0.06 -0.07,-0.04 0,-0.09 0.11,-0.09 0.12,0 0.19,0.06 0.11,0.11 -0.03,0.02 -0.03,0.03 0.01,0.05 0.03,0.01 -0.02,0.02 -0.09,0.02 -0.08,0 -0.14,-0.01 -0.13,-0.03l0 0zm0.17 -0.1c-0.04,-0.01 -0.1,-0.01 -0.14,0 -0.03,0.01 0,0.01 0.07,0.01 0.07,0 0.1,0 0.07,-0.01zm0.42 -0.13c0,-0.02 0.01,-0.04 0.02,-0.02 0.02,0.01 0.02,0.03 0,0.05 -0.01,0.01 -0.02,0 -0.02,-0.03l0 0zm-1.28 -0.11c0,-0.02 0.18,-0.04 0.47,-0.04 0.29,0 0.47,0.02 0.47,0.04 0,0.02 -0.18,0.04 -0.47,0.04 -0.29,0 -0.47,-0.02 -0.47,-0.04zm1.02 0c0.04,-0.03 0.04,-0.04 0,-0.04 -0.03,0 -0.04,-0.01 -0.03,-0.03 0.02,-0.02 0.05,-0.03 0.08,-0.02 0.05,0.02 0.06,-0.04 0.06,-0.38 0.01,-0.46 0.03,-0.4 0.04,0.14 0.01,0.36 0.01,0.36 -0.1,0.36 -0.08,0 -0.09,-0.01 -0.05,-0.03zm0.22 0.02c0,-0.01 0.01,-0.02 0.02,-0.02 0.01,0 0.02,0.01 0.02,0.02 0,0.01 -0.01,0.02 -0.02,0.02 -0.01,0 -0.02,-0.01 -0.02,-0.02zm-1.07 -0.26c0.02,-0.03 0.04,-0.05 0.05,-0.04 0.01,0.01 0,0.04 -0.03,0.07 -0.03,0.03 -0.04,0.03 -0.02,-0.03l0 0zm-0.09 -0.24c0,-0.14 0.01,-0.27 0.03,-0.28 0.01,-0.01 0.02,0.07 0.01,0.17 -0.02,0.35 -0.03,0.39 -0.04,0.11l0 0zm2.05 -0.03c-0.04,-0.03 0,-0.09 0.06,-0.09 0.03,0 0.02,0.02 -0.01,0.04 -0.05,0.03 -0.04,0.03 0.04,0.04 0.11,0 0.14,-0.06 0.06,-0.09 -0.03,-0.01 -0.02,-0.02 0.02,-0.02 0.03,-0.01 0.06,-0.02 0.06,-0.04 0,-0.02 0.02,-0.04 0.04,-0.04 0.03,0 0.03,0.02 0.02,0.04 -0.01,0.02 0.01,0.03 0.05,0.03 0.05,0 0.08,-0.01 0.08,-0.02 -0.02,-0.08 0.06,-0.16 0.14,-0.16 0.05,0 0.1,-0.03 0.11,-0.06 0.01,-0.03 0.06,-0.06 0.1,-0.06 0.11,0 0.21,-0.12 0.22,-0.27 0,-0.12 0.01,-0.12 0.02,-0.01 0.01,0.05 0.01,0.12 0,0.15 -0.01,0.02 -0.02,0.06 -0.03,0.08 -0.02,0.08 -0.09,0.11 -0.18,0.1 -0.06,-0.01 -0.08,-0.01 -0.07,0.02 0.03,0.04 -0.05,0.08 -0.17,0.09 -0.08,0 -0.07,0 0.01,0.03 0.1,0.03 0.1,0.03 0,0.03 -0.06,0.01 -0.11,0.03 -0.12,0.06 -0.02,0.04 -0.07,0.06 -0.12,0.06 -0.05,0 -0.1,0.03 -0.11,0.06 -0.02,0.05 -0.18,0.08 -0.22,0.03l0 0zm-0.23 -0.13c-0.02,-0.02 0.01,-0.03 0.05,-0.03 0.05,0 0.07,0.01 0.06,0.03 -0.01,0.02 -0.04,0.04 -0.06,0.04 -0.02,0 -0.04,-0.02 -0.05,-0.04zm-1.12 -0.09c-0.02,-0.03 -0.01,-0.06 0.01,-0.06 0.02,0 0.04,0.03 0.04,0.06 0,0.03 -0.01,0.06 -0.02,0.06 -0.01,0 -0.02,-0.03 -0.03,-0.06zm0.89 -0.02c-0.01,-0.02 0.01,-0.04 0.05,-0.04 0.05,0 0.08,0.02 0.08,0.04 0,0.02 -0.02,0.04 -0.05,0.04 -0.03,0 -0.07,-0.02 -0.08,-0.04zm1.27 -0.06c0.01,-0.02 0.03,-0.02 0.05,0 0.01,0.01 0,0.02 -0.03,0.02 -0.02,0 -0.03,-0.01 -0.02,-0.02l0 0zm-1.89 -0.03c0,-0.01 0.01,-0.02 0.02,-0.02 0.01,0 0.02,0.01 0.02,0.02 0,0.01 -0.01,0.02 -0.02,0.02 -0.01,0 -0.02,-0.01 -0.02,-0.02zm0.41 -0.02c0,-0.02 0.03,-0.04 0.06,-0.04 0.03,0 0.06,0.02 0.06,0.04 0,0.02 -0.03,0.04 -0.06,0.04 -0.03,0 -0.06,-0.02 -0.06,-0.04zm1.7 -0.1c0.02,-0.02 0.04,-0.02 0.05,0 0.02,0.01 0.01,0.02 -0.02,0.02 -0.03,0 -0.04,-0.01 -0.03,-0.02l0 0zm-1.06 -0.11c0,-0.01 0.01,-0.02 0.02,-0.02 0.01,0 0.02,0.01 0.02,0.02 0,0.01 -0.01,0.02 -0.02,0.02 -0.01,0 -0.02,-0.01 -0.02,-0.02zm0.23 -0.01c0,-0.04 0.07,-0.1 0.09,-0.08 0.01,0.01 -0.01,0.04 -0.04,0.07 -0.03,0.02 -0.05,0.03 -0.05,0.01zm-0.42 -0.11c0.02,-0.01 0.06,-0.01 0.07,0.01 0.01,0.01 -0.01,0.02 -0.05,0.02 -0.04,-0.01 -0.05,-0.02 -0.02,-0.03zm0.65 -0.01c0.01,-0.03 0.06,-0.06 0.11,-0.06 0.07,-0.01 0.07,0 0.01,0.01 -0.04,0.01 -0.09,0.04 -0.1,0.06 -0.02,0.03 -0.03,0.03 -0.02,-0.01zm-0.91 -0.09c0,-0.01 0.01,-0.02 0.02,-0.02 0.01,0 0.02,0.01 0.02,0.02 0,0.01 -0.01,0.02 -0.02,0.02 -0.01,0 -0.02,-0.01 -0.02,-0.02zm0.08 0c0,-0.01 0.01,-0.02 0.02,-0.02 0.01,0 0.01,0.01 0.01,0.02 0,0.01 0,0.02 -0.01,0.02 -0.01,0 -0.02,-0.01 -0.02,-0.02zm1.06 -0.03c0.01,-0.03 0.06,-0.05 0.11,-0.06 0.06,-0.01 0.1,-0.02 0.1,-0.04 0,-0.01 0.06,-0.07 0.12,-0.11 0.12,-0.09 0.12,-0.09 -0.01,0.04 -0.07,0.08 -0.16,0.14 -0.21,0.14 -0.04,0 -0.09,0.02 -0.1,0.04 -0.01,0.02 -0.01,0.02 -0.01,-0.01l0 0zm0.36 -0.07c0,-0.02 0.02,-0.03 0.04,-0.03 0.02,0 0.03,0.01 0.02,0.03 -0.02,0.02 -0.03,0.04 -0.04,0.04 -0.01,0 -0.02,-0.02 -0.02,-0.04zm-1.65 -0.02c0,-0.01 0.01,-0.01 0.02,-0.01 0.01,0 0.02,0 0.02,0.01 0,0.02 -0.01,0.02 -0.02,0.02 -0.01,0 -0.02,0 -0.02,-0.02zm-1.59 -0.09c-0.02,-0.02 -0.01,-0.06 0,-0.07 0.05,-0.05 1.3,-0.07 1.28,-0.03 0,0.02 -0.29,0.03 -0.64,0.03 -0.4,-0.01 -0.62,0.01 -0.62,0.03 0,0.02 0.22,0.04 0.59,0.05 0.59,0.01 0.59,0.01 0,0.02 -0.39,0.01 -0.6,-0.01 -0.61,-0.03zm0.75 -0.18c-0.01,-0.03 0,-0.05 0.03,-0.07 0.08,-0.03 0.23,0 0.23,0.04 0,0.06 -0.23,0.07 -0.26,0.03zm0.2 -0.03c-0.04,-0.01 -0.1,-0.01 -0.14,0 -0.03,0.01 0,0.01 0.07,0.01 0.07,0 0.1,0 0.07,-0.01zm0.38 0c0,-0.04 0.01,-0.05 0.03,-0.02 0.01,0.03 0,0.06 -0.01,0.07 -0.01,0.01 -0.02,-0.01 -0.02,-0.05zm1.46 -0.11c0.01,-0.04 0.02,-0.05 0.03,-0.02 0.01,0.02 0.01,0.06 -0.01,0.07 -0.01,0.01 -0.02,-0.01 -0.02,-0.05zm-1.42 -0.02c0,-0.02 0.01,-0.04 0.02,-0.02 0.02,0.01 0.02,0.03 0,0.05 -0.01,0.01 -0.02,0 -0.02,-0.03l0 0zm-1.29 -0.1c-0.02,-0.03 0.16,-0.05 0.49,-0.06 0.28,-0.01 0.55,-0.02 0.58,-0.03 0.06,-0.01 0.07,-0.06 0.07,-0.4 0,-0.25 -0.02,-0.38 -0.04,-0.36 -0.02,0.01 -0.04,0 -0.04,-0.02 0,-0.03 0.02,-0.04 0.05,-0.03 0.03,0.01 0.05,0.14 0.06,0.42 0,0.32 0.02,0.42 0.07,0.45 0.04,0.04 -0.09,0.05 -0.58,0.05 -0.4,0.01 -0.65,0 -0.66,-0.02l0 0zm1.01 -0.03c-0.01,-0.02 -0.03,-0.02 -0.05,0 -0.01,0.01 0,0.02 0.03,0.02 0.02,0 0.04,-0.01 0.02,-0.02l0 0zm2.19 0.04c0,-0.01 0.01,-0.02 0.02,-0.02 0.01,0 0.02,0.01 0.02,0.02 0,0.01 -0.01,0.02 -0.02,0.02 -0.01,0 -0.02,-0.01 -0.02,-0.02zm-0.71 -0.07c0,-0.02 0,-0.02 0.02,-0.02 0.01,0 0.01,0 0.01,0.02 0,0.01 0,0.01 -0.01,0.01 -0.02,0 -0.02,0 -0.02,-0.01zm0.24 -0.03c-0.02,-0.03 -0.01,-0.03 0.01,-0.02 0.03,0.02 0.05,0.04 0.05,0.05 0,0.03 -0.04,0.01 -0.06,-0.03l0 0zm-2.63 -0.15c-0.01,-0.03 -0.01,-0.17 0,-0.3 0.01,-0.24 0.01,-0.24 0.02,0.03 0,0.25 0.04,0.34 0.09,0.24 0.01,-0.02 0.02,-0.02 0.01,0 -0.01,0.07 -0.09,0.09 -0.12,0.03l0 0zm2.03 -0.07c0.01,-0.02 0.03,-0.04 0.04,-0.04 0.01,0 0.01,0.02 0,0.04 -0.01,0.02 -0.03,0.04 -0.04,0.04 -0.01,0 -0.01,-0.02 0,-0.04zm0.15 0c-0.02,-0.03 -0.01,-0.04 0.01,-0.02 0.03,0.01 0.05,0.03 0.05,0.04 0,0.03 -0.04,0.02 -0.06,-0.02l0 0zm-1.48 -0.45c0,-0.03 0.01,-0.04 0.02,-0.02 0.02,0.01 0.02,0.03 0,0.05 -0.01,0.01 -0.02,0 -0.02,-0.03l0 0z"/>
 <path fill="#636311" d="M2.6 2c0.24,-0.23 0.48,-0.49 0.49,-0.54 0.01,-0.03 0.04,-0.02 0.11,0.04 0.05,0.06 0.12,0.1 0.16,0.11 0.11,0.02 0.12,0.11 0.01,0.11 -0.05,0 -0.1,0.02 -0.11,0.05 -0.01,0.04 -0.06,0.06 -0.11,0.06 -0.05,0 -0.11,0.03 -0.12,0.06 -0.01,0.03 -0.06,0.05 -0.1,0.05 -0.04,0 -0.1,0.03 -0.12,0.06 -0.03,0.02 -0.1,0.06 -0.17,0.07 -0.13,0.02 -0.13,0.02 -0.04,-0.06l0 -0.01zm-0.25 -0.02c-0.07,-0.03 -0.07,-0.03 0.01,-0.03 0.05,-0.01 0.09,0.01 0.09,0.03 0,0.02 -0.01,0.04 -0.01,0.04 -0.01,-0.01 -0.05,-0.02 -0.09,-0.04zm-0.22 -0.11c-0.07,-0.03 -0.07,-0.03 0.01,-0.04 0.04,0 0.08,0.02 0.08,0.04 0,0.02 0,0.03 -0.01,0.03 0,0 -0.04,-0.01 -0.08,-0.03zm-0.19 -0.11c-0.01,-0.02 -0.01,-0.04 0.01,-0.04 0.03,0 0.05,0.02 0.07,0.04 0.01,0.02 0,0.03 -0.02,0.03 -0.02,0 -0.05,-0.01 -0.06,-0.03zm1.29 -0.34c0,-0.12 -0.04,-0.2 -0.08,-0.15 -0.02,0.04 -0.03,0.04 -0.03,-0.01 0,-0.04 -0.02,-0.07 -0.05,-0.07 -0.04,0 -0.06,0.02 -0.06,0.04 0,0.08 -0.06,0.03 -0.12,-0.08 -0.07,-0.15 -0.14,-0.18 -0.15,-0.06 0,0.07 0,0.08 -0.02,0.01 -0.03,-0.12 -0.08,-0.15 -0.14,-0.09 -0.09,0.07 -0.11,0.01 -0.02,-0.08 0.08,-0.08 0.15,-0.1 0.14,-0.03 -0.01,0.03 0.01,0.05 0.03,0.04 0.03,0 0.08,0.04 0.13,0.08 0.07,0.08 0.11,0.09 0.2,0.07 0.07,-0.01 0.1,-0.01 0.09,0.02 -0.02,0.02 -0.01,0.06 0.02,0.07 0.03,0.02 0.08,0.09 0.12,0.15 0.09,0.19 0.25,0.16 0.29,-0.06 0.02,-0.09 0.02,-0.08 0.02,0.02 0.01,0.15 -0.05,0.2 -0.22,0.2 -0.12,0 -0.15,-0.01 -0.15,-0.07l0 0zm-0.95 -0.25c-0.05,-0.05 -0.02,-0.09 0.07,-0.09 0.11,0 0.13,0.06 0.04,0.09 -0.08,0.03 -0.08,0.03 -0.11,0zm1.22 -0.03c0,-0.01 0,-0.02 0.01,-0.02 0.02,0 0.02,0.01 0.02,0.02 0,0.01 0,0.02 -0.02,0.02 -0.01,0 -0.01,-0.01 -0.01,-0.02z"/>
 <path fill="#323333" d="M0.37 3.59c0.01,-0.02 0.25,-0.03 0.58,-0.03 0.33,0 0.56,0.01 0.58,0.03 0.01,0.03 -0.19,0.04 -0.58,0.04 -0.4,0 -0.6,-0.01 -0.58,-0.04zm1.24 -0.09c-0.04,-0.05 -0.03,-0.27 0.01,-0.3 0.02,-0.01 0.05,0 0.06,0.03 0.03,0.07 -0.03,0.3 -0.07,0.27l0 0zm-0.47 -0.08c0.04,-0.01 0.1,-0.01 0.14,0 0.03,0.01 0,0.01 -0.07,0.01 -0.07,0 -0.1,0 -0.07,-0.01zm0.22 -0.24c0,-0.02 0.02,-0.04 0.06,-0.04 0.03,0 0.05,0.01 0.05,0.02 0,0.01 -0.02,0.02 -0.05,0.03 -0.04,0.02 -0.06,0.01 -0.06,-0.01zm0.11 -0.45c0,-0.21 0.02,-0.38 0.04,-0.39 0.02,-0.02 0.04,0.12 0.04,0.37 0,0.24 -0.02,0.4 -0.04,0.4 -0.02,0 -0.04,-0.15 -0.04,-0.38zm-0.93 -0.02c0.01,-0.28 0.58,-0.49 0.66,-0.25 0.02,0.05 -0.03,0.05 -0.28,0.04 -0.35,-0.03 -0.35,-0.03 -0.32,0.25 0.01,0.13 0,0.2 -0.02,0.22 -0.04,0.02 -0.05,-0.05 -0.04,-0.26zm2.06 -0.09c0.07,-0.05 0.15,-0.05 0.15,0 0,0.02 -0.05,0.04 -0.11,0.04 -0.08,-0.01 -0.09,-0.01 -0.04,-0.04zm0.25 -0.12c0.04,-0.04 0.06,-0.04 0.09,0 0.04,0.03 0.03,0.04 -0.04,0.04 -0.07,0 -0.08,-0.01 -0.05,-0.04l0 0zm0.22 -0.09c0.03,-0.01 0.07,-0.01 0.1,0 0.02,0.01 0,0.01 -0.05,0.01 -0.05,0 -0.07,0 -0.05,-0.01zm0.22 -0.09c-0.01,-0.02 0.01,-0.04 0.05,-0.04 0.05,0 0.08,0.02 0.08,0.04 0,0.02 -0.02,0.04 -0.05,0.04 -0.03,0 -0.07,-0.02 -0.08,-0.04zm0.23 -0.11c-0.02,-0.02 -0.01,-0.05 0.01,-0.06 0.02,-0.01 0.04,-0.09 0.04,-0.17 0,-0.08 0.02,-0.15 0.04,-0.17 0.02,-0.01 0.04,0.06 0.04,0.18 0,0.2 -0.07,0.31 -0.13,0.22l0 0zm-0.94 -0.12c0.01,-0.02 0.05,-0.03 0.09,-0.03 0.04,0 0.08,0.01 0.08,0.03 0,0.02 -0.05,0.04 -0.1,0.04 -0.05,0 -0.09,-0.02 -0.07,-0.04zm0.24 -0.11c0,-0.02 0.04,-0.04 0.08,-0.04 0.04,0 0.07,0.02 0.07,0.04 0,0.02 -0.03,0.04 -0.07,0.04 -0.04,0 -0.08,-0.02 -0.08,-0.04zm-0.71 -0.09c0,-0.01 0.01,-0.02 0.02,-0.02 0.01,0 0.02,0.01 0.02,0.02 0,0.01 -0.01,0.02 -0.02,0.02 -0.01,0 -0.02,-0.01 -0.02,-0.02zm0.94 -0.02c0,-0.02 0.03,-0.04 0.07,-0.04 0.04,0 0.08,0.02 0.08,0.04 0,0.02 -0.04,0.04 -0.08,0.04 -0.04,0 -0.07,-0.02 -0.07,-0.04zm0.22 -0.11c0,-0.02 0.04,-0.04 0.08,-0.04 0.04,0 0.07,0.02 0.07,0.04 0,0.02 -0.03,0.03 -0.07,0.03 -0.04,0 -0.08,-0.01 -0.08,-0.03zm-2.92 -0.12c0,-0.02 0.22,-0.03 0.6,-0.03 0.37,0 0.6,0.01 0.6,0.03 0,0.03 -0.23,0.04 -0.6,0.04 -0.38,0 -0.6,-0.01 -0.6,-0.04zm3.09 0c-0.01,-0.02 -0.05,-0.03 -0.08,-0.03 -0.11,0 -0.23,-0.15 -0.21,-0.27 0.02,-0.13 0.08,-0.08 0.08,0.07 0,0.18 0.34,0.1 0.39,-0.09 0.01,-0.04 0.02,0 0.02,0.08 0.01,0.19 -0.13,0.35 -0.2,0.24l0 0zm-1.83 -0.09c-0.04,-0.04 -0.03,-0.27 0.01,-0.3 0.02,-0.01 0.05,0 0.06,0.03 0.03,0.07 -0.03,0.3 -0.07,0.27l0 0zm-0.47 -0.08c0.04,-0.01 0.1,-0.01 0.14,0 0.03,0.01 0,0.01 -0.07,0.01 -0.07,0 -0.1,0 -0.07,-0.01zm0.23 -0.26c0.02,-0.02 0.04,-0.02 0.05,0 0.02,0.01 0,0.02 -0.02,0.02 -0.03,0 -0.04,-0.01 -0.03,-0.02l0 0zm0.13 -0.08c-0.04,-0.04 -0.03,-0.72 0.01,-0.74 0.02,-0.02 0.04,0.12 0.04,0.37 0,0.4 -0.01,0.42 -0.05,0.37zm1.25 -0.05c0,-0.04 0.01,-0.07 0.03,-0.07 0.02,0 0.06,0.03 0.08,0.07 0.03,0.06 0.03,0.08 -0.04,0.08 -0.05,0 -0.07,-0.03 -0.07,-0.08zm-2.22 -0.35c0,-0.29 0,-0.29 0.35,-0.29 0.25,0 0.33,0.02 0.32,0.05 -0.01,0.03 -0.1,0.05 -0.3,0.04 -0.32,-0.01 -0.35,0.02 -0.3,0.25 0.04,0.14 0.02,0.23 -0.03,0.23 -0.02,0 -0.04,-0.13 -0.04,-0.28l0 0z"/>
 </g>
 </g>
 </svg>
