<svg xmlns="http://www.w3.org/2000/svg" width="32" height="32" viewBox="0 0 3.86 3.86">
 <g fill-rule="nonzero"><path fill="#E9E9E9" d="M1.96 3.79c-0.01,-0.01 -0.03,-0.01 -0.04,-0.01 -0.02,0 -0.94,-0.25 -0.98,-0.27 -0.02,0 -0.02,-0.01 -0.02,-0.04 -0.02,-0.1 -0.24,-2.63 -0.24,-2.64 0.01,-0.01 2.63,-0.01 2.63,0 0.01,0.02 -0.23,2.66 -0.24,2.67 -0.01,0.01 -0.93,0.27 -1,0.28 -0.07,0.01 -0.1,0.01 -0.11,0.01l0 0zm0.37 -0.67c0.17,-0.04 0.32,-0.09 0.32,-0.09 0,-0.01 0.09,-0.9 0.09,-0.96 0,-0.02 0,-0.02 -0.37,-0.02 -0.37,0 -0.37,0 -0.37,0.15 0,0.15 0,0.15 0.2,0.15 0.24,0.01 0.22,-0.02 0.19,0.25 -0.02,0.22 0,0.2 -0.18,0.24 -0.07,0.02 -0.15,0.04 -0.17,0.05 -0.04,0.01 -0.07,0.32 -0.03,0.32 0,0 0.14,-0.04 0.32,-0.09l0 0zm0.45 -1.45c0,-0.01 0,-0.08 0.01,-0.15 0.01,-0.09 0.01,-0.13 0,-0.13 0,0 -0.18,0 -0.4,0 -0.38,0 -0.47,0.07 -0.39,0.29 0.01,0.02 0.78,0.01 0.78,-0.01zm-1.85 -1.06c-0.02,-0.03 -0.01,-0.48 0,-0.49 0.01,-0.01 0.03,-0.01 0.09,-0.01 0.1,0 0.09,-0.01 0.1,0.09 0,0.06 0,0.06 0.06,0.06 0.06,0 0.06,0 0.06,-0.06 0,-0.1 0,-0.09 0.09,-0.09 0.12,0 0.11,-0.03 0.11,0.25 0,0.28 0.01,0.26 -0.11,0.26 -0.08,0 -0.08,0 -0.09,-0.09 0,-0.11 -0.12,-0.13 -0.12,-0.01 0,0.1 0,0.1 -0.1,0.1 -0.08,0 -0.09,0 -0.09,-0.01l0 0zm0.7 0c0,-0.01 -0.01,-0.05 -0.01,-0.16 0,-0.16 0,-0.16 -0.07,-0.16 -0.07,-0.01 -0.07,-0.01 -0.07,-0.08 0,-0.11 -0.03,-0.1 0.24,-0.1 0.27,0 0.24,-0.01 0.24,0.1 0,0.07 0,0.07 -0.07,0.08 -0.07,0 -0.07,0 -0.07,0.16 0,0.11 0,0.15 -0.01,0.16 -0.01,0.01 -0.16,0.01 -0.18,0zm0.38 0c-0.01,-0.03 -0.01,-0.48 0.01,-0.49 0.04,-0.05 0.2,-0.01 0.24,0.06 0.05,0.08 0.04,0.08 0.08,0.01 0.03,-0.04 0.05,-0.07 0.05,-0.07 0.01,0 0.01,0 0.01,0 0,-0.02 0.19,-0.01 0.19,0 0.05,0.19 -0.01,0.5 -0.08,0.5 -0.11,0 -0.11,0.01 -0.11,-0.11 0,-0.1 0,-0.1 -0.04,-0.03 -0.06,0.09 -0.06,0.09 -0.12,0 -0.04,-0.07 -0.04,-0.07 -0.04,0.03 0,0.07 0,0.1 -0.01,0.1 -0.02,0.02 -0.17,0.01 -0.18,0l0 0zm0.65 0c-0.01,0 -0.01,-0.47 0,-0.49 0,-0.02 0.16,-0.02 0.18,0 0.01,0.01 0.01,0.04 0.01,0.16 0,0.14 0,0.14 0.1,0.14 0.14,0 0.13,0 0.13,0.11 -0.01,0.07 -0.36,0.15 -0.42,0.08l0 0z"/>
 <path fill="#FAE2D9" d="M1.96 3.79c-0.01,-0.01 -0.02,-0.01 -0.04,-0.01 -0.03,0 -0.98,-0.27 -0.99,-0.28 -0.01,-0.01 -0.25,-2.66 -0.24,-2.67 0.01,-0.01 2.61,-0.01 2.62,0 0.01,0.01 -0.23,2.66 -0.24,2.67 -0.01,0.01 -0.96,0.27 -1.01,0.28 -0.06,0.01 -0.09,0.01 -0.1,0.01l0 0zm0.37 -0.67c0.18,-0.05 0.32,-0.09 0.32,-0.09 0.01,0 0.09,-0.91 0.09,-0.95 0,-0.03 0,-0.03 -0.59,-0.03 -0.46,0 -0.58,0 -0.59,-0.01 -0.01,-0.01 -0.04,-0.32 -0.03,-0.34 0,-0.01 0.07,-0.01 0.62,-0.01 0.5,0 0.63,0 0.63,-0.01 0,0 0,-0.07 0.01,-0.14 0.01,-0.08 0.01,-0.14 0.01,-0.15 0,0 -1.61,0 -1.61,0 0,0 0.02,0.22 0.05,0.48 0.02,0.26 0.04,0.47 0.04,0.48 0,0 0.25,0 0.56,0 0.51,0 0.56,0 0.57,0.01 0,0.02 -0.02,0.32 -0.03,0.4 -0.01,0.04 0,0.04 -0.21,0.09 -0.18,0.05 -0.24,0.05 -0.52,-0.04 -0.03,-0.01 -0.03,-0.01 -0.04,-0.14 0,-0.05 -0.01,-0.1 -0.01,-0.11 -0.01,-0.03 -0.3,-0.03 -0.3,0 0,0.07 0.04,0.46 0.05,0.47 0.01,0.01 0.62,0.18 0.65,0.18 0.01,0 0.16,-0.04 0.33,-0.09l0 0zm-1.4 -2.51c0,-0.01 -0.01,-0.47 0,-0.49 0,-0.01 0.02,-0.01 0.09,-0.01 0.1,0 0.09,-0.01 0.09,0.08 0,0.07 0,0.07 0.07,0.07 0.06,0 0.06,0 0.06,-0.07 0,-0.09 0,-0.08 0.1,-0.08 0.1,0 0.09,-0.03 0.09,0.26 0,0.24 0,0.24 -0.09,0.24 -0.1,0 -0.1,0.01 -0.1,-0.09 0,-0.12 -0.12,-0.11 -0.13,0.01 0,0.07 -0.13,0.13 -0.18,0.08l0 0zm0.71 -0.01c-0.01,0 -0.01,-0.08 -0.01,-0.16 0,-0.16 0,-0.16 -0.07,-0.16 -0.08,0 -0.08,0 -0.08,-0.08 0,-0.1 -0.03,-0.09 0.24,-0.09 0.27,0 0.24,-0.01 0.24,0.09 0,0.08 0,0.08 -0.08,0.08 -0.06,0 -0.06,0 -0.07,0.17 0,0.14 -0.14,0.26 -0.17,0.15l0 0zm0.38 0c-0.01,-0.01 -0.01,-0.47 0,-0.48 0,-0.02 0.17,-0.02 0.19,0 0,0 0.03,0.03 0.05,0.07 0.02,0.03 0.04,0.06 0.04,0.07 0,0 0.03,-0.03 0.05,-0.07 0.05,-0.08 0.05,-0.08 0.15,-0.08 0.11,0 0.1,-0.03 0.1,0.25 0,0.28 0.01,0.25 -0.1,0.25 -0.09,0 -0.09,0 -0.09,-0.1 0,-0.13 0,-0.12 -0.05,-0.04 -0.06,0.08 -0.06,0.08 -0.11,0 -0.06,-0.09 -0.06,-0.09 -0.06,0.04 0,0.09 -0.14,0.17 -0.17,0.09l0 0zm0.64 0c0,-0.01 -0.01,-0.11 -0.01,-0.24 0,-0.28 -0.01,-0.25 0.1,-0.25 0.1,0 0.09,-0.03 0.09,0.16 0,0.16 0,0.16 0.11,0.16 0.13,0 0.17,0.06 0.12,0.17 0,0.02 -0.41,0.02 -0.41,0l0 0z"/>
 <path fill="#F2D5CD" d="M1.95 3.78c-0.13,-0.02 -1.01,-0.27 -1.02,-0.28 -0.01,-0.01 -0.24,-2.56 -0.24,-2.65 0,-0.03 2.59,-0.05 2.62,-0.02 0.01,0.01 -0.23,2.65 -0.24,2.67 -0.01,0 -0.23,0.07 -0.49,0.14 -0.56,0.16 -0.57,0.16 -0.63,0.14zm0.38 -0.65c0.17,-0.05 0.32,-0.09 0.32,-0.1 0.01,-0.01 0.1,-0.97 0.09,-0.98 0,-0.01 -0.16,-0.01 -0.59,0 -0.47,0 -0.58,0 -0.59,-0.01 -0.01,-0.01 -0.04,-0.33 -0.03,-0.34 0.01,-0.01 0.11,-0.01 0.62,0 0.52,0 0.62,0 0.62,-0.01 0.01,-0.01 0.04,-0.28 0.03,-0.3 0,-0.01 -1.59,-0.01 -1.61,0 0,0 0.02,0.22 0.05,0.48 0.02,0.26 0.04,0.48 0.04,0.48 0,0 0.12,0 0.26,0 0.44,0 0.86,0.01 0.86,0.02 0.01,0.01 0,0.09 -0.01,0.19 -0.01,0.1 -0.02,0.19 -0.02,0.2 0,0.03 -0.01,0.04 -0.19,0.09 -0.21,0.05 -0.17,0.05 -0.38,0 -0.2,-0.06 -0.18,-0.04 -0.19,-0.18 0,-0.06 -0.01,-0.11 -0.01,-0.12 -0.01,-0.01 -0.29,-0.02 -0.3,-0.01 0,0.01 0.01,0.12 0.02,0.25 0.02,0.24 0.02,0.24 0.35,0.33 0.18,0.05 0.33,0.1 0.33,0.1 0.01,0 0.15,-0.04 0.33,-0.09l0 0zm-1.4 -2.52c0,-0.01 -0.01,-0.47 0,-0.49 0,-0.01 0.02,-0.01 0.09,-0.01 0.1,0 0.09,-0.01 0.09,0.08 0,0.07 0,0.07 0.07,0.07 0.06,0 0.06,0 0.06,-0.07 0,-0.09 0,-0.08 0.1,-0.08 0.1,0 0.09,-0.03 0.09,0.26 0,0.24 0,0.24 -0.09,0.24 -0.1,0 -0.1,0.01 -0.1,-0.09 0,-0.12 -0.12,-0.11 -0.13,0.01 0,0.07 -0.13,0.13 -0.18,0.08l0 0zm0.71 -0.01c-0.01,0 -0.01,-0.08 -0.01,-0.16 0,-0.16 0,-0.16 -0.07,-0.16 -0.08,0 -0.08,0 -0.08,-0.08 0,-0.1 -0.03,-0.09 0.24,-0.09 0.27,0 0.24,-0.01 0.24,0.09 0,0.08 0,0.08 -0.08,0.08 -0.06,0 -0.06,0 -0.07,0.17 0,0.14 -0.14,0.26 -0.17,0.15l0 0zm0.38 0c-0.01,-0.01 -0.01,-0.47 0,-0.48 0,-0.02 0.17,-0.02 0.19,0 0,0 0.03,0.03 0.05,0.07 0.02,0.03 0.04,0.06 0.04,0.07 0,0 0.03,-0.03 0.05,-0.07 0.05,-0.08 0.05,-0.08 0.15,-0.08 0.11,0 0.1,-0.03 0.1,0.25 0,0.28 0.01,0.25 -0.1,0.25 -0.09,0 -0.09,0 -0.09,-0.1 0,-0.13 0,-0.12 -0.05,-0.04 -0.06,0.08 -0.06,0.08 -0.11,0 -0.06,-0.09 -0.06,-0.09 -0.06,0.04 0,0.09 -0.14,0.17 -0.17,0.09l0 0zm0.64 0c0,-0.01 -0.01,-0.11 -0.01,-0.24 0,-0.28 -0.01,-0.25 0.1,-0.25 0.1,0 0.09,-0.03 0.09,0.16 0,0.16 0,0.16 0.11,0.16 0.13,0 0.17,0.06 0.12,0.17 0,0.02 -0.41,0.02 -0.41,0l0 0z"/>
 <path fill="#F2C6B8" d="M1.95 3.78c-0.14,-0.03 -1.01,-0.28 -1.02,-0.28 -0.01,-0.01 -0.24,-2.65 -0.24,-2.66 0.01,-0.02 2.61,-0.02 2.62,0 0,0.01 -0.24,2.65 -0.24,2.66 -0.01,0 -0.96,0.27 -1.03,0.28 -0.05,0.01 -0.05,0.01 -0.09,0l0 0zm0.39 -0.65c0.17,-0.05 0.32,-0.09 0.32,-0.09 0,-0.01 0.09,-0.93 0.09,-0.97 0,-0.03 0,-0.03 -0.59,-0.03 -0.41,0 -0.59,0 -0.6,0 0,-0.01 -0.03,-0.32 -0.03,-0.33 0.01,-0.01 0.09,-0.01 0.63,-0.01 0.49,0 0.62,0 0.62,-0.01 0,-0.02 0.03,-0.3 0.03,-0.3 -0.01,-0.01 -1.6,-0.01 -1.61,0 -0.01,0 0.07,0.93 0.08,0.95 0,0.01 0.16,0.01 0.55,0.02 0.66,0 0.58,-0.03 0.56,0.2 -0.02,0.25 -0.02,0.23 -0.06,0.24 -0.28,0.09 -0.66,0.08 -0.7,-0.01 0,-0.01 -0.01,-0.06 -0.02,-0.13 0,-0.06 -0.01,-0.12 -0.01,-0.12 -0.01,-0.01 -0.3,-0.01 -0.3,0 -0.01,0.01 0.03,0.49 0.04,0.49 0,0.01 0.64,0.19 0.66,0.19 0.01,0 0.16,-0.04 0.34,-0.09l0 0zm-1.4 -2.53c-0.01,-0.01 -0.02,-0.46 -0.01,-0.48 0.02,-0.06 0.18,-0.01 0.18,0.06 0,0.09 -0.01,0.09 0.07,0.09 0.07,0 0.07,0 0.07,-0.09 0,-0.07 0.15,-0.12 0.18,-0.06 0.01,0.03 0,0.48 -0.01,0.48 -0.06,0.05 -0.17,0 -0.17,-0.07 -0.01,-0.12 -0.14,-0.13 -0.14,-0.01 0,0.09 -0.12,0.14 -0.17,0.08zm0.7 0.01c-0.01,-0.01 -0.01,-0.08 -0.01,-0.17 0,-0.16 0,-0.16 -0.07,-0.16 -0.07,0 -0.07,0 -0.07,-0.09 0,-0.08 0,-0.08 0.23,-0.08 0.24,0 0.24,0 0.23,0.08 0,0.09 0,0.09 -0.07,0.09 -0.07,0 -0.07,0 -0.07,0.16 0,0.15 -0.1,0.24 -0.17,0.17l0 0zm0.38 -0.01c-0.01,-0.02 -0.01,-0.46 0,-0.48 0,-0.01 0.02,-0.01 0.09,-0.01 0.1,0 0.1,-0.01 0.16,0.1 0.03,0.06 0.04,0.06 0.07,-0.01 0.06,-0.1 0.06,-0.09 0.16,-0.09 0.13,0 0.14,0.5 0.01,0.5 -0.1,0 -0.1,0.01 -0.1,-0.12 0,-0.1 0,-0.1 -0.05,-0.03 -0.06,0.09 -0.06,0.09 -0.11,0 -0.06,-0.08 -0.06,-0.08 -0.06,0.04 0,0.1 -0.13,0.18 -0.17,0.1l0 0zm0.65 0.01c-0.07,-0.07 0,-0.5 0.08,-0.5 0.1,0 0.09,-0.02 0.09,0.17 0,0.15 0,0.15 0.11,0.15 0.12,0.01 0.12,0.01 0.12,0.09 0,0.08 -0.34,0.15 -0.4,0.09l0 0z"/>
 <path fill="#F0B9A8" d="M1.96 3.78c-0.01,0 -0.25,-0.06 -0.52,-0.14 -0.27,-0.07 -0.5,-0.14 -0.5,-0.14 -0.02,-0.02 -0.25,-2.65 -0.24,-2.66 0.01,-0.02 2.59,-0.02 2.6,0 0.01,0.01 -0.23,2.64 -0.24,2.66 -0.01,0 -0.82,0.23 -1,0.28 -0.06,0.01 -0.07,0.01 -0.1,0zm0.36 -0.65c0.18,-0.05 0.33,-0.09 0.34,-0.09 0,-0.01 0.1,-0.98 0.09,-0.99 0,0 -0.27,-0.01 -0.59,-0.01 -0.46,0 -0.59,0 -0.59,-0.01 -0.01,-0.01 -0.04,-0.31 -0.03,-0.32 0,-0.01 0.1,-0.01 0.62,-0.01 0.62,0 0.62,0 0.63,-0.04 0.01,-0.13 0.02,-0.27 0.02,-0.27 -0.01,-0.01 -1.61,-0.01 -1.62,0 -0.01,0.01 0.08,0.95 0.09,0.96 0,0.01 0.22,0.01 0.56,0.01 0.44,0 0.56,0 0.56,0.01 0.01,0.02 -0.03,0.41 -0.04,0.42 -0.11,0.09 -0.65,0.09 -0.73,0 0,-0.01 -0.01,-0.06 -0.01,-0.11 -0.02,-0.17 0.01,-0.15 -0.17,-0.15 -0.09,0 -0.16,0.01 -0.16,0.01 0,0.01 0.04,0.49 0.05,0.49 0,0.01 0.15,0.05 0.33,0.1 0.18,0.05 0.33,0.09 0.33,0.09 0,0 0.14,-0.04 0.32,-0.09zm-1.39 -2.53c0,-0.02 -0.01,-0.46 0,-0.48 0.02,-0.06 0.18,-0.01 0.18,0.07 0,0.12 0.14,0.12 0.14,0 0,-0.08 0.15,-0.13 0.18,-0.07 0,0.02 0,0.47 -0.01,0.48 -0.04,0.06 -0.17,0.01 -0.17,-0.07 -0.01,-0.12 -0.14,-0.13 -0.14,-0.02 0,0.1 0.01,0.1 -0.09,0.1 -0.07,0 -0.08,0 -0.09,-0.01l0 0zm0.71 0c-0.01,0 -0.01,-0.05 -0.01,-0.16 0,-0.16 0,-0.16 -0.07,-0.16 -0.07,0 -0.07,0 -0.07,-0.09 0,-0.08 0,-0.08 0.23,-0.08 0.24,0 0.24,0 0.23,0.08 0,0.09 0,0.09 -0.07,0.09 -0.07,0 -0.07,0 -0.07,0.16 0,0.11 0,0.16 -0.01,0.16 -0.01,0.01 -0.15,0.01 -0.16,0l0 0zm0.39 0.01c-0.01,-0.01 -0.01,-0.12 -0.01,-0.25 0,-0.3 0.12,-0.37 0.24,-0.15 0.05,0.07 0.04,0.07 0.08,-0.01 0.06,-0.1 0.06,-0.09 0.16,-0.09 0.13,0 0.14,0.5 0.01,0.5 -0.1,0 -0.1,0.01 -0.1,-0.12 0,-0.1 0,-0.1 -0.05,-0.03 -0.06,0.09 -0.06,0.09 -0.11,0 -0.06,-0.08 -0.06,-0.08 -0.06,0.04 0,0.09 0,0.1 -0.01,0.11 -0.01,0 -0.15,0 -0.15,0l0 0zm0.64 0c-0.07,-0.07 0,-0.5 0.08,-0.5 0.1,0 0.09,-0.02 0.09,0.17 0,0.15 0,0.15 0.11,0.15 0.13,0 0.12,0 0.12,0.1 0,0.07 -0.35,0.14 -0.4,0.08l0 0z"/>
 <path fill="#EFAB96" d="M1.98 3.79c0,0 -0.24,-0.07 -0.52,-0.14 -0.28,-0.08 -0.52,-0.15 -0.52,-0.15 -0.02,-0.02 -0.25,-2.66 -0.23,-2.67 0.01,0 2.57,0 2.58,0 0.02,0.01 -0.21,2.65 -0.23,2.66 -0.01,0.01 -0.54,0.16 -1,0.29 -0.06,0.01 -0.07,0.01 -0.08,0.01zm0.35 -0.66c0.18,-0.05 0.33,-0.09 0.33,-0.09 0.01,-0.01 0.1,-0.99 0.09,-1 0,0 -0.17,0 -0.59,0 -0.56,0 -0.59,0 -0.59,-0.01 -0.01,-0.02 -0.04,-0.3 -0.03,-0.32 0,-0.01 0.05,-0.01 0.62,-0.01 0.54,0.01 0.61,0.01 0.62,0 0.01,-0.02 0.04,-0.31 0.02,-0.32 -0.01,-0.01 -1.61,0 -1.61,0.01 -0.01,0 0.07,0.92 0.08,0.95 0,0.02 0,0.02 0.56,0.02 0.66,0 0.57,-0.03 0.55,0.22 -0.02,0.24 0.01,0.2 -0.2,0.26 -0.21,0.06 -0.16,0.06 -0.37,0 -0.21,-0.05 -0.18,-0.03 -0.19,-0.17 -0.01,-0.07 -0.01,-0.12 -0.01,-0.13 -0.01,-0.01 -0.31,-0.01 -0.32,0 0,0 0.01,0.11 0.02,0.24 0.01,0.13 0.02,0.24 0.02,0.25 0,0 0.02,0.01 0.04,0.02 0.06,0.02 0.62,0.17 0.63,0.17 0,0 0.15,-0.04 0.33,-0.09l0 0zm-1.4 -2.53c0,-0.02 -0.01,-0.46 0,-0.48 0.02,-0.06 0.18,-0.01 0.18,0.07 0,0.12 0.14,0.12 0.14,0 0,-0.08 0.15,-0.13 0.18,-0.07 0,0.02 0,0.47 -0.01,0.48 -0.04,0.06 -0.17,0.01 -0.17,-0.07 -0.01,-0.12 -0.14,-0.13 -0.14,-0.02 0,0.1 0.01,0.1 -0.09,0.1 -0.07,0 -0.08,0 -0.09,-0.01l0 0zm0.71 0c-0.01,0 -0.01,-0.05 -0.01,-0.16 0,-0.16 0,-0.16 -0.07,-0.16 -0.07,0 -0.07,0 -0.07,-0.09 0,-0.08 0,-0.08 0.23,-0.08 0.24,0 0.24,0 0.23,0.08 0,0.09 0,0.09 -0.07,0.09 -0.07,0 -0.07,0 -0.07,0.16 0,0.11 0,0.16 -0.01,0.16 -0.01,0.01 -0.15,0.01 -0.16,0l0 0zm0.39 0.01c-0.01,-0.01 -0.01,-0.12 -0.01,-0.25 0,-0.3 0.12,-0.37 0.24,-0.15 0.05,0.07 0.04,0.07 0.08,-0.01 0.06,-0.1 0.06,-0.09 0.16,-0.09 0.13,0 0.14,0.5 0.01,0.5 -0.1,0 -0.1,0.01 -0.1,-0.12 0,-0.1 0,-0.1 -0.05,-0.03 -0.06,0.09 -0.06,0.09 -0.11,0 -0.06,-0.08 -0.06,-0.08 -0.06,0.04 0,0.09 0,0.1 -0.01,0.11 -0.01,0 -0.15,0 -0.15,0l0 0zm0.64 0c-0.07,-0.07 0,-0.5 0.08,-0.5 0.1,0 0.09,-0.02 0.09,0.17 0,0.15 0,0.15 0.11,0.15 0.13,0 0.12,0 0.12,0.1 0,0.07 -0.35,0.14 -0.4,0.08l0 0z"/>
 <path fill="#A3A3A3" d="M1.97 3.79c0,-0.01 -0.24,-0.07 -0.51,-0.15 -0.28,-0.07 -0.51,-0.14 -0.52,-0.15 -0.01,-0.01 -0.25,-2.63 -0.24,-2.65 0,-0.01 2.59,-0.01 2.6,0 0.02,0.04 -0.24,2.65 -0.26,2.66 -0.03,0.01 -1.05,0.29 -1.05,0.29 0,0 -0.01,0 -0.02,0l0 0zm0.36 -0.65c0.18,-0.05 0.32,-0.09 0.33,-0.1 0.01,-0.01 0.09,-0.88 0.09,-0.97 0,-0.03 0,-0.03 -0.59,-0.03 -0.37,0 -0.59,-0.01 -0.59,-0.01 -0.01,-0.01 -0.03,-0.31 -0.03,-0.32 0,0 0.25,0 0.62,0 0.49,0 0.62,-0.01 0.63,-0.01 0,-0.02 0.03,-0.31 0.02,-0.32 0,-0.01 -1.61,-0.01 -1.62,0 -0.01,0.01 0.07,0.96 0.08,0.98 0.01,0.01 0.13,0.01 0.57,0.01 0.55,0 0.55,0 0.55,0.02 0,0.06 -0.03,0.39 -0.04,0.4 -0.06,0.06 -0.37,0.09 -0.53,0.05 -0.21,-0.06 -0.18,-0.03 -0.2,-0.18 0,-0.06 -0.01,-0.12 -0.01,-0.13 -0.01,-0.01 -0.32,-0.01 -0.32,0.01 -0.01,0.01 0.03,0.48 0.04,0.49 0.01,0.02 0.63,0.19 0.67,0.19 0.01,0 0.16,-0.04 0.33,-0.08zm-1.4 -2.54c0,-0.02 -0.01,-0.46 0,-0.48 0.02,-0.06 0.18,-0.01 0.18,0.07 0,0.12 0.14,0.12 0.14,0 0,-0.08 0.15,-0.13 0.18,-0.07 0,0.02 0,0.47 -0.01,0.48 -0.04,0.06 -0.17,0.01 -0.17,-0.07 -0.01,-0.12 -0.14,-0.13 -0.14,-0.02 0,0.1 0.01,0.1 -0.09,0.1 -0.07,0 -0.08,0 -0.09,-0.01l0 0zm0.71 0c-0.01,0 -0.01,-0.05 -0.01,-0.16 0,-0.16 0,-0.16 -0.07,-0.16 -0.07,0 -0.07,0 -0.07,-0.09 0,-0.08 0,-0.08 0.23,-0.08 0.24,0 0.24,0 0.23,0.08 0,0.09 0,0.09 -0.07,0.09 -0.07,0 -0.07,0 -0.07,0.16 0,0.11 0,0.16 -0.01,0.16 -0.01,0.01 -0.15,0.01 -0.16,0l0 0zm0.39 0.01c-0.01,-0.01 -0.01,-0.12 -0.01,-0.25 0,-0.3 0.12,-0.37 0.24,-0.15 0.05,0.07 0.04,0.07 0.08,-0.01 0.06,-0.1 0.06,-0.09 0.16,-0.09 0.13,0 0.14,0.5 0.01,0.5 -0.1,0 -0.1,0.01 -0.1,-0.12 0,-0.1 0,-0.1 -0.05,-0.03 -0.06,0.09 -0.06,0.09 -0.11,0 -0.06,-0.08 -0.06,-0.08 -0.06,0.04 0,0.09 0,0.1 -0.01,0.11 -0.01,0 -0.15,0 -0.15,0l0 0zm0.64 0c-0.07,-0.07 0,-0.5 0.08,-0.5 0.1,0 0.09,-0.02 0.09,0.17 0,0.15 0,0.15 0.11,0.15 0.13,0 0.12,0 0.12,0.1 0,0.07 -0.35,0.14 -0.4,0.08l0 0z"/>
 <path fill="#EE8C6A" d="M1.97 3.79c0,-0.01 -0.24,-0.07 -0.51,-0.15 -0.28,-0.07 -0.51,-0.14 -0.52,-0.15 -0.01,-0.01 -0.25,-2.63 -0.24,-2.65 0,-0.01 2.59,-0.01 2.6,0 0.02,0.04 -0.24,2.65 -0.26,2.66 -0.03,0.01 -1.05,0.29 -1.05,0.29 0,0 -0.01,0 -0.02,0l0 0zm0.36 -0.65c0.18,-0.05 0.32,-0.09 0.33,-0.1 0.01,-0.01 0.09,-0.88 0.09,-0.97 0,-0.03 0,-0.03 -0.59,-0.03 -0.37,0 -0.59,-0.01 -0.59,-0.01 -0.01,-0.01 -0.03,-0.31 -0.03,-0.32 0,0 0.25,0 0.62,0 0.49,0 0.62,-0.01 0.63,-0.01 0,-0.02 0.03,-0.31 0.02,-0.32 0,-0.01 -1.61,-0.01 -1.62,0 -0.01,0.01 0.07,0.96 0.08,0.98 0.01,0.01 0.13,0.01 0.57,0.01 0.55,0 0.55,0 0.55,0.02 0,0.06 -0.03,0.39 -0.04,0.4 -0.06,0.06 -0.37,0.09 -0.53,0.05 -0.21,-0.06 -0.18,-0.03 -0.2,-0.18 0,-0.06 -0.01,-0.12 -0.01,-0.13 -0.01,-0.01 -0.32,-0.01 -0.32,0.01 -0.01,0.01 0.03,0.48 0.04,0.49 0.01,0.02 0.63,0.19 0.67,0.19 0.01,0 0.16,-0.04 0.33,-0.08zm-1.39 -2.55c-0.05,-0.13 0,-0.48 0.08,-0.48 0.08,0 0.08,0 0.08,0.07 0,0.09 0,0.09 0.08,0.09 0.08,0 0.08,0 0.08,-0.09 0,-0.07 0,-0.07 0.08,-0.07 0.07,0 0.14,0.39 0.08,0.49 -0.03,0.04 -0.16,0 -0.16,-0.06 0,-0.11 0,-0.1 -0.08,-0.1 -0.07,0 -0.07,0 -0.07,0.07 0,0.1 0,0.09 -0.09,0.09 -0.06,0 -0.08,0 -0.08,-0.01l0 0zm0.7 0.01c0,-0.01 0,-0.08 0,-0.17 0,-0.15 0,-0.15 -0.07,-0.16 -0.07,0 -0.07,0 -0.07,-0.08 -0.01,-0.08 -0.01,-0.08 0.22,-0.08 0.23,0 0.23,0 0.23,0.08 -0.01,0.08 -0.01,0.08 -0.07,0.08 -0.07,0.01 -0.07,0.01 -0.08,0.17 0,0.14 -0.12,0.26 -0.16,0.16l0 0zm0.38 -0.01c-0.09,-0.25 0.09,-0.63 0.21,-0.43 0.08,0.13 0.07,0.13 0.13,0.03 0.12,-0.2 0.22,-0.12 0.22,0.16 0,0.25 0,0.25 -0.08,0.25 -0.08,0 -0.08,0 -0.08,-0.11 0,-0.13 0,-0.13 -0.06,-0.04 -0.06,0.09 -0.06,0.09 -0.11,0 -0.06,-0.09 -0.06,-0.09 -0.07,0.04 0,0.1 -0.12,0.18 -0.16,0.1zm0.65 0.01c-0.06,-0.06 0.01,-0.49 0.08,-0.49 0.08,0 0.08,0 0.08,0.16 0,0.17 0,0.17 0.12,0.17 0.11,0 0.11,0 0.11,0.08 0,0.07 -0.33,0.14 -0.39,0.08l0 0z"/>
 <path fill="#E77353" d="M1.98 3.79c0,0 -0.01,-0.01 -0.02,-0.01 -0.01,-0.01 -0.24,-0.07 -0.52,-0.15 -0.27,-0.07 -0.5,-0.14 -0.5,-0.14 -0.01,-0.01 -0.24,-2.63 -0.23,-2.64 0,-0.02 2.58,-0.02 2.58,0 0.01,0.02 -0.23,2.63 -0.24,2.64 0,0 -0.23,0.07 -0.5,0.14 -0.27,0.08 -0.51,0.15 -0.52,0.15 -0.02,0.01 -0.03,0.01 -0.03,0.01 0,0 -0.01,0 -0.02,0l0 0zm0.35 -0.65c0.18,-0.05 0.33,-0.09 0.34,-0.1 0.01,-0.01 0.1,-1 0.08,-1 0,-0.01 -0.21,-0.01 -0.59,-0.01 -0.46,0.01 -0.58,0.01 -0.58,0 -0.01,-0.01 -0.04,-0.3 -0.03,-0.31 0,-0.01 0.06,-0.01 0.61,-0.01 0.72,0 0.63,0.02 0.65,-0.14 0.01,-0.17 0.01,-0.19 -0.01,-0.2 -0.08,-0.03 -1.62,0.01 -1.62,0.04 0,0.06 0.08,0.94 0.09,0.95 0,0.01 0.07,0.01 0.27,0.01 0.66,0 0.85,0 0.85,0.03 0,0.08 -0.04,0.38 -0.05,0.38 -0.14,0.08 -0.35,0.1 -0.52,0.05 -0.21,-0.05 -0.18,-0.03 -0.2,-0.2 -0.01,-0.09 -0.31,-0.18 -0.34,-0.09 0,0.01 0.04,0.49 0.05,0.5 0.01,0.01 0.64,0.19 0.67,0.19 0,0 0.16,-0.04 0.33,-0.09l0 0zm-1.39 -2.55c-0.05,-0.13 0,-0.48 0.08,-0.48 0.08,0 0.08,0 0.08,0.07 0,0.09 0,0.09 0.08,0.09 0.08,0 0.08,0 0.08,-0.09 0,-0.07 0,-0.07 0.08,-0.07 0.07,0 0.14,0.39 0.08,0.49 -0.03,0.04 -0.16,0 -0.16,-0.06 0,-0.11 0,-0.1 -0.08,-0.1 -0.07,0 -0.07,0 -0.07,0.07 0,0.1 0,0.09 -0.09,0.09 -0.06,0 -0.08,0 -0.08,-0.01l0 0zm0.7 0.01c0,-0.01 0,-0.08 0,-0.17 0,-0.15 0,-0.15 -0.07,-0.16 -0.07,0 -0.07,0 -0.07,-0.08 -0.01,-0.08 -0.01,-0.08 0.22,-0.08 0.23,0 0.23,0 0.23,0.08 -0.01,0.08 -0.01,0.08 -0.07,0.08 -0.07,0.01 -0.07,0.01 -0.08,0.17 0,0.14 -0.12,0.26 -0.16,0.16l0 0zm0.38 -0.01c-0.09,-0.25 0.09,-0.63 0.21,-0.43 0.08,0.13 0.07,0.13 0.13,0.03 0.12,-0.2 0.22,-0.12 0.22,0.16 0,0.25 0,0.25 -0.08,0.25 -0.08,0 -0.08,0 -0.08,-0.11 0,-0.13 0,-0.13 -0.06,-0.04 -0.06,0.09 -0.06,0.09 -0.11,0 -0.06,-0.09 -0.06,-0.09 -0.07,0.04 0,0.1 -0.12,0.18 -0.16,0.1zm0.65 0.01c-0.06,-0.06 0.01,-0.49 0.08,-0.49 0.08,0 0.08,0 0.08,0.16 0,0.17 0,0.17 0.12,0.17 0.11,0 0.11,0 0.11,0.08 0,0.07 -0.33,0.14 -0.39,0.08l0 0z"/>
 <path fill="#EF6428" d="M1.98 3.79c0,0 -0.01,-0.01 -0.01,-0.01 0,0 -0.23,-0.07 -0.51,-0.15 -0.28,-0.08 -0.52,-0.14 -0.52,-0.14 0,-0.01 -0.24,-2.64 -0.23,-2.64 0,-0.01 0.58,-0.01 1.29,-0.01 0.71,0 1.29,0 1.29,0.01 0,0 -0.23,2.63 -0.23,2.64 -0.01,0 -0.24,0.06 -0.52,0.14 -0.29,0.08 -0.52,0.15 -0.52,0.15 0.01,0.01 -0.02,0.01 -0.04,0.01zm0.35 -0.64c0.18,-0.05 0.33,-0.1 0.34,-0.1 0.01,-0.01 0.1,-0.99 0.09,-1.01 0,-0.01 -0.11,-0.01 -0.59,-0.01 -0.46,0 -0.59,0 -0.59,-0.01 -0.01,-0.01 -0.03,-0.3 -0.03,-0.3 0,-0.01 0.28,-0.01 0.62,-0.01 0.34,0 0.62,0 0.62,0 0.01,-0.01 0.04,-0.32 0.03,-0.33 0,-0.02 -1.64,-0.02 -1.65,0 0,0.02 0.09,0.98 0.1,0.99 0,0 0.25,0 0.56,0 0.3,0.01 0.55,0.01 0.55,0.01 0.01,0.01 -0.03,0.39 -0.03,0.4 -0.01,0.01 -0.34,0.09 -0.36,0.09 -0.19,0 -0.35,-0.09 -0.36,-0.21 0,-0.07 -0.01,-0.13 -0.02,-0.13 0,-0.02 -0.32,-0.01 -0.33,0 -0.01,0.01 0.03,0.5 0.05,0.51 0,0.01 0.63,0.19 0.66,0.2 0.01,0 0.16,-0.04 0.34,-0.09l0 0zm-1.39 -2.56c-0.05,-0.13 0,-0.48 0.08,-0.48 0.08,0 0.08,0 0.08,0.07 0,0.09 0,0.09 0.08,0.09 0.08,0 0.08,0 0.08,-0.09 0,-0.07 0,-0.07 0.08,-0.07 0.07,0 0.14,0.39 0.08,0.49 -0.03,0.04 -0.16,0 -0.16,-0.06 0,-0.11 0,-0.1 -0.08,-0.1 -0.07,0 -0.07,0 -0.07,0.07 0,0.1 0,0.09 -0.09,0.09 -0.06,0 -0.08,0 -0.08,-0.01l0 0zm0.7 0.01c0,-0.01 0,-0.08 0,-0.17 0,-0.15 0,-0.15 -0.07,-0.16 -0.07,0 -0.07,0 -0.07,-0.08 -0.01,-0.08 -0.01,-0.08 0.22,-0.08 0.23,0 0.23,0 0.23,0.08 -0.01,0.08 -0.01,0.08 -0.07,0.08 -0.07,0.01 -0.07,0.01 -0.08,0.17 0,0.14 -0.12,0.26 -0.16,0.16l0 0zm0.38 -0.01c-0.09,-0.25 0.09,-0.63 0.21,-0.43 0.08,0.13 0.07,0.13 0.13,0.03 0.12,-0.2 0.22,-0.12 0.22,0.16 0,0.25 0,0.25 -0.08,0.25 -0.08,0 -0.08,0 -0.08,-0.11 0,-0.13 0,-0.13 -0.06,-0.04 -0.06,0.09 -0.06,0.09 -0.11,0 -0.06,-0.09 -0.06,-0.09 -0.07,0.04 0,0.1 -0.12,0.18 -0.16,0.1zm0.65 0.01c-0.06,-0.06 0.01,-0.49 0.08,-0.49 0.08,0 0.08,0 0.08,0.16 0,0.17 0,0.17 0.12,0.17 0.11,0 0.11,0 0.11,0.08 0,0.07 -0.33,0.14 -0.39,0.08l0 0z"/>
 <path fill="#E75627" d="M1.98 3.79c0,0 -0.01,-0.01 -0.01,-0.01 0,0 -0.23,-0.07 -0.51,-0.15 -0.28,-0.08 -0.52,-0.14 -0.52,-0.14 0,-0.01 -0.23,-2.64 -0.23,-2.64 0,-0.01 0.58,-0.01 1.29,-0.01 0.71,0 1.29,0 1.29,0.01 0.01,0.01 -0.23,2.63 -0.24,2.64 -0.01,0 -0.24,0.07 -0.52,0.14 -0.28,0.08 -0.51,0.15 -0.51,0.15 0.01,0.01 -0.02,0.01 -0.04,0.01l0 0zm0.45 -0.35c0.23,-0.06 0.42,-0.12 0.42,-0.12 0.01,-0.01 0.21,-2.16 0.21,-2.23 0,-0.03 0,-0.03 -0.53,-0.03 -0.52,0 -0.52,0 -0.52,0.15 0,0.13 -0.01,0.15 -0.02,0.15 0,0.01 -0.19,0.01 -0.41,0.01 -0.36,0 -0.4,0 -0.41,0.01 0,0.01 0.08,0.89 0.09,0.96 0,0.03 0,0.03 0.37,0.04 0.37,0 0.37,0 0.37,0.24 0.01,0.29 0.03,0.26 -0.19,0.21 -0.17,-0.05 -0.17,-0.05 -0.18,-0.17 0,-0.07 -0.01,-0.13 -0.01,-0.13 -0.01,-0.02 -0.34,-0.01 -0.34,0 -0.01,0.01 0,0.11 0.01,0.24 0.02,0.13 0.02,0.24 0.03,0.25 0,0.03 0.01,0.03 0.33,0.12 0.18,0.05 0.33,0.09 0.34,0.1 0.02,0.01 0.02,0.01 0.02,0.16 0,0.09 0,0.16 0,0.16 0.01,0 0.19,-0.06 0.42,-0.12l0 0zm-0.85 -1.42c-0.01,-0.01 -0.03,-0.3 -0.03,-0.3 0.01,-0.01 0.43,-0.01 0.44,0 0.02,0 0.02,0.3 0,0.31 -0.02,0 -0.41,0 -0.41,-0.01zm-0.64 -1.43c-0.05,-0.13 0,-0.48 0.08,-0.48 0.08,0 0.08,0 0.08,0.07 0,0.09 0,0.09 0.08,0.09 0.08,0 0.08,0 0.08,-0.09 0,-0.07 0,-0.07 0.08,-0.07 0.07,0 0.14,0.39 0.08,0.49 -0.03,0.04 -0.16,0 -0.16,-0.06 0,-0.11 0,-0.1 -0.08,-0.1 -0.07,0 -0.07,0 -0.07,0.07 0,0.1 0,0.09 -0.09,0.09 -0.06,0 -0.08,0 -0.08,-0.01l0 0zm0.7 0.01c0,-0.01 0,-0.08 0,-0.17 0,-0.15 0,-0.15 -0.07,-0.16 -0.07,0 -0.07,0 -0.07,-0.08 -0.01,-0.08 -0.01,-0.08 0.22,-0.08 0.23,0 0.23,0 0.23,0.08 -0.01,0.08 -0.01,0.08 -0.07,0.08 -0.07,0.01 -0.07,0.01 -0.08,0.17 0,0.14 -0.12,0.26 -0.16,0.16l0 0zm0.38 -0.01c-0.09,-0.25 0.09,-0.63 0.21,-0.43 0.08,0.13 0.07,0.13 0.13,0.03 0.12,-0.2 0.22,-0.12 0.22,0.16 0,0.25 0,0.25 -0.08,0.25 -0.08,0 -0.08,0 -0.08,-0.11 0,-0.13 0,-0.13 -0.06,-0.04 -0.06,0.09 -0.06,0.09 -0.11,0 -0.06,-0.09 -0.06,-0.09 -0.07,0.04 0,0.1 -0.12,0.18 -0.16,0.1zm0.65 0.01c-0.06,-0.06 0.01,-0.49 0.08,-0.49 0.08,0 0.08,0 0.08,0.16 0,0.17 0,0.17 0.12,0.17 0.11,0 0.11,0 0.11,0.08 0,0.07 -0.33,0.14 -0.39,0.08l0 0z"/>
 <path fill="#E34C25" d="M1.98 3.78c0.01,0 0.02,0 0.03,0 0.01,0 0,0 -0.01,0 -0.02,0 -0.03,0 -0.02,0zm-0.52 -0.15c-0.48,-0.14 -0.51,-0.14 -0.51,-0.16 -0.01,-0.01 -0.06,-0.59 -0.12,-1.29 -0.06,-0.7 -0.11,-1.28 -0.12,-1.3 0,-0.03 0,-0.03 1.29,-0.03 1.29,0 1.29,0 1.28,0.03 0,0.02 -0.05,0.6 -0.11,1.3 -0.06,0.7 -0.12,1.28 -0.12,1.29 0,0.02 -1,0.3 -1.06,0.3 -0.01,0 -0.25,-0.06 -0.53,-0.14l0 0zm0.99 -0.18c0.22,-0.06 0.41,-0.12 0.41,-0.12 0.01,-0.01 0.21,-2.26 0.21,-2.28 -0.01,-0.01 -1.06,-0.01 -1.07,0 -0.01,0.01 -0.01,0.05 -0.01,0.16 0,0.15 0,0.15 -0.4,0.15 -0.5,0 -0.44,-0.08 -0.38,0.51 0.05,0.59 -0.02,0.51 0.42,0.51 0.36,0 0.36,0 0.36,0.24 0,0.18 0,0.24 -0.01,0.24 -0.01,0 -0.33,-0.08 -0.33,-0.08 0,0 -0.01,-0.06 -0.01,-0.13 -0.02,-0.15 0,-0.14 -0.2,-0.14 -0.2,0 -0.18,-0.03 -0.15,0.28 0.03,0.3 -0.03,0.25 0.36,0.36 0.18,0.05 0.33,0.09 0.34,0.09 0,0.01 0,0.08 0,0.16 0,0.09 0,0.16 0.01,0.17 0,0 -0.01,0.01 0.45,-0.12zm-0.87 -1.43c0,-0.01 -0.02,-0.25 -0.02,-0.27 -0.01,-0.03 -0.01,-0.03 0.21,-0.03 0.22,0 0.22,0 0.22,0.15 0,0.15 0,0.15 -0.2,0.15 -0.12,0 -0.21,0 -0.21,0zm-0.64 -1.43c-0.05,-0.13 0,-0.48 0.08,-0.48 0.08,0 0.08,0 0.08,0.07 0,0.09 0,0.09 0.08,0.09 0.08,0 0.08,0 0.08,-0.09 0,-0.07 0,-0.07 0.08,-0.07 0.07,0 0.14,0.39 0.08,0.49 -0.03,0.04 -0.16,0 -0.16,-0.06 0,-0.11 0,-0.1 -0.08,-0.1 -0.07,0 -0.07,0 -0.07,0.07 0,0.1 0,0.09 -0.09,0.09 -0.06,0 -0.08,0 -0.08,-0.01l0 0zm0.7 0.01c0,-0.01 0,-0.08 0,-0.17 0,-0.15 0,-0.15 -0.07,-0.16 -0.07,0 -0.07,0 -0.07,-0.08 -0.01,-0.08 -0.01,-0.08 0.22,-0.08 0.23,0 0.23,0 0.23,0.08 -0.01,0.08 -0.01,0.08 -0.07,0.08 -0.07,0.01 -0.07,0.01 -0.08,0.17 0,0.14 -0.12,0.26 -0.16,0.16l0 0zm0.38 -0.01c-0.09,-0.25 0.09,-0.63 0.21,-0.43 0.08,0.13 0.07,0.13 0.13,0.03 0.12,-0.2 0.22,-0.12 0.22,0.16 0,0.25 0,0.25 -0.08,0.25 -0.08,0 -0.08,0 -0.08,-0.11 0,-0.13 0,-0.13 -0.06,-0.04 -0.06,0.09 -0.06,0.09 -0.11,0 -0.06,-0.09 -0.06,-0.09 -0.07,0.04 0,0.1 -0.12,0.18 -0.16,0.1zm0.65 0.01c-0.06,-0.06 0.01,-0.49 0.08,-0.49 0.08,0 0.08,0 0.08,0.16 0,0.17 0,0.17 0.12,0.17 0.11,0 0.11,0 0.11,0.08 0,0.07 -0.33,0.14 -0.39,0.08l0 0z"/>
 <path fill="#5E5E5E" d="M0.94 0.59c-0.05,-0.13 0,-0.48 0.08,-0.48 0.08,0 0.08,0 0.08,0.07 0,0.09 0,0.09 0.08,0.09 0.08,0 0.08,0 0.08,-0.09 0,-0.07 0,-0.07 0.08,-0.07 0.07,0 0.14,0.39 0.08,0.49 -0.03,0.04 -0.16,0 -0.16,-0.06 0,-0.11 0,-0.1 -0.08,-0.1 -0.07,0 -0.07,0 -0.07,0.07 0,0.1 0,0.09 -0.09,0.09 -0.06,0 -0.08,0 -0.08,-0.01l0 0zm0.7 0.01c0,-0.01 0,-0.08 0,-0.17 0,-0.15 0,-0.15 -0.07,-0.16 -0.07,0 -0.07,0 -0.07,-0.08 -0.01,-0.08 -0.01,-0.08 0.22,-0.08 0.23,0 0.23,0 0.23,0.08 -0.01,0.08 -0.01,0.08 -0.07,0.08 -0.07,0.01 -0.07,0.01 -0.08,0.17 0,0.14 -0.12,0.26 -0.16,0.16l0 0zm0.38 -0.01c-0.09,-0.25 0.09,-0.63 0.21,-0.43 0.08,0.13 0.07,0.13 0.13,0.03 0.12,-0.2 0.22,-0.12 0.22,0.16 0,0.25 0,0.25 -0.08,0.25 -0.08,0 -0.08,0 -0.08,-0.11 0,-0.13 0,-0.13 -0.06,-0.04 -0.06,0.09 -0.06,0.09 -0.11,0 -0.06,-0.09 -0.06,-0.09 -0.07,0.04 0,0.1 -0.12,0.18 -0.16,0.1zm0.65 0.01c-0.06,-0.06 0.01,-0.49 0.08,-0.49 0.08,0 0.08,0 0.08,0.16 0,0.17 0,0.17 0.12,0.17 0.11,0 0.11,0 0.11,0.08 0,0.07 -0.33,0.14 -0.39,0.08l0 0z"/>
 <path fill="#030303" d="M0.95 0.36c0,-0.12 0,-0.23 -0.01,-0.24 0,-0.01 0.01,-0.01 0.08,-0.01 0.08,0 0.08,0 0.07,0.07 0,0.1 0,0.1 0.09,0.1 0.09,0 0.09,0 0.08,-0.1 0,-0.07 0,-0.07 0.08,-0.07 0.07,0 0.08,0 0.07,0.01 0,0.01 0,0.12 0,0.24 0,0.24 0,0.24 -0.07,0.24 -0.08,0 -0.08,0 -0.08,-0.08 0,-0.09 0.01,-0.09 -0.08,-0.09 -0.09,0 -0.09,0 -0.09,0.1 0,0.07 0,0.07 -0.07,0.07 -0.07,0 -0.07,0 -0.07,-0.24l0 0zm0.7 0.23c0,-0.01 0,-0.08 -0.01,-0.17 0,-0.15 0,-0.15 -0.07,-0.15 -0.07,0 -0.07,0 -0.07,-0.07 0,-0.04 0,-0.07 0,-0.08 -0.01,-0.01 0.02,-0.01 0.22,-0.01 0.21,0 0.23,0 0.23,0.01 -0.01,0.01 -0.01,0.04 -0.01,0.08 0,0.07 0,0.07 -0.07,0.07 -0.07,0 -0.07,0 -0.07,0.16 -0.01,0.15 -0.11,0.26 -0.15,0.16zm0.38 -0.23c0,-0.12 0,-0.23 0,-0.24 0,-0.01 0.01,-0.01 0.08,-0.01 0.07,0 0.09,0 0.09,0.01 0,0.01 0.09,0.16 0.1,0.16 0.01,0 0.1,-0.13 0.11,-0.16 0,-0.01 0.01,-0.01 0.09,-0.01 0.07,0 0.08,0 0.08,0.01 0,0.01 -0.01,0.12 -0.01,0.24 0,0.24 0,0.24 -0.07,0.24 -0.07,-0.01 -0.07,-0.01 -0.08,-0.12 0,-0.14 0,-0.14 -0.07,-0.04 -0.02,0.04 -0.05,0.08 -0.05,0.08 0,0 -0.02,-0.04 -0.05,-0.08 -0.07,-0.1 -0.07,-0.1 -0.07,0.04 0,0.12 0,0.12 -0.07,0.12 -0.08,0 -0.08,0 -0.08,-0.24l0 0zm0.65 0c0,-0.12 -0.01,-0.23 -0.01,-0.24 0,-0.01 0.01,-0.01 0.08,-0.01 0.08,0 0.08,0 0.08,0.17 0,0.16 0,0.16 0.11,0.17 0.24,0 0.17,0.15 -0.07,0.15 -0.19,0 -0.19,0 -0.19,-0.24l0 0z"/>
 </g>
 </svg>
