<svg xmlns="http://www.w3.org/2000/svg" viewBox="0 0 32 32" fill="currentColor">
  <rect width="32" height="32" rx="2" fill="#F7DF1E"/>
  <path d="M16 4H4a2 2 0 00-2 2v20a2 2 0 002 2h12V4z" fill="#F7DF1E"/>
  <path d="M18 20.24c0 1.44-.8 2.4-2.32 2.4-1.36 0-2.16-.96-2.56-2.08l1.44-.88c.32.56.64.96 1.2.96.48 0 .8-.24.8-.96V14h1.44v6.24z" fill="#323330"/>
  <path d="M24 22.4c-1.52 0-2.48-.72-2.96-1.68l1.44-.84c.32.52.8.88 1.44.88.6 0 .96-.28.96-.68 0-.48-.4-.64-1.04-1l-.36-.16c-1.04-.44-1.72-1-1.72-2.16 0-1.08.84-1.92 2.12-1.92 1 0 1.68.36 2.16 1.24l-1.32.84c-.28-.48-.56-.68-.84-.68-.36 0-.6.24-.6.56 0 .4.24.56.76.8l.36.16c1.2.52 1.88 1.04 1.88 2.24 0 1.28-.96 2-2.28 2z" fill="#323330"/>
</svg>