<svg xmlns="http://www.w3.org/2000/svg" width="32" height="32" viewBox="0 0 32 32" fill="currentColor">
  <path d="M11.7849 14.7499C10.6394 15.2408 9.33936 15.7975 7.65449 15.7975C6.94967 15.7961 6.24825 15.6993 5.56934 15.5097L6.73463 27.4878C6.77587 27.9883 7.00368 28.4552 7.3728 28.7954C7.74191 29.1357 8.22535 29.3244 8.7271 29.3244C8.7271 29.3244 10.3794 29.4103 10.9307 29.4103C11.524 29.4103 13.3033 29.3244 13.3033 29.3244C13.805 29.3244 14.2883 29.1354 14.6573 28.7952C15.0264 28.4549 15.2541 27.9883 15.2954 27.4878L16.5434 14.2516C15.9857 14.0609 15.4228 13.9342 14.7882 13.9342C13.6907 13.9337 12.8065 14.3122 11.7849 14.7499ZM21.9321 8.53405L21.7567 7.64789C21.5992 6.8528 21.2418 6.10152 20.4266 5.81416C20.1653 5.72221 19.8689 5.68272 19.6685 5.49242C19.4681 5.30214 19.4089 5.00661 19.3626 4.73255C19.2768 4.22954 19.1961 3.72611 19.1082 3.22398C19.0322 2.79227 18.9722 2.30732 18.7744 1.91127C18.5169 1.37949 17.9828 1.0685 17.4516 0.862744C17.1794 0.761025 16.9017 0.674975 16.6197 0.605017C15.2927 0.254505 13.8974 0.12564 12.5322 0.0521873C10.8935 -0.0383396 9.25052 -0.0110651 7.61574 0.133801C6.39898 0.244625 5.11742 0.378645 3.96115 0.800031C3.53855 0.954239 3.10305 1.13937 2.78172 1.46626C2.38741 1.86789 2.2587 2.48901 2.54658 2.98986C2.75124 3.34553 3.09792 3.59682 3.46561 3.76306C3.94454 3.97725 4.44472 4.14024 4.95783 4.24931C6.38654 4.56546 7.86632 4.68959 9.32592 4.74244C10.9437 4.80779 12.5641 4.75482 14.1741 4.58391C14.5723 4.5401 14.9697 4.48755 15.3665 4.42629C15.8337 4.35454 16.1336 3.74286 15.9959 3.31674C15.8311 2.80732 15.3883 2.60973 14.8877 2.68662C14.8138 2.6982 14.7405 2.70894 14.6667 2.71967L14.6135 2.72741C14.4439 2.7489 14.2743 2.76893 14.1046 2.78755C13.7543 2.82535 13.403 2.85628 13.0509 2.88034C12.2623 2.93531 11.4716 2.96065 10.6813 2.96195C9.90472 2.96195 9.12771 2.94003 8.35285 2.88893C7.99932 2.86574 7.64664 2.83623 7.29483 2.80043C7.13479 2.78368 6.97518 2.76608 6.8156 2.74631L6.66369 2.72699L6.63068 2.72227L6.47321 2.6995C6.15143 2.65094 5.82964 2.59512 5.51129 2.52767C5.47918 2.52053 5.45042 2.50266 5.42983 2.47695C5.40923 2.45126 5.39801 2.4193 5.39801 2.38635C5.39801 2.35341 5.40923 2.32145 5.42983 2.29576C5.45042 2.27006 5.47918 2.25217 5.51129 2.24503H5.5173C5.79318 2.18618 6.07119 2.13593 6.35006 2.09211C6.44304 2.07751 6.53628 2.06319 6.62981 2.04916H6.63238C6.807 2.03756 6.98249 2.0062 7.15624 1.98558C8.66806 1.82815 10.1889 1.77447 11.708 1.82493C12.4455 1.84641 13.1826 1.88979 13.9167 1.96454C14.0746 1.98086 14.2316 1.99804 14.3887 2.01737C14.4487 2.02467 14.5092 2.03326 14.5697 2.04057L14.6916 2.05818C15.0468 2.11116 15.4002 2.17544 15.7517 2.25105C16.2726 2.36445 16.9415 2.40139 17.1732 2.97269C17.247 3.15395 17.2804 3.35541 17.3212 3.54569L17.3731 3.7884C17.3745 3.79274 17.3755 3.79721 17.3761 3.8017C17.4988 4.37444 17.6217 4.94717 17.7447 5.5199C17.7537 5.56222 17.7539 5.60593 17.7453 5.64832C17.7367 5.69073 17.7194 5.73088 17.6946 5.76633C17.6698 5.80175 17.638 5.83168 17.6011 5.85425C17.5643 5.87682 17.5232 5.89152 17.4804 5.89749H17.4769L17.4018 5.9078L17.3276 5.91766C17.0925 5.94832 16.8571 5.97695 16.6214 6.00359C16.1572 6.05656 15.6922 6.10237 15.2266 6.14104C14.3013 6.21806 13.3741 6.26861 12.4451 6.29267C11.9717 6.30526 11.4985 6.31115 11.0254 6.31027C9.1423 6.3088 7.26084 6.19921 5.39031 5.98209C5.18778 5.95805 4.98528 5.93226 4.78276 5.90608C4.9398 5.92627 4.66863 5.8906 4.61373 5.88288C4.48501 5.86484 4.3563 5.84609 4.22758 5.82661C3.79553 5.76173 3.36607 5.68185 2.93487 5.61182C2.41358 5.52592 1.91503 5.56888 1.44351 5.82661C1.05646 6.03866 0.743205 6.36382 0.545521 6.75873C0.342153 7.17968 0.281657 7.63801 0.190701 8.09034C0.0997428 8.54264 -0.0418425 9.02932 0.0117881 9.49366C0.127201 10.4958 0.826974 11.3102 1.83351 11.4924C2.78042 11.6642 3.73247 11.8033 4.68709 11.9219C8.43708 12.3817 12.2256 12.4367 15.9873 12.086C16.2936 12.0574 16.5995 12.0261 16.905 11.9923C17.0004 11.9819 17.097 11.9928 17.1876 12.0245C17.2782 12.0563 17.3606 12.1079 17.4287 12.1756C17.4968 12.2433 17.549 12.3254 17.5813 12.4158C17.6136 12.5063 17.6253 12.6029 17.6155 12.6985L17.5203 13.6255C17.3283 15.4986 17.1364 17.3716 16.9445 19.2444C16.7443 21.2112 16.5428 23.1778 16.34 25.1441C16.2828 25.6981 16.2256 26.2518 16.1684 26.8053C16.1134 27.3505 16.1057 27.9127 16.0023 28.4514C15.8393 29.2985 15.2665 29.8187 14.4307 30.0089C13.665 30.1834 12.8828 30.2751 12.0976 30.2821C11.227 30.2868 10.3569 30.2481 9.4864 30.2529C8.55707 30.2581 7.41883 30.1722 6.70147 29.4797C6.07119 28.8716 5.98409 27.9192 5.89829 27.0956C5.78388 26.0054 5.67048 24.9154 5.55804 23.8255L4.92736 17.765L4.51935 13.8437C4.51246 13.7788 4.50561 13.7148 4.49917 13.6495C4.45025 13.1818 4.11946 12.7239 3.59817 12.7475C3.15198 12.7672 2.64485 13.147 2.69719 13.6495L2.99965 16.5567L3.6252 22.5704C3.80341 24.2786 3.98117 25.9869 4.15851 27.6957C4.19285 28.023 4.22501 28.3513 4.26104 28.6786C4.45713 30.4673 5.82148 31.4312 7.51107 31.7025C8.49787 31.8616 9.5087 31.8943 10.5101 31.9105C11.7938 31.9312 13.0904 31.9806 14.353 31.7477C16.2241 31.404 17.628 30.1532 17.8283 28.213C17.8855 27.6528 17.9427 27.0926 17.9999 26.5322C18.1901 24.6788 18.3801 22.8253 18.5697 20.9716L19.1901 14.915L19.4746 12.1393C19.4887 12.0016 19.5468 11.8722 19.6401 11.7702C19.7335 11.6681 19.8572 11.5989 19.9929 11.5727C20.5279 11.4683 21.0393 11.29 21.4199 10.8824C22.0257 10.2334 22.1462 9.38714 21.9321 8.53405Z"/>
</svg>

