<svg xmlns="http://www.w3.org/2000/svg" width="32" height="32" viewBox="0 0 3.86 3.86">
 <g fill-rule="nonzero"><path fill="#FBF7D0" d="M1.73 3.78c-0.38,-0.02 -0.54,-0.13 -0.58,-0.39 -0.01,-0.09 -0.18,-1.69 -0.18,-1.72 0,-0.08 0.11,-0.13 0.18,-0.09 0.05,0.03 0.05,0.05 0.09,0.38 0.02,0.16 0.04,0.43 0.06,0.59 0.02,0.16 0.04,0.4 0.05,0.52 0.05,0.47 0.07,0.49 0.57,0.49 0.5,0 0.56,-0.03 0.58,-0.31 0.01,-0.08 0.1,-0.93 0.15,-1.43 0.03,-0.33 0.04,-0.32 -0.14,-0.3 -0.5,0.05 -1.06,0.03 -1.57,-0.06 -0.23,-0.04 -0.31,-0.16 -0.26,-0.41 0.06,-0.27 0.15,-0.33 0.41,-0.29 0.46,0.08 1.05,0.09 1.5,0.03 0.11,-0.01 0.1,0 0.07,-0.16 -0.04,-0.2 -0.04,-0.2 -0.18,-0.23 -0.21,-0.04 -0.74,-0.06 -0.96,-0.03 -0.22,0.03 -0.23,0.03 -0.1,0.05 0.26,0.04 0.64,0.04 0.93,0 0.22,-0.03 0.26,0.2 0.03,0.24 -0.6,0.08 -1.33,-0.01 -1.42,-0.18 -0.14,-0.27 0.41,-0.42 1.26,-0.36 0.51,0.04 0.61,0.11 0.67,0.44 0.03,0.19 0.03,0.18 0.14,0.22 0.08,0.03 0.13,0.1 0.16,0.26 0.05,0.24 0,0.36 -0.19,0.42 -0.08,0.02 -0.07,-0.06 -0.17,0.97 -0.12,1.13 -0.11,1.07 -0.23,1.19 -0.15,0.15 -0.35,0.18 -0.87,0.16l0 0zm0.6 -2.48c0.52,-0.04 0.64,-0.07 0.64,-0.17 0,-0.13 -0.03,-0.15 -0.22,-0.12 -0.5,0.09 -1.24,0.08 -1.64,-0.01 -0.16,-0.03 -0.2,0 -0.2,0.13 0,0.09 -0.01,0.09 0.21,0.12 0.46,0.06 0.82,0.07 1.21,0.05zm-0.43 2.2c-0.01,0 -0.06,-0.01 -0.13,-0.01 -0.3,-0.01 -0.32,-0.05 -0.36,-0.47 -0.01,-0.04 -0.02,-0.18 -0.03,-0.31 -0.02,-0.14 -0.03,-0.28 -0.03,-0.32 -0.02,-0.19 -0.04,-0.4 -0.05,-0.44 0,-0.06 0.01,-0.07 0.06,-0.06 0.17,0.05 0.4,0.01 0.64,-0.09 0.25,-0.11 0.37,-0.12 0.54,-0.07 0.05,0.01 0.05,0.02 0.04,0.13 -0.01,0.06 -0.03,0.22 -0.04,0.35 -0.01,0.14 -0.03,0.34 -0.04,0.45 -0.01,0.11 -0.02,0.24 -0.03,0.29 -0.04,0.51 -0.06,0.53 -0.4,0.54 -0.08,0 -0.16,0.01 -0.16,0.01 -0.01,0.01 -0.01,0.01 -0.01,0l0 0z"/>
 <path fill="#E8E8E8" d="M1.73 3.78c-0.38,-0.02 -0.54,-0.13 -0.58,-0.39 -0.01,-0.09 -0.18,-1.69 -0.18,-1.72 0,-0.08 0.11,-0.13 0.18,-0.09 0.05,0.03 0.05,0.05 0.09,0.38 0.02,0.16 0.04,0.43 0.06,0.59 0.02,0.16 0.04,0.4 0.05,0.52 0.05,0.47 0.07,0.49 0.57,0.49 0.5,0 0.56,-0.03 0.58,-0.31 0.01,-0.08 0.1,-0.93 0.15,-1.43 0.03,-0.33 0.04,-0.32 -0.14,-0.3 -0.5,0.05 -1.06,0.03 -1.57,-0.06 -0.23,-0.04 -0.31,-0.16 -0.26,-0.41 0.06,-0.27 0.15,-0.33 0.41,-0.29 0.46,0.08 1.05,0.09 1.5,0.03 0.11,-0.01 0.1,0 0.07,-0.16 -0.04,-0.2 -0.04,-0.2 -0.18,-0.23 -0.21,-0.04 -0.74,-0.06 -0.96,-0.03 -0.22,0.03 -0.23,0.03 -0.1,0.05 0.26,0.04 0.64,0.04 0.93,0 0.22,-0.03 0.26,0.2 0.03,0.24 -0.6,0.08 -1.33,-0.01 -1.42,-0.18 -0.14,-0.27 0.41,-0.42 1.26,-0.36 0.51,0.04 0.61,0.11 0.67,0.44 0.03,0.19 0.03,0.18 0.14,0.22 0.08,0.03 0.13,0.1 0.16,0.26 0.05,0.24 0,0.36 -0.19,0.42 -0.08,0.02 -0.07,-0.06 -0.17,0.97 -0.12,1.13 -0.11,1.07 -0.23,1.19 -0.15,0.15 -0.35,0.18 -0.87,0.16l0 0zm0.6 -2.48c0.52,-0.04 0.64,-0.07 0.64,-0.17 0,-0.13 -0.03,-0.15 -0.22,-0.12 -0.5,0.09 -1.24,0.08 -1.64,-0.01 -0.16,-0.03 -0.2,0 -0.2,0.13 0,0.09 -0.01,0.09 0.21,0.12 0.46,0.06 0.82,0.07 1.21,0.05zm-0.43 2.21c0,-0.01 0,-0.01 0,-0.01 0,0 0.01,0 0.01,0.01 0,0 -0.01,0 -0.01,0 0,0 0,0 0,0zm-0.19 -0.03c-0.2,-0.01 -0.25,-0.07 -0.28,-0.32 -0.02,-0.19 -0.04,-0.44 -0.05,-0.55 -0.01,-0.05 -0.01,-0.12 -0.02,-0.16 0,-0.03 -0.01,-0.16 -0.02,-0.27 -0.02,-0.11 -0.03,-0.22 -0.03,-0.24 0,-0.05 0,-0.05 0.09,-0.04 0.19,0.04 0.37,0.01 0.64,-0.1 0.19,-0.09 0.31,-0.11 0.44,-0.08 0.11,0.02 0.1,0 0.08,0.24 -0.01,0.08 -0.04,0.36 -0.06,0.61 -0.08,0.83 -0.07,0.77 -0.14,0.84 -0.07,0.07 -0.27,0.09 -0.65,0.07l0 0z"/>
 <path fill="#F9F0A0" d="M1.73 3.77c-0.31,-0.02 -0.46,-0.08 -0.53,-0.24 -0.04,-0.06 -0.04,-0.07 -0.09,-0.6 -0.03,-0.27 -0.07,-0.65 -0.09,-0.85 -0.05,-0.43 -0.05,-0.43 -0.02,-0.46 0.06,-0.07 0.15,-0.06 0.19,0.01 0.01,0.03 0.01,0.03 0.11,0.94 0.09,0.85 0.08,0.82 0.13,0.89 0.07,0.08 0.15,0.1 0.44,0.11 0.34,0 0.5,-0.02 0.57,-0.1 0.05,-0.04 0.06,-0.08 0.07,-0.24 0.01,-0.07 0.11,-1.07 0.16,-1.51 0.02,-0.22 0.02,-0.22 -0.15,-0.2 -0.48,0.04 -1.06,0.02 -1.55,-0.06 -0.26,-0.04 -0.34,-0.15 -0.28,-0.42 0.05,-0.26 0.15,-0.31 0.41,-0.27 0.44,0.07 1,0.08 1.47,0.03 0.06,-0.01 0.11,-0.01 0.12,-0.02 0.01,-0.01 -0.05,-0.29 -0.07,-0.33 -0.06,-0.1 -0.82,-0.14 -1.26,-0.06 -0.25,0.04 0.58,0.08 0.93,0.05 0.19,-0.03 0.27,0.02 0.22,0.14 -0.08,0.18 -1.37,0.11 -1.53,-0.08 -0.22,-0.26 0.43,-0.45 1.27,-0.37 0.49,0.05 0.58,0.1 0.63,0.43 0.04,0.19 0.04,0.19 0.14,0.22 0.09,0.04 0.13,0.1 0.17,0.27 0.04,0.23 -0.01,0.35 -0.2,0.4 -0.08,0.02 -0.06,-0.06 -0.17,0.98 -0.11,1.12 -0.1,1.07 -0.22,1.19 -0.15,0.14 -0.39,0.18 -0.87,0.15l0 0zm0.68 -2.47c0.56,-0.06 0.59,-0.07 0.56,-0.21 -0.02,-0.11 -0.04,-0.12 -0.23,-0.09 -0.53,0.09 -1.22,0.09 -1.64,0 -0.16,-0.04 -0.19,-0.02 -0.2,0.13 -0.01,0.1 0.1,0.13 0.68,0.17 0.12,0.01 0.72,0.01 0.83,0zm-0.7 2.18c-0.2,-0.01 -0.25,-0.07 -0.28,-0.32 -0.02,-0.19 -0.04,-0.44 -0.05,-0.55 -0.01,-0.05 -0.01,-0.12 -0.02,-0.16 0,-0.03 -0.01,-0.16 -0.02,-0.27 -0.02,-0.11 -0.03,-0.22 -0.03,-0.24 0,-0.05 0,-0.05 0.09,-0.04 0.19,0.04 0.37,0.01 0.64,-0.1 0.19,-0.09 0.31,-0.11 0.44,-0.08 0.11,0.02 0.1,0 0.08,0.24 -0.01,0.08 -0.04,0.36 -0.06,0.61 -0.08,0.83 -0.07,0.77 -0.14,0.84 -0.07,0.07 -0.27,0.09 -0.65,0.07l0 0z"/>
 <path fill="#CFCFCF" d="M1.73 3.77c-0.31,-0.02 -0.46,-0.08 -0.53,-0.24 -0.04,-0.06 -0.04,-0.07 -0.09,-0.6 -0.03,-0.27 -0.07,-0.65 -0.09,-0.85 -0.05,-0.43 -0.05,-0.43 -0.02,-0.46 0.06,-0.07 0.15,-0.06 0.19,0.01 0.01,0.03 0.01,0.03 0.11,0.94 0.09,0.85 0.08,0.82 0.13,0.89 0.07,0.08 0.15,0.1 0.44,0.11 0.34,0 0.5,-0.02 0.57,-0.1 0.05,-0.04 0.06,-0.08 0.07,-0.24 0.01,-0.07 0.11,-1.07 0.16,-1.51 0.02,-0.22 0.02,-0.22 -0.15,-0.2 -0.48,0.04 -1.06,0.02 -1.55,-0.06 -0.26,-0.04 -0.34,-0.15 -0.28,-0.42 0.05,-0.26 0.15,-0.31 0.41,-0.27 0.44,0.07 1,0.08 1.47,0.03 0.06,-0.01 0.11,-0.01 0.12,-0.02 0.01,-0.01 -0.05,-0.29 -0.07,-0.33 -0.06,-0.1 -0.82,-0.14 -1.26,-0.06 -0.25,0.04 0.58,0.08 0.93,0.05 0.19,-0.03 0.27,0.02 0.22,0.14 -0.08,0.18 -1.37,0.11 -1.53,-0.08 -0.22,-0.26 0.43,-0.45 1.27,-0.37 0.49,0.05 0.58,0.1 0.63,0.43 0.04,0.19 0.04,0.19 0.14,0.22 0.09,0.04 0.13,0.1 0.17,0.27 0.04,0.23 -0.01,0.35 -0.2,0.4 -0.08,0.02 -0.06,-0.06 -0.17,0.98 -0.11,1.12 -0.1,1.07 -0.22,1.19 -0.15,0.14 -0.39,0.18 -0.87,0.15l0 0zm0.68 -2.47c0.56,-0.06 0.59,-0.07 0.56,-0.21 -0.02,-0.11 -0.04,-0.12 -0.23,-0.09 -0.53,0.09 -1.22,0.09 -1.64,0 -0.16,-0.04 -0.19,-0.02 -0.2,0.13 -0.01,0.1 0.1,0.13 0.68,0.17 0.12,0.01 0.72,0.01 0.83,0zm-0.72 2.17c-0.11,-0.01 -0.18,-0.04 -0.22,-0.12 -0.02,-0.04 -0.02,-0.08 -0.08,-0.72 -0.01,-0.09 -0.02,-0.19 -0.03,-0.24 0,-0.04 -0.01,-0.15 -0.02,-0.23 -0.01,-0.09 -0.02,-0.18 -0.02,-0.2 -0.01,-0.06 0,-0.06 0.08,-0.05 0.19,0.04 0.37,0.01 0.63,-0.11 0.22,-0.09 0.47,-0.11 0.53,-0.05 0.01,0.02 0.01,0 -0.07,0.87 -0.02,0.18 -0.04,0.38 -0.04,0.45 -0.02,0.19 -0.03,0.24 -0.05,0.28 -0.03,0.06 -0.08,0.1 -0.15,0.11 -0.03,0.01 -0.45,0.02 -0.56,0.01l0 0z"/>
 <path fill="#F7E96F" d="M1.79 3.77c-0.28,-0.01 -0.41,-0.04 -0.51,-0.13 -0.1,-0.1 -0.11,-0.11 -0.17,-0.68 -0.14,-1.41 -0.13,-1.29 -0.12,-1.32 0.03,-0.06 0.11,-0.08 0.16,-0.05 0.05,0.03 0.04,0.02 0.14,0.9 0.12,1.16 0.07,1.09 0.69,1.08 0.44,-0.01 0.51,-0.04 0.53,-0.31 0.01,-0.04 0.05,-0.44 0.09,-0.87 0.1,-1 0.11,-0.9 -0.1,-0.88 -0.52,0.05 -1.18,0.02 -1.61,-0.06 -0.2,-0.05 -0.27,-0.25 -0.16,-0.53 0.04,-0.12 0.16,-0.18 0.3,-0.16 0.52,0.08 1.02,0.1 1.5,0.05 0.19,-0.02 0.18,-0.01 0.14,-0.19 -0.05,-0.21 -0.06,-0.22 -0.38,-0.26 -0.36,-0.04 -1.17,0.01 -0.95,0.06 0.21,0.04 0.68,0.05 0.98,0.01 0.17,-0.02 0.25,0.06 0.17,0.17 -0.07,0.11 -1.04,0.1 -1.36,-0.01 -0.23,-0.09 -0.25,-0.28 -0.03,-0.37 0.3,-0.12 1.07,-0.13 1.48,-0.03 0.22,0.06 0.25,0.1 0.3,0.37 0.03,0.18 0.03,0.19 0.13,0.22 0.09,0.04 0.14,0.1 0.17,0.27 0.05,0.24 -0.01,0.35 -0.2,0.4 -0.07,0.02 -0.06,-0.04 -0.17,1.01 -0.1,0.97 -0.1,0.99 -0.14,1.06 -0.07,0.12 -0.18,0.19 -0.32,0.23 -0.12,0.03 -0.26,0.03 -0.56,0.02l0 0zm0.42 -2.46c0.24,-0.01 0.57,-0.05 0.68,-0.07 0.08,-0.02 0.11,-0.08 0.08,-0.18 -0.02,-0.08 -0.05,-0.09 -0.23,-0.06 -0.5,0.09 -1.22,0.09 -1.6,0 -0.2,-0.04 -0.22,-0.03 -0.24,0.11 -0.02,0.11 -0.02,0.12 0.24,0.15 0.4,0.05 0.74,0.07 1.07,0.05l0 0zm-0.52 2.16c-0.11,-0.01 -0.18,-0.04 -0.22,-0.12 -0.02,-0.04 -0.02,-0.08 -0.08,-0.72 -0.01,-0.09 -0.02,-0.19 -0.03,-0.24 0,-0.04 -0.01,-0.15 -0.02,-0.23 -0.01,-0.09 -0.02,-0.18 -0.02,-0.2 -0.01,-0.06 0,-0.06 0.08,-0.05 0.19,0.04 0.37,0.01 0.63,-0.11 0.22,-0.09 0.47,-0.11 0.53,-0.05 0.01,0.02 0.01,0 -0.07,0.87 -0.02,0.18 -0.04,0.38 -0.04,0.45 -0.02,0.19 -0.03,0.24 -0.05,0.28 -0.03,0.06 -0.08,0.1 -0.15,0.11 -0.03,0.01 -0.45,0.02 -0.56,0.01l0 0z"/>
 <path fill="#F6E44F" d="M1.79 3.77c-0.28,-0.01 -0.41,-0.04 -0.51,-0.13 -0.1,-0.1 -0.11,-0.11 -0.17,-0.68 -0.14,-1.41 -0.13,-1.29 -0.12,-1.32 0.03,-0.06 0.11,-0.08 0.16,-0.05 0.05,0.03 0.04,0.02 0.14,0.9 0.12,1.16 0.07,1.09 0.69,1.08 0.44,-0.01 0.51,-0.04 0.53,-0.31 0.01,-0.04 0.05,-0.44 0.09,-0.87 0.1,-1 0.11,-0.9 -0.1,-0.88 -0.52,0.05 -1.18,0.02 -1.61,-0.06 -0.2,-0.05 -0.27,-0.25 -0.16,-0.53 0.04,-0.12 0.16,-0.18 0.3,-0.16 0.52,0.08 1.02,0.1 1.5,0.05 0.19,-0.02 0.18,-0.01 0.14,-0.19 -0.05,-0.21 -0.06,-0.22 -0.38,-0.26 -0.36,-0.04 -1.17,0.01 -0.95,0.06 0.21,0.04 0.68,0.05 0.98,0.01 0.17,-0.02 0.25,0.06 0.17,0.17 -0.07,0.11 -1.04,0.1 -1.36,-0.01 -0.23,-0.09 -0.25,-0.28 -0.03,-0.37 0.3,-0.12 1.07,-0.13 1.48,-0.03 0.22,0.06 0.25,0.1 0.3,0.37 0.03,0.18 0.03,0.19 0.13,0.22 0.09,0.04 0.14,0.1 0.17,0.27 0.05,0.24 -0.01,0.35 -0.2,0.4 -0.07,0.02 -0.06,-0.04 -0.17,1.01 -0.1,0.97 -0.1,0.99 -0.14,1.06 -0.07,0.12 -0.18,0.19 -0.32,0.23 -0.12,0.03 -0.26,0.03 -0.56,0.02l0 0zm0.42 -2.46c0.24,-0.01 0.57,-0.05 0.68,-0.07 0.08,-0.02 0.11,-0.08 0.08,-0.18 -0.02,-0.08 -0.05,-0.09 -0.23,-0.06 -0.5,0.09 -1.22,0.09 -1.6,0 -0.2,-0.04 -0.22,-0.03 -0.24,0.11 -0.02,0.11 -0.02,0.12 0.24,0.15 0.4,0.05 0.74,0.07 1.07,0.05l0 0zm-0.43 2.16c-0.19,0 -0.24,-0.02 -0.29,-0.1 -0.03,-0.06 -0.03,-0.04 -0.08,-0.56 -0.01,-0.09 -0.02,-0.19 -0.03,-0.23 0,-0.04 -0.01,-0.15 -0.02,-0.23 -0.01,-0.09 -0.02,-0.22 -0.03,-0.29 -0.01,-0.17 -0.01,-0.16 0.05,-0.15 0.18,0.05 0.38,0.01 0.65,-0.1 0.21,-0.09 0.34,-0.11 0.47,-0.08 0.07,0.03 0.07,-0.05 0.01,0.64 -0.01,0.07 -0.02,0.16 -0.02,0.2 -0.01,0.04 -0.02,0.17 -0.03,0.28 -0.01,0.11 -0.02,0.26 -0.03,0.33 -0.03,0.28 -0.09,0.31 -0.65,0.29z"/>
 <path fill="#B0B0B0" d="M1.79 3.77c-0.28,-0.01 -0.41,-0.04 -0.51,-0.13 -0.1,-0.1 -0.11,-0.11 -0.17,-0.68 -0.14,-1.41 -0.13,-1.29 -0.12,-1.32 0.03,-0.06 0.11,-0.08 0.16,-0.05 0.05,0.03 0.04,0.02 0.14,0.9 0.12,1.16 0.07,1.09 0.69,1.08 0.44,-0.01 0.51,-0.04 0.53,-0.31 0.01,-0.04 0.05,-0.44 0.09,-0.87 0.1,-1 0.11,-0.9 -0.1,-0.88 -0.52,0.05 -1.18,0.02 -1.61,-0.06 -0.2,-0.05 -0.27,-0.25 -0.16,-0.53 0.04,-0.12 0.16,-0.18 0.3,-0.16 0.52,0.08 1.02,0.1 1.5,0.05 0.19,-0.02 0.18,-0.01 0.14,-0.19 -0.05,-0.21 -0.06,-0.22 -0.38,-0.26 -0.36,-0.04 -1.17,0.01 -0.95,0.06 0.21,0.04 0.68,0.05 0.98,0.01 0.17,-0.02 0.25,0.06 0.17,0.17 -0.07,0.11 -1.04,0.1 -1.36,-0.01 -0.23,-0.09 -0.25,-0.28 -0.03,-0.37 0.3,-0.12 1.07,-0.13 1.48,-0.03 0.22,0.06 0.25,0.1 0.3,0.37 0.03,0.18 0.03,0.19 0.13,0.22 0.09,0.04 0.14,0.1 0.17,0.27 0.05,0.24 -0.01,0.35 -0.2,0.4 -0.07,0.02 -0.06,-0.04 -0.17,1.01 -0.1,0.97 -0.1,0.99 -0.14,1.06 -0.07,0.12 -0.18,0.19 -0.32,0.23 -0.12,0.03 -0.26,0.03 -0.56,0.02l0 0zm0.42 -2.46c0.24,-0.01 0.57,-0.05 0.68,-0.07 0.08,-0.02 0.11,-0.08 0.08,-0.18 -0.02,-0.08 -0.05,-0.09 -0.23,-0.06 -0.5,0.09 -1.22,0.09 -1.6,0 -0.2,-0.04 -0.22,-0.03 -0.24,0.11 -0.02,0.11 -0.02,0.12 0.24,0.15 0.4,0.05 0.74,0.07 1.07,0.05l0 0zm-0.56 2.15c-0.12,-0.02 -0.18,-0.09 -0.19,-0.24 -0.01,-0.08 -0.02,-0.12 -0.04,-0.42 -0.01,-0.09 -0.02,-0.19 -0.03,-0.23 0,-0.04 -0.01,-0.11 -0.01,-0.15 -0.01,-0.05 -0.02,-0.14 -0.02,-0.2 -0.04,-0.35 -0.04,-0.31 0.03,-0.3 0.19,0.04 0.38,0.01 0.65,-0.1 0.26,-0.12 0.53,-0.12 0.51,-0.02 0,0.02 0,0.07 -0.01,0.11 0,0.05 -0.01,0.12 -0.01,0.17 -0.01,0.04 -0.01,0.12 -0.02,0.17 0,0.05 -0.01,0.12 -0.01,0.16 -0.01,0.08 -0.02,0.16 -0.04,0.4 -0.02,0.17 -0.03,0.25 -0.04,0.4 -0.02,0.16 -0.07,0.22 -0.2,0.25 -0.05,0 -0.51,0.01 -0.57,0z"/>
 <path fill="#FDDD01" d="M1.73 3.77c-0.38,-0.03 -0.53,-0.13 -0.56,-0.36 -0.02,-0.1 -0.18,-1.69 -0.18,-1.73 0,-0.11 0.14,-0.14 0.19,-0.05 0.01,0.02 0.04,0.24 0.1,0.83 0.12,1.18 0.08,1.1 0.59,1.11 0.54,0.02 0.62,-0.03 0.65,-0.34 0.01,-0.08 0.05,-0.49 0.09,-0.91 0.09,-0.92 0.1,-0.83 -0.09,-0.81 -0.51,0.05 -1.17,0.02 -1.61,-0.07 -0.17,-0.03 -0.26,-0.15 -0.23,-0.32 0.06,-0.31 0.15,-0.39 0.38,-0.35 0.42,0.08 1.02,0.09 1.51,0.04 0.15,-0.02 0.14,0 0.1,-0.19 -0.03,-0.16 -0.04,-0.18 -0.09,-0.2 -0.17,-0.09 -0.98,-0.11 -1.25,-0.04 -0.18,0.05 0.59,0.11 0.92,0.07 0.21,-0.03 0.26,-0.01 0.26,0.08 0,0.1 -0.05,0.12 -0.39,0.14 -0.81,0.05 -1.38,-0.15 -1.11,-0.39 0.21,-0.19 1.33,-0.21 1.7,-0.04 0.1,0.05 0.13,0.09 0.17,0.32 0.03,0.19 0.03,0.19 0.13,0.23 0.09,0.03 0.14,0.1 0.17,0.28 0.04,0.21 -0.01,0.33 -0.19,0.37 -0.06,0.02 -0.08,0.04 -0.08,0.09 -0.01,0.02 -0.05,0.44 -0.1,0.93 -0.05,0.5 -0.1,0.92 -0.1,0.95 -0.05,0.18 -0.18,0.29 -0.39,0.34 -0.06,0.01 -0.48,0.02 -0.59,0.02l0 0zm0.71 -2.47c0.52,-0.05 0.56,-0.06 0.54,-0.21 -0.02,-0.12 -0.05,-0.13 -0.24,-0.09 -0.52,0.08 -1.22,0.08 -1.64,-0.01 -0.16,-0.03 -0.2,-0.01 -0.21,0.14 -0.01,0.06 0.01,0.09 0.04,0.1 0.05,0.02 0.44,0.06 0.7,0.08 0.11,0.01 0.69,0 0.81,-0.01l0 0zm-0.79 2.16c-0.12,-0.02 -0.18,-0.09 -0.19,-0.24 -0.01,-0.08 -0.02,-0.12 -0.04,-0.42 -0.01,-0.09 -0.02,-0.19 -0.03,-0.23 0,-0.04 -0.01,-0.11 -0.01,-0.15 -0.01,-0.05 -0.02,-0.14 -0.02,-0.2 -0.04,-0.35 -0.04,-0.31 0.03,-0.3 0.19,0.04 0.38,0.01 0.65,-0.1 0.26,-0.12 0.53,-0.12 0.51,-0.02 0,0.02 0,0.07 -0.01,0.11 0,0.05 -0.01,0.12 -0.01,0.17 -0.01,0.04 -0.01,0.12 -0.02,0.17 0,0.05 -0.01,0.12 -0.01,0.16 -0.01,0.08 -0.02,0.16 -0.04,0.4 -0.02,0.17 -0.03,0.25 -0.04,0.4 -0.02,0.16 -0.07,0.22 -0.2,0.25 -0.05,0 -0.51,0.01 -0.57,0z"/>
 <path fill="#8F8F8F" d="M1.73 3.77c-0.38,-0.03 -0.53,-0.13 -0.56,-0.36 -0.02,-0.1 -0.18,-1.69 -0.18,-1.73 0,-0.11 0.14,-0.14 0.19,-0.05 0.01,0.02 0.04,0.24 0.1,0.83 0.12,1.18 0.08,1.1 0.59,1.11 0.54,0.02 0.62,-0.03 0.65,-0.34 0.01,-0.08 0.05,-0.49 0.09,-0.91 0.09,-0.92 0.1,-0.83 -0.09,-0.81 -0.51,0.05 -1.17,0.02 -1.61,-0.07 -0.17,-0.03 -0.26,-0.15 -0.23,-0.32 0.06,-0.31 0.15,-0.39 0.38,-0.35 0.42,0.08 1.02,0.09 1.51,0.04 0.15,-0.02 0.14,0 0.1,-0.19 -0.03,-0.16 -0.04,-0.18 -0.09,-0.2 -0.17,-0.09 -0.98,-0.11 -1.25,-0.04 -0.18,0.05 0.59,0.11 0.92,0.07 0.21,-0.03 0.26,-0.01 0.26,0.08 0,0.1 -0.05,0.12 -0.39,0.14 -0.81,0.05 -1.38,-0.15 -1.11,-0.39 0.21,-0.19 1.33,-0.21 1.7,-0.04 0.1,0.05 0.13,0.09 0.17,0.32 0.03,0.19 0.03,0.19 0.13,0.23 0.09,0.03 0.14,0.1 0.17,0.28 0.04,0.21 -0.01,0.33 -0.19,0.37 -0.06,0.02 -0.08,0.04 -0.08,0.09 -0.01,0.02 -0.05,0.44 -0.1,0.93 -0.05,0.5 -0.1,0.92 -0.1,0.95 -0.05,0.18 -0.18,0.29 -0.39,0.34 -0.06,0.01 -0.48,0.02 -0.59,0.02l0 0zm0.71 -2.47c0.52,-0.05 0.56,-0.06 0.54,-0.21 -0.02,-0.12 -0.05,-0.13 -0.24,-0.09 -0.52,0.08 -1.22,0.08 -1.64,-0.01 -0.16,-0.03 -0.2,-0.01 -0.21,0.14 -0.01,0.06 0.01,0.09 0.04,0.1 0.05,0.02 0.44,0.06 0.7,0.08 0.11,0.01 0.69,0 0.81,-0.01l0 0z"/>
 <path fill="#706F6F" d="M1.76 3.76c-0.27,-0.01 -0.4,-0.05 -0.5,-0.15 -0.08,-0.08 -0.08,-0.1 -0.13,-0.56 -0.02,-0.18 -0.06,-0.57 -0.09,-0.85 -0.06,-0.56 -0.06,-0.55 -0.02,-0.59 0.06,-0.05 0.14,-0.03 0.17,0.04 0,0.01 0.04,0.39 0.09,0.84 0.12,1.16 0.07,1.08 0.64,1.08 0.48,0 0.57,-0.03 0.59,-0.25 0.12,-1.01 0.18,-1.77 0.15,-1.8 -0.02,-0.03 -0.01,-0.03 -0.16,-0.01 -0.49,0.04 -1.1,0.02 -1.55,-0.06 -0.23,-0.04 -0.3,-0.15 -0.25,-0.4 0.05,-0.25 0.13,-0.31 0.38,-0.27 0.49,0.08 1.52,0.09 1.61,0.01 0.04,-0.03 -0.05,-0.35 -0.1,-0.37 -0.18,-0.09 -1.23,-0.11 -1.29,-0.03 -0.04,0.07 0.68,0.1 1.05,0.05 0.12,-0.02 0.19,0.05 0.15,0.14 -0.06,0.13 -1.03,0.12 -1.38,0 -0.21,-0.08 -0.23,-0.25 -0.04,-0.34 0.33,-0.15 1.32,-0.15 1.63,0 0.11,0.06 0.12,0.09 0.16,0.32 0.04,0.19 0.04,0.19 0.14,0.23 0.09,0.03 0.13,0.1 0.16,0.26 0.05,0.23 0,0.35 -0.19,0.39 -0.08,0.03 -0.06,-0.1 -0.17,0.99 -0.11,1.1 -0.1,1.06 -0.21,1.17 -0.14,0.15 -0.34,0.19 -0.84,0.16l0 0zm0.58 -2.45c0.62,-0.04 0.69,-0.07 0.63,-0.26 -0.02,-0.08 -0.05,-0.09 -0.23,-0.06 -0.51,0.09 -1.22,0.09 -1.63,0 -0.16,-0.04 -0.2,-0.02 -0.22,0.1 -0.02,0.11 0,0.14 0.1,0.16 0.19,0.03 0.53,0.06 0.74,0.07 0.09,0.01 0.5,0 0.61,-0.01l0 0z"/>
 <path fill="#4F4F4F" d="M1.7 3.76c-0.32,-0.03 -0.47,-0.11 -0.52,-0.29 -0.01,-0.04 -0.19,-1.7 -0.19,-1.78 0,-0.12 0.17,-0.14 0.19,-0.03 0.01,0.02 0.05,0.38 0.09,0.82 0.1,0.97 0.1,0.92 0.16,1 0.08,0.08 0.13,0.09 0.46,0.1 0.54,0 0.6,-0.03 0.63,-0.33 0.01,-0.07 0.05,-0.48 0.09,-0.91 0.1,-0.96 0.12,-0.86 -0.15,-0.83 -0.21,0.02 -0.8,0.02 -0.98,0 -0.76,-0.07 -0.85,-0.12 -0.78,-0.45 0.06,-0.28 0.13,-0.32 0.46,-0.27 0.44,0.07 1.21,0.08 1.52,0.01 0.03,-0.01 0.02,-0.15 -0.03,-0.32 -0.05,-0.14 -0.76,-0.2 -1.28,-0.11 -0.32,0.06 0.43,0.13 0.87,0.08 0.2,-0.02 0.23,-0.02 0.25,0.03 0.08,0.15 -0.12,0.2 -0.69,0.19 -0.66,-0.02 -0.98,-0.16 -0.8,-0.37 0.19,-0.22 1.5,-0.23 1.77,-0.01 0.05,0.03 0.07,0.08 0.1,0.26 0.03,0.21 0.03,0.21 0.14,0.24 0.09,0.03 0.13,0.11 0.16,0.27 0.05,0.22 0,0.32 -0.17,0.38 -0.06,0.01 -0.08,0.02 -0.09,0.05 0,0.01 -0.05,0.43 -0.1,0.95 -0.06,0.51 -0.1,0.95 -0.11,0.97 -0.04,0.17 -0.18,0.29 -0.37,0.33 -0.06,0.02 -0.53,0.03 -0.63,0.02l0 0zm0.73 -2.45c0.52,-0.05 0.56,-0.06 0.55,-0.19 0,-0.14 -0.04,-0.16 -0.21,-0.13 -0.54,0.09 -1.19,0.09 -1.66,0 -0.17,-0.04 -0.2,-0.03 -0.22,0.09 -0.02,0.09 -0.01,0.15 0.04,0.16 0.06,0.02 0.47,0.06 0.73,0.08 0.11,0.01 0.64,0 0.77,-0.01l0 0z"/>
 <path fill="#2F2F2F" d="M1.74 3.75c-0.35,-0.01 -0.51,-0.1 -0.56,-0.3 -0.02,-0.11 -0.19,-1.79 -0.18,-1.81 0.04,-0.07 0.14,-0.07 0.18,0.01 0,0.01 0.04,0.36 0.09,0.83 0.12,1.17 0.08,1.1 0.65,1.1 0.48,0 0.58,-0.04 0.6,-0.26 0.03,-0.29 0.17,-1.73 0.17,-1.75 0,-0.07 -0.03,-0.09 -0.18,-0.07 -0.5,0.05 -1.08,0.03 -1.56,-0.06 -0.23,-0.04 -0.29,-0.14 -0.24,-0.39 0.05,-0.25 0.13,-0.3 0.38,-0.26 0.59,0.09 1.62,0.08 1.62,-0.03 0,-0.03 -0.06,-0.3 -0.08,-0.31 -0.08,-0.11 -1.05,-0.16 -1.31,-0.07 -0.19,0.06 0.59,0.12 0.99,0.07 0.16,-0.02 0.23,0.03 0.18,0.12 -0.03,0.07 -0.2,0.09 -0.6,0.09 -0.68,0 -1.02,-0.12 -0.91,-0.33 0.13,-0.25 1.6,-0.27 1.81,-0.02 0.04,0.04 0.05,0.08 0.07,0.24 0.04,0.2 0.04,0.21 0.13,0.24 0.1,0.04 0.14,0.09 0.18,0.26 0.04,0.23 -0.01,0.34 -0.19,0.39 -0.05,0.01 -0.08,0.03 -0.08,0.07 0,0.02 -0.05,0.43 -0.1,0.93 -0.11,1.1 -0.1,1.05 -0.22,1.17 -0.14,0.14 -0.33,0.17 -0.84,0.14zm0.59 -2.43c0.28,-0.02 0.57,-0.06 0.61,-0.08 0.1,-0.06 0.05,-0.27 -0.05,-0.27 -0.02,0 -0.07,0 -0.1,0.01 -0.48,0.09 -1.23,0.09 -1.67,0 -0.18,-0.03 -0.23,-0.01 -0.24,0.14 -0.01,0.12 0,0.12 0.24,0.15 0.46,0.06 0.83,0.08 1.21,0.05l0 0z"/>
 <path fill="#161616" d="M1.7 3.75c-0.31,-0.03 -0.45,-0.1 -0.51,-0.28 -0.01,-0.04 -0.19,-1.68 -0.19,-1.79 0,-0.11 0.16,-0.12 0.18,0 0,0.01 0.04,0.37 0.09,0.8 0.09,0.95 0.09,0.91 0.14,0.99 0.07,0.1 0.16,0.12 0.52,0.12 0.49,0 0.57,-0.05 0.6,-0.31 0,-0.04 0.04,-0.45 0.09,-0.9 0.09,-0.9 0.09,-0.85 0.04,-0.88 -0.02,-0.02 -0.02,-0.02 -0.18,0 -0.49,0.04 -1.14,0.01 -1.57,-0.07 -0.18,-0.03 -0.25,-0.15 -0.2,-0.38 0.05,-0.25 0.13,-0.3 0.38,-0.26 0.44,0.07 0.98,0.09 1.47,0.03 0.18,-0.02 0.17,0 0.13,-0.2 -0.05,-0.21 -0.05,-0.21 -0.22,-0.25 -0.38,-0.07 -1.18,-0.05 -1.18,0.03 0,0.03 0.06,0.04 0.27,0.06 0.12,0.01 0.55,0.01 0.67,0 0.23,-0.02 0.27,-0.01 0.27,0.07 0,0.09 -0.04,0.1 -0.34,0.12 -0.79,0.06 -1.37,-0.12 -1.16,-0.35 0.2,-0.21 1.54,-0.22 1.77,0 0.05,0.04 0.06,0.08 0.09,0.25 0.04,0.2 0.04,0.22 0.13,0.24 0.23,0.07 0.27,0.54 0.05,0.62 -0.02,0.01 -0.05,0.02 -0.08,0.03 -0.07,0.02 -0.05,-0.05 -0.16,1 -0.05,0.51 -0.1,0.95 -0.11,0.97 -0.04,0.18 -0.2,0.31 -0.44,0.34 -0.05,0 -0.47,0.01 -0.55,0l0 0zm0.56 -2.42c0.61,-0.04 0.73,-0.07 0.73,-0.2 0,-0.15 -0.04,-0.18 -0.22,-0.15 -0.55,0.09 -1.18,0.09 -1.66,0 -0.18,-0.04 -0.21,-0.02 -0.23,0.11 -0.02,0.1 0,0.14 0.06,0.16 0.05,0.02 0.51,0.07 0.72,0.08 0.11,0.01 0.48,0 0.6,0l0 0z"/>
 <path fill="black" d="M1.79 3.75c-0.37,-0.02 -0.52,-0.08 -0.59,-0.27 -0.02,-0.04 -0.2,-1.8 -0.19,-1.82 0.03,-0.11 0.16,-0.07 0.17,0.05 0,0.03 0.04,0.38 0.08,0.79 0.1,0.93 0.09,0.9 0.16,0.98 0.07,0.09 0.14,0.11 0.45,0.11 0.56,0.01 0.64,-0.03 0.67,-0.36 0,-0.07 0.04,-0.46 0.09,-0.87 0.1,-0.98 0.11,-0.89 -0.13,-0.87 -0.48,0.05 -1.05,0.03 -1.55,-0.06 -0.22,-0.03 -0.28,-0.14 -0.24,-0.37 0.05,-0.25 0.13,-0.31 0.39,-0.26 0.46,0.08 1.52,0.08 1.6,0 0.05,-0.04 -0.04,-0.37 -0.1,-0.4 -0.17,-0.09 -1.04,-0.11 -1.29,-0.03 -0.24,0.08 0.56,0.15 1.01,0.09 0.12,-0.02 0.16,0 0.17,0.06 0.02,0.1 -0.08,0.12 -0.52,0.13 -0.73,0.01 -1.13,-0.12 -0.97,-0.33 0.16,-0.22 1.52,-0.24 1.76,-0.03 0.06,0.05 0.07,0.08 0.1,0.29 0.03,0.17 0.04,0.19 0.12,0.22 0.1,0.03 0.15,0.09 0.18,0.25 0.04,0.21 -0.01,0.33 -0.15,0.37 -0.12,0.03 -0.12,0.03 -0.14,0.25 -0.08,0.85 -0.18,1.72 -0.19,1.76 -0.03,0.1 -0.11,0.2 -0.22,0.25 -0.13,0.07 -0.27,0.08 -0.67,0.07l0 0zm0.61 -2.43c0.53,-0.04 0.6,-0.06 0.6,-0.19 0,-0.16 -0.05,-0.19 -0.31,-0.15 -0.49,0.08 -1.18,0.08 -1.57,-0.01 -0.18,-0.04 -0.22,-0.02 -0.24,0.12 -0.03,0.1 0,0.15 0.07,0.17 0.08,0.02 0.46,0.06 0.7,0.07 0.14,0.01 0.58,0.01 0.75,-0.01l0 0z"/>
 </g>
 </svg>
