<svg viewBox="0 0 24 24" fill="currentColor" xmlns="http://www.w3.org/2000/svg">
  <path d="M23.004 15.588a.995.995 0 0 0-.8-.99L18.5 13.988a1 1 0 0 0-1.19.788l-.813 4.23a.995.995 0 0 0 .787 1.19l3.705.61a1 1 0 0 0 1.19-.788l.825-4.43zM14.85 14.61c-.515 0-.933.418-.933.933s.418.933.933.933.933-.418.933-.933-.418-.933-.933-.933zm-5.518 0c-.515 0-.933.418-.933.933s.418.933.933.933.933-.418.933-.933-.418-.933-.933-.933zM1.5 9.047a1.498 1.498 0 1 0 0 2.996 1.498 1.498 0 0 0 0-2.996zM24 7.349c0-.664-.538-1.202-1.202-1.202H1.202C.538 6.147 0 6.685 0 7.349v2.697c0 .664.538 1.202 1.202 1.202h21.596c.664 0 1.202-.538 1.202-1.202V7.349z"/>
</svg>