<svg xmlns="http://www.w3.org/2000/svg" viewBox="0 0 32 32" fill="currentColor">
  <path d="M11.2298 31.8387C10.882 31.7518 9.22985 31.1431 8.36028 30.6214C0.0124543 26.0127 -2.59624 14.9692 2.88202 7.05614C9.49071 -2.50908 23.7516 -2.33517 30.0125 7.49092C35.7516 16.3605 31.6646 28.2735 21.8385 31.7518C21.0559 32.0127 20.6212 31.8387 20.4472 31.404C20.4472 31.2301 20.4472 31.2301 20.4472 28.7953C20.4472 27.317 20.4472 26.2735 20.3603 26.0996C20.3603 25.0561 20.0125 24.2735 19.4907 23.6648C19.4038 23.6648 19.4038 23.5779 19.4038 23.5779C19.4038 23.5779 19.4907 23.5779 19.6646 23.5779C22.5342 23.2301 24.6211 22.0996 25.6646 20.3605C26.7081 18.5344 27.0559 15.5779 26.5342 13.5779C26.2733 12.7083 25.8385 11.9257 25.2298 11.317C25.1429 11.0561 25.1429 11.0561 25.1429 10.9692C25.5777 9.75179 25.5777 8.44744 25.0559 6.96918C24.882 6.70831 24.882 6.70831 24.7951 6.70831C24.3603 6.62136 23.7516 6.70831 22.882 7.05614C22.0994 7.40397 21.6646 7.66483 20.7951 8.18657C20.3603 8.44744 20.4472 8.44744 20.0994 8.36049C17.6646 7.75179 14.969 7.66483 12.6211 8.36049C12.1864 8.44744 12.2733 8.44744 12.0125 8.27353C10.6212 7.40396 8.96898 6.70831 8.09941 6.70831C7.66463 6.70831 7.75158 6.70831 7.57767 7.1431C7.05593 8.5344 7.05593 9.83875 7.49072 10.9692C7.57767 11.0561 7.57767 11.0561 7.40376 11.2301C6.01245 12.7953 5.57767 15.0561 6.01245 17.7518C6.70811 21.2301 8.88202 23.0561 12.882 23.5779C13.1429 23.5779 13.2298 23.5779 13.2298 23.5779C13.2298 23.5779 13.2298 23.6648 13.1429 23.7518C12.7081 24.2735 12.3603 24.8822 12.2733 25.6648C12.2733 25.9257 10.882 26.1866 10.0125 26.1866C9.05593 26.0996 8.27332 25.4909 7.57767 24.4474C6.88202 23.2301 5.57767 22.4474 4.62115 22.7083C4.09941 22.7953 4.27332 23.404 4.96898 23.7518C5.66463 24.0996 6.27332 25.0561 6.70811 26.1866C7.14289 27.2301 8.01245 27.9257 9.22985 28.0996C10.1864 28.2735 11.1429 28.2735 11.9255 28.0996C12.0994 28.0996 12.1864 28.0996 12.1864 28.0996C12.2733 28.0996 12.2733 31.2301 12.1864 31.317C12.0994 31.7518 11.7516 31.9257 11.2298 31.8387Z"/>
</svg>

