<svg xmlns="http://www.w3.org/2000/svg" width="32" height="32" viewBox="0 0 32 32" fill="currentColor">
  <path d="M29 0C31.7614 3.86554e-07 34 2.23858 34 5V27C34 29.7614 31.7614 32 29 32H5C2.23858 32 0 29.7614 0 27V5C0 2.23858 2.23858 1.12745e-07 5 0H29ZM5.17188 11.543V27.5859H10.3389V11.543H5.17188ZM24.9053 11.3398C20.447 10.3349 18.4962 13.1174 18.1416 13.752V11.4922H13.4043V27.5859H18.3701V19.0312C18.3841 16.7288 19.3832 15.5537 21.2578 15.5537C23.1323 15.5537 23.918 16.6199 23.918 19.0312V27.5859H28.9082V18.4727C28.9112 18.4314 29.3487 12.3416 24.9053 11.3398ZM7.78125 3.67383C6.14433 3.67383 4.81641 4.93607 4.81641 6.49219C4.81667 8.04809 6.14449 9.30957 7.78125 9.30957C9.41779 9.30932 10.7448 8.04793 10.7451 6.49219C10.7451 4.93622 9.41795 3.67408 7.78125 3.67383Z"/>
</svg>

