<svg xmlns="http://www.w3.org/2000/svg" width="32" height="32" viewBox="0 0 3.86 3.86">
 <g fill-rule="nonzero"><path fill="#D7E4ED" d="M1.01 3.8c0,0 -0.06,0 -0.12,0 -0.16,-0.01 -0.2,-0.02 -0.35,-0.07 -0.03,-0.01 -0.08,-0.04 -0.1,-0.05 -0.07,-0.05 -0.09,-0.07 -0.13,-0.1 -0.05,-0.05 -0.08,-0.09 -0.11,-0.15 -0.03,-0.06 -0.04,-0.08 -0.06,-0.14 -0.03,-0.1 -0.03,-0.12 -0.04,-0.21 0,-0.04 0,-0.09 0,-0.11 -0.01,-0.04 -0.01,-1.91 -0.01,-2.03 0.01,-0.23 0.03,-0.33 0.09,-0.45 0.04,-0.08 0.11,-0.17 0.18,-0.23 0.02,-0.02 0.05,-0.04 0.05,-0.04 0.1,-0.08 0.26,-0.13 0.46,-0.14 0.11,0 1.99,-0.01 2.08,0 0.03,0 0.1,0.01 0.15,0.01 0.08,0 0.1,0.01 0.21,0.04 0.17,0.05 0.32,0.17 0.41,0.34 0.05,0.09 0.08,0.23 0.09,0.39 0.01,0.12 0.01,1.96 0.01,2.07 -0.02,0.27 -0.02,0.3 -0.07,0.41 -0.03,0.08 -0.05,0.11 -0.11,0.19 -0.04,0.05 -0.05,0.06 -0.08,0.08 -0.01,0.01 -0.04,0.03 -0.06,0.05 -0.09,0.07 -0.25,0.12 -0.41,0.13 -0.04,0.01 -0.08,0.01 -0.1,0.01 -0.02,0 -1.97,0.01 -1.98,0l0 0zm0.18 -0.59c0,0 0.01,-1.72 0,-1.73 -0.01,0 -0.51,0 -0.52,0 -0.01,0.01 -0.02,1.69 -0.01,1.72 0,0.02 0.51,0.03 0.53,0.01l0 0zm0.89 0.01c0,-0.01 0,-0.05 0,-0.5 0.01,-0.58 0,-0.57 0.05,-0.67 0.09,-0.16 0.38,-0.21 0.49,-0.07 0.09,0.1 0.09,0.14 0.09,0.78 0,0.44 0,0.45 0.01,0.46 0.01,0 0.51,0 0.51,-0.01 0.01,-0.01 0.01,-1.03 0,-1.14 -0.04,-0.45 -0.24,-0.64 -0.66,-0.63 -0.19,0 -0.32,0.06 -0.45,0.22 -0.06,0.07 -0.06,0.07 -0.06,-0.06 0,-0.1 0,-0.11 -0.01,-0.12 -0.01,0 -0.48,0 -0.49,0 -0.01,0.01 -0.01,1.73 0,1.74 0.01,0 0.51,0 0.52,0l0 0zm-1.11 -2c0.25,-0.04 0.35,-0.33 0.18,-0.51 -0.17,-0.2 -0.48,-0.1 -0.53,0.16 -0.03,0.2 0.15,0.38 0.35,0.35z"/>
 <path fill="#C9DAE9" d="M0.91 3.8c-0.36,-0.02 -0.58,-0.13 -0.72,-0.4 -0.06,-0.1 -0.08,-0.2 -0.09,-0.4 -0.02,-0.23 -0.01,-2.15 0.01,-2.26 0.05,-0.36 0.29,-0.6 0.65,-0.65 0.1,-0.01 2.05,-0.02 2.25,-0.01 0.18,0.02 0.21,0.02 0.32,0.06 0.19,0.06 0.35,0.22 0.42,0.41 0.07,0.17 0.07,0.16 0.07,1.47 -0.01,0.99 -0.01,1.06 -0.02,1.15 -0.05,0.32 -0.29,0.56 -0.61,0.61 -0.03,0.01 -0.07,0.01 -0.11,0.01 -0.07,0.01 -2.03,0.01 -2.17,0.01zm0.28 -0.59c0,0 0.01,-1.7 0,-1.72 0,-0.01 -0.51,-0.02 -0.53,-0.01 0,0.01 0,1.73 0,1.74 0.01,0 0.52,0 0.53,-0.01zm0.89 0c0.01,-0.01 0.01,-0.06 0.01,-0.49 0,-0.39 0,-0.48 0,-0.52 0.03,-0.2 0.13,-0.29 0.32,-0.3 0.16,0 0.25,0.07 0.29,0.26 0,0.02 0,0.19 0.01,0.54 0,0.45 0,0.51 0,0.52 0.02,0 0.52,0 0.53,-0.01 0.01,-0.01 0.01,-1.07 -0.01,-1.2 -0.05,-0.36 -0.21,-0.54 -0.52,-0.57 -0.27,-0.03 -0.45,0.04 -0.61,0.23 -0.04,0.05 -0.04,0.05 -0.04,-0.07 0,-0.07 0,-0.11 0,-0.12 -0.01,-0.01 -0.5,0 -0.51,0.01 0,0.01 0,1.72 0,1.73 0.01,0.01 0.52,0 0.53,-0.01l0 0zm-1.06 -2c0.24,-0.08 0.29,-0.39 0.1,-0.54 -0.2,-0.15 -0.49,-0.02 -0.5,0.22 -0.02,0.22 0.2,0.39 0.4,0.32l0 0z"/>
 <path fill="#BBCFE2" d="M0.93 3.8c-0.28,-0.01 -0.43,-0.06 -0.58,-0.19 -0.16,-0.14 -0.23,-0.31 -0.25,-0.57 -0.01,-0.12 -0.01,-2.07 0,-2.19 0.03,-0.49 0.3,-0.74 0.79,-0.77 0.15,0 2.08,0 2.18,0.01 0.47,0.03 0.72,0.3 0.74,0.79 0.01,0.13 0,2.05 0,2.15 -0.03,0.47 -0.28,0.73 -0.73,0.76 -0.1,0.01 -1.97,0.01 -2.15,0.01l0 0zm0.26 -0.58c0.01,-0.01 0.01,-1.73 0,-1.74 -0.01,-0.01 -0.5,-0.01 -0.52,0 -0.02,0 -0.02,1.74 0,1.74 0.02,0.01 0.51,0 0.52,0l0 0zm0.89 0c0,-0.01 0.01,-0.13 0.01,-0.51 0,-0.54 0,-0.52 0.02,-0.6 0.08,-0.27 0.49,-0.29 0.57,-0.02 0.02,0.08 0.02,0.07 0.03,0.61 0,0.38 0,0.51 0,0.52 0.01,0.01 0.52,0 0.53,-0.01 0.01,-0.01 0,-1.08 0,-1.15 -0.05,-0.42 -0.21,-0.59 -0.57,-0.62 -0.24,-0.03 -0.41,0.04 -0.56,0.22 -0.05,0.07 -0.05,0.07 -0.05,-0.07 0,-0.11 0,-0.11 -0.01,-0.11 -0.02,-0.01 -0.48,-0.01 -0.49,0 -0.01,0.01 -0.02,1.72 -0.01,1.73 0,0.01 0.01,0.01 0.01,0.01 0.01,0.01 0.51,0 0.52,0l0 0zm-1.05 -2.01c0.2,-0.07 0.28,-0.33 0.14,-0.49 -0.18,-0.22 -0.54,-0.1 -0.55,0.18 -0.01,0.22 0.2,0.38 0.41,0.31l0 0z"/>
 <path fill="#B2C8DB" d="M0.86 3.79c-0.38,-0.02 -0.64,-0.21 -0.73,-0.55 -0.03,-0.11 -0.03,-0.13 -0.03,-1.29 0,-1.14 0,-1.17 0.03,-1.29 0.07,-0.35 0.34,-0.55 0.74,-0.57 0.14,-0.01 2.07,-0.01 2.19,0 0.44,0.03 0.7,0.27 0.74,0.69 0.01,0.07 0.01,2.13 0.01,2.26 -0.03,0.44 -0.28,0.71 -0.7,0.75 -0.06,0 -2.15,0.01 -2.25,0l0 0zm0.33 -0.57c0.01,-0.02 0.01,-1.73 0,-1.74 -0.02,-0.01 -0.51,-0.01 -0.53,0 -0.01,0.01 -0.01,1.73 0,1.74 0.02,0.01 0.52,0.01 0.53,0l0 0zm0.89 0c0.01,-0.01 0.01,-0.01 0.01,-0.5 0,-0.51 0,-0.51 0.02,-0.59 0.07,-0.28 0.48,-0.32 0.56,-0.05 0.03,0.09 0.04,0.12 0.04,0.66 0,0.47 0,0.47 0.01,0.48 0.01,0.01 0.5,0.01 0.52,0 0.01,-0.02 0.01,-1.09 -0.01,-1.19 -0.04,-0.39 -0.2,-0.56 -0.54,-0.59 -0.26,-0.03 -0.43,0.04 -0.58,0.22 -0.02,0.02 -0.04,0.04 -0.04,0.04 0,0 -0.01,-0.09 -0.01,-0.17 0,-0.04 0,-0.04 0,-0.05 -0.02,-0.01 -0.49,-0.01 -0.5,0 -0.02,0 -0.02,1.73 0,1.74 0.01,0.01 0.51,0.01 0.52,0l0 0zm-1.08 -2c0.26,-0.07 0.32,-0.42 0.1,-0.57 -0.21,-0.13 -0.48,0.01 -0.48,0.26 0,0.21 0.19,0.36 0.38,0.31l0 0z"/>
 <path fill="#90B0D1" d="M0.9 3.79c-0.32,-0.01 -0.52,-0.11 -0.67,-0.32 -0.08,-0.13 -0.11,-0.24 -0.13,-0.47 -0.01,-0.22 0,-2.14 0.01,-2.26 0.05,-0.35 0.29,-0.6 0.65,-0.64 0.12,-0.02 2.03,-0.03 2.28,-0.01 0.44,0.03 0.71,0.26 0.76,0.65 0.01,0.13 0.02,2.03 0.01,2.28 -0.03,0.49 -0.29,0.74 -0.77,0.77 -0.11,0.01 -1.96,0.01 -2.14,0l0 0zm0.29 -0.57c0.01,-0.01 0.01,-1.73 0,-1.74 -0.01,-0.01 -0.52,-0.01 -0.53,0 -0.01,0.01 -0.01,1.73 0,1.74 0.01,0.01 0.52,0.01 0.53,0l0 0zm0.89 0c0.01,-0.01 0.01,0.04 0.01,-0.45 0,-0.68 0.01,-0.75 0.16,-0.82 0.19,-0.1 0.38,-0.03 0.43,0.16 0.02,0.09 0.02,0.09 0.02,0.61 0.01,0.46 0.01,0.49 0.01,0.5 0.01,0.01 0.52,0.01 0.53,0 0.01,-0.01 0.01,-1.04 0,-1.14 -0.04,-0.45 -0.23,-0.65 -0.65,-0.65 -0.21,0 -0.35,0.07 -0.49,0.24 -0.04,0.05 -0.03,0.05 -0.03,-0.07 0,-0.1 -0.01,-0.11 -0.01,-0.12 -0.01,-0.01 -0.5,-0.01 -0.51,0 -0.01,0.02 -0.01,1.72 0,1.74 0.01,0.01 0.52,0.01 0.53,0l0 0zm-1.09 -2c0.21,-0.04 0.32,-0.28 0.21,-0.46 -0.13,-0.22 -0.44,-0.21 -0.55,0.02 -0.12,0.23 0.09,0.49 0.34,0.44l0 0z"/>
 <path fill="#7097C2" d="M0.86 3.79c-0.44,-0.03 -0.71,-0.28 -0.75,-0.7 -0.01,-0.1 -0.01,-2.21 0,-2.3 0.03,-0.36 0.25,-0.61 0.58,-0.68 0.11,-0.02 0.08,-0.02 1.2,-0.02 1.21,0 1.23,0 1.35,0.03 0.33,0.08 0.53,0.32 0.56,0.67 0.01,0.09 0.01,2.2 0,2.29 -0.04,0.43 -0.3,0.68 -0.75,0.71 -0.09,0 -2.1,0 -2.19,0l0 0zm0.33 -0.57c0.02,-0.02 0.01,-1.73 0,-1.74 -0.01,-0.01 -0.51,-0.02 -0.53,0 -0.01,0.01 -0.01,1.74 0.01,1.74 0.02,0.01 0.51,0.01 0.52,0zm0.89 0c0.01,-0.01 0.01,-0.01 0.01,-0.5 0,-0.55 0,-0.53 0.03,-0.62 0.09,-0.26 0.49,-0.26 0.56,0.01 0.02,0.08 0.02,0.05 0.02,0.59 0,0.51 0,0.51 0.01,0.52 0.02,0.01 0.52,0.01 0.53,0 0.01,-0.02 0.01,-1.08 0,-1.16 -0.05,-0.42 -0.21,-0.6 -0.56,-0.63 -0.25,-0.02 -0.43,0.05 -0.58,0.23 -0.03,0.05 -0.03,0.05 -0.03,-0.07 0,-0.1 0,-0.11 -0.01,-0.11 -0.02,-0.01 -0.5,-0.01 -0.51,0 -0.01,0.01 -0.01,1.74 0.01,1.74 0.01,0.01 0.51,0.01 0.52,0l0 0zm-1.05 -2.01c0.16,-0.06 0.25,-0.24 0.2,-0.39 -0.1,-0.27 -0.46,-0.3 -0.59,-0.04 -0.12,0.25 0.13,0.53 0.39,0.43l0 0z"/>
 <path fill="#6D93BC" d="M0.89 3.79c-0.42,-0.02 -0.67,-0.21 -0.76,-0.56 -0.03,-0.12 -0.03,-0.16 -0.03,-1.27 0,-0.97 0,-1.11 0.02,-1.22 0.04,-0.34 0.29,-0.59 0.63,-0.64 0.11,-0.01 0.23,-0.01 1.21,-0.01 1.16,0 1.17,0 1.3,0.03 0.32,0.09 0.51,0.33 0.54,0.68 0.01,0.07 0.01,2.04 0,2.19 -0.01,0.23 -0.04,0.35 -0.13,0.48 -0.14,0.2 -0.32,0.3 -0.62,0.32 -0.11,0 -2.02,0.01 -2.16,0l0 0zm0.3 -0.57c0,0 0.01,0 0.01,-0.01 0.01,-0.01 0,-1.72 -0.01,-1.73 -0.01,-0.01 -0.52,-0.02 -0.53,0 -0.01,0 -0.01,0.02 -0.01,0.86 0,0.88 0,0.87 0.01,0.88 0.01,0.01 0.51,0.01 0.53,0zm0.89 0c0.01,0 0.01,-0.01 0.01,-0.49 0,-0.58 0,-0.57 0.05,-0.67 0.09,-0.19 0.41,-0.21 0.51,-0.02 0.05,0.09 0.05,0.09 0.05,0.67 0,0.61 -0.04,0.52 0.27,0.52 0.32,0 0.28,0.09 0.28,-0.55 0,-0.71 -0.01,-0.78 -0.09,-0.95 -0.17,-0.37 -0.76,-0.42 -1.05,-0.08 -0.04,0.05 -0.04,0.05 -0.04,-0.06 0,-0.1 0,-0.11 -0.01,-0.11 -0.02,-0.02 -0.5,-0.01 -0.51,0 -0.01,0.01 -0.01,1.72 0,1.74 0.01,0.01 0.51,0.02 0.53,0l0 0zm-1.06 -2c0.28,-0.1 0.3,-0.47 0.04,-0.59 -0.24,-0.12 -0.51,0.11 -0.44,0.37 0.05,0.17 0.23,0.27 0.4,0.22l0 0z"/>
 <path fill="#5887BB" d="M0.91 3.79c-0.49,-0.02 -0.76,-0.26 -0.8,-0.72 -0.01,-0.09 -0.01,-1.97 0,-2.14 0.01,-0.4 0.13,-0.62 0.4,-0.76 0.17,-0.08 0.19,-0.08 1.53,-0.08 0.96,0 1.02,0 1.13,0.01 0.33,0.05 0.59,0.31 0.62,0.65 0.02,0.15 0.02,2.15 0.01,2.33 -0.02,0.22 -0.09,0.37 -0.22,0.5 -0.15,0.14 -0.29,0.19 -0.58,0.21 -0.1,0 -1.95,0 -2.09,0l0 0zm0.28 -0.57c0.01,-0.01 0.02,-1.73 0,-1.74 -0.01,-0.02 -0.52,-0.01 -0.53,0 -0.02,0.01 -0.02,1.73 0,1.74 0.01,0.01 0.01,0.01 0.27,0.01 0.25,0 0.25,0 0.26,-0.01zm0.89 0c0.01,-0.01 0.01,-0.04 0.01,-0.45 0,-0.59 0,-0.64 0.07,-0.74 0.08,-0.13 0.33,-0.17 0.44,-0.05 0.1,0.09 0.1,0.14 0.1,0.79 0,0.41 0,0.44 0.01,0.45 0.01,0.01 0.52,0.01 0.53,0 0.01,-0.01 0.01,-1.02 0,-1.14 -0.03,-0.46 -0.23,-0.65 -0.65,-0.65 -0.2,0 -0.35,0.06 -0.48,0.22 -0.02,0.02 -0.03,0.04 -0.04,0.04 0,0 0,-0.04 0,-0.1 0,-0.1 0,-0.1 -0.01,-0.11 -0.01,-0.01 -0.49,-0.02 -0.51,0 -0.01,0.01 -0.01,1.73 0,1.74 0.01,0.01 0.52,0.01 0.53,0l0 0zm-1.06 -2c0.23,-0.07 0.3,-0.37 0.12,-0.54 -0.2,-0.19 -0.53,-0.04 -0.53,0.23 0,0.22 0.21,0.37 0.41,0.31z"/>
 <path fill="#4777AF" d="M0.89 3.79c-0.28,-0.02 -0.42,-0.07 -0.56,-0.22 -0.15,-0.14 -0.2,-0.29 -0.22,-0.54 -0.01,-0.13 0,-2.18 0,-2.25 0.04,-0.34 0.24,-0.58 0.55,-0.66 0.12,-0.03 0.14,-0.03 1.29,-0.03 1.15,0 1.18,0 1.29,0.03 0.33,0.08 0.53,0.32 0.56,0.67 0,0.09 0,2.2 0,2.29 -0.04,0.41 -0.28,0.66 -0.69,0.7 -0.04,0.01 -2.15,0.01 -2.22,0.01l0 0zm0.3 -0.57c0.01,-0.01 0.02,-1.71 0.01,-1.73 -0.01,-0.02 -0.01,-0.02 -0.28,-0.02 -0.28,0 -0.26,0 -0.26,0.01 -0.01,0.01 -0.01,1.73 0,1.74 0.01,0.02 0.52,0.02 0.53,0l0 0zm0.89 0.01c0.02,-0.01 0.01,-0.01 0.02,-0.52 0,-0.54 0,-0.52 0.02,-0.6 0.08,-0.23 0.42,-0.28 0.53,-0.07 0.05,0.09 0.04,0.07 0.05,0.66 0,0.56 0,0.53 0.02,0.53 0.15,0.01 0.51,0 0.52,-0.01 0.01,-0.01 0.02,-1.06 0,-1.16 -0.04,-0.44 -0.22,-0.62 -0.62,-0.64 -0.22,0 -0.37,0.07 -0.51,0.24 -0.04,0.04 -0.04,0.04 -0.04,-0.07 0,-0.1 0,-0.11 -0.01,-0.11 -0.01,-0.02 -0.5,-0.02 -0.51,0 -0.01,0.01 -0.01,0.03 -0.01,0.87 0,0.95 0,0.88 0.02,0.88 0.02,0 0.51,0 0.52,0l0 0zm-1.06 -2.01c0.23,-0.08 0.3,-0.36 0.13,-0.53 -0.2,-0.21 -0.55,-0.05 -0.54,0.24 0.01,0.21 0.22,0.35 0.41,0.29z"/>
 <path fill="#2765B1" d="M1 3.79c-0.4,-0.01 -0.6,-0.09 -0.76,-0.32 -0.09,-0.14 -0.12,-0.25 -0.13,-0.53 -0.01,-0.17 0,-2.02 0,-2.11 0.03,-0.26 0.1,-0.42 0.26,-0.55 0.13,-0.12 0.26,-0.16 0.48,-0.18 0.1,-0.01 2.1,-0.01 2.21,0 0.29,0.02 0.48,0.12 0.61,0.32 0.09,0.14 0.12,0.24 0.13,0.52 0.01,0.16 0,2.01 0,2.11 -0.03,0.44 -0.28,0.69 -0.71,0.73 -0.07,0.01 -1.76,0.01 -2.09,0.01l0 0zm0.19 -0.57c0.02,-0.01 0.02,-1.73 0.01,-1.75 -0.02,-0.01 -0.53,-0.01 -0.55,0.01 -0.01,0.02 -0.01,1.73 0.01,1.74 0.01,0.02 0.52,0.02 0.53,0l0 0zm0.89 0.01c0.01,-0.01 0.01,-0.02 0.02,-0.5 0,-0.5 0,-0.51 0.02,-0.59 0.06,-0.28 0.46,-0.32 0.55,-0.05 0.02,0.09 0.03,0.14 0.03,0.68 0,0.54 -0.05,0.46 0.27,0.46 0.33,0 0.28,0.08 0.28,-0.47 0.01,-0.73 0,-0.85 -0.08,-1.03 -0.18,-0.38 -0.78,-0.43 -1.06,-0.08 -0.03,0.04 -0.03,0.04 -0.04,-0.07 0,-0.1 0,-0.1 -0.01,-0.11 -0.02,-0.01 -0.5,-0.01 -0.51,0.01 -0.02,0.01 -0.02,1.73 0,1.74 0.01,0.02 0.52,0.02 0.53,0.01l0 0zm-1.06 -2.01c0.28,-0.09 0.31,-0.46 0.05,-0.6 -0.21,-0.1 -0.46,0.06 -0.46,0.29 0,0.22 0.21,0.38 0.41,0.31z"/>
 <path fill="#2865AE" d="M0.98 3.78c-0.04,0 -0.07,0 -0.06,0 0.01,0 0.01,0 0,-0.01 -0.01,-0.01 -0.01,-0.01 -0.03,0 -0.01,0 -0.01,0 -0.01,0.01 0.01,0 -0.09,0 -0.15,-0.01 -0.2,-0.03 -0.37,-0.14 -0.49,-0.3 -0.03,-0.05 -0.03,-0.06 -0.02,-0.06 0,0.01 0.01,0 0.01,0 0,-0.01 0,-0.01 0.01,-0.02 0,0 0.01,0 0.01,-0.01 -0.01,-0.02 -0.02,-0.02 -0.03,0 0,0.02 -0.01,0.03 -0.02,0.02 0,-0.01 0,-0.01 0,-0.01 0.01,-0.01 0.02,-0.03 0.02,-0.04 0,-0.01 -0.02,-0.01 -0.02,0 0,0.02 -0.01,0.02 -0.02,0 -0.03,-0.07 -0.07,-0.24 -0.06,-0.25 0,0 0,0 0,0.01 0,0 0.01,0 0.01,0 0,0 0,-0.04 0,-0.04 0,0 -0.01,0 -0.01,0.01 0,0 0,0 0,-0.01 0,0 -0.01,-0.06 -0.01,-0.13 -0.01,-0.16 0,-2.02 0,-2.11 0.01,-0.1 0.03,-0.23 0.03,-0.18 0,0 0.01,0.01 0.01,0.02 0,0.01 0,0.02 0,0.03 0,0.01 -0.01,0.02 -0.01,0.04 0,0.02 -0.01,0.04 -0.01,0.02 0,0 0,-0.01 0,-0.01 -0.01,0.01 -0.01,0.09 0,0.09 0.01,0 0.01,-0.01 0.01,-0.03 0.01,-0.02 0.01,-0.04 0.01,-0.05 0.01,0 0.01,-0.02 0.01,-0.03 0,-0.02 0.01,-0.05 0.02,-0.07 0,-0.01 0.01,-0.02 0,-0.02 -0.01,-0.01 -0.02,0 -0.02,0.01 0,0.01 0,0.01 0,0.01 -0.01,0 -0.01,-0.01 -0.01,-0.03 0,0 0,-0.01 0,-0.01 -0.01,0.01 -0.01,0.01 0.01,-0.04 0.07,-0.21 0.23,-0.37 0.44,-0.44 0.04,-0.01 0.06,-0.01 0.04,-0.01 -0.01,0.01 -0.01,0.01 0,0.01 0.01,0 0.01,0 0.01,-0.01 0,-0.01 0.08,-0.02 0.2,-0.03 0.2,-0.02 2.24,-0.01 2.24,0.01 0,0.01 0,0.01 0.04,0.01 0.02,0 0.01,-0.01 -0.01,-0.01 0,0 -0.01,0 -0.01,0 0.02,-0.02 0.19,0.02 0.25,0.05 0.03,0.01 0.03,0.03 0,0.03 0,0 0,0.01 0,0.01 0,0 0.01,0 0.03,0 0.01,0 0.02,0 0.01,-0.01 0,-0.01 0.04,0.01 0.1,0.05 0.04,0.03 0.04,0.03 0.01,0.05 -0.01,0 -0.01,0 -0.01,0.01 0.01,0.01 0.02,0.01 0.02,0 0,-0.02 0.02,-0.02 0.04,-0.01 0.09,0.06 0.19,0.24 0.22,0.39 0.01,0.06 0.02,0.21 0.01,0.17 0,-0.02 -0.01,0 -0.01,0.03 0,0.02 0.01,0.04 0.02,0.03 0,-0.02 0,0.22 0,1.12 0,1.07 0,1.1 -0.03,1.21 -0.02,0.05 -0.04,0.1 -0.03,0.08 0,-0.01 0,-0.02 0,-0.02 0.01,-0.01 0.01,-0.01 0.01,-0.02 0,0 0,0 -0.01,0.01 0,0.01 -0.01,0.01 -0.02,0 0,-0.01 -0.01,-0.02 -0.02,-0.01 0,0 0.01,0.01 0.01,0.02 0,0.01 0.01,0.02 0.01,0.03 0,0.02 0.01,0.03 0.01,0.02 0,0 -0.01,0.03 -0.03,0.07 -0.03,0.04 -0.04,0.06 -0.04,0.05 0,-0.01 -0.01,-0.01 -0.02,0 0,0.01 0,0.01 -0.01,0.02 0,0 0,0 0,0 0,0 -0.01,0.01 -0.01,0.01 0,0.01 0,0.01 0.01,0.01 0,0 0,0 0,-0.01 0,0 0.01,-0.01 0.02,-0.02 0.03,-0.01 -0.08,0.11 -0.13,0.15 -0.03,0.02 -0.03,0.01 -0.01,-0.01 0.01,-0.01 0.01,-0.01 0.01,-0.01 -0.01,0 -0.01,0 -0.02,0 0,0 0,0 0,0.01 0,0.01 -0.03,0.01 -0.03,0 0,0 -0.01,-0.01 -0.01,-0.01 0,0 -0.01,0.01 -0.01,0.01 0,0 0,0.01 0.01,0.01 0.02,0 0.03,0.02 0.01,0.03 -0.03,0.02 -0.1,0.06 -0.1,0.05 0,0 0.01,0 0.01,-0.01 0.01,0 0.02,-0.01 0.02,-0.01 -0.01,0 -0.01,0 -0.02,0.01 -0.02,0.01 -0.06,0.01 -0.07,0 -0.01,-0.01 -0.02,-0.01 -0.02,0 0,0 0.01,0 0.01,0.01 0.02,0 0.02,0.02 0,0.02 -0.02,0 -0.02,0 -0.01,0.01 0.01,0 0.01,0 -0.02,0.01 -0.08,0.02 -0.22,0.04 -0.24,0.03 0,-0.01 0,-0.01 0,0 0,0.01 -1.72,0.01 -2.05,0l0 0zm1.44 0c-0.26,0 -0.69,0 -0.95,0 -0.26,0 -0.05,0 0.47,0 0.52,0 0.74,0 0.48,0zm0.55 0c0,-0.01 -0.01,-0.01 -0.02,0 0,0 0,0 0.01,0 0,0 0.01,0 0.01,0zm-2.18 -0.01c0.01,-0.01 0.01,-0.01 0.01,-0.01 0,0 0.01,0 0.01,0 0.01,0 0.02,0 0.02,0 0,-0.01 0,-0.01 -0.01,-0.01 -0.01,0 -0.02,0 -0.02,0 0,0 -0.01,0 -0.01,0 -0.01,0.01 -0.02,0.01 -0.03,0.01 -0.01,0 -0.01,0 0,0.01 0.01,0 0.02,0 0.03,0zm2.38 0c0,-0.01 -0.01,-0.01 -0.03,-0.01 -0.02,0 -0.04,0 -0.04,0.01 0,0 0.07,0 0.07,0l0 0zm-2.29 -0.01c-0.01,0 -0.02,-0.01 -0.02,-0.01 -0.02,0 -0.02,0 -0.01,0.01 0,0 0.02,0 0.02,0 0.01,0 0.01,0 0.01,0zm0.11 0c0,-0.01 -0.06,-0.01 -0.07,-0.01 -0.01,0.01 0,0.01 0.04,0.01 0.02,0 0.03,0 0.03,0zm2.03 0c0,-0.01 -0.02,-0.02 -0.03,-0.01 -0.02,0.01 -0.03,0.01 -0.02,0 0,0 -0.01,0 -0.04,0 -0.03,0 -0.04,0 -0.03,0.01 0,0.01 0.12,0 0.12,0zm0.22 -0.01c0,0 0,0 0,0 -0.01,0 -0.01,0 -0.01,0 0,0 0,0 0,0 0,0 0.01,0 0.01,0zm-2.61 -0.02c0,-0.01 0.01,-0.01 0.01,-0.01 0.01,-0.01 0.01,-0.01 0.01,-0.02 0,-0.01 -0.01,-0.01 -0.02,0 -0.01,0.01 -0.02,0.01 -0.03,0.02 -0.01,0 -0.01,0.01 0,0.01 0.02,0 0.03,0 0.03,0l0 0zm-0.05 -0.02c0,-0.01 0,-0.01 -0.01,-0.01 -0.01,0 -0.01,0.02 0,0.02 0.01,0 0.01,-0.01 0.01,-0.01l0 0zm-0.03 -0.01c0.01,-0.01 0.01,-0.02 0,-0.02 -0.01,0 -0.02,0 -0.02,0.01 0,0.01 0,0.01 -0.02,-0.01 -0.01,-0.01 -0.03,-0.02 -0.03,-0.02 -0.01,0 -0.01,-0.01 -0.02,-0.01 0,0 -0.01,0 -0.01,0 -0.01,0.01 0,0.02 0.01,0.02 0.01,0 0.02,0 0.04,0.01 0.01,0.02 0.02,0.02 0.03,0.02 0,0 0.01,0 0.02,0l0 0zm2.81 -0.01c0,-0.01 0,-0.01 0,-0.01 -0.01,0 -0.01,0 -0.01,0.01 0,0 0,0 0,0 0.01,0 0.01,0 0.01,0zm-2.77 -0.01c0,0 0,0 0,0 0,0 0,0 0,0 0,0.01 0,0.01 0,0.01 0,0 0,0 0,-0.01zm2.82 0c0,0 0,0 0,0 0,0 0,0 0,0 0,0.01 0,0.01 0,0.01 0,0 0,0 0,-0.01zm0.05 -0.02c0.01,-0.01 0,-0.02 -0.01,-0.01 -0.01,0 -0.01,0 -0.01,0.01 0.01,0.01 0.02,0.01 0.02,0l0 0zm-2.94 -0.02c0,0 -0.01,-0.01 -0.01,-0.01 -0.01,0 -0.01,0 -0.01,-0.01 0,-0.01 -0.03,-0.01 -0.04,0 0,0 0.01,0.01 0.02,0.01 0.01,0 0.01,0 0.02,0.01 0,0.02 0.02,0.02 0.02,0l0 0zm-0.09 -0.02c0,0 0,-0.01 -0.01,-0.01 0,0 0,0.01 0,0.01 0,0 0,0 0,0 0.01,0 0.01,0 0.01,0zm3.12 -0.03c0.01,0 0.01,0 0,-0.01 0,0 -0.01,0 -0.01,0 -0.01,0.02 -0.01,0.03 0.01,0.01zm-3.19 -0.01c0,0 0,0 0.01,0 0.01,0 0.02,-0.01 0.01,-0.01 0,0 0,-0.01 -0.01,-0.01 0,0 -0.02,0.02 -0.02,0.03 0.01,0.01 0.02,0 0.01,-0.01l0 0zm3.15 -0.01c-0.01,0 -0.01,0 -0.01,0 0,0 -0.01,0.01 0,0.01 0,0.01 0,0.01 0,0.01 0.01,-0.01 0.01,-0.01 0.01,-0.02zm0.07 0c0.02,-0.02 0.02,-0.02 0.01,-0.02 0,0 -0.03,0.02 -0.03,0.03 0,0 0.01,0 0.02,-0.01zm-3.22 0c0.01,-0.01 0.01,-0.02 0,-0.03 -0.01,0 -0.01,0 -0.01,0.01 0,0 0,0.01 -0.01,0.01 0,0.01 0,0.02 0,0.02 0.01,0 0.01,-0.01 0.02,-0.01l0 0zm3.19 -0.01c0.01,-0.01 0,-0.02 -0.01,-0.02 -0.01,0.01 -0.02,0.02 -0.01,0.02 0.01,0.01 0.01,0.01 0.02,0zm-3.23 -0.02c0,0 0,0 0,0 0,0 -0.01,0 -0.01,0 0,0.01 0.01,0.01 0.01,0.01 0,0 0,0 0,-0.01zm3.3 -0.02c0,-0.01 -0.02,0 -0.02,0.01 -0.01,0.01 0,0.02 0.01,0 0,0 0.01,-0.01 0.01,-0.01l0 0zm-0.04 0.01c0.01,-0.01 0,-0.02 -0.01,-0.02 -0.01,0.01 -0.02,0.03 0,0.03 0,0 0.01,0 0.01,-0.01zm-3.27 -0.02c0.01,-0.01 0.01,-0.01 0.01,-0.01 -0.01,0 -0.01,-0.01 -0.01,-0.01 0,0 0,0 0,0.01 -0.01,0 -0.02,0.01 -0.02,0.01 -0.01,0 -0.01,0.01 0,0.01 0,0.01 0,0.01 0.02,-0.01l0 0zm-0.03 -0.02c0,-0.01 -0.01,-0.02 -0.01,-0.01 -0.01,0.01 0,0.02 0.01,0.02 0,0 0,-0.01 0,-0.01l0 0zm3.32 0c0,0 0,-0.01 0,-0.01 -0.01,0 -0.02,0 -0.01,0.01 0,0 0.01,0 0.01,0l0 0zm0.04 -0.05c0,0 -0.01,-0.01 -0.01,0 0,0 0,0.01 0,0.01 0,0.01 0.01,0 0.01,-0.01zm0.04 0.01c0,-0.01 0,-0.02 -0.01,-0.02 -0.01,-0.01 -0.01,-0.01 -0.01,0 0,0.02 0,0.03 0.02,0.02zm-3.43 -0.01c0,-0.01 0,-0.02 -0.01,-0.02 -0.01,0 -0.01,0.01 -0.01,0.02 0.01,0.01 0.02,0.01 0.02,0l0 0zm3.47 -0.07c-0.01,-0.01 -0.02,0.02 -0.02,0.02 0,0.01 0,0 0.01,-0.01 0,0 0.01,-0.01 0.01,-0.01zm-0.01 -0.03c0,-0.01 -0.01,-0.01 -0.01,-0.01 -0.01,0.01 -0.01,0.01 0,0.01 0,0.01 0.01,0.01 0.01,0zm-3.53 -0.03c0,-0.01 0,-0.02 -0.01,-0.02 -0.01,0 0,0.03 0,0.04 0.01,0 0.01,0 0.01,-0.02zm1.01 -0.03c0.01,0 -0.03,-0.01 -0.24,-0.01 -0.22,0 -0.24,0 -0.24,0.01 0.01,0.01 0.48,0.01 0.48,0l0 0zm0.88 0.01c0.02,-0.02 -0.01,-0.02 -0.25,-0.02 -0.24,0.01 -0.25,0.01 -0.24,0.01 0,0.01 0.48,0.01 0.49,0.01l0 0zm1.2 -0.01c0.01,-0.01 -0.02,-0.01 -0.27,-0.01 -0.26,0 -0.28,0 -0.27,0.01 0.01,0.01 0.53,0.01 0.54,0zm-2.61 0c0,0 0,0 0,0 -0.01,0 -0.01,0 -0.01,0 0,0 0,0 0.01,0 0,0 0,0 0,0zm0.89 0c0,-0.01 -0.01,-0.02 -0.02,-0.02 -0.01,0.01 0,0.02 0.01,0.02 0,0 0.01,0 0.01,0zm1.15 -0.01c0,-0.01 -0.02,-0.01 -0.02,0 0,0.01 0,0.01 0.01,0.01 0.01,0 0.01,0 0.01,-0.01zm-0.58 0c0,0 -0.01,0 -0.01,0 -0.01,-0.01 -0.02,-0.01 -0.02,-0.02 0,-0.01 0,-0.01 -0.05,-0.01 -0.11,0 -0.49,0 -0.49,0.01 -0.01,0.01 0.01,0.01 0.02,0 0.01,0 0.08,0 0.25,0 0.14,0 0.23,0 0.21,0 -0.03,0 -0.03,0 0,0 0.04,0 0.07,0.01 0.07,0.02 0,0.01 0.02,0.01 0.02,0l0 0zm-1.94 0c0,-0.01 0,-0.03 -0.01,-0.04 0,-0.03 0,-0.03 0,-0.06 0.01,-0.03 0.01,-0.09 0,-0.08 0,0.01 0,0.03 0,0.04 0,0.02 -0.01,0.04 -0.01,0.04 -0.01,0.02 -0.01,0.04 0,0.06 0.01,0.02 0.01,0.03 0.01,0.04 0,0 0,0.01 0.01,0.01 0,0 0,-0.01 0,-0.01l0 0zm3.12 -0.02c0,0 0,0 -0.01,0 -0.01,0 -0.01,0.01 0,0.01 0.01,0.01 0.01,0 0.01,-0.01zm-2.59 0c0,0 0,0 0,0 0.01,0 0.01,0 0.01,0 0,0 0.06,0 0.07,0 0,0 0.01,0 0.01,0 0.01,0 0.31,0 0.31,0 0,0.01 0.02,0.01 0.03,0 0.01,-0.01 0.03,-0.01 -0.24,-0.01 -0.24,0 -0.24,0 -0.23,0.01 0.01,0.01 0.04,0.01 0.04,0l0 0zm1.44 0c0,-0.01 -0.01,-0.01 -0.01,-0.01 -0.01,0 -0.02,-0.01 -0.02,-0.01 0,-0.01 0,-0.02 0,-0.02 -0.01,-0.01 -0.02,-0.72 -0.01,-0.84 0.01,-0.06 0,-0.09 0,-0.07 -0.01,0 -0.01,0.15 -0.01,0.35 0,0.35 0,0.35 0,0 0,-0.28 0,-0.44 0,-0.39 0,0.02 0.01,0 0.01,-0.02 0.01,-0.01 0.01,-0.04 0.01,-0.05 0,-0.01 0,-0.02 -0.01,-0.02 0,0.01 0,0.01 0.01,-0.04 0.02,-0.08 0.08,-0.16 0.08,-0.11 0,0 -0.01,0.01 -0.02,0.01 0,-0.01 -0.01,-0.01 -0.01,0 -0.01,0.01 0,0.01 0,0.01 0.01,-0.01 0.01,0 0.01,0 0.01,0 0.01,0.01 0.02,0.01 0,0 0,0 0,0 0,0 0,0.01 0.01,0.01 0,0.01 0,-0.01 0,-0.02 -0.01,-0.01 -0.01,-0.01 0,-0.01 0,0 0.01,-0.01 0.01,-0.01 0,-0.01 0,-0.01 -0.01,-0.01 -0.01,0 -0.01,0 -0.01,-0.01 0,0 0,0 0,-0.01 -0.02,0 0.05,-0.04 0.1,-0.06 0.15,-0.05 0.29,0 0.35,0.11 0.04,0.1 0.05,0.14 0.05,0.73 0,0.54 -0.05,0.46 0.27,0.46 0.33,0 0.28,0.08 0.28,-0.47 0.01,-0.74 0,-0.87 -0.09,-1.04 -0.01,-0.02 -0.01,-0.04 -0.01,-0.03 0.02,0.01 0.02,-0.01 0,-0.02 -0.01,-0.02 -0.02,-0.02 -0.01,-0.01 0.01,0.03 0,0.02 -0.02,-0.01 -0.07,-0.11 -0.22,-0.2 -0.39,-0.22 -0.02,0 -0.03,0 -0.04,-0.01 -0.12,-0.01 -0.28,0.01 -0.36,0.05 -0.02,0.01 -0.02,0.01 -0.02,0.01 0,-0.01 -0.01,-0.01 -0.01,-0.01 0,0 -0.01,0 -0.01,-0.01 0,0 -0.02,-0.01 -0.03,0 -0.01,0.01 0,0.02 0.01,0.02 0.01,0 0.02,0 0.02,0 0,0 0,0 0.01,0 0.01,0 0,0.01 -0.02,0.02 -0.06,0.04 -0.12,0.09 -0.17,0.15 -0.03,0.04 -0.03,0.04 -0.04,-0.07 0,-0.1 0,-0.1 -0.01,-0.11 -0.02,-0.01 -0.5,-0.01 -0.51,0.01 -0.02,0.01 -0.02,1.73 0,1.74 0.01,0.01 0.01,0.01 0.27,0.01 0.29,0 0.27,0 0.28,-0.02 0,-0.03 0,-0.03 0,-0.01 0,0.02 0,0.03 0.01,0.03 0.01,0 0.02,0.01 0.02,0.01 0,0.01 0,0.01 0,0.01 0,0.01 0.02,0 0.02,0l0 0zm-0.05 -0.09c-0.01,-0.02 -0.01,-0.09 0,-0.09 0,0.01 0,0.03 0,0.06 0,0.04 0,0.05 0,0.03zm0 -0.92c0,-0.01 0,-0.02 0,-0.03 0,-0.01 0,-0.02 0.01,-0.01 0,0 0,0.05 -0.01,0.05 0,0 0,-0.01 0,-0.01zm0.64 1.01c0.01,-0.01 0.01,-0.01 0,-0.01 -0.01,0 -0.02,0 -0.02,0 -0.02,0 -0.03,0 -0.02,0.01 0.01,0.01 0.02,0.01 0.04,0l0 0zm-1.54 0c0,-0.01 -0.01,-0.02 -0.03,-0.01 0,0 -0.01,0 0,0.01 0.01,0.01 0.03,0.01 0.03,0l0 0zm1.61 0c-0.01,0 -0.03,0 -0.04,0 0,0 0,0 0.02,0 0.02,0 0.03,0 0.02,0zm0.44 -0.01c0,0 0.01,0 0.02,0 0.02,0 0.02,0.02 0.02,-0.53 0,-0.35 0,-0.51 -0.01,-0.52 0,-0.01 0,-0.04 0.01,-0.05 0.01,-0.01 0.02,-0.07 0.01,-0.09 -0.01,-0.01 -0.02,0 -0.01,0.04 0,0.03 0,0.04 -0.01,0.04 -0.01,0 -0.01,-0.01 -0.01,-0.03 0,-0.02 0,-0.02 0,-0.01 -0.01,0 -0.01,0 -0.01,-0.01 0,0 0,0.01 0,0.03 0,0.02 0,0.04 0,0.03 0,-0.02 0.01,-0.01 0.01,0.01 0.01,0.05 0,1.05 0,1.05 -0.01,0.01 -0.01,0.01 -0.01,0.02 -0.01,0.02 -0.01,0.02 -0.21,0.02 -0.29,0 -0.32,0 -0.23,0.01 0.04,0 0.14,0 0.23,0 0.08,0 0.14,0 0.13,0 -0.02,0 -0.02,0 0.02,0 0.02,0 0.04,0 0.05,-0.01l0 0zm-0.04 0.01c0,0 0.01,0 0.01,0 0,0 0,0 0,0 0,0 0,0 0,0 0,0 -0.01,0 -0.01,0zm-2.02 -0.03c0.02,-0.01 0.02,-1.73 0.01,-1.75 -0.02,-0.01 -0.53,-0.01 -0.55,0.01 -0.01,0.02 -0.01,1.73 0.01,1.74 0.01,0.02 0.52,0.02 0.53,0l0 0zm1.5 0c0,0 0,-0.01 0,-0.01 0,-0.01 0,-0.01 -0.01,0 0,0.01 0,0.02 0.01,0.02 0,0 0,0 0,-0.01zm1.07 0c0,0 0,0 0,0 0,0 0,0 0,0 0.01,0 0.01,0 0,0l0 0zm-2.23 -0.04c-0.01,-0.05 -0.01,-0.05 -0.01,-0.01 0,0.03 0.01,0.05 0.01,0.05 0,0 0,-0.02 0,-0.04zm-0.89 -0.1c0,-0.11 0,-0.14 -0.01,-0.14 -0.01,0.01 0,0.27 0,0.27 0.01,0 0.01,-0.06 0.01,-0.13l0 0zm0.62 0.03c0,-0.09 0,-0.12 -0.01,-0.1 0,0.02 0,0.19 0,0.2 0.01,0.01 0.01,-0.01 0.01,-0.1zm-0.03 0.09c0,0 0,-0.01 0,-0.01 -0.01,0 -0.01,0 -0.01,0.01 0,0 0,0 0.01,0 0,0 0,0 0,0zm-0.01 0c0,0 0,0 0,0 -0.01,0 -0.01,0 -0.01,0 0,0 0,0 0.01,0 0,0 0,0 0,0zm0.01 -0.04c-0.01,-0.02 -0.01,-0.02 -0.01,0 0,0.01 0,0.02 0.01,0.02 0,0 0,0 0,-0.02zm-0.01 0.01c0,0 0,0 0,0 -0.01,0 -0.01,0 -0.01,0 0,0 0,0 0.01,0 0,0 0,0 0,0zm-1.07 -0.02c0.01,-0.01 0.01,-0.02 0,-0.03 0,-0.01 0,-0.01 0,0.01 0,0 -0.01,0.02 -0.01,0.02 0,0 0,0.01 0,0.01 0,0 0.01,-0.01 0.01,-0.01l0 0zm3.63 0.01c0.01,-0.01 0.01,-0.08 0,-0.08 0,0 0,0 0,0.01 0,0.02 0,0.04 -0.01,0.06 0,0.01 0,0.02 0.01,0.01l0 0zm-1.09 -0.63c0,-0.11 0,-0.02 0,0.21 0,0.22 0,0.31 0,0.2 0,-0.11 0,-0.29 0,-0.41l0 0zm-2.1 0.55c0,-0.04 0,-0.06 0,-0.06 -0.01,0 -0.01,0.02 -0.01,0.06 0,0.03 0,0.05 0.01,0.05 0,0 0,-0.02 0,-0.05zm0.94 -0.21c0,-0.04 -0.01,-0.01 -0.01,0.07 0,0.08 0.01,0.12 0.01,0.08 0,-0.04 0,-0.11 0,-0.15zm2.25 0.19c-0.01,0 -0.01,0 -0.01,0.01 0,0 0.01,0 0.01,0 0,0 0,-0.01 0,-0.01zm-1.64 -0.33c0,-0.33 0,-0.33 -0.01,0 0,0.32 0,0.34 0.01,0.34 0,0 0,-0.15 0,-0.34zm-0.92 0.28c0,0 0,0 0,0.01 0,0 0,0.01 0,0 0.01,0 0.01,-0.01 0,-0.01zm2.57 0c0,0 0,0 0,0.01 0,0 0,0 0,0 0,0 0,0 0,-0.01l0 0zm-2.57 -0.01c-0.01,0 -0.01,0 -0.01,0 0,0.01 0,0.01 0.01,0.01 0,0 0,-0.01 0,-0.01l0 0zm2.56 -0.02c0,-0.02 0,-0.02 -0.01,0 -0.01,0.02 -0.01,0.02 0,0.02 0.01,0.01 0.01,0 0.01,-0.02zm0 -0.03c0,0 -0.01,0 -0.01,0.01 0,0 0.01,0 0.01,0 0,0 0,0 0,-0.01l0 0zm-2.56 -0.01c0.01,0.01 0.02,-0.07 0.02,-0.24 0,-0.17 -0.01,-0.25 -0.02,-0.23 0,0 0,0 0,-0.01 0,0 -0.01,0.01 -0.01,0.03 0,0.03 0.01,0.04 0.01,0.03 0,-0.04 0.01,0.03 0.01,0.19 0,0.16 -0.01,0.2 -0.01,0.17 0,0 -0.01,0.01 -0.01,0.03 0,0.02 0.01,0.04 0.01,0.03 0,0 0,0 0,0l0 0zm2.58 0.01c0,0 -0.01,0 -0.01,0 0,0 0,0 0,0 0,0 0,0 0,0 0,0 0.01,0 0.01,0zm-2.54 -0.04c0,-0.03 0,-0.04 -0.01,-0.04 0,0 0,0.05 0,0.07 0,0.01 0.01,0 0.01,-0.03zm2.53 -1.46c0,-0.26 0,-0.05 0,0.47 0,0.52 0,0.74 0,0.48 0,-0.26 0,-0.69 0,-0.95zm-2.53 1.05c0,-0.02 0,-0.03 0,-0.04 -0.01,0 -0.01,0.02 -0.01,0.04 0,0.03 0,0.04 0.01,0.03 0,0 0,-0.02 0,-0.03zm0.87 -0.22c0,0 0,-0.01 0.01,-0.01 0.01,-0.01 0.01,-0.02 0.01,-0.03 -0.01,-0.02 -0.02,-0.01 -0.02,0.01 0,0.01 0,0.02 -0.01,0.02 0,0 0,0.01 0,0.01 0,0.01 0,0.01 0,0.01 0.01,0 0.01,0 0.01,-0.01l0 0zm-0.91 -0.09c0.01,0.01 0.01,0.01 0.01,-0.01 0,-0.01 0,-0.02 -0.01,-0.02 0,0 0,0 0,0 0,-0.01 0,-0.01 0,-0.01 0.02,0.01 0.03,-0.27 0.01,-0.29 0,-0.01 0,0.01 0,0.13 -0.01,0.11 -0.01,0.14 -0.01,0.14 -0.01,0 -0.01,0.01 -0.01,0.04 0,0.02 0.01,0.04 0.01,0.03 0,-0.01 0,-0.01 0,-0.01l0 0zm0.04 -0.03c0,-0.01 0,-0.03 0,-0.03 -0.01,-0.01 -0.01,0 -0.01,0.03 0,0.03 0,0.04 0.01,0.04 0,0 0,-0.02 0,-0.04zm1.42 0.03c0,-0.01 0,-0.01 0,0 0,0 0,0 0,0 0,0 0,0 0,0l0 0zm-0.54 -0.01c0,-0.01 0,-0.01 0,0 0,0 0,0.01 0,0 0.01,0 0.01,0 0,0l0 0zm0 -0.04c0,-0.02 0,-0.02 0,-0.03 0.01,0 0.01,-0.01 0.01,-0.02 0,-0.02 -0.01,-0.01 -0.02,0.03 0,0.02 -0.01,0.02 0,0.03 0.01,0.01 0.01,0.01 0.01,-0.01zm0.53 -0.02c0,0 -0.01,-0.01 -0.01,-0.02 0,0 -0.01,-0.02 -0.01,-0.03 0,0 0,-0.01 0,-0.01 -0.01,0 -0.01,0 -0.01,0.01 0,0.01 0.01,0.03 0.01,0.04 0,0.02 0,0.03 0.01,0.03 0.01,0 0.01,-0.01 0.01,-0.02l0 0zm-0.04 0.01c0,-0.01 -0.01,-0.04 -0.01,-0.04 -0.01,-0.01 -0.01,0.02 -0.01,0.03 0,0.01 0.01,0.01 0.02,0.01zm-0.01 -0.08c0,0 0,0 0,0 -0.01,0 -0.01,0 -0.01,0 0,0.01 0,0.01 0.01,0.01 0,0 0,0 0,-0.01zm0.65 -0.03c0,-0.01 0,-0.03 0,-0.03 0.01,0 0.01,0.01 0.01,0.03 0,0.01 0.01,0.02 0.01,0.02 0.01,-0.01 0.01,-0.06 0,-0.06 -0.02,-0.01 -0.03,-0.01 -0.03,0 0,0.01 0,0.01 -0.01,0.01 -0.01,0 -0.01,0.03 0,0.03 0,0 0.01,0.01 0.01,0.02 0,0.03 0.01,0.02 0.01,-0.02l0 0zm-0.63 0.01c0,0 0,0 -0.01,0 0,0 0,0 0,0 0,0.01 0,0.01 0,0.01 0.01,0 0.01,0 0.01,-0.01zm-0.02 -0.03c0,0 -0.01,0 -0.01,0 0,0 0,0 0,0 0,0.01 0,0.01 0,0.01 0,0 0.01,0 0.01,-0.01zm-0.04 -0.01c0,0 0,-0.01 0,-0.01 0.02,0 0.02,-0.01 0,-0.01 -0.02,-0.01 -0.02,-0.02 -0.01,-0.01 0.01,0.02 0.01,0.02 0,0.02 -0.01,0 -0.02,0.01 -0.01,0.02 0.01,0 0.01,0 0.02,-0.01l0 0zm-0.33 0c0,0 -0.01,0 -0.01,0 -0.01,0 -0.01,0 -0.01,0 0,0 0.01,0.01 0.01,0.01 0.01,0 0.01,-0.01 0.01,-0.01zm0.24 0c0,-0.01 0,-0.01 -0.01,-0.01 0,0 0,0.01 0.01,0.01 0,0 0,0 0,0l0 0zm-0.27 -0.01c0,0 0,0 0,0 0,0 0,0 0,0 0,0 0,0 0,0 0,0 0,0 0,0zm0.09 -0.01c0.01,0 0.02,-0.01 0.02,-0.02 0,-0.02 0,-0.02 -0.02,-0.01 -0.04,0.02 -0.04,0.03 -0.05,0.02 0,0 0,0 -0.01,0 0,0 0,0.01 0.01,0.01 0.02,0.01 0.03,0.01 0.05,0l0 0zm0.23 0c0,-0.01 -0.02,-0.04 -0.04,-0.04 0,0 0,0.03 0,0.04 0.01,0.01 0.03,0.01 0.04,0zm0.7 -0.02c0,0 0,0 0,0 0,0.01 0,0.01 0,0.01 0,-0.01 0,-0.01 0,-0.01l0 0zm0.06 -0.02c0,-0.01 0,-0.01 -0.01,-0.01 -0.01,0 -0.02,0.01 -0.01,0.02 0.01,0.01 0.02,0 0.02,-0.01l0 0zm-0.88 0c0,0 0,-0.01 0,-0.01 -0.01,0 -0.04,0 -0.03,0.01 0,0 0.02,0 0.03,0l0 0zm-0.89 -0.22c0,-0.04 -0.01,0 -0.01,0.08 0,0.07 0.01,0.11 0.01,0.07 0,-0.04 0,-0.1 0,-0.15zm1.7 0.19c0,0 0,0 0,0 0,0.01 0,0.01 0,0.01 0.01,0 0.01,-0.01 0,-0.01l0 0zm-2.01 -0.06c-0.01,0 -0.01,0 -0.01,0.01 0,0 0,0 0.01,0 0,0 0,0 0,-0.01l0 0zm2.01 -0.03c0,-0.01 0,-0.01 -0.01,0 -0.01,0 -0.01,0.01 -0.01,0.02 0.01,0.01 0.02,0 0.02,-0.02zm-0.01 -0.03c0.01,0 0.01,0 0,0 0,-0.01 -0.01,-0.01 -0.01,-0.02 0,0 0,0 -0.01,0 0,0.01 0,0.03 0,0.03 0,0 0.01,0 0.01,0 0,-0.01 0.01,-0.01 0.01,-0.01zm-0.03 -0.03c0,-0.01 0,-0.01 -0.01,-0.01 0,0 0,0.01 0,0.02 0.01,0 0.01,0 0.01,-0.01zm0.01 -0.03c0,0 0,0 0,0 0,0 -0.01,0 -0.01,0.01 0,0.01 0.01,0 0.01,-0.01l0 0zm0.03 0c-0.01,0 -0.01,0 0,0 0,0.01 0,0.02 0,0.01 0,0 0,-0.01 0,-0.01l0 0zm-1.13 -0.07c0,0 0,-0.01 0,-0.01 0,-0.01 -0.02,0.01 -0.02,0.02 0,0.01 0.01,0.01 0.02,-0.01zm-0.88 0c-0.01,0 -0.01,0 -0.01,0 0,0.01 0,0.01 0.01,0.01 0,0 0,-0.01 0,-0.01l0 0zm-0.58 -0.07c0,-0.05 0,-0.07 -0.01,-0.06 0,0.01 0,0.14 0.01,0.14 0,0 0,-0.04 0,-0.08l0 0zm0.62 0c0,-0.08 -0.01,-0.14 -0.02,-0.14 -0.01,0 0,0.05 0,0.06 0.01,0 0.01,0.03 0.01,0.07 0,0.07 0,0.09 0.01,0.08 0,0 0,-0.03 0,-0.07l0 0zm-0.03 0.05c0,0 0,-0.01 0,-0.01 0,0 -0.01,0.01 0,0.01 0,0.01 0,0.02 0,0.02 0,0 0,-0.01 0,-0.02zm-0.64 -0.05c0,-0.03 0,-0.06 0,-0.06 -0.01,0 -0.01,0.03 -0.01,0.06 0,0.04 0,0.06 0.01,0.06 0,0 0,-0.02 0,-0.06zm2.58 0.05c0,0 -0.01,-0.02 -0.02,-0.02 0,0 0,0.02 0,0.03 0.01,0 0.01,0 0.02,-0.01zm-1.04 -0.02c0.01,-0.01 -0.01,-0.03 -0.02,-0.03 -0.01,0 -0.01,0.01 0,0.03 0,0.01 0.01,0.01 0.02,0zm0.98 0c0,0 0,-0.01 -0.01,-0.01 0,-0.01 0,-0.01 0,-0.02 0,0 -0.01,0 -0.01,0 -0.01,0 -0.01,0.01 0,0.02 0.02,0.01 0.02,0.02 0.02,0.01zm-1.02 -0.02c0,0 -0.01,-0.01 -0.01,0 0,0 0,0 0,0.01 0,0.01 0,0.01 0,0.01 0,0 0.01,-0.01 0.01,-0.02zm1.05 0c0,0 0,-0.01 -0.01,-0.01 0,0 0,0 0,0.01 0,0 -0.01,0 -0.01,0 0,0.01 0,0.01 0.01,0.01 0,-0.01 0.01,-0.01 0.01,-0.01l0 0zm-0.99 0c0,0 0,-0.01 0,-0.01 -0.01,0 -0.01,0.01 -0.01,0.01 0,0 0,0 0,0 0,0 0.01,0 0.01,0zm0.03 -0.03c0.02,-0.02 0.01,-0.03 -0.02,-0.01 -0.02,0.01 -0.02,0.01 -0.01,0.02 0.01,0.01 0.01,0.01 0.03,-0.01zm0.89 -0.01c0,-0.01 0,-0.02 -0.03,-0.02 -0.03,-0.01 -0.03,0 0,0.01 0.02,0.02 0.03,0.02 0.03,0.01zm-1.84 0c0,0 0,0 -0.01,0 0,0 0,0 0,0 0,0 0,0 0,0 0.01,0 0.01,0 0.01,0zm0.98 -0.01c0,0 0,-0.01 0,-0.01 -0.01,-0.01 -0.01,0 -0.01,0.01 0.01,0 0.01,0 0.01,0l0 0zm-0.99 -0.01c0,-0.01 0,0 0,0 0,0.01 0,0.01 0,0.01 0.01,-0.01 0.01,-0.01 0,-0.01l0 0zm0 -0.05c-0.01,-0.04 -0.01,-0.04 -0.03,-0.03 -0.01,0 -0.01,0.01 0,0.01 0.01,-0.01 0.02,0.01 0.02,0.04 0,0.02 0.01,0.03 0.01,0.02 0,0 0,-0.02 0,-0.04l0 0zm0.94 0.04c0,-0.01 -0.02,-0.01 -0.02,0 0,0.01 0,0.01 0.01,0.01 0.01,0 0.01,-0.01 0.01,-0.01zm0.93 0c0,0 -0.01,0 -0.01,0 0,0 0,0 0,0.01 0,0 0.01,0 0.01,0 0,0 0,-0.01 0,-0.01zm-0.85 -0.01c0,-0.01 0,-0.01 -0.01,-0.01 -0.01,0 -0.01,0.01 0,0.01 0.01,0.01 0.01,0.01 0.01,0l0 0zm0.77 -0.01c0,-0.03 -0.01,-0.04 -0.03,-0.03 -0.01,0 -0.02,-0.01 -0.02,-0.01 -0.01,0 -0.01,0 -0.02,0 -0.03,0.02 -0.02,0.02 0.01,0.02 0.01,0 0.01,0 0.03,0.01 0,0.01 0.01,0.02 0.02,0.02 0,-0.01 0,0 0,0 0,0 0,0.01 0,0.01 0.01,0 0.01,-0.01 0.01,-0.02l0 0zm-1.46 -0.03c0.01,-0.01 0.01,-0.02 0.01,-0.02 0,0 -0.01,0 -0.01,0 0,0 -0.01,0.01 -0.02,0.01 -0.01,0 -0.01,0.01 0,0.02 0,0 0,0 0.02,-0.01zm0.53 0c0,-0.01 0,-0.01 -0.02,-0.01 -0.01,-0.01 -0.01,-0.01 0,0 0.02,0.02 0.02,0.02 0.02,0.01zm-1.42 -0.01c0,0 0,0 -0.01,0 0,0 0,0 0,0 0,0 0,0.01 0,0.01 0,0 0,-0.01 0.01,-0.01zm1.57 -0.01c0,0 -0.01,-0.01 -0.01,-0.01 -0.01,0 -0.01,0.01 -0.01,0.01 0,0.01 0,0.02 0.01,0.02 0,0 0.01,-0.01 0.01,-0.02zm0.67 0.01c0,0 -0.02,-0.01 -0.02,-0.01 0,0.01 0.01,0.02 0.02,0.02 0,0 0,-0.01 0,-0.01zm-0.55 0c0,-0.01 0,-0.01 0,-0.01 0,0 -0.01,0 -0.01,0 0,0 0,0 -0.01,0 -0.01,-0.01 -0.03,-0.01 -0.03,0 0,0.01 0.04,0.01 0.05,0.01zm0.67 0c0,-0.01 0,-0.01 -0.01,-0.01 0,0 0,0.01 0.01,0.01 0,0 0,0 0,0l0 0zm-2.32 -0.01c0,0 0,-0.01 -0.01,-0.01 -0.01,0.01 -0.01,0.02 0,0.02 0.01,0 0.01,-0.01 0.01,-0.01zm1.67 0c-0.01,-0.01 -0.01,-0.01 -0.01,0 0,0 0,0 0,0 0.01,0 0.01,0 0.01,0l0 0zm0.45 -0.02c0,0 -0.01,0 -0.01,0 -0.01,0 0,0 0,0 0.01,0 0.01,0 0.01,0zm-0.37 0c0.02,-0.01 0.04,-0.01 0.04,-0.01 0,-0.01 -0.01,-0.01 -0.05,0 -0.05,0.01 -0.03,0.01 0.01,0.01l0 0zm0.35 -0.01c0,-0.01 0.01,-0.01 0.01,-0.01 0.01,0 0.01,0 0.01,-0.01 0,0 -0.02,0 -0.03,0 0,0.01 -0.01,0.01 -0.03,0.01 -0.02,0 -0.02,0 -0.01,0.01 0,0 0.01,0.01 0.03,0.01 0.01,0 0.02,0 0.02,-0.01l0 0zm-0.08 -0.02c0,0 0.02,-0.01 0.03,-0.01 0.02,0 0.03,0 0.03,0 0,0 0.01,0 0.01,-0.01 0,-0.01 -0.03,-0.01 -0.04,0 -0.02,0.01 -0.11,0.01 -0.11,0 -0.01,0 -0.01,0 -0.02,0 0,0.01 -0.02,0.01 -0.04,0.01 -0.03,0 -0.04,0 -0.04,0 -0.01,0.01 -0.05,0.01 -0.06,0 -0.01,-0.01 -0.07,0 -0.07,0.01 0,0 0.3,0 0.31,0l0 0zm-1.96 -0.16c0,0 -0.01,0 -0.01,0 -0.01,0 -0.01,0 0,0.01 0.01,0.01 0.02,0 0.01,-0.01zm0.29 0.01c0.02,0 0.01,-0.01 -0.01,-0.02 -0.03,0 -0.03,0 -0.02,0.01 0,0.01 0.02,0.02 0.03,0.01zm-0.22 -0.01c0.02,0 0.01,-0.01 -0.01,-0.01 0,0 -0.01,-0.01 -0.02,-0.01 0,0 -0.01,-0.01 -0.02,-0.01 -0.01,-0.01 -0.03,-0.01 -0.03,-0.02 -0.02,-0.01 -0.02,-0.01 -0.02,0 0,0.01 0.01,0.01 0.01,0.01 0,0 0.01,0.01 0.02,0.01 0.01,0.01 0.03,0.01 0.03,0.01 0.01,0.01 0.02,0.01 0.02,0.02 0,0 0.01,0.01 0.01,0 0.01,0 0.01,0 0.01,0l0 0zm0.15 0c0,0 -0.01,0 -0.01,0 0,0 0,0 0.01,0 0,0 0,0 0,0zm0.04 -0.02c0.28,-0.09 0.31,-0.46 0.05,-0.6 -0.21,-0.1 -0.46,0.06 -0.46,0.29 0,0.22 0.21,0.38 0.41,0.31zm0.08 0c0.02,-0.01 0.03,-0.02 0.03,-0.02 0,-0.01 -0.02,-0.01 -0.03,0 -0.01,0.01 -0.01,0.01 -0.02,0.01 -0.01,0 -0.02,0.01 -0.02,0.01 0,0.01 0,0.01 0.04,0zm-0.37 0c0,0 0,-0.01 0,-0.01 0,0 -0.02,0 -0.02,0.01 0,0 0.01,0.01 0.02,0l0 0zm0 -0.01c0,0 0,0 0,0 0,0 0,0 0,0 0,0 0,0.01 0,0.01 0,0 0,-0.01 0,-0.01zm-0.05 -0.03c0,-0.01 -0.02,-0.03 -0.03,-0.03 -0.01,0 -0.01,0.01 0,0.01 0.01,0.01 0.01,0.01 0.01,0.02 0,0.01 0.02,0.01 0.02,0l0 0zm0.05 0c0,-0.01 -0.01,-0.01 -0.02,-0.01 0,0 0.01,0.01 0.01,0.01 0,0 0.01,0 0.01,0l0 0zm0.47 -0.01c0,-0.01 0,-0.01 -0.01,0 -0.01,0.01 -0.01,0.01 0,0.01 0,0 0,-0.01 0.01,-0.01zm-0.04 -0.01c0,-0.01 0,-0.01 -0.01,-0.01 -0.01,0.01 -0.01,0.02 0,0.02 0,0 0.01,-0.01 0.01,-0.01zm-0.46 -0.01c0,0 -0.01,-0.01 -0.02,-0.03 -0.02,-0.01 -0.04,-0.03 -0.05,-0.05 0,-0.01 0,-0.02 -0.01,-0.03 0,-0.01 -0.01,-0.02 -0.01,-0.02 0,0 -0.01,0 -0.01,-0.01 0,-0.02 0,-0.03 0,-0.02 -0.02,0.01 -0.02,0.02 0,0.03 0,0.01 0.01,0.02 0.01,0.03 0,0 0.01,0.01 0.01,0.02 0,0 0.01,0.01 0.01,0.01 0,0 0,0.01 0,0.01 0.01,0 0.01,0.01 0.01,0.02 0,0 0.01,0.01 0.02,0.01 0,0 0.01,0.01 0.02,0.02 0.01,0.01 0.02,0.02 0.02,0.01l0 0zm0.48 -0.01c0.01,-0.01 0,-0.01 -0.01,-0.01 -0.01,0 -0.01,0.01 0,0.01 0.01,0 0.01,0 0.01,0l0 0zm0.02 -0.04c0.01,0 0,0 0,0 -0.01,0.01 -0.01,0.02 0,0.02 0,0 0,-0.01 0,-0.02zm0.05 0c0,0 0,0 -0.01,-0.01 0,0 0,0 0,-0.01 0,-0.01 -0.01,-0.03 -0.02,-0.02 0,0.02 0,0.03 0.01,0.03 0,0 0.01,0.01 0.01,0.02 0,0 0,0 0,0 0.01,0 0.01,0 0.01,-0.01l0 0zm-0.64 0c0,0 0,0 0,0 -0.01,0 -0.01,0 -0.01,0 0,0.01 0,0.01 0.01,0.01 0,0 0,0 0,-0.01zm-0.02 -0.02c0.01,-0.01 -0.01,-0.03 -0.01,-0.02 -0.01,0 -0.01,0.02 0,0.03 0.01,0 0.01,0 0.01,-0.01l0 0zm0.67 -0.04c0,-0.01 0,-0.01 0,-0.01 0,0 0,0 0,0.01 0,0 0,0 0,0 0,0 0,0 0,0zm0 -0.04c-0.01,-0.01 -0.01,-0.01 -0.01,0 -0.01,0.01 0,0.03 0.01,0.02 0,0 0,0 0,0.01 0,0 0,0 0,0 0,-0.01 0,-0.02 0,-0.03l0 0zm-0.67 -0.1c-0.01,-0.04 -0.02,-0.03 -0.01,0.01 0,0.06 0,0.06 0,0.03 0.01,-0.01 0.01,-0.03 0.01,-0.04zm0.67 0.01c0,0 0,0 0,0 0,0 0,0 0,0 0,0.01 0,0.01 0,0.01 0,-0.01 0,-0.01 0,-0.01zm-0.66 -0.06c0,-0.01 0,-0.01 0,0 0,0 0,0.01 0,0 0,0 0,0 0,0l0 0zm-0.01 -0.03c-0.01,0 -0.02,0.01 -0.01,0.02 0,0 0,0 0.01,0 0,-0.01 0,-0.01 0,-0.02zm-0.41 0.01c0,0 0,0 0,0 0,0 -0.01,0 -0.01,0 0,0 0.01,0 0.01,0 0,0 0,0 0,0zm1.07 -0.01c0,0 0,-0.01 0.01,-0.01 0.01,-0.01 0.01,-0.08 0,-0.08 -0.01,0 -0.01,0.01 -0.01,0.03 0,0.02 0,0.03 0,0.03 -0.01,0.01 -0.01,0.04 0,0.04 0,0 0,0 0,-0.01zm-0.63 -0.01c0,-0.02 0,-0.02 -0.01,-0.02 -0.01,0 -0.01,-0.01 -0.01,-0.01 0,-0.02 -0.01,-0.01 -0.01,0 0,0.03 0.02,0.05 0.03,0.03l0 0zm0.61 -0.05c0,-0.01 -0.01,-0.01 -0.01,-0.01 0,0 0,0.02 0.01,0.03 0.01,0.01 0.01,-0.01 0,-0.02zm-0.6 0.02c0,-0.01 0,-0.01 -0.01,-0.01 0,0 0,0 0,0.01 0,0 0,0 0,0 0,0 0,0 0.01,0zm3.16 -0.02c0,0 -0.01,-0.01 -0.01,-0.02 0,0 0,0 0,0.02 0,0.01 0,0.01 0,0.01 0,0 0.01,0 0.01,-0.01zm-2.57 -0.03c0,0 -0.01,-0.01 -0.01,-0.01 -0.01,0 -0.01,-0.01 -0.01,-0.02 -0.01,-0.01 -0.02,-0.01 -0.02,0 0,0.01 0.03,0.04 0.04,0.04 0,0 0,0 0,-0.01l0 0zm-0.57 0c0,0 0,0 0,0 0,0 0,0 0,0 0,0 0,0.01 0,0.01 0,0 0,-0.01 0,-0.01zm0.59 -0.02c0,-0.01 0,-0.02 -0.01,-0.01 -0.01,0 -0.01,0.02 0,0.02 0.01,0 0.01,0 0.01,-0.01zm-0.57 0c0,-0.01 0,-0.01 0,-0.01 0,0 0,0 0,0.01 0,0 0,0 0,0 0,0 0,0 0,0zm-0.01 -0.02c0,0 0,0 -0.01,0 0,0 0,0 0,0 0,0.01 0,0.01 0,0.01 0.01,0 0.01,0 0.01,-0.01zm0.03 -0.01c0.01,0 0.01,-0.01 0.01,-0.01 0,-0.01 -0.01,-0.01 -0.01,0 -0.02,0.02 -0.01,0.02 0,0.01l0 0zm-0.04 0c0,0 0,0 0,0 0,0 0,0 0,0 0,0 0,0.01 0,0.01 0,0 0,-0.01 0,-0.01zm0.53 -0.01c0,-0.01 0,-0.01 -0.02,-0.02 -0.01,0 -0.02,-0.01 -0.02,-0.01 -0.01,0 -0.01,-0.01 -0.01,0 -0.01,0 -0.02,-0.02 -0.02,-0.03 0,-0.02 -0.01,-0.03 -0.03,-0.03 -0.01,0 -0.03,0 -0.04,0 -0.01,0 -0.02,0 -0.02,0 -0.02,0.01 -0.01,0.02 0.02,0.02 0.02,-0.01 0.02,-0.01 0.04,0.02 0.02,0.01 0.03,0.02 0.04,0.02 0.01,0.01 0.02,0.02 0.04,0.03 0.02,0.01 0.02,0.01 0.02,0l0 0zm-0.52 -0.01c0,0 0,0 -0.01,0 0,0 0,0 0,0 0,0.01 0,0.01 0,0.01 0,0 0.01,0 0.01,-0.01zm0.03 -0.03c0,0 -0.01,0 -0.01,0 -0.01,0 -0.01,0 -0.01,0.01 0,0.01 0,0.01 0.01,0 0,0 0.01,0 0.01,-0.01zm0.03 0.01c0,-0.02 -0.02,-0.02 -0.02,-0.01 0,0.01 0.01,0.01 0.01,0.01 0.01,0 0.01,0 0.01,0l0 0zm3.01 -0.01c0,-0.01 0.01,-0.01 0.01,-0.01 0.01,-0.01 0.01,-0.04 0,-0.05 -0.01,0 -0.01,-0.01 -0.01,-0.02 0,-0.01 0,-0.01 -0.01,-0.01 -0.01,0.01 -0.01,0.01 0,-0.01 0,-0.02 0,-0.03 -0.01,-0.04 -0.01,0 -0.01,-0.01 -0.01,-0.02 -0.01,0 -0.01,-0.01 -0.01,-0.01 -0.01,0 -0.01,-0.01 -0.01,-0.02 0,-0.01 -0.02,-0.01 -0.02,0 0,0.01 0.02,0.04 0.03,0.04 0.01,0.01 0.02,0.03 0.01,0.04 -0.01,0.01 -0.01,0.02 0,0.03 0.01,0 0.01,0 0.01,0.01 0,0 0.01,0.01 0.01,0.01 0.02,0 0.02,0.02 -0.01,0.05 0,0.01 0,0.02 0.01,0.02 0,0 0.01,-0.01 0.01,-0.01l0 0zm-3.03 0c0,0 0,0 0,0 0,0 0,0 0,0 0,0 0,0 0,0 0,0 0,0 0,0zm-0.52 -0.03c0,0 0,0 -0.01,-0.01 0,-0.01 -0.01,0 -0.01,0.02 0,0.01 0.02,0 0.02,-0.01l0 0zm0.63 0c0,0 0.01,0 0.02,0 0.02,-0.01 0.01,-0.01 -0.02,-0.02 -0.02,-0.01 -0.03,-0.01 -0.03,-0.01 0,0.01 0,0.01 0.01,0.01 0.01,0.01 0.02,0.02 0,0.02 0,0 0,0.01 0,0.01 0,0 0,0 0.02,-0.01zm0.07 -0.01c0.01,-0.01 0.01,-0.01 0,-0.01 -0.01,0 -0.02,0 -0.03,0.01 0,0 0.02,0 0.03,0l0 0zm0.1 0c0,-0.01 0,-0.01 0,-0.01 -0.01,0.01 -0.01,0.01 0,0.01 0,0 0,0 0,0l0 0zm0.14 -0.01c0,-0.01 0,-0.01 -0.01,-0.01 0,0 0.01,0.01 0.01,0.01 0,0 0,0 0,0l0 0zm2.58 0c0,0 0,0 0,0 0,0 0,0 0,0 0,0 0,0 0,0 0,0 0,0 0,0zm-2.85 -0.01c-0.01,-0.01 -0.03,-0.01 -0.02,0 0,0 0.01,0.01 0.02,0 0,0 0,0 0,0l0 0zm-0.67 -0.01c0,-0.01 0.01,-0.01 0.02,-0.01 0.02,0 0.04,-0.05 0.02,-0.07 0,0 -0.01,-0.01 -0.01,-0.01 0,0.01 0,0.01 0,0.01 0.01,0.01 0.01,0.02 -0.01,0.04 -0.01,0.01 -0.03,0.04 -0.03,0.05 0,0 0,0 0.01,0 0,0 0,-0.01 0,-0.01l0 0zm3.49 -0.07c0,0 -0.01,0 -0.01,-0.01 -0.01,0 -0.02,0 -0.02,-0.02 0,-0.02 0,-0.03 -0.01,-0.02 -0.01,0 0,0.03 0.01,0.04 0,0 0,0.01 0,0.01 0,0.01 0.01,0.01 0.02,0.01 0.01,0 0.01,0 0.01,-0.01l0 0zm-3.42 -0.02c0,-0.01 -0.01,-0.03 -0.01,-0.02 -0.01,0 -0.01,0.02 0,0.02 0,0.01 0.01,0.01 0.01,0l0 0zm0.06 -0.05c0,-0.01 0,-0.01 0,0 0,0 0,0.01 0,0.01 0,0 0,0 0,0 -0.01,0 -0.01,0 0,0 0,0 0,0 0,-0.01l0 0zm-0.03 -0.02c0.01,-0.01 0.02,-0.02 0.02,-0.02 0.01,0 0.01,0 0.01,0 0,0 0,0 0,0 -0.01,0 -0.01,0 -0.01,0 0.01,-0.01 0.02,-0.01 0.03,-0.01 0.01,0 0.02,0 0.02,0 0.01,0 0.01,-0.01 0.01,-0.01 0,-0.01 0,-0.01 -0.01,-0.01 -0.02,0.01 -0.03,0.01 -0.04,0 -0.02,0 -0.03,0.01 -0.02,0.02 0,0 -0.01,0.01 -0.02,0.02 -0.02,0.02 -0.02,0.02 -0.01,0.03 0,0.01 0.01,0.01 0.02,-0.02l0 0zm3.36 0.01c0,0 0,0 0,0 -0.01,0 -0.01,0 -0.01,0 0,0.01 0,0.01 0.01,0.01 0,0 0,0 0,-0.01zm-0.05 -0.06c0,0 0,0 -0.01,0 0,0 0,0.01 0.01,0.02 0,0 0.01,-0.01 0,-0.02zm-0.01 0c0,-0.01 0,-0.01 0.01,-0.01 0.01,-0.01 0,-0.02 -0.02,-0.01 -0.01,0 -0.02,0.01 -0.01,0.02 0,0 0.02,0 0.02,0zm0.02 -0.01c0,0 0,0 0,0 0,0 0,0 0,0 0,0.01 0,0.01 0,0.01 0,0 0,0 0,-0.01zm-3.22 0c0,0 0,-0.01 0,-0.02 0,-0.01 0.01,-0.02 0.01,-0.03 0.01,0 0.01,0 0,-0.01 -0.01,-0.02 -0.03,0 -0.02,0.02 0,0.01 0,0.01 0,0.02 -0.01,0.01 -0.01,0.02 0,0.02 0.01,0 0.01,0 0.01,0l0 0zm-0.04 -0.01c0.01,-0.01 0.01,-0.02 0,-0.02 0,-0.01 -0.02,0.02 -0.02,0.02 0,0.01 0.01,0 0.02,0l0 0zm3.23 -0.02c0,0 -0.01,-0.01 -0.01,-0.01 0,0 0,0 0,0 0,0.01 0.01,0.01 0.01,0.01l0 0zm-3.12 -0.02c0,0 -0.01,0 -0.01,0 -0.01,0 -0.01,0 -0.01,0 0,0.01 0,0.01 0.01,0.01 0,0 0.01,0 0.01,-0.01zm-0.02 -0.03c0.02,-0.01 0.02,-0.02 0,-0.02 0,0 -0.03,0.03 -0.03,0.03 0,0.01 0.02,0 0.03,-0.01l0 0zm3.08 0c0.01,0 0,-0.01 -0.01,-0.01 0,0 -0.01,0.01 -0.01,0.01 0,0.01 0.01,0.01 0.02,0l0 0zm-3.02 -0.03c0.01,-0.01 0,-0.01 -0.01,-0.01 -0.02,0 -0.02,0.01 -0.01,0.01 0,0.01 0.02,0.01 0.02,0l0 0zm2.97 0c0,-0.01 -0.02,-0.02 -0.03,-0.02 0,0.01 0.02,0.03 0.03,0.03 0,0 0,-0.01 0,-0.01l0 0zm-0.08 0c0,0 0,-0.01 -0.01,-0.01 0,0 -0.01,0.01 -0.01,0.01 0,0 0.01,0 0.01,0 0,0 0.01,0 0.01,0zm0.04 -0.02c0.01,-0.01 0.01,-0.01 0,-0.01 -0.01,-0.01 -0.04,0.01 -0.03,0.02 0,0 0.01,0 0.03,-0.01zm-2.88 0c0.01,0 0.02,-0.01 0.03,-0.03 0,0 0,-0.01 0.01,-0.01 0,0 0,-0.01 0,-0.01 -0.01,0 -0.01,0 -0.02,0 0,0.01 0,0.01 -0.01,0.01 0,0 0,0 -0.01,0.01 0,0.01 -0.03,0.02 -0.04,0.02 0,-0.01 -0.02,-0.01 -0.02,0 0,0 0.02,0.02 0.04,0.02 0,0 0.01,0 0.02,-0.01l0 0zm0.13 -0.05c0.01,0 0.01,-0.01 -0.01,-0.01 -0.01,0 -0.01,0.01 0,0.02 0,0 0,0 0.01,-0.01zm2.62 0c0,0 0,0 -0.01,0 0,0 -0.02,-0.01 -0.03,-0.01 -0.03,-0.01 -0.06,-0.01 -0.06,-0.01 0,0.01 0.01,0.01 0.02,0.01 0.01,0 0.02,0 0.03,0.01 0.03,0.01 0.05,0.01 0.05,0zm0.06 0c0,0 -0.01,0 -0.03,-0.01 -0.02,0 -0.02,0 -0.01,0.01 0,0.01 0.04,0.01 0.04,0zm-2.72 0c0,-0.01 0,-0.01 -0.02,-0.01 -0.01,0 -0.01,0 0,0.01 0.01,0.01 0.01,0.01 0.02,0l0 0zm0.15 0c0,0 0,0 -0.01,0 0,0 -0.01,0 -0.01,0 0,0 0,0 0.01,0 0.01,0 0.01,0 0.01,0zm0.08 0c0,-0.01 -0.03,-0.01 -0.05,-0.01 -0.01,0.01 0,0.01 0.03,0.01 0.01,0 0.02,0 0.02,0zm-0.08 -0.02c0,0 -0.01,-0.01 -0.02,-0.01 -0.02,0 -0.06,0.01 -0.05,0.01 0.01,0.01 0.07,0 0.07,0zm2.39 0c0.02,-0.01 0,-0.02 -0.05,-0.01 -0.01,0.01 -0.01,0.01 0,0.01 0.02,0 0.03,0 0.05,0zm-2.35 -0.01c0,0 0,-0.01 0,-0.01 0,0 -0.01,0 -0.01,0 -0.02,0 -0.02,0 -0.01,0.01 0,0 0,0 0.01,0 0,0 0,0 0.01,0zm0.03 -0.01c0,0 0,0 0,0 0,0 -0.01,0 -0.01,0 0,0 0.01,0 0.01,0 0,0 0,0 0,0zm-0.07 -0.01c0,0 0,0 -0.01,0 0,0 0,0 0,0 0,0.01 0,0.01 0.01,0.01 0,0 0,0 0,-0.01zm0.06 0c0,0 -0.01,0 -0.01,0 0,0 0,0 0.01,0 0,0 0,0 0,0l0 0zm0.05 3.67c0,0 0.01,0 0.01,0 0,0 0,0 0,0 -0.01,0 -0.01,0 -0.01,0zm2.42 -0.05c0,0 0.03,-0.01 0.04,-0.01 0,0 0,0 -0.02,0.01 -0.02,0.01 -0.02,0.01 -0.02,0l0 0zm0.49 -2.86c0,0 0,-0.01 0,0 0,0 0,0 0,0.01 0,0 0,0 0,-0.01z"/>
 <path fill="#2665AE" d="M2.96 3.77c-0.01,-0.01 -0.01,-0.01 0.03,-0.01 0.03,0.01 0.04,0.01 0.04,0.01 0,0.01 -0.06,0.01 -0.07,0l0 0zm0.13 0c0,0 -0.01,-0.01 -0.02,-0.01 -0.04,0 -0.06,-0.01 -0.02,-0.02 0.03,0 0.04,0 0.04,0.02 0,0 0,0 0,0 0.01,0 0.01,0.01 0.01,0.01 0,0 0,0 0,0 -0.01,0 -0.01,0 -0.01,0l0 0zm0.02 0c0,0 0.01,0 0.01,0 0,0 0,0 -0.01,0 0,0 0,0 0,0l0 0zm0.04 0c0,0 0,0 0,0 0.01,0 0,0 0,0 0,0 0,0 0,0l0 0zm-2.46 -0.01c-0.01,-0.01 -0.01,-0.02 0.01,-0.02 0.02,0 0.02,0 0.02,0.01 0,0.01 -0.01,0.02 -0.03,0.01zm0.11 0c0,0 0.01,0 0.01,0 0.01,0 0.02,0 0.02,0 0,-0.01 -0.02,-0.01 -0.04,-0.01 0,0 0,0 0,0 0,-0.01 0.02,-0.01 0.05,-0.01 0.04,0 0.06,0 0.06,0.01 0,0.01 -0.02,0.01 -0.04,0 -0.01,0 -0.02,0 -0.02,0 0,0 0,0 0,0 0.01,0 0.01,0.01 0.01,0.01 -0.01,0 -0.05,0 -0.05,0zm0.19 0c0,-0.01 0,-0.01 -0.01,-0.01 0,0 0,0 0,0 0,-0.01 1.98,-0.01 1.98,0 0,0 -0.01,0 -0.03,0 -0.02,0 -0.04,0 -0.03,0.01 0,0 -0.32,0 -0.96,0 -0.76,0 -0.95,0 -0.95,0zm2.18 0c-0.01,-0.01 0,-0.02 0.03,-0.02 0.03,0 0.03,0 0.03,0.01 0,0.01 -0.05,0.01 -0.06,0.01zm0.12 -0.03c0,0 0,0 0,0 0.01,0.01 0,0.01 0,0.01 0,0 0,0 0,-0.01l0 0zm-2.69 0c0,0 0,0 0.01,0 0,0 0,0 0,0 0,0 0,0 0,0 -0.01,0 -0.01,0 -0.01,0zm2.67 0c0,-0.01 0.01,-0.02 0.01,-0.01 0.01,0 0.01,0.01 0.02,0.01 0.01,0 0,0 -0.01,0 -0.01,0 -0.02,0 -0.02,0l0 0zm0.04 0c0,0 0,0 0,0 0.01,0 0.01,0 0.01,0 0,0 0,0 -0.01,0 0,0 0,0 0,0zm-0.06 -0.01c0,0 0.01,-0.01 0.01,-0.01 0.01,0 0.01,0 0.01,0.01 0,0 0,0 -0.01,0.01 -0.01,0 -0.01,0 -0.01,-0.01zm-2.68 0c0,0 0,0 0,0 0.01,0 0.01,0 0.01,0 0.01,0.01 0,0.01 -0.01,0zm-0.03 -0.01c-0.02,-0.01 -0.01,-0.01 0.01,-0.01 0.02,0 0.02,0 0.01,0.01 0,0 0,0 -0.02,0zm0.11 -0.01c0,0 0,0 0,0 0.01,0 0.01,0 0.01,0 0,0.01 0,0.01 0,0.01 0,0 -0.01,0 -0.01,-0.01zm2.72 0c0,-0.01 0.01,-0.02 0.01,-0.02 0,0 0,-0.01 0.02,-0.01 0.01,0 0.01,0.01 0.01,0.01 0,0 0,0 0,0.01 0,0 0,0 -0.01,0.01 -0.01,0 -0.01,0 -0.01,0 0.01,-0.01 0,-0.01 -0.01,0 -0.02,0.01 -0.03,0.01 -0.01,0zm-0.09 0c0,-0.01 0,-0.01 0.01,-0.01 0,0 0,0 0,0.01 0,0 0,0 0,0 -0.01,0 -0.01,0 -0.01,0zm0.03 0c0,0 0,0 0.01,0 0,0 0,0 0,0 0,0 0,0 0,0 0,0 0,0 -0.01,0zm-2.68 0c0,0 0,0 0,0 0,0 0,0 0,0 0,0 0,0 0,0 0,0 0,0 0,0zm-0.11 -0.01c-0.01,-0.01 -0.01,-0.01 0,-0.01 0.01,0 0.01,0 0.01,0.01 0,0.01 0,0.01 -0.01,0l0 0zm0.06 -0.01c0,0 0,-0.01 0.02,-0.01 0.02,0 0.03,0.01 0.01,0.02 -0.02,0.01 -0.03,0.01 -0.03,-0.01zm0.01 0c0,0 0,0 0,0 0,0 0,0 0,0 0,0.01 0,0.01 0,0.01 0,0 0,0 0,-0.01zm2.75 0.01c-0.01,-0.01 -0.01,-0.01 0,-0.01 0.01,-0.01 0.02,0 0.01,0.01 0,0 0,0 -0.01,0l0 0zm-2.86 -0.03c-0.02,-0.01 -0.03,-0.01 -0.03,-0.01 0,0.01 -0.01,0 -0.02,0 -0.02,-0.01 -0.02,-0.02 -0.01,-0.02 0,-0.01 0.01,-0.01 0.01,-0.02 0,0 0.01,0 0.01,0 0.02,0 0.01,0.01 0,0.02 0,0 -0.01,0 -0.01,0.01 0,0.01 0.02,0.01 0.02,0 0.01,-0.01 0.04,-0.01 0.05,0 0.01,0.02 0,0.03 -0.02,0.02l0 0zm2.98 -0.01c0,0 0,0 0.01,0 0,0 0,0 0,0 0,0.01 0,0.01 -0.01,0zm-0.03 0c-0.01,0 -0.01,-0.01 -0.01,-0.01 0,-0.01 0.02,-0.02 0.04,-0.01 0.01,0 0.01,0 0,0 -0.01,0 -0.01,0 -0.01,0.01 0,0 -0.01,0.02 -0.02,0.01 0,0 0,0 0,0zm-2.92 -0.02c-0.02,-0.01 -0.02,-0.02 0,-0.02 0.01,0 0.01,0 0.01,0.02 0,0 0,0.01 0,0.01 0,0 0,0 -0.01,-0.01zm2.96 -0.01c0,0 -0.01,-0.01 -0.01,-0.01 0,0 -0.01,0 -0.01,0 0,0 0.01,0 0.02,0 0.01,0 0.01,0 0.01,0.01 0,0.01 -0.01,0.01 -0.01,0zm0.02 0.01c0,-0.01 0.01,-0.01 0.01,-0.01 0,0 0,0 0,0.01 0,0 0,0 0,0 0,0 -0.01,0 -0.01,0zm0.02 -0.02c0,-0.01 -0.01,-0.01 -0.01,-0.01 -0.01,0 -0.01,0 -0.01,-0.01 0,-0.01 0,-0.01 0.01,0 0,0 0,0 0,0 0.01,-0.01 0.03,0 0.03,0.01 0,0.01 0,0.02 -0.02,0.01zm0.01 0c0,0 0,0 0,0 0,0 0,0 0,0 0,0 0,0 0,0 0,0 0,0 0,0zm-3.16 -0.02c0,-0.01 0.01,-0.01 0.01,-0.01 0.01,0 0.02,-0.01 0.01,-0.01 0,0 0,-0.01 0.01,-0.01 0.01,0 0,0.03 -0.01,0.03 -0.01,0.01 -0.02,0 -0.02,0zm3.19 -0.01c-0.01,-0.01 0.04,-0.05 0.05,-0.04 0,0 0,0.01 -0.01,0.01 0,0 -0.03,0.02 -0.03,0.03 0,0.01 0,0.01 -0.01,0l0 0zm-3.19 -0.01c0,0 0,0 0,0 0,0 0.01,0 0.01,0 0,0 -0.01,0 -0.01,0 0,0 0,0 0,0zm-0.02 -0.02c0,-0.01 0.01,-0.01 0.01,-0.01 0.01,0 0.01,0 0.01,0 -0.01,0 -0.01,0.01 -0.01,0.01 0,0.01 -0.01,0.02 -0.01,0.02 -0.01,0 -0.01,-0.01 0,-0.02zm3.18 0.01c-0.02,-0.02 -0.02,-0.02 0.01,-0.02 0.02,0 0.02,0 0.01,0 -0.01,0 -0.01,0.01 -0.01,0.02 0,0.01 0,0.01 -0.01,0zm-3.2 -0.01c0,0 0,0 0,0 0,-0.01 0,-0.01 -0.01,-0.01 0,0 -0.01,-0.02 -0.01,-0.03 0.01,-0.01 0.02,0 0.02,0.01 0,0.01 0,0.02 0.01,0.03 0,0 -0.01,0.01 -0.01,0.01 0,0 0,-0.01 0,-0.01l0 0zm3.23 -0.04c0,-0.02 0.01,-0.02 0.02,-0.01 0.01,0.01 0.01,0.01 0,0.01 -0.01,0 -0.01,0.01 -0.01,0.02 0,0 -0.01,0 -0.01,-0.02zm0.06 0.01c-0.01,0 -0.02,-0.03 -0.01,-0.03 0,0 0,-0.01 0,-0.01 -0.01,-0.01 0,-0.01 0.01,-0.01 0,0 0.01,0 0.01,0.01 0,0.02 0,0.03 0.01,0.03 0,0 -0.01,0.01 -0.02,0.01l0 0zm-3.33 -0.01c0,-0.03 0,-0.04 0.01,-0.04 0.02,0 0.01,0.04 0,0.04 -0.01,0 -0.01,0 -0.01,0zm3.36 -0.03c0,0 0,0 0,0 0,0 0,0 0,0 0,0 0,0 0,0 0,0 0,0 0,0zm-0.01 -0.01c-0.01,0 -0.01,-0.03 0,-0.03 0,0 0,0 0,0 0,0.02 0,0.02 0.01,0.01 0,0 0,-0.01 0,-0.02 0,-0.03 0.02,-0.04 0.02,-0.02 0,0.02 0,0.03 -0.01,0.03 0,0 0,0 0,0.01 0,0.02 -0.01,0.02 -0.02,0.02l0 0zm-3.37 -0.02c-0.01,0 -0.02,-0.03 -0.01,-0.03 0,0 0.01,0.01 0.01,0.01 0,0.01 0,0.01 0.01,0.01 0.01,0 0.01,0 0.01,0.01 0,0.01 0,0.01 -0.02,0zm-0.04 -0.03c0,0 0,0 0,0 0,0 0.01,-0.01 0.01,-0.01 0,-0.01 0,-0.01 0,0 0.01,0.01 0.01,0.01 0,0.02 0,0 0,0 -0.01,-0.01zm3.47 -0.01c0,0 0,0 0,0 0,0 0,0 0,0 0,0.01 0,0 0,0l0 0zm-3.48 -0.02c0,-0.01 0,-0.02 0,-0.02 0.01,-0.01 0.01,-0.01 0.01,0 0,0.01 0,0.01 0,0.02 0,0 0,0 0,0 -0.01,0 -0.01,0 -0.01,0l0 0zm0.04 -0.01c0,-0.01 -0.01,-0.01 -0.01,-0.01 -0.01,-0.01 -0.01,-0.03 0,-0.03 0.01,0 0.01,0 0.01,0.02 0,0.02 0,0.03 0,0.03 0,0 0,0 0,-0.01l0 0zm3.44 -0.02c0,-0.05 0.01,-0.08 0.02,-0.06 0.01,0.01 0.01,0.02 -0.01,0.03 -0.01,0.01 -0.01,0.01 0,0.02 0.02,0.01 0.02,0.01 0.01,0.03 -0.02,0.01 -0.02,0.01 -0.02,-0.02l0 0zm0.02 0.02c0,0 0,0 0,0 0,0 0,0 0,0 0,0 0,0 0,0 0,0 0,0 0,0zm-3.52 -0.03c0,0 -0.01,-0.01 -0.01,-0.01 0,0 0,-0.01 0,-0.01 0,0 0,-0.01 0,-0.02 0.01,-0.01 0.01,-0.01 0.01,0.01 0,0.01 0,0.02 0.01,0.02 0.01,0 0.02,0 0.01,0 0,0 -0.01,0 -0.01,0.01 0,0.01 0,0.02 -0.01,0zm3.55 -0.06c0,0 0,-0.01 0,-0.01 0,-0.01 0,-0.01 -0.01,-0.01 0,-0.01 0,-0.01 0.01,-0.02 0.01,-0.01 0.02,-0.01 0.02,0 0,0.01 0,0.02 -0.01,0.02 0,-0.01 0,0 0,0.01 0,0.01 0,0.03 -0.01,0.01l0 0zm0.01 -0.01c0,0 -0.01,0 -0.01,0.01 0,0 0.01,0 0.01,0 0,0 0,0 0,-0.01l0 0zm-3.59 0c-0.01,-0.01 -0.01,-0.06 -0.01,-0.06 0.01,0 0.02,0.04 0.02,0.06 -0.01,0.01 -0.01,0.01 -0.01,0zm0.48 0.01c0,-0.01 0,-0.01 0,-0.01 0.01,-0.01 0.01,0 0.01,0 0,0 0.01,0.01 0.01,0 0,0 0,0 0,-0.01 -0.01,0 0,0 0.01,0 0.02,0 0.03,0 0.04,0.01 0.01,0.01 0.02,0.01 0.13,0.01 0.06,0 0.16,0 0.2,0 0.07,0 0.03,0 -0.15,0 -0.21,0 -0.25,0 -0.25,0zm0.5 0c0.01,0 0.02,0 0.03,0 0.01,0 0,0 -0.02,0 -0.01,0 -0.02,0 -0.01,0zm0.38 0c0,0 0,-0.02 0,-0.02 0.01,0 0.01,0 0.01,0.01 0,0.01 0.02,0.01 0.02,0 0,0 0.01,0 0.01,0 0,0 0.01,0 0.01,0 0.01,-0.01 0.01,-0.01 0.01,0 0,0.01 0.47,0.01 0.49,0.01 0.03,-0.01 -0.01,-0.02 -0.1,-0.02 -0.1,0.01 -0.1,0.01 0,0 0.05,0 0.1,0 0.1,-0.01 0,0 0.01,0 0.02,0 0,0 0.01,0 0,0 0,-0.01 0,-0.01 0,-0.01 0,-0.01 0.02,-0.02 0.02,-0.02 0.01,0.01 0.02,-0.01 0.01,-0.01 0,-0.01 0,-0.04 0,-0.07 0,-0.05 0,-0.07 0,-0.07 -0.01,0.01 -0.01,0.03 -0.01,0.07 0,0.03 0,-0.12 0,-0.33 0,-0.38 0,-0.49 0.01,-0.49 0,0 0,0.17 0,0.37 0,0.21 0,0.38 0,0.38 0.02,0 0.02,-0.02 0.02,-0.38 0,-0.32 0,-0.37 0.01,-0.37 0.01,0 0.01,0.75 -0.01,0.75 0,0 0,0.01 0,0.07 0,0.08 -0.01,0.1 -0.04,0.11 -0.02,0.01 -0.02,0.01 -0.02,0.02 0,0.01 -0.55,0.02 -0.56,0.01l0 0zm1.33 0c0.05,0 0.16,0 0.24,0 0.13,0 0.13,0 -0.1,0 -0.2,0 -0.23,0 -0.14,0l0 0zm0.41 0c0.01,-0.01 0.01,-0.01 -0.01,-0.02 -0.01,0 -0.02,-0.01 -0.03,-0.01 -0.01,0 0,-0.01 0.02,-0.01 0.01,0 0.01,0 0.01,0 0,0.01 0.02,0.01 0.03,0.01 0.01,0 0.01,0 0.01,0.02 0,0.01 0,0.01 -0.02,0.01 -0.02,0 -0.02,0 -0.01,0l0 0zm-0.56 -0.01c0,-0.02 -0.01,-0.02 -0.02,-0.01 0,0.01 -0.01,0 -0.01,-0.03 0,-0.03 0,-0.03 0.01,-0.03 0.01,0 0.01,0 0,0 -0.01,0.01 0,0.02 0.01,0.03 0,0 0.01,0 0.01,0 0,0.01 0,0.01 0.01,0.02 0,0 0,0 0,0.01 0,0 0.01,0.01 0.01,0.01 0.01,0 0.01,0 0.01,0 0.01,0.02 -0.02,0.01 -0.03,0l0 0zm1.02 0c0,0 0,0 -0.01,0 0,0 -0.01,-0.01 -0.01,-0.01 0,-0.01 0.02,0 0.02,0 0,0.01 0,0.01 0,0.01 0,0 0,0 0,0zm-2.97 -0.01c0.02,0 0.05,0 0.07,0 0.02,0 0,0 -0.03,0 -0.04,0 -0.05,0 -0.04,0l0 0zm0.27 0c0.02,0 0.05,0 0.07,0 0.02,0 0,0 -0.04,0 -0.03,0 -0.05,0 -0.03,0l0 0zm0.12 0c0.01,0 0.01,-0.01 0.02,-0.01 0,0 0,0.01 0.01,0.01 0.01,0 0.01,0.01 -0.01,0.01 -0.02,0 -0.02,-0.01 -0.02,-0.01zm0.51 0c0.03,0 0.08,0 0.11,0 0.02,0 0,0 -0.06,0 -0.05,0 -0.08,0 -0.05,0l0 0zm1.19 0c0.01,0 0.02,0 0.03,0 0.01,0 0,0 -0.02,0 -0.02,0 -0.02,0 -0.01,0zm0.18 0c0,0 0.05,0 0.11,0 0.05,0 0.08,0 0.06,0 -0.04,0 -0.17,0.01 -0.17,0zm-1.43 0c0,0 0.01,0 0.01,0 0,0 0,0 0,0 0,0 0,0 0,0 0,0 -0.01,0 -0.01,0zm1.71 -0.01c0,-0.01 0,-0.01 -0.01,-0.01 0,0 0,-0.01 -0.01,-0.01 0,-0.01 0,-0.01 0.01,-0.01 0.01,0 0.02,0.04 0.01,0.04 0,0 0,-0.01 0,-0.01l0 0zm-2.66 -0.01c0,-0.02 0.01,-0.02 0.02,-0.02 0,0 0.03,0.01 0.07,0.01 0.07,0 0.07,0 0,0 -0.05,0 -0.06,0 -0.06,0.01 0,0 0,0 -0.02,0.01 -0.01,0 -0.01,0 -0.01,-0.01l0 0zm0.07 0c0,0 0,0 0,0 0,0 0,0.01 0,0.01 0,0 0,0 0,-0.01l0 0zm0.44 0c-0.01,0 -0.01,0 -0.01,0 0.01,0 0,-0.01 0,-0.01 -0.01,0 -0.01,0 0.01,0 0.01,0 0.02,0 0.02,0 -0.01,0 -0.01,0.01 0,0.01 0,0 0,0 0,0 -0.01,0.01 -0.01,0.01 -0.02,0l0 0zm0.42 0c0.01,0 0.02,0 0.01,0 0,0.01 0,0.01 -0.01,0.01 0,0 0,0 0,-0.01zm-0.85 0c0,0 0.01,0 0.03,0 0.02,0 0.03,0 0.03,0 0.01,0 -0.01,0 -0.03,0 -0.02,0 -0.03,0 -0.03,0zm0.08 0c0.01,0 0.31,0 0.31,0 0,0 -0.06,0 -0.15,0 -0.09,0 -0.16,0 -0.16,0l0 0zm0.4 0c0,-0.01 -0.01,-0.01 -0.01,-0.01 0,-0.01 0,-0.01 0,-0.01 0.02,0 0.02,0.01 0.02,-0.88 0,-0.49 0,-0.77 0,-0.65 0.01,0.2 0,1.49 0,1.52 0,0.01 0,0.01 0.01,0.01 0.02,0 0.02,0 0.01,0.02 -0.01,0.01 -0.03,0.01 -0.03,0l0 0zm0.41 0c0,0 0.1,0 0.23,0 0.12,0 0.21,0 0.19,0 -0.05,0 -0.42,0.01 -0.42,0l0 0zm1.13 0c0,0 0,0 0,0 0,0 0,-0.01 0,-0.01 -0.01,0 0.01,0 0.05,0 0.07,0 0.07,0 0.02,0 -0.1,0.01 0.13,0.01 0.27,0.01 0.08,0 0.11,0 0.1,0 -0.04,0.01 -0.44,0 -0.44,0l0 0zm-2.56 -0.02c-0.01,-0.01 -0.01,-0.02 0,-0.02 0,-0.01 0,-0.01 0,0.02 0,0.03 0,0.03 0,0l0 0zm3.03 0.02c0,0 0.01,0 0.01,0 0,0 0,0 0,0 0,0 0,0 0,0 0,0 -0.01,0 -0.01,0zm0.52 -0.01c0,0 0,0 0,0 0,0 0,0.01 0,0.01 0,0 0,0 0,-0.01l0 0zm-2.2 0c-0.01,0 -0.01,-0.04 -0.01,-0.87 0,-0.5 0,-0.86 0,-0.86 0.01,0.01 0.01,0.01 0.01,0 0,0 0,0.37 0,0.84 0,0.47 0,0.84 0,0.82 -0.01,-0.04 -0.01,-0.04 -0.01,0 0,0.05 0.02,0.07 0.05,0.07 0.01,0 0.02,0 0.02,0 -0.01,0 -0.06,0 -0.06,0l0 0zm0 -0.37c0,-0.04 -0.01,-0.01 -0.01,0.07 0,0.08 0.01,0.12 0.01,0.08 0,-0.04 0,-0.11 0,-0.15zm0 -1.16c0,-0.04 -0.01,0 -0.01,0.08 0,0.07 0.01,0.11 0.01,0.07 0,-0.04 0,-0.1 0,-0.15zm-0.65 1.53c0.02,0 0.06,0 0.08,0 0.02,0 0,0 -0.04,0 -0.04,0 -0.06,0 -0.04,0zm0.15 0c0,0 0.01,0 0.01,0 0.01,0 0,0 -0.01,0 -0.01,0 -0.01,0 0,0zm0.03 0c0,0 0.01,0 0.02,0 0,0 0,0 -0.01,0 -0.01,0 -0.02,0 -0.01,0zm0.04 0c0,0 0.01,0 0.01,0 0.01,0 0,0 0,0 -0.01,0 -0.02,0 -0.01,0zm0.53 0c0.01,0 0.04,0 0.05,0 0.02,0 0,0 -0.03,0 -0.02,0 -0.04,0 -0.02,0zm0.18 0c0.01,0 0.03,0 0.04,0 0.01,0 0,0 -0.02,0 -0.02,0 -0.03,0 -0.02,0zm0.1 0c0,0 0.01,0 0.01,0 0,0 0,0 -0.01,0 -0.01,0 -0.01,0 0,0zm0.04 0c0,0 0.01,0 0.02,0 0,0 0,0 -0.01,0 -0.01,0 -0.02,0 -0.01,0l0 0zm0.07 0c0.01,0 0.02,0 0.03,0 0.01,0 0,0 -0.01,0 -0.02,0 -0.03,0 -0.02,0zm0.9 0c0.02,0 0.06,0 0.08,0 0.01,0 0,0 -0.04,0 -0.04,0 -0.06,0 -0.04,0zm0.2 0c0.02,0 0.05,0 0.07,0 0.02,0 0,0 -0.03,0 -0.04,0 -0.06,0 -0.04,0zm-1.87 -0.03c0,-0.01 0,-0.01 0.01,0.01 0,0 0,0 -0.01,0 0,0 0,0 0,-0.01zm1.44 0.01c0,0 -0.01,-0.08 -0.01,-0.1 0,0 0,0 0,0.01 0.01,0.01 0.01,-0.17 0.01,-0.39 0,-0.25 0,-0.41 -0.01,-0.41 0,0 -0.01,-0.09 -0.01,-0.1 0.02,-0.04 0.02,-0.01 0.02,0.5 0.01,0.52 0.01,0.5 0,0.49l0 0zm-2.12 -0.14c0,-0.15 0,-0.15 0.02,-0.15 0.02,0 0.02,0 0.02,-0.63 0,-0.64 0,-0.64 -0.02,-0.64 -0.02,0 -0.02,0 -0.02,-0.08 0,-0.07 0,-0.07 0.02,-0.07 0.02,0 0.02,0 0.02,-0.02 0,-0.01 0,-0.01 0,-0.01 0,0 0.01,0 0.01,0 0,-0.01 0,-0.01 0.01,0 0,0 0,0.01 -0.01,0.02 -0.01,0.01 -0.01,0.01 0,0.01 0,0.01 0.01,0.01 0.01,0 0,0 0,0.03 0,0.07 0,0.04 0,0.07 0,0.07 0.01,0.01 0.01,-0.01 0.01,-0.07 0,-0.05 0,-0.09 0,-0.09 0,0 0,1.72 0,1.72 0,0.01 -0.01,0.01 -0.04,0.01 -0.03,0 -0.03,0 -0.03,-0.14l0 0zm0.07 0c0,-0.11 0,-0.14 -0.01,-0.14 -0.01,0.01 0,0.27 0,0.27 0.01,0 0.01,-0.06 0.01,-0.13l0 0zm-0.05 0c0,-0.04 0,-0.06 0,-0.06 -0.01,0 -0.01,0.02 -0.01,0.06 0,0.03 0,0.05 0.01,0.05 0,0 0,-0.02 0,-0.05zm0.05 -0.78c0,-0.35 0,-0.64 0,-0.64 -0.01,0 -0.01,0 -0.01,0 -0.01,0 -0.01,0.05 -0.01,0.63 0,0.64 0,0.64 0.01,0.64 0.01,0 0.01,0 0.01,-0.63zm-0.05 -0.72c0,-0.03 0,-0.06 0,-0.06 -0.01,0 -0.01,0.03 -0.01,0.06 0,0.04 0,0.06 0.01,0.06 0,0 0,-0.02 0,-0.06zm2.67 1.64c0,-0.01 0,-0.01 0,-0.01 0,0.01 0,0.01 0,0.01 0,0 0,0 0,0l0 0zm-2.03 -0.17c0,-0.12 0,-0.17 0,-0.18 0.01,-0.01 0.01,-0.32 0,-0.34 0,-0.01 -0.01,-0.28 0,-0.35 0.01,-0.09 0.01,-0.31 0,-0.33 0,0 0,-0.03 0,-0.16 0,-0.1 -0.01,-0.17 -0.01,-0.18 0,-0.02 0,-0.03 0,-0.04 0.01,0 0.01,-0.01 0.01,-0.02 0,-0.01 0,-0.01 0.01,-0.01 0.01,0 0.01,0 0.01,0.01 0,0.02 0,0.02 0.01,0.02 0.01,0 0.01,0.01 0.01,0.04 0,0.03 -0.02,0 -0.02,-0.04 -0.01,-0.1 -0.02,-0.01 -0.01,0.2 0,0.1 0,0.26 0,0.36 0,0.16 0,0.25 0,0.64 0,0.29 0,0.54 -0.01,0.54 0,0.01 0,-0.05 0,-0.16l0 0zm2.53 0.14c0,-0.03 0.01,-0.04 0.01,-0.01 0.01,0.02 0,0.04 -0.01,0.04 0,0 0,-0.01 0,-0.03l0 0zm-3.62 0.02c-0.01,-0.01 -0.01,-0.14 0,-0.14 0,0 0,0.01 0.01,0.03 0,0.02 0,0.02 -0.01,0.05 0,0.01 0,0.01 0,0.01 0.01,0 0.01,0.01 0.01,0.02 0,0.03 0,0.04 -0.01,0.03l0 0zm1.96 -0.01c0,-0.01 0,-0.02 0,-0.01 0,0.01 0,0.01 0,0.02 0,0 0,0 0,-0.01zm1.17 -0.49c0,-0.28 0,-0.49 0,-0.47 0,0.04 0,0.96 0,0.96 0,0 0,-0.22 0,-0.49zm-3.1 0.48c0,-0.01 0,-0.04 0.01,-0.04 0,0 0,0.01 0,0.02 0,0.03 0,0.03 -0.01,0.02zm1.93 -0.06c0,-0.03 0,-0.04 0,-0.03 0,0.02 0,0.04 0,0.05 0,0.02 0,0.01 0,-0.02zm1.68 0.01c0,-0.01 0,-0.01 0.01,-0.01 0,0 0,0.01 0,0.01 -0.01,0 -0.01,0 -0.01,0l0 0zm-3.6 -0.04c0,-0.01 0,-0.02 -0.01,-0.01 0,0.01 0,0.01 0,0 0,-0.01 0,-0.02 0.01,-0.02 0,0 0,0 0,0.02 0,0.02 0,0.03 0,0.01l0 0zm3.6 0c0,-0.01 0.01,-0.02 0.01,-0.01 0,0 0,0.01 0,0.01 -0.01,0 -0.01,0 -0.01,0l0 0zm0 -0.02c0,-0.01 0,-0.01 0,-0.01 0,0.01 0.01,0.01 0.01,0.01 0,0 -0.01,0 -0.01,0l0 0zm-0.02 -0.01c-0.01,-0.01 0,-0.05 0.01,-0.05 0.01,0 0.01,0.04 0,0.04 0,0 0,0 0,0.01 0,0 0,0 0,0 -0.01,0.01 -0.01,0 -0.01,0zm-3.64 -0.02c0,-0.01 0,-0.01 0,-0.01 0.01,0.01 0.01,0.02 0,0.02 0,0 0,0 0,-0.01zm0.02 0.01c0,0 0,0 0,0 0.01,0 0.01,0 0,0 0,0 0,0 0,0l0 0zm-0.02 -0.07c0,-0.02 0,-0.02 0.01,-0.02 0,0 0,0 0,0.02 0,0.02 0,0.03 0,0.03 -0.01,0 -0.01,-0.01 -0.01,-0.03zm1.13 -0.02c0,-0.02 0,-0.04 0,-0.03 0,0 0.01,0.02 0.01,0.03 0,0.02 -0.01,0.04 -0.01,0.04 0,0.01 0,-0.01 0,-0.04zm2.53 0.01c0,-0.03 0.01,-0.05 0.01,-0.03 0.01,0.01 0,0.06 -0.01,0.06 0,0 0,0 0,-0.03zm-0.02 -1.02c0,-0.96 0,-1.01 0.01,-0.99 0.01,0.02 0,1.97 -0.01,1.97 0,0 0,-0.05 0,-0.98zm-2.5 0.71c0,-0.16 0,-0.21 -0.01,-0.21 -0.01,0 -0.01,-0.26 0,-0.26 0.01,0 0.01,-0.34 0,-0.35 0,0 0,-0.05 0,-0.1 0,-0.07 0,-0.11 0,-0.1 0,0 0.01,0.05 0.01,0.1 0,0.09 0,0.1 0,0.1 0.01,0.01 0.01,0.03 0.01,0.18 0,0.14 0,0.16 -0.01,0.17 0,0 0,0.02 0,0.13 0,0.11 0,0.13 0,0.13 0.01,0.01 0.01,0.41 0,0.41 0,0.01 -0.01,-0.01 0,-0.2l0 0zm0.84 -0.37c0,-0.02 0,-0.03 0,-0.03 0.01,0 0.01,0.01 0,0.04 0,0.02 0,0.02 0,-0.01l0 0zm0.03 0.02c-0.01,-0.01 0,-0.02 0,-0.03 0,-0.02 0,-0.02 0,0.01 0,0.02 0,0.03 0,0.02zm-0.02 -0.07c0,0 0,-0.01 0.01,-0.02 0,-0.02 0,-0.05 0,-0.06 -0.01,0 0.01,-0.06 0.01,-0.07 0.01,-0.01 0.01,-0.01 0.01,0 -0.01,0.03 -0.02,0.04 -0.01,0.05 0,0 0,0.01 0,0.03 0,0.01 0,0.02 0.01,0.02 0.01,0 0.01,0.01 0.01,0.02 0,0.02 0,0.02 -0.01,0.01 0,0 -0.02,0 -0.02,0.02 0,0 0,0.01 0,0.01 -0.01,0 -0.01,0 -0.01,-0.01l0 0zm0.56 -0.06c0,0 0,-0.01 0,-0.02 0.01,-0.02 0.01,-0.01 0.01,0.02 0,0.01 0,0.01 0,0 0,-0.01 0,-0.01 0,0 -0.01,0.01 -0.01,0.01 -0.01,0l0 0zm0.59 -0.03c-0.01,-0.04 -0.01,-0.12 -0.01,-0.11 0,0 0,0.01 0.01,0.01 0,0 0,0 0,0 0,0 0,0 0.01,0 0,0 0,-0.01 0,-0.03 0,-0.02 0,-0.03 0,-0.02 0.01,0.01 0.01,0.04 0,0.06 -0.01,0.02 -0.01,0.02 -0.01,0.01 0,0 0,0.02 0,0.05 0,0.07 0,0.09 0,0.03l0 0zm0.02 0.02c0,0 0,0 0,0 0,0 0,0 0,0 0,0.01 0,0.01 0,0l0 0zm-0.63 -0.03c0,-0.01 0,-0.01 0.01,-0.01 0,0 0.01,-0.01 0.01,-0.02 0,-0.01 0,-0.01 0,0 0.01,0.02 0.01,0.03 0,0.03 -0.01,0 -0.01,0 -0.01,0.01 -0.01,0 -0.01,0 -0.01,-0.01l0 0zm0.65 -0.01c0,-0.01 0,-0.02 0,-0.03 0.01,-0.02 0.01,-0.02 0.01,0.01 0,0.01 -0.01,0.02 -0.01,0.02 0,0 -0.01,0 0,0zm-0.69 -0.01c0,0 -0.01,-0.01 -0.01,-0.01 0,-0.02 0,-0.02 0.01,0 0,0 0.01,0.01 0.01,0.01 0.01,0 0.01,0 0,0 -0.01,0.01 -0.01,0 -0.01,0zm0.03 0c0,-0.02 -0.01,-0.06 0,-0.07 0,0 0,0.01 0.01,0.06 0,0.01 0,0.02 -0.01,0.01zm-0.5 -0.01c-0.01,0 0,0 0,0 0,-0.01 0.01,0 0,0 0,0.01 0,0.01 0,0l0 0zm1.14 0c0,0 0,-0.01 0,-0.01 0.01,0 0.01,0 0.01,0.01 0,0.01 0,0.01 -0.01,0l0 0zm-1.13 -0.02c0,-0.02 0,-0.03 -0.01,-0.02 0,0.01 0,0.01 0,0 0.01,-0.02 0.02,-0.01 0.01,0.02 0,0.02 0,0.02 0,0l0 0zm0.46 0c0,-0.01 0,-0.01 0,-0.01 0,0.01 0,0.01 0,0.01 0,0 0,0 0,0l0 0zm0.04 -0.03c0,-0.01 0,-0.01 0,-0.01 0,0.01 0,0.01 0,0.01 0,0 0,0 0,0l0 0zm-0.48 -0.02c0,0 -0.01,-0.01 -0.01,-0.01 0.01,0 0.01,0 0.01,0 0,0 0,0 0,0 0.01,-0.01 0.02,0.01 0.02,0.02 0,0.01 0,0.01 -0.02,-0.01zm1.13 0c-0.01,-0.02 0,-0.06 0,-0.07 0.01,0 0.01,0.03 0,0.06 0,0.02 0,0.02 0,0.01zm-0.67 0c0,-0.01 0,-0.01 0,-0.01 0,0 0.01,0 0.01,0 0,-0.01 0,-0.01 0,0 0,0 0,0.01 -0.01,0.01 0,0 0,0 0,0zm-0.43 -0.01c0,-0.01 0.01,-0.01 0.01,-0.01 0.01,0 0.01,-0.01 0.01,-0.01 0,-0.01 0,0 0,0.01 0,0.02 -0.01,0.02 -0.02,0.01l0 0zm1.04 -0.02c0.01,-0.01 0.01,-0.01 0.01,-0.01 0,0.01 0,0.01 0,0.02 0,0 -0.01,0 -0.01,-0.01zm-1.05 0c-0.01,-0.01 0,-0.02 0.01,-0.02 0,0.01 0,0.03 0,0.03 0,0 -0.01,-0.01 -0.01,-0.01l0 0zm0.41 -0.02c-0.01,-0.01 -0.01,-0.01 0,-0.01 0.01,0 0.01,0 0.01,0.01 0,0.01 0,0.01 -0.01,0l0 0zm0.02 0.01c0,-0.01 0,-0.01 0,-0.01 0,0 0,0 0,0.01 0,0 0,0 0,0 0,0 0,0 0,0zm-0.39 -0.01c0,-0.01 -0.01,-0.01 -0.01,-0.01 0,-0.01 -0.01,-0.01 0,-0.01 0,-0.01 0.01,-0.01 0.01,0 0,0.01 0,0.02 0.01,0.02 0.01,0 0.01,-0.01 0.01,-0.01 0,0 0,0 0,0 0.01,0 0.01,-0.01 0.01,-0.01 0,-0.01 0,-0.01 0.01,0 0.01,0 0.01,0 0,0.01 -0.01,0 -0.01,0 -0.01,0.01 0,0.01 -0.03,0.01 -0.03,0l0 0zm-0.01 -0.02c0,0 0,0 0,0 0,0 0,0 0,0 0,0 0,0 0,0 0,0 0,0 0,0zm0.33 0.01c0,0 0,-0.01 0,-0.01 0.01,0 0.01,0 0.01,-0.01 0,-0.01 -0.01,-0.01 -0.02,0 0,0.01 0,0.01 -0.02,0.01 -0.02,0 -0.02,0 -0.02,0.01 0,0.01 0,0.01 -0.01,0.01 -0.02,0 -0.02,0 -0.02,-0.02 0,-0.01 0,-0.01 0.01,-0.01 0.01,0 0.01,0 0.01,-0.02 0.01,-0.02 0.01,-0.02 0.01,0 0,0.02 0,0.02 0.02,0.02 0.02,0 0.02,0 0.02,-0.01 0,-0.01 0,-0.01 0.01,-0.01 0.01,0 0.02,0 0.01,0.01 0,0 0,0 0.01,0.01 0.01,0 0.01,0.01 0,0.01 -0.01,0 -0.02,0.01 -0.01,0.01 0,0.01 0,0.01 0,0.01 -0.01,0 -0.01,0 -0.01,-0.01l0 0zm-0.06 0c0,-0.01 0,-0.01 -0.01,-0.01 0,0 0,0.01 0.01,0.01 0,0 0,0 0,0l0 0zm-0.17 0c0,-0.01 0,-0.01 -0.01,-0.01 -0.01,0 -0.01,0 0,-0.01 0.01,0 0.01,-0.01 0.02,-0.01 0,-0.01 0,-0.01 0,0 0,0.01 0,0.01 0.01,0.01 0.01,0 0.01,0 0.01,0.01 0,0.02 0,0.02 -0.01,0.02 -0.01,0 -0.02,0 -0.02,-0.01zm0.95 0.01c0,-0.01 0,-0.01 0,-0.01 0.01,0 0.01,0 0.01,0.01 -0.01,0 -0.01,0 -0.01,0 0,0 0,0 0,0zm-0.03 -0.01c0,0 0.01,0 0.01,0 0,0 0,0 0,0 0,0 0,0.01 0,0.01 0,0 -0.01,-0.01 -0.01,-0.01zm0.01 -0.02c0,0 0,0 -0.01,-0.01 0,0 0,-0.01 -0.01,-0.02 0,-0.01 0,-0.02 0,-0.03 0,-0.01 0,-0.01 0,0 0,0 0.01,0 0.01,0 0.01,0 0.01,0 0.01,0.01 0.01,0.03 0.02,0.05 0.02,0.05 0,0 0,0 0,0 -0.01,0.01 -0.01,0.01 -0.02,0l0 0zm-0.01 -0.02c0,0 0,0 0,0 0,0.01 0,0.01 0,0.01 0,-0.01 0,-0.01 0,-0.01l0 0zm-1 0.02c0,-0.01 0,-0.01 0.02,-0.02 0.01,0 0.01,0 0,0.01 -0.01,0 -0.01,0 -0.01,0.01 0,0 0,0 -0.01,0l0 0zm0.34 -0.01c0,0 0,0 0,0 0,0 0,0 0,0 0,0 0,0.01 0,0.01 0,0 0,-0.01 0,-0.01zm-0.01 0c0,0 0,0 0,0 0,0 0,0 0,0 0,0 0,0 0,0 0,0 0,0 0,0zm-0.28 -0.01c0,0 0,0 0,0 0,0 0,0 0,0 0,0.01 0,0.01 0,0.01 0,0 0,0 0,-0.01zm1.01 -0.02c0,-0.01 0,-0.01 -0.01,-0.01 -0.01,0 -0.02,0 -0.02,0 0,-0.01 0.01,-0.01 0.02,-0.01 0.02,0 0.03,0.03 0.01,0.03 0,0 0,0 0,-0.01l0 0zm-1 0.01c0,-0.01 0.01,-0.01 0.01,-0.01 0,0 0.01,0 0.01,0 0.01,0 0.01,0 0,0 -0.02,0.01 -0.02,0.01 -0.02,0.01zm0.21 -0.01c-0.01,0 -0.01,0 0,0 0.01,0 0.02,0 0.01,0.01 0,0 0,0 -0.01,-0.01l0 0zm-0.13 0c0,0 0.01,0 0.01,0 0.02,0 0.04,0 0.03,-0.01 -0.01,0 -0.01,-0.01 0.01,-0.01 0.02,0 0.02,0.01 0.01,0.02 -0.01,0 -0.06,0.01 -0.06,0l0 0zm0.01 -0.01c0,0 0,0 0.01,0 0,0 -0.01,0 -0.01,0 -0.01,0 -0.01,0 0,0l0 0zm0.84 -0.03c0,-0.01 0,-0.01 0,-0.01 -0.01,0.01 -0.02,-0.04 -0.02,-0.05 0,0 0,0 0.01,0.01 0,0.01 0,0.02 0.01,0.02 0.01,0 0.01,0.02 0.01,0.03 -0.01,0 -0.01,0 -0.01,0zm0 -0.08c0,-0.01 0,-0.01 -0.01,-0.01 -0.01,0.02 -0.01,0.01 -0.01,-0.01 0.01,-0.01 0.01,-0.01 0.01,-0.01 0.01,0 0.01,0 0.01,0 -0.01,-0.01 -0.01,-0.01 0,-0.01 0.01,0 0.01,0 0.01,0.02 0,0.02 0,0.03 0,0.03 -0.01,0 -0.01,-0.01 -0.01,-0.01l0 0zm-0.03 -0.01c0,0 0,-0.01 0,-0.01 0,0 0,0 0,0.01 0.01,0 0.01,0.01 0,0.01 0,0 0,0 0,-0.01zm-0.01 -0.03c0,-0.01 0,-0.02 0,-0.02 0,-0.01 0,-0.01 -0.01,-0.01 0,0 -0.01,-0.02 -0.01,-0.03 0,-0.01 0.02,0 0.02,0.01 0,0.01 0,0.02 0.01,0.02 0.01,0 0.01,0.01 0.01,0.02 -0.01,0.01 -0.02,0.01 -0.02,0.01l0 0zm0.03 -0.03c-0.01,-0.01 -0.01,-0.03 0.01,-0.03 0.01,0 0.01,0 0.01,0.01 0,0.02 0,0.02 -0.02,0.02zm0.01 -0.02c-0.01,0 -0.01,0 0,0 0,0.01 0,0.02 0,0.01 0,0 0,-0.01 0,-0.01l0 0zm-0.07 -0.05c-0.01,-0.01 -0.01,-0.03 0,-0.03 0,0 0,0 0,-0.01 0,-0.01 0.01,0.02 0.01,0.03 0,0.02 0,0.03 -0.01,0.01l0 0zm-1.06 -0.02c0,0 0,0 0,0 0,0 0,0 0,0 0,0.01 0,0.01 0,0.01 0,0 0,0 0,-0.01zm1.03 0c0,0 0,0 0,0 0,0 0,0 0,0 0,0.01 0,0.01 0,0.01 0,0 0,0 0,-0.01zm-1.04 -0.02c0,-0.01 0,-0.02 0,-0.02 0,-0.02 0.02,-0.01 0.02,0 0.01,0.01 0,0.01 -0.01,0.02 0,0 -0.01,0.01 -0.01,0.01 -0.01,0.01 -0.01,0.01 0,-0.01l0 0zm1.02 -0.01c-0.01,-0.01 -0.01,-0.01 0,-0.01 0,0.01 0.01,0 0,-0.01 0,0 0,-0.01 0,-0.01 0.01,-0.01 0.01,-0.01 0.01,0 0,0.01 0.01,0.01 0.01,0.01 0.01,0.01 0,0.03 0,0.03 -0.01,0 -0.01,0 -0.02,-0.01l0 0zm0.05 -0.01c-0.02,-0.02 -0.02,-0.04 0,-0.04 0.01,0 0.01,0.01 0.01,0.02 0,0.03 0,0.03 -0.01,0.02zm-1.03 0c0,0 0,0 0,0 0,0 0,0 0,0 0,0 0,0 0,0 0,0 0,0 0,0zm0 -0.02c0.01,-0.01 0.02,-0.02 0.02,-0.01 0,0.01 0,0.01 -0.01,0.02 -0.01,0.01 -0.01,0.01 -0.01,-0.01l0 0zm0.02 0c0,0 0,-0.01 0,-0.01 -0.01,0 -0.01,0.01 -0.01,0.01 0,0 0,0 0,0 0,0 0.01,0 0.01,0zm-0.07 -0.05c0,-0.03 0,-0.04 0,-0.02 0,0.01 0,0.03 0,0.05 0,0.01 0,0 0,-0.03zm0.99 0.04c-0.01,-0.01 -0.01,-0.03 0,-0.03 0,0 0,0 0.01,0 0,0 0,0 0,0.01 0.01,0.02 0,0.03 -0.01,0.02l0 0zm-0.98 -0.01c0,-0.01 0,-0.01 0,-0.01 0,0 0,0.01 0,0.01 0,0.01 0,0.01 0,0zm0.94 -0.03c0,0 0,0 0,0 0,0 0,0 0,0 0,0 0,0 0,0 0,0 0,0 0,0zm-0.82 -0.01c-0.01,0 -0.01,0 -0.01,0 0,0 -0.01,0 -0.01,-0.01 -0.01,0 -0.01,0 -0.02,0 0,0.01 -0.01,0.01 -0.01,0 0,-0.02 -0.02,-0.01 -0.02,0 0,0.01 -0.01,0.01 -0.01,0 0,-0.01 0,-0.01 0.03,-0.01 0.04,-0.01 0.04,-0.01 0.04,-0.02 0,0 0,0 0.02,0 0.02,0 0.03,0.01 0.01,0.01 -0.01,0 -0.01,0.01 0,0.01 0,0.01 0.01,0.01 0.01,0 0,0 0,0 0,0 0.01,0 0.01,0 0.01,0.01 -0.01,0 -0.03,0 -0.03,0 0,-0.01 0,-0.01 -0.01,-0.01 0,0 0,0 0,0.01 0,0 0,0 0,0 0.01,0.01 0.01,0.01 0.01,0.02 0,0 -0.01,-0.01 -0.01,-0.01l0 0zm0.86 0.01c0,-0.01 0,-0.01 0,-0.01 0,0 0,0 0,0.01 0,0 0,0 0,0 0,0 0,0 0,0zm-0.03 -0.01c0,-0.01 0,0 0,0 0.01,0 0,0 0,0 -0.01,0 -0.01,0 0,0l0 0zm0.05 -0.01c0,0 0,0 -0.01,0 0,0 0,0 0,-0.01 0,0 0,0 0.01,0 0.01,0 0.01,0 0.01,0.01 0,0.01 0,0.01 -0.01,0.01 0,0 0,0 0,-0.01zm-0.1 -0.01c0,-0.01 0,-0.01 0,0 0.01,0 0.01,0 0.01,0 0,0.01 0.01,0 0.01,-0.01 0,-0.03 -0.01,-0.04 -0.03,-0.03 -0.01,0 -0.02,0 -0.02,-0.01 0,0 0,0 0.02,0 0.02,0 0.02,0 0.02,-0.01 0,-0.01 0,-0.01 0.02,-0.01 0.01,0 0.01,0 0.01,0.01 0,0.02 0,0.02 -0.01,0.02 -0.01,0 -0.01,0 -0.01,0.02 0,0.03 -0.01,0.04 -0.02,0.02zm0.03 -0.05c0,-0.01 0,-0.01 -0.01,-0.01 0,0 0,0.01 0.01,0.01 0,0 0,0 0,0l0 0zm-0.93 0.03c0,-0.01 0,-0.01 0,-0.01 0,0.01 0,0.02 0,0.02 0,0.01 0,0 0,-0.01l0 0zm0.16 -0.01c-0.01,-0.01 0,-0.04 0.01,-0.04 0.01,0 0.01,0 0.01,0.01 0.01,0.01 0.02,0 0.02,-0.01 0.01,-0.01 0.04,-0.01 0.04,0 0,0.01 0,0.01 0,0 -0.01,0 -0.01,0 -0.02,0 -0.01,0.01 -0.01,0.01 0,0.01 0,0 0,0 -0.01,0.01 0,0 -0.01,0 -0.02,0 -0.01,-0.01 -0.02,0 -0.02,0.01 0,0 -0.01,0.02 -0.01,0.01l0 0zm0.04 0c0.01,0 0.01,0 0.01,0 0,0.01 0,0.01 0,0.01 -0.01,0 -0.01,0 -0.01,-0.01l0 0zm0.67 0c0,0 0,-0.01 0.01,0 0,0 0,0.01 -0.01,0.01 0,0 0,-0.01 0,-0.01zm-1.44 -0.01c0,-0.01 0,-0.02 0.01,-0.01 0,0 0,0 0,-0.01 0,-0.01 0,-0.01 0.01,-0.01 0.02,0 0.02,0.01 -0.01,0.02 -0.01,0 -0.01,0.02 0,0.02 0.01,0 0.01,0 0.01,0 -0.01,0.01 -0.02,0 -0.02,-0.01zm1.42 0.01c0,0 0,0 0,0 0,0 0,0 0,0 0,0 0,0 0,0 0,0 0,0 0,0zm-0.63 0c0,-0.01 0,-0.01 0,0 0.01,0 0,0 0,0 0,0 0,0 0,0l0 0zm-0.24 -0.01c0,0 0,0 0,0 0,0 0,0 0,0 0,0 0,0 0,0 0,0 0,0 0,0zm-1.43 0c0,-0.01 0,-0.01 0.01,-0.01 0,0.01 0,0.01 0.01,0 0,0 0,0 0,0 0,0 -0.01,0.01 -0.02,0.01 0,0 0,0 0,0l0 0zm1.4 -0.01c-0.01,0 -0.01,0 -0.01,0 0,0 0.01,-0.01 0.01,-0.01 0,-0.01 0.01,-0.01 0.01,0 0,0 0.01,0.01 0.01,0.01 0,0.01 0.01,0.01 0.01,0.01 -0.01,0 -0.02,0 -0.03,-0.01zm0.04 0.01c0,-0.01 0,-0.01 0.01,-0.01 0,0 0,0.01 0,0.01 -0.01,0 -0.01,0 -0.01,0l0 0zm0.25 0c0,-0.01 0,-0.01 0.01,-0.01 0.01,0 0.01,-0.01 0.01,-0.01 0,0 -0.01,0 -0.01,0 0,0 0,0 0,-0.01 0,0 0.02,-0.01 0.03,0 0,0 0,0 -0.01,0 0,0 0,0.01 0,0.01 0.01,0 0.01,0 0,0.01 -0.01,0 -0.02,0 -0.02,0.01 -0.01,0 -0.01,0 -0.01,0l0 0zm-1.25 -0.01c-0.06,0 -0.09,0 -0.07,0 0.03,0 0.05,0 0.05,-0.01 0.02,-0.01 0.07,-0.01 0.06,0 0,0.01 0,0.01 0.01,0.01 0,0 0.01,0 0.01,-0.01 -0.01,0 0,0 0,0 0.02,-0.01 0.04,0 0.03,0 0,0.01 0,0.01 0.01,0.01 0.01,-0.01 0.02,0 0.02,0 0,0 0,0.01 0,0 0,0 -0.06,0 -0.12,0l0 0zm1.8 0c0,0 0,0 0.01,0 0,0 0,0 0,0 0,0 0,0.01 0,0.01 -0.01,0 -0.01,-0.01 -0.01,-0.01zm-2.2 0c0.01,0 0.02,0 0.02,0 0,0 0,0 -0.01,0 -0.01,0 -0.01,0 -0.01,0zm0.05 -0.01c0,-0.01 0.04,-0.01 0.05,0 0,0 0.02,0.01 0.04,0.01 0.03,0 0.02,0 -0.03,0 -0.07,0 -0.07,0 -0.06,-0.01zm0.86 0c-0.01,-0.02 -0.01,-0.02 0.01,-0.01 0.01,0 0.02,0 0.02,0 0,0.01 0.01,0.01 0.01,0.01 0.01,0 0.01,0 0.01,-0.01 -0.01,0 0,0 0.01,0 0.01,0 0.01,0 0.01,0.01 0,0 0.02,0.01 0.04,0.01 0.04,0 0.04,0 -0.03,0 -0.08,0 -0.08,0 -0.08,-0.01l0 0zm0.05 0c-0.01,0 -0.01,0 -0.01,0 -0.01,0.01 0,0.01 0,0.01 0.01,0 0.01,0 0.01,-0.01l0 0zm0.25 0.01c0.04,0 0.06,-0.01 0.06,-0.01 0,0 0,0 0.01,0 0.01,0 0.02,-0.01 0.02,-0.01 0.01,0 0.02,0 0.02,0.01 0,0 0,0.01 0.01,0.01 0,0 -0.04,0 -0.08,0 -0.08,0 -0.09,0 -0.04,0l0 0zm0.98 0c0,-0.01 0,-0.01 0,-0.01 0.01,0.01 0.01,0.01 0.01,0.01 0,0 0,0 -0.01,0l0 0zm0.05 0c-0.01,0 -0.01,-0.01 -0.01,-0.01 0,0 0,0 0,-0.01 0,0 0.03,-0.01 0.03,0 0,0 0,0.01 0,0.01 0,0.01 0,0.01 -0.02,0.01l0 0zm-1.73 -0.02c-0.01,0 0,0 0,0 0.02,0 0.02,0 0.01,0 -0.01,0.01 -0.01,0.01 -0.01,0zm1.63 0c-0.01,0 -0.02,0 -0.02,0 0,-0.01 0.03,-0.01 0.04,0 0.01,0.01 0,0.01 -0.02,0zm-2.14 0c0.01,0 0.01,0 0.01,0 0,0 0,0 0,0 -0.01,0 -0.01,0 -0.01,0l0 0zm0.5 0c0,0 0,0 0,0 0,0 0,0 0,0 0,0 0,0 0,0 0,0 0,0 0,0zm1.2 0c-0.01,-0.01 -0.01,-0.02 0,-0.02 0,0 0,0 0.01,0.01 0,0 0.01,0 0.01,0 0.01,-0.01 0.01,-0.01 0.01,0 0.01,0 0.01,0 0.02,0 0.02,0 0.02,0 0.01,0 -0.01,0.01 -0.05,0.01 -0.06,0.01l0 0zm0.35 -0.01c-0.01,0 -0.04,-0.01 -0.06,-0.01 -0.04,0 -0.04,0 -0.02,-0.01 0.02,0 0.02,0 0,0 -0.02,-0.01 -0.02,-0.01 0.02,-0.01 0.03,0 0.05,0 0.05,0 0,0 0.01,-0.01 0.02,-0.01 0.02,0 0.01,0.01 -0.02,0.02 -0.03,0 -0.04,0.01 -0.01,0.01 0.03,0 0.04,0 0.05,0.01 0.02,0 0.01,0 -0.03,0l0 0zm-0.27 -0.01c0.01,0 0.01,0 0.01,0 0.01,0.01 0,0.01 0,0.01 -0.01,0 -0.01,0 -0.01,-0.01zm0.03 -0.01c0,-0.01 0,-0.01 0.06,-0.01 0.07,0 0.07,0 0.02,0.01 -0.05,0 -0.07,0 -0.04,0.01 0.02,0 0.02,0 0,0 -0.04,0.01 -0.04,0 -0.04,-0.01zm-0.12 0c0,0 0,0 0.01,0 0,0 0.01,0 0.01,0 -0.01,0 -0.01,0 -0.01,0 -0.01,0 -0.01,0 -0.01,0zm0.04 0c-0.01,-0.01 -0.01,-0.02 -0.01,-0.02 0.01,0 0.01,0 0.01,0.01 0,0 0,0 0.02,0 0.01,0 0.02,0 0.02,0 0,0.01 -0.04,0.01 -0.04,0.01l0 0zm0.41 -0.01c0,0 -0.01,0 -0.01,0 -0.01,0 -0.02,0 -0.02,0 0,-0.01 0,-0.01 0,-0.01 -0.01,0 -0.01,0 -0.01,0 0.01,-0.01 0,-0.01 -0.01,-0.02 -0.02,0 -0.02,0 0.01,0 0.02,0 0.04,0 0.04,0.01 0.01,0 0.01,0.03 0,0.03 0,0 0,-0.01 0,-0.01l0 0zm-0.33 -0.02c-0.01,0 -0.01,0 -0.01,-0.01 0,-0.01 0.08,0 0.08,0.01 0,0 -0.06,0.01 -0.07,0zm-1.75 -0.13c0,0 0,0 0.01,0 0.01,0 0.02,0 0.01,-0.01 0,0 0,-0.01 0.01,-0.01 0,0 0.01,0.01 0.01,0.01 0.02,0.02 0.02,0.02 -0.01,0.02 -0.02,0 -0.03,0 -0.03,-0.01l0 0zm0.07 0c0,-0.01 0,-0.01 0.01,-0.01 0.02,0 0.03,0 0.01,-0.01 0,0 0.02,0 0.06,0.01 0.02,0 0.03,0 0.03,0 -0.01,0 -0.01,0.01 -0.01,0.01 0,0.01 -0.05,0 -0.05,0 -0.01,-0.01 -0.02,-0.01 -0.03,0 -0.01,0.01 -0.02,0.01 -0.02,0l0 0zm0.09 0c0,-0.01 0,-0.01 0,0 0,0 0,0 0,0 0,0 0,0 0,0l0 0zm0.12 0c0,0 0.01,0 0.02,0 0.01,0 0.02,0 0.02,0 0,0.01 -0.01,0.01 -0.02,0.01 -0.01,0 -0.02,0 -0.02,-0.01zm0.07 0.01c-0.01,-0.01 0.01,-0.03 0.03,-0.03 0.02,0 0.02,0 0.02,0.01 -0.01,0.02 -0.04,0.02 -0.05,0.02zm-0.13 -0.02c-0.01,0 -0.01,0 0.01,0 0.01,-0.01 0.03,-0.01 0.03,-0.01 0.01,0 0.01,0 0.01,0 0,0 0,0.01 -0.01,0.01 0,0 -0.01,0 -0.01,0 -0.01,0.01 -0.02,0.01 -0.03,0l0 0zm0.02 0c0,0 -0.01,0 -0.01,0 0,0 0,0 0.01,0 0,0 0,0 0,0zm-0.24 0c0,0 0,0 0,0 0.01,0 0.01,0 0.01,0 0,0 0,0 -0.01,0 0,0 0,0 0,0zm-0.04 -0.02c0,-0.02 0.01,-0.02 0.02,-0.02 0,0 0.01,0 0.01,0 0,-0.01 0,-0.01 0,0 0,0 0.01,0 0.01,0.01 0,0 0,0 -0.01,0 -0.01,0 -0.02,0 -0.02,0.01 0,0 0.01,0 0.01,0 0.02,0 0.02,0.01 0.01,0.01 -0.02,0.01 -0.03,0 -0.03,-0.01zm0.03 -0.01c0,0 0,0 0,0 0,0 0,0 0,0 0,0 0,0 0,0 0,0 0,0 0,0zm0.09 0.02c0,-0.01 0.01,-0.01 0.01,0 0,0 0,0 -0.01,0 0,0 -0.01,0 0,0l0 0zm-0.02 -0.01c0,0 0,0 0,0 0.01,0 0.01,0 0.01,0 0,0 0,0 -0.01,0 0,0 0,0 0,0zm0.27 -0.01c0.02,-0.01 0.04,-0.02 0.05,-0.03 0.01,-0.01 0.01,-0.01 0.02,-0.01 0.01,0 0.01,0.02 0,0.02 0,0 -0.01,0 -0.01,0.01 0,0 0,0 0,0 0,-0.01 -0.02,-0.01 -0.03,0 0,0 -0.01,0.01 -0.03,0.01 -0.02,0.01 -0.03,0.01 0,0l0 0zm-0.3 0c-0.02,-0.01 -0.02,-0.02 -0.02,-0.02 0,0 0,0 0,0 0.01,0 0.02,0.01 0.03,0.01 0.01,0.01 0.01,0.01 -0.01,0.01l0 0zm-0.07 -0.03c0,-0.01 0,-0.02 0.01,-0.02 0,0 0.01,0.01 0.01,0.01 0,0.01 0,0.01 0,0.01 0.01,0 0.01,0 0,0 0,-0.01 0,-0.01 0.01,-0.01 0.01,0.01 0,0.02 -0.01,0.02 -0.02,0 -0.02,0 -0.02,-0.01l0 0zm-0.06 0c0,-0.01 0.01,-0.01 0.01,0 0,0 0,0.01 0,0.01 -0.01,0 -0.01,-0.01 -0.01,-0.01zm0.1 0c0,0 0,0 0,0 0,0 0,0 0,0 0,0 0,0.01 0,0.01 0,0 0,-0.01 0,-0.01zm0.45 0c0.01,-0.01 0.01,-0.01 0.01,-0.01 0,0 0,0 0,0.01 0,0 0,0.01 -0.01,0.01 0,0 0,-0.01 0,-0.01zm-0.52 -0.02c0,0 -0.01,-0.01 -0.01,-0.01 0,-0.02 -0.01,-0.02 -0.02,-0.02 0,0 0,0 0,-0.01 0,-0.01 0,-0.01 0.03,0.02 0.01,0 0.02,0.01 0.02,0.01 0.01,0 0.01,0 0.01,0.01 -0.01,0 -0.02,0.01 -0.03,0zm0.49 0c-0.01,-0.01 0,-0.02 0.01,-0.02 0.01,0 0.01,0.02 0,0.02 -0.01,0.01 -0.01,0.01 -0.01,0l0 0zm0.03 -0.04c-0.01,0 0,-0.01 0.01,-0.03 0.02,-0.02 0.03,-0.01 0.03,0.01 0,0.02 -0.03,0.03 -0.04,0.02l0 0zm0.01 -0.02c0.01,0 0,0 0,0 -0.01,0.01 -0.01,0.02 0,0.02 0,0 0,-0.01 0,-0.02zm0.04 0.02c0,0 0.01,-0.01 0.01,-0.01 0,0 0,-0.01 0,-0.02 0,-0.01 0.01,-0.02 0.02,-0.02 0.01,0.02 0,0.05 -0.01,0.05 -0.01,0 -0.02,0 -0.02,0l0 0zm-0.59 -0.02c0,-0.01 0,-0.01 0,0 0.01,0 0.01,0 0.01,0 0,0.01 0,0 -0.01,0zm-0.03 -0.01c-0.02,-0.01 -0.03,-0.03 -0.02,-0.05 0.01,-0.01 0.01,-0.01 0.01,0 0,0.01 0.01,0.02 0.01,0.03 0,0 0.01,0.01 0.01,0.01 0,0 0,0.01 0.01,0.01 0,0.01 0,0.01 -0.02,0zm0.02 -0.02c0,0 0,0 0,0 0,0 0,0 0,0 0,0 0,0.01 0,0.01 0,0 0,-0.01 0,-0.01zm0.59 -0.01c0,-0.01 0,-0.02 0,-0.03 0.01,-0.03 0.02,-0.06 0.02,-0.13 0,-0.08 0.02,-0.1 0.02,-0.03 0,0.04 0,0.04 -0.01,0.04 0,0 0,0 0,0.03 0,0.01 -0.01,0.04 -0.01,0.05 -0.01,0.02 -0.01,0.02 0,0.03 0,0 0.01,0 0.01,0 0,0 0,0 0,0 0,0.01 0,0.01 0,0 0,0 0,-0.01 0.01,-0.01 0,0 0,0.01 0,0.02 0,0.02 -0.01,0.02 -0.02,0 -0.01,-0.02 -0.01,-0.01 -0.01,0.01 0,0.03 0,0.04 -0.01,0.02l0 0zm0.03 -0.02c0,-0.01 0,-0.01 0,-0.01 0,0 0,0 0,0.01 0,0 0,0 0,0 0,0 0,0 0,0zm-0.64 -0.01c0,0 -0.01,-0.01 -0.01,-0.01 -0.01,0 -0.01,-0.02 0,-0.02 0,0 0.02,0.04 0.01,0.04 0,0 0,0 0,-0.01l0 0zm-0.02 -0.01c-0.01,0 -0.01,0 0,0 0,0.01 0,0.01 0,0.01 0,0 0,0 0,-0.01l0 0zm-0.03 -0.01c0,-0.01 0.01,-0.01 0.01,-0.01 0.01,0 0.01,0 0.01,0.01 0,0.01 -0.02,0.02 -0.02,0zm0.03 -0.01c0,0 0,-0.01 0.01,-0.01 0,0 0,0.01 0,0.01 0,0 0,0 0,0 -0.01,0 -0.01,0 -0.01,0zm-0.01 -0.02c0,0 0,-0.01 0,-0.02 -0.01,-0.01 -0.01,-0.01 0,-0.02 0,-0.02 0,-0.06 -0.01,-0.06 0,0 -0.01,0.01 0,0.02 0,0 0,0 -0.01,0.01 0,0 0,0 0,-0.01 0,-0.02 0,-0.04 0.01,-0.04 0,0 0.01,0 0.01,-0.01 0,-0.01 0,-0.02 0,-0.01 0,0 0,0 0,0 0.01,0 0.01,0 0.01,0.01 0,0.01 0,0.01 0,0 0.01,-0.01 0.01,-0.01 0,0 0,0.01 0,0.04 0,0.07 0,0.04 0,0.06 0,0.07 0,0 -0.01,-0.01 -0.01,-0.01l0 0zm-0.02 -0.04c0,-0.01 0.01,-0.01 0.01,-0.01 0,0.01 0,0.02 0,0.02 0,0.01 -0.01,0 -0.01,-0.01zm3.19 -0.03c-0.01,-0.03 0,-0.15 0,-0.15 0.01,0 0.01,0 0.01,-0.01 0,-0.01 0.01,-0.01 0.01,-0.02 0,0 0,0.01 0,0.02 0,0 0,0.04 0,0.08 0,0.08 -0.01,0.12 -0.02,0.08zm-3.64 -0.02c0,-0.02 0,-0.03 0.01,-0.03 0,0 0,0.01 0,0.03 0,0.02 0,0.02 0,0.02 -0.01,0 -0.01,0 -0.01,-0.02zm0 -0.05c0,-0.02 0,-0.02 0,-0.01 0,0.01 0.01,0.01 0.01,0.01 0.01,0 0.01,0 0.01,0 -0.01,0.02 -0.02,0.01 -0.02,0zm0.04 -0.01c0,-0.01 0,-0.03 0.01,-0.05 0,-0.03 0,-0.07 -0.01,-0.06 0,0 0,0 0,0 0,-0.01 0,-0.01 0,-0.01 0,0 0.01,-0.01 0.01,-0.02 0,-0.02 0.01,-0.03 0.01,-0.02 0.01,0.01 0,0.18 -0.01,0.18 -0.01,0 -0.01,0 -0.01,-0.02l0 0zm0.02 0c0,0 0,0 0,0 0,0 -0.01,0 -0.01,0 0,0 0.01,0 0.01,0 0,0 0,0 0,0zm0.39 0c0,-0.01 0,-0.02 0,-0.02 0.01,0 0.02,0.01 0.01,0.01 -0.01,0.01 -0.01,0.01 0,0.02 0,0 0,0 0,0 -0.01,0.01 -0.01,0 -0.01,-0.01l0 0zm0.68 -0.01c0,0 0,-0.01 0.01,-0.01 0,0 0,0 0,0 0,0.01 0,0.01 0,0.01 -0.01,0 -0.01,0 -0.01,0zm-0.64 0c0,-0.01 0,-0.01 0,-0.01 0.01,0.01 0.01,0.01 0,0.01 0,0 0,0 0,0l0 0zm0.62 -0.02c0,-0.01 0,-0.02 0,-0.01 0,0 0,-0.01 0,-0.01 0,-0.01 0.01,-0.01 0.02,0 0,0 0,0.01 0,0.01 0,0.01 -0.01,0.02 -0.01,0.02 0,0.01 0,0 -0.01,-0.01l0 0zm-1.11 0.01c0,0 0,0 0.01,0 0,0 0,0 0,0 0,0 0,0 0,0 -0.01,0 -0.01,0 -0.01,0zm0.5 -0.01c0,0 0,0 0,0 0,0 0,0.01 0,0.01 0,0 0,0 0,-0.01l0 0zm0.64 0c0,0 0.01,0 0.01,0 0,0 0,0 0,0 0,0 0,0 0,0 0,0 -0.01,0 -0.01,0zm-0.64 -0.01c0,0 0,-0.01 0,-0.01 0.01,-0.01 0.01,-0.01 0.01,-0.01 -0.01,0 -0.02,-0.03 -0.02,-0.03 0,-0.01 0.01,-0.01 0.01,0 -0.01,0.01 0,0.01 0.01,0.01 0.01,-0.01 0.01,0 0,0.03 -0.01,0.02 -0.01,0.02 -0.01,0.01zm-0.04 -0.01c0,-0.01 0,-0.02 0.01,-0.02 0.01,0 0.01,0 0,0.01 0,0 0,0 0,0.01 0,0.01 0,0.01 -0.01,0zm0.69 -0.02c0,-0.02 0,-0.03 -0.01,-0.03 -0.01,0 -0.01,0 0,0 0.01,0 0.01,0 0.01,0.02 0,0.01 0,0.02 0,0.02 0,0 0,0 0,-0.01l0 0zm-1.15 0.01c0,0 0,0 0.01,0 0,0 0,0 0,0 0,0 0,0 0,0 -0.01,0 -0.01,0 -0.01,0zm1.09 -0.01c0,-0.01 0,-0.02 -0.01,-0.02 0,-0.01 0,-0.01 0,-0.01 0,-0.01 0,0 0.01,0 0,0.01 0.01,0.01 0.01,0.01 -0.01,0 -0.01,0 0,-0.01 0,0 0,0.01 0.01,0.02 0,0.01 0,0.01 0,0.01 -0.01,-0.01 -0.01,-0.01 -0.01,0 0,0.02 0,0.01 -0.01,0zm0.02 0.01c0,0 0.01,0 0.01,0 0,0 0,0 0,0 0,0 0,0 0,0 0,0 -0.01,0 -0.01,0zm0.02 -0.02c0,0 0,0 0,0 0,0 0,0.01 0,0.01 0,0 0,0 0,-0.01zm-1.13 0c0,-0.01 0.01,-0.01 0.01,-0.01 0,0 0,0 0,0.01 0,0 0,0 0,0.01 0,0 -0.01,-0.01 -0.01,-0.01zm3.66 0c0,0 0,-0.01 0,-0.01 0.01,0 0.01,0.01 0.01,0.01 0,0 0,0 -0.01,0 0,0 0,0 0,0zm-3.14 -0.01c-0.01,-0.01 0,-0.02 0.01,-0.03 0.02,-0.01 0.02,-0.02 0,-0.03 -0.01,0 -0.02,-0.02 -0.01,-0.02 0,0 0.01,0 0.01,0.01 0,0 0,0 0.01,0 0,-0.01 0,-0.01 0.01,-0.01 0.01,0.01 0.02,0.01 0.01,-0.01 -0.01,0 0,0 0,-0.01 0.01,0 0.01,-0.01 0,-0.01 0,0 -0.01,0 -0.01,0 0,-0.01 0.02,-0.01 0.02,0 0.01,0.02 0.03,0.02 0.03,0 0.01,-0.01 0.02,-0.01 0.03,-0.01 0.01,0 0,0.02 -0.02,0.04 -0.02,0.01 -0.03,0.01 -0.03,0.01 0,-0.01 0,-0.01 -0.01,0 -0.01,0 -0.01,0.02 -0.01,0.02 0.01,0 0,0.01 -0.01,0.01 0,0 0,0.01 0,0.01 0,0.01 -0.01,0.01 -0.01,0.02 -0.01,0 -0.01,0 -0.02,0.01 0,0 0,0 0,0l0 0zm0.6 -0.03c0,-0.01 0,-0.01 -0.01,-0.01 -0.01,0 -0.01,0 -0.01,-0.01 0,0 0.01,0 0.01,0 0.02,0 0.02,0 0.02,0.01 0,0.01 0,0.02 0,0.02 -0.01,0 -0.01,-0.01 -0.01,-0.01zm-1.1 0c-0.01,-0.01 -0.01,-0.02 0,-0.04 0.01,-0.01 0.01,-0.01 0.01,0.01 0,0.02 -0.01,0.03 -0.01,0.03l0 0zm1.04 -0.01c-0.01,0 0,-0.01 0,-0.01 0.01,0.01 0.01,0.01 0,0.01 0,0.01 0,0.01 0,0zm2.58 -0.01c0,-0.02 0.01,-0.03 0.01,-0.01 0.01,0.02 0.01,0.03 0,0.03 -0.01,0 -0.01,0 -0.01,-0.02zm-2.59 -0.01c0,0 0,0 0,0 0.01,0 0.01,0.01 0.01,0.01 -0.01,0 -0.01,-0.01 -0.01,-0.01l0 0zm-1.02 -0.02c0,-0.01 0,-0.02 0,-0.03 0,-0.01 0.01,-0.02 0.02,-0.02 0,0.01 0,0.01 0,0.03 -0.01,0.02 -0.02,0.03 -0.02,0.02l0 0zm0.99 0c0,0 0,0 0,0 0,0 0.01,0 0.01,0 0,0 -0.01,0 -0.01,0 0,0 0,0 0,0zm0.02 -0.01c0,0 0,0 0,0 0.01,0 0.01,-0.01 0.01,-0.01 0,-0.01 0,-0.01 0.02,-0.01 0.01,0 0.01,0 0.01,0.01 0,0.02 -0.01,0.02 -0.04,0.01zm-0.04 0c0,-0.01 0,-0.01 0,-0.01 0.01,0.01 0.01,0.01 0.01,0.01 0,0 -0.01,0 -0.01,0l0 0zm2.59 -0.01c0,0 0,0 0.01,0 0,0 0.01,0 0.01,0 0,0 -0.01,0 -0.01,0 -0.01,0 -0.01,0 -0.01,0zm-2.62 -0.01c-0.01,-0.01 -0.01,-0.01 0,-0.01 0.01,0.01 0.01,0.01 0.01,0.02 0,0 0,0 -0.01,-0.01zm2.64 0c0,0 0,0 0,0 0,0 0,0 0,0 0,0 0,0 0,0 0,0 0,0 0,0zm-2.97 -0.01c0,-0.01 0,-0.01 0.01,-0.02 0,-0.01 0,-0.01 0.01,0 0.01,0.01 0.02,0.01 0.03,0 0,0 0.01,0 0.01,0 0.01,0 0,0.01 -0.02,0.01 -0.02,0.01 -0.03,0.02 -0.03,0.02 0,0 0,-0.01 -0.01,-0.01l0 0zm0.35 0c0,0 0,-0.01 0,-0.02 0,-0.01 -0.01,-0.02 -0.03,-0.02 -0.01,0.01 -0.01,0 -0.01,0 0,0 0,0 0.01,0 0.02,0 0.02,0 0.02,-0.01 0,-0.01 0,-0.01 0.02,-0.01 0.01,0 0.01,0 0.01,0.01 0,0.02 0,0.02 -0.01,0.02 -0.01,0 -0.01,0 -0.01,0.02 0,0.01 0,0.02 0,0.01zm0.01 -0.04c0,-0.01 0,-0.01 -0.01,-0.01 0,0 0.01,0.01 0.01,0.01 0,0 0,0 0,0l0 0zm2.59 0.04c0,-0.01 0,-0.01 0,-0.01 0,0 0,0 0,0.01 0,0 0,0 0,0 0,0 0,0 0,0zm-3.53 -0.02c0,-0.01 -0.01,-0.01 -0.01,-0.01 -0.01,0 0,-0.02 0.01,-0.02 0,0 0.01,0.01 0.01,0.03 -0.01,0.01 -0.01,0.01 -0.01,0zm0.56 0c0,0 0.01,-0.01 0.01,-0.01 0,0 0.01,0 0.01,0.01 0,0 -0.01,0.01 -0.01,0.01 -0.01,0 -0.01,0 -0.01,-0.01zm0.3 0c-0.01,0 0,0 0.01,-0.01 0.01,0 0.02,0.01 0.02,0.01 0,0.01 -0.02,0.01 -0.03,0zm2.65 0c0,-0.02 0,-0.03 0.01,-0.03 0.01,0 0.01,0.01 0.01,0.03 -0.01,0.01 -0.02,0.01 -0.02,0zm0.01 -0.02c0,0 0,0 0,0 0,0 0,0 0,0 0,0 0,0 0,0 0,0 0,0 0,0zm-2.87 0.02c0,0 0,0 0.01,-0.01 0,0 0,0 0,0.01 0,0 -0.01,0 -0.01,0l0 0zm0.02 -0.01c0,0 0,0 0.01,0 0,0.01 0,0.01 -0.01,0.01 0,0 0,0 0,-0.01l0 0zm0.12 0c-0.03,0 -0.04,-0.01 -0.01,0 0.01,0 0.02,0 0.02,-0.01 0,0 0.01,0 0.02,0 0.01,0 0.02,-0.01 0.02,-0.01 0.01,-0.01 0.02,-0.01 0.02,0 0,0 -0.01,0.01 -0.01,0.01 -0.01,0 -0.01,0 -0.02,0.01 0,0 -0.01,0.01 -0.01,0.01 0,0 -0.01,-0.01 -0.03,-0.01zm-0.09 0c0.01,-0.01 0.04,-0.01 0.04,0 0,0 -0.01,0 -0.02,0 -0.02,0 -0.02,0 -0.02,0l0 0zm2.86 0c0,0 0.01,0 0.01,0 0,0 0,0 0,0 0,0 0,0 0,0 0,0 -0.01,0 -0.01,0zm-3.51 -0.02c0,-0.01 0.01,-0.02 0.02,-0.02 0,0 0,0.01 0,0.01 0,0.01 0,0.02 -0.01,0.02 -0.01,0 -0.01,-0.01 -0.01,-0.01zm0.66 0c-0.01,0 -0.02,0 -0.02,0 -0.02,0 -0.04,-0.01 -0.04,-0.01 0,0 0.01,-0.01 0.02,-0.01 0.01,0 0.02,0.01 0.02,0.01 0,0 0,0 0,0 0.01,0 0.01,0 0.01,0 -0.01,0 0.01,-0.01 0.05,-0.01 0.05,0 0.06,0.01 0.05,0.02 0,0 -0.09,0.01 -0.09,0zm-0.06 0c0,0 0,0 0,0 0,0 0,0 0,0 0,0 0,0 0,0 0,0 0,0 0,0zm2.9 0c0,0 0,-0.01 0,-0.01 0,-0.01 0,-0.01 0.01,-0.01 0,0.01 0,0.01 0,0.01 0,0.01 0,0.01 -0.01,0.01zm-0.02 -0.04c0,-0.01 0.01,-0.01 0.01,0 0.01,0.01 0.01,0.01 0,0.01 0,0.01 -0.01,0 -0.01,-0.01zm-3.51 -0.02c0,0 0.01,0 0.01,0 0,0 0,0 0,0 0,0 0,0 0,0 0,0 -0.01,0 -0.01,0zm3.43 -0.02c0,-0.01 0,-0.01 0,-0.01 0.01,0 0.01,0 0.01,0.01 0,0 0.01,0.01 0.01,0.01 0.01,0.01 0,0.01 -0.01,0.01 -0.01,0 -0.01,0 -0.01,-0.02zm-3.4 0c0,-0.01 0,-0.02 0.01,-0.01 0.01,0 0.01,-0.01 0.01,-0.03 -0.01,0 -0.01,-0.01 0,0 0.01,0 0.01,0.04 0,0.04 0,0 -0.01,0 -0.01,0 -0.01,0.01 -0.01,0.01 -0.01,0l0 0zm3.42 -0.01c0,0 0,0 0,-0.02 0,-0.03 0.01,-0.03 0.02,0 0.01,0.01 0.01,0.02 0.02,0.02 0.01,0.01 -0.02,0.01 -0.04,0l0 0zm-3.44 -0.01c0,0 0,0 0,0 0.01,0 0.01,0 0.01,0 0,0 0,0 -0.01,0 0,0 0,0 0,0zm0.02 -0.03c0,0 0,0 0,0 0.01,0 0.01,0 0.01,0 0,0 0,0.01 -0.01,0.01 0,0 0,0 0,-0.01zm0.07 -0.03c0,-0.02 0,-0.03 0,-0.03 0.01,0 0.01,0 0.01,0 0,0 0,0 0,0 -0.01,0 -0.01,0 -0.01,0 0.02,-0.02 0.02,-0.01 0.02,0.03 0,0.05 -0.02,0.05 -0.02,0l0 0zm0.01 0.01c0,-0.01 0,-0.01 0,0 0,0 0,0.01 0,0.01 0,0 0,0 0,0 -0.01,0 -0.01,0 0,0 0,0 0,0 0,-0.01l0 0zm3.31 0.01c0,-0.01 0,-0.01 0.01,-0.01 0.02,0 0.01,0.01 0,0.02 -0.01,0 -0.01,0 -0.01,-0.01zm-3.36 0c0,0 0.01,0 0.01,-0.01 0,0 0,0 0,0.01 0,0.01 -0.01,0.01 -0.01,0l0 0zm3.4 0c0,-0.01 -0.01,-0.01 -0.01,-0.01 -0.01,-0.01 -0.01,-0.02 0,-0.02 0,0 0.01,0 0.01,0.01 0.01,0.02 0.01,0.03 0,0.02l0 0zm-3.38 -0.02c0,0 0,0 0,0 0,0 0,0 0,0 0,0 0,0 0,0 0,0 0,0 0,0zm-0.02 -0.01c0.01,-0.01 0.01,-0.01 0.01,-0.01 0,0 0,0 0,0.01 -0.01,0 -0.01,0.01 -0.01,0.01 -0.01,0 0,-0.01 0,-0.01l0 0zm0.08 -0.03c0,0 0,0 0,0 0.01,0 0.02,0 0.02,-0.02 0,0 0,-0.01 0.01,-0.01 0.01,0 0.01,0 0.01,0 0.01,-0.01 0.01,0 0.01,0.01 0,0.02 0,0.02 -0.01,0.02 0,0 -0.02,0 -0.02,0 -0.01,0.01 -0.02,0.01 -0.02,0l0 0zm3.24 0c0,0 0,0 0.01,0 0,0 0,0 0,-0.02 0,-0.01 0,-0.01 0.01,0 0,0 0,0 0,0 0.01,-0.01 0.01,-0.01 0.01,0 0,0.01 -0.01,0.02 -0.01,0.02 0,0 0,0.01 -0.01,0.01 -0.01,0 -0.01,-0.01 -0.01,-0.01zm0 -0.01c0,0 0,0 0,0 0,0 0,0 0,0 0,0 0,0 0,0 0,0 0,0 0,0zm-3.27 -0.01c-0.01,0 -0.01,0 0,-0.01 0.01,-0.01 0.02,-0.01 0.02,0 0,0.01 -0.01,0.01 -0.02,0.01l0 0zm3.25 0c-0.01,-0.01 -0.01,-0.02 0,-0.02 0.01,0 0.01,0 0,0 0,0.01 0,0.01 0,0.01 0,0.01 0,0.01 0,0.01zm0.02 0c0,0 0,0 0.01,0 0,0 0,0 -0.01,0 0,0 0,0 0,0l0 0zm0 -0.03c0,0 0,0 0,0 0,0 0,0 0,0 0,0.01 0,0 0,0l0 0zm-3.23 -0.01c-0.01,-0.01 -0.01,-0.01 0,-0.01 0.01,-0.01 0.02,0 0.02,0.01 -0.01,0.01 -0.02,0.01 -0.02,0zm0.04 -0.01c-0.01,0 0.01,-0.01 0.01,-0.01 0.01,0 0.01,0 0.01,0 0.01,-0.01 0.02,0 0.02,0 0,0.01 0.01,0.01 0.02,0.01 0,-0.01 0,-0.01 -0.01,-0.01 -0.01,-0.01 -0.01,-0.01 0.01,-0.01 0.01,0 0.01,0 0.01,0.01 0,0.02 -0.07,0.02 -0.07,0.01l0 0zm3.1 0.01c-0.01,-0.01 0,-0.02 0,-0.02 0,0 0.01,0 0.01,0.01 0.01,0.01 0,0.01 -0.01,0.01zm0.06 -0.01c-0.01,-0.01 0,-0.01 0.01,0 0.01,0.01 0.01,0.01 0,0.01 -0.01,0 -0.01,0 -0.01,-0.01l0 0zm0.01 0c0,0 0,0 0,0 0,0 0,0 0,0 0,0 0,0 0,0 0,0 0,0 0,0zm-0.02 -0.02c0,0 0,0 0,0 0,0 0,0 0,0 0,0.01 0,0.01 0,0.01 0,0 0,0 0,-0.01zm-0.03 -0.01c0,-0.01 0,-0.01 0.01,-0.01 0.01,0.01 0.01,0.01 0.01,0.01 -0.01,0.02 -0.02,0.01 -0.02,0l0 0zm-0.04 0c0,0 0,-0.01 0.01,-0.01 0,-0.01 0,-0.02 -0.02,-0.02 -0.01,0 -0.01,0 0,0 0,0 0,-0.01 0,-0.01 0,-0.01 0,-0.01 0.01,0 0.01,0 0.02,0.01 0.02,0.01 0.01,0.01 0.02,0.01 0.01,0.01 0,0 -0.01,0.01 -0.01,0.01 0,0 0,0.01 -0.02,0.01 0,0 0,0 0,0l0 0zm-3.06 -0.02c0,-0.01 0.01,-0.01 0.01,-0.01 0,0 0,0 -0.01,0.01 0,0 0,0.01 -0.01,0.01 0,0 0.01,-0.01 0.01,-0.01l0 0zm0.01 -0.01c0,0 0.01,0 0.01,0 0,0 0,0 0,0 0,0 0,0 0,0 0,0 -0.01,0 -0.01,0zm0.04 0c0,-0.01 0.01,-0.01 0.01,-0.01 0.02,0.01 0.03,0 0.03,-0.01 0,0 0,0 0,0 0.01,-0.01 0.01,0 0.01,0 0,0 0,0 0,0 0,0 0,0.01 0,0.01 0,0.01 -0.01,0.01 -0.03,0.01 -0.01,0 -0.02,0 -0.02,0zm0.1 -0.01c0,-0.01 0,-0.02 -0.01,-0.02 -0.01,0 -0.01,0 0,0 0,0 0.01,-0.01 0.01,-0.02 0.01,-0.01 0.01,-0.01 0.01,0 0,0.01 0,0.02 0.01,0.02 0.01,0 0.01,0 0.01,0.01 0,0.02 0,0.02 -0.01,0.02 -0.02,0 -0.02,-0.01 -0.02,-0.01zm2.83 0c0.01,-0.01 0.04,-0.03 0.05,-0.02 0.01,0 0.01,0 0,0 0,0 -0.02,0.02 -0.02,0.02 0.01,0 0,0.01 -0.01,0.01 -0.02,0 -0.02,-0.01 -0.02,-0.01l0 0zm-2.94 -0.01c0,0 0.01,-0.01 0.01,-0.01 0,0 0,0.01 0,0.01 0,0 0,0 -0.01,0 0,0 0,0 0,0zm3 0c0,0 0,-0.01 0,-0.01 0.01,0 0.01,0.01 0.01,0.01 0,0 0,0 -0.01,0 0,0 0,0 0,0zm-0.06 -0.02c0,0 0.01,0 0.01,0 0.01,-0.01 0.01,-0.01 0.01,0 -0.01,0 -0.03,0 -0.02,0zm-0.04 -0.01c0,-0.02 0,-0.02 -0.02,-0.02 -0.02,0 -0.02,0 0,0 0.01,0 0.02,0 0.02,-0.01 0,0 0,0 0.01,0.01 0.02,0.01 0.02,0.02 0,0.03 -0.01,0 -0.01,0 -0.01,-0.01l0 0zm-2.82 -0.01c0.01,-0.01 0.02,-0.01 0.02,-0.01 0,0 -0.01,0.02 -0.02,0.02 -0.01,0 -0.01,0 0,-0.01zm0.06 -0.01c-0.01,0 -0.01,-0.01 -0.01,-0.01 0,-0.01 0.02,-0.01 0.03,0 0,0 0.01,0 0.01,0 0,0 0,0 0.01,-0.01 0,-0.01 0,-0.01 0.03,-0.01 0.01,-0.01 0.03,-0.01 0.03,-0.02 0.01,-0.01 0.02,0 0.03,0.01 0.01,0.01 0.01,0.01 -0.02,0 -0.01,0 -0.01,0 -0.01,0.01 0,0.01 0.03,0.02 0.03,0.01 0,-0.01 0.01,-0.01 0.01,-0.01 0.01,0 0.01,0 0,0.01 -0.01,0 0,0.01 0.02,0.01 0.01,0 0.01,0 0.01,0 0,0.01 0.01,0 0.03,0 0.01,-0.01 0.02,-0.01 0.02,0 0,0 0.01,0 0.03,0 0.01,0 0.01,0 0.01,-0.01 0,0 0.01,0 0.01,0 0,0 0.01,0 0,0.01 0,0.02 -0.18,0.02 -0.18,0 0,-0.01 -0.04,-0.01 -0.05,0 -0.01,0.01 -0.03,0.02 -0.04,0.01l0 0zm2.57 -0.01c0,-0.01 0,-0.01 0.04,-0.01 0.04,0 0.08,0.02 0.04,0.02 -0.01,0 -0.03,0 -0.05,0 -0.03,0 -0.03,0 -0.03,-0.01zm-2.61 0.01c0,-0.01 0.01,-0.01 0.01,0 0,0 0,0 0,0 -0.01,0 -0.01,0 -0.01,0l0 0zm2.7 -0.02c-0.03,-0.01 -0.02,-0.02 0.01,-0.01 0.03,0 0.05,0.01 0.04,0.01 0,0 -0.03,0 -0.05,0l0 0zm-2.43 0c0,0 0.01,0 0.01,0 0,0 0,0 -0.01,0 0,0 -0.01,0 0,0l0 0zm2.26 0c0,-0.01 0.02,-0.02 0.05,-0.01 0.03,0.01 0.03,0.01 0.01,0.01 -0.03,0 -0.06,0 -0.06,0zm-2.22 -0.02c0,0 -0.01,0 -0.02,0 -0.01,0 -0.02,-0.01 -0.02,-0.01 0,0 -0.01,0 -0.01,0 -0.01,0 -0.02,0 -0.01,0 0,0.01 -0.01,0.01 -0.01,0 -0.01,-0.01 0,-0.01 0.04,-0.01 0.01,0 0.01,0 0.01,0 0,0 0.02,0 0.04,0 0.03,0 0.04,0 0.03,0 -0.01,0 -0.02,0 -0.02,0.01 0,0 -0.01,0.01 -0.01,0.01 0,0 -0.01,0 -0.01,0 0,0 0,0 0,0 0,0 0,0 -0.01,0zm-0.01 -0.01c0,0 0,0 0,0 0,0 -0.01,0 -0.01,0 0,0 0.01,0 0.01,0 0,0 0,0 0,0zm2.2 0.01c0,0 0,-0.01 0.01,-0.01 0.01,-0.01 0.03,-0.01 0.03,-0.01 -0.01,0.01 -0.01,0.01 -0.01,0.02 0,0.01 -0.03,0.01 -0.03,0zm0.13 0c0,0 -0.01,0 -0.01,0 -0.01,0 -0.01,-0.01 -0.01,-0.01 0,0 0,0 0.03,0 0.03,0 0.04,0.01 0.03,0.01 0,0.01 -0.04,0.01 -0.04,0zm-2.42 -0.02c-0.01,0 -0.01,0 0,0 0,0 0.01,0 0.01,0 0,0.01 0,0.01 -0.01,0zm2.25 0c0,-0.01 0.01,-0.01 0.01,0 0.01,0 0.01,0 0,0 -0.02,0 -0.02,0 -0.01,0z"/>
 </g>
 </svg>
