<svg xmlns="http://www.w3.org/2000/svg" width="32" height="32" viewBox="0 0 32 32" fill="currentColor">
  <path d="M26.9521 0C29.7136 0 31.9521 2.23858 31.9521 5V26.9521C31.9521 29.7136 29.7136 31.9521 26.9521 31.9521H5C2.23873 31.952 0 29.7135 0 26.9521V5C2.09951e-06 2.23869 2.23873 0.000179136 5 0H26.9521ZM1.77246 7.02637V15.6826C1.73434 17.762 2.53213 19.3681 3.76953 20.4531C4.99627 21.5285 6.62943 22.0701 8.24805 22.0938C9.8665 22.1173 11.5107 21.6238 12.7588 20.5781C13.9366 19.5911 14.7337 18.1335 14.832 16.2344L16.0117 18.0605L14.1387 26.8057L14.0088 27.4111H18.2207L18.3096 27.0234L19.6211 21.3418C23.3757 23.0176 26.4545 22.3397 28.3809 20.4873C30.3659 18.5784 31.0344 15.4983 29.9727 12.8359C29.1433 10.1083 26.4344 8.37664 23.666 8.35059C21.1022 8.32669 18.5063 9.75308 17.1748 13.0752C16.117 11.1129 15.5609 9.70705 14.8203 7.375L14.709 7.02637H10.7988L10.79 7.51758L10.6484 15.6836V15.6924C10.6483 16.5139 10.346 17.0722 9.92676 17.4277C9.49624 17.7927 8.90248 17.9761 8.28516 17.9609C7.03847 17.9301 5.90092 17.1231 5.89648 15.7002L6.03906 7.53516L6.04785 7.02637H1.77246ZM22.3691 12.6025C23.2984 12.36 24.4539 12.548 25.3076 13.166C26.1985 13.8112 26.7382 14.9114 26.3965 16.374L26.3916 16.3926L26.3857 16.4111C25.9357 17.8381 24.5803 18.4301 23.2744 18.4941C21.9705 18.558 20.527 18.1176 19.6514 17.2656L19.4736 17.0928L19.5039 16.8467C19.6385 15.7322 19.8803 14.7946 20.3311 14.0713C20.7958 13.3259 21.4638 12.839 22.3691 12.6025Z"/>
</svg>

