<svg xmlns="http://www.w3.org/2000/svg" width="32" height="32" viewBox="0 0 3.86 3.86">
 <g fill-rule="nonzero"><path fill="#EAF8E5" d="M0.29 3.71c-0.15,-0.05 -0.14,0.05 -0.14,-1.8 0,-1.86 -0.01,-1.76 0.14,-1.81 0.09,-0.03 3.29,-0.03 3.38,0 0.15,0.05 0.14,-0.05 0.14,1.81 0,1.86 0.01,1.75 -0.14,1.8 -0.09,0.03 -3.3,0.03 -3.38,0l0 0zm1.96 -0.94c0.04,-0.2 0.08,-0.36 0.08,-0.36 0,-0.02 0.06,0 0.13,0.03 0.53,0.28 1.13,-0.12 1.04,-0.69 -0.1,-0.69 -1.03,-0.79 -1.29,-0.13 -0.07,0.18 -0.22,-0.01 -0.39,-0.51 -0.14,-0.39 -0.35,-0.18 -0.35,0.34 0,0.58 -0.02,0.65 -0.2,0.74 -0.38,0.18 -0.53,-0.05 -0.53,-0.77 0,-0.45 0,-0.45 -0.15,-0.45 -0.2,0 -0.23,0.94 -0.04,1.25 0.33,0.56 1.17,0.33 1.21,-0.33 0.01,-0.21 0.03,-0.22 0.14,-0.03 0.05,0.08 0.11,0.17 0.13,0.2 0.05,0.07 0.05,0.06 -0.06,0.58 -0.05,0.26 -0.1,0.47 -0.1,0.48 0,0.25 0.32,-0.04 0.38,-0.35l0 0zm0.46 -0.55c-0.25,-0.07 -0.31,-0.14 -0.28,-0.3 0.08,-0.36 0.29,-0.52 0.55,-0.42 0.45,0.19 0.2,0.85 -0.27,0.72z"/>
 <path fill="#E3F6DC" d="M0.27 3.71c-0.13,-0.06 -0.12,0.04 -0.12,-1.8 0,-1.85 -0.01,-1.74 0.13,-1.8 0.11,-0.05 3.3,-0.05 3.41,0 0.13,0.06 0.12,-0.05 0.12,1.8 0,1.86 0.01,1.74 -0.15,1.81 -0.09,0.03 -3.3,0.02 -3.39,-0.01zm1.91 -0.57c0,-0.02 0.07,-0.32 0.13,-0.63 0.03,-0.1 0.04,-0.11 0.15,-0.06 0.51,0.26 1.05,-0.05 1.05,-0.6 0,-0.75 -0.97,-0.95 -1.29,-0.27 -0.09,0.19 -0.21,0.05 -0.39,-0.45 -0.06,-0.18 -0.05,-0.18 -0.22,-0.17 -0.15,0 -0.15,0 -0.16,0.52 -0.01,0.64 -0.07,0.76 -0.37,0.74 -0.27,-0.02 -0.32,-0.12 -0.33,-0.75 -0.01,-0.51 -0.01,-0.51 -0.16,-0.51 -0.25,-0.01 -0.22,1.13 0.05,1.39 0.43,0.43 1.14,0.1 1.14,-0.53 0,-0.11 0.03,-0.11 0.08,-0.01 0.02,0.03 0.07,0.12 0.12,0.2 0.09,0.13 0.09,0.13 -0.01,0.62 -0.06,0.27 -0.11,0.5 -0.1,0.51 0.01,0.02 0.29,0.01 0.31,0l0 0zm0.48 -0.95c-0.2,-0.07 -0.25,-0.12 -0.22,-0.27 0.07,-0.38 0.34,-0.55 0.6,-0.37 0.38,0.25 0.06,0.8 -0.38,0.64z"/>
 <path fill="#D6F3CA" d="M0.31 3.72c-0.17,-0.06 -0.16,0.03 -0.16,-1.82 0,-1.84 -0.01,-1.75 0.16,-1.8 0.09,-0.03 3.26,-0.03 3.34,0 0.17,0.05 0.16,-0.04 0.16,1.81 0,1.85 0.01,1.75 -0.16,1.81 -0.08,0.02 -3.27,0.02 -3.34,0zm1.88 -0.6c0,-0.01 0.04,-0.17 0.08,-0.35 0.08,-0.39 0.06,-0.37 0.21,-0.3 0.55,0.24 1.13,-0.16 1.04,-0.72 -0.12,-0.69 -1,-0.8 -1.31,-0.17 -0.09,0.18 -0.19,0.06 -0.38,-0.47 -0.14,-0.41 -0.37,-0.2 -0.38,0.36 0,0.43 -0.01,0.51 -0.03,0.55 -0.12,0.21 -0.38,0.26 -0.55,0.1 -0.11,-0.1 -0.12,-0.15 -0.12,-0.7 0,-0.46 0,-0.46 -0.16,-0.46 -0.19,0.01 -0.25,0.87 -0.09,1.22 0.31,0.62 1.22,0.42 1.27,-0.3 0.02,-0.16 0.03,-0.17 0.09,-0.06 0.03,0.05 0.08,0.14 0.12,0.2 0.09,0.13 0.09,0.09 -0.02,0.64 -0.06,0.25 -0.1,0.46 -0.1,0.47 0,0.04 0.32,0.03 0.33,-0.01l0 0zm0.53 -0.91c-0.14,-0.03 -0.29,-0.13 -0.29,-0.19 0,-0.36 0.3,-0.63 0.56,-0.5 0.41,0.21 0.17,0.79 -0.27,0.69z"/>
 <path fill="#C5EFB4" d="M0.28 3.7c-0.14,-0.06 -0.13,0.06 -0.13,-1.79 0,-2.12 -0.29,-1.83 1.83,-1.83 2.12,0 1.83,-0.29 1.83,1.83 0,1.85 0.01,1.72 -0.14,1.79 -0.1,0.05 -3.27,0.06 -3.39,0l0 0zm1.98 -0.9c0.09,-0.41 0.08,-0.39 0.18,-0.34 0.54,0.27 1.13,-0.09 1.09,-0.66 -0.05,-0.71 -1,-0.89 -1.31,-0.24 -0.09,0.19 -0.17,0.11 -0.37,-0.42 -0.17,-0.44 -0.4,-0.26 -0.4,0.32 -0.01,0.47 -0.01,0.5 -0.04,0.56 -0.13,0.23 -0.43,0.26 -0.58,0.04 -0.05,-0.07 -0.05,-0.07 -0.06,-0.58 -0.01,-0.52 -0.01,-0.52 -0.18,-0.52 -0.21,-0.01 -0.26,0.96 -0.06,1.27 0.35,0.56 1.2,0.34 1.25,-0.32 0.01,-0.18 0.03,-0.19 0.09,-0.07 0.02,0.05 0.07,0.13 0.11,0.19 0.09,0.12 0.09,0.05 -0.03,0.62 -0.06,0.27 -0.1,0.49 -0.09,0.49 0.14,0.15 0.34,-0.02 0.4,-0.34l0 0zm0.4 -0.62c-0.08,-0.03 -0.18,-0.08 -0.21,-0.12 -0.03,-0.04 0.03,-0.28 0.08,-0.38 0.19,-0.32 0.65,-0.2 0.65,0.17 0,0.27 -0.25,0.43 -0.52,0.33l0 0z"/>
 <path fill="#BAECA6" d="M0.32 3.72c-0.06,-0.03 -0.12,-0.08 -0.15,-0.14 -0.03,-0.08 -0.03,-3.27 0,-3.34 0.03,-0.07 0.09,-0.12 0.16,-0.14 0.08,-0.03 3.22,-0.03 3.3,0 0.07,0.02 0.13,0.07 0.16,0.14 0.03,0.07 0.03,3.26 0,3.34 -0.03,0.06 -0.09,0.11 -0.16,0.14 -0.07,0.02 -3.24,0.02 -3.31,0l0 0zm1.86 -0.56c0.01,-0.01 0.05,-0.16 0.08,-0.33 0.04,-0.18 0.08,-0.34 0.08,-0.36 0.01,-0.03 0.05,-0.05 0.08,-0.02 0.28,0.24 0.88,0.07 1.05,-0.29 0.4,-0.86 -0.85,-1.43 -1.27,-0.59 -0.03,0.07 -0.06,0.12 -0.07,0.11 -0.03,-0.01 -0.21,-0.37 -0.28,-0.55 -0.07,-0.2 -0.06,-0.19 -0.24,-0.19 -0.18,0 -0.17,-0.04 -0.18,0.55 0,0.5 0,0.5 -0.05,0.57 -0.15,0.21 -0.47,0.18 -0.58,-0.05 -0.03,-0.06 -0.03,-0.12 -0.03,-0.56 0,-0.56 0.02,-0.51 -0.19,-0.51 -0.18,0 -0.17,-0.03 -0.17,0.47 0,0.64 0.04,0.8 0.23,0.97 0.46,0.41 1.15,0.08 1.15,-0.55 0,-0.08 0.02,-0.08 0.09,0.03 0.02,0.05 0.08,0.14 0.11,0.19 0.06,0.09 0.06,0.09 -0.04,0.59 -0.06,0.27 -0.1,0.5 -0.1,0.51 0.01,0.02 0.3,0.02 0.33,0.01l0 0zm0.48 -0.98c-0.21,-0.08 -0.24,-0.12 -0.19,-0.31 0.08,-0.36 0.4,-0.49 0.62,-0.26 0.27,0.3 -0.04,0.71 -0.43,0.57z"/>
 <path fill="#A9E791" d="M0.3 3.7c-0.16,-0.08 -0.15,0.05 -0.15,-1.79 0,-2.12 -0.29,-1.83 1.83,-1.83 2.12,0 1.83,-0.29 1.83,1.83 0,1.83 0.01,1.71 -0.15,1.79 -0.11,0.06 -3.25,0.06 -3.36,0l0 0zm1.9 -0.57c0.01,-0.02 0.04,-0.18 0.08,-0.35 0.08,-0.37 0.07,-0.36 0.18,-0.3 0.63,0.32 1.31,-0.3 1.01,-0.93 -0.25,-0.55 -1.01,-0.54 -1.27,0.02 -0.03,0.05 -0.06,0.1 -0.07,0.1 -0.03,0 -0.2,-0.34 -0.28,-0.56 -0.06,-0.18 -0.05,-0.17 -0.24,-0.17 -0.17,0.01 -0.17,0.01 -0.17,0.52 -0.01,0.57 -0.01,0.57 -0.13,0.66 -0.16,0.14 -0.39,0.09 -0.49,-0.09 -0.04,-0.07 -0.04,-0.08 -0.05,-0.58 -0.01,-0.5 -0.01,-0.5 -0.18,-0.5 -0.17,0 -0.25,0.56 -0.16,1.04 0.14,0.8 1.31,0.73 1.36,-0.08 0.01,-0.15 0.02,-0.17 0.05,-0.1 0.01,0.03 0.06,0.11 0.11,0.18 0.11,0.17 0.11,0.11 -0.01,0.67 -0.06,0.25 -0.1,0.47 -0.09,0.48 0.02,0.05 0.33,0.04 0.35,-0.01l0 0zm0.52 -0.94c-0.28,-0.06 -0.33,-0.2 -0.19,-0.48 0.1,-0.2 0.33,-0.26 0.5,-0.14 0.33,0.23 0.09,0.72 -0.31,0.62z"/>
 <path fill="#9EE581" d="M0.32 3.71c-0.18,-0.09 -0.17,0.03 -0.17,-1.81 0,-2.1 -0.28,-1.81 1.83,-1.81 2.11,0 1.83,-0.29 1.83,1.82 0,1.8 0.01,1.67 -0.12,1.77 -0.07,0.06 -3.26,0.09 -3.37,0.03zm1.89 -0.6c0.01,-0.04 0.05,-0.2 0.08,-0.36 0.07,-0.32 0.07,-0.32 0.17,-0.27 0.51,0.26 1.08,-0.08 1.08,-0.64 0,-0.75 -1.01,-0.97 -1.34,-0.28 -0.03,0.06 -0.06,0.11 -0.07,0.11 -0.03,-0.01 -0.23,-0.41 -0.28,-0.58 -0.15,-0.42 -0.41,-0.2 -0.42,0.36 0,0.67 -0.12,0.86 -0.45,0.72 -0.18,-0.07 -0.19,-0.14 -0.19,-0.71 -0.01,-0.57 0.01,-0.52 -0.2,-0.52 -0.24,0.01 -0.27,1.03 -0.04,1.35 0.37,0.51 1.2,0.27 1.24,-0.36 0.01,-0.15 0.02,-0.17 0.07,-0.08 0.02,0.04 0.07,0.12 0.11,0.18 0.07,0.11 0.07,0.11 -0.03,0.61 -0.13,0.59 -0.14,0.53 0.08,0.53 0.18,0 0.18,0 0.19,-0.06l0 0zm0.47 -0.93c-0.13,-0.04 -0.23,-0.12 -0.22,-0.18 0.03,-0.42 0.34,-0.63 0.6,-0.41 0.29,0.27 0.01,0.7 -0.38,0.59z"/>
 <path fill="#93E273" d="M0.35 3.73c-0.2,-0.04 -0.2,-0.01 -0.2,-1.84 0,-2.08 -0.28,-1.8 1.83,-1.8 2.11,0 1.82,-0.29 1.82,1.82 0,1.84 0.01,1.68 -0.13,1.78 -0.04,0.04 -3.15,0.07 -3.32,0.04zm1.93 -0.92c0.08,-0.38 0.08,-0.38 0.19,-0.32 0.5,0.25 1.07,-0.09 1.07,-0.64 0,-0.77 -1,-0.99 -1.34,-0.3 -0.03,0.06 -0.06,0.1 -0.07,0.1 -0.03,-0.01 -0.19,-0.33 -0.26,-0.52 -0.07,-0.18 -0.07,-0.18 -0.25,-0.19 -0.22,0 -0.2,-0.05 -0.2,0.52 0,0.51 0,0.54 -0.08,0.62 -0.15,0.17 -0.41,0.14 -0.52,-0.06 -0.02,-0.04 -0.03,-0.12 -0.03,-0.56 -0.01,-0.51 -0.01,-0.51 -0.2,-0.52 -0.27,0 -0.27,1.1 -0.01,1.4 0.41,0.45 1.14,0.21 1.22,-0.4 0.01,-0.12 0.02,-0.14 0.03,-0.12 0.01,0.02 0.06,0.1 0.11,0.18 0.1,0.15 0.1,0.15 -0.01,0.64 -0.12,0.58 -0.13,0.53 0.1,0.52 0.18,0 0.18,0 0.25,-0.35l0 0zm0.38 -0.65c-0.07,-0.02 -0.18,-0.09 -0.2,-0.12 -0.03,-0.04 0.07,-0.33 0.14,-0.41 0.24,-0.29 0.7,0.02 0.54,0.36 -0.08,0.18 -0.27,0.24 -0.48,0.17z"/>
 <path fill="#86DE62" d="M0.36 3.73c-0.04,-0.02 -0.1,-0.06 -0.17,-0.14 -0.04,-0.05 -0.05,-3.31 -0.01,-3.35 0.02,-0.02 0.04,-0.04 0.05,-0.06 0.09,-0.1 -0.07,-0.09 1.75,-0.09 1.82,0 1.66,-0.01 1.75,0.09 0.01,0.02 0.03,0.04 0.05,0.06 0.08,0.09 0.02,3.31 -0.07,3.4 -0.07,0.08 -3.1,0.15 -3.35,0.09zm1.84 -0.57c0.01,-0.01 0.05,-0.18 0.09,-0.36 0.08,-0.4 0.07,-0.36 0.17,-0.31 0.64,0.33 1.33,-0.31 1.03,-0.95 -0.26,-0.54 -1.03,-0.54 -1.29,0 -0.03,0.06 -0.06,0.11 -0.07,0.11 -0.03,-0.01 -0.21,-0.38 -0.27,-0.55 -0.06,-0.18 -0.05,-0.18 -0.25,-0.18 -0.21,0 -0.19,-0.04 -0.19,0.53 0,0.66 -0.08,0.8 -0.39,0.73 -0.22,-0.06 -0.24,-0.14 -0.24,-0.77 0,-0.54 0.02,-0.49 -0.21,-0.49 -0.2,0 -0.18,-0.04 -0.18,0.52 0,0.62 0.02,0.74 0.21,0.93 0.43,0.44 1.16,0.14 1.2,-0.5 0.01,-0.06 0.01,-0.05 0.11,0.1 0.12,0.19 0.12,0.13 0,0.7 -0.05,0.25 -0.09,0.48 -0.09,0.49 0.02,0.04 0.34,0.04 0.37,0zm0.51 -0.99c-0.22,-0.05 -0.27,-0.14 -0.2,-0.37 0.09,-0.31 0.46,-0.38 0.61,-0.12 0.16,0.28 -0.07,0.57 -0.41,0.49l0 0z"/>
 <path fill="#81DD5D" d="M0.36 3.72c-0.02,0 -0.07,-0.04 -0.12,-0.08 -0.18,-0.18 -0.11,-3.51 0.07,-3.51 0.01,0 0.02,-0.01 0.01,-0.02 -0.02,-0.03 0.17,-0.03 1.66,-0.03 1.48,0 1.68,0 1.66,0.03 -0.01,0.01 0,0.02 0.02,0.02 0.15,0.05 0.14,-0.01 0.14,1.78 0,1.79 0.01,1.72 -0.14,1.77 -0.02,0.01 -0.03,0.02 -0.02,0.02 0.02,0.03 -3.12,0.05 -3.28,0.02l0 0zm1.86 -0.57c0,-0.02 0.04,-0.18 0.08,-0.36 0.08,-0.37 0.06,-0.33 0.16,-0.29 0.7,0.3 1.35,-0.33 1.01,-0.99 -0.26,-0.52 -1.03,-0.5 -1.28,0.03 -0.06,0.14 -0.18,-0.02 -0.32,-0.44 -0.07,-0.19 -0.05,-0.18 -0.26,-0.17 -0.18,0 -0.18,0 -0.19,0.51 -0.01,0.51 -0.01,0.52 -0.05,0.59 -0.1,0.17 -0.35,0.2 -0.49,0.05 -0.09,-0.09 -0.09,-0.09 -0.09,-0.64 -0.01,-0.51 -0.01,-0.51 -0.2,-0.51 -0.26,0 -0.3,1.05 -0.05,1.37 0.39,0.52 1.2,0.28 1.27,-0.38 0.01,-0.11 0.01,-0.11 0.04,-0.05 0.02,0.03 0.06,0.1 0.1,0.16 0.08,0.12 0.08,0.12 -0.02,0.59 -0.1,0.47 -0.11,0.53 -0.09,0.55 0.03,0.04 0.36,0.01 0.38,-0.02l0 0zm0.53 -0.98c-0.08,-0.01 -0.19,-0.06 -0.26,-0.11 -0.04,-0.03 -0.02,-0.19 0.06,-0.35 0.15,-0.32 0.61,-0.21 0.61,0.14 0,0.22 -0.18,0.36 -0.41,0.32l0 0z"/>
 <path fill="#7ADB52" d="M0.35 3.72c-0.02,-0.01 -0.04,-0.01 -0.03,-0.01 0.01,0 -0.01,-0.02 -0.03,-0.04 -0.03,-0.02 -0.07,-0.05 -0.08,-0.07 -0.01,-0.02 -0.02,-0.04 -0.03,-0.03 -0.03,0.02 -0.05,-3.19 -0.01,-3.3 0,-0.02 0.01,-0.03 0.01,-0.02 0,0.01 0.02,-0.01 0.04,-0.04 0.01,-0.02 0.04,-0.06 0.06,-0.07 0.03,-0.01 0.05,-0.03 0.05,-0.04 0.02,-0.02 3.28,-0.02 3.3,0 0,0.01 0.03,0.03 0.05,0.04 0.02,0.01 0.05,0.05 0.07,0.07 0.01,0.03 0.03,0.05 0.03,0.04 0,-0.01 0.01,0.01 0.01,0.03 0.02,0.07 0.02,3.21 0,3.26 0,0.02 -0.01,0.04 -0.01,0.03 0,-0.01 -0.02,0 -0.03,0.03 -0.02,0.03 -0.05,0.06 -0.07,0.07 -0.02,0.01 -0.05,0.03 -0.05,0.04 -0.02,0.02 -3.19,0.03 -3.28,0.01zm1.86 -0.56c0.01,-0.02 0.05,-0.18 0.09,-0.36 0.06,-0.27 0.07,-0.33 0.09,-0.33 0.02,0.01 0.08,0.03 0.14,0.06 0.56,0.24 1.19,-0.3 1,-0.89 -0.19,-0.64 -1.06,-0.7 -1.34,-0.1 -0.06,0.14 -0.16,0.01 -0.31,-0.42 -0.17,-0.47 -0.45,-0.28 -0.46,0.32 -0.01,0.46 -0.01,0.51 -0.04,0.56 -0.12,0.23 -0.43,0.24 -0.55,0.01 -0.03,-0.06 -0.03,-0.1 -0.03,-0.55 0,-0.59 0.02,-0.54 -0.21,-0.53 -0.31,0.01 -0.29,1.16 0.03,1.46 0.42,0.4 1.14,0.13 1.19,-0.44 0.01,-0.12 0.01,-0.12 0.11,0.04 0.1,0.16 0.1,0.16 0,0.66 -0.06,0.28 -0.11,0.51 -0.1,0.52 0.02,0.03 0.38,0.02 0.39,-0.01zm0.44 -1.01c-0.2,-0.08 -0.22,-0.15 -0.11,-0.42 0.13,-0.33 0.62,-0.24 0.62,0.13 0,0.24 -0.25,0.38 -0.51,0.29z"/>
 <path fill="#73D949" d="M0.37 3.73c-0.02,-0.01 -0.04,-0.02 -0.03,-0.03 0,-0.01 0,-0.01 -0.01,-0.01 -0.03,0 -0.13,-0.1 -0.13,-0.13 0,-0.02 0,-0.02 -0.01,0 -0.03,0.04 -0.04,-0.16 -0.04,-1.65 0,-1.49 0.01,-1.7 0.04,-1.65 0.01,0.02 0.01,0.02 0.01,0 0,-0.03 0.1,-0.13 0.13,-0.13 0.01,0 0.01,-0.01 0.01,-0.02 -0.02,-0.03 0.16,-0.03 1.64,-0.03 1.48,0 1.66,0 1.64,0.03 0,0.01 0,0.02 0.01,0.02 0.03,0 0.13,0.1 0.13,0.12 0,0.02 0.01,0.02 0.02,0.02 0.03,-0.02 0.03,0.14 0.03,1.64 0,1.49 -0.01,1.69 -0.04,1.65 -0.01,-0.02 -0.01,-0.02 -0.01,0 0,0.03 -0.1,0.13 -0.13,0.13 -0.01,0 -0.01,0 -0.01,0.01 0.02,0.03 -3.05,0.05 -3.25,0.03l0 0zm1.83 -0.55c0.02,-0.01 0.05,-0.13 0.1,-0.35 0.03,-0.17 0.07,-0.33 0.07,-0.34 0.01,-0.01 0.03,-0.01 0.1,0.02 0.53,0.24 1.1,-0.09 1.1,-0.65 0,-0.78 -1.04,-1.03 -1.38,-0.33 -0.06,0.11 -0.06,0.11 -0.09,0.06 -0.06,-0.1 -0.17,-0.34 -0.22,-0.5 -0.07,-0.18 -0.07,-0.18 -0.27,-0.18 -0.22,0 -0.21,-0.05 -0.21,0.54 0,0.63 -0.03,0.72 -0.3,0.72 -0.26,0 -0.29,-0.07 -0.29,-0.71 -0.01,-0.6 0.01,-0.55 -0.22,-0.55 -0.22,0 -0.2,-0.04 -0.21,0.47 -0.01,0.66 0.03,0.81 0.22,1 0.43,0.42 1.11,0.19 1.22,-0.42 0.01,-0.06 0.02,-0.11 0.02,-0.1 0,0.01 0.04,0.08 0.09,0.16 0.09,0.13 0.09,0.13 0.05,0.31 -0.19,0.86 -0.18,0.85 -0.14,0.86 0.06,0.02 0.34,0.01 0.36,-0.01l0 0zm0.49 -1.03c-0.11,-0.03 -0.21,-0.1 -0.21,-0.14 0,-0.38 0.33,-0.61 0.57,-0.39 0.27,0.24 0,0.65 -0.36,0.53z"/>
 <path fill="#6DD842" d="M0.37 3.72c-0.04,-0.01 -0.05,-0.01 -0.01,-0.01 0.04,-0.01 0.03,-0.01 -0.02,-0.03 -0.07,-0.03 -0.14,-0.09 -0.14,-0.15 0,-0.03 0,-0.03 -0.01,0 -0.03,0.08 -0.04,-0.16 -0.04,-1.62 0,-1.44 0.01,-1.73 0.04,-1.64 0,0.04 0.01,0.04 0.01,0.01 0,-0.05 0.07,-0.12 0.14,-0.14 0.05,-0.02 0.06,-0.03 0.02,-0.03 -0.04,0 -0.03,0 0.01,-0.02 0.06,-0.01 3.16,-0.01 3.22,0 0.05,0.02 0.05,0.02 0.01,0.02 -0.04,0 -0.04,0 0,0.02 0.07,0.02 0.12,0.05 0.15,0.12 0.02,0.05 0.03,0.05 0.03,0.03 0,-0.02 0,-0.02 0.01,0.02 0.04,0.13 0.02,3.32 -0.01,3.23 -0.02,-0.03 -0.02,-0.03 -0.02,0 0,0.05 -0.09,0.14 -0.15,0.16 -0.05,0.01 -0.05,0.01 -0.01,0.01 0.04,0.01 0.04,0.01 -0.01,0.02 -0.03,0.01 -0.75,0.01 -1.61,0.01 -0.86,0 -1.58,0 -1.61,-0.01zm1.85 -0.53c0.01,-0.01 0.05,-0.17 0.08,-0.36 0.09,-0.38 0.07,-0.36 0.16,-0.31 0.56,0.28 1.22,-0.19 1.11,-0.8 -0.14,-0.7 -1.07,-0.84 -1.39,-0.2 -0.06,0.13 -0.14,0.01 -0.34,-0.54 -0.02,-0.06 -0.02,-0.06 -0.23,-0.06 -0.2,0 -0.2,0 -0.21,0.52 -0.01,0.58 -0.01,0.58 -0.12,0.67 -0.09,0.06 -0.27,0.06 -0.35,0 -0.11,-0.08 -0.11,-0.1 -0.11,-0.64 0,-0.61 0.02,-0.56 -0.23,-0.56 -0.32,0.01 -0.32,1.16 0,1.47 0.44,0.44 1.23,0.14 1.24,-0.46 0,-0.06 0,-0.06 0.04,0.01 0.02,0.03 0.06,0.1 0.09,0.14 0.05,0.08 0.05,0.08 -0.06,0.58 -0.06,0.28 -0.1,0.52 -0.1,0.53 0.01,0.02 0.41,0.03 0.42,0.01l0 0zm0.37 -1.09c-0.06,-0.03 -0.11,-0.07 -0.11,-0.08 0,-0.42 0.42,-0.64 0.62,-0.33 0.19,0.3 -0.16,0.59 -0.51,0.41l0 0z"/>
 <path fill="#67D738" d="M0.34 3.71c0.02,-0.01 0.03,0 0.03,0 0.01,0.01 0,0.01 -0.02,0.01 -0.02,0 -0.02,-0.01 -0.01,-0.01l0 0zm3.26 0c0.01,-0.01 0.02,0 0.03,0 0,0.01 -0.01,0.01 -0.03,0.01 -0.01,0 -0.02,-0.01 0,-0.01l0 0zm-3.43 -0.17c0,-0.01 0,-0.02 0.01,-0.01 0,0.01 0,0.02 0,0.02 -0.01,0.01 -0.01,0 -0.01,-0.01zm3.61 0c0,-0.01 0,-0.02 0.01,-0.01 0,0.01 0,0.02 0,0.02 -0.01,0.01 -0.01,0 -0.01,-0.01zm0 -3.26c0,-0.02 0,-0.02 0.01,-0.01 0,0.01 0,0.03 0,0.03 -0.01,0.01 -0.01,0 -0.01,-0.02l0 0zm-3.61 -0.01c0,-0.01 0,-0.01 0.01,-0.01 0,0.01 0,0.02 0,0.02 -0.01,0.01 -0.01,0.01 -0.01,-0.01zm0.17 -0.17c0.02,0 0.03,0 0.03,0 0.01,0.01 0,0.01 -0.02,0.01 -0.02,0 -0.02,0 -0.01,-0.01l0 0zm3.26 0c0.01,0 0.02,0 0.03,0 0,0.01 -0.01,0.01 -0.03,0.01 -0.01,0 -0.02,0 0,-0.01l0 0z"/>
 </g>
 </svg>
