<svg xmlns="http://www.w3.org/2000/svg" width="32" height="32" viewBox="0 0 32 32" fill="currentColor">
  <path d="M22.6017 18.5768C22.2162 18.3843 20.3201 17.4569 19.9671 17.3277C19.6128 17.1999 19.3558 17.1366 19.0975 17.5215C18.8419 17.9051 18.1021 18.7692 17.8776 19.025C17.6531 19.282 17.4272 19.313 17.0418 19.1219C16.6563 18.9281 15.413 18.5238 13.94 17.2166C12.794 16.1988 12.0192 14.942 11.7947 14.5571C11.5701 14.1735 11.7713 13.9655 11.9634 13.7744C12.1373 13.6026 12.3501 13.3262 12.5422 13.1027C12.7356 12.8779 12.7992 12.7178 12.929 12.4607C13.0575 12.205 12.9939 11.9815 12.8965 11.7891C12.7992 11.5966 12.0283 9.70691 11.7077 8.93837C11.3936 8.1905 11.0757 8.29254 10.8395 8.27962C10.6149 8.26929 10.358 8.26671 10.0997 8.26671C9.84273 8.26671 9.42483 8.36229 9.07182 8.7472C8.71881 9.13083 7.72208 10.0595 7.72208 11.9492C7.72208 13.8377 9.10427 15.6628 9.29634 15.9198C9.48972 16.1756 12.0166 20.0531 15.8854 21.7155C16.8056 22.1108 17.5233 22.3471 18.0839 22.5228C19.008 22.816 19.849 22.7747 20.5122 22.6752C21.2532 22.5654 22.7938 21.7465 23.1156 20.8501C23.4375 19.9537 23.4375 19.1851 23.3401 19.025C23.2441 18.8648 22.9884 18.7692 22.6017 18.5768ZM15.5649 28.139H15.5597C13.2622 28.1391 11.007 27.5244 9.03029 26.359L8.56177 26.0826L3.7066 27.351L5.00183 22.6391L4.69684 22.156C3.41256 20.1207 2.73315 17.7652 2.73712 15.3618C2.73842 8.32225 8.49429 2.59501 15.57 2.59501C18.9963 2.59501 22.2175 3.92542 24.6393 6.33825C25.8342 7.52221 26.7812 8.93027 27.4257 10.4809C28.0702 12.0316 28.3993 13.6941 28.3939 15.3722C28.39 22.4117 22.6354 28.139 15.5649 28.139ZM26.4835 4.50538C25.0535 3.07282 23.3521 1.93695 21.4779 1.16358C19.6036 0.390218 17.5938 -0.00526514 15.5649 5.29293e-05C7.05759 5.29293e-05 0.133676 6.89108 0.129783 15.3605C0.129783 18.0679 0.839695 20.7106 2.19073 23.0395L0 31L8.18281 28.8636C10.4457 30.0906 12.9814 30.7336 15.5584 30.7339H15.5649C24.0708 30.7339 30.996 23.8429 30.9999 15.3722C31.0062 13.3536 30.6103 11.3539 29.835 9.48866C29.0598 7.62341 27.9207 5.92966 26.4835 4.50538Z"/>
</svg>

