<svg class="w-5 h-5 text-foreground-muted" aria-hidden="true" fill="none" viewBox="0 0 24 24" stroke="currentColor" stroke-width="2">
  <!-- Mac Command symbol ⌘ -->
  <path stroke-linecap="round" stroke-linejoin="round" d="M7 7V5a2 2 0 0 1 2-2h0a2 2 0 0 1 2 2v2M7 7H5a2 2 0 0 0-2 2h0a2 2 0 0 0 2 2h2M7 7h10M17 7V5a2 2 0 0 1 2-2h0a2 2 0 0 1 2 2v2M17 7h2a2 2 0 0 1 2 2h0a2 2 0 0 1-2 2h-2M17 7H7M7 17v2a2 2 0 0 0 2 2h0a2 2 0 0 0 2-2v-2M7 17H5a2 2 0 0 1-2-2h0a2 2 0 0 1 2-2h2M7 17h10M17 17v2a2 2 0 0 0 2 2h0a2 2 0 0 0 2-2v-2M17 17h2a2 2 0 0 0 2-2h0a2 2 0 0 0-2-2h-2"/>
</svg>
